<svg xmlns="http://www.w3.org/2000/svg" width="841.89" height="595.28" viewBox="0 0 841.89 595.28"><g fill="#58595B"><path fill-rule="evenodd" clip-rule="evenodd" d="M758.136 246.844h6.264c.752 0 1.453.104 2.087.288.613.16 1.173.435 1.604.83.457.344.875.794 1.043 1.394.27.664.482 1.295.482 1.897 0 1.036-.318 1.822-.798 2.512-.44.71-1.158 1.262-1.95 1.543l2.94 6.917h-3.06l-2.603-6.313h-3.27v6.313h-2.74v-15.38zm5.5-4.78c3.464 0 6.54 1.385 8.713 3.626 2.282 2.272 3.63 5.338 3.63 8.644 0 3.4-1.348 6.458-3.63 8.628-2.175 2.316-5.25 3.658-8.715 3.658-3.267 0-6.376-1.342-8.622-3.658-2.19-2.17-3.6-5.23-3.6-8.628 0-3.306 1.41-6.372 3.6-8.644 2.246-2.24 5.355-3.627 8.622-3.627zm7.48 4.885c-1.835-1.926-4.527-3.074-7.48-3.074-2.83 0-5.473 1.148-7.345 3.073-1.98 1.892-3.112 4.49-3.112 7.384 0 2.927 1.132 5.563 3.113 7.444 1.873 1.854 4.515 3.156 7.345 3.156 2.954 0 5.646-1.3 7.482-3.156 1.95-1.88 3.103-4.518 3.103-7.444 0-2.896-1.152-5.492-3.103-7.385zm-10.24 2.076v4.608h3.523c.304 0 .75-.043 1.103-.112.28-.203.56-.31.728-.694.17-.19.327-.42.36-.64.16-.273.16-.543.16-.935 0-.678-.193-1.193-.657-1.606-.496-.35-1.23-.62-2.114-.62h-3.103z"/><path d="M223.225 246.39c.226 17.45-3.99 35.13-12.55 53.152-9.105 19.115-21.496 34.563-37.09 46.13-17.813 13.12-37.85 19.718-59.96 19.718-37.417 0-56.39-18.61-56.922-55.952-.294-20.81 5.805-40.726 18.535-59.765 13.46-19.704 30.47-32.613 51.01-38.857 2.473-.786 5.222-.065 8.008 2.013 1.344.854 2.035 1.687 2.035 2.416 0 .456-.795 1.525-2.6 3.276-8.133 8.16-15.334 20.93-21.457 38.417-6.15 17.462-9.162 33.485-9.123 48.07.022 13.055 1.718 22.645 4.912 29.032 3.92 8.1 10.603 11.902 19.85 11.458 14.397-.556 26.85-10.8 37.686-30.743 10.508-19.195 15.57-39.95 15.226-62.568-.24-12.822-1.67-22.956-4.23-30.28-2.515-6.932-5.55-10.293-9.07-9.987-3.06.307-5.626 2.75-7.71 7.19-2.108 4.51-3.062 10.005-3.024 16.46.18 11.49 3.664 21.888 10.23 31.19 1.837 2.485 1.462 4.162-1.016 4.85-3.958 1.364-7.713 2.005-11.242 2.005-7.27 0-12.963-2.768-17.236-8.34-4.003-5.215-6.016-11.96-6.016-20.2-.098-11.815 4.745-22.867 14.23-33.268 9.487-10.386 20.572-15.63 33.25-15.63 28.975.002 43.725 16.846 44.275 50.21zM288.02 216.948c-5.4 5.76-11.39 20.262-18.068 43.55-4.985 17.218-8.718 32.943-11.033 46.927-.473 2.237-.64 3.995-.562 5.45.09 2.41 1.014 3.754 2.59 3.754 1.518 0 3.538-1.05 6.062-3.26 5.88-5.068 11.79-12.24 17.687-21.363.646-1.11 1.35-1.7 1.877-1.7.895 0 1.447.853 1.526 2.683.464 5.888.472 9.93.247 12.02-.326 2.128-1.31 4.15-2.946 6.28-5.663 7.367-12.332 13.74-19.857 18.68-7.998 5.182-15.29 7.858-21.747 7.858-7.27 0-12.5-1.454-15.872-4.305-3.41-2.95-5.25-7.58-5.52-14.23-.27-4.312.098-9.762 1.142-16.237 4.506-28.807 10.8-53.167 18.86-73.168 2.46-6.228 6.23-10.56 11.376-13.192 5.137-2.644 12.634-4.015 22.464-4.015 8.764 0 13.228.656 13.257 1.836.134.462-.46 1.348-1.482 2.432zM500.877 283.898c.838 3.212 1.31 5.76 1.357 7.71.168 2.884-.566 5.784-2.238 8.414-4.722 7.945-11.28 14.554-19.293 19.93-8.426 5.574-16.313 8.353-23.582 8.437-11.782.03-17.908-5.272-18.48-15.878-.03-1.19-.03-2.41 0-3.648.317-4.06 1.254-9.49 2.68-16.442 2.167-8.618 3.323-13.813 3.638-15.6.947-4.994-.13-7.534-2.895-7.534-3.452 0-7.17 6.79-11.07 20.323-2.356 8.23-4.963 17.925-7.75 29.047-.926 3.417-2.245 5.72-4.073 7.07-2.237 1.494-5.768 2.34-10.584 2.34-4.795 0-12.167-.744-22.033-2.254 3.658-13.163 7.66-29.308 12.055-48.145.678-5.416-.175-8.18-2.59-8.18-3.794.12-7.5 5.87-11.056 17.62-3.108 10.283-6.326 21.418-9.682 33.13-1.653 5.704-6.334 8.61-14.013 8.61-4.52.05-12.43-.72-23.893-2.41 6.678-21.012 10.77-38.907 12.55-53.636.782-6.566-.15-11.865-2.764-15.865 9.77-6.003 19.03-8.976 27.768-8.976 7.702-.09 11.416 3.684 11.067 11.217-.043 1.993-.474 4.98-1.41 9.104 12.798-13.656 24.256-20.49 34.29-20.585 8.114-.032 12.75 3.45 14.043 10.357.373 2.01.55 3.846.526 5.54 13.883-10.652 25.02-16.11 33.44-16.11 9.194-.093 13.92 4.807 14.035 14.568.137 4.714-1.048 11.88-3.556 21.522-2.58 9.706-3.707 16.615-3.49 21.074.14 1.918.702 2.826 1.866 2.826 1.37 0 3.358-1.17 5.784-3.67 6.673-6.697 12.215-13.495 16.372-20.294 1.326-2.213 2.325-2.022 2.98.39zM100.323 398.997c122.292-30.51 249.937-28.383 363.702-23.72-.602-6.604 1.627-15.16 4.234-26.346-124.562-3.258-265.487 1.68-366.893 47.718-.978.463-1.474 1.127-1.578 1.685 0 .664.375.928.533.664zm425.3-21.097c66.112 2.665 125.81 4.25 174.35-2.33 25.93-3.52 44.848-9.623 58.315-16.412 51.95-25.993 20.155-64.89-23.573-43.952-.67.374-1.334.703-2.07 1.006-.687.417-1.386.642-1.94.642-1.565 0-2.277-1.368-2.395-4.133 0-1.67.232-3.568.744-5.703 2.09-9.296 4.792-18.388 7.85-27.295 3.182-9.33 5.992-15.474 8.38-18.55.32-.555.493-1.108.32-1.793-.128-.563-.478-1.01-1.066-1.327-4.452-2.472-9.894-3.77-16.46-3.77-5.784 0-9.825 1.45-12.34 4.226-3.013-2.777-8.485-4.228-16.515-4.228-14.197 0-27.158 5.84-38.64 17.667-3.924 3.88-7.17 7.996-9.6 12.327-1.835 2.986-7.992 13.716-7.314 28.6.732 14.778 7.8 22.22 21.55 22.22 11.01 0 21.196-4.714 31.03-14.193 3.32 9.48 10.064 14.194 20.223 14.194 7.008 0 13.773-1.982 20.104-6.017 1.39-.773 2.73-1.756 4.05-2.64 39.168-24.712 52.67 24.172-41.102 29.318-40.87 2.217-103.705-1.903-175.938-4.875-4.353 19.5-1.886 23.03 2.037 27.017zm178.632-111.848c3.292.328 3.013 3.196-.86 14.93-3.6 10.49-11.634 26.714-13.494 29.592-1.87 2.89-6.12 9.81-9.628 8.386-2.897-1.214-.957-10.91 0-14.252 1.827-6.054 6.704-21.047 12.2-29.444 5.7-8.708 8.732-9.514 11.783-9.212z"/><path d="M586.567 273.194c-.51 15.62-6.34 28.99-17.496 40.007-11.667 11.272-25.79 16.895-42.55 16.895h-8.663c-.943 4.195-4.584 22.32-6.085 30.078-1.703 8.5-.774 14.74 2.865 18.83-10.23 3.65-18.805 5.573-25.82 5.72-9.02.138-13.54-4.25-13.666-13.038-.085-2.556.28-5.56.97-8.918 1.988-10.352 7.548-35.376 11.99-50.98 6.43-22.775 9.72-34.438 9.936-34.78 1.03-4.25 1.502-8.54 1.48-12.863-.11-5.187-.938-8.834-2.665-10.932 10.84-5.42 20.113-7.96 28.044-7.568 7.014.354 10.62 3.713 10.714 9.984 0 1.586-.208 3.33-.703 5.45-.472 2.036-.774 3.337-.83 3.968 8.386-9.625 18.707-14.394 30.787-14.394 6.56 0 11.742 1.72 15.705 5.204 4.32 3.957 6.293 9.782 5.99 17.338zm-38.608-7.708c-3.236 0-7.318 4.2-12.197 12.677-5.347 9.643-9.87 21.806-13.438 36.593-.665 2.64.2 3.957 2.58 3.957.6 0 1.32-.057 2.035-.088 6.952-1.277 13.98-12.286 20.934-32.96 2.204-6.417 3.26-11.416 3.183-15.02-.07-3.458-1.07-5.16-3.098-5.16zM349.19 291.64c-.177 4.227-.567 7.18-1.048 8.755-.448 1.635-1.566 3.595-3.387 5.907-13.038 16.816-26.458 25.24-40.255 25.348-7.564.18-13.293-1.735-17.207-5.706-3.688-3.598-5.543-8.484-5.616-14.422 0-3.22.375-6.605 1.343-10.04 2.764-7.98 6.112-18.316 10.117-31.02 1.713-5.943 1.45-10.91-.787-14.978 8.2-3.077 16.477-4.598 25.002-4.598 8.494 0 12.752 3.643 12.84 11.065.064 2.394-.312 4.997-1.183 7.938-2.484 7.31-6.096 18.74-10.895 34.102-.737 2.646-1.065 4.81-1.02 6.36 0 1.9.625 2.852 1.735 2.852 1.297 0 3.235-1.132 5.798-3.477 9.133-8.434 16.115-16.284 21.236-23.46.71-1 1.367-1.558 1.828-1.558 1.234 0 1.624 2.315 1.497 6.933zM342.367 221.66c.07 5.86-2.996 10.64-9.092 14.364-5.253 3.21-10.968 4.86-17.397 4.86-4.714 0-8.667-1.14-12.03-3.273-3.935-2.6-5.827-6.01-5.928-10.187-.147-5.978 2.954-10.727 9.187-14.494 5.355-3.272 11.19-4.79 17.51-4.79 4.435 0 8.35 1.042 11.818 3.284 3.883 2.462 5.79 5.922 5.932 10.237zm306.83 2.633c.05 5.975-2.923 10.716-8.946 14.455-5.247 3.223-11.118 4.848-17.533 4.848-4.632 0-8.66-1.054-11.96-3.3-3.905-2.565-5.886-5.98-5.94-10.176-.084-5.927 3.004-10.708 9.207-14.42 5.347-3.203 11.146-4.884 17.395-4.884 4.566 0 8.593 1.107 11.867 3.264 3.877 2.616 5.902 6.054 5.91 10.213zM656.062 294.42c-.162 4.234-.45 7.158-.944 8.747-.56 1.58-1.703 3.538-3.468 5.84-13.046 16.807-26.48 25.283-40.214 25.4-7.627.154-13.293-1.812-17.28-5.73-3.64-3.646-5.465-8.44-5.668-14.494 0-3.22.404-6.525 1.41-9.938 2.78-8.05 6.102-18.292 10.204-31.05 1.67-5.838 1.43-10.863-.85-15.005 8.182-3.03 16.466-4.598 24.95-4.598 8.57 0 12.806 3.67 13.014 11.176 0 2.253-.48 4.92-1.376 7.87-2.41 7.31-6 18.685-10.77 34.07-.774 2.73-1.085 4.815-1.085 6.342 0 1.934.608 2.86 1.79 2.86 1.322 0 3.187-1.15 5.713-3.395 9.098-8.523 16.272-16.367 21.273-23.5.737-1.07 1.31-1.542 1.963-1.542 1.098-.003 1.586 2.305 1.34 6.946z"/></g></svg>