<?xml version="1.0" encoding="utf-8"?>
<!-- Generator: Adobe Illustrator 16.0.0, SVG Export Plug-In . SVG Version: 6.00 Build 0)  -->
<!DOCTYPE svg PUBLIC "-//W3C//DTD SVG 1.1//EN" "http://www.w3.org/Graphics/SVG/1.1/DTD/svg11.dtd">
<svg version="1.1" id="Layer_1" xmlns="http://www.w3.org/2000/svg" xmlns:xlink="http://www.w3.org/1999/xlink" x="0px" y="0px"
	 width="841.89px" height="595.28px" viewBox="0 0 841.89 595.28" enable-background="new 0 0 841.89 595.28" xml:space="preserve">
<g>
	<g>
		<g>
			<path fill="#58595B" d="M231.931,401.966c0,2.13-0.44,3.955-1.32,5.502c-0.88,1.532-2.087,2.783-3.633,3.729
				c-1.598,1.002-3.421,1.714-5.468,2.158c-2.05,0.448-4.354,0.671-6.906,0.671h-3.089v10.619c0,0.646,0.12,1.199,0.358,1.667
				c0.239,0.466,0.696,0.844,1.37,1.126c0.359,0.145,0.934,0.292,1.732,0.451c0.796,0.17,1.47,0.267,2.023,0.318v2.084h-20.47
				v-2.084c0.513-0.052,1.195-0.118,2.047-0.226c0.853-0.097,1.446-0.213,1.785-0.357c0.694-0.282,1.148-0.629,1.372-1.035
				c0.221-0.413,0.332-0.971,0.332-1.705v-26.641c0-0.629-0.105-1.164-0.319-1.624c-0.213-0.44-0.675-0.826-1.384-1.126
				c-0.499-0.211-1.158-0.402-1.982-0.569c-0.825-0.168-1.444-0.285-1.85-0.333v-2.078h20.845c4.879,0,8.528,0.774,10.938,2.33
				C230.722,396.395,231.931,398.772,231.931,401.966z M221.549,403.317c0-2.831-0.574-4.946-1.719-6.317
				c-1.146-1.379-3.18-2.063-6.106-2.063h-2.21v16.586h1.118c2.909,0,5.125-0.677,6.64-2.012
				C220.788,408.166,221.549,406.104,221.549,403.317z"/>
			<path fill="#58595B" d="M259.63,430.291h-20.949v-2.084c0.48-0.035,1.186-0.081,2.115-0.148c0.933-0.081,1.577-0.187,1.933-0.329
				c0.654-0.266,1.103-0.613,1.343-1.049c0.241-0.441,0.359-0.992,0.359-1.66v-26.777c0-0.609-0.114-1.142-0.345-1.609
				c-0.231-0.451-0.687-0.832-1.358-1.114c-0.43-0.178-1.056-0.349-1.889-0.542c-0.834-0.187-1.555-0.313-2.158-0.387v-2.078h20.949
				v2.078c-0.533,0.048-1.196,0.13-1.996,0.227c-0.799,0.098-1.472,0.234-2.023,0.411c-0.691,0.234-1.156,0.587-1.384,1.074
				c-0.229,0.494-0.345,1.047-0.345,1.672v26.749c0,0.638,0.119,1.181,0.36,1.64c0.24,0.452,0.696,0.819,1.37,1.101
				c0.372,0.16,0.987,0.323,1.85,0.465c0.86,0.16,1.583,0.243,2.168,0.278V430.291z"/>
			<path fill="#58595B" d="M302.587,417.536l-1.278,12.755H265.85v-1.609l24.422-33.744h-8.286c-1.689,0-2.902,0.048-3.649,0.146
				c-0.745,0.101-1.446,0.297-2.104,0.606c-0.761,0.283-1.605,1.033-2.53,2.257c-0.925,1.21-2.157,3.253-3.701,6.097h-2.158
				l1.171-11.53h32.851v1.602l-24.419,33.75h9.504c2.984,0,5.013-0.122,6.088-0.361c1.069-0.234,1.862-0.668,2.355-1.299
				c1.014-1.224,1.948-2.565,2.811-4.037c0.862-1.473,1.654-3.01,2.384-4.631H302.587z"/>
			<path fill="#58595B" d="M344.261,417.536l-1.277,12.755h-35.459v-1.609l24.421-33.744h-8.28c-1.689,0-2.905,0.048-3.649,0.146
				c-0.747,0.101-1.451,0.297-2.105,0.606c-0.765,0.283-1.61,1.033-2.529,2.257c-0.927,1.21-2.158,3.253-3.706,6.097h-2.153
				l1.17-11.53h32.848v1.602l-24.417,33.75h9.503c2.987,0,5.012-0.122,6.088-0.361c1.072-0.234,1.861-0.668,2.36-1.299
				c1.007-1.224,1.945-2.565,2.805-4.037c0.861-1.473,1.657-3.01,2.383-4.631H344.261z"/>
			<path fill="#58595B" d="M391.579,430.291h-20.573v-2.084c0.957-0.068,2.083-0.242,3.372-0.517
				c1.291-0.274,1.938-0.613,1.938-1.022c0-0.144-0.012-0.3-0.039-0.483c-0.025-0.177-0.102-0.411-0.229-0.718l-3.218-7.825H359.79
				c-0.305,0.726-0.634,1.574-0.994,2.554c-0.36,0.975-0.678,1.851-0.941,2.62c-0.333,0.989-0.531,1.703-0.595,2.146
				c-0.065,0.442-0.09,0.753-0.09,0.934c0,0.563,0.427,1.05,1.286,1.451c0.86,0.396,2.292,0.693,4.295,0.86v2.084h-15.49v-2.084
				c0.582-0.035,1.249-0.118,1.982-0.278c0.733-0.142,1.316-0.352,1.744-0.62c0.726-0.428,1.341-0.949,1.85-1.577
				c0.503-0.618,0.928-1.353,1.264-2.201c2.06-4.986,4.12-9.982,6.189-14.987c2.069-5.003,4.35-10.529,6.852-16.56h5.329
				c3.474,8.55,6.201,15.314,8.173,20.283c1.966,4.976,3.642,9.088,5.03,12.352c0.23,0.53,0.522,1.014,0.876,1.454
				c0.357,0.425,0.861,0.844,1.516,1.236c0.499,0.28,1.079,0.502,1.732,0.633c0.655,0.152,1.252,0.23,1.781,0.266V430.291z
				 M371.731,415.011l-5.466-13.662l-5.39,13.662H371.731z"/>
			<path fill="#58595B" d="M454.935,430.291H434.36v-2.084c0.958-0.068,2.084-0.242,3.381-0.517c1.287-0.274,1.94-0.613,1.94-1.022
				c0-0.144-0.013-0.3-0.05-0.483c-0.025-0.177-0.102-0.411-0.215-0.718l-3.23-7.825H423.15c-0.3,0.726-0.635,1.574-0.995,2.554
				c-0.36,0.975-0.677,1.851-0.939,2.62c-0.337,0.989-0.532,1.703-0.6,2.146c-0.058,0.442-0.087,0.753-0.087,0.934
				c0,0.563,0.427,1.05,1.289,1.451c0.862,0.396,2.294,0.693,4.297,0.86v2.084h-15.494v-2.084c0.584-0.035,1.248-0.118,1.986-0.278
				c0.729-0.142,1.313-0.352,1.736-0.62c0.73-0.428,1.349-0.949,1.853-1.577c0.504-0.618,0.928-1.353,1.264-2.201
				c2.061-4.986,4.121-9.982,6.193-14.987c2.064-5.003,4.35-10.529,6.852-16.56h5.323c3.476,8.55,6.199,15.314,8.17,20.283
				c1.974,4.976,3.641,9.088,5.031,12.352c0.238,0.53,0.531,1.014,0.875,1.454c0.361,0.425,0.866,0.844,1.52,1.236
				c0.495,0.28,1.081,0.502,1.732,0.633c0.655,0.152,1.248,0.23,1.778,0.266V430.291z M435.085,415.011l-5.455-13.662l-5.394,13.662
				H435.085z"/>
			<path fill="#58595B" d="M494.917,418.172l-0.743,12.119h-34.802v-2.084c0.629-0.052,1.36-0.126,2.192-0.252
				c0.83-0.105,1.379-0.226,1.644-0.331c0.639-0.247,1.089-0.596,1.338-1.035c0.247-0.442,0.369-1.006,0.369-1.705v-26.641
				c0-0.646-0.095-1.173-0.29-1.592c-0.205-0.411-0.674-0.796-1.417-1.132c-0.547-0.248-1.203-0.446-1.974-0.596
				c-0.782-0.149-1.394-0.26-1.862-0.333v-2.078h20.744v2.078c-0.575,0.048-1.234,0.13-2.013,0.227
				c-0.768,0.098-1.442,0.234-2.004,0.411c-0.697,0.234-1.158,0.587-1.394,1.074c-0.234,0.494-0.337,1.047-0.337,1.672v24.841
				c0,1.155,0.069,2.085,0.237,2.768c0.148,0.66,0.469,1.158,0.936,1.484c0.452,0.335,1.103,0.553,1.925,0.648
				c0.827,0.107,1.968,0.148,3.417,0.148c1.416,0,2.797-0.077,4.142-0.253c1.347-0.17,2.296-0.534,2.888-1.108
				c0.901-0.895,1.834-2.173,2.781-3.816c0.956-1.636,1.712-3.144,2.275-4.515H494.917z"/>
			<path fill="#58595B" d="M552.708,402.603h-2.066c-0.519-1.473-1.428-3.028-2.733-4.674c-1.298-1.658-2.536-2.569-3.705-2.727
				c-0.528-0.072-1.243-0.134-2.127-0.186c-0.892-0.054-1.703-0.079-2.444-0.079h-5.873v14.801h3.752c1.069,0,1.983-0.12,2.773-0.36
				c0.781-0.241,1.46-0.665,2.071-1.295c0.448-0.44,0.869-1.183,1.295-2.225c0.416-1.034,0.669-1.924,0.758-2.663h2.022v15.888
				h-2.022c-0.07-0.797-0.351-1.773-0.823-2.922c-0.479-1.139-0.895-1.897-1.229-2.273c-0.513-0.562-1.173-0.99-1.971-1.264
				c-0.797-0.273-1.753-0.408-2.874-0.408h-3.752v12.508c0,0.638,0.122,1.181,0.361,1.64c0.238,0.452,0.694,0.819,1.365,1.101
				c0.39,0.16,0.931,0.311,1.613,0.438c0.689,0.145,1.357,0.237,2.038,0.306v2.084h-20.36v-2.084
				c0.512-0.052,1.189-0.118,2.041-0.226c0.849-0.097,1.449-0.213,1.786-0.357c0.646-0.247,1.077-0.596,1.325-1.035
				c0.247-0.442,0.381-1.006,0.381-1.705v-26.641c0-0.609-0.121-1.138-0.338-1.592c-0.215-0.447-0.672-0.831-1.368-1.132
				c-0.496-0.213-1.159-0.407-1.973-0.582c-0.812-0.178-1.437-0.299-1.854-0.347v-2.078h33.932V402.603z"/>
			<path fill="#58595B" d="M594.36,396.723c1.857,1.706,3.337,3.764,4.436,6.17c1.087,2.415,1.63,5.164,1.63,8.249
				c0,2.754-0.461,5.378-1.378,7.861c-0.921,2.477-2.257,4.624-3.989,6.411c-1.839,1.875-3.979,3.311-6.445,4.357
				c-2.475,1.04-5.405,1.558-8.815,1.558c-2.749,0-5.347-0.451-7.799-1.362c-2.45-0.902-4.6-2.221-6.471-3.937
				c-1.84-1.687-3.307-3.736-4.386-6.152c-1.089-2.414-1.627-5.101-1.627-8.063c0-3.086,0.526-5.895,1.577-8.404
				c1.063-2.51,2.508-4.655,4.365-6.45c1.82-1.758,3.991-3.116,6.502-4.053c2.512-0.956,5.185-1.429,8.031-1.429
				c2.813,0,5.467,0.46,7.935,1.378C590.404,393.784,592.556,395.068,594.36,396.723z M587.526,423.757
				c0.795-1.615,1.368-3.443,1.726-5.486c0.353-2.052,0.534-4.366,0.534-6.934c0-2.195-0.161-4.315-0.47-6.383
				c-0.31-2.078-0.839-3.916-1.578-5.537c-0.765-1.619-1.78-2.912-3.038-3.895c-1.268-0.976-2.834-1.465-4.709-1.465
				c-3.216,0-5.658,1.521-7.324,4.566c-1.666,3.058-2.497,7.365-2.497,12.926c0,2.354,0.171,4.587,0.545,6.691
				c0.353,2.093,0.923,3.927,1.718,5.484c0.796,1.595,1.806,2.821,3.033,3.696c1.217,0.888,2.733,1.315,4.525,1.315
				c1.752,0,3.265-0.433,4.52-1.328C585.775,426.521,586.774,425.311,587.526,423.757z"/>
			<path fill="#58595B" d="M651.609,430.291H637.11c-2.501-3.836-4.577-6.894-6.242-9.158c-1.65-2.271-3.704-4.901-6.179-7.875
				h-1.452v11.466c0,0.638,0.113,1.179,0.35,1.627c0.244,0.442,0.7,0.813,1.378,1.113c0.33,0.144,0.856,0.287,1.583,0.438
				c0.715,0.161,1.334,0.254,1.853,0.306v2.084h-20.159v-2.084c0.518-0.052,1.197-0.118,2.037-0.226
				c0.85-0.097,1.446-0.213,1.809-0.357c0.663-0.282,1.12-0.644,1.352-1.074c0.231-0.434,0.345-0.985,0.345-1.666v-26.641
				c0-0.646-0.096-1.177-0.293-1.609c-0.202-0.416-0.665-0.797-1.403-1.114c-0.576-0.229-1.242-0.424-2.014-0.582
				c-0.773-0.161-1.382-0.273-1.832-0.347v-2.078h21.2c4.737,0,8.335,0.739,10.794,2.225c2.453,1.485,3.68,3.728,3.68,6.725
				c0,2.642-0.764,4.771-2.276,6.369c-1.52,1.6-3.826,2.863-6.928,3.771c1.202,1.557,2.605,3.375,4.218,5.429
				c1.604,2.062,3.281,4.155,5.018,6.313c0.553,0.691,1.303,1.535,2.248,2.542c0.945,1,1.79,1.613,2.514,1.844
				c0.406,0.129,0.925,0.229,1.562,0.329c0.625,0.08,1.073,0.132,1.34,0.148V430.291z M633.483,402.204
				c0-2.52-0.703-4.364-2.121-5.521c-1.401-1.168-3.413-1.746-6.032-1.746h-2.093v15.816h2.015c2.612,0,4.638-0.689,6.074-2.056
				C632.766,407.332,633.483,405.165,633.483,402.204z"/>
			<path fill="#58595B" d="M699.203,394.591c-0.5,0.048-1.213,0.152-2.143,0.293c-0.913,0.142-1.749,0.483-2.502,1.043
				c-0.646,0.475-1.116,1.295-1.391,2.453c-0.276,1.166-0.412,2.879-0.412,5.133v26.984h-4.738l-23.538-29.194v17.728
				c0,2.191,0.152,3.866,0.438,5.018c0.291,1.14,0.773,1.982,1.43,2.515c0.485,0.389,1.245,0.74,2.289,1.035
				c1.043,0.3,1.872,0.513,2.502,0.609v2.084h-16.243v-2.084c0.698-0.052,1.49-0.175,2.394-0.376
				c0.889-0.211,1.639-0.522,2.248-0.95c0.683-0.513,1.162-1.285,1.417-2.329c0.259-1.039,0.388-2.78,0.388-5.229v-17.888
				c0-0.894-0.138-1.729-0.411-2.516c-0.276-0.795-0.711-1.471-1.295-2.047c-0.61-0.592-1.332-1.074-2.139-1.412
				c-0.812-0.352-1.725-0.621-2.754-0.821v-2.126h14.216l20.655,25.551v-14.289c0-2.271-0.15-3.965-0.447-5.069
				c-0.307-1.113-0.791-1.931-1.441-2.462c-0.516-0.415-1.281-0.764-2.29-1.053c-1.008-0.287-1.828-0.492-2.449-0.6v-2.078h16.217
				V394.591z"/>
			<path fill="#58595B" d="M740.554,396.723c1.864,1.706,3.345,3.764,4.432,6.17c1.092,2.415,1.641,5.164,1.641,8.249
				c0,2.754-0.461,5.378-1.389,7.861c-0.924,2.477-2.254,4.624-3.997,6.411c-1.819,1.875-3.978,3.311-6.438,4.357
				c-2.463,1.04-5.399,1.558-8.809,1.558c-2.748,0-5.352-0.451-7.801-1.362c-2.452-0.902-4.607-2.221-6.468-3.937
				c-1.851-1.687-3.311-3.736-4.395-6.152c-1.084-2.414-1.621-5.101-1.621-8.063c0-3.086,0.53-5.895,1.584-8.404
				c1.053-2.51,2.507-4.655,4.346-6.45c1.837-1.758,4.001-3.116,6.514-4.053c2.511-0.956,5.185-1.429,8.022-1.429
				c2.821,0,5.475,0.46,7.952,1.378C736.605,393.784,738.738,395.068,740.554,396.723z M733.707,423.757
				c0.796-1.615,1.38-3.443,1.734-5.486c0.358-2.052,0.529-4.366,0.529-6.934c0-2.195-0.146-4.315-0.464-6.383
				c-0.31-2.078-0.834-3.916-1.586-5.537c-0.761-1.619-1.769-2.912-3.033-3.895c-1.255-0.976-2.828-1.465-4.713-1.465
				c-3.209,0-5.65,1.521-7.321,4.566c-1.669,3.058-2.502,7.365-2.502,12.926c0,2.354,0.189,4.587,0.545,6.691
				c0.371,2.093,0.941,3.927,1.72,5.484c0.795,1.595,1.812,2.821,3.033,3.696c1.229,0.888,2.738,1.315,4.525,1.315
				c1.76,0,3.265-0.433,4.528-1.328C731.958,426.521,732.965,425.311,733.707,423.757z"/>
		</g>
	</g>
	<g>
		<path fill="#58595B" d="M551.739,217.411c-0.28,2.91,3.34,4.978,4.688,5.333c9.011-11.923,21.84-29.031,26.576-33.032
			c-2.058-3.956-11.124-12.785-20.692-15.312c-6.1,12.039-10.736,27.901-11.108,30.725c-0.626,4.764,1.952,7.593,1.952,7.593
			S551.823,216.551,551.739,217.411z"/>
		<path fill="#58595B" d="M421.652,217.411c-0.188,2.91,3.51,4.978,4.856,5.333c8.601-11.923,20.858-29.031,25.462-33.032
			c-2.181-3.956-11.556-12.785-21.203-15.312c-5.703,12.039-9.791,27.901-10.07,30.725c-0.467,4.764,2.204,7.593,2.204,7.593
			S421.707,216.551,421.652,217.411z"/>
		<path fill="#58595B" d="M775.469,317.264c-12.256,11.544-30.605,20.937-29.736,13.894c0.702-5.663,7.156-31.903,32.396-60.627
			c1.847-2.104-17.152-14.685-18.915-12.022c-23.81,35.91-29.551,57.815-31.166,64.028c-7.337,6.735-18.949,14.985-22.152,13.142
			c-13.921-8.01,1.333-37.209,14.644-54.889c13.912-18.331,40.445-35.046,51.499-27.312c4.226,2.965,4.448,6.912,4.866,4.593
			c0.604-3.307-0.845-8.27-2.787-12.471c-4.563-9.813-15.917-13.204-19.792-12.361c-22.952,5.817-48.496,31.854-59.318,49.897
			c-7.916,13.272-11.769,22.595-12.847,33.913c-0.039,0.422-0.033,0.841-0.045,1.258c-9.686,10.755-22.995,19.261-24.712,15.761
			c-1.396-2.839,5.713-36.174,42.344-85.461c-4.359-8.548-18.577-16.307-19.608-15.548c-24.107,17.87-68.893,82.7-68.893,82.7
			s14.032-39.229,37.024-67.152c-3.521-7.629-18.688-16.467-20.827-15.204c-11.331,6.687-36.039,37.687-67.095,82.165
			c0,0,10.732-33.633,36.406-66.961c-2.46-5.968-13.97-13.583-20.205-15.548c-16.992,28.748-21.528,38.823-28.404,56.934
			c-2.279,6.048-4.309,11.838-6.007,17.289c-2.63,3.497-5.188,6.772-7.649,9.756c-9.252,11.375-25.903,22.378-25.479,15.334
			c0.424-7.039,9.879-43.872,39.554-83.764c-4.306-8.413-17.387-14.685-20.413-15.548c-16.683,27.822-25.921,50.373-31.092,66.238
			c-4.005,4.659-8.913,10.496-14.896,17.74c-9.176,11.312-25.603,22.378-25.276,15.334c0.32-7.039,4.659-33.59,43.1-73.862
			c0,0-4.999-8.804-20.57-15.552c-0.958-0.412-13.896,15.888-21.785,15.161c-2.7-0.244,0.409-11.456,2.523-18.703
			c-1.726-3.085-8.53-9.596-16.561-10.772c-8.925,16.798-6.513,27.456-1.79,33.439c-10.094,21.456-23.144,41.143-34.022,54.955
			c-8.884,11.375-25.153,22.378-24.971,15.334c0.189-7.039,8.405-43.872,36.726-83.764c-4.592-8.413-17.893-14.685-20.941-15.548
			c-18.438,32.574-26.898,57.917-30.898,73.775c-1.337,1.774-2.957,4.063-4.891,6.945c-8.453,12.73-24.396,24.267-26.694,20.289
			c-1.643-2.839,2.59-36.174,34.963-85.461c-5.086-8.548-19.976-16.307-20.941-15.548c-22.561,17.87-58.204,76.627-61.763,82.7
			c-3.549,6.071,0.05-6.603,0.05-6.603s-6.122-8.93-16.954-10.786c0,0-2.65,5.069-4.22,13.357c-1.955,2.809-4.001,5.708-5.326,7.477
			c-5.836,7.789-20.914,21.791-27.547,13.878c-6.049-7.183-2.73-19.856-2.73-19.856s30.54-11.175,45.785-26.879
			c14.652-14.972,20.99-34.129,18.395-38.785c-4.308-7.674-11.702-13.393-19.828-14.503c-5.704,0-15.672,4.748-24.994,12.347
			c-28.956,23.757-38.46,50.647-39.315,69.55c-0.99,21.743,27.335,31.046,32.718,31.647c5.754-1.421,10.761-7.668,20.574-20.678
			c0.414-0.551,0.783-1.093,1.157-1.634c0.005,0.643,0.003,1.267,0.029,1.917c1.18,8.006,8.813,20.312,10.953,20.312
			c3.35,0,46.269-75.884,59.417-87.159c0,0-18.216,44.248-19.889,65.331c-1.069,13.346,24.496,21.902,27.718,21.902
			c6.499,0,15.977-16.498,19.396-21.407c0.121-0.17,0.248-0.373,0.381-0.583c-0.004,0.033-0.009,0.065-0.013,0.088
			c-1.776,10.476,20.452,21.828,27.448,21.902c6.389-1.682,10.688-8.242,23.401-26.793c11.978-17.289,23.544-39.561,30.463-54.013
			c2.792,2.221,5.117,2.715,6.218,2.74c2.532,0.058,9.934-3.119,18.86-10c-24.984,37.469-31.27,61.509-32.156,66.163
			c-1.982,10.476,20.02,21.828,27.016,21.902c6.422-1.682,10.748-8.31,23.925-26.793c0.882-1.214,1.995-2.791,3.264-4.583
			c-1.142,4.833-1.679,8.047-1.974,9.474c-2.144,10.476,19.711,21.828,26.708,21.902c5.777-1.501,10.03-6.979,20.489-21.483
			c-0.695,7.551,5.746,21.405,9.29,21.181c2.45-0.165,55.624-81.366,65.862-86.931c0,0-17.351,30.632-24.818,66.848
			c0.502,8.006,7.075,20.312,9.207,20.312c3.356,0,52.815-75.884,66.949-87.159c0,0-22.029,44.248-25.535,65.331
			c-2.212,13.346,22.615,21.902,25.841,21.902c5.639,0,14.627-12.496,19.406-18.98c3.703,8.501,12.747,16.279,26.854,18.891
			c3.315,0.607,11.439-7.185,18.802-15.229c5.301,8.043,19.311,15.245,24.6,15.303c6.54-1.678,11.725-8.076,26.018-26.796
			C788.895,308.549,785.508,307.858,775.469,317.264z M254.374,268.905c14.949-16.546,28.215-17.007,28.215-17.007
			s-0.217,14.05-14.832,30.938c-13.163,15.328-33.993,24.529-33.993,24.529S238.43,286.692,254.374,268.905z"/>
		<path fill="#58595B" d="M226.715,240.344c-2.469-8.307-13.417-16.682-21.937-17.565c7.648-11.178,16.029-22.384,25.212-33.474
			c-5.59-8.55-15.462-13.646-19.231-14.861c-0.013-0.024-0.027-0.048-0.027-0.048c-0.022,0.006-0.044,0.013-0.069,0.019
			c-0.124-0.038-0.261-0.088-0.373-0.115c-0.061,0.091-0.124,0.182-0.184,0.272c-19.182,5.416-51.041,14.861-76.853,2.276
			c-11.073-5.395-19.011-12.897-19.011-12.897c-3.445,5.836,2.908,34.633,15.751,38.837c5.742,1.88,16.398,4.116,37.399-3.805
			c14.548-5.492,28.767-11.342,35.835-14.293c-9.189,13.753-17.455,27.108-24.885,40.001c-59.136,9.5-99.301,51.322-114.412,83.753
			c-5.968,12.821-7.915,22.072-7.04,33.135c0.903,11.491,13.403,25.171,34.377,28.762c6.577,1.124,24.835-26.831,27.277-30.784
			c2.437-3.959-1.626-6.093-14.172,7.304c-6.179,6.593-16.512,14.729-20.132,12.907c-15.559-7.827-5.337-40.379,4.854-53.61
			c26.973-35.025,54.424-50.645,75.854-57.081c-47.051,90.212-52.153,152.35-52.484,156.233
			c-0.962,11.245,24.689,23.413,32.439,23.507c6.871-1.804-11.353-11.194-13.086-18.562c-2.152-9.229,9.391-83.776,58.642-165.232
			c8.323-0.042,13.591,1.395,14.534,2.316c7.381,7.192,5.167,21.685-8.756,41.564c-13.723,19.591-25.339,29.508-22.701,29.508
			c3.036,0,12.745-6.827,29.8-26.513C220.516,272.073,229.65,250.223,226.715,240.344z"/>
	</g>
</g>
</svg>
