<?xml version="1.0" encoding="utf-8"?>
<!-- Generator: Adobe Illustrator 16.0.0, SVG Export Plug-In . SVG Version: 6.00 Build 0)  -->
<!DOCTYPE svg PUBLIC "-//W3C//DTD SVG 1.1//EN" "http://www.w3.org/Graphics/SVG/1.1/DTD/svg11.dtd">
<svg version="1.1" id="Layer_1" xmlns="http://www.w3.org/2000/svg" xmlns:xlink="http://www.w3.org/1999/xlink" x="0px" y="0px"
	 width="841.89px" height="595.28px" viewBox="0 0 841.89 595.28" enable-background="new 0 0 841.89 595.28" xml:space="preserve">
<g>
	<g>
		<g>
			<path fill="#58595B" d="M146.429,211.74c0.065,0.092,0.134,0.184,0.207,0.271L146.429,211.74z"/>
			<path fill="#58595B" d="M148.934,207.049c-1.666,0-3.018,1.344-3.018,3.014c0,0.747,0.276,1.421,0.72,1.949l4.875,6.372
				c0.341,0.551,0.942,0.915,1.635,0.915c0.689,0,1.291-0.364,1.628-0.915l4.878-6.372c0.444-0.528,0.712-1.202,0.712-1.949
				c0-1.669-1.344-3.014-3.006-3.014c0,0-1.34-0.076-4.212-0.076C150.266,206.973,148.934,207.049,148.934,207.049z"/>
		</g>
		<g>
			<path fill="#58595B" d="M104.706,226.517c0.1,0.054,0.203,0.096,0.311,0.13L104.706,226.517z"/>
			<path fill="#58595B" d="M104.53,221.202c-1.444,0.831-1.938,2.68-1.107,4.116c0.372,0.644,0.942,1.099,1.593,1.329l7.409,3.086
				c0.567,0.303,1.275,0.321,1.869-0.023c0.605-0.349,0.942-0.969,0.965-1.608l1.03-7.961c0.123-0.678,0.023-1.405-0.352-2.044
				c-0.831-1.444-2.673-1.934-4.113-1.107c0,0-1.199,0.601-3.684,2.041C105.648,220.471,104.53,221.202,104.53,221.202z"/>
		</g>
		<g>
			<path fill="#58595B" d="M75.964,260.176c0.107-0.012,0.223-0.02,0.333-0.042L75.964,260.176z"/>
			<path fill="#58595B" d="M73.149,255.665c-0.827,1.443-0.337,3.285,1.103,4.116c0.647,0.371,1.359,0.475,2.044,0.349l7.958-1.03
				c0.647-0.019,1.264-0.36,1.616-0.961c0.345-0.594,0.318-1.298,0.023-1.873l-3.094-7.405c-0.226-0.647-0.678-1.222-1.325-1.593
				c-1.44-0.831-3.286-0.337-4.113,1.103c0,0-0.735,1.118-2.171,3.611C73.751,254.466,73.149,255.665,73.149,255.665z"/>
		</g>
		<g>
			<path fill="#58595B" d="M67.899,303.702c0.092-0.069,0.184-0.138,0.269-0.21L67.899,303.702z"/>
			<path fill="#58595B" d="M63.205,301.198c0,1.661,1.348,3.014,3.018,3.014c0.743,0,1.42-0.272,1.945-0.72l6.375-4.875
				c0.543-0.341,0.912-0.938,0.919-1.631c-0.007-0.693-0.375-1.291-0.919-1.627l-6.375-4.878c-0.525-0.448-1.206-0.72-1.945-0.72
				c-1.67,0-3.018,1.352-3.018,3.014c0,0-0.076,1.337-0.076,4.212S63.205,301.198,63.205,301.198z"/>
		</g>
		<g>
			<path fill="#58595B" d="M82.677,345.422c0.05-0.1,0.088-0.207,0.123-0.307L82.677,345.422z"/>
			<path fill="#58595B" d="M77.362,345.605c0.827,1.439,2.672,1.93,4.113,1.103c0.646-0.375,1.099-0.949,1.325-1.593l3.094-7.413
				c0.294-0.567,0.321-1.271-0.023-1.869c-0.352-0.597-0.969-0.941-1.616-0.965l-7.958-1.026c-0.685-0.122-1.397-0.022-2.044,0.353
				c-1.44,0.827-1.93,2.665-1.103,4.112c0,0,0.602,1.203,2.041,3.684C76.626,344.487,77.362,345.605,77.362,345.605z"/>
		</g>
		<g>
			<path fill="#58595B" d="M116.332,374.172c-0.003-0.123-0.019-0.23-0.042-0.338L116.332,374.172z"/>
			<path fill="#58595B" d="M111.825,376.982c1.44,0.826,3.282,0.336,4.113-1.111c0.375-0.635,0.475-1.363,0.352-2.037l-1.03-7.965
				c-0.023-0.643-0.36-1.256-0.965-1.607c-0.593-0.345-1.302-0.322-1.869-0.031l-7.409,3.094c-0.651,0.23-1.222,0.689-1.593,1.333
				c-0.831,1.433-0.337,3.278,1.107,4.112c0,0,1.118,0.735,3.61,2.168C110.622,376.377,111.825,376.982,111.825,376.982z"/>
		</g>
		<g>
			<path fill="#58595B" d="M159.854,382.229c-0.062-0.093-0.126-0.185-0.203-0.269L159.854,382.229z"/>
			<path fill="#58595B" d="M157.358,386.923c1.662,0,3.006-1.341,3.006-3.01c0-0.751-0.268-1.425-0.712-1.953l-4.878-6.372
				c-0.337-0.551-0.938-0.911-1.636-0.911c-0.685,0-1.286,0.36-1.627,0.911l-4.875,6.372c-0.444,0.528-0.716,1.202-0.72,1.953
				c0,1.669,1.352,3.01,3.018,3.01c0,0,1.333,0.068,4.212,0.068C156.018,386.999,157.358,386.923,157.358,386.923z"/>
		</g>
		<g>
			<path fill="#58595B" d="M201.578,367.447c-0.1-0.046-0.203-0.084-0.306-0.123L201.578,367.447z"/>
			<path fill="#58595B" d="M201.762,372.77c1.439-0.834,1.934-2.68,1.099-4.112c-0.364-0.644-0.946-1.103-1.593-1.333l-7.414-3.094
				c-0.563-0.291-1.267-0.313-1.869,0.031c-0.594,0.352-0.938,0.965-0.957,1.607l-1.03,7.965c-0.126,0.674-0.019,1.402,0.353,2.037
				c0.827,1.447,2.673,1.938,4.116,1.111c0,0,1.191-0.605,3.684-2.045C200.64,373.505,201.762,372.77,201.762,372.77z"/>
		</g>
		<g>
			<path fill="#58595B" d="M230.323,333.796c-0.114,0.016-0.222,0.016-0.337,0.046L230.323,333.796z"/>
			<path fill="#58595B" d="M233.138,338.307c0.827-1.447,0.333-3.285-1.106-4.112c-0.64-0.375-1.363-0.475-2.045-0.353l-7.961,1.026
				c-0.636,0.023-1.264,0.368-1.604,0.965c-0.344,0.598-0.325,1.302-0.03,1.869l3.094,7.413c0.23,0.644,0.678,1.218,1.333,1.593
				c1.428,0.827,3.273,0.337,4.112-1.103c0,0,0.728-1.118,2.164-3.615C232.537,339.51,233.138,338.307,233.138,338.307z"/>
		</g>
		<g>
			<path fill="#58595B" d="M238.392,290.27c-0.1,0.069-0.188,0.134-0.271,0.21L238.392,290.27z"/>
			<path fill="#58595B" d="M243.079,292.773c0-1.662-1.348-3.014-3.01-3.014c-0.75,0-1.42,0.272-1.949,0.72l-6.376,4.878
				c-0.544,0.337-0.915,0.935-0.915,1.627s0.364,1.291,0.915,1.635l6.376,4.871c0.528,0.447,1.198,0.72,1.949,0.72
				c1.662,0,3.01-1.353,3.01-3.014c0,0,0.077-1.337,0.077-4.212S243.079,292.773,243.079,292.773z"/>
		</g>
		<g>
			<path fill="#58595B" d="M223.611,248.55c-0.05,0.1-0.092,0.207-0.126,0.311L223.611,248.55z"/>
			<path fill="#58595B" d="M228.93,248.37c-0.839-1.439-2.685-1.934-4.112-1.103c-0.655,0.371-1.103,0.945-1.333,1.593l-3.094,7.405
				c-0.295,0.575-0.314,1.275,0.03,1.873c0.341,0.601,0.969,0.942,1.604,0.961l7.961,1.034c0.682,0.122,1.405,0.019,2.045-0.353
				c1.44-0.831,1.934-2.673,1.106-4.116c0,0-0.601-1.199-2.044-3.684C229.661,249.488,228.93,248.37,228.93,248.37z"/>
		</g>
		<g>
			<path fill="#58595B" d="M189.952,219.808c0.008,0.111,0.027,0.218,0.046,0.33L189.952,219.808z"/>
			<path fill="#58595B" d="M194.467,216.99c-1.443-0.827-3.289-0.337-4.116,1.107c-0.372,0.639-0.479,1.367-0.353,2.044l1.03,7.961
				c0.019,0.64,0.363,1.26,0.957,1.608c0.602,0.344,1.306,0.326,1.869,0.023l7.414-3.086c0.647-0.23,1.218-0.685,1.593-1.329
				c0.835-1.436,0.341-3.286-1.099-4.116c0,0-1.122-0.731-3.611-2.171C195.658,217.591,194.467,216.99,194.467,216.99z"/>
		</g>
	</g>
	<path fill="#58595B" d="M171.66,341.685l-63.217-63.217c-17.461,17.461-17.461,45.763,0,63.217
		C125.901,359.146,154.199,359.146,171.66,341.685z"/>
	<polygon fill="#58595B" points="203.642,321.298 201.769,248.358 128.83,246.486 	"/>
	<g>
		<path fill="#58595B" d="M201.612,337.978l-89.455-89.462c-2.704,2.278-5.204,4.787-7.482,7.482l89.458,89.454
			C196.825,343.178,199.326,340.674,201.612,337.978z"/>
	</g>
	<g>
		<path fill="#58595B" d="M311.288,257.334l8.149,32.483l8.516-32.483h30.351v14.069c-1.11,0.682-1.838,1.543-2.175,2.588
			c-0.34,1.049-0.509,2.317-0.509,3.799v1.386v35.626c0,2.283,0.107,3.937,0.322,4.955c0.218,1.02,1,1.961,2.363,2.818v14.068
			h-28.972v-14.068c1.114-0.674,1.83-1.539,2.179-2.58c0.337-1.058,0.505-2.321,0.505-3.799v-1.395v-21.282l-10.921,43.124h-7.769
			l-11.292-43.124l-0.184,21.282c0,2.283,0.107,3.937,0.329,4.955c0.211,1.02,1,1.961,2.359,2.818v14.068h-24.43v-14.068
			c1.106-0.674,1.83-1.539,2.171-2.58c0.337-1.058,0.509-2.321,0.509-3.799v-1.395v-35.626v-1.107c0-1.669-0.153-3.01-0.463-4.028
			c-0.31-1.019-1.045-1.896-2.217-2.638v-14.069H311.288z"/>
		<path fill="#58595B" d="M394.677,278.345v37.577c0,2.281,0.069,3.706,0.188,4.258c0.364,1.478,1.237,2.619,2.592,3.415v13.05
			h-27.302v-13.05c1.294-0.796,2.063-1.708,2.313-2.726c0.245-1.026,0.371-2.543,0.371-4.58v-17.213v-1.11
			c0-1.665-0.157-2.994-0.459-3.979c-0.311-0.988-1.053-1.857-2.225-2.592v-13.05H394.677z M383.105,274.826
			c-3.263,0-5.981-0.705-8.141-2.129c-2.584-1.724-3.883-4.132-3.883-7.218c0-2.899,1.222-5.1,3.657-6.617
			c2.432-1.513,5.166-2.263,8.191-2.263c3.083,0,5.74,0.735,7.961,2.217c2.523,1.727,3.787,4.074,3.787,7.034
			c0,2.837-1.225,5.089-3.699,6.759C388.765,274.083,386.138,274.826,383.105,274.826z"/>
		<path fill="#58595B" d="M432.272,257.334v58.588c0,2.281,0.107,3.967,0.321,5.039c0.215,1.079,1.004,1.96,2.359,2.634v13.05
			h-27.207v-13.05c1.294-0.796,2.068-1.708,2.313-2.726c0.245-1.026,0.375-2.543,0.375-4.58v-38.22v-1.114
			c0-1.666-0.153-2.99-0.463-3.979c-0.314-0.988-1.053-1.854-2.225-2.592v-13.05H432.272z"/>
		<path fill="#58595B" d="M469.753,257.334v58.588c0,2.281,0.114,3.967,0.337,5.039c0.207,1.079,0.996,1.96,2.358,2.634v13.05
			h-27.21v-13.05c1.294-0.796,2.061-1.708,2.313-2.726c0.237-1.026,0.375-2.543,0.375-4.58v-38.22v-1.114
			c0-1.666-0.168-2.99-0.459-3.979c-0.322-0.988-1.057-1.854-2.229-2.592v-13.05H469.753z"/>
	</g>
	<path fill="#58595B" d="M545.188,271.403v-14.069h26.743v14.069c-1.172,0.927-2.037,2.313-2.589,4.167
		c-0.261,0.8-0.628,2.47-1.11,4.997l-10.461,56.078h-23.779l-6.947-37.852l-7.864,37.852h-23.313l-10.47-56.078
		c-0.497-2.466-0.896-4.136-1.202-4.997c-0.674-1.854-1.639-3.24-2.864-4.167v-14.069h30.91v14.069
		c-1.731,0.743-2.597,2.16-2.597,4.258l3.056,24.989l8.517-43.316h15.179l8.685,43.225l2.696-24.897
		C547.777,273.563,546.919,272.146,545.188,271.403z"/>
	<path fill="#58595B" d="M642.221,280.352v33.372c0,9.243-2.719,15.776-8.148,19.598c-4.626,3.263-11.748,4.901-21.383,4.901
		c-9.558,0-16.649-1.639-21.275-4.901c-5.498-3.883-8.24-10.415-8.24-19.598v-33.372c0-9.244,2.711-15.776,8.148-19.598
		c4.626-3.263,11.748-4.897,21.367-4.897c9.565,0,16.665,1.635,21.291,4.897C639.471,264.637,642.221,271.173,642.221,280.352z
		 M607.88,279.073v35.837c0,1.363,0.161,2.436,0.46,3.232c0.75,1.968,2.205,2.956,4.35,2.956c1.67,0,2.896-0.567,3.661-1.708
		c0.773-1.141,1.156-2.627,1.156-4.48v-35.837c0-1.355-0.146-2.435-0.467-3.236c-0.735-1.907-2.19-2.86-4.351-2.86
		c-1.669,0-2.879,0.552-3.646,1.666C608.264,275.749,607.88,277.224,607.88,279.073z"/>
	<path fill="#58595B" d="M714.095,280.352v33.372c0,9.243-2.719,15.776-8.148,19.598c-4.618,3.263-11.748,4.901-21.374,4.901
		c-9.566,0-16.658-1.639-21.291-4.901c-5.483-3.883-8.225-10.415-8.225-19.598v-33.372c0-9.244,2.711-15.776,8.148-19.598
		c4.617-3.263,11.748-4.897,21.367-4.897c9.557,0,16.656,1.635,21.29,4.897C711.346,264.637,714.095,271.173,714.095,280.352z
		 M679.762,279.073v35.837c0,1.363,0.153,2.436,0.46,3.232c0.743,1.968,2.19,2.956,4.351,2.956c1.669,0,2.879-0.567,3.66-1.708
		c0.773-1.141,1.148-2.627,1.148-4.48v-35.837c0-1.355-0.152-2.435-0.459-3.236c-0.743-1.907-2.19-2.86-4.35-2.86
		c-1.662,0-2.88,0.552-3.661,1.666C680.146,275.749,679.762,277.224,679.762,279.073z"/>
	<path fill="#58595B" d="M726.448,257.334h34.248c4.61,0,8.103,0.188,10.446,0.56c3.951,0.616,7.199,1.915,9.727,3.883
		c2.956,2.347,4.963,5.342,6.012,8.979c0.742,2.592,1.11,6.234,1.11,10.917v29.711c0,4.63-0.307,8.114-0.935,10.458
		c-0.857,3.393-2.68,6.379-5.453,8.975c-1.976,1.846-4.396,3.286-7.26,4.305c-2.872,1.019-7.184,1.523-12.92,1.523h-34.976v-14.068
		c1.226-0.543,2.067-1.355,2.496-2.396c0.444-1.057,0.644-2.352,0.644-3.891v-38.595c0-1.666-0.184-2.991-0.551-3.979
		c-0.368-0.988-1.226-1.758-2.589-2.313V257.334z M754.31,274.646v45.258h1.938c2.711,0,4.564-0.567,5.552-1.67
		c0.98-1.11,1.486-3.125,1.486-6.02V282.32c0-2.896-0.506-4.902-1.486-6.012c-0.987-1.111-2.841-1.662-5.552-1.662H754.31z"/>
	<g>
		<path fill="#58595B" d="M217.07,254.535l3.765-14.034l4.101-15.324l-15.316,4.108l-14.042,3.761
			C204.094,238.705,211.411,246.023,217.07,254.535z"/>
		<path fill="#58595B" d="M235.906,266.593l-14.034-3.764c4.45,8.941,7.207,18.871,7.857,29.366l10.278-10.285l11.22-11.208
			L235.906,266.593z"/>
		<path fill="#58595B" d="M240.008,312.046l-10.278-10.289c-0.651,10.5-3.396,20.429-7.85,29.366l14.026-3.76l15.321-4.105
			L240.008,312.046z"/>
		<path fill="#58595B" d="M217.078,339.418c-5.659,8.516-12.97,15.837-21.485,21.496l14.038,3.761l15.317,4.112l-4.105-15.324
			L217.078,339.418z"/>
		<path fill="#58595B" d="M157.932,373.574l10.278,10.277l11.22,11.212l4.104-15.317l3.761-14.029
			C178.357,370.174,168.432,372.923,157.932,373.574z"/>
		<path fill="#58595B" d="M119,365.731l3.768,14.015l4.097,15.325l11.22-11.22l10.282-10.277
			C137.867,372.931,127.938,370.174,119,365.731z"/>
		<path fill="#58595B" d="M89.206,339.433l-3.752,14.038l-4.109,15.324l15.321-4.104l14.042-3.769
			C102.19,355.271,94.873,347.949,89.206,339.433z"/>
		<path fill="#58595B" d="M76.558,301.776l-10.281,10.285l-11.216,11.212l15.324,4.105l14.026,3.768
			C79.962,322.201,77.208,312.275,76.558,301.776z"/>
		<path fill="#58595B" d="M84.407,262.849l-14.034,3.76l-15.317,4.105l11.22,11.212l10.281,10.285
			C77.197,281.715,79.958,271.786,84.407,262.849z"/>
		<path fill="#58595B" d="M89.202,254.555c5.664-8.521,12.981-15.838,21.494-21.498l-14.038-3.764l-15.325-4.108l4.105,15.324
			L89.202,254.555z"/>
		<path fill="#58595B" d="M148.352,220.401L138.07,210.12l-11.22-11.216l-4.101,15.324l-3.756,14.027
			C127.927,223.802,137.855,221.049,148.352,220.401z"/>
		<path fill="#58595B" d="M187.275,228.248l-3.749-14.022l-4.108-15.325l-11.216,11.22l-10.285,10.281
			C168.413,221.045,178.342,223.798,187.275,228.248z"/>
	</g>
</g>
</svg>
