<!-- Generator: Adobe Illustrator 18.0.0, SVG Export Plug-In  -->
<svg version="1.1"
	 xmlns="http://www.w3.org/2000/svg" xmlns:xlink="http://www.w3.org/1999/xlink" xmlns:a="http://ns.adobe.com/AdobeSVGViewerExtensions/3.0/"
	 x="0px" y="0px" width="60px" height="60px" viewBox="0 0 60 60" enable-background="new 0 0 60 60" xml:space="preserve">
<defs>
</defs>
<path fill="#EC0874" d="M50,20L40,10L30,0L20,10L10,20L0,30l10,10l10,10l10,10l10-10l10-10l10-10L50,20z M47.2,20l-8.6,8.6L35,25
	l-3.6-3.6l8.6-8.6L47.2,20z M30,37.2L22.8,30l7.2-7.2l7.2,7.2L30,37.2z M30,2.8l8.6,8.6L30,20l-8.6-8.6L30,2.8z M20,12.8l8.6,8.6
	L25,25l-3.6,3.6L12.8,20L20,12.8z M2.8,30l8.6-8.6L20,30l-8.6,8.6L2.8,30z M12.8,40l8.6-8.6L25,35l3.6,3.6L20,47.2L12.8,40z
	 M30,57.2l-8.6-8.6L30,40l8.6,8.6L30,57.2z M40,47.2l-8.6-8.6L35,35l3.6-3.6l8.6,8.6L40,47.2z M48.6,38.6L40,30l8.6-8.6l8.6,8.6
	L48.6,38.6z"/>
</svg>