<!-- Generator: Adobe Illustrator 18.0.0, SVG Export Plug-In  -->
<svg version="1.1"
	 xmlns="http://www.w3.org/2000/svg" xmlns:xlink="http://www.w3.org/1999/xlink" xmlns:a="http://ns.adobe.com/AdobeSVGViewerExtensions/3.0/"
	 x="0px" y="0px" width="66px" height="66px" viewBox="0 0 66 66" enable-background="new 0 0 66 66" xml:space="preserve">
<defs>
</defs>
<g opacity="0.5">
	<polygon fill="#212121" points="21.3,11.7 22.9,13.2 33,3.1 43.1,13.2 44.7,11.7 33,0 	"/>
	<polygon fill="#212121" points="11.7,21.3 0,33 11.7,44.7 13.2,43.1 3.1,33 13.2,22.9 	"/>
	<polygon fill="#212121" points="33,62.9 22.9,52.8 21.3,54.3 33,66 44.7,54.3 43.1,52.8 	"/>
	<polygon fill="#212121" points="54.3,21.3 52.8,22.9 62.9,33 52.8,43.1 54.3,44.7 66,33 	"/>
	<path fill="#212121" d="M38.5,33c0-3-2.4-5.5-5.5-5.5S27.5,30,27.5,33s2.4,5.5,5.5,5.5S38.5,36,38.5,33z M29.7,33
		c0-1.8,1.5-3.3,3.3-3.3c1.8,0,3.3,1.5,3.3,3.3c0,1.8-1.5,3.3-3.3,3.3C31.2,36.3,29.7,34.8,29.7,33z"/>
</g>
</svg>