<svg xmlns="http://www.w3.org/2000/svg" width="841.89" height="595.28" viewBox="0 0 841.89 595.28"><g fill="#58595B"><path d="M361.647 334.695c3.838-3.29 6.03-8.057 6.03-13.152 0-11.875-8.86-18.965-23.7-18.965H311.71v70.176h35.727c13.634 0 23.156-8.96 23.156-21.79 0-7.237-3.173-12.997-8.946-16.27zm-20.677-5.066h-12.822V317.1h13.186c7.544 0 9.726 1.406 9.726 6.266 0 3.3-.772 6.263-10.09 6.263zm-12.822 13.52h14.188c8.634 0 11.547 1.902 11.547 7.54 0 4.47-1.933 7.446-11.366 7.446h-14.37V343.15zM419.264 302.486h-15.767l-26.943 69.85-.16.418h17.483l6.377-17.217h21.96l6.194 17.217h17.958l-27.026-70.072-.076-.196zm-1.948 39.166h-12.178l6.23-16.836 5.948 16.836zM447.287 317.738h20.675v55.016h16.712v-55.016h20.678v-15.16h-58.065M509.958 317.738h20.676v55.016h16.71v-55.016h20.677v-15.16H509.96M597.872 343.88h32.88v-14.523h-32.88v-11.89h35.434v-14.89h-52.053v70.177h52.6v-15.072h-35.98M707.763 355.89l-.17-2.14c-.39-4.72-.916-11.146-6.14-14.795 4.676-3.496 7.242-9.045 7.242-15.68 0-13.154-8.938-20.697-24.524-20.697h-33.357v70.176h16.618v-26.78h12.46c9.494 0 10.994 2.42 11.55 11.343l.104 1.744c.325 5.626.56 9.69 2.434 12.505l.79 1.19h19.644l-4.04-4.452c-1.782-1.965-2.128-6.34-2.61-12.414zm-40.332-38.697h13.824c7.99 0 10.82 1.9 10.82 7.264 0 5.703-3.212 7.723-12.275 7.723h-12.37v-14.987zM764.767 302.578l-15.532 26.16-15.695-26.16h-19.436l26.65 42.502v27.674h16.53v-27.678l26.553-42.498M321.543 254.743l15.275 41.297.074.2h8.4l14.95-41.456v41.456h9.915v-56.254h-14.123l-14.792 42.91-15.257-42.707-.073-.204H311.71v56.254h9.833M408.307 297.57c7.876 0 14.632-2.825 19.537-8.17 4.904-5.34 7.495-12.702 7.495-21.287 0-17.344-11.053-29.457-26.878-29.457-16.265 0-27.192 11.838-27.192 29.457 0 17.62 10.865 29.456 27.037 29.456zm0-50.093c10.067 0 16.572 8.07 16.572 20.558 0 12.583-6.445 20.714-16.418 20.714-10.32 0-16.73-7.967-16.73-20.79 0-12.443 6.506-20.483 16.575-20.483zM492.18 279.522c0-6.698-3.67-11.718-9.863-13.587 4.5-2.15 7.36-6.635 7.36-11.653 0-8.952-6.863-14.296-18.36-14.296h-25.704v56.254h28.676c10.7 0 17.89-6.718 17.89-16.718zm-23.44-16.326h-12.98v-14.703h13.29c5.224 0 10.323.568 10.323 7.35 0 5.154-3.18 7.353-10.634 7.353zm1.17 7.647c6.172 0 11.885 1.023 11.885 8.447 0 5.787-3.617 8.367-11.73 8.367H455.76v-16.814h14.15zM507.063 239.986h10.46v56.254h-10.46zM544.762 239.986h-10.46v56.254h38.753v-9.052h-28.293M622.43 287.264h-30.872v-15.797h28.213v-8.507H591.56v-14.156h30.4v-8.818h-40.705v56.254h41.176"/></g><g fill="#58595B"><path d="M255.125 327.623c30.76-30.76 29.453-81.942-2.926-114.32-32.382-32.377-83.568-33.687-114.327-2.93-1.236 1.236-56.59 60.71-56.59 60.71h-.002c-30.758 30.758-31.48 79.857.897 112.234 32.38 32.375 80.874 31.057 111.63.297l.003-.002v-.002s59.693-54.364 61.315-55.987zm-11.82-105.426c27.424 27.42 28.736 70.728 2.93 96.534-25.806 25.806-69.112 24.49-96.535-2.93-27.424-27.423-28.737-70.726-2.932-96.53 25.808-25.81 69.116-24.495 96.538 2.927zM185.02 374.82c-25.803 25.8-66.525 27.027-93.947-.396-27.422-27.42-26.76-68.707-.956-94.51l26.692-28.71c-4.402 25.437 3.68 53.167 24.002 73.488 20.106 20.105 47.46 28.227 72.677 24.135l-28.467 25.993z"/><path d="M214.63 289l5.86-5.863c9.717-9.714 9.3-25.878-.923-36.102-10.167-10.17-26.21-10.63-35.94-1.08l-6.027 6.02c-9.71 9.71-9.296 25.873.93 36.098 10.224 10.224 26.388 10.637 36.1.927zm2.13-39.158c8.66 8.66 9.072 22.336.925 30.485-8.15 8.15-21.825 7.73-30.486-.926-8.66-8.66-9.076-22.333-.925-30.48 8.147-8.15 21.825-7.736 30.486.922z"/></g></svg>