<?xml version="1.0" encoding="utf-8"?>
<!-- Generator: Adobe Illustrator 16.0.0, SVG Export Plug-In . SVG Version: 6.00 Build 0)  -->
<!DOCTYPE svg PUBLIC "-//W3C//DTD SVG 1.1//EN" "http://www.w3.org/Graphics/SVG/1.1/DTD/svg11.dtd">
<svg version="1.1" id="Layer_1" xmlns="http://www.w3.org/2000/svg" xmlns:xlink="http://www.w3.org/1999/xlink" x="0px" y="0px"
	 width="841.89px" height="595.28px" viewBox="0 0 841.89 595.28" enable-background="new 0 0 841.89 595.28" xml:space="preserve">
<g>
	<path fill="#58595B" d="M361.033,95.136L361.033,95.136l23.001,74.416l-74.436,22.975l-22.982-74.415L361.033,95.136z
		 M462.58,63.786L462.58,63.786l22.968,74.442l-74.435,22.991l-22.982-74.451L462.58,63.786z M516.896,239.742L516.896,239.742
		l-74.436,22.963l-22.996-74.415l74.449-22.999L516.896,239.742z M300.55,224.743c8.232,0.271,15.705,3.463,21.644,8.585
		l-4.234-13.722l74.426-22.992l22.978,74.468l-74.44,22.966l-6.665-21.603c-2.278,9.338-7.767,17.289-15.154,22.453
		c14.086,14.694,32.905,22.366,92.86,6.318h0.038l40.017-11.813l100.309-30.969L481.285,28.349L251.189,99.396l39.072,126.598
		C293.543,225.082,296.971,224.631,300.55,224.743"/>
	<path fill="#58595B" d="M452.791,549.424L452.791,549.424c1.178,0,2.289,0.208,3.305,0.627l0.151-2.857
		c-0.607-0.19-1.2-0.332-1.775-0.432c-0.612-0.087-1.229-0.12-1.908-0.12c-2.924,0-5.137,0.76-6.827,2.317
		c-1.661,1.553-2.459,3.654-2.459,6.286c0,2.694,0.858,4.804,2.555,6.322c1.595,1.396,3.646,2.107,6.108,2.107
		c0.704,0,1.439-0.057,2.188-0.18c0.751-0.133,1.439-0.294,2.118-0.531l-0.218-2.83c-0.494,0.237-0.997,0.407-1.558,0.541
		c-0.551,0.138-1.215,0.228-1.908,0.228c-1.543,0-2.854-0.437-3.879-1.281c-1.221-0.988-1.866-2.46-1.866-4.425
		c0-1.823,0.575-3.256,1.667-4.244C449.615,549.936,451.021,549.424,452.791,549.424 M495.841,553.843L495.841,553.843
		c-0.47,0.523-1.163,0.756-2.098,0.756h-1.549v-5.175h1.549c1.006,0,1.746,0.266,2.222,0.784c0.422,0.44,0.621,1.006,0.621,1.732
		C496.586,552.7,496.345,553.34,495.841,553.843 M493.743,546.804L493.743,546.804h-4.919v16.691h3.37v-6.268h2.185
		c1.861,0,3.317-0.54,4.377-1.632c0.95-0.997,1.405-2.164,1.405-3.575c0-1.259-0.361-2.326-1.092-3.219
		C497.977,547.473,496.201,546.804,493.743,546.804 M465.661,549.766L465.661,549.766h4.818v13.729h3.376v-13.729h4.828v-2.962
		h-13.022V549.766z M429.035,553.531L429.035,553.531h-6.751v-6.728h-3.386v16.691h3.386v-7.231h6.751v7.231h3.38v-16.691h-3.38
		V553.531z M402.833,560.2L402.833,560.2c-0.764,0.731-1.771,1.092-2.952,1.092c-1.206,0-2.17-0.375-2.967-1.11
		c-1.093-1.025-1.634-2.716-1.634-5.01c0-2.358,0.541-4.029,1.634-5.059c0.764-0.747,1.761-1.102,2.967-1.102
		c1.182,0,2.146,0.379,2.952,1.135c1.093,1.005,1.667,2.7,1.667,5.025C404.5,557.494,403.926,559.175,402.833,560.2
		 M399.881,546.642L399.881,546.642c-2.436,0-4.373,0.714-5.863,2.16c-1.528,1.562-2.326,3.67-2.326,6.37
		c0,2.692,0.798,4.819,2.326,6.343c1.49,1.449,3.428,2.16,5.863,2.16c2.406,0,4.358-0.711,5.825-2.183
		c1.552-1.549,2.354-3.656,2.354-6.32c0-2.742-0.803-4.851-2.354-6.379C404.239,547.355,402.287,546.642,399.881,546.642
		 M518.04,553.876L518.04,553.876l-0.76,1.802l-0.712-1.762l-3.318-7.112h-3.804l6.129,11.925l-0.47,1.148
		c-0.199,0.446-0.493,0.778-0.815,0.936c-0.257,0.119-0.608,0.186-1.073,0.186c-0.476,0-0.949-0.133-1.425-0.361l-0.398,2.517
		c0.418,0.181,0.826,0.322,1.196,0.394c0.375,0.095,0.826,0.128,1.339,0.128c0.893,0,1.643-0.18,2.24-0.545
		c0.665-0.423,1.254-1.125,1.733-2.118l6.665-14.208h-3.376L518.04,553.876z M601.595,542.654L601.595,542.654h-3.237v3.016h3.237
		V542.654z M603.066,545.67L603.066,545.67h3.219v-3.016h-3.219V545.67z M548.053,546.804L548.053,546.804h-4.007l-6.104,7.135
		v-7.135h-3.381v16.691h3.381l0.081-8.299l6.186,8.299h4.263l-7.34-9.125L548.053,546.804z M381.931,546.804L381.931,546.804h-4.055
		l-6.081,7.135v-7.135h-3.385v16.691h3.385l0.053-8.299l6.214,8.299h4.306l-7.387-9.125L381.931,546.804z M571.966,546.804
		L571.966,546.804h-3.385v13.748h-6.741v-13.748h-3.404v16.691h12.405v3.437h3.077v-6.38h-1.952V546.804z M584.162,563.495
		L584.162,563.495h3.366v-16.691h-3.366V563.495z M600.65,563.495L600.65,563.495h3.365v-16.663h-3.365V563.495z M250.233,546.804
		L250.233,546.804h-4.043l-6.094,7.135v-7.135h-3.385v16.691h3.385l0.069-8.299l6.197,8.299h4.271l-7.377-9.125L250.233,546.804z
		 M221.869,563.495L221.869,563.495h3.403v-16.691h-3.403V563.495z M206.333,560.257L206.333,560.257
		c-0.52,0.418-1.268,0.646-2.202,0.646h-1.858v-4.698h1.858c0.676,0,1.248,0.093,1.734,0.293c0.817,0.371,1.251,1.044,1.251,2.041
		C207.116,559.251,206.863,559.829,206.333,560.257 M202.272,549.424L202.272,549.424h1.476c1.095,0,1.866,0.266,2.316,0.784
		c0.313,0.328,0.436,0.773,0.436,1.305c0,0.494-0.157,0.906-0.461,1.282c-0.425,0.532-1.146,0.787-2.135,0.787h-1.632V549.424z
		 M207.192,554.765L207.192,554.765c0.703-0.217,1.294-0.573,1.729-1.05c0.66-0.702,1.006-1.613,1.006-2.78
		c0-1.663-0.78-2.844-2.255-3.533c-0.888-0.398-1.979-0.598-3.316-0.598h-5.485v16.691h5.261c2.48,0,4.251-0.556,5.381-1.7
		c0.781-0.783,1.163-1.794,1.163-3.004c0-1.078-0.313-2-0.982-2.702C209.035,555.362,208.199,554.946,207.192,554.765
		 M271.134,560.2L271.134,560.2c-0.798,0.731-1.778,1.092-2.951,1.092c-1.198,0-2.179-0.375-2.985-1.11
		c-1.093-1.025-1.657-2.716-1.657-5.01c0-2.358,0.564-4.029,1.657-5.059c0.79-0.747,1.771-1.102,2.985-1.102
		c1.146,0,2.153,0.379,2.951,1.135c1.075,1.005,1.63,2.7,1.63,5.025C272.764,557.494,272.209,559.175,271.134,560.2
		 M268.183,546.642L268.183,546.642c-2.431,0-4.382,0.714-5.858,2.16c-1.571,1.562-2.353,3.67-2.353,6.37
		c0,2.692,0.781,4.819,2.353,6.343c1.477,1.449,3.428,2.16,5.858,2.16c2.396,0,4.34-0.711,5.815-2.183
		c1.563-1.549,2.343-3.656,2.343-6.32c0-2.742-0.78-4.851-2.343-6.379C272.522,547.355,270.578,546.642,268.183,546.642
		 M322.304,553.531L322.304,553.531h-6.771v-6.728h-3.399v16.691h3.399v-7.231h6.771v7.231h3.389v-16.691h-3.389V553.531z
		 M297.327,553.531L297.327,553.531h-6.779v-6.728h-3.375v16.691h3.375v-7.231h6.779v7.231h3.385v-16.691h-3.385V553.531z
		 M337.124,563.495L337.124,563.495h3.39v-16.691h-3.39V563.495z M404.158,505.136c3.902,0,6.979-3.133,6.979-6.975
		c0-3.83-3.076-6.964-6.979-6.964h-15.073v13.938H404.158z M432.533,498.161c0,10.787-8.739,19.518-19.492,19.518h-23.956v16.676
		h-21.387V478.65h45.343C423.794,478.65,432.533,487.395,432.533,498.161 M582.771,478.65L582.771,478.65v21.572h-32.24V478.65
		h-21.416v55.704h21.416v-21.57h32.24v21.57h21.388V478.65H582.771z M263.651,521.818L263.651,521.818h-43.126v-9.034h43.126V500.25
		h-43.126v-9.053h43.126V478.65h-64.703v55.704h64.703V521.818z M465.462,511.749L465.462,511.749l8.688-17.731h1.33l8.27,17.731
		H465.462z M494.245,534.354L494.245,534.354h24.545l-32.121-55.704h-23.314l-32.63,55.704h23.662l4.933-10.073h30.255
		L494.245,534.354z M356.556,478.65h-26.647l-26.244,22.615V478.65h-21.396v55.704h21.396V510.41l26.244,23.944h27.027
		l-32.183-28.312L356.556,478.65z"/>
	<path fill="#58595B" d="M284.21,285.775L284.21,285.775c-0.066-0.033-0.161-0.078-0.214-0.13
		C284.049,285.697,284.144,285.742,284.21,285.775 M455.811,313.933l-4.696-15.216l-40.072,12.367h-0.02
		c-77.449,21.672-86.289,2.095-104.79-21.254c-2.312,0.536-4.704,0.886-7.211,0.807c-4.302-0.14-8.326-1.329-11.882-3.211
		c2.947,1.336,6.214,2.134,9.66,2.257c14.129,0.451,25.979-10.634,26.443-24.779c0.45-14.14-10.658-25.968-24.805-26.429
		c-14.129-0.451-25.969,10.642-26.42,24.779c-0.902,5.329-1.552,10.753-1.734,16.343c-1.06,33.092,11.281,62.887,31.178,81.953
		l130.1-40.126v-0.019L455.811,313.933z"/>
	<path fill="#58595B" d="M438.957,409.1c-27.948-45.356-60.981-59.252-60.981-59.252l-78.792,25.29
		c-14.033,36.896-16.602,83.088-16.602,83.088h41.06c4.757-30.179,12.714-46.191,37.325-46.191c24.61,0,49.277,16.013,60.367,46.191
		l39.318-0.052C460.652,458.132,462.22,446.837,438.957,409.1"/>
	<polygon fill="#58595B" points="623.727,460.7 623.727,462.822 618.045,462.822 618.045,474.652 615.529,474.652 615.529,462.822 
		609.851,462.822 609.851,460.7 	"/>
	<polygon fill="#58595B" points="639.465,460.7 634.532,471.681 629.614,460.7 626.063,460.7 626.063,474.652 628.46,474.652 
		628.46,465.424 628.284,462.774 633.449,474.253 635.699,474.253 640.785,462.774 640.607,465.424 640.607,474.652 643.02,474.652 
		643.02,460.7 	"/>
</g>
</svg>
