<svg xmlns="http://www.w3.org/2000/svg" width="841.89" height="595.28" viewBox="0 0 841.89 595.28"><g fill="#58595B"><path fill-rule="evenodd" clip-rule="evenodd" d="M238.505 566.932H215.05V553.42h-27.225v13.512h-23.458v-29.818h4.73c3.616-3.59 6.04-7.89 7.27-12.885.753-3.098 1.13-7.197 1.13-12.307v-19.537h54.534v44.728h6.475v29.818zm-29.934-29.82V508.1h-10.414v7.406c0 4.693-.35 8.47-1.053 11.335-.874 3.653-2.538 7.08-4.987 10.272h16.455zm96.387 16.308h-54.084v-61.034h53.486v14.4h-30.025v8.798h28.708v13.944h-28.708v9.51h30.623v14.382zm64.547-1.396c-3.155.865-6.195 1.506-9.102 1.88-2.93.382-5.61.573-8.058.573-11.61 0-20.684-2.967-27.22-8.89-6.248-5.658-9.36-13.197-9.36-22.674 0-8.85 2.768-16.056 8.304-21.63 6.592-6.628 16.223-9.935 28.892-9.935 3.09 0 6.092.21 9.02.62.858.103 2.855.45 5.948 1.033l1.393.274V509.4c-1.755-.71-3.69-1.276-5.82-1.698-2.128-.45-4.295-.663-6.517-.663-4.91 0-8.892 1.45-11.955 4.31-3.063 2.89-4.583 6.57-4.583 11.04 0 4.006.984 7.35 2.976 10.024 2.856 3.834 7.526 5.757 14.01 5.757 1.623 0 3.26-.156 4.894-.444 1.624-.29 4.025-.93 7.18-1.918v16.216zm75.47 1.396H421.52v-21.27h-5.26c-2.392 0-4.17.532-5.382 1.607-1.2 1.077-1.94 2.55-2.227 4.413l-2.276 15.25h-24.51l4.036-17.69c.81-3.67 2.53-6.46 5.153-8.37 1.997-1.446 4.297-2.38 6.93-2.793-4.207-.758-7.6-2.486-10.164-5.14-2.807-2.92-4.21-6.484-4.21-10.738 0-6.727 3.05-11.38 9.105-13.932 3.74-1.58 8.933-2.374 15.578-2.374h36.68v61.036zm-22.417-34.347v-13.077h-6.113c-2.406 0-4.235.268-5.52.79-2.457.98-3.663 2.832-3.663 5.583 0 2.206.793 3.877 2.406 5.016 1.586 1.125 3.977 1.688 7.132 1.688h5.76zm95.79-8.636H497.68v42.983h-23.43v-42.983h-20.676v-18.05h64.773v18.05zm78.378 42.983h-28.008l-15.055-25.894h-.352v25.894h-23.467v-61.034h23.467v23.976h.352l14.43-23.976h26.693l-20.662 28.598 22.602 32.436zm80.796 0h-24.68l-4.188-13.17h-18.38l-4.124 13.17h-23.46l21.458-61.034h31.588l21.787 61.034zm-31.495-27.468l-6.396-19.094h-.356l-6.305 19.094h13.055z"/><path d="M463.848 241.22c-7.232 0-13.313 3.018-18.262 9.11-5.844 7.188-8.78 17.46-8.78 30.787 0 15.89 3.17 27.57 9.546 35.042 4.748 5.57 10.607 8.347 17.496 8.347 8.494 0 15.084-4.314 19.77-12.943 4.272-7.873 6.376-17.987 6.376-30.446 0-13.95-2.715-24.344-8.117-31.208-4.55-5.786-10.56-8.69-18.03-8.69z"/><path d="M528.607 150.61L420.155 55.755l-108.44 94.857-80.695 70.59h10.103c3.502 0 6.342 2.834 6.342 6.348v200.797h345.38V227.548c0-3.514 2.84-6.347 6.347-6.347h10.105l-80.69-70.59zM367.833 264.946c-.037 21.24-.107 39.672-.185 55.304-.036 15.577-.085 28.317-.085 38.148h-41.22c0-16.59.03-29.288.147-38.03.13-8.805.237-19.544.386-32.24.147-12.65.23-24.497.23-35.474-3.28 1.37-6.672 3.008-10.1 4.91-4.427 2.595-7.705 4.5-9.91 5.714-3.086-9.292-6.14-18.586-9.107-27.896 7.695-4.407 14.97-8.458 21.873-12.187 7.395-4.034 14.775-8.074 22.18-12.105 9.905-5.427 17.338-9.582 22.32-12.43l3.505 2.848c.002 21.04.002 42.19-.035 63.437zm146.14 73.422c-12.584 16.396-29.27 24.65-50.125 24.65-22.377 0-39.496-7.628-51.442-22.892-11.19-14.282-16.814-33.987-16.814-59.01 0-16.43 3.518-30.91 10.56-43.44 6.295-11.208 14.87-19.96 25.72-26.255 10.124-5.866 20.763-8.8 31.978-8.8 19.852 0 35.77 6.29 47.822 18.794 13.264 13.855 19.902 33.758 19.902 59.702-.002 22.868-5.894 41.95-17.6 57.25z"/><path d="M420.155 47.32l112.61 98.513 93.425 81.715h-26.998V434.682h-358.07V227.548H214.132l93.407-81.715L420.154 47.32m0-18.97L298.14 135.082 176.125 241.83h50.716v207.135h386.626V241.83h50.717l-122-106.747L420.155 28.35z"/></g></svg>