<svg xmlns="http://www.w3.org/2000/svg" width="841.89" height="595.28" viewBox="0 0 841.89 595.28"><g fill="#58595B"><path d="M691.313 197.042L789.45 359.42H91.417l26.65-44.372L52.44 206.9h18.795l56.23 92.59 55.77-92.59h31.582v98.904h22.645v-23.88l.31-1.077v-1.85l1.538-3.233 1.233-1.232.77-.616.31-.31.616-.308h.615l.617-.306 1.23-.31h3.237l.613.31h.616l.615.306 1.387 1.233.618.31 1.54 2.616.307.927v1.23l.31 1.388v40.362h-55.46V213.37l-78.723 130.643h641.03l-69.48-115.39-55.922 92.74h-19.104l74.41-123.09.615-1.23m34.05 124.32h-19.105l-14.945-24.802-14.788 24.803h-19.41l34.198-56.383 34.05 56.383m-101.68-86.732l4.468 9.245 1.54 4.16 1.697 8.317v1.54l.31 1.39v9.242l-.31 1.54v1.54l-3.237 12.786-2.927 6.474-3.237 4.774-.615 1.233-8.626 9.858-6.934 5.392-1.54.616-1.077.772-1.233.615-2.464 1.543-9.704 4.156-3.082.616-1.08.618-9.242 1.386h-1.54l-1.85.308h-6.163l-1.54-.308h-1.54l-9.244-1.386-1.388-.618-3.077-.616-13.404-6.314-1.08-.772-1.228-.616-11.093-9.55-7.705-10.48-5.083-11.86-.615-3.08-.618-1.386v-1.542l-.77-4.158v-2.927l-.308-1.542v-3.234l.31-1.54v-2.927l.767-4.157v-1.543l.617-1.54.615-2.927.615-1.234 4.468-10.784.923-1.077.616-1.23 3.545-4.776.924-.926.77-1.08 4.007-4.31 1.08-.77 4.466-4.007 1.233-.46 3.542-2.774 1.544-.616 1.23-.77 9.552-4.313 1.08-.155 1.54-.616 2.925-.616 1.542-.616 2.926-.616h1.543l1.85-.31 5.853-.307 1.85-.307 2.926.308h1.85l9.242 1.233 1.232.616 2.93.615 1.54.616 1.382.156 9.555 4.312 2.465 1.388 3.852 2.773 1.234.46 2.31 1.85 2.925 2.927 1.232.925.924 1.23 3.852 4.16 4.156 6.01m-57.772 4.775h1.54l1.076-.307h5.087v15.095l-3.236.312h-1.232l-.925.307h-.463l-.925.307-1.232.617-1.85 1.234-1.69 2.002-.312.31-.307.615v.308l-.31.307-.307.618-.307.924v1.08l-.31.615v.613l.31.618v.924l.306.927v.31l.308.306v.462l.31.31.618.926 1.076 1.23.615.924.924.31.617.46.617.31h.31l.614.308h.617l.31.31h.153l1.85.307h.615l3.236.308v15.253h-6.163l-7.547-1.847-4.47-2.312-2.926-2.157-1.85-1.695-3.544-4.774-.307-.926-1.232-2.465-1.388-5.853v-5.085l1.388-6.01 2.156-4.467 2.313-3.235 2.774-2.77 2.616-1.698.924-.924 1.232-.308 2.002-1.233 1.232-.306 1.235-.618 3.852-.775m4.16-18.796c-12.734 0-23.47 4.264-32.2 12.788-8.934 8.32-13.4 18.435-13.4 30.35 0 12.12 4.467 22.388 13.4 30.81 8.73 8.522 19.466 12.79 32.2 12.79 12.527 0 23.26-4.268 32.198-12.79 8.93-8.422 13.4-18.688 13.4-30.81 0-11.915-4.47-22.03-13.4-30.35-8.938-8.524-19.67-12.787-32.2-12.787m-109.073 19.106v81.647H405.54V206.9h94.435v114.463h-16.02V222h-61.93v83.805h22.644v-66.09h16.327m-71.48-17.408l4.158 6.316.31.923.616.617 2.31 6.78 1.235 6.01v9.55l-.308 2.004-2.62 8.625-.616 1.23-.307.93-1.234 1.846-.923 2.004-1.542 1.847-.463.925-3.08 3.233-.616.926-.77.46-.925.924-3.08 2.47-1.695.92-2.466 1.696-6.778 3.08-6.625 1.695h-1.078l-2.466.615h-1.23l-1.08.306-13.71.312v-15.558h9.86l1.692-.31h1.54l5.854-1.078 1.543-.617 1.23-.308 3.544-1.85 3.852-2.62 2.156-2.156 1.692-2.31.617-1.235 1.54-2.152.615-1.387.31-1.233.617-1.23.46-2.312v-1.23l.31-1.236v-4.775l-.31-.77v-1.23l-.154-.928v-.924l-.615-2-.617-.928-1.537-3.234-1.542-2.156-3.233-3.235-4.16-2.77-.924-.16-.924-.612-8.938-2.773h-1.077l-2.465-.616h-1.388l-1.23-.31-47.142-.308v-15.098l50.067.308 9.245 1.388 1.54.615 1.692.308 3.082 1.233 1.388.308 6.315 2.927 5.393 3.545 5.084 4.772m-33.43 17.87l.616.308h.922l.62.616 1.077.618.308.307.614.31.617.925.31.307v.616l.31.31v.155l.307.923.31.617v2.77l-.617 1.388v.618l-.617.616-.308.923-.617.307-1.076 1.08-1.235.618-.922.307h-.617l-.925.307h-.77l-.923.31h-31.582v65.934h-16.176v-81.34h49.45l.924.152M297.698 206.9l-32.506 36.975 7.24 2.31 4.16 2.157 5.237 3.852 5.084 6.164 1.85 3.695 2.31 7.09 1.54 9.24v3.543l.308 1.85v37.588h-16.328V281.62l-1.54-8.013-.618-1.23-.308-1.08-1.694-3.852-.924-.925-.617-1.23-1.54-1.542-.31-.616-.615-.31-.77-.77-1.232-.924-.617-.308-.925-.31-.616-.615-2.003-.925-.926-.307-5.083-1.077h-7.394l-2.465.613h-.617l-1.078.463-1.23.307-1.233.616-.926.31-15.097 7.702 50.377-60.698h21.104m-155.288 0h19.102l-34.046 56.23-33.893-56.23h19.103l14.79 24.65 14.944-24.65M753.863 371.433l9.55 25.576h-6.163l-1.85-4.782h-8.933l-1.696 4.78h-6.314l9.55-25.575h5.857m-2.93 6.778l-3.233 9.86h6.47l-3.236-9.86m-15.252-6.777v25.576h-5.855v-18.183l-6.316 18.182h-4.156l-6.315-18.183v18.182h-6.164v-25.577h8.627l6.01 17.563 5.85-17.563h8.32m-34.818 2.004c1.644 1.645 2.465 3.75 2.465 6.316 0 2.98-.924 5.134-2.774 6.47-1.743 1.44-4.107 2.155-7.087 2.155h-5.698v8.63h-6.01v-25.575h12.017c2.77 0 5.133.667 7.085 2.004m-13.093 9.86h4.775l3.236-.925.92-2.62-.92-2.463c-.62-.62-1.696-.927-3.236-.927h-4.775v6.934m-11.248 13.712h-6.01v-25.577h6.01v25.576m-125.557-25.577v6.162c0 1.642.414 2.725 1.234 3.238.823.82 1.9 1.23 3.235 1.23l2.156-.308h2.004v-10.323h6.008v25.576h-6.008V386.53l-5.546.307c-2.976 0-5.29-.565-6.934-1.694-1.434-.82-2.156-2.826-2.156-6.01v-7.7h6.01m-27.73 8.32c-.926-.82-2.723-1.233-5.395-1.233h-.46v11.092h.46c2.466 0 4.163-.408 5.087-1.233 1.23-.818 1.845-2.31 1.845-4.467 0-1.437-.51-2.825-1.537-4.16m7.856 4.16c0 3.184-1.026 5.75-3.082 7.703-1.948 1.85-5.03 2.77-9.243 2.77h-.926v3.853h-5.853v-3.853h-.924c-3.798.105-6.88-.82-9.243-2.77-1.95-2.367-2.925-4.932-2.925-7.705 0-2.567.975-5.085 2.925-7.55 2.363-1.952 5.445-2.926 9.243-2.926h.925v-3.545h5.854v3.546h.925c3.802 0 6.885.974 9.242 2.927 2.055 2.056 3.082 4.573 3.082 7.55m9.707-12.48v25.576h-6.162v-25.577h6.163m-33.895 8.32c-1.23 1.128-1.845 2.518-1.845 4.16 0 1.745.614 3.234 1.845 4.465.824.825 2.52 1.233 5.086 1.233h.617v-11.09h-.616c-2.566 0-4.26.412-5.085 1.233m-15.25 17.256l-1.387-4.782h-9.244l-1.54 4.78h-6.623l9.552-25.575h6.316l9.244 25.576h-6.316m-21.72-23.573c1.643 1.438 2.464 3.547 2.464 6.316 0 2.98-.82 5.134-2.463 6.47-1.95 1.44-4.318 2.155-7.09 2.155h-5.7v8.63h-6.006v-25.575h11.708c2.976 0 5.34.667 7.09 2.004m-3.855 6.316l-.924-2.464c-.618-.62-1.797-.927-3.546-.927h-4.468v6.934h4.468c1.54 0 2.618-.31 3.235-.925l1.233-2.62m16.02 8.32h6.625l-3.236-9.86-3.388 9.86m-34.2-11.71H436.81v20.647h-5.856v-25.577h16.947v4.93m199.967-2.926v-3.545h6.01v3.545h.77c3.8 0 6.882.974 9.243 2.927 2.054 2.464 3.08 4.98 3.08 7.55 0 2.772-1.026 5.337-3.08 7.703-1.953 1.85-5.035 2.77-9.244 2.77h-.77v3.853h-6.01v-3.852h-1.233c-3.594.105-6.572-.82-8.934-2.77-1.953-1.953-2.928-4.52-2.928-7.705 0-2.977.975-5.493 2.928-7.55 2.36-1.952 5.34-2.926 8.934-2.926h1.233m5.392 5.083v11.092h.617c2.36 0 4.005-.408 4.926-1.233 1.235-.818 1.85-2.31 1.85-4.467 0-1.642-.614-3.03-1.85-4.16-.718-.82-2.36-1.232-4.927-1.232h-.618m-5.392 0c-2.573 0-4.363.412-5.39 1.233-1.03 1.335-1.547 2.723-1.547 4.16 0 1.542.516 3.027 1.546 4.465 1.026.825 2.816 1.233 5.39 1.233h.617v-11.09h-.617m-34.356 18.49l-1.385-4.782h-9.244l-1.85 4.78h-6.162l9.397-25.575h6.01l9.553 25.576h-6.32m-2.924-8.94l-3.24-9.86-3.388 9.86h6.627m-18.18-16.637v25.576h-6.01V385.91h-9.244v11.097h-5.853v-25.577h5.853v9.707h9.244v-9.707h6.01m-191.34 4.93l-.308 9.092c0 4.105-.976 7.34-2.926 9.704-1.952 1.85-4.83 2.462-8.63 1.85v-4.782c1.952.206 3.44-.305 4.468-1.537 1.028-1.336 1.542-3.593 1.542-6.777v-12.48h18.64v25.577h-5.854v-20.646h-6.933m24.494-4.93v25.575h-6.008v-25.577h6.008m-51.607-.615c4.416 0 7.6 1.18 9.552 3.54 2.155 2.363 3.232 5.65 3.232 9.862 0 4.314-1.077 7.6-3.233 9.86-1.952 2.565-5.137 3.852-9.553 3.852-4.007 0-7.19-1.286-9.55-3.852-2.16-2.67-3.236-5.96-3.236-9.86 0-3.802 1.078-7.088 3.236-9.86 2.362-2.362 5.544-3.542 9.55-3.542m0 4.777c-1.95 0-3.44.664-4.468 2-1.13 1.642-1.692 3.852-1.692 6.626 0 2.98.563 5.134 1.692 6.47 1.027 1.643 2.518 2.366 4.47 2.157 2.36 0 3.953-.718 4.775-2.156 1.027-1.336 1.538-3.49 1.538-6.47 0-2.98-.51-5.085-1.537-6.315-1.027-1.542-2.62-2.31-4.776-2.31M357.01 397.01h-6.316v-20.647h-9.244v20.646h-6.162v-25.577h21.723v25.576"/></g><path fill="#58595B" d="M787.11 215.91c0 5.21-1.848 9.66-5.54 13.352-3.69 3.69-8.14 5.535-13.35 5.535-5.215 0-9.662-1.845-13.354-5.535-3.69-3.69-5.536-8.142-5.536-13.353 0-5.213 1.846-9.66 5.536-13.343 3.692-3.684 8.14-5.525 13.354-5.525 5.21 0 9.658 1.842 13.35 5.525 3.693 3.682 5.54 8.13 5.54 13.342zm-2.514 0c0-4.558-1.596-8.442-4.794-11.65-3.195-3.21-7.05-4.816-11.56-4.816-4.514 0-8.37 1.605-11.564 4.815-3.195 3.208-4.79 7.093-4.79 11.65 0 4.555 1.595 8.442 4.79 11.658 3.195 3.22 7.05 4.827 11.564 4.827 4.51 0 8.364-1.608 11.56-4.827 3.198-3.215 4.794-7.103 4.794-11.66zm-5.523 9.608h-4.958l-6.18-7.753h-2.685v7.753h-3.604v-19.98h6.094c1.37 0 2.446.05 3.24.15.794.104 1.596.388 2.414.854.872.494 1.507 1.09 1.897 1.79.395.698.59 1.594.59 2.687 0 1.455-.4 2.648-1.21 3.58-.81.932-1.858 1.66-3.155 2.184l7.558 8.734zm-7.163-14.26c0-.538-.086-1.005-.26-1.398-.175-.393-.484-.727-.92-1.005-.362-.23-.77-.39-1.223-.47-.45-.08-1.034-.12-1.746-.12h-2.51v6.75h2.14c.7 0 1.353-.07 1.965-.208.61-.14 1.106-.376 1.484-.71.378-.335.65-.722.818-1.157.17-.438.252-.998.252-1.682z"/></svg>