<svg xmlns="http://www.w3.org/2000/svg" width="841.89" height="595.28" viewBox="0 0 841.89 595.28"><g fill="#58595B"><path d="M424.084 358.952c-7.836 0-13.097 7.71-13.097 14.9 0 4.024 2.14 8.33 8.144 8.33 3.37 0 5.71-1.033 6.562-1.48l.187-.096-.752-2.202-.255.138c-1.16.63-3.03 1.38-5.377 1.38-3.798 0-5.883-2.268-5.883-6.383 0-5.888 4.08-12.192 10.15-12.192 1.487 0 2.82.314 4.063.97l.235.12.894-2.128-.124-.114c-.485-.442-2.54-1.244-4.746-1.244zM457.598 358.948l-.105.004c-3.358.038-6.093 1.65-8.122 4.79-.377-3.06-2.247-4.79-5.22-4.79-2.884 0-5.548 1.542-7.583 4.372l.605-3.877h-2.41l-.026.216c-.238 1.765-.505 3.696-.91 5.84l-3.094 16.23h2.54l2.217-11.87c.904-4.848 4.932-8.613 7.795-8.613 3.404 0 3.8 2.38 3.8 4.168 0 .836-.08 1.627-.27 2.716l-2.648 13.6h2.545l2.264-12.19c.943-5.124 4.735-8.293 7.704-8.293 2.594 0 3.748 1.33 3.748 4.306 0 .9-.166 2.023-.313 2.9l-2.504 13.28h2.542l2.485-13.195c.237-1.368.37-2.687.37-3.713 0-4.648-3.537-5.88-5.41-5.88zM477.116 373.304c-.646 1.403-1.18 2.544-1.656 3.53-.27.568-.516 1.096-.745 1.582-.22-1.33-.517-2.658-.908-4.42l-2.988-14.55h-2.595l4.514 21.257c.045.28.067.453-.07.757-1.73 3.123-3.806 5.055-4.613 5.737-1.173.945-2.517 1.69-4.107 2.28l-.226.074.738 2.214.216-.052c1.395-.338 3.813-1.536 6.067-3.834 3.103-3.15 5.304-7.13 7.22-10.964 2.19-4.38 5.704-11.928 8.04-17.126l.154-.342h-2.715l-6.33 13.858zM495.294 348.96c-.824-.077-2.078-.208-3.482-.45l-.303-.055.166 2.454.194.036c1.078.18 2.045.283 2.82.354l.513.055c3.097.268 4.72.953 6.192 2.604 1.9 2.027 2.574 5.794 2.574 8.41 0 .462 0 .897-.008 1.293-1.066-2.693-3.338-4.216-6.38-4.216-7.32 0-10.73 8.44-10.73 14.144 0 5.41 2.805 8.638 7.508 8.638 8.744 0 12.004-12.26 12.004-19.99 0-2.95-.8-7.284-3.057-9.786-2.055-2.402-4.497-3.102-8.013-3.492zm2.243 12.75c3.64 0 5.297 3.42 5.297 6.613 0 4.012-3.158 11.692-8.153 11.692-4.79 0-5.16-5.028-5.16-6.568 0-4.866 2.487-11.738 8.017-11.738zM515.875 350.91c-1.046 0-1.913.92-1.965 2.1-.025.607.18 1.188.557 1.585.323.345.76.533 1.23.533h.052c1.07 0 1.897-.86 2.006-2.11 0-1.198-.803-2.11-1.88-2.11zM509.14 381.734h2.538l4.266-22.287h-2.536M531.182 359.22c-6.098 0-9.734 2.472-9.734 6.605 0 2.338 1.48 4.12 4.095 4.98-2.172.642-3.88 2.206-5.205 4.764-.38.76-.704 1.482-1.022 2.183-.556 1.24-1.08 2.406-1.825 3.605l-.234.377h2.674l.07-.12c.667-1.135 1.222-2.32 1.806-3.565.213-.458.43-.904.654-1.363 1.382-2.89 3.118-4.81 7.085-4.81h2.476l-1.855 9.858h2.448l4.217-22.02-.252-.035c-.85-.14-3.086-.46-5.396-.46zm-.27 2.174c1.342 0 2.26.114 3.115.23l-1.553 8.086h-2.476c-2.444 0-5.884-1.182-5.884-3.8 0-2.998 2.288-4.516 6.8-4.516zM557.72 348.96c-.826-.077-2.084-.208-3.48-.45l-.307-.055.17 2.454.19.036c1.082.18 2.046.283 2.823.354l.51.055c3.102.268 4.72.953 6.196 2.604 1.897 2.027 2.57 5.794 2.57 8.41v1.293c-1.073-2.693-3.344-4.216-6.385-4.216-7.32 0-10.73 8.44-10.73 14.144 0 5.41 2.808 8.638 7.507 8.638 8.747 0 12.005-12.26 12.005-19.99 0-2.95-.8-7.284-3.056-9.786-2.06-2.402-4.5-3.102-8.015-3.492zm2.245 12.75c3.634 0 5.297 3.42 5.297 6.613 0 4.012-3.164 11.692-8.16 11.692-4.787 0-5.154-5.028-5.154-6.568 0-4.866 2.487-11.738 8.017-11.738zM587.053 371.498c-.907 4.798-4.98 8.386-8.02 8.386-2.71 0-4.025-1.427-4.025-4.35 0-.96.117-1.898.407-3.355l2.416-12.733h-2.54l-2.4 12.596c-.286 1.473-.415 2.556-.415 3.49 0 5.83 3.825 6.694 6.106 6.694 2.704 0 5.578-1.685 7.52-4.368l-.586 3.874h2.407l.026-.225c.2-1.897.494-3.856.86-5.834l3.098-16.23h-2.543l-2.307 12.052zM622.307 358.948l-.103.004c-3.36.038-6.087 1.65-8.12 4.79-.38-3.06-2.25-4.79-5.224-4.79-2.877 0-5.548 1.542-7.577 4.372l.598-3.877h-2.404l-.03.216c-.23 1.765-.5 3.696-.903 5.84l-3.1 16.23h2.543l2.218-11.87c.903-4.848 4.93-8.613 7.793-8.613 3.403 0 3.793 2.38 3.793 4.168 0 .836-.073 1.627-.264 2.716l-2.643 13.6h2.545l2.257-12.19c.947-5.124 4.736-8.293 7.705-8.293 2.596 0 3.75 1.33 3.75 4.306 0 .9-.167 2.023-.312 2.9l-2.505 13.28h2.54l2.486-13.195c.24-1.368.37-2.687.37-3.713 0-4.648-3.54-5.88-5.413-5.88zM644.184 359.22c-6.097 0-9.734 2.472-9.734 6.605 0 2.338 1.48 4.12 4.096 4.98-2.174.642-3.886 2.206-5.204 4.764-.382.76-.706 1.482-1.023 2.183-.558 1.24-1.08 2.406-1.827 3.605l-.232.377h2.667l.073-.12c.666-1.135 1.22-2.32 1.812-3.565.212-.458.428-.904.645-1.363 1.388-2.89 3.12-4.81 7.096-4.81h2.477l-1.863 9.858h2.443l4.22-22.02-.25-.035c-.856-.14-3.087-.46-5.396-.46zm-.275 2.174c1.352 0 2.262.114 3.117.23l-1.548 8.086H643c-2.44 0-5.884-1.182-5.884-3.8 0-2.998 2.287-4.516 6.793-4.516zM667.835 369.562c-1.476 1.34-4.402 2.51-6.314 2.51-3.623 0-4.106-1.782-4.106-3.525 0-1.256.323-2.82.583-4.086l.963-5.012h-2.538l-.995 5.145c-.29 1.34-.593 2.918-.593 4.36 0 2.43 1.078 5.33 6.195 5.33 2.05 0 4.292-.71 6.235-1.97l-1.81 9.508h2.492l4.275-22.372h-2.505l-1.882 10.114zM687.49 358.952c-7.038 0-11.77 7.308-11.77 14.134 0 4.4 2.606 9.142 8.327 9.142h.04c7.558 0 11.732-8.225 11.732-13.904 0-4.33-2.178-9.372-8.33-9.372zm-.18 2.258c4.652 0 5.89 4.44 5.89 7.062 0 6.012-4.316 11.697-8.93 11.697-3.487 0-5.93-2.906-5.93-7.066 0-5.648 3.608-11.694 8.97-11.694zM701.567 355.394h.046c1.278 0 1.97-1.057 1.97-2.054 0-1.127-.807-1.973-1.88-1.973-1.063 0-1.972.943-1.972 2.06 0 .98.633 1.967 1.837 1.967zM709.423 351.367c-1.086 0-1.972.926-1.972 2.06 0 1.122.772 1.967 1.79 1.967h.048c1.29 0 1.972-1.034 1.972-2.054 0-.983-.63-1.973-1.837-1.973zM699.24 381.442l-.056.292h2.538l4.22-21.996.057-.29h-2.547M731.4 356.122c3.032 0 5.313-2.006 6.09-5.36l.07-.3h-2.487l-.057.17c-.68 2.234-1.863 3.373-3.527 3.373-.715 0-1.323-.265-1.765-.754-.555-.606-.816-1.527-.722-2.523l.03-.265h-2.395l-.026.206c-.125.93-.166 2.688.987 4.007.842.96 2.115 1.447 3.8 1.447zM734.017 371.498c-.908 4.798-4.983 8.386-8.02 8.386-2.713 0-4.03-1.427-4.03-4.35 0-.964.12-1.904.406-3.355l2.413-12.733h-2.536l-2.4 12.596c-.285 1.473-.41 2.556-.41 3.49 0 5.83 3.822 6.694 6.104 6.694 2.706 0 5.576-1.685 7.52-4.368l-.59 3.874h2.412l.023-.225c.2-1.892.484-3.856.855-5.834l3.104-16.23h-2.546l-2.307 12.052zM754.234 358.952c-7.05 0-11.778 7.308-11.778 14.134 0 4.4 2.602 9.142 8.327 9.142h.04c7.555 0 11.738-8.225 11.738-13.904.002-4.33-2.18-9.372-8.326-9.372zm-.182 2.258c4.64 0 5.883 4.44 5.883 7.062 0 6.012-4.316 11.697-8.928 11.697-3.49 0-5.932-2.906-5.932-7.066 0-5.648 3.612-11.694 8.977-11.694zM774.21 358.997l-.18-.007c-2.16 0-3.887.816-4.948 1.492l-.175.114.824 1.943.243-.14c1.377-.773 2.607-1.15 3.754-1.15h.154c1.96.04 3.124 1.118 3.124 2.888 0 2.38-2.562 3.646-4.826 4.757-.254.133-.516.26-.763.39-3.323 1.686-6.307 3.514-6.307 7.297 0 3.41 2.108 5.508 5.645 5.6l.182.006c2.265 0 4.55-.818 5.81-1.633l.168-.11-.76-1.942-.248.137c-.556.3-2.51 1.284-4.46 1.284h-.138c-2.264-.034-3.622-1.272-3.622-3.296 0-2.618 2.448-4 5.405-5.41 3.02-1.514 6.44-3.22 6.44-7.124.002-3.056-2.035-5.012-5.32-5.097zM799.84 359.447l-2.31 12.05c-.906 4.8-4.985 8.387-8.023 8.387-2.705 0-4.023-1.427-4.023-4.35 0-.964.113-1.904.403-3.355l2.418-12.733h-2.538l-2.398 12.596c-.29 1.473-.418 2.556-.418 3.49 0 5.83 3.826 6.694 6.104 6.694 2.702 0 5.58-1.685 7.52-4.368l-.587 3.874h2.412l.023-.225c.2-1.892.486-3.856.855-5.834l3.1-16.23h-2.54z"/><g><path d="M504.025 298.638l-31.39-30.296v-.003c-.104-.084-.173-.21-.173-.354 0-.15.077-.29.2-.367l28.6-25.764c1.176-1.054 2.072-2.066 2.072-4.596 0-2.697-1.882-4.585-4.585-4.585-2.124 0-3.695 1.476-5.357 3.03l-28.915 26.45c-.083.086-.194.135-.315.135-.24 0-.436-.19-.446-.427v-.014-23.68c0-3.34-2.035-5.496-5.187-5.496-3.155 0-5.193 2.155-5.193 5.496v23.65c0 .007.007.013.007.02 0 .25-.202.448-.442.448-.114 0-.215-.04-.292-.112h-.004l-28.936-26.468c-1.667-1.56-3.237-3.035-5.363-3.035-2.7 0-4.58 1.89-4.58 4.585 0 2.53.894 3.542 2.063 4.596l28.618 25.777c.12.073.192.21.192.36 0 .168-.093.312-.22.383l-31.335 30.25c-1.473 1.374-2.058 2.543-2.058 4.183 0 2.585 2.286 4.687 5.09 4.687 1.323 0 2.9-.167 4.865-2.136l31.62-31.037c.077-.103.2-.163.34-.163.24 0 .44.198.44.445 0 .008-.006.022-.006.03v27.363c0 3.344 2.038 5.497 5.193 5.497 3.15 0 5.186-2.153 5.186-5.497v-27.333c0-.023-.007-.038-.007-.063 0-.244.2-.448.447-.448.132 0 .25.066.335.16l31.623 31.054c1.88 1.768 3.257 2.127 4.867 2.127 2.802 0 5.086-2.102 5.086-4.687 0-1.634-.575-2.807-2.043-4.168zM593.56 251.284c-5.81 0-10.204 1.668-13.11 4.96-.086.106-.206.17-.343.17-.235 0-.43-.182-.444-.41-.29-2.892-2.25-4.72-5.15-4.72-3.155 0-5.193 2.158-5.193 5.49v66.872c0 3.34 2.038 5.497 5.194 5.497 3.15 0 5.188-2.158 5.188-5.497V302.81l.004-.004-.004-.01c0-.245.198-.442.44-.442.13 0 .248.054.325.146 2.897 2.874 7.405 5.368 13.092 5.368 15.582 0 23.728-14.24 23.728-28.294 0-14.064-8.146-28.29-23.73-28.29zm-.707 47.41c-10.38 0-13.15-10.668-13.15-19.49 0-8.825 2.77-18.755 13.15-18.755 10.373 0 14.054 10.296 14.054 19.125 0 8.82-3.68 19.12-14.054 19.12zM647.64 250.912c-7.61 0-18.665 3.992-18.665 10.26 0 2.178 1.476 4.375 4.78 4.375 1.792 0 3.14-1.017 4.563-2.092 2.098-1.585 4.477-3.38 9.322-3.38 3.284 0 8.786.787 8.786 6.057v5.45c.006.022.01.04.01.064 0 .247-.196.444-.445.444-.016 0-.027 0-.042-.002l-.002.002c-9.98 0-33.358 0-33.358 18.87 0 12.2 10.438 16.535 19.38 16.535 5.283 0 10.023-1.863 13.605-5.306.078-.093.2-.156.33-.156.224 0 .414.18.438.396v.006c.004.008.004.01.004.014V302.485c.192 3.06 2.18 5.01 5.175 5.01 3.15 0 5.187-2.153 5.187-5.497v-35.154c0-10.276-6.773-15.932-19.067-15.932zm8.786 33.864c0 8.36-4.917 13.552-12.844 13.552-2.483 0-10.612-.536-10.612-7.37 0-10.52 10.818-10.52 22.27-10.52h.75c.25.004.445.204.445.445 0 .017-.003.034-.01.05v3.843zM784.55 250.912c-7.61 0-18.664 3.992-18.664 10.26 0 2.178 1.48 4.375 4.786 4.375 1.795 0 3.14-1.017 4.563-2.092 2.092-1.585 4.476-3.38 9.315-3.38 3.28 0 8.79.787 8.79 6.057v5.445c.005.02.01.045.01.068 0 .247-.2.444-.444.444-.012 0-.026 0-.046-.003v.002c-9.98 0-33.355 0-33.355 18.868 0 12.202 10.438 16.536 19.375 16.536 5.29 0 10.025-1.863 13.606-5.306.08-.092.2-.155.333-.155.245 0 .44.2.44.445v.006c.188 3.06 2.17 5.01 5.176 5.01 3.15 0 5.186-2.153 5.186-5.497v-35.154c0-10.275-6.773-15.93-19.07-15.93zm8.792 33.864c0 8.36-4.92 13.552-12.84 13.552-2.49 0-10.614-.536-10.614-7.37 0-10.52 10.814-10.52 22.263-10.52h.759c.242.004.44.204.44.445 0 .017-.004.034-.008.052v3.84zM732.98 250.912c-5.064 0-9.008 1.444-11.775 4.3-.08.098-.195.156-.33.156-.226 0-.41-.172-.438-.393v-.017c0-.015-.006-.023-.006-.032 0-.015.007-.023.007-.03V238.17c0-3.34-2.034-5.496-5.187-5.496-3.158 0-5.193 2.155-5.193 5.496v16.73c0 .01.006.017.006.026 0 .244-.203.44-.443.44-.145 0-.265-.062-.348-.162-2.763-2.854-6.7-4.293-11.756-4.293-14.644 0-22.317 14.232-22.317 28.288 0 14.063 7.673 28.295 22.316 28.295 5.538 0 9.454-2.606 11.773-4.805.08-.088.193-.146.33-.146.24 0 .442.195.442.444 0 .006-.006.014-.006.02v20.267c0 3.34 2.035 5.49 5.193 5.49 3.15 0 5.186-2.15 5.186-5.49v-20.257c0-.01-.006-.02-.006-.03 0-.248.2-.443.444-.443.11 0 .225.043.306.114V302.666h.007c2.322 2.207 6.244 4.827 11.792 4.827 14.646 0 22.31-14.232 22.31-28.295 0-14.055-7.664-28.286-22.31-28.286zm-22.918 38.902c0 .068-.022.14-.052.2-1.6 3.852-4.825 8.314-11.182 8.314-9.775 0-13.245-10.302-13.245-19.13 0-8.82 3.47-19.124 13.245-19.124 6.398 0 9.61 4.427 11.188 8.24 0 0 0 .002.005.008.022.048.04.112.04.175 0 .008-.005.017-.005.028v21.26c0 .01.007.02.007.03zm21.596 8.515c-6.352 0-9.572-4.455-11.177-8.306-.027-.063-.05-.135-.05-.21 0-.02.005-.03.005-.04V268.532c0-.01-.006-.026-.006-.034 0-.07.02-.136.045-.19.003-.007.003-.017.006-.017 1.583-3.805 4.792-8.215 11.178-8.215 9.778 0 13.252 10.306 13.252 19.125 0 8.826-3.473 19.13-13.252 19.13zM552.47 250.912c-2.887 0-3.807 1.378-4.78 2.834l-23.053 33.083c-.075.124-.216.213-.38.213-.245 0-.445-.197-.445-.447 0 0 .006-.01.006-.014v-30.177c0-3.338-2.04-5.493-5.193-5.493s-5.192 2.155-5.192 5.493v45.592c0 3.344 2.04 5.497 5.192 5.497 2.79 0 3.648-1.28 4.648-2.755l23.19-33.272h.004c.08-.12.213-.2.368-.2.243 0 .44.2.44.444v30.286c0 3.344 2.035 5.497 5.193 5.497 3.15 0 5.187-2.153 5.187-5.497v-45.592c0-3.34-2.035-5.494-5.186-5.494z"/></g><g><path d="M149.74 346.79c0 1.84-1.246 3.335-2.79 3.335-1.533 0-2.78-1.494-2.78-3.335 0-1.84 1.247-3.335 2.78-3.335 1.544 0 2.79 1.495 2.79 3.335z"/><ellipse cx="169.912" cy="346.79" rx="2.787" ry="3.335"/><path d="M207.052 310.827l-.057-.127c-.076-.147-.166-.28-.298-.43-.183-.186-.428-.354-.675-.465-.08-.028-.16-.058-.26-.08-.703-.142-2.04-.29-3.697-.29-3.32 0-9.46.595-13.304 4.603-.19.203-.754 1.06-2.092 3.107-1.13 1.73-2.407 3.69-3.226 4.824-.208.22-.435.324-.84.15-1.893-.65-4.537-1.18-7.89-1.578-.3-.08-.508-.353-.508-.66l.023-.185c.49-1.367 2.106-5.923 3.034-9.237 2.077.124 3.987-1.12 4.69-3.042.888-2.418-.356-5.11-2.77-6-.52-.19-1.06-.288-1.61-.288-1.948 0-3.714 1.233-4.386 3.064-.517 1.397-.328 2.937.494 4.184-1.977 3.104-4.61 8.274-5.965 11.13-.097.273-.345.453-.676.453h-.007c-1.628-.067-3.354-.1-5.275-.1-1.054 0-2.11.01-3.15.025-1.055-.017-2.11-.026-3.163-.026-1.925 0-3.65.032-5.317.104-.284 0-.544-.184-.664-.506-1.338-2.818-3.978-7.99-5.94-11.08.82-1.248 1.01-2.787.492-4.182-.672-1.834-2.437-3.067-4.388-3.067-.55 0-1.09.096-1.61.287-2.41.887-3.655 3.578-2.77 6.002.708 1.92 2.618 3.168 4.69 3.04.752 2.687 2.043 6.482 3.043 9.27.012.062.02.106.02.15 0 .302-.204.568-.548.672-3.32.39-5.966.918-7.914 1.59-.25.114-.574.046-.776-.16l-.063-.134-.053-.034c-.742-1.032-1.982-2.933-3.077-4.615-1.358-2.088-1.934-2.96-2.134-3.17-3.842-4.003-9.98-4.6-13.302-4.6-1.653 0-2.995.15-3.727.298-.067.017-.146.043-.228.074-.268.108-.506.276-.66.45-.09.084-.158.164-.23.276-.036.064-.068.14-.117.245-1.856 3.91 2.78 13.984 5.847 17.172 1.55 1.616 5.667 5.917 11.268 5.917 1.24 0 2.486-.214 3.69-.628.377-.083.776.178.844.654 1.118 4.31 3.76 10.577 6.31 16.64 2.67 6.342 5.43 12.903 5.126 14.435-1.578 7.867 2.06 16.676 6.188 18.97 1.47 1.02 3.358 1.657 5.574 1.888.74.136 1.7.203 2.854.203.248 0 .5-.005.714-.01.245.005.494.01.745.01 1.154 0 2.115-.067 2.81-.196 2.257-.236 4.148-.872 5.573-1.866 4.175-2.32 7.81-11.126 6.234-18.996-.306-1.53 2.456-8.094 5.124-14.44 2.555-6.06 5.192-12.325 6.325-16.705.04-.348.33-.602.674-.602.05 0 .104.008.142.008 1.22.424 2.465.638 3.703.638 5.602 0 9.72-4.298 11.353-6.004 2.983-3.095 7.624-13.17 5.786-17.033zm-20.165 19.53c-.03 0-.056-.008-.087-.008h-.018l-.016-.003c-.626-.064-1.12-.588-1.12-1.233 0-.03.005-.058.005-.087 0-.01-.004-.018-.004-.027.056-.73.092-1.632.07-2.223 0-.028-.008-.055-.008-.09 0-.65.5-1.178 1.14-1.232.01 0 .014-.002.02-.004 4.822-.226 10.212-5.11 13.55-8.705.227-.294.58-.484.974-.484.688 0 1.25.56 1.25 1.246 0 .198-.06.387-.145.555-1.684 5.052-5.765 12.163-15.473 12.288-.045.002-.092.01-.137.01zm-11.532 15.558l-.033.02c-3.152 1.633-12.61 6.23-12.545 2.734.086-4.822 2.687-9.973 5.402-10.77 3.67-1.07 6.564 4.055 7.665 6.392.006.005.006.01.006.01.076.167.125.348.125.54 0 .46-.248.86-.62 1.073zm-15.185 24.207v-.054c.01-.022.01-.045.01-.068.01-.13.037-.253.09-.364.275-.914.755-1.782 1.54-2.098 1.575-.63 3.218 1.553.32 3.6-.007.006-.016.006-.02.01-.203.14-.44.213-.7.213-.686 0-1.24-.55-1.24-1.238zm-4.378 1.238c-.258 0-.498-.074-.694-.212-.01-.005-.02-.005-.028-.012-2.896-2.046-1.253-4.23.33-3.6.778.316 1.257 1.185 1.536 2.1.05.11.073.234.09.363 0 .022.004.045.006.067 0 .017.008.033.008.054 0 .69-.563 1.24-1.248 1.24zm-13.91-25.423l-.033-.02c-.373-.214-.628-.613-.628-1.074 0-.19.052-.372.127-.538 0 0 .003-.006.003-.01 1.107-2.338 3.994-7.464 7.67-6.392 2.716.796 5.317 5.946 5.403 10.768.06 3.494-9.39-1.102-12.545-2.733zm-10.324-16.823c0 .646-.492 1.17-1.122 1.233l-.02.002h-.01c-.036 0-.06.007-.092.007-.047 0-.092-.008-.136-.01-9.71-.125-13.792-7.236-15.475-12.287-.084-.168-.136-.356-.136-.555 0-.688.553-1.245 1.242-1.245.395 0 .746.19.976.484 3.335 3.595 8.725 8.48 13.546 8.706l.02.004c.64.055 1.14.58 1.14 1.233 0 .034-.008.06-.008.09-.018.59.01 1.49.072 2.222 0 .01-.004.016-.008.026.006.03.01.06.01.088z"/><path d="M268.202 408.17c-3.4-4.043-4.663-6.954-5.52-9.496-.706-2.083-.957-4.275-1.2-6.396-.257-2.28-.504-4.436-1.3-6.233-1.424-3.235-16.117-33.585-21.496-42.858-.194-.334-.477-.84-.85-1.503-13.17-23.517-26.786-42.24-40.443-55.63-.347-.375-.813-.585-1.312-.585-.982 0-1.78.798-1.78 1.778 0 .308.08.61.233.874l-.023.046.257.282c.513.564 1.02 1.145 1.53 1.74 6.414 7.422 11.262 15.888 15.544 23.354l1.203 2.1c2.668 4.623 5.165 9.43 7.646 14.71 5.29 10.428 8.854 19.288 10.914 24.88 1.12 3.034 2.92 8.185 4.3 12.7 2.06 6.764 2.818 10.03 2.83 10.03.028 1.453.016 3.325.005 5.245-.026 4.02-.05 8.178.292 9.523.516 2.004 1.108 3.554 1.87 4.885.51.887 1.085 1.733 1.64 2.553.87 1.29 1.694 2.512 2.16 3.716.453 1.15.54 2.05.577 4.344.03 1.71-.073 3.838-.322 6.692-.13 1.505-.277 2.98-.422 4.295-.38 3.376.01 5.657 1.182 6.97.755.845 1.795 1.258 3.18 1.258l.632-.017c4.867-.192 19.7-.838 22.744-.975l.94-.04.137-.33c.105-.26.203-.524.35-.91.138-.403.26-.817.366-1.236.964-3.604 1.47-10.454-5.864-15.766zM104.94 328.275l-.002-.008c.028-.125.042-.247.042-.365 0-.996-.808-1.802-1.8-1.802-.64 0-1.236.35-1.5.834l-.108.153c-2.68 5.35-6.323 12.88-8.474 18.384-6.52 16.686-9.318 28.238-9.846 30.492-.017.046-.036.092-.09.195-2.275 3.665-3.635 8.528-3.635 13.005 0 2.483.16 3.84.305 4.585.025.098.062.188.08.21.264.684.93 1.148 1.652 1.153 4.512.158 15.43.537 19.46.548h.068c.622 0 1.196-.33 1.522-.85l.228-.56c.53-1.88 1.106-5.67-.96-9.88-.026-.07-.11-.343-.118-.366-.768-4.797-1.447-10.598-1.265-11.99 0-.025.018-.098.092-.25 1.25-2.546 2.36-7.467 2.578-9.73.465-4.83-.12-7.586-.596-9.802-.146-.69-.286-1.343-.384-2.027-.01-.057-.013-.172 0-.352.3-2.887 1.072-10.13 1.735-15.002.204-1.518.435-2.928.643-4.235.126-.756.24-1.478.345-2.167l.027-.017-.004-.146c.005-.003.005-.008.005-.01z"/><path d="M239.038 411.53l-.774-5.435-.553-3.84-.006-.212-.027-.04c-.17-.828-.896-1.432-1.756-1.432l-.15.006c-7.362.708-16.61 1.433-26.74 2.11-1.3.082-2.54.18-3.75.27-4.775.355-9.206.69-15.46.54-7.757-.182-11.2-.422-16.307-1.495-4.25-.89-5.36-2.362-5.05-11.13 0-.993-.807-1.798-1.798-1.798-.147 0-.303.02-.56.083-2.142.756-5.016 1.187-7.895 1.187-2.757 0-5.412-.396-7.623-1.115-.23-.103-.474-.154-.726-.154-.99 0-1.8.805-1.797 1.83-.538 13.51 1.67 21.814 7.378 27.764 1.688 1.76 3.688 3.61 6.88 5.262 5.45 2.81 12.68 3.134 13.003 3.145l.188.006c4.36.113 8.14.167 11 .128 4.73.057 9.522.125 14.31.194 11.474.164 23.333.33 33.894.33 1.238 0 2.465-.004 3.572-.016.08.012.168.023.25.023h.039c.874-.02 1.586-.657 1.727-1.497l.026-.238v-.123c-.18-2.902-.66-10.114-1.29-14.354zM209.817 330.475c.22 1.347.455 2.805.666 4.375.698 5.143 1.508 12.783 1.74 15.08.005.11 0 .233-.006.294-.098.66-.236 1.313-.382 2-.473 2.216-1.063 4.973-.598 9.81.227 2.326 1.315 7.155 2.584 9.737.035.073.08.185.09.244.183 1.393-.496 7.188-1.255 11.943-.018.07-.103.343-.115.38-2.086 4.25-1.506 8.035-.973 9.92l.02.07.048.148c.228.62.752 1.05 1.462 1.15l.27.033c4.018-.01 14.958-.39 19.467-.548.73-.005 1.4-.464 1.645-1.105.044-.086.074-.164.107-.298.192-.976.293-2.545.293-4.545 0-4.477-1.36-9.34-3.64-13.022l-.118-.286c-.492-2.146-3.288-13.698-9.812-30.383-2.146-5.5-5.795-13.03-8.43-18.256l-.07-.203-.064-.063c-.327-.525-.898-.847-1.518-.847-.99 0-1.795.806-1.795 1.802 0 .118.013.238.032.373.106.7.226 1.434.352 2.2z"/><path d="M272.478 308.574c-22.28-51.91-59.333-101.77-79.96-115.767-7.86-5.328-17.106-6.445-23.48-6.445-.358 0-.714.004-1.07.013-18.548.356-32.54 10.715-51.62 38.213-15.065 21.72-27.787 49.317-36.793 79.807-7.35 24.898-15.108 52.606-19.284 68.903-1.265 3.54-3.246 6.43-4.834 8.75-1.02 1.492-1.905 2.78-2.425 3.96-.795 1.802-1.042 3.96-1.3 6.243-.242 2.116-.49 4.31-1.197 6.384-.775 2.295-2.01 5.178-5.348 9.318l-.008-.012-.205.206c-8.2 6.02-6.524 13.937-5.395 17.144l.132.4h.096c.274.37.68.62 1.14.697l.318.037c3.794.166 18.385.807 22.76.978l.28.003c1.39 0 2.437-.407 3.19-1.26 1.18-1.314 1.567-3.592 1.187-6.965-.543-4.84-.79-8.434-.746-10.984.04-2.29.125-3.188.576-4.356.464-1.2 1.29-2.42 2.162-3.708.555-.822 1.13-1.67 1.642-2.563.98-1.7 1.534-3.597 1.866-4.874.346-1.34.322-5.285.3-9.47-.014-1.814-.025-3.585.002-5.075.002-.08.015-.193.033-.314.204-.836.997-4.035 2.797-9.938 1.348-4.43 3.156-9.614 4.296-12.705 4.332-11.76 27.918-71.214 67.43-87.415l.123-.047c.648-.286 1.066-.924 1.066-1.625 0-.838-.573-1.548-1.383-1.73l-.15-.032c-5.46-.728-11.11-1.17-14.923-1.427-.32-.037-.564-.302-.564-.62 0-.218.112-.416.393-.578l-.105-.548.26.507c4.842-.702 9.78-1.055 14.672-1.055 9.98 0 19.434 1.473 28.088 4.384 1.518.506 3.12 1.123 4.875 1.86l.594.303c39.773 18.93 84.09 114.678 84.5 118.226-.017.234-.395 5.803 1.154 12.293.915 3.824 4.24 7.52 6.663 9.966 8.083 8.162 5.42 17.272 5.302 17.66l-.024.673.502.045c.63.063 1.27.09 1.91.09 6.867 0 13.895-3.29 16.35-7.655 5.597-9.944-4.47-60.117-25.842-109.896zm-93.48-67.232c-2.194.587-15.46-7.704-14.036-13.07 1.46-5.455 17.067-6.206 18.67-4.61 1.614 1.613-2.437 17.087-4.633 17.68zm-55.108 12.042c-3.92-1.55-3.145-13.198-1.812-14.257 1.33-1.055 12.47 3.29 12.718 4.967.247 1.68-7.048 10.81-10.906 9.29zm-4.72 6.968c-1.038 1.346-12.66 2.475-14.25-1.354-1.627-3.89 7.274-11.45 8.952-11.227 1.687.225 6.336 11.232 5.3 12.582zm-23.59 23.182c-.965-2.31 4.315-6.787 5.313-6.66 1.004.134 3.75 6.664 3.143 7.462-.612.802-7.51 1.468-8.456-.802zm.424 10.503c-.404.926-7.437 1.75-8.035.938-.6-.815.682-7.62 3.124-7.896 2.484-.285 5.318 6.034 4.91 6.957zm-8.07 8.546c2.018-.228 4.334 4.92 4 5.663-.332.758-6.067 1.428-6.548.77-.483-.664.56-6.206 2.55-6.433zm71.564-96.338c-1.533 1.078-14.137-1.644-14.532-6.197-.398-4.635 11.488-9.59 13.187-8.795 1.7.795 2.887 13.922 1.345 14.992zm-15.468 4.893c1.78-2.222 21.537.732 22.562 3.375 1.037 2.646-7.477 20.23-14.33 19.184-6.97-1.063-10.01-20.34-8.232-22.56zm46.917-11.002c2.452 1.15 4.15 20.038 1.937 21.58-2.214 1.543-20.33-2.362-20.904-8.923-.575-6.67 16.523-13.806 18.967-12.657zm9.504 41.17c-2.062-.954-6.95-15.817-2.427-19.023 4.615-3.264 17.09 6.14 17.305 8.406.2 2.27-12.81 11.563-14.877 10.616zm18.023-5.714c1.806-.523 11.403 8.534 10.965 10.36-.446 1.823-11.692 8.15-15.017 4.99-3.375-3.21 2.253-14.82 4.053-15.35zm14.712 33.96c1.237-.67 10.41 2.42 10.324 5.852-.097 3.496-9.387 6.193-10.59 5.455-1.202-.738-.986-10.643.265-11.31zM262.81 308.3c-.736.505-6.458-2.173-6.527-3.058-.07-.896 4.088-5.45 6.072-4.518 2.005.96 1.194 7.06.456 7.576zm.062 8.848c-.19.52-4.047 1.15-4.395.713-.346-.426.183-4.203 1.524-4.418 1.356-.223 3.07 3.19 2.872 3.706zm-12.756-15.15c-1.202-.184-4.394-8.103-3.644-9.057.757-.95 9.077-1.622 10.177 1.126 1.116 2.8-5.32 8.1-6.534 7.93zM98.126 242.19c0-1.134-.92-2.056-2.055-2.056-.166 0-.33.02-.597.086-9.035 2.77-16.688 4.405-23.396 4.988-1.478.132-2.948.198-4.367.198-4.332 0-8.2-.61-12.537-1.967-4.77-1.496-7.493-3.297-8.844-5.84-3.034-5.69-.947-14.66 2.462-21.03 5.04-9.372 12.065-18.892 19.275-26.122 4.117-4.122 7.394-7.068 10.006-8.983 1.292 1.402 2.737 2.112 4.298 2.112 4.686 0 9.17-6.563 12.145-10.92.437-.645.85-1.246 1.202-1.747.12-.158.52-.724.47-1.387-.096-1.132-.98-1.986-2.054-1.986l-.25.016c-4.6.53-14.074 2.607-17.03 6.662-.704.967-1.02 1.997-.94 3.063-6.934 4.84-18.187 15.708-26.872 28.46-4.54 6.656-7.69 12.834-9.375 18.356-1.978 6.47-1.855 11.867.36 16.04 2.11 3.945 6.392 7.15 12.375 9.267 5.438 1.916 12.157 2.927 19.43 2.927 7.918 0 18.817-1.878 20.926-2.25l.162-.035.144-.032c.517-.154.94-.485 1.183-.908 1.146-1.766 2.023-3.16 2.614-4.156.347-.592.695-1.202 1.026-1.792l.236-.506-.042-.042c.03-.138.046-.277.046-.416zm-18.912-67.422c2.223-3.05 9.48-4.626 13.006-5.035.027 0 .124-.006.146-.006.62 0 1.116.488 1.172 1.156.025.327-.18.652-.278.777-.29.41-.612.882-.956 1.39-2.266 3.318-5.692 8.342-9.13 8.342-1.19 0-2.94-.783-3.834-2.05-.517-.732-.756-2.232-.756-2.232-.125-.816.09-1.6.63-2.342z"/></g></g></svg>