<svg xmlns="http://www.w3.org/2000/svg" width="841.89" height="595.28" viewBox="0 0 841.89 595.28"><path fill="#58595B" d="M524.98 308.557c-5.813-8.478-8.764-17.318-8.764-26.604 0-6.54 1.766-11.815 5.303-15.842 3.54-4.02 8.154-6.032 13.776-6.032 3.272 0 6.207.375 8.72 1.18 2.522.808 5.305 2.198 8.393 4.237v-17.372c-.08 0-.857-.043-2.357-.107-1.506-.104-3.262-.19-5.25-.27-2.005-.108-4.04-.174-6.175-.272-2.112-.107-3.876-.146-5.31-.146-4.657 0-8.87.928-12.634 2.747-3.755 1.773-6.987 4.264-9.608 7.327-2.666 3.106-4.696 6.725-6.18 10.8-1.473 4.132-2.193 8.447-2.193 12.948 0 11.317 3.005 21.885 9 31.8 2.745 4.35 5.992 8.408 9.72 12.25 3.695 3.864 7.985 7.376 12.838 10.533 8.813 5.948 18.473 10.142 28.89 12.607v-15.4c-5.552 0-11.864-2.135-18.94-6.483-7.78-4.657-14.203-10.62-19.23-17.9zM627.604 271.718c-3.574-1.933-8.3-3.224-14.188-3.82-5.87-.628-13.113-.954-21.678-.954v-7.024c0-2.04.212-4.104.596-6.308.408-2.138.994-3.988 1.807-5.488h-17.92c1.174 1.7 1.917 3.43 2.213 5.202.284 1.77.467 3.914.467 6.484v76.09c0 2.468-.15 4.586-.422 6.407-.26 1.83-1.013 3.567-2.258 5.23 6.277 0 13.005-1.426 20.166-4.323 7.156-2.83 13.784-6.705 19.9-11.532 6.07-4.8 11.143-10.42 15.22-16.85 4.078-6.498 6.11-13.303 6.11-20.438 0-5.916-.77-10.68-2.323-14.315-1.557-3.642-4.125-6.406-7.69-8.362zm-7.234 34.33c-1.947 3.74-4.438 7.146-7.502 10.29-3.035 3.128-6.4 5.86-10.11 8.223-3.73 2.322-7.385 3.994-11.02 4.96V278.9h15.264c4.675 0 8.557 1.395 11.632 4.24 3.104 2.83 4.673 6.81 4.673 11.896 0 3.652-.985 7.294-2.937 11.01zM336.81 252.843c.323-1.91 1.103-3.866 2.335-5.903-10.51 2.31-20.793 7.888-30.884 16.695-3.878 3.363-7.7 7.278-11.456 11.793-3.745 4.517-7.175 9.29-10.225 14.31-3.042 5.03-5.504 10.264-7.342 15.563-1.867 5.366-2.784 10.536-2.784 15.48 0 3.086.193 5.763.588 8.016.418 2.248.87 4.207 1.406 5.867.53 1.724.986 3.194 1.366 4.48.428 1.285.607 2.547.607 3.886 0 1.616-.21 3.115-.65 4.507h21.075c-3.534-3.808-6.245-7.454-8.078-10.997-1.88-3.537-2.792-7.45-2.792-11.796 0-7.614 1.814-15.392 5.416-23.322 1.612-3.54 3.474-6.92 5.664-10.156 2.14-3.224 4.56-6.304 7.206-9.312 5.134-5.516 10.17-9.534 15.122-12.06V335.9c0 2.524-.17 4.716-.465 6.492-.313 1.77-1.038 3.482-2.203 5.144h18.158c-.96-1.835-1.63-3.755-1.975-5.688-.385-1.927-.54-3.93-.54-5.948v-76.894c0-2.197.15-4.257.452-6.163zM78.96 308.557c-5.82-8.478-8.746-17.318-8.746-26.604 0-6.54 1.77-11.815 5.302-15.842 3.527-4.02 8.127-6.032 13.784-6.032 3.26 0 6.17.375 8.693 1.18 2.51.808 5.317 2.198 8.402 4.237v-17.372c-.09 0-.877-.043-2.38-.107-1.502-.104-3.25-.19-5.243-.27-1.975-.108-4.036-.174-6.16-.272-2.116-.107-3.89-.146-5.3-.146-4.693 0-8.902.928-12.657 2.747-3.76 1.773-6.95 4.264-9.613 7.327-2.646 3.106-4.702 6.725-6.157 10.8-1.46 4.132-2.192 8.447-2.192 12.948 0 11.317 3.005 21.885 9.016 31.8 2.74 4.35 5.964 8.408 9.68 12.25 3.698 3.864 7.983 7.376 12.852 10.533 8.837 5.948 18.46 10.142 28.906 12.607v-15.4c-5.575 0-11.898-2.135-18.976-6.483-7.772-4.657-14.17-10.62-19.212-17.9zM704.465 254.045c2.89-2.252 5.548-4.22 8.03-5.922H684.79c0 2.144-.15 3.748-.464 4.932-.3 1.127-.813 2.17-1.523 3.084-.716.963-1.67 1.905-2.85 2.867-1.192.967-2.666 2.306-4.44 3.966l-8.344 7.69V259.81c0-1.944.143-3.802.448-5.575.33-1.77.9-3.807 1.802-6.11h-17.5c.988 2.21 1.602 4.1 1.92 5.653.316 1.56.46 3.57.46 6.032v76.09c0 2.193-.144 4.208-.46 6.03-.318 1.77-.932 3.68-1.92 5.605h17.5c-.9-2.305-1.473-4.34-1.802-6.1-.306-1.76-.447-3.606-.447-5.536v-46.01l20.54 42.685c.69 1.502 1.276 3.27 1.71 5.31.443 2.036.676 4.292.676 6.76 0 .697-.356 1.658-1.047 2.89h23.176c-2.108-2.463-4.087-5.04-5.886-7.664-1.832-2.692-3.36-5.253-4.586-7.833l-25.574-53.405 21.063-18.554c1.95-1.77 4.368-3.78 7.222-6.033zM191.88 286.725c-.708-2.252-1.72-4.27-3.047-6.19-1.336-1.873-2.916-3.565-4.762-4.957-1.873-1.4-3.9-2.405-6.116-2.907 6.007-2.563 9.015-6.64 9.015-12.216 0-4.504-1.577-7.67-4.772-9.547-3.173-1.832-7.14-2.783-11.91-2.783h-38.715c1.147 1.7 1.885 3.43 2.19 5.202.304 1.77.47 3.914.47 6.484v76.09c0 2.468-.144 4.586-.4 6.407-.277 1.83-1.033 3.567-2.26 5.23 4.684 0 9.455-.81 14.316-2.356 4.868-1.613 9.567-3.736 14.12-6.304 4.55-2.628 8.81-5.665 12.79-9.095 3.972-3.427 7.37-7.02 10.188-10.715 6.64-8.75 9.958-17.283 9.958-25.58 0-2.304-.356-4.557-1.065-6.76zm-44.807-26.806h21.22c2.908 0 4.364 1.02 4.364 3.053 0 1.08-.385 1.917-1.2 2.606-.788.633-1.843.99-3.165.99h-21.22v-6.65zm25.99 50.644c-3.098 4.516-7.287 8.656-12.584 12.465-4.776 3.346-9.248 5.523-13.407 6.49v-50.622h15.256c4.688 0 8.563 1.55 11.654 4.69 3.095 3.136 4.646 6.946 4.646 11.447 0 5.044-1.86 10.25-5.566 15.53zM259.48 335.9v-76.52c0-2.018.185-3.968.517-5.792.378-1.877 1.026-3.7 1.995-5.466-1.31-.268-2.685-.378-4.084-.378-8.288 0-16.83 3.807-25.652 11.38-4.226 3.636-7.993 7.84-11.3 12.67-3.318 4.83-6.13 9.914-8.412 15.386-2.278 5.417-4.028 11.05-5.232 16.84-1.173 5.793-1.773 11.394-1.773 16.862V335.9c0 3.97-1.246 7.828-3.72 11.636h18.555c-1.048-1.926-1.766-4.426-2.106-7.483-.354-3.062-.525-6.724-.525-11.072 0-1.343.035-3.302.12-5.87.104-2.63.19-4.523.26-5.768h28.635V335.9c0 2.468-.15 4.605-.452 6.492-.335 1.813-1.05 3.56-2.188 5.144h17.874c-1.134-1.926-1.83-3.755-2.09-5.417-.28-1.69-.424-3.752-.424-6.22zm-12.722-30.88h-26.91c.526-2.486 1.258-5.094 2.2-7.835.935-2.732 2.01-5.443 3.247-8.18 1.235-2.675 2.556-5.282 3.984-7.746 1.394-2.466 2.852-4.662 4.354-6.596 4.248-5.685 8.62-9.703 13.123-12.07v42.427zM411.637 335.9v-76.09c0-2.57.147-4.715.457-6.484.326-1.773 1.046-3.5 2.2-5.202h-43.198c-3.383 0-6.184.704-8.45 2.144-2.242 1.39-3.352 3.812-3.352 7.136 0 2.3.47 4.368 1.366 6.193.938 1.796 2.2 3.833 3.793 6.13 1.34 1.94 3.234 4.648 5.757 8.022 2.535 3.43 4.915 6.623 7.112 9.63-.535 1.766-1.288 4.044-2.246 6.83-.975 2.79-1.942 5.566-2.943 8.325-.98 2.768-1.838 5.318-2.637 7.627-.812 2.304-1.343 3.755-1.61 4.397-1.396 4.29-2.897 8.8-4.508 13.343-1.555 4.618-3.53 8.967-5.802 13.028-.362.71-.93 1.594-1.666 2.723-.766 1.07-1.597 2.383-2.6 3.885h21.495c-.434-.85-.73-1.835-.894-2.89-.096-1.08-.187-2.2-.187-3.33 0-2.896.648-6.225 1.89-9.924 1.23-3.756 2.353-7.24 3.42-10.51.166-.43.646-1.787 1.453-4.07.806-2.308 1.666-4.744 2.522-7.29.913-2.58 2.084-5.963 3.593-10.082l12.172 16.142V335.9c0 2.468-.16 4.536-.535 6.283-.322 1.735-1.01 3.518-1.98 5.353h18.037c-1.238-1.66-2.008-3.4-2.25-5.23-.26-1.82-.407-3.938-.407-6.406zM398.772 294l-13.097-16.976c-1.868-2.464-3.716-4.716-5.515-6.764-1.793-2.037-2.73-4.442-2.73-7.288 0-1.068.376-1.84 1.066-2.33.7-.48 2.047-.724 3.977-.724h16.298v34.08zM492.588 286.725c-.733-2.252-1.74-4.27-3.046-6.19-1.347-1.873-2.95-3.565-4.778-4.957-1.88-1.4-3.912-2.405-6.112-2.907 6.008-2.563 9.006-6.64 9.006-12.216 0-4.504-1.584-7.67-4.772-9.547-3.16-1.832-7.12-2.783-11.9-2.783h-38.73c1.124 1.7 1.874 3.43 2.174 5.202.316 1.77.45 3.914.45 6.484v76.09c0 2.468-.095 4.586-.372 6.407-.27 1.83-1.02 3.567-2.252 5.23 4.656 0 9.438-.81 14.328-2.356 4.854-1.613 9.573-3.736 14.137-6.304 4.524-2.628 8.792-5.665 12.79-9.095 3.97-3.427 7.344-7.02 10.19-10.715 6.636-8.75 9.91-17.283 9.91-25.58-.003-2.304-.32-4.557-1.022-6.76zm-44.826-26.806h21.236c2.896 0 4.337 1.02 4.337 3.053 0 1.08-.367 1.917-1.176 2.606-.807.633-1.886.99-3.162.99h-21.236v-6.65zm26.008 50.644c-3.113 4.516-7.285 8.656-12.595 12.465-4.778 3.346-9.243 5.523-13.413 6.49v-50.622h15.232c4.726 0 8.577 1.55 11.694 4.69 3.1 3.136 4.613 6.946 4.613 11.447.002 5.044-1.82 10.25-5.53 15.53z"/><path fill="#58595B" d="M563.15 348.34c-10.418-2.465-20.078-6.658-28.89-12.606-4.853-3.157-9.143-6.67-12.84-10.534-3.726-3.84-6.973-7.9-9.72-12.25-5.993-9.914-8.998-20.48-8.998-31.8 0-4.5.72-8.815 2.193-12.948 1.483-4.074 3.514-7.692 6.18-10.8 2.62-3.062 5.854-5.553 9.608-7.326 3.763-1.82 7.977-2.747 12.634-2.747 1.434 0 3.197.038 5.31.145 2.134.098 4.17.163 6.174.27 1.99.082 3.746.167 5.252.272 1.5.064 2.278.107 2.356.107v17.372c-3.088-2.04-5.87-3.43-8.393-4.236-2.513-.806-5.447-1.18-8.72-1.18-5.622 0-10.237 2.01-13.777 6.032-3.537 4.026-5.303 9.303-5.303 15.842 0 9.285 2.95 18.126 8.764 26.604 5.025 7.28 11.447 13.243 19.228 17.9 7.076 4.35 13.39 6.483 18.94 6.483v15.4zM782.682 335.9v-76.52c0-2.018.174-3.968.53-5.792.345-1.877 1.015-3.7 1.985-5.466-1.322-.268-2.697-.378-4.102-.378-8.296 0-16.846 3.807-25.66 11.38-4.227 3.636-8 7.84-11.303 12.67-3.313 4.83-6.104 9.914-8.393 15.386-2.286 5.417-4.032 11.05-5.224 16.84-1.193 5.793-1.78 11.394-1.78 16.862V335.9c0 3.97-1.243 7.828-3.722 11.636h18.56c-1.056-1.926-1.763-4.426-2.108-7.483-.367-3.062-.548-6.724-.548-11.072 0-1.343.065-3.302.135-5.87.084-2.63.188-4.523.27-5.768h28.627V335.9c0 2.468-.148 4.605-.458 6.492-.32 1.813-1.045 3.56-2.188 5.144h17.893c-1.154-1.926-1.855-3.755-2.12-5.417-.273-1.69-.395-3.752-.395-6.22zm-12.732-30.88h-26.9c.444-2.233 1.03-4.51 1.776-6.923.756-2.36 1.71-4.827 2.86-7.295 2.73-6.16 5.778-11.584 9.146-16.138 4.236-5.685 8.615-9.703 13.117-12.07v42.427z"/></svg>