<?xml version="1.0" encoding="utf-8"?>
<!-- Generator: Adobe Illustrator 16.0.0, SVG Export Plug-In . SVG Version: 6.00 Build 0)  -->
<!DOCTYPE svg PUBLIC "-//W3C//DTD SVG 1.1//EN" "http://www.w3.org/Graphics/SVG/1.1/DTD/svg11.dtd">
<svg version="1.1" id="Layer_1" xmlns="http://www.w3.org/2000/svg" xmlns:xlink="http://www.w3.org/1999/xlink" x="0px" y="0px"
	 width="841.89px" height="595.28px" viewBox="0 0 841.89 595.28" enable-background="new 0 0 841.89 595.28" xml:space="preserve">
<g>
	<g>
		<path fill="#58595B" d="M524.98,308.557c-5.813-8.478-8.764-17.318-8.764-26.604c0-6.539,1.766-11.815,5.303-15.842
			c3.54-4.022,8.155-6.033,13.777-6.033c3.272,0,6.207,0.375,8.72,1.181c2.522,0.807,5.305,2.197,8.393,4.236v-17.372
			c-0.078,0-0.856-0.043-2.356-0.107c-1.506-0.104-3.262-0.189-5.251-0.271c-2.004-0.107-4.04-0.173-6.174-0.271
			c-2.112-0.107-3.876-0.146-5.31-0.146c-4.657,0-8.871,0.928-12.634,2.747c-3.755,1.773-6.987,4.264-9.608,7.327
			c-2.666,3.106-4.696,6.725-6.18,10.799c-1.473,4.133-2.193,8.448-2.193,12.949c0,11.317,3.005,21.885,8.999,31.8
			c2.746,4.349,5.993,8.408,9.72,12.249c3.696,3.865,7.986,7.377,12.839,10.534c8.812,5.948,18.472,10.142,28.89,12.607v-15.4
			c-5.553,0-11.865-2.135-18.941-6.483C536.429,321.8,530.007,315.836,524.98,308.557z"/>
		<path fill="#58595B" d="M627.604,271.718c-3.574-1.933-8.301-3.224-14.188-3.82c-5.87-0.628-13.113-0.954-21.678-0.954v-7.024
			c0-2.04,0.212-4.104,0.596-6.308c0.408-2.138,0.994-3.988,1.807-5.488H576.22c1.174,1.701,1.917,3.429,2.213,5.202
			c0.284,1.77,0.467,3.914,0.467,6.484V335.9c0,2.468-0.151,4.586-0.422,6.407c-0.261,1.829-1.013,3.567-2.258,5.229
			c6.277,0,13.005-1.425,20.166-4.322c7.156-2.829,13.784-6.705,19.899-11.532c6.072-4.8,11.144-10.42,15.221-16.85
			c4.078-6.498,6.109-13.303,6.109-20.438c0-5.916-0.77-10.681-2.322-14.315C633.736,276.438,631.168,273.674,627.604,271.718z
			 M620.37,306.047c-1.947,3.742-4.438,7.147-7.502,10.291c-3.035,3.128-6.401,5.859-10.11,8.223
			c-3.729,2.321-7.385,3.993-11.02,4.96v-50.622h15.264c4.675,0,8.557,1.396,11.632,4.241c3.104,2.829,4.673,6.809,4.673,11.896
			C623.307,298.688,622.322,302.33,620.37,306.047z"/>
		<path fill="#58595B" d="M336.809,252.843c0.324-1.91,1.104-3.866,2.336-5.903c-10.509,2.309-20.793,7.888-30.884,16.695
			c-3.879,3.363-7.702,7.278-11.457,11.793c-3.745,4.517-7.175,9.289-10.225,14.309c-3.041,5.032-5.503,10.265-7.341,15.564
			c-1.867,5.365-2.784,10.535-2.784,15.479c0,3.086,0.193,5.763,0.588,8.016c0.418,2.248,0.87,4.207,1.406,5.867
			c0.53,1.724,0.986,3.194,1.366,4.481c0.428,1.284,0.607,2.546,0.607,3.885c0,1.617-0.21,3.116-0.652,4.508h21.076
			c-3.534-3.808-6.245-7.454-8.078-10.997c-1.881-3.537-2.792-7.451-2.792-11.796c0-7.614,1.814-15.392,5.416-23.322
			c1.611-3.539,3.473-6.919,5.663-10.156c2.141-3.224,4.56-6.304,7.206-9.312c5.134-5.516,10.17-9.534,15.122-12.061V335.9
			c0,2.524-0.171,4.716-0.465,6.492c-0.313,1.771-1.038,3.482-2.203,5.144h18.158c-0.961-1.835-1.63-3.755-1.975-5.688
			c-0.385-1.927-0.541-3.931-0.541-5.948v-76.894C336.357,256.809,336.508,254.749,336.809,252.843z"/>
		<path fill="#58595B" d="M78.96,308.557c-5.82-8.478-8.746-17.318-8.746-26.604c0-6.539,1.769-11.815,5.302-15.842
			c3.527-4.022,8.127-6.033,13.784-6.033c3.26,0,6.17,0.375,8.693,1.181c2.51,0.807,5.317,2.197,8.402,4.236v-17.372
			c-0.091,0-0.877-0.043-2.379-0.107c-1.503-0.104-3.25-0.189-5.244-0.271c-1.975-0.107-4.036-0.173-6.161-0.271
			c-2.115-0.107-3.889-0.146-5.3-0.146c-4.692,0-8.901,0.928-12.656,2.747c-3.761,1.773-6.951,4.264-9.613,7.327
			c-2.646,3.106-4.702,6.725-6.157,10.799c-1.459,4.133-2.192,8.448-2.192,12.949c0,11.317,3.005,21.885,9.016,31.8
			c2.742,4.349,5.965,8.408,9.681,12.249c3.698,3.865,7.983,7.377,12.852,10.534c8.837,5.948,18.46,10.142,28.906,12.607v-15.4
			c-5.575,0-11.898-2.135-18.976-6.483C90.4,321.8,84.002,315.836,78.96,308.557z"/>
		<path fill="#58595B" d="M704.465,254.045c2.889-2.252,5.548-4.221,8.029-5.922h-27.702c0,2.144-0.149,3.748-0.464,4.932
			c-0.299,1.127-0.813,2.171-1.523,3.084c-0.716,0.964-1.67,1.906-2.85,2.868c-1.192,0.967-2.666,2.306-4.439,3.966l-8.345,7.689
			V259.81c0-1.944,0.142-3.802,0.447-5.575c0.329-1.77,0.901-3.807,1.802-6.111h-17.5c0.988,2.21,1.602,4.101,1.92,5.654
			c0.316,1.559,0.46,3.569,0.46,6.032V335.9c0,2.193-0.144,4.208-0.46,6.029c-0.318,1.77-0.932,3.681-1.92,5.606h17.5
			c-0.9-2.305-1.473-4.341-1.802-6.1c-0.306-1.759-0.447-3.606-0.447-5.536v-46.008l20.538,42.684
			c0.691,1.502,1.277,3.271,1.711,5.31c0.443,2.036,0.676,4.292,0.676,6.76c0,0.697-0.356,1.658-1.047,2.891h23.177
			c-2.108-2.464-4.087-5.04-5.886-7.665c-1.832-2.693-3.36-5.254-4.586-7.834l-25.574-53.405l21.063-18.554
			C699.194,258.309,701.611,256.299,704.465,254.045z"/>
		<g>
			<path fill="#58595B" d="M191.881,286.725c-0.709-2.252-1.72-4.271-3.048-6.189c-1.336-1.874-2.916-3.566-4.762-4.958
				c-1.874-1.401-3.901-2.405-6.117-2.907c6.007-2.564,9.015-6.64,9.015-12.217c0-4.504-1.576-7.669-4.771-9.547
				c-3.173-1.832-7.139-2.783-11.91-2.783h-38.715c1.147,1.701,1.885,3.429,2.19,5.202c0.304,1.77,0.469,3.914,0.469,6.484V335.9
				c0,2.468-0.143,4.586-0.399,6.407c-0.277,1.829-1.033,3.567-2.26,5.229c4.684,0,9.455-0.81,14.316-2.355
				c4.869-1.614,9.568-3.737,14.122-6.305c4.548-2.628,8.808-5.665,12.79-9.095c3.971-3.428,7.369-7.02,10.187-10.716
				c6.641-8.75,9.958-17.283,9.958-25.581C192.945,291.181,192.59,288.928,191.881,286.725z M147.073,259.919h21.219
				c2.909,0,4.365,1.021,4.365,3.054c0,1.079-0.385,1.917-1.199,2.606c-0.789,0.634-1.844,0.992-3.166,0.992h-21.219V259.919z
				 M173.064,310.564c-3.099,4.516-7.288,8.656-12.585,12.465c-4.775,3.347-9.247,5.524-13.406,6.491v-50.622h15.256
				c4.689,0,8.564,1.549,11.655,4.69c3.095,3.136,4.646,6.946,4.646,11.447C178.63,300.079,176.771,305.285,173.064,310.564z"/>
		</g>
		<path fill="#58595B" d="M259.48,335.9v-76.52c0-2.018,0.185-3.968,0.517-5.792c0.378-1.877,1.026-3.7,1.995-5.466
			c-1.31-0.268-2.685-0.378-4.084-0.378c-8.288,0-16.83,3.807-25.652,11.379c-4.226,3.637-7.993,7.842-11.3,12.672
			c-3.318,4.828-6.129,9.913-8.412,15.385c-2.278,5.417-4.028,11.05-5.232,16.84c-1.173,5.793-1.773,11.394-1.773,16.862V335.9
			c0,3.971-1.245,7.828-3.718,11.636h18.554c-1.048-1.926-1.766-4.426-2.106-7.483c-0.353-3.062-0.524-6.724-0.524-11.072
			c0-1.344,0.035-3.303,0.121-5.871c0.103-2.63,0.188-4.523,0.26-5.768h28.634V335.9c0,2.468-0.149,4.605-0.452,6.492
			c-0.335,1.813-1.05,3.56-2.188,5.144h17.874c-1.134-1.926-1.831-3.755-2.091-5.417C259.625,340.431,259.48,338.368,259.48,335.9z
			 M246.758,305.021h-26.911c0.527-2.487,1.259-5.095,2.202-7.836c0.934-2.732,2.008-5.443,3.246-8.179
			c1.235-2.676,2.556-5.283,3.984-7.747c1.395-2.465,2.853-4.661,4.355-6.595c4.248-5.685,8.619-9.703,13.123-12.069V305.021z"/>
		<g>
			<path fill="#58595B" d="M411.637,335.9V259.81c0-2.57,0.147-4.715,0.457-6.484c0.326-1.773,1.046-3.501,2.2-5.202h-43.198
				c-3.383,0-6.184,0.704-8.449,2.144c-2.243,1.39-3.353,3.812-3.353,7.136c0,2.301,0.469,4.368,1.366,6.193
				c0.938,1.796,2.199,3.833,3.793,6.131c1.339,1.939,3.234,4.647,5.757,8.021c2.535,3.43,4.915,6.624,7.112,9.63
				c-0.535,1.767-1.288,4.045-2.246,6.831c-0.975,2.79-1.942,5.566-2.943,8.325c-0.981,2.768-1.838,5.318-2.637,7.627
				c-0.812,2.304-1.343,3.755-1.61,4.397c-1.396,4.291-2.897,8.8-4.508,13.344c-1.555,4.618-3.53,8.967-5.802,13.028
				c-0.362,0.71-0.929,1.593-1.666,2.722c-0.766,1.071-1.597,2.383-2.601,3.885h21.496c-0.434-0.851-0.729-1.835-0.894-2.891
				c-0.097-1.079-0.188-2.2-0.188-3.329c0-2.896,0.648-6.225,1.891-9.924c1.229-3.756,2.352-7.24,3.419-10.51
				c0.166-0.43,0.646-1.787,1.453-4.069c0.806-2.309,1.666-4.745,2.522-7.292c0.913-2.579,2.084-5.962,3.593-10.081l12.171,16.142
				V335.9c0,2.468-0.16,4.536-0.535,6.283c-0.322,1.735-1.01,3.518-1.981,5.353h18.038c-1.238-1.661-2.008-3.399-2.249-5.229
				C411.784,340.486,411.637,338.368,411.637,335.9z M398.772,293.999l-13.097-16.975c-1.868-2.464-3.716-4.716-5.515-6.764
				c-1.793-2.037-2.729-4.442-2.729-7.288c0-1.068,0.375-1.841,1.065-2.33c0.701-0.479,2.047-0.724,3.977-0.724h16.298V293.999z"/>
		</g>
		<g>
			<path fill="#58595B" d="M492.588,286.725c-0.733-2.252-1.74-4.271-3.046-6.189c-1.347-1.874-2.95-3.566-4.778-4.958
				c-1.879-1.401-3.912-2.405-6.112-2.907c6.008-2.564,9.006-6.64,9.006-12.217c0-4.504-1.584-7.669-4.772-9.547
				c-3.16-1.832-7.121-2.783-11.899-2.783h-38.731c1.124,1.701,1.874,3.429,2.174,5.202c0.316,1.77,0.449,3.914,0.449,6.484V335.9
				c0,2.468-0.094,4.586-0.371,6.407c-0.271,1.829-1.021,3.567-2.252,5.229c4.656,0,9.438-0.81,14.328-2.355
				c4.854-1.614,9.573-3.737,14.137-6.305c4.523-2.628,8.791-5.665,12.79-9.095c3.97-3.428,7.343-7.02,10.188-10.716
				c6.637-8.75,9.91-17.283,9.91-25.581C493.607,291.181,493.29,288.928,492.588,286.725z M447.762,259.919h21.236
				c2.896,0,4.337,1.021,4.337,3.054c0,1.079-0.367,1.917-1.176,2.606c-0.806,0.634-1.885,0.992-3.161,0.992h-21.236V259.919z
				 M473.77,310.564c-3.113,4.516-7.285,8.656-12.595,12.465c-4.778,3.347-9.243,5.524-13.413,6.491v-50.622h15.232
				c4.726,0,8.577,1.549,11.694,4.69c3.099,3.136,4.613,6.946,4.613,11.447C479.302,300.079,477.479,305.285,473.77,310.564z"/>
		</g>
		<path fill="#58595B" d="M563.15,348.341c-10.418-2.466-20.078-6.659-28.89-12.607c-4.853-3.157-9.143-6.669-12.839-10.534
			c-3.727-3.841-6.974-7.9-9.72-12.249c-5.994-9.915-8.999-20.482-8.999-31.8c0-4.501,0.721-8.816,2.193-12.949
			c1.483-4.074,3.514-7.692,6.18-10.799c2.621-3.063,5.854-5.554,9.608-7.327c3.763-1.819,7.977-2.747,12.634-2.747
			c1.434,0,3.197,0.039,5.31,0.146c2.134,0.098,4.17,0.163,6.174,0.271c1.989,0.081,3.745,0.166,5.251,0.271
			c1.5,0.064,2.278,0.107,2.356,0.107v17.372c-3.088-2.039-5.87-3.43-8.393-4.236c-2.513-0.806-5.447-1.181-8.72-1.181
			c-5.622,0-10.237,2.011-13.777,6.033c-3.537,4.026-5.303,9.303-5.303,15.842c0,9.285,2.95,18.126,8.764,26.604
			c5.026,7.279,11.448,13.243,19.229,17.9c7.076,4.349,13.389,6.483,18.941,6.483V348.341z"/>
		<path fill="#58595B" d="M782.682,335.9v-76.52c0-2.018,0.174-3.968,0.53-5.792c0.345-1.877,1.015-3.7,1.985-5.466
			c-1.322-0.268-2.697-0.378-4.102-0.378c-8.296,0-16.846,3.807-25.659,11.379c-4.228,3.637-8.002,7.842-11.304,12.672
			c-3.313,4.828-6.104,9.913-8.393,15.385c-2.285,5.417-4.031,11.05-5.223,16.84c-1.193,5.793-1.781,11.394-1.781,16.862V335.9
			c0,3.971-1.242,7.828-3.721,11.636h18.56c-1.056-1.926-1.763-4.426-2.108-7.483c-0.367-3.062-0.548-6.724-0.548-11.072
			c0-1.344,0.065-3.303,0.135-5.871c0.084-2.63,0.188-4.523,0.27-5.768h28.627V335.9c0,2.468-0.148,4.605-0.458,6.492
			c-0.321,1.813-1.045,3.56-2.188,5.144h17.893c-1.154-1.926-1.855-3.755-2.12-5.417C782.804,340.431,782.682,338.368,782.682,335.9
			z M769.95,305.021h-26.901c0.445-2.234,1.031-4.511,1.777-6.924c0.756-2.359,1.711-4.827,2.86-7.295
			c2.73-6.159,5.778-11.584,9.146-16.138c4.236-5.685,8.615-9.703,13.117-12.069V305.021z"/>
	</g>
</g>
</svg>
