<?xml version="1.0" encoding="utf-8"?>
<!-- Generator: Adobe Illustrator 16.0.0, SVG Export Plug-In . SVG Version: 6.00 Build 0)  -->
<!DOCTYPE svg PUBLIC "-//W3C//DTD SVG 1.1//EN" "http://www.w3.org/Graphics/SVG/1.1/DTD/svg11.dtd">
<svg version="1.1" id="Layer_1" xmlns="http://www.w3.org/2000/svg" xmlns:xlink="http://www.w3.org/1999/xlink" x="0px" y="0px"
	 width="841.89px" height="595.28px" viewBox="0 0 841.89 595.28" enable-background="new 0 0 841.89 595.28" xml:space="preserve">
<g>
	<rect x="305.933" y="179.561" fill="#58595B" width="230.044" height="57.512"/>
	<rect x="727.664" y="179.561" fill="#58595B" width="57.533" height="191.704"/>
	<polygon fill="#9FA1A4" points="420.965,294.587 420.956,256.223 555.152,256.223 574.318,275.416 555.152,294.587 	"/>
	<rect x="305.933" y="313.754" fill="#58595B" width="230.044" height="57.51"/>
	<polygon fill="#58595B" points="286.761,237.072 286.761,179.561 56.692,179.561 56.692,371.265 286.761,371.265 286.761,313.733 
		114.226,313.733 114.226,237.072 	"/>
	<polygon fill="#9FA1A4" points="238.954,352.337 238.954,352.337 190.908,256.242 287,256.242 	"/>
	<polygon fill="#9FA1A4" points="628.904,179.561 547.533,179.561 643.387,275.416 547.449,371.265 628.906,371.265 
		724.811,275.357 	"/>
	<g>
		<path fill="#58595B" d="M57.03,394.156h2.056v21.204H57.03V394.156z"/>
		<path fill="#58595B" d="M83.235,415.36h-2.055v-21.204h12.271v1.759H83.235V415.36z"/>
		<path fill="#58595B" d="M115.515,406.425v8.936h-2.056v-21.204h5.897c4.468,0,7.447,1.579,7.447,6.104
			c0,4.374-3.128,6.164-7.06,6.164H115.515z M115.515,395.915v8.72h4.021c2.412,0,5.152-0.858,5.152-4.402
			c0-3.219-2.77-4.317-5.064-4.317H115.515z"/>
		<path fill="#58595B" d="M162.864,396.985h-0.089l-12.986,18.375h-2.412v-21.204h2.055v18.463h0.09l13.016-18.463h2.382v21.204
			h-2.055V396.985z"/>
		<path fill="#58595B" d="M228.287,405.209h-13.463v10.151h-2.055v-21.204h2.055v9.295h13.463v-9.295h2.026v21.204h-2.026V405.209z"
			/>
		<path fill="#58595B" d="M251.272,404.759c0-6.073,4.437-10.964,10.931-10.964c6.762,0,10.96,4.855,10.96,10.964
			c0,6.313-4.347,10.961-10.96,10.961C255.8,415.72,251.272,411.101,251.272,404.759z M253.388,404.759
			c0,4.528,3.334,9.168,8.815,9.168c5.6,0,8.847-4.495,8.847-9.168c0-4.736-3.336-9.178-8.847-9.178
			C256.603,395.581,253.388,400.022,253.388,404.759z"/>
		<path fill="#58595B" d="M294.303,415.36v-21.204h6.104c4.497,0,6.732,1.902,6.732,5.064c0,2.741-1.132,4.498-3.992,5.146v0.096
			c3.039,0.296,4.617,2.616,4.617,5.388c0,3.935-3.247,5.51-7.595,5.51H294.303z M296.356,395.915v7.622h2.442
			c2.92,0,6.287-0.182,6.287-4.021c0-2.894-2.326-3.602-4.231-3.602H296.356z M296.356,405.295v8.308h3.663
			c2.889,0,5.629-0.773,5.629-3.963c0-4.05-3.723-4.345-6.58-4.345H296.356z"/>
		<path fill="#58595B" d="M327.951,404.759c0-6.073,4.437-10.964,10.931-10.964c6.762,0,10.959,4.855,10.959,10.964
			c0,6.313-4.346,10.961-10.959,10.961C332.479,415.72,327.951,411.101,327.951,404.759z M330.067,404.759
			c0,4.528,3.332,9.168,8.814,9.168c5.602,0,8.846-4.495,8.846-9.168c0-4.736-3.335-9.178-8.846-9.178
			C333.281,395.581,330.067,400.022,330.067,404.759z"/>
		<path fill="#58595B" d="M372.946,415.36h-2.056v-21.204h12.272v1.759h-10.217V415.36z"/>
		<path fill="#58595B" d="M402.156,404.759c0-6.073,4.441-10.964,10.931-10.964c6.762,0,10.96,4.855,10.96,10.964
			c0,6.313-4.346,10.961-10.96,10.961C406.684,415.72,402.156,411.101,402.156,404.759z M404.271,404.759
			c0,4.528,3.339,9.168,8.815,9.168c5.602,0,8.849-4.495,8.849-9.168c0-4.736-3.339-9.178-8.849-9.178
			C407.49,395.581,404.271,400.022,404.271,404.759z"/>
		<path fill="#58595B" d="M486.617,395.915h-13.439v19.445h-2.053v-21.204h17.545v21.204h-2.053V395.915z"/>
		<path fill="#58595B" d="M509.623,404.759c0-6.073,4.441-10.964,10.938-10.964c6.762,0,10.961,4.855,10.961,10.964
			c0,6.313-4.354,10.961-10.961,10.961C514.15,415.72,509.623,411.101,509.623,404.759z M511.746,404.759
			c0,4.528,3.332,9.168,8.814,9.168c5.594,0,8.842-4.495,8.842-9.168c0-4.736-3.334-9.178-8.842-9.178
			C514.961,395.581,511.746,400.022,511.746,404.759z"/>
		<path fill="#58595B" d="M554.654,404.311v11.05H552.6v-21.204h2.055v9.887l10.393-9.887h2.768l-10.627,10.003l11.793,11.201
			h-2.924L554.654,404.311z"/>
		<path fill="#58595B" d="M587.705,404.759c0-6.073,4.438-10.964,10.93-10.964c6.764,0,10.965,4.855,10.965,10.964
			c0,6.313-4.354,10.961-10.965,10.961C592.232,415.72,587.705,411.101,587.705,404.759z M589.822,404.759
			c0,4.528,3.332,9.168,8.813,9.168c5.598,0,8.846-4.495,8.846-9.168c0-4.736-3.334-9.178-8.846-9.178
			C593.041,395.581,589.822,400.022,589.822,404.759z"/>
		<path fill="#58595B" d="M645.117,395.915h-8.898v6.877c0,6.073-0.537,12.893-5.57,12.893c-0.746,0-1.459-0.085-2.061-0.237v-1.722
			c0.539,0.116,1.107,0.173,1.553,0.173c3.449,0,3.99-4.939,3.99-12.24v-7.502h13.047v21.204h-2.061V395.915z"/>
		<path fill="#58595B" d="M669.359,394.156h2.053v21.204h-2.053V394.156z"/>
		<path fill="#58595B" d="M708.969,405.209h-13.465v10.151h-2.053v-21.204h2.053v9.295h13.465v-9.295h2.025v21.204h-2.025V405.209z"
			/>
		<path fill="#58595B" d="M748.27,405.209h-13.459v10.151h-2.057v-21.204h2.057v9.295h13.459v-9.295h2.025v21.204h-2.025V405.209z"
			/>
		<path fill="#58595B" d="M782.994,406.545h-2.979l-7.059,8.815h-2.77l7.566-9.111c-3.877-0.477-5.842-3.515-5.842-5.84
			c0-4.766,3.396-6.253,7.625-6.253h5.512v21.204h-2.055V406.545z M779.182,395.915c-3.219,0-5.066,1.662-5.066,4.557
			c0,2.646,1.996,4.315,5.662,4.315h3.217v-8.872H779.182z"/>
	</g>
</g>
</svg>
