<svg xmlns="http://www.w3.org/2000/svg" width="841.89" height="595.28" viewBox="0 0 841.89 595.28"><g fill="#58595B"><path d="M255.348 317.335c-2.176-4.693-6.914-7.812-12.175-7.812-5.262 0-9.998 3.127-12.17 7.812-33.63 5.273-55.242 31.496-55.242 67.333 0 36.1 21.874 62.383 55.888 67.414 2.41 4.006 6.752 6.504 11.526 6.504s9.115-2.498 11.53-6.504c34.01-5.03 55.883-31.316 55.883-67.414 0-35.832-21.614-62.06-55.24-67.333zm-4.492 116.778c-2.254-1.588-4.924-2.442-7.684-2.442-2.755 0-5.423.855-7.678 2.443-13.548-4.21-20.184-28.876-19.737-51.85.42-21.452 7.11-44.087 21.107-47.393 1.933 1.03 4.086 1.567 6.307 1.567 2.22 0 4.374-.536 6.315-1.567 14.63 3.403 21.732 26.932 22.14 47.837.45 22.694-6.547 47.145-20.77 51.406zM115.595 330.982l.455.025.22-.025c.994.017 4.3 1.952 7.68 10.494 2.1 5.322 3.67 16.91 3.688 17.027l.377 2.804h40.917l-1.106-4.082c-.122-.436-12.358-43.988-49.014-43.988-26.226 0-61.365 31.815-61.365 64.356 0 23.587 13.282 34.366 23.95 43.025 2.822 2.288 5.55 4.51 7.92 6.835-6.385 1.216-11.232 6.844-11.232 13.58 0 7.627 6.203 13.83 13.824 13.83l8.096.005c1.715 0 3.158 0 3.648-.005 54.735-.642 63.276-50.97 63.354-51.482l.585-3.732-40.376-.02.362 3.564c.022.26 2.196 23.443-11.52 32.957.75-5.633.392-14.35-4.464-25.977-2.57-6.16-4.934-10.904-6.83-14.723-4.1-8.256-6.363-12.8-6.363-21.656 0-28.916 14.492-42.295 17.192-42.812zM497.686 410.297c-6.76-29.857-21.78-77.613-29.4-91.774l-.917-1.698H421.89l3.315 5.013c6.895 10.418 37.215 92.864 38.104 110.132l.16 3.06h27.716c-1.254 5.028-3.56 14.01-6.014 22.29-2.13 7.19-6.396 20.32-11.062 27.425-3.792 5.79-11.336 10.5-16.804 10.5-2.252 0-5.295-.658-5.802-6.357-.39-4.416 1.66-11.157 2.48-13.382l2.67-7.204-38.515 17.166v2.1c0 15.093 8.888 26.353 23.787 30.122 3.01.767 6.082 1.152 9.128 1.152 10.914 0 21.898-5 30.95-14.087 8.105-8.145 12.607-19.476 15.948-29.485 6.41-19.247 39.738-148.87 41.152-154.38l1.04-4.04H522.53l-24.844 93.447zM376.922 334.577c-1.6-.637-3.325-.98-5.094-.98-7.645 0-13.855 6.215-13.855 13.855 0 4.4 2.09 8.42 5.444 10.977-21.27 18.893-49.762 53.103-49.762 79.07 0 6.702 1.642 11.216 5.012 13.794l.87.665h47.316l-2.34-4.685c-6.056-12.093-7.835-20.285-7.322-33.68.892-19.334 10.917-37.05 19.732-47.41v85.773h40.328V316.824h-40.328v17.753zM622.59 390.637c-9.312-6.735-18.2-13.16-23.98-19.625 5.206-1.988 8.915-7.04 8.915-12.938 0-6.438-4.42-11.87-10.383-13.412 5.964-6.878 15.86-10.494 21.987-10.494 1.663 0 2.11 0 2.11 5.67 0 3.367-.766 8.906-2.484 13.7l-2.548 7.126 38.41-17.117v-2.104c0-17.233-7.742-27.116-21.23-27.116-19.138 0-33.056 7.51-41.324 15.97v-13.472H551.74V451.96h40.324v-65.757c1.946 2.87 4.208 5.987 6.578 9.27 7.448 10.303 16.714 23.118 16.714 29.375 0 8.592-1.64 18.01-3.918 22.393L609 451.96h48.41l.918-1.697c1.39-2.577 2.883-7.67 2.883-12.76 0-18.912-19.63-33.124-38.62-46.866zM730.625 316.824l-.46 2.683c-2.04 11.83-9.128 25.414-18.354 35.69v-38.373h-40.323V451.96h40.324v-74.894c5.442-4.378 12.616-12.02 18.31-19.854v94.746h40.324V316.824h-39.82z"/></g><g fill="#FFF"><path d="M243.173 312.756c4.697 0 8.62 3.188 9.816 7.506 31.105 4.08 54.365 27.518 54.365 64.406 0 37.036-23.476 60.506-54.76 64.44-1.55 3.673-5.186 6.25-9.422 6.25-4.237 0-7.87-2.577-9.418-6.25-31.283-3.93-54.76-27.4-54.76-64.44 0-36.893 23.258-60.33 54.368-64.406 1.195-4.318 5.112-7.506 9.81-7.506m0 20.45c-2.117 0-4.082-.64-5.713-1.746-33.43 5.327-32.722 99.882-1.2 106.18 1.825-1.69 4.236-2.737 6.913-2.737 2.675 0 5.087 1.05 6.91 2.736 33.296-6.65 33.23-100.694-1.194-106.18-1.637 1.105-3.6 1.747-5.717 1.747m0-21.524c-4.795 0-9.067 3.096-10.633 7.607-33.205 4.66-54.62 30.25-54.62 65.378 0 35.33 21.608 60.954 55.104 65.43 1.89 3.863 5.807 6.334 10.15 6.334 4.342 0 8.26-2.47 10.15-6.333 33.5-4.486 55.106-30.1 55.106-65.432 0-35.128-21.416-60.714-54.62-65.374-1.564-4.516-5.84-7.61-10.637-7.61zm0 22.598c2.113 0 4.16-.583 5.95-1.693 16.415 2.986 24.22 27.22 24.667 50.074.456 23.34-6.68 49.97-23.403 53.817-2.044-1.71-4.583-2.648-7.214-2.648-2.63 0-5.172.938-7.216 2.647-15.31-3.596-22.836-29.874-22.358-54.256.444-22.714 7.924-46.746 23.628-49.634 1.783 1.11 3.828 1.695 5.945 1.695zM118.81 316.473c34.607 0 45.893 41.6 45.893 41.6h-33.86s-1.61-12.028-3.89-17.786c-4.63-11.706-9.384-12.54-10.68-12.54-.212 0-.333.025-.34.025-.06-.01-.127-.013-.19-.013-4.515.003-20.57 14.957-20.57 46.036 0 14.09 5.47 18.542 13.44 37.628 8.478 20.29 2.45 30.678 2.45 30.678 23.08-7.077 19.734-39.24 19.734-39.24l33.017.02s-7.558 48.133-60.195 48.752c-.49.008-1.916.008-3.614.008-3.4 0-7.883-.008-8.097-.008-5.847 0-10.59-4.74-10.59-10.6 0-5.846 4.743-10.59 10.59-10.59 1.85 0 3.573.515 5.086 1.353-9.556-15.85-36.315-21.228-36.315-54.203 0-29.735 32.762-61.12 58.13-61.12m0-1.075c-25.3 0-59.203 30.744-59.203 62.193 0 22.56 12.3 32.543 23.152 41.35 4.283 3.478 8.377 6.8 11.41 10.657-.745-.156-1.497-.23-2.262-.23-6.43 0-11.66 5.23-11.66 11.664 0 6.432 5.23 11.672 11.66 11.672h.597l7.5.01c1.704 0 3.137 0 3.625-.01 52.933-.624 61.164-49.17 61.242-49.66l.194-1.24h-1.254l-33.017-.017h-1.19l.122 1.186c.032.3 2.774 29.224-16.754 37.304 1.367-4.213 3.004-14.012-3.373-29.27-2.542-6.09-4.787-10.607-6.768-14.594-4.11-8.27-6.59-13.256-6.59-22.62 0-30.5 15.64-44.96 19.498-44.965l.133.015.22-.018h.028c1.06 0 5.41.658 9.833 11.853 2.202 5.574 3.808 17.418 3.826 17.532l.12.93h36.202l-.367-1.347c-.113-.426-11.904-42.396-46.924-42.396zM465.438 320.052c8.942 16.617 27.924 79.42 31.774 104.606l27.804-104.573h10.964s-34.64 134.8-41.098 154.163c-3.248 9.742-7.582 20.603-15.173 28.227-7.69 7.72-17.68 13.134-28.648 13.134-2.726 0-5.517-.337-8.34-1.054-13.308-3.368-21.35-13.097-21.35-26.99l29.584-13.19s-3.22 8.664-2.674 14.797c.59 6.65 4.32 9.302 9.024 9.302 6.59 0 15.087-5.217 19.508-11.955 5.2-7.93 9.777-22.61 11.46-28.28 3.706-12.52 7.04-26.438 7.04-26.438h-28.778c-.886-17.284-31.32-100.693-38.63-111.75h37.532m.643-1.073H425.91l1.1 1.667c6.958 10.52 37.562 93.77 38.457 111.208l.056 1.02h28.427c-.92 3.768-3.703 14.936-6.7 25.062-2.167 7.308-6.52 20.66-11.328 27.997-4.222 6.428-12.398 11.47-18.612 11.47-4.72 0-7.474-2.88-7.956-8.327-.516-5.816 2.583-14.24 2.612-14.325l.89-2.39-2.332 1.036-29.584 13.188-.638.287v.694c0 14.248 8.076 24.467 22.158 28.03 2.837.72 5.734 1.085 8.604 1.085 10.326 0 20.77-4.777 29.406-13.448 7.79-7.83 12.177-18.875 15.434-28.647 6.395-19.174 40.768-152.882 41.117-154.232l.343-1.34H524.19l-.21.794-26.545 99.834c-5.276-27.966-22.678-84.532-31.052-100.097l-.302-.568zM414.015 320.052V448.73h-33.86v-90.532c-11.23 9.98-25.126 32.078-26.198 55.247-.534 14.077 1.423 22.812 7.664 35.284h-40.99c-3.026-2.318-3.742-6.95-3.742-11.23 0-24.982 29.41-60.61 52.314-79.792-4.59-1.18-7.996-5.303-7.996-10.256 0-5.867 4.756-10.62 10.622-10.62 3.397 0 6.38 1.618 8.328 4.1v-20.88h33.86m1.072-1.073h-36.005V338.323c-2.05-1.65-4.587-2.565-7.254-2.565-6.448 0-11.697 5.247-11.697 11.692 0 4.656 2.777 8.798 6.947 10.65-20.42 17.546-51.265 53.43-51.265 79.398 0 5.984 1.363 9.932 4.165 12.078l.29.222H363.358l-.78-1.554c-6.24-12.477-8.075-20.922-7.55-34.762.948-20.522 12.528-41.57 24.053-52.822V449.8h36.005V318.978zM633.387 317.562c13.716 0 17.994 11.23 17.994 23.88l-29.577 13.186c1.78-4.986 2.668-10.866 2.668-14.79 0-4.63 0-8.906-5.34-8.906-8.067 0-22.365 5.63-27.947 16.845.8-.197 1.626-.323 2.483-.323 5.87 0 10.623 4.752 10.623 10.62 0 5.86-4.755 10.624-10.624 10.624-.357 0-.702-.072-1.058-.104 14.4 21.65 65.37 40.745 65.37 68.91 0 4.278-1.247 8.91-2.496 11.227h-41.168c2.672-5.174 4.274-15.32 4.274-23.88 0-12.654-27.443-41.345-29.758-51.327v75.208h-33.857V320.053h33.857v19.785c4.987-8.906 19.428-22.275 44.557-22.275m0-1.072c-21.778 0-36.482 9.998-43.482 19.688V318.98H553.9V449.8h36.005V378.718c2.335 4.215 6.212 9.572 10.49 15.487 8.025 11.107 17.12 23.685 17.12 30.642 0 9.04-1.71 18.654-4.153 23.388l-.816 1.565h43.578l.303-.565c1.308-2.423 2.628-7.23 2.628-11.734 0-17.812-19.184-31.687-37.734-45.11-10.684-7.738-20.824-15.074-26.59-22.668 5.954-.54 10.632-5.556 10.632-11.648 0-6.446-5.247-11.693-11.693-11.693-.157 0-.316 0-.48.01 5.876-9.397 18.5-14.385 25.942-14.385 4.082 0 4.27 2.688 4.27 7.833 0 3.55-.804 9.385-2.605 14.43l-.844 2.363 2.288-1.022 29.582-13.184.637-.285v-.696c-.005-16.095-6.776-24.954-19.073-24.954zM767.215 320.052V448.73h-33.86V346.076c-5.886 11.224-17.826 24.24-24.772 29.404v73.248h-33.86V320.052h33.86v42.953c11.757-10.515 22.095-27.443 24.77-42.953h33.862m1.07-1.073H732.45l-.152.892c-2.38 13.776-11.364 29.82-22.643 40.674V318.98H673.648v130.822h36.007v-73.784c6.7-5.128 16.59-16.012 22.626-25.89v99.674h36.004V318.98z"/></g><g fill="#58595B"><path d="M87.195 554.087c-.14-2.144-.264-5.06-.24-7.473h-.058c-.407 2.413-1.01 5.192-1.445 6.94l-1.977 8.08h-3.088l-1.878-7.946c-.44-1.807-1.04-4.632-1.406-7.074h-.074c-.063 2.442-.233 5.3-.336 7.55l-.393 7.84H72.54L74.15 539.4h4.66l1.814 8.182c.602 2.852 1.173 5.364 1.574 7.915h.1c.34-2.513.84-5.063 1.406-7.915l1.815-8.18h4.625l1.373 22.6h-3.925l-.398-7.915zM133.35 539.4v22.603h-4.392V539.4h4.39zM175.875 539.4v9.048h4.594V539.4h4.39v22.603h-4.39v-9.45h-4.595v9.45h-4.396V539.4h4.395zM232.49 552.07h-5.125v6.114h5.798v3.818h-10.2V539.4h9.827v3.82h-5.425v5.2h5.126v3.65zM270.39 539.735c1.24-.267 2.918-.44 4.59-.44 2.616 0 4.696.372 6.144 1.75 1.34 1.172 1.938 3.05 1.938 4.956 0 2.448-.735 4.196-1.91 5.438-1.405 1.51-3.65 2.178-5.494 2.178-.304 0-.58 0-.876-.035v8.424h-4.392v-22.27zm4.393 10.293c.23.03.467.03.742.03 2.213 0 3.18-1.575 3.18-3.685 0-1.978-.796-3.52-2.844-3.52-.405 0-.81.067-1.077.167v7.008zM322.047 556.835l-1.008 5.168h-4.262l4.898-22.602h5.266l4.39 22.603h-4.256l-.978-5.168h-4.05zm3.655-3.42l-.744-4.728c-.23-1.374-.536-3.656-.735-5.13h-.103c-.23 1.514-.562 3.827-.797 5.13l-.846 4.727h3.225zM381.238 539.4v22.603h-4.394v-18.78h-3.32v5.972c0 5.193-.336 9.858-3.184 12.066-.843.673-1.904 1.112-3.047 1.112l-.94-3.725c.536-.136 1.102-.4 1.506-.773 1.342-1.374 1.61-3.885 1.61-8.276v-10.196h11.768zM423.702 539.4v8.457c.37-.07.866-.142 1.785-.142 4.283 0 7.032 2.62 7.032 6.91 0 2.25-.705 3.886-1.875 5.102-1.54 1.6-3.985 2.445-7.212 2.445-1.673 0-3.088-.103-4.088-.275V539.4h4.357zm.03 19.177c.31.07.58.07.836.07 2.256 0 3.393-1.71 3.393-3.76 0-2.035-1.102-3.614-3.22-3.614-.367 0-.736.034-1.01.09v7.214zM473.876 539.4v9.048h4.6V539.4h4.384v22.603h-4.385v-9.45h-4.6v9.45h-4.395V539.4h4.396zM525.36 539.4v22.603h-4.39V539.4h4.39zM603.035 539.735c1.344-.297 3.127-.44 4.996-.44 2.115 0 4.16.273 5.742 1.618 1.2 1 1.702 2.513 1.702 4.087 0 2.02-1.032 3.955-3.25 4.927v.133c2.626.742 3.992 2.887 3.992 5.408 0 1.836-.6 3.316-1.673 4.42-1.345 1.478-3.626 2.285-7.41 2.285-1.68 0-3.093-.103-4.1-.275v-22.163zm4.402 8.953h.938c1.572 0 2.778-1.34 2.778-3.185 0-1.64-.77-2.913-2.544-2.913-.507 0-.91.028-1.174.13v5.968zm0 10.03c.263.066.595.066.972.066 1.81 0 3.245-1.104 3.245-3.387 0-2.28-1.54-3.454-3.28-3.454h-.937v6.774zM666.6 550.3c0 8.52-3.02 11.97-7.313 11.97-5.136 0-7.145-5.435-7.145-11.638 0-6.17 2.45-11.506 7.48-11.506 5.44 0 6.978 6.008 6.978 11.174zm-9.903.4c0 5.133.972 7.748 2.754 7.748 1.88 0 2.586-3.353 2.586-7.945 0-3.957-.604-7.544-2.61-7.544-1.757 0-2.73 2.88-2.73 7.74zM716.6 539.4v18.847l1.78.068-.206 8.616h-3.313l-.208-4.928h-9.784l-.172 4.93h-3.31l-.178-8.617 1.574-.068c.71-1.712 1.176-3.423 1.545-5.263.438-2.587.642-5.235.642-7.88V539.4h11.63zm-7.607 6.44c0 2.583-.21 5.198-.57 7.612-.24 1.644-.642 3.354-1.103 4.732h4.89v-14.962h-3.217v2.62zM758.93 539.4v4.996c0 4.155-.266 8.048-.433 10.406h.064c.64-1.95 1.78-4.94 2.45-6.65l3.317-8.75h3.997V562h-3.856V556.9c0-4.52.168-7.873.294-10.153h-.06c-.54 2.007-1.542 4.724-2.284 6.637l-3.32 8.62h-4.058V539.4h3.89z"/></g><g fill="#58595B"><path d="M72.538 492.38H394.59v5.15H72.54zM507.274 492.38h259.94v5.15h-259.94z"/></g><g fill="#58595B"><path d="M398.81 256.44c-4.204 0-7.607 3.396-7.607 7.596v6.807h15.212v-6.807c0-4.2-3.417-7.596-7.606-7.596zM356.608 256.44c-4.197 0-7.61 3.4-7.61 7.596v6.807h15.208v-6.807c0-4.195-3.403-7.596-7.598-7.596zM314.405 256.44c-4.21 0-7.607 3.396-7.607 7.596v6.807h15.2v-6.807c0-4.2-3.394-7.596-7.593-7.596zM272.2 256.44c-4.204 0-7.602 3.396-7.602 7.596v6.807h15.192v-6.807c0-4.2-3.393-7.596-7.59-7.596zM229.998 256.44c-4.204 0-7.608 3.4-7.608 7.596v6.807h15.21v-6.807c0-4.195-3.413-7.596-7.602-7.596zM187.79 256.44c-4.205 0-7.603 3.396-7.603 7.596v6.807h15.204v-6.807c0-4.2-3.402-7.596-7.6-7.596zM145.575 256.44c-4.185 0-7.594 3.396-7.594 7.596v6.807h15.214v-6.807c0-4.2-3.407-7.596-7.62-7.596zM103.385 256.44c-4.2 0-7.594 3.396-7.594 7.596v6.807h15.195v-6.807c0-4.2-3.402-7.596-7.6-7.596zM441.007 256.44c-4.195 0-7.6 3.396-7.6 7.596v6.807h15.21v-6.807c0-4.2-3.412-7.596-7.61-7.596zM483.214 256.44c-4.186 0-7.603 3.396-7.603 7.596v6.807h15.21v-6.807c0-4.2-3.402-7.596-7.606-7.596zM525.414 256.44c-4.188 0-7.59 3.396-7.59 7.596v6.807h15.213v-6.807c0-4.2-3.413-7.596-7.623-7.596zM567.626 256.44c-4.187 0-7.594 3.396-7.594 7.596v6.807h15.203v-6.807c0-4.2-3.41-7.596-7.61-7.596zM609.826 256.44c-4.192 0-7.595 3.396-7.595 7.596v6.807h15.2v-6.807c.002-4.2-3.4-7.596-7.604-7.596zM652.036 256.44c-4.2 0-7.606 3.396-7.606 7.596v6.807h15.218v-6.807c0-4.2-3.412-7.596-7.612-7.596zM694.235 256.44c-4.186 0-7.585 3.396-7.585 7.596v6.807h15.198v-6.807c0-4.2-3.408-7.596-7.613-7.596zM736.45 256.44c-4.186 0-7.596 3.396-7.596 7.596v6.807h15.204v-6.807c0-4.2-3.413-7.596-7.607-7.596zM401.628 218c0-1.643-1.337-2.976-2.978-2.976-1.636 0-2.97 1.333-2.97 2.977v2.673h5.948V218zM420.346 215.024c-1.627 0-2.97 1.333-2.97 2.977v2.673h5.966V218c0-1.643-1.35-2.976-2.996-2.976zM445.043 218c0-1.643-1.342-2.976-2.984-2.976-1.632 0-2.98 1.333-2.98 2.977v2.673h5.963V218zM420.346 171.66c-2.815 0-5.104 2.285-5.104 5.108v4.563h10.22v-4.562c0-2.823-2.288-5.108-5.116-5.108zM394.89 176.77c0-2.824-2.293-5.11-5.11-5.11-2.84 0-5.113 2.286-5.113 5.11v4.562h10.224v-4.563zM450.938 171.66c-2.833 0-5.116 2.285-5.116 5.108v4.563h10.23v-4.562c0-2.823-2.287-5.108-5.114-5.108z"/><path d="M461.51 213.533v21.782l-2.234 8.73H768.17l-12.824-30.513H469.56v-60.316h26.29l-1.948-1.905c-12.66-12.41-31.835-26.358-34.127-28.014-1.148-2.296-10.414-20.47-36.86-65.045l-.318-.546h-.39v-2.818l.9-3.396 5.7 6.03-2.2-8.01 7.97 2.375-5.908-5.844 8.076-1.93-8.035-2.112 6.045-5.708-8.018 2.205 2.36-7.977-5.84 5.91-1.91-8.08-2.118 8.036-5.712-6.036 2.188 8.018-7.958-2.382 5.905 5.857-8.074 1.93 8.03 2.103-6.037 5.704 8.02-2.194-2.376 7.97 5.847-5.903 1.144 4.79v1.465h-.482l-.323.547c-26.426 44.583-35.71 62.75-36.864 65.045-2.285 1.65-21.444 15.604-34.124 28.015l-1.94 1.905h24.244v60.316H85.367l-12.83 30.514h308.9l-2.238-8.73v-21.783h-6.468v-60.316h94.81v60.316h-6.032zm-84.006 23.178c-.455.353-.953.582-1.488.582-1.908 0-3.468-2.446-3.468-5.446v-3.076c.84 1.406 2.072 2.313 3.468 2.313.41 0 .794-.12 1.17-.277v4.633l.318 1.27zm-.318-7.118c-.37.21-.758.366-1.17.366-1.907 0-3.467-2.44-3.467-5.442v-3.074c.84 1.397 2.07 2.316 3.467 2.316.41 0 .794-.123 1.17-.278v6.112zm-6.052-12.717v3.063c-.84-1.393-2.075-2.305-3.466-2.305-1.406 0-2.624.912-3.466 2.305v-3.063c0-.465.06-.9.13-1.327h6.666c.075.426.136.862.136 1.327zm-14.325 25.163c-.416-.897-.675-1.985-.675-3.17v-3.092c.854 1.403 2.072 2.312 3.472 2.312 1.387 0 2.616-.908 3.46-2.312v3.092c0 1.185-.256 2.272-.673 3.17h-5.585zm-16.113 0c-.417-.897-.67-1.985-.67-3.17v-3.092c.84 1.403 2.068 2.312 3.466 2.312 1.388 0 2.62-.908 3.458-2.312v3.092c0 1.185-.26 2.272-.673 3.17h-5.58zm-16.124 0c-.418-.897-.676-1.985-.676-3.17v-3.092c.84 1.403 2.076 2.312 3.475 2.312 1.38 0 2.624-.908 3.462-2.312v3.092c0 1.185-.26 2.272-.675 3.17h-5.587zm-16.124 0c-.418-.897-.675-1.985-.675-3.17v-3.092c.844 1.403 2.072 2.312 3.46 2.312 1.396 0 2.64-.908 3.47-2.312v3.092c0 1.185-.254 2.272-.67 3.17h-5.586zm-16.117 0c-.417-.897-.677-1.985-.677-3.17v-3.092c.85 1.403 2.083 2.312 3.468 2.312 1.39 0 2.624-.908 3.47-2.312v3.092c0 1.185-.26 2.272-.676 3.17h-5.585zm-16.12 0c-.42-.897-.68-1.985-.68-3.17v-3.092c.85 1.403 2.085 2.312 3.478 2.312 1.384 0 2.62-.908 3.457-2.312v3.092c0 1.185-.26 2.272-.675 3.17h-5.58zm-16.117 0c-.42-.897-.677-1.985-.677-3.17v-3.092c.837 1.403 2.073 2.312 3.463 2.312 1.385 0 2.63-.908 3.468-2.312v3.092c0 1.185-.252 2.272-.67 3.17h-5.584zm-16.123 0c-.152-.33-.293-.68-.4-1.064-.173-.648-.276-1.357-.276-2.105v-3.093c.845 1.403 2.082 2.312 3.474 2.312 1.386 0 2.612-.9 3.46-2.295v3.074c0 1.184-.256 2.27-.676 3.17h-5.58zm-16.114 0c-.416-.897-.674-1.985-.674-3.17v-3.092c.836 1.403 2.08 2.312 3.467 2.312 1.39 0 2.625-.908 3.463-2.312v3.092c0 1.185-.257 2.272-.675 3.17h-5.58zm-16.118 0c-.42-.897-.676-1.985-.676-3.17v-3.092c.838 1.403 2.074 2.312 3.466 2.312 1.394 0 2.618-.908 3.462-2.312v3.092c0 1.185-.256 2.272-.675 3.17h-5.578zm-16.125 0c-.417-.897-.677-1.985-.677-3.17v-3.092c.847 1.403 2.073 2.312 3.464 2.312s2.625-.908 3.475-2.312v3.092c0 1.185-.26 2.272-.68 3.17h-5.583zm-16.124 0c-.42-.897-.68-1.985-.68-3.17v-3.092c.852 1.403 2.086 2.312 3.48 2.312 1.393 0 2.62-.908 3.463-2.312v3.092c0 1.185-.26 2.272-.678 3.17h-5.585zm-16.11 0c-.422-.897-.68-1.985-.68-3.17v-3.092c.843 1.403 2.077 2.312 3.47 2.312 1.392 0 2.63-.908 3.465-2.312v3.092c0 1.185-.256 2.272-.675 3.17h-5.58zm-16.124 0c-.417-.897-.678-1.985-.678-3.17v-3.092c.833 1.403 2.077 2.312 3.458 2.312 1.402 0 2.64-.908 3.476-2.312v3.092c0 1.185-.26 2.272-.675 3.17h-5.58zm-16.104 0c-.42-.897-.68-1.985-.68-3.17v-3.064c.85 1.39 2.066 2.284 3.462 2.284h.01c1.377 0 2.604-.896 3.448-2.284v3.064c0 1.185-.26 2.272-.675 3.17h-5.564zm-16.12 0c-.416-.897-.673-1.985-.673-3.17v-3.092c.845 1.403 2.076 2.312 3.462 2.312 1.397 0 2.635-.908 3.47-2.312v3.092c0 1.185-.26 2.272-.678 3.17h-5.58zm-16.12 0c-.415-.897-.674-1.985-.674-3.17v-3.092c.838 1.403 2.066 2.312 3.466 2.312 1.385 0 2.622-.908 3.463-2.312v3.092c0 1.185-.256 2.272-.675 3.17h-5.578zm-16.116 0c-.416-.897-.682-1.985-.682-3.17v-3.092c.85 1.403 2.072 2.312 3.464 2.312 1.394 0 2.632-.908 3.476-2.312v3.092c0 1.185-.262 2.272-.68 3.17H82.8zm2.782-12.405c-1.51 0-2.782-1.534-3.25-3.667l1.352-3.215c.578.405 1.208.69 1.898.69 1.394 0 2.632-.93 3.476-2.318v3.07c0 3-1.56 5.44-3.476 5.44zm3.476-1.174v3.067c0 3.003-1.56 5.44-3.476 5.44-1.896 0-3.464-2.437-3.464-5.44v-3.068c.85 1.402 2.072 2.3 3.464 2.3 1.394 0 2.632-.898 3.476-2.3zm-7.59 4.666l-.15-.252V236c-.438-1.26-1.166-2.2-2.04-2.777l2.04-4.854v3.157c0 .564.06 1.09.15 1.6zm-.473 5.742v3.063c-.838-1.393-2.075-2.305-3.472-2.305-.36 0-.7.095-1.03.222l2.466-5.863c1.186.867 2.035 2.692 2.035 4.884zm286.673-6.578c-1.406 0-2.624.915-3.466 2.313v-3.076c0-2.995 1.55-5.437 3.466-5.437 1.913 0 3.466 2.44 3.466 5.437v3.076c-.84-1.398-2.074-2.313-3.466-2.313zm3.466 6.578v3.063c-.84-1.393-2.075-2.305-3.466-2.305-1.406 0-2.624.912-3.466 2.306v-3.062c0-3.008 1.55-5.457 3.466-5.457 1.913 0 3.466 2.45 3.466 5.458zm-3.466-13.912c-1.406 0-2.624.91-3.466 2.317v-3.08c0-2.997 1.55-5.437 3.466-5.437 1.913 0 3.466 2.44 3.466 5.436v3.08c-.84-1.407-2.074-2.316-3.466-2.316zm-8.06 4.677c-1.915 0-3.473-2.44-3.473-5.44v-3.07c.854 1.388 2.072 2.318 3.472 2.318 1.387 0 2.616-.93 3.46-2.317v3.07c0 3-1.547 5.44-3.46 5.44zm3.458-1.174v3.067c0 3.003-1.546 5.44-3.46 5.44-1.913 0-3.47-2.437-3.47-5.44v-3.068c.853 1.402 2.07 2.3 3.47 2.3 1.388 0 2.617-.898 3.46-2.3zm-3.46-6.15c-1.913 0-3.47-2.444-3.47-5.435v-1.327h6.93v1.327c0 2.99-1.546 5.434-3.46 5.434zm-4.592-5.435v3.063c-.828-1.393-2.068-2.305-3.46-2.305-1.396 0-2.634.912-3.482 2.305v-3.063c0-.465.066-.9.138-1.327h6.668c.073.426.136.862.136 1.327zm-3.46 15.415c-1.397 0-2.635.915-3.483 2.313v-3.076c0-2.995 1.564-5.437 3.484-5.437 1.9 0 3.46 2.44 3.46 5.437v3.076c-.828-1.398-2.07-2.313-3.46-2.313zm3.46 6.578v3.063c-.828-1.393-2.068-2.305-3.46-2.305-1.396 0-2.634.912-3.482 2.306v-3.062c0-3.008 1.563-5.457 3.483-5.457 1.9 0 3.46 2.45 3.46 5.458zm-3.46-13.912c-1.397 0-2.635.91-3.483 2.317v-3.08c0-2.997 1.564-5.437 3.484-5.437 1.9 0 3.46 2.44 3.46 5.436v3.08c-.828-1.407-2.07-2.316-3.46-2.316zm-8.06 4.677c-1.93 0-3.467-2.44-3.467-5.44v-3.07c.84 1.388 2.07 2.318 3.467 2.318 1.388 0 2.62-.93 3.458-2.317v3.07c0 3-1.553 5.44-3.458 5.44zm3.458-1.174v3.067c0 3.003-1.553 5.44-3.458 5.44-1.93 0-3.467-2.437-3.467-5.44v-3.068c.84 1.402 2.07 2.3 3.467 2.3 1.388 0 2.62-.898 3.458-2.3zm-3.458-6.15c-1.93 0-3.467-2.444-3.467-5.435v-1.327h6.926v1.327c0 2.99-1.554 5.434-3.46 5.434zm-4.597-5.435v3.063c-.845-1.393-2.077-2.305-3.467-2.305-1.392 0-2.63.912-3.476 2.305v-3.063c0-.465.06-.9.14-1.327h6.668c.07.426.135.862.135 1.327zm-3.467 15.415c-1.392 0-2.63.915-3.476 2.313v-3.076c0-2.995 1.55-5.437 3.476-5.437 1.91 0 3.467 2.44 3.467 5.437v3.076c-.845-1.398-2.077-2.313-3.467-2.313zm3.467 6.578v3.063c-.845-1.393-2.077-2.305-3.467-2.305-1.392 0-2.63.912-3.476 2.306v-3.062c0-3.008 1.55-5.457 3.476-5.457 1.91 0 3.467 2.45 3.467 5.458zm-3.467-13.912c-1.392 0-2.63.91-3.476 2.317v-3.08c0-2.997 1.55-5.437 3.476-5.437 1.91 0 3.467 2.44 3.467 5.436v3.08c-.845-1.407-2.077-2.316-3.467-2.316zm-8.058 4.677c-1.915 0-3.475-2.44-3.475-5.44v-3.07c.84 1.388 2.076 2.318 3.475 2.318 1.38 0 2.624-.93 3.462-2.317v3.07c0 3-1.556 5.44-3.462 5.44zm3.46-1.174v3.067c0 3.003-1.555 5.44-3.46 5.44-1.916 0-3.476-2.437-3.476-5.44v-3.068c.84 1.402 2.076 2.3 3.475 2.3 1.38 0 2.625-.898 3.463-2.3zm-3.46-6.15c-1.915 0-3.475-2.444-3.475-5.435v-1.327h6.937v1.327c0 2.99-1.556 5.434-3.462 5.434zm-4.594-5.435v3.063c-.855-1.393-2.083-2.305-3.474-2.305-1.396 0-2.623.912-3.468 2.305v-3.063c0-.465.063-.9.13-1.327h6.68c.07.426.132.862.132 1.327zm-3.474 15.415c-1.396 0-2.623.915-3.468 2.313v-3.076c0-2.995 1.558-5.437 3.468-5.437 1.917 0 3.474 2.44 3.474 5.437v3.076c-.855-1.398-2.083-2.313-3.474-2.313zm3.474 6.578v3.063c-.855-1.393-2.083-2.305-3.474-2.305-1.396 0-2.623.912-3.468 2.306v-3.062c0-3.008 1.558-5.457 3.468-5.457 1.918 0 3.474 2.45 3.474 5.458zm-3.474-13.912c-1.396 0-2.623.91-3.468 2.317v-3.08c0-2.997 1.558-5.437 3.468-5.437 1.917 0 3.474 2.44 3.474 5.436v3.08c-.855-1.407-2.083-2.316-3.474-2.316zm-8.07 4.677c-1.894 0-3.46-2.44-3.46-5.44v-3.07c.845 1.388 2.073 2.318 3.46 2.318 1.397 0 2.64-.93 3.472-2.317v3.07c0 3-1.55 5.44-3.472 5.44zm3.472-1.174v3.067c0 3.003-1.55 5.44-3.472 5.44-1.894 0-3.46-2.437-3.46-5.44v-3.068c.845 1.402 2.073 2.3 3.46 2.3 1.398 0 2.64-.898 3.472-2.3zm-3.472-6.15c-1.894 0-3.46-2.444-3.46-5.435v-1.327h6.932v1.327c0 2.99-1.55 5.434-3.472 5.434zm-4.578-5.435v3.063c-.845-1.393-2.082-2.305-3.475-2.305-1.39 0-2.614.912-3.455 2.305v-3.063c0-.465.06-.9.13-1.327h6.667c.07.426.134.862.134 1.327zm-3.475 15.415c-1.39 0-2.614.915-3.455 2.313v-3.076c0-2.995 1.552-5.437 3.456-5.437 1.915 0 3.476 2.44 3.476 5.437v3.076c-.845-1.398-2.08-2.313-3.475-2.313zm3.476 6.578v3.063c-.845-1.393-2.082-2.305-3.475-2.305-1.39 0-2.614.912-3.455 2.306v-3.062c0-3.008 1.552-5.457 3.456-5.457 1.915 0 3.476 2.45 3.476 5.458zm-3.475-13.912c-1.39 0-2.614.91-3.455 2.317v-3.08c0-2.997 1.552-5.437 3.456-5.437 1.915 0 3.476 2.44 3.476 5.436v3.08c-.845-1.407-2.08-2.316-3.475-2.316zm-8.056 4.677c-1.91 0-3.468-2.44-3.468-5.44v-3.07c.85 1.388 2.083 2.318 3.468 2.318 1.39 0 2.624-.93 3.47-2.317v3.07c0 3-1.56 5.44-3.47 5.44zm3.47-1.174v3.067c0 3.003-1.56 5.44-3.47 5.44-1.91 0-3.468-2.437-3.468-5.44v-3.068c.85 1.402 2.083 2.3 3.468 2.3 1.39 0 2.624-.898 3.47-2.3zm-3.47-6.15c-1.91 0-3.468-2.444-3.468-5.435v-1.327h6.938v1.327c0 2.99-1.56 5.434-3.47 5.434zm-4.59-5.435v3.063c-.84-1.393-2.075-2.305-3.466-2.305-1.39 0-2.63.912-3.473 2.305v-3.063c0-.465.064-.9.14-1.327h6.668c.07.426.13.862.13 1.327zm-3.467 15.415c-1.39 0-2.63.915-3.473 2.313v-3.076c0-2.995 1.56-5.437 3.473-5.437 1.906 0 3.466 2.44 3.466 5.437v3.076c-.84-1.398-2.075-2.313-3.466-2.313zm3.467 6.578v3.063c-.84-1.393-2.075-2.305-3.466-2.305-1.39 0-2.63.912-3.473 2.306v-3.062c0-3.008 1.56-5.457 3.473-5.457 1.905 0 3.466 2.45 3.466 5.458zm-3.467-13.912c-1.39 0-2.63.91-3.473 2.317v-3.08c0-2.997 1.56-5.437 3.473-5.437 1.906 0 3.466 2.44 3.466 5.436v3.08c-.84-1.407-2.075-2.316-3.466-2.316zm-8.055 4.677c-1.92 0-3.48-2.44-3.48-5.44v-3.07c.852 1.388 2.087 2.318 3.48 2.318 1.383 0 2.62-.93 3.456-2.317v3.07c0 3-1.55 5.44-3.456 5.44zm3.456-1.174v3.067c0 3.003-1.55 5.44-3.456 5.44-1.92 0-3.48-2.437-3.48-5.44v-3.068c.852 1.402 2.087 2.3 3.48 2.3 1.384 0 2.62-.898 3.456-2.3zm-3.456-6.15c-1.92 0-3.48-2.444-3.48-5.435v-1.327h6.936v1.327c0 2.99-1.55 5.434-3.456 5.434zm-4.6-5.435v3.063c-.843-1.393-2.078-2.305-3.468-2.305-1.396 0-2.617.912-3.464 2.305v-3.063c0-.465.06-.9.132-1.327h6.666c.072.426.134.862.134 1.327zm-3.468 15.415c-1.396 0-2.617.915-3.464 2.313v-3.076c0-2.995 1.548-5.437 3.464-5.437 1.91 0 3.468 2.44 3.468 5.437v3.076c-.843-1.398-2.078-2.313-3.468-2.313zm3.468 6.578v3.063c-.843-1.393-2.078-2.305-3.468-2.305-1.396 0-2.617.912-3.464 2.306v-3.062c0-3.008 1.548-5.457 3.464-5.457 1.91 0 3.468 2.45 3.468 5.458zm-3.468-13.912c-1.396 0-2.617.91-3.464 2.317v-3.08c0-2.997 1.548-5.437 3.464-5.437 1.91 0 3.468 2.44 3.468 5.436v3.08c-.843-1.407-2.078-2.316-3.468-2.316zm-8.06 4.677c-1.906 0-3.465-2.44-3.465-5.44v-3.07c.837 1.388 2.073 2.318 3.463 2.318 1.385 0 2.63-.93 3.468-2.317v3.07c0 3-1.552 5.44-3.467 5.44zm3.467-1.174v3.067c0 3.003-1.552 5.44-3.467 5.44-1.905 0-3.464-2.437-3.464-5.44v-3.068c.837 1.402 2.073 2.3 3.463 2.3 1.385 0 2.63-.898 3.468-2.3zm-3.467-6.15c-1.905 0-3.464-2.444-3.464-5.435v-1.327h6.93v1.327c0 2.99-1.552 5.434-3.467 5.434zm-4.585-5.435v3.06c-.854-1.396-2.078-2.302-3.47-2.302-1.398 0-2.62.912-3.468 2.305v-3.063c0-.465.063-.9.136-1.327h6.67c.065.426.132.862.132 1.327zm-3.47 15.415c-1.398 0-2.62.915-3.468 2.313v-3.076c0-2.995 1.56-5.437 3.468-5.437 1.915 0 3.47 2.44 3.47 5.437v3.063c-.854-1.39-2.077-2.3-3.47-2.3zm3.47 6.578v3.053c-.854-1.386-2.078-2.294-3.47-2.294-1.398 0-2.62.912-3.468 2.306v-3.063c0-3.01 1.56-5.458 3.468-5.458 1.915 0 3.47 2.448 3.47 5.456zm-3.47-13.912c-1.398 0-2.62.91-3.468 2.317v-3.08c0-2.997 1.56-5.437 3.468-5.437 1.915 0 3.47 2.44 3.47 5.436v3.068c-.854-1.395-2.077-2.304-3.47-2.304zm-8.058 4.677c-1.44 0-2.672-1.375-3.197-3.324-.174-.652-.277-1.365-.277-2.117v-3.07c.845 1.388 2.082 2.318 3.474 2.318 1.385 0 2.61-.924 3.458-2.304v3.057c0 3-1.542 5.44-3.458 5.44zm3.458-1.162v3.058c0 3.003-1.542 5.44-3.458 5.44-1.44 0-2.672-1.37-3.197-3.325-.174-.65-.277-1.37-.277-2.115v-3.068c.845 1.403 2.082 2.3 3.474 2.3 1.385 0 2.61-.898 3.458-2.29zm-3.458-6.16c-1.44 0-2.672-1.376-3.197-3.324-.174-.658-.277-1.364-.277-2.11v-1.327h6.932v1.326c0 2.99-1.542 5.433-3.458 5.433zm-4.59-5.435v3.063c-.832-1.393-2.072-2.305-3.47-2.305-1.39 0-2.624.912-3.462 2.305v-3.063c0-.465.058-.9.13-1.327h6.665c.075.426.137.862.137 1.327zm-3.472 15.415c-1.39 0-2.623.915-3.46 2.313v-3.076c0-2.995 1.552-5.437 3.46-5.437 1.913 0 3.47 2.44 3.47 5.437v3.076c-.83-1.398-2.07-2.313-3.47-2.313zm3.472 6.578v3.063c-.832-1.393-2.072-2.305-3.47-2.305-1.39 0-2.624.912-3.462 2.306v-3.062c0-3.008 1.553-5.457 3.46-5.457 1.913 0 3.472 2.45 3.472 5.458zm-3.472-13.912c-1.39 0-2.623.91-3.46 2.317v-3.08c0-2.997 1.552-5.437 3.46-5.437 1.913 0 3.47 2.44 3.47 5.436v3.08c-.83-1.407-2.07-2.316-3.47-2.316zm-8.055 4.677c-1.922 0-3.467-2.44-3.467-5.44v-3.07c.836 1.388 2.08 2.318 3.467 2.318 1.39 0 2.625-.93 3.463-2.317v3.07c0 3-1.552 5.44-3.463 5.44zm3.463-1.174v3.067c0 3.003-1.552 5.44-3.463 5.44-1.922 0-3.467-2.437-3.467-5.44v-3.068c.836 1.402 2.08 2.3 3.467 2.3 1.39 0 2.625-.898 3.463-2.3zm-3.463-6.15c-1.922 0-3.467-2.444-3.467-5.435v-1.327h6.93v1.327c0 2.99-1.552 5.434-3.463 5.434zm-4.588-5.435v3.063c-.843-1.393-2.085-2.305-3.475-2.305-1.383 0-2.626.912-3.462 2.305v-3.063c0-.465.06-.9.13-1.327h6.672c.074.426.135.862.135 1.327zm-3.475 15.415c-1.383 0-2.626.915-3.462 2.313v-3.076c0-2.995 1.546-5.437 3.462-5.437 1.91 0 3.475 2.44 3.475 5.437v3.076c-.843-1.398-2.086-2.313-3.475-2.313zm3.475 6.578v3.063c-.843-1.393-2.085-2.305-3.475-2.305-1.383 0-2.626.912-3.462 2.306v-3.062c0-3.008 1.546-5.457 3.462-5.457 1.91 0 3.475 2.45 3.475 5.458zm-3.475-13.912c-1.383 0-2.626.91-3.462 2.317v-3.08c0-2.997 1.546-5.437 3.462-5.437 1.91 0 3.475 2.44 3.475 5.436v3.08c-.843-1.407-2.086-2.316-3.475-2.316zm-8.06 4.677c-1.912 0-3.465-2.44-3.465-5.44v-3.07c.838 1.388 2.074 2.318 3.466 2.318 1.395 0 2.62-.93 3.463-2.317v3.07c0 3-1.555 5.44-3.462 5.44zm3.464-1.174v3.067c0 3.003-1.556 5.44-3.462 5.44-1.913 0-3.466-2.437-3.466-5.44v-3.068c.838 1.402 2.074 2.3 3.466 2.3 1.393 0 2.617-.898 3.462-2.3zm-3.463-6.15c-1.912 0-3.465-2.444-3.465-5.435v-1.327h6.928v1.327c0 2.99-1.555 5.434-3.462 5.434zm-4.588-5.435v3.063c-.848-1.393-2.08-2.305-3.468-2.305-1.403 0-2.63.912-3.473 2.305v-3.063c0-.465.064-.9.134-1.327h6.674c.07.426.134.862.134 1.327zm-3.468 15.415c-1.403 0-2.63.915-3.473 2.313v-3.076c0-2.995 1.557-5.437 3.474-5.437 1.912 0 3.468 2.44 3.468 5.437v3.076c-.848-1.398-2.08-2.313-3.468-2.313zm3.468 6.578v3.063c-.848-1.393-2.08-2.305-3.468-2.305-1.403 0-2.63.912-3.473 2.306v-3.062c0-3.008 1.557-5.457 3.474-5.457 1.91 0 3.468 2.45 3.468 5.458zm-3.468-13.912c-1.403 0-2.63.91-3.473 2.317v-3.08c0-2.997 1.557-5.437 3.474-5.437 1.912 0 3.468 2.44 3.468 5.436v3.08c-.848-1.407-2.08-2.316-3.468-2.316zm-8.07 4.677c-1.902 0-3.464-2.44-3.464-5.44v-3.07c.847 1.388 2.073 2.318 3.464 2.318s2.625-.93 3.475-2.317v3.07c0 3-1.56 5.44-3.476 5.44zm3.475-1.174v3.067c0 3.003-1.56 5.44-3.476 5.44-1.902 0-3.464-2.437-3.464-5.44v-3.068c.847 1.402 2.073 2.3 3.464 2.3s2.626-.898 3.475-2.3zm-3.476-6.15c-1.902 0-3.464-2.444-3.464-5.435v-1.327h6.94v1.327c0 2.99-1.56 5.434-3.476 5.434zm-4.586-5.435v3.063c-.846-1.393-2.067-2.305-3.463-2.305-1.398 0-2.625.912-3.464 2.305v-3.063c0-.465.06-.9.13-1.327h6.664c.074.426.134.862.134 1.327zm-3.463 15.415c-1.398 0-2.625.915-3.464 2.313v-3.076c0-2.995 1.547-5.437 3.465-5.437 1.904 0 3.463 2.44 3.463 5.437v3.076c-.845-1.398-2.067-2.313-3.463-2.313zm3.463 6.578v3.063c-.846-1.393-2.067-2.305-3.463-2.305-1.398 0-2.625.912-3.464 2.306v-3.062c0-3.008 1.547-5.457 3.465-5.457 1.905 0 3.463 2.45 3.463 5.458zm-3.463-13.912c-1.398 0-2.625.91-3.464 2.317v-3.08c0-2.997 1.547-5.437 3.465-5.437 1.904 0 3.463 2.44 3.463 5.436v3.08c-.845-1.407-2.067-2.316-3.463-2.316zm-8.06 4.677c-1.918 0-3.48-2.44-3.48-5.44v-3.07c.85 1.388 2.084 2.318 3.48 2.318 1.39 0 2.617-.93 3.46-2.317v3.07c0 3-1.558 5.44-3.46 5.44zm3.46-1.174v3.067c0 3.003-1.558 5.44-3.46 5.44-1.918 0-3.48-2.437-3.48-5.44v-3.068c.85 1.402 2.084 2.3 3.48 2.3 1.39 0 2.617-.898 3.46-2.3zm-3.46-6.15c-1.918 0-3.48-2.444-3.48-5.435v-1.327h6.94v1.327c0 2.99-1.558 5.434-3.46 5.434zm-4.592-5.435v3.063c-.843-1.393-2.077-2.305-3.465-2.305-1.39 0-2.632.912-3.47 2.305v-3.063c0-.465.06-.9.13-1.327h6.672c.07.426.133.862.133 1.327zm-3.465 15.415c-1.39 0-2.632.915-3.47 2.313v-3.076c0-2.995 1.552-5.437 3.47-5.437 1.904 0 3.465 2.44 3.465 5.437v3.076c-.843-1.398-2.077-2.313-3.465-2.313zm3.465 6.578v3.063c-.843-1.393-2.077-2.305-3.465-2.305-1.39 0-2.632.912-3.47 2.306v-3.062c0-3.008 1.552-5.457 3.47-5.457 1.904 0 3.465 2.45 3.465 5.458zm-3.465-13.912c-1.39 0-2.632.91-3.47 2.317v-3.08c0-2.997 1.552-5.437 3.47-5.437 1.904 0 3.465 2.44 3.465 5.436v3.08c-.843-1.407-2.077-2.316-3.465-2.316zm-8.067 4.677c-1.918 0-3.47-2.44-3.47-5.44v-3.07c.845 1.388 2.08 2.318 3.47 2.318 1.394 0 2.63-.93 3.467-2.317v3.07c0 3-1.555 5.44-3.466 5.44zm3.467-1.174v3.067c0 3.003-1.556 5.44-3.466 5.44-1.918 0-3.47-2.437-3.47-5.44v-3.068c.845 1.402 2.08 2.3 3.47 2.3 1.394 0 2.63-.898 3.467-2.3zm-3.466-6.15c-1.918 0-3.47-2.444-3.47-5.435v-1.327h6.937v1.327c0 2.99-1.555 5.434-3.466 5.434zm-4.6-5.435v3.063c-.83-1.393-2.067-2.305-3.463-2.305-1.392 0-2.623.912-3.46 2.305v-3.063c0-.465.06-.9.134-1.327h6.66c.07.426.13.862.13 1.327zm-3.463 15.415c-1.392 0-2.623.915-3.46 2.313v-3.076c0-2.995 1.545-5.437 3.46-5.437 1.916 0 3.464 2.44 3.464 5.437v3.076c-.83-1.398-2.067-2.313-3.463-2.313zm3.464 6.578v3.063c-.83-1.393-2.067-2.305-3.463-2.305-1.392 0-2.623.912-3.46 2.306v-3.062c0-3.008 1.545-5.457 3.46-5.457 1.916 0 3.464 2.45 3.464 5.458zm-3.463-13.912c-1.392 0-2.623.91-3.46 2.317v-3.08c0-2.997 1.545-5.437 3.46-5.437 1.916 0 3.464 2.44 3.464 5.436v3.08c-.83-1.407-2.067-2.316-3.463-2.316zm-8.067 4.677c-1.896 0-3.458-2.44-3.458-5.44v-3.07c.833 1.388 2.077 2.318 3.458 2.318 1.402 0 2.64-.93 3.476-2.317v3.07c0 3-1.545 5.44-3.476 5.44zm3.475-1.174v3.067c0 3.003-1.544 5.44-3.476 5.44-1.897 0-3.46-2.437-3.46-5.44v-3.068c.834 1.402 2.078 2.3 3.46 2.3 1.4 0 2.64-.898 3.475-2.3zm-3.475-6.15c-1.896 0-3.458-2.444-3.458-5.435v-1.327h6.933v1.327c0 2.99-1.544 5.434-3.475 5.434zm-4.58-5.435v3.045c-.844-1.385-2.07-2.287-3.46-2.287H141.992c-1.38 0-2.605.902-3.448 2.287v-3.045c0-.465.063-.9.137-1.327h6.647c.07.426.133.862.133 1.327zM142 232.29H141.992c-1.38 0-2.605.91-3.448 2.296v-3.06c0-2.994 1.55-5.423 3.455-5.436 1.9.013 3.463 2.44 3.463 5.437v3.06c-.844-1.388-2.07-2.297-3.46-2.297zm3.46 6.578v3.046c-.844-1.38-2.07-2.288-3.46-2.288H141.992c-1.38 0-2.605.908-3.448 2.288v-3.046c0-3.002 1.55-5.447 3.455-5.457 1.9.01 3.463 2.456 3.463 5.458zM142 224.956H141.992c-1.38 0-2.605.91-3.448 2.3v-3.063c0-2.996 1.55-5.425 3.455-5.436 1.9.01 3.463 2.44 3.463 5.436v3.064c-.844-1.392-2.07-2.3-3.46-2.3zm-8.057 4.677c-1.915-.01-3.467-2.443-3.467-5.44v-3.045c.85 1.375 2.066 2.293 3.462 2.293h.01c1.377 0 2.604-.917 3.448-2.292v3.045c0 2.996-1.55 5.43-3.453 5.44zm3.453-1.153v3.047c0 2.996-1.55 5.438-3.453 5.44-1.915-.003-3.467-2.444-3.467-5.44v-3.047c.85 1.39 2.066 2.28 3.462 2.28h.01c1.377 0 2.605-.89 3.448-2.28zm-3.453-6.17c-1.915-.005-3.467-2.45-3.467-5.435v-1.327h6.92v1.327c0 2.985-1.55 5.43-3.453 5.434zm-4.59-5.435v3.063c-.83-1.393-2.065-2.305-3.467-2.305-1.384 0-2.625.912-3.47 2.305v-3.063c0-.465.063-.9.13-1.327h6.67c.08.426.137.862.137 1.327zm-3.467 15.415c-1.384 0-2.625.915-3.47 2.313v-3.076c0-2.995 1.557-5.437 3.47-5.437 1.91 0 3.467 2.44 3.467 5.437v3.076c-.83-1.398-2.065-2.313-3.467-2.313zm3.467 6.578v3.063c-.83-1.393-2.065-2.305-3.467-2.305-1.384 0-2.625.912-3.47 2.306v-3.062c0-3.008 1.557-5.457 3.47-5.457 1.91 0 3.467 2.45 3.467 5.458zm-3.467-13.912c-1.384 0-2.625.91-3.47 2.317v-3.08c0-2.997 1.557-5.437 3.47-5.437 1.91 0 3.467 2.44 3.467 5.436v3.08c-.83-1.407-2.065-2.316-3.467-2.316zm-8.06 4.677c-1.916 0-3.463-2.44-3.463-5.44v-3.07c.845 1.388 2.076 2.318 3.462 2.318 1.397 0 2.635-.93 3.47-2.317v3.07c0 3-1.546 5.44-3.47 5.44zm3.47-1.174v3.067c0 3.003-1.547 5.44-3.47 5.44-1.916 0-3.463-2.437-3.463-5.44v-3.068c.845 1.402 2.076 2.3 3.462 2.3 1.397 0 2.635-.898 3.47-2.3zm-3.47-6.15c-1.916 0-3.463-2.444-3.463-5.435v-1.327h6.933v1.327c0 2.99-1.547 5.434-3.47 5.434zm-4.59-5.435v3.063c-.853-1.393-2.072-2.305-3.47-2.305-1.385 0-2.616.912-3.46 2.305v-3.063c0-.465.062-.9.13-1.327h6.67c.066.426.13.862.13 1.327zm-3.47 15.415c-1.385 0-2.616.915-3.46 2.313v-3.076c0-2.995 1.546-5.437 3.46-5.437 1.92 0 3.47 2.44 3.47 5.437v3.076c-.853-1.398-2.072-2.313-3.47-2.313zm3.47 6.578v3.063c-.853-1.393-2.072-2.305-3.47-2.305-1.385 0-2.616.912-3.46 2.306v-3.062c0-3.008 1.546-5.457 3.46-5.457 1.92 0 3.47 2.45 3.47 5.458zm-3.47-13.912c-1.385 0-2.616.91-3.46 2.317v-3.08c0-2.997 1.546-5.437 3.46-5.437 1.92 0 3.47 2.44 3.47 5.436v3.08c-.853-1.407-2.072-2.316-3.47-2.316zm-8.057 4.677c-1.91 0-3.467-2.44-3.467-5.44v-3.07c.838 1.388 2.066 2.318 3.466 2.318 1.384 0 2.62-.93 3.462-2.317v3.07c0 3-1.554 5.44-3.463 5.44zm3.462-1.174v3.067c0 3.003-1.555 5.44-3.463 5.44-1.91 0-3.467-2.437-3.467-5.44v-3.068c.838 1.402 2.066 2.3 3.466 2.3 1.384 0 2.62-.898 3.462-2.3zm-3.463-6.15c-1.91 0-3.467-2.444-3.467-5.435v-1.327h6.93v1.327c0 2.99-1.555 5.434-3.464 5.434zm-4.588-5.435v3.063c-.846-1.393-2.085-2.305-3.474-2.305-1.394 0-2.63.912-3.46 2.305v-3.063c0-.465.065-.9.13-1.327h6.67c.07.426.134.862.134 1.327zm-3.474 8.08c-1.394 0-2.63.91-3.46 2.318v-3.08c0-2.997 1.548-5.437 3.46-5.437 1.915 0 3.474 2.44 3.474 5.436v3.08c-.846-1.407-2.085-2.316-3.474-2.316zm3.474 6.572v3.076c-.846-1.398-2.085-2.313-3.474-2.313-1.394 0-2.63.915-3.46 2.313v-3.076c0-2.995 1.548-5.437 3.46-5.437 1.915 0 3.474 2.442 3.474 5.437zm-6.934 7.34c0-3.007 1.548-5.456 3.46-5.456 1.915 0 3.474 2.45 3.474 5.458v3.063c-.846-1.393-2.085-2.305-3.474-2.305-1.394 0-2.63.912-3.46 2.306v-3.062zm3.46 1.878c.838 0 1.586.51 2.18 1.293h-4.353c.59-.784 1.334-1.293 2.173-1.293zm16.118 0c.845 0 1.584.51 2.18 1.293h-4.354c.596-.784 1.336-1.293 2.174-1.293zm16.12 0c.838 0 1.584.51 2.18 1.293h-4.356c.597-.784 1.342-1.293 2.176-1.293zm16.11 0c.837.002 1.58.513 2.175 1.293h-4.338c.594-.78 1.333-1.29 2.165-1.293zm16.11 0c.84 0 1.585.51 2.184 1.293h-4.36c.594-.784 1.34-1.293 2.177-1.293zm16.132 0c.833 0 1.573.51 2.17 1.293h-4.353c.598-.784 1.346-1.293 2.183-1.293zm16.117 0c.833 0 1.58.51 2.177 1.293h-4.354c.594-.784 1.34-1.293 2.177-1.293zm16.12 0c.835 0 1.58.51 2.177 1.293h-4.36c.598-.784 1.344-1.293 2.182-1.293zm16.115 0c.834 0 1.58.51 2.182 1.293h-4.36c.6-.784 1.34-1.293 2.178-1.293zm16.118 0c.838 0 1.585.51 2.182 1.293h-4.355c.596-.784 1.338-1.293 2.173-1.293zm16.12 0c.836 0 1.582.51 2.177 1.293h-4.355c.6-.784 1.344-1.293 2.178-1.293zm16.116 0c.84 0 1.58.51 2.177 1.293h-4.352c.596-.784 1.338-1.293 2.176-1.293zm16.123 0c.833 0 1.58.51 2.177 1.293h-4.357c.6-.784 1.342-1.293 2.18-1.293zm16.114 0c.84 0 1.585.51 2.185 1.293h-4.36c.596-.784 1.338-1.293 2.176-1.293zm16.124 0c.842 0 1.586.51 2.188 1.293h-4.366c.594-.784 1.34-1.293 2.178-1.293zm16.126 0c.836 0 1.58.51 2.177 1.293h-4.36c.596-.784 1.342-1.293 2.183-1.293zm16.124 0c.83 0 1.572.51 2.168 1.293h-4.358c.597-.784 1.343-1.293 2.19-1.293zm16.114 0c.838 0 1.582.51 2.178 1.293h-4.357c.594-.784 1.338-1.293 2.178-1.293zm-280.96-25.197h2.35v1.327c0 2.99-1.56 5.434-3.476 5.434-.528 0-1.02-.24-1.47-.587l2.597-6.175zm-10.922 25.985c.51-.482 1.096-.788 1.737-.788.834 0 1.58.51 2.18 1.293H75.57l.216-.505zm297.304.505c-.34-.832-.54-1.807-.54-2.868v-3.074c.84 1.407 2.07 2.312 3.467 2.312.63 0 1.224-.206 1.774-.548l1.05 4.18h-5.75zm4.096-19.777c-.37.215-.758.368-1.17.368-1.907 0-3.467-2.44-3.467-5.437v-1.643h4.636v6.714zm87.81-72.726c-1.14 0-2.176.556-3.022 1.47h-.813v-2.306c0-3.31 1.723-6.008 3.834-6.008 2.107 0 3.823 2.698 3.823 6.008v2.305h-.806c-.838-.913-1.874-1.47-3.015-1.47zm1.634 1.47h-3.27c.517-.365 1.07-.586 1.635-.586.567 0 1.115.22 1.635.585zm-16.4 0c-.837-.914-1.878-1.47-3.02-1.47-1.128 0-2.167.556-3.01 1.47h-.813v-2.306c0-3.31 1.722-6.008 3.82-6.008 2.113 0 3.832 2.698 3.832 6.008v2.305h-.81zm-1.382 0h-3.256c.516-.365 1.06-.586 1.617-.586.573 0 1.122.22 1.638.585zm-16.4 0c-.838-.914-1.877-1.47-3.018-1.47-1.132 0-2.17.556-3.01 1.47h-.8v-2.306c0-3.31 1.706-6.008 3.81-6.008 2.112 0 3.823 2.698 3.823 6.008v2.305h-.805zm-1.38 0h-3.264c.513-.365 1.064-.586 1.626-.586.572 0 1.118.22 1.64.585zm-16.39 0c-.848-.914-1.89-1.47-3.015-1.47-1.148 0-2.19.556-3.028 1.47h-.804v-2.306c0-3.31 1.723-6.008 3.833-6.008 2.106 0 3.826 2.698 3.826 6.008v2.305h-.81zm-1.39 0h-3.268c.516-.365 1.07-.586 1.643-.586.56 0 1.11.22 1.624.585zm-16.398 0c-.836-.914-1.87-1.47-3.013-1.47-1.14 0-2.184.556-3.026 1.47h-.81v-2.306c0-3.31 1.73-6.008 3.837-6.008 2.104 0 3.816 2.698 3.816 6.008v2.305h-.803zm-1.388 0h-3.267c.518-.365 1.07-.586 1.64-.586.565 0 1.112.22 1.627.585zm-16.385 0c-.838-.914-1.882-1.47-3.018-1.47-1.146 0-2.184.556-3.024 1.47h-.806v-2.306c0-3.31 1.714-6.008 3.83-6.008 2.107 0 3.823 2.698 3.823 6.008v2.305h-.806zm-1.388 0h-3.27c.518-.365 1.07-.586 1.638-.586.564 0 1.117.22 1.63.585zm-16.398 0c-.84-.914-1.886-1.47-3.022-1.47-1.142 0-2.177.556-3.02 1.47h-.807v-2.306c0-.015.004-.024.004-.038 1.873-1.705 3.822-3.41 5.785-5.077 1.113 1.044 1.865 2.933 1.865 5.115v2.305h-.805zm-1.384 0h-3.265c.513-.365 1.064-.586 1.626-.586.573 0 1.123.22 1.638.585zm19.044-22.326c.568 1.043.93 2.372.93 3.848v3.393c-.928-1.55-2.29-2.548-3.823-2.548-1.542 0-2.905.997-3.83 2.547v-2.09c2.54-1.984 4.84-3.74 6.722-5.152zm5.99 9.856c-2.116 0-3.828-2.694-3.828-6.01v-3.39c.937 1.553 2.3 2.547 3.83 2.547 1.538 0 2.895-.993 3.82-2.547v3.392c.002 3.315-1.715 6.01-3.82 6.01zm3.824-1.313v3.398c0 3.306-1.716 5.992-3.822 5.992-2.117 0-3.83-2.687-3.83-5.992v-3.397c.938 1.543 2.302 2.552 3.83 2.552 1.538 0 2.895-1.01 3.822-2.55zm-8.883 3.398v3.386c-.93-1.543-2.292-2.546-3.824-2.546-1.542 0-2.905 1.003-3.83 2.546v-3.386c0-3.318 1.714-6 3.83-6 2.107 0 3.823 2.682 3.823 6zm-12.722-.847c1.54 0 2.898-1.008 3.827-2.55v3.397c0 3.306-1.72 5.992-3.826 5.992-2.03 0-3.68-2.51-3.797-5.663.68-.562 1.363-1.123 2.03-1.672.55.312 1.148.496 1.768.496zm-.653-1.39c1.397-1.134 2.775-2.238 4.1-3.282-.612 2.03-1.922 3.437-3.445 3.437-.23 0-.44-.093-.655-.155zm-5.36 4.428c.316-.267.63-.535.95-.8v1.996c-.274-.463-.6-.853-.95-1.196zm2.198 5.89V145.3c.922 1.56 2.287 2.546 3.816 2.546 1.54 0 2.898-.985 3.827-2.545v3.398c0 .827-.14 1.59-.33 2.305h-6.98c-.196-.714-.332-1.478-.332-2.305zm17.77 0V145.3c.937 1.56 2.3 2.546 3.83 2.546 1.538 0 2.895-.985 3.82-2.545v3.398c0 .827-.137 1.59-.33 2.305h-6.987c-.195-.714-.333-1.478-.333-2.305zm18.128-51.427c.91 1.254 2.12 2.083 3.482 2.083 1.532 0 2.898-1.02 3.82-2.55v3.384c0 3.314-1.716 6-3.82 6-2.112 0-3.833-2.686-3.833-6v-2.3c.116-.2.234-.41.35-.616zm14.882-25.78c.8 1.094 1.324 2.662 1.324 4.454v3.386c-.935-1.553-2.308-2.543-3.827-2.543-.226 0-.44.063-.656.104 1.017-1.745 2.07-3.546 3.158-5.4zm10.007-6.767c.062.11.125.22.192.33v2.806c0 3.295-1.71 5.988-3.822 5.988-2.106 0-3.818-2.693-3.818-5.99v-.725l.892-1.513c.826.864 1.832 1.39 2.927 1.39 1.436 0 2.71-.894 3.63-2.287zm32.572 57.525c-.213.064-.424.108-.65.108-2.104 0-3.81-2.69-3.81-5.995v-2.475c2.13 3.91 3.567 6.65 4.46 8.363zm23.755 20.028c-.6.414-1.116.983-1.55 1.678v-2.97c.517.425 1.03.856 1.55 1.292zm5.99 6.495v2.232h-.72c-.833-.907-1.87-1.47-2.99-1.47-.807 0-1.552.284-2.224.764-.295.194-.564.438-.82.706h-.785v-2.305c0-2.43.928-4.522 2.257-5.462.092-.063.2-.068.293-.112 1.644 1.39 3.273 2.808 4.87 4.232.075.452.12.924.12 1.416zm-2.282 2.233h-3.114c.504-.318 1.043-.505 1.578-.505.53 0 1.05.187 1.536.505zm-15.39-7c-.926-1.542-2.29-2.545-3.823-2.545-1.537 0-2.897 1.003-3.833 2.546v-3.386c0-3.318 1.722-6 3.833-6 2.107 0 3.823 2.682 3.823 6v3.386zm1.245 4.695v-3.186c.922 1.465 2.235 2.423 3.715 2.423.8 0 1.546-.284 2.216-.76.612-.414 1.156-1.004 1.61-1.724v3.32c0 .802-.13 1.535-.315 2.23h-6.895c-.194-.71-.332-1.475-.332-2.302zm7.54-8.008c0 2.427-.923 4.51-2.246 5.453-.452.3-.95.467-1.47.467-2.11 0-3.824-2.687-3.824-5.992v-3.182c.922 1.465 2.235 2.41 3.715 2.41.813 0 1.56-.28 2.22-.755.11-.08.208-.187.314-.275l1.29 1.053v.822zm-2.255-2.62c-.455.297-.946.464-1.462.464-1.803 0-3.283-1.967-3.688-4.593 1.647 1.286 3.377 2.665 5.172 4.11-.01.005-.017.015-.022.02zm-6.53-2.152c-.926-1.55-2.29-2.547-3.823-2.547-1.537 0-2.897.998-3.833 2.548v-3.393c0-1.8.535-3.372 1.337-4.465 1.728 1.292 3.888 2.924 6.318 4.813v3.045zm-7.656-8.08v-.768c.134.095.238.173.367.272-.117.166-.25.313-.368.495zm-5.068 10.696c-2.104 0-3.81-2.694-3.81-6.01v-3.39c.927 1.553 2.28 2.547 3.81 2.547 1.542 0 2.9-.993 3.836-2.547v3.392c0 3.315-1.72 6.01-3.836 6.01zm3.836-1.313v3.398c0 3.306-1.72 5.992-3.836 5.992-2.104 0-3.81-2.687-3.81-5.992v-3.397c.927 1.543 2.28 2.552 3.81 2.552 1.542 0 2.9-1.01 3.836-2.55zm-12.72-3.85c-1.526 0-2.884.998-3.822 2.548v-3.393c0-3.31 1.722-5.993 3.82-5.993 2.113 0 3.832 2.685 3.832 5.993v3.393c-.926-1.55-2.284-2.547-3.83-2.547zm3.83 7.248v3.386c-.926-1.543-2.284-2.546-3.83-2.546-1.526 0-2.884 1.003-3.822 2.546v-3.386c0-3.318 1.722-6 3.82-6 2.113 0 3.832 2.682 3.832 6zm-3.83-15.34c-1.526 0-2.884 1.014-3.822 2.56v-3.39c0-3.312 1.722-6.003 3.82-6.003 2.113 0 3.832 2.69 3.832 6.004v3.387c-.926-1.545-2.284-2.56-3.83-2.56zm0-8.06c-1.526 0-2.884.988-3.822 2.53v-3.387c0-3.307 1.722-6 3.82-6 2.113 0 3.832 2.693 3.832 6v3.39c-.926-1.544-2.284-2.533-3.83-2.533zm0-8.102c-1.526 0-2.884.998-3.822 2.546v-3.39c0-2.655 1.12-4.89 2.652-5.672 1.924 3.438 3.592 6.44 5 9.012v.05c-.926-1.548-2.284-2.546-3.83-2.546zm-3.822-5.53v-3.398c0-.667.1-1.286.23-1.884.645 1.136 1.257 2.225 1.853 3.282-.796.435-1.526 1.08-2.082 2zm-5.07 34.948c-2.11 0-3.828-2.694-3.828-6.01v-3.39c.942 1.553 2.3 2.547 3.83 2.547 1.538 0 2.893-.993 3.822-2.547v3.392c0 3.315-1.714 6.01-3.823 6.01zm3.825-1.313v3.398c0 3.306-1.715 5.992-3.823 5.992-2.11 0-3.83-2.687-3.83-5.992v-3.397c.943 1.543 2.302 2.552 3.83 2.552 1.538 0 2.893-1.01 3.823-2.55zm-3.824-6.772c-2.112 0-3.83-2.69-3.83-6v-3.402c.942 1.556 2.3 2.552 3.83 2.552 1.538 0 2.893-.996 3.822-2.552v3.403c0 3.308-1.714 5.998-3.823 5.998zm0-8.092c-2.112 0-3.83-2.69-3.83-5.995v-3.39c.942 1.54 2.3 2.558 3.83 2.558 1.538 0 2.893-1.017 3.822-2.56v3.393c0 3.305-1.714 5.996-3.823 5.996zm0-8.077c-2.112 0-3.83-2.697-3.83-6.01v-3.387c.942 1.544 2.3 2.547 3.83 2.547 1.538 0 2.893-1.003 3.822-2.547v3.388c0 3.313-1.714 6.01-3.823 6.01zm0-8.093c-2.112 0-3.83-2.685-3.83-6v-3.383c.942 1.53 2.3 2.55 3.83 2.55 1.538 0 2.893-1.02 3.822-2.55v3.384c0 3.314-1.714 6-3.823 6zm0-8.08c-2.112 0-3.83-2.697-3.83-6V88.71c.942 1.55 2.3 2.562 3.83 2.562.406 0 .79-.107 1.152-.254.754 1.32 1.484 2.6 2.184 3.83-.636 1.91-1.865 3.26-3.337 3.26zm0-8.083c-2.112 0-3.83-2.695-3.83-5.998V82.37c1.546 2.66 3.005 5.198 4.37 7.578-.172.047-.356.076-.54.076zm-8.89 43.347c-1.528 0-2.89.998-3.808 2.548v-3.393c0-3.31 1.705-5.993 3.81-5.993 2.11 0 3.822 2.685 3.822 5.993v3.393c-.927-1.55-2.284-2.547-3.823-2.547zm3.824 7.248v3.386c-.927-1.543-2.284-2.546-3.823-2.546-1.528 0-2.89 1.003-3.808 2.546v-3.386c0-3.318 1.705-6 3.81-6 2.11 0 3.822 2.682 3.822 6zm-3.823-15.34c-1.528 0-2.89 1.014-3.808 2.56v-3.39c0-3.312 1.705-6.003 3.81-6.003 2.11 0 3.822 2.69 3.822 6.004v3.387c-.927-1.545-2.284-2.56-3.823-2.56zm0-8.06c-1.528 0-2.89.988-3.808 2.53v-3.387c0-3.307 1.705-6 3.81-6 2.11 0 3.822 2.693 3.822 6v3.39c-.927-1.544-2.284-2.533-3.823-2.533zm0-8.102c-1.528 0-2.89.998-3.808 2.546v-3.39c0-3.298 1.705-5.993 3.81-5.993 2.11 0 3.822 2.694 3.822 5.99v3.392c-.927-1.548-2.284-2.546-3.823-2.546zm0-8.086c-1.528 0-2.89 1-3.808 2.556v-3.398c0-3.3 1.705-5.987 3.81-5.987 2.11 0 3.822 2.688 3.822 5.988v3.398c-.927-1.555-2.284-2.556-3.823-2.556zm0-8.083c-1.528 0-2.89 1.01-3.808 2.546v-3.386c0-3.31 1.705-6.01 3.81-6.01 2.11 0 3.822 2.7 3.822 6.01v3.386c-.927-1.535-2.284-2.546-3.823-2.546zm0-8.08c-1.528 0-2.89 1-3.808 2.546v-3.387c0-3.313 1.705-6.01 3.81-6.01 2.11 0 3.822 2.696 3.822 6.01v3.387c-.927-1.545-2.284-2.546-3.823-2.546zm0-8.08c-1.528 0-2.89.99-3.808 2.543v-3.386c0-2.308.84-4.247 2.065-5.248 1.404 2.396 2.75 4.7 4.036 6.914-.683-.51-1.457-.823-2.292-.823zm-3.808-5.543v-3.386c0-.206.037-.39.05-.585.474.798.934 1.588 1.392 2.367-.545.42-1.044.933-1.442 1.604zm-8.898 65.977c.927 1.543 2.293 2.552 3.818 2.552 1.534 0 2.892-1.01 3.822-2.55v3.396c0 3.306-1.71 5.992-3.822 5.992-2.106 0-3.818-2.687-3.818-5.992v-3.397zm3.818 1.314c-2.106 0-3.818-2.694-3.818-6.01v-3.39c.927 1.553 2.293 2.547 3.818 2.547 1.534 0 2.892-.993 3.822-2.547v3.392c0 3.315-1.71 6.01-3.822 6.01zm0-8.086c-2.106 0-3.818-2.69-3.818-6v-3.402c.927 1.556 2.293 2.552 3.818 2.552 1.534 0 2.892-.996 3.822-2.552v3.403c0 3.308-1.71 5.998-3.822 5.998zm0-8.092c-2.106 0-3.818-2.69-3.818-5.995v-3.39c.927 1.54 2.293 2.558 3.818 2.558 1.534 0 2.892-1.017 3.822-2.56v3.393c0 3.305-1.71 5.996-3.822 5.996zm0-8.077c-2.106 0-3.818-2.697-3.818-6.01v-3.387c.927 1.544 2.293 2.547 3.818 2.547 1.534 0 2.892-1.003 3.822-2.547v3.388c0 3.313-1.71 6.01-3.822 6.01zm0-8.093c-2.106 0-3.818-2.685-3.818-6v-3.383c.927 1.53 2.293 2.55 3.818 2.55 1.534 0 2.892-1.02 3.822-2.55v3.384c0 3.314-1.71 6-3.822 6zm0-8.08c-2.106 0-3.818-2.697-3.818-6V88.71c.927 1.55 2.293 2.562 3.818 2.562 1.534 0 2.892-1.013 3.822-2.562v3.397c0 3.303-1.71 6-3.822 6zm0-8.083c-2.106 0-3.818-2.695-3.818-5.998V80.63c.927 1.54 2.293 2.55 3.818 2.55 1.534 0 2.892-1.01 3.822-2.55v3.396c0 3.303-1.71 5.998-3.822 5.998zm0-8.086c-2.106 0-3.818-2.685-3.818-5.993v-3.403c.927 1.548 2.293 2.55 3.818 2.55 1.534 0 2.892-1.002 3.822-2.55v3.403c0 3.308-1.71 5.993-3.822 5.993zm-5.726-11.563c.225-.38.447-.754.673-1.14v2.01c-.2-.33-.436-.6-.674-.87zm-4.836 8.28c.51-.397 1.075-.64 1.683-.64 2.106 0 3.826 2.697 3.826 6.01v3.388c-.935-1.545-2.308-2.546-3.827-2.546-1.55 0-2.908 1-3.832 2.546v-3.387c0-.746.097-1.45.26-2.112.617-1.06 1.247-2.15 1.89-3.26zm1.683 54.716c-1.55 0-2.908.998-3.832 2.548v-3.393c0-3.31 1.723-5.993 3.833-5.993 2.106 0 3.826 2.685 3.826 5.993v3.393c-.935-1.55-2.307-2.547-3.827-2.547zm3.826 7.248v3.386c-.935-1.543-2.308-2.546-3.827-2.546-1.55 0-2.908 1.003-3.832 2.546v-3.386c0-3.318 1.723-6 3.833-6 2.107 0 3.826 2.682 3.826 6zm-3.827-15.34c-1.55 0-2.908 1.014-3.832 2.56v-3.39c0-3.312 1.723-6.003 3.833-6.003 2.106 0 3.826 2.69 3.826 6.004v3.387c-.935-1.545-2.307-2.56-3.827-2.56zm0-8.06c-1.55 0-2.908.988-3.832 2.53v-3.387c0-3.307 1.723-6 3.833-6 2.106 0 3.826 2.693 3.826 6v3.39c-.935-1.544-2.307-2.533-3.827-2.533zm0-8.102c-1.55 0-2.908.998-3.832 2.546v-3.39c0-3.298 1.723-5.993 3.833-5.993 2.106 0 3.826 2.694 3.826 5.99v3.392c-.935-1.548-2.307-2.546-3.827-2.546zm0-8.086c-1.55 0-2.908 1-3.832 2.556v-3.398c0-3.3 1.723-5.987 3.833-5.987 2.106 0 3.826 2.688 3.826 5.988v3.398c-.935-1.555-2.307-2.556-3.827-2.556zm0-8.083c-1.55 0-2.908 1.01-3.832 2.546v-3.386c0-3.31 1.723-6.01 3.833-6.01 2.106 0 3.826 2.7 3.826 6.01v3.386c-.935-1.535-2.307-2.546-3.827-2.546zm-8.897-1.676c1.532 0 2.898-1.012 3.82-2.56v3.396c0 3.303-1.716 6-3.82 6-1.125 0-2.108-.808-2.808-2.03.87-1.528 1.79-3.143 2.748-4.812.02 0 .037.007.06.007zm.712-1.36c.975-1.7 2.004-3.49 3.074-5.34-.16 2.673-1.423 4.847-3.074 5.34zm-.712 48.624c-2.112 0-3.833-2.694-3.833-6.01v-3.39c.935 1.553 2.297 2.547 3.833 2.547 1.532 0 2.898-.993 3.82-2.547v3.392c0 3.315-1.716 6.01-3.82 6.01zm3.82-1.313v3.398c0 3.306-1.716 5.992-3.82 5.992-2.112 0-3.833-2.687-3.833-5.992v-3.397c.935 1.543 2.297 2.552 3.833 2.552 1.53 0 2.898-1.01 3.82-2.55zm-3.82-6.772c-2.112 0-3.833-2.69-3.833-6v-3.402c.935 1.556 2.297 2.552 3.833 2.552 1.532 0 2.898-.996 3.82-2.552v3.403c0 3.308-1.716 5.998-3.82 5.998zm0-8.092c-2.112 0-3.833-2.69-3.833-5.995v-3.39c.935 1.54 2.297 2.558 3.833 2.558 1.532 0 2.898-1.017 3.82-2.56v3.393c0 3.305-1.716 5.996-3.82 5.996zm0-8.077c-2.112 0-3.833-2.697-3.833-6.01v-3.387c.935 1.544 2.297 2.547 3.833 2.547 1.532 0 2.898-1.003 3.82-2.547v3.388c0 3.313-1.716 6.01-3.82 6.01zm-5.073-14.092v3.398c-.332-.563-.725-1.048-1.16-1.438.372-.668.754-1.354 1.152-2.056 0 .036.008.064.008.096zm-1.777 3.06c1.062 1.06 1.777 2.902 1.777 5.023v3.392c-.926-1.548-2.274-2.546-3.816-2.546-.493 0-.96.134-1.404.324 1.028-1.872 2.173-3.93 3.443-6.193zm-2.04 30.123c-1.533 0-2.904.998-3.836 2.548v-3.393c0-3.31 1.73-5.993 3.837-5.993 2.104 0 3.816 2.685 3.816 5.993v3.393c-.926-1.55-2.275-2.547-3.816-2.547zm3.817 7.248v3.386c-.926-1.543-2.274-2.546-3.816-2.546-1.534 0-2.905 1.003-3.837 2.546v-3.386c0-3.318 1.73-6 3.837-6 2.103 0 3.816 2.682 3.816 6zm-3.816-15.34c-1.534 0-2.905 1.014-3.837 2.56v-3.39c0-3.312 1.73-6.003 3.837-6.003 2.104 0 3.816 2.69 3.816 6.004v3.387c-.926-1.545-2.275-2.56-3.816-2.56zm0-8.06c-1.534 0-2.905.988-3.837 2.53v-3.387c0-3.307 1.73-6 3.837-6 2.104 0 3.816 2.693 3.816 6v3.39c-.926-1.544-2.275-2.533-3.816-2.533zm-5.07-.857c0 2.995-1.413 5.463-3.245 5.903.708-1.365 1.77-3.375 3.244-6.116v.214zm10.126 32.338V145.3c.935 1.56 2.297 2.546 3.833 2.546 1.532 0 2.898-.985 3.82-2.545v3.398c0 .827-.138 1.59-.333 2.305h-6.984c-.196-.714-.337-1.478-.337-2.305zm17.79 0V145.3c.928 1.56 2.294 2.546 3.82 2.546 1.533 0 2.89-.985 3.82-2.545v3.398c0 .827-.138 1.59-.335 2.305h-6.972c-.194-.714-.332-1.478-.332-2.305zm17.767 0V145.3c.942 1.56 2.3 2.546 3.83 2.546 1.538 0 2.893-.985 3.822-2.545v3.398c0 .827-.143 1.59-.336 2.305h-6.98c-.198-.714-.336-1.478-.336-2.305zm17.795 0V145.3c.926 1.56 2.28 2.546 3.81 2.546 1.54 0 2.9-.985 3.835-2.545v3.398c0 .827-.14 1.59-.336 2.305h-6.98c-.19-.714-.33-1.478-.33-2.305zm35.76 2.305c-.18-.696-.308-1.43-.308-2.23v-.195c.892.808 1.768 1.62 2.623 2.426h-2.314zm-29.792-26.064c.033.023.6.428 1.517 1.097-.455 2.534-1.91 4.41-3.676 4.41-2.104 0-3.81-2.69-3.81-5.998v-3.404c.927 1.556 2.28 2.552 3.81 2.552.43 0 .822-.115 1.213-.264.393.77.59 1.164.6 1.186l.346.42zM426.3 41.915c1.125 2.835-.27 6.043-3.108 7.167-.328.13-.654.212-.984.28v-1.94c1.386-.473 2.404-1.833 2.404-3.485 0-1.658-1.02-3.01-2.404-3.483v-1.93c1.796.35 3.376 1.567 4.093 3.39zm-10.288 4.05c-1.117-2.837.276-6.05 3.115-7.17.36-.14.72-.24 1.08-.302v1.96c-1.388.47-2.403 1.823-2.403 3.483 0 1.654 1.016 3.017 2.403 3.49v1.943c-1.832-.326-3.46-1.55-4.195-3.405zm4.974 13.95h.344c.73 1.23 1.434 2.427 2.137 3.62-.694 1.34-1.73 2.232-2.925 2.232-.862 0-1.64-.493-2.276-1.254.884-1.5 1.79-3.03 2.72-4.598zm-36.93 65.023l.35-.42c.01-.02.162-.327.475-.94.035.003.072.018.104.018 1.54 0 2.896-.996 3.822-2.552v3.403c0 3.308-1.716 5.998-3.822 5.998-1.57 0-2.898-1.513-3.483-3.64 1.554-1.148 2.516-1.84 2.555-1.87zm-30.92 24.967c-.05.384-.122.747-.218 1.096h-.968c.39-.364.792-.727 1.187-1.096zm399.198 92.13c-.418-.896-.682-1.984-.682-3.17v-3.09c.85 1.402 2.085 2.31 3.48 2.31 1.39 0 2.618-.907 3.456-2.31v3.09c0 1.186-.255 2.273-.674 3.17h-5.58zm-16.117 0c-.42-.896-.68-1.984-.68-3.17v-3.09c.842 1.402 2.083 2.31 3.472 2.31 1.393 0 2.626-.907 3.46-2.31v3.09c0 1.186-.258 2.273-.674 3.17h-5.58zm-16.127 0c-.422-.896-.672-1.984-.672-3.17v-3.09c.836 1.402 2.066 2.31 3.468 2.31 1.387 0 2.627-.907 3.46-2.31v3.09c0 1.186-.258 2.273-.67 3.17h-5.586zm-16.102 0c-.415-.896-.676-1.984-.676-3.17v-3.063c.848 1.39 2.074 2.284 3.45 2.284h.007c1.4 0 2.614-.896 3.462-2.284v3.064c0 1.185-.256 2.272-.673 3.17h-5.572zm-16.123 0c-.414-.896-.676-1.984-.676-3.17v-3.09c.843 1.402 2.092 2.31 3.48 2.31 1.386 0 2.626-.907 3.46-2.31v3.09c0 1.186-.262 2.273-.682 3.17h-5.583zm-16.11 0c-.414-.896-.675-1.984-.675-3.17v-3.09c.828 1.402 2.08 2.31 3.456 2.31 1.397 0 2.636-.907 3.48-2.31v3.09c0 1.186-.26 2.273-.68 3.17h-5.582zm-16.12 0c-.42-.896-.678-1.984-.678-3.17v-3.09c.842 1.402 2.063 2.31 3.46 2.31 1.397 0 2.63-.907 3.476-2.31v3.09c0 1.186-.26 2.273-.68 3.17h-5.577zm-16.12 0c-.426-.896-.685-1.984-.685-3.17v-3.09c.85 1.402 2.08 2.31 3.475 2.31s2.62-.907 3.464-2.31v3.09c0 1.186-.254 2.273-.678 3.17h-5.578zm-16.12 0c-.42-.896-.675-1.984-.675-3.17v-3.09c.847 1.402 2.07 2.31 3.458 2.31 1.394 0 2.633-.907 3.478-2.31v3.09c0 1.186-.263 2.273-.682 3.17h-5.578zm-16.123 0c-.413-.896-.675-1.984-.675-3.17v-3.09c.843 1.402 2.067 2.31 3.466 2.31 1.384 0 2.624-.907 3.468-2.31v3.09c0 1.186-.257 2.273-.676 3.17h-5.582zm-16.115 0c-.413-.896-.676-1.984-.676-3.17v-3.073c.85 1.394 2.07 2.294 3.46 2.294h.01c1.384 0 2.623-.908 3.465-2.312v3.092c0 .748-.097 1.457-.273 2.105-.103.385-.246.735-.4 1.064h-5.585zm-16.127 0c-.418-.896-.678-1.984-.678-3.17v-3.09c.846 1.402 2.09 2.31 3.474 2.31 1.4 0 2.626-.907 3.466-2.31v3.09c0 1.186-.26 2.273-.68 3.17h-5.582zm-16.113 0c-.415-.896-.675-1.984-.675-3.17v-3.09c.838 1.402 2.078 2.31 3.46 2.31 1.393 0 2.627-.907 3.476-2.31v3.09c0 1.186-.26 2.273-.677 3.17h-5.583zm-16.124 0c-.41-.896-.674-1.984-.674-3.17v-3.09c.842 1.402 2.077 2.31 3.467 2.31s2.632-.907 3.468-2.31v3.09c0 1.186-.26 2.273-.675 3.17h-5.587zm-16.115 0c-.418-.896-.677-1.984-.677-3.17v-3.09c.834 1.402 2.08 2.31 3.48 2.31 1.374 0 2.615-.907 3.452-2.31v3.09c0 1.186-.26 2.273-.674 3.17h-5.58zm-16.12 0c-.42-.896-.676-1.984-.676-3.17v-3.09c.843 1.402 2.08 2.31 3.466 2.31 1.395 0 2.628-.907 3.47-2.31v3.09c0 1.186-.255 2.273-.68 3.17h-5.58zm-16.12 0c-.416-.896-.674-1.984-.674-3.17v-3.09c.838 1.402 2.07 2.31 3.457 2.31 1.396 0 2.63-.907 3.478-2.31v3.09c0 1.186-.258 2.273-.673 3.17h-5.587zm-16.124 0c-.414-.896-.674-1.984-.674-3.17v-3.09c.846 1.402 2.074 2.31 3.47 2.31 1.39 0 2.615-.907 3.462-2.31v3.09c0 1.186-.26 2.273-.675 3.17h-5.583zm-14.786-11.232c.374.156.76.277 1.167.277 1.39 0 2.627-.906 3.47-2.313v3.075c0 3-1.56 5.446-3.47 5.446-.533 0-1.036-.228-1.49-.58l.323-1.273v-4.632zm0-1.218v-6.107c.374.155.76.278 1.167.278 1.39 0 2.627-.92 3.47-2.316v3.074c0 3.003-1.56 5.442-3.47 5.442-.412 0-.8-.156-1.167-.37zm9.52-3.496c1.914 0 3.465 2.442 3.465 5.438v3.076c-.838-1.398-2.07-2.313-3.464-2.313s-2.626.916-3.47 2.314v-3.076c0-2.996 1.556-5.437 3.47-5.437zm-3.467 1.183v-3.08c0-2.997 1.556-5.437 3.47-5.437s3.463 2.44 3.463 5.436v3.08c-.838-1.407-2.07-2.316-3.464-2.316s-2.626.91-3.47 2.317zm3.47 6.138c1.912 0 3.463 2.45 3.463 5.458v3.063c-.838-1.393-2.07-2.305-3.464-2.305s-2.626.912-3.47 2.306v-3.062c0-3.008 1.556-5.457 3.47-5.457zm0 7.335c.836 0 1.577.51 2.172 1.293h-4.354c.595-.784 1.34-1.293 2.18-1.293zm8.06-9.985c1.39 0 2.615-.897 3.462-2.3v3.067c0 3.003-1.56 5.44-3.462 5.44-1.92 0-3.47-2.437-3.47-5.44v-3.068c.846 1.402 2.075 2.3 3.47 2.3zm-3.47-6.568v-3.07c.847 1.388 2.075 2.318 3.47 2.318 1.39 0 2.616-.93 3.463-2.318v3.07c0 3-1.56 5.44-3.462 5.44-1.92 0-3.47-2.44-3.47-5.44zm11.526 1.9c1.915 0 3.47 2.44 3.47 5.436v3.076c-.843-1.398-2.078-2.313-3.47-2.313s-2.632.916-3.466 2.314v-3.076c0-2.996 1.567-5.437 3.466-5.437zm-3.466 1.18v-3.08c0-2.996 1.566-5.436 3.466-5.436 1.915 0 3.47 2.44 3.47 5.436v3.08c-.843-1.407-2.078-2.316-3.47-2.316s-2.632.91-3.466 2.317zm3.466 6.14c1.915 0 3.47 2.448 3.47 5.456v3.063c-.843-1.393-2.078-2.305-3.47-2.305s-2.632.912-3.466 2.306v-3.062c0-3.008 1.567-5.457 3.466-5.457zm0 7.333c.838 0 1.584.51 2.183 1.293h-4.355c.59-.784 1.34-1.293 2.17-1.293zm8.055-9.985c1.396 0 2.63-.897 3.478-2.3v3.067c0 3.003-1.55 5.44-3.477 5.44-1.906 0-3.456-2.437-3.456-5.44v-3.068c.838 1.402 2.07 2.3 3.457 2.3zm-3.456-6.568v-3.07c.838 1.388 2.07 2.318 3.457 2.318 1.396 0 2.63-.93 3.478-2.318v3.07c0 3-1.55 5.44-3.477 5.44-1.907 0-3.456-2.44-3.456-5.44zm11.524 1.9c1.915 0 3.47 2.44 3.47 5.436v3.076c-.852-1.398-2.077-2.313-3.47-2.313-1.396 0-2.632.916-3.47 2.314v-3.076c0-2.996 1.555-5.437 3.47-5.437zm-3.47 1.18v-3.08c0-2.996 1.555-5.436 3.47-5.436s3.47 2.44 3.47 5.436v3.08c-.852-1.407-2.077-2.316-3.47-2.316-1.395 0-2.632.91-3.47 2.317zm3.47 6.14c1.915 0 3.47 2.448 3.47 5.456v3.063c-.852-1.393-2.077-2.305-3.47-2.305-1.396 0-2.632.912-3.47 2.306v-3.062c0-3.008 1.555-5.457 3.47-5.457zm0 7.333c.838 0 1.585.51 2.184 1.293h-4.363c.594-.784 1.34-1.293 2.178-1.293zm8.06-9.985c1.395 0 2.628-.897 3.47-2.3v3.067c0 3.003-1.56 5.44-3.47 5.44-1.91 0-3.466-2.437-3.466-5.44v-3.068c.843 1.402 2.08 2.3 3.466 2.3zm-3.466-6.568v-3.07c.843 1.388 2.08 2.318 3.466 2.318 1.395 0 2.628-.93 3.47-2.318v3.07c0 3-1.56 5.44-3.47 5.44-1.91 0-3.466-2.44-3.466-5.44zm11.53 1.9c1.907 0 3.47 2.44 3.47 5.436v3.076c-.848-1.398-2.074-2.313-3.47-2.313-1.388 0-2.624.916-3.48 2.314v-3.076c0-2.996 1.564-5.437 3.48-5.437zm-3.48 1.18v-3.08c0-2.996 1.564-5.436 3.48-5.436 1.907 0 3.47 2.44 3.47 5.436v3.08c-.848-1.407-2.074-2.316-3.47-2.316-1.388 0-2.624.91-3.48 2.317zm3.48 6.14c1.907 0 3.47 2.448 3.47 5.456v3.063c-.848-1.393-2.074-2.305-3.47-2.305-1.388 0-2.624.912-3.48 2.306v-3.062c0-3.008 1.564-5.457 3.48-5.457zm0 7.333c.838 0 1.58.51 2.174 1.293h-4.358c.598-.784 1.34-1.293 2.183-1.293zm8.067-9.985c1.374 0 2.615-.897 3.452-2.3v3.067c0 3.003-1.558 5.44-3.453 5.44-1.925 0-3.48-2.437-3.48-5.44v-3.068c.834 1.402 2.08 2.3 3.48 2.3zm-3.48-6.568v-3.07c.834 1.388 2.08 2.318 3.48 2.318 1.374 0 2.615-.93 3.452-2.318v3.07c0 3-1.558 5.44-3.453 5.44-1.925 0-3.48-2.44-3.48-5.44zm11.53 1.9c1.91 0 3.458 2.44 3.458 5.436v3.076c-.835-1.398-2.07-2.313-3.458-2.313-1.394 0-2.628.916-3.47 2.314v-3.076c0-2.996 1.555-5.437 3.47-5.437zm-3.47 1.18v-3.08c0-2.996 1.556-5.436 3.47-5.436 1.91 0 3.46 2.44 3.46 5.436v3.08c-.836-1.407-2.07-2.316-3.46-2.316-1.393 0-2.628.91-3.47 2.317zm3.47 6.14c1.91 0 3.458 2.448 3.458 5.456v3.063c-.835-1.393-2.07-2.305-3.458-2.305-1.394 0-2.628.912-3.47 2.306v-3.062c0-3.008 1.555-5.457 3.47-5.457zm0 7.333c.835 0 1.577.51 2.175 1.293h-4.354c.594-.784 1.34-1.293 2.18-1.293zm8.057-9.985c1.39 0 2.632-.897 3.468-2.3v3.067c0 3.003-1.558 5.44-3.468 5.44s-3.468-2.437-3.468-5.44v-3.068c.842 1.402 2.077 2.3 3.467 2.3zm-3.468-6.568v-3.07c.842 1.388 2.077 2.318 3.467 2.318s2.632-.93 3.468-2.318v3.07c0 3-1.558 5.44-3.468 5.44s-3.468-2.44-3.468-5.44zm11.528 1.9c1.91 0 3.47 2.44 3.47 5.436v3.076c-.842-1.398-2.087-2.313-3.47-2.313-1.396 0-2.63.916-3.475 2.314v-3.076c0-2.996 1.56-5.437 3.475-5.437zm-3.474 1.18v-3.08c0-2.996 1.56-5.436 3.475-5.436 1.91 0 3.47 2.44 3.47 5.436v3.08c-.843-1.407-2.088-2.316-3.47-2.316-1.397 0-2.632.91-3.476 2.317zm3.474 6.14c1.91 0 3.47 2.448 3.47 5.456v3.063c-.842-1.393-2.087-2.305-3.47-2.305-1.396 0-2.63.912-3.475 2.306v-3.062c0-3.008 1.56-5.457 3.475-5.457zm0 7.333c.83 0 1.58.51 2.176 1.293h-4.354c.593-.784 1.337-1.293 2.178-1.293zm8.055-9.985c1.392 0 2.626-.897 3.475-2.3v3.067c0 3.003-1.555 5.44-3.475 5.44-1.91 0-3.46-2.437-3.46-5.44v-3.068c.837 1.402 2.077 2.3 3.46 2.3zm-3.46-6.568v-3.07c.837 1.388 2.077 2.318 3.46 2.318 1.392 0 2.626-.93 3.475-2.318v3.07c0 3-1.555 5.44-3.475 5.44-1.91 0-3.46-2.44-3.46-5.44zm11.525 1.9c1.915 0 3.46 2.44 3.46 5.436v3.076c-.837-1.398-2.064-2.313-3.46-2.313-1.39 0-2.623.916-3.458 2.314v-3.076c0-2.996 1.545-5.437 3.458-5.437zm-3.458 1.18v-3.08c0-2.996 1.546-5.436 3.458-5.436 1.915 0 3.46 2.44 3.46 5.436v3.08c-.837-1.407-2.064-2.316-3.46-2.316-1.39 0-2.623.91-3.458 2.317zm3.458 6.14c1.915 0 3.46 2.448 3.46 5.456v3.063c-.837-1.393-2.064-2.305-3.46-2.305-1.39 0-2.623.912-3.458 2.306v-3.062c0-3.008 1.545-5.457 3.458-5.457zm0 7.333c.836 0 1.58.51 2.175 1.293h-4.346c.59-.784 1.332-1.293 2.17-1.293zm8.058-9.985c1.4 0 2.626-.897 3.466-2.3v3.067c0 3.003-1.56 5.44-3.466 5.44-1.91 0-3.474-2.437-3.474-5.44v-3.068c.846 1.402 2.09 2.3 3.474 2.3zm-3.473-6.568v-3.07c.846 1.388 2.09 2.318 3.474 2.318 1.4 0 2.626-.93 3.466-2.318v3.07c0 3-1.56 5.44-3.466 5.44-1.912 0-3.474-2.44-3.474-5.44zm11.532 1.9c1.908 0 3.466 2.44 3.466 5.436v3.076c-.84-1.398-2.068-2.313-3.465-2.313-1.395 0-2.618.91-3.465 2.302v-3.063c0-2.998 1.553-5.44 3.465-5.44zm-3.465 1.17v-3.07c0-2.995 1.553-5.435 3.465-5.435 1.908 0 3.466 2.44 3.466 5.436v3.08c-.84-1.407-2.068-2.316-3.465-2.316-1.395 0-2.618.908-3.465 2.304zm3.465 6.15c1.908 0 3.466 2.448 3.466 5.456v3.063c-.84-1.393-2.068-2.305-3.465-2.305-1.395 0-2.618.908-3.465 2.295v-3.053c0-3.007 1.553-5.456 3.465-5.456zm0 7.333c.834 0 1.58.51 2.172 1.293h-4.35c.6-.784 1.34-1.293 2.178-1.293zm8.055-9.985h.01c1.384 0 2.623-.897 3.465-2.3v3.067c0 .746-.097 1.464-.273 2.115-.53 1.956-1.763 3.326-3.192 3.326-1.92 0-3.468-2.438-3.468-5.44v-3.058c.848 1.392 2.07 2.29 3.458 2.29zm-3.46-6.568v-3.057c.85 1.38 2.07 2.305 3.46 2.305h.01c1.384 0 2.623-.93 3.465-2.318v3.07c0 .752-.097 1.465-.273 2.116-.53 1.95-1.763 3.324-3.192 3.324-1.92 0-3.47-2.44-3.47-5.44zm11.52 1.9c1.916 0 3.467 2.44 3.467 5.436v3.076c-.842-1.398-2.075-2.313-3.467-2.313-1.396 0-2.634.916-3.466 2.314v-3.076c0-2.996 1.56-5.437 3.466-5.437zm-3.466 1.18v-3.08c0-2.996 1.56-5.436 3.466-5.436 1.916 0 3.467 2.44 3.467 5.436v3.08c-.842-1.407-2.075-2.316-3.467-2.316-1.396 0-2.634.91-3.466 2.317zm3.466 6.14c1.916 0 3.467 2.448 3.467 5.456v3.063c-.842-1.393-2.075-2.305-3.467-2.305-1.396 0-2.634.912-3.466 2.306v-3.062c0-3.008 1.56-5.457 3.466-5.457zm0 7.333c.834 0 1.585.51 2.18 1.293h-4.354c.594-.784 1.336-1.293 2.174-1.293zm8.063-9.985c1.384 0 2.624-.897 3.468-2.3v3.067c0 3.003-1.55 5.44-3.467 5.44-1.915 0-3.466-2.437-3.466-5.44v-3.068c.843 1.402 2.068 2.3 3.466 2.3zm-3.465-6.568v-3.07c.843 1.388 2.067 2.318 3.466 2.318 1.384 0 2.624-.93 3.468-2.318v3.07c0 3-1.55 5.44-3.468 5.44-1.916 0-3.466-2.44-3.466-5.44zm11.523 1.9c1.917 0 3.465 2.44 3.465 5.436v3.076c-.836-1.398-2.078-2.313-3.464-2.313-1.384 0-2.625.916-3.47 2.314v-3.076c0-2.996 1.558-5.437 3.47-5.437zm-3.47 1.18v-3.08c0-2.996 1.558-5.436 3.47-5.436 1.917 0 3.465 2.44 3.465 5.436v3.08c-.836-1.407-2.078-2.316-3.464-2.316-1.384 0-2.625.91-3.47 2.317zm3.47 6.14c1.917 0 3.465 2.448 3.465 5.456v3.063c-.836-1.393-2.078-2.305-3.464-2.305-1.384 0-2.625.912-3.47 2.306v-3.062c0-3.008 1.558-5.457 3.47-5.457zm0 7.333c.845 0 1.588.51 2.182 1.293h-4.358c.595-.784 1.34-1.293 2.177-1.293zm8.058-9.985c1.394 0 2.633-.897 3.478-2.3v3.067c0 3.003-1.558 5.44-3.478 5.44-1.907 0-3.458-2.437-3.458-5.44v-3.068c.846 1.402 2.07 2.3 3.458 2.3zm-3.458-6.568v-3.07c.847 1.388 2.07 2.318 3.458 2.318 1.394 0 2.633-.93 3.478-2.318v3.07c0 3-1.558 5.44-3.478 5.44-1.907 0-3.458-2.44-3.458-5.44zm11.52 1.9c1.916 0 3.468 2.44 3.468 5.436v3.076c-.84-1.398-2.07-2.313-3.47-2.313-1.396 0-2.624.916-3.468 2.314v-3.076c0-2.996 1.557-5.437 3.47-5.437zm-3.47 1.18v-3.08c0-2.996 1.558-5.436 3.47-5.436 1.917 0 3.47 2.44 3.47 5.436v3.08c-.84-1.407-2.07-2.316-3.47-2.316-1.398 0-2.626.91-3.47 2.317zm3.47 6.14c1.916 0 3.468 2.448 3.468 5.456v3.063c-.84-1.393-2.07-2.305-3.47-2.305-1.396 0-2.624.912-3.468 2.306v-3.062c0-3.008 1.557-5.457 3.47-5.457zm0 7.333c.834 0 1.586.51 2.18 1.293h-4.358c.59-.784 1.34-1.293 2.177-1.293zm8.065-9.985c1.395 0 2.62-.897 3.464-2.3v3.067c0 3.003-1.563 5.44-3.465 5.44-1.918 0-3.475-2.437-3.475-5.44v-3.068c.85 1.402 2.08 2.3 3.475 2.3zm-3.475-6.568v-3.07c.85 1.388 2.08 2.318 3.475 2.318s2.62-.93 3.464-2.318v3.07c0 3-1.563 5.44-3.465 5.44-1.918 0-3.475-2.44-3.475-5.44zm11.53 1.9c1.91 0 3.467 2.44 3.467 5.436v3.076c-.84-1.398-2.08-2.313-3.467-2.313-1.394 0-2.62.916-3.468 2.314v-3.076c0-2.996 1.557-5.437 3.468-5.437zm-3.467 1.18v-3.08c0-2.996 1.557-5.436 3.468-5.436 1.91 0 3.468 2.44 3.468 5.436v3.08c-.84-1.407-2.08-2.316-3.467-2.316-1.393 0-2.62.91-3.467 2.317zm3.467 6.14c1.91 0 3.467 2.448 3.467 5.456v3.063c-.84-1.393-2.08-2.305-3.467-2.305-1.394 0-2.62.912-3.468 2.306v-3.062c0-3.008 1.557-5.457 3.468-5.457zm0 7.333c.83 0 1.58.51 2.18 1.293h-4.356c.593-.784 1.336-1.293 2.176-1.293zm8.058-9.985c1.396 0 2.63-.897 3.475-2.3v3.067c0 3.003-1.56 5.44-3.475 5.44-1.903 0-3.46-2.437-3.46-5.44v-3.068c.84 1.402 2.062 2.3 3.46 2.3zm-3.46-6.568v-3.07c.84 1.388 2.062 2.318 3.46 2.318 1.396 0 2.63-.93 3.475-2.318v3.07c0 3-1.56 5.44-3.475 5.44-1.903 0-3.46-2.44-3.46-5.44zm11.52 1.9c1.92 0 3.47 2.44 3.47 5.436v3.076c-.84-1.398-2.078-2.313-3.47-2.313-1.387 0-2.622.916-3.47 2.314v-3.076c.002-2.996 1.568-5.437 3.47-5.437zm-3.468 1.18v-3.08c0-2.996 1.566-5.436 3.47-5.436 1.918 0 3.47 2.44 3.47 5.436v3.08c-.84-1.407-2.08-2.316-3.47-2.316-1.388 0-2.624.91-3.47 2.317zm3.47 6.14c1.917 0 3.47 2.448 3.47 5.456v3.063c-.84-1.393-2.08-2.305-3.47-2.305-1.39 0-2.624.912-3.47 2.306v-3.062c0-3.008 1.566-5.457 3.47-5.457zm0 7.333c.836 0 1.583.51 2.182 1.293H664.3c.602-.784 1.345-1.293 2.18-1.293zm8.056-9.985c1.397 0 2.636-.897 3.48-2.3v3.067c0 3.003-1.556 5.44-3.48 5.44-1.905 0-3.456-2.437-3.456-5.44v-3.068c.828 1.402 2.08 2.3 3.456 2.3zm-3.456-6.568v-3.07c.828 1.388 2.08 2.318 3.456 2.318 1.397 0 2.636-.93 3.48-2.318v3.07c0 3-1.556 5.44-3.48 5.44-1.905 0-3.456-2.44-3.456-5.44zm11.53 1.9c1.91 0 3.453 2.44 3.453 5.436v3.076c-.842-1.398-2.076-2.313-3.453-2.313-1.396 0-2.64.916-3.475 2.314v-3.076c0-2.996 1.554-5.437 3.475-5.437zm-3.474 1.18v-3.08c0-2.996 1.554-5.436 3.475-5.436 1.912 0 3.454 2.44 3.454 5.436v3.08c-.842-1.407-2.076-2.316-3.453-2.316-1.396 0-2.64.91-3.474 2.317zm3.474 6.14c1.91 0 3.453 2.448 3.453 5.456v3.063c-.842-1.393-2.076-2.305-3.453-2.305-1.396 0-2.64.912-3.475 2.306v-3.062c0-3.008 1.554-5.457 3.475-5.457zm0 7.333c.832 0 1.574.51 2.167 1.293h-4.352c.596-.784 1.34-1.293 2.185-1.293zm8.062-9.985c1.385 0 2.625-.897 3.46-2.3v3.067c0 3.003-1.563 5.44-3.46 5.44-1.927 0-3.482-2.437-3.482-5.44v-3.068c.843 1.402 2.092 2.3 3.482 2.3zm-3.483-6.568v-3.07c.843 1.388 2.092 2.318 3.48 2.318 1.386 0 2.626-.93 3.46-2.318v3.07c0 3-1.562 5.44-3.46 5.44-1.925 0-3.48-2.44-3.48-5.44zm11.527 1.9c1.902.012 3.45 2.44 3.45 5.436v3.06c-.84-1.388-2.067-2.297-3.438-2.297h-.025c-1.384 0-2.61.91-3.455 2.297v-3.06c0-2.995 1.563-5.423 3.467-5.436zm-3.467 1.165v-3.064c0-2.996 1.563-5.425 3.467-5.436 1.902.01 3.45 2.44 3.45 5.436v3.064c-.84-1.392-2.067-2.3-3.438-2.3h-.025c-1.384 0-2.61.908-3.455 2.3zm3.467 6.154c1.902.01 3.45 2.456 3.45 5.458v3.046c-.84-1.38-2.067-2.288-3.438-2.288h-.025c-1.384 0-2.61.908-3.455 2.288v-3.046c0-3.002 1.563-5.447 3.467-5.457zm0 7.335c.827.002 1.57.513 2.16 1.293h-4.332c.594-.78 1.338-1.29 2.172-1.293zm8.046-9.985h.007c1.4 0 2.615-.89 3.463-2.28v3.048c0 2.996-1.548 5.438-3.463 5.44-1.9-.003-3.457-2.444-3.457-5.44v-3.047c.847 1.39 2.074 2.28 3.45 2.28zm-3.45-6.568v-3.045c.848 1.375 2.074 2.293 3.45 2.293h.007c1.4 0 2.615-.918 3.463-2.293v3.045c0 2.997-1.548 5.43-3.463 5.44-1.902-.01-3.457-2.443-3.457-5.44zm11.51 1.9c1.92 0 3.47 2.44 3.47 5.436v3.076c-.848-1.398-2.08-2.313-3.47-2.313-1.4 0-2.645.916-3.463 2.314v-3.076c0-2.996 1.557-5.437 3.462-5.437zm-3.463 1.18v-3.08c0-2.996 1.557-5.436 3.462-5.436 1.92 0 3.47 2.44 3.47 5.436v3.08c-.847-1.407-2.078-2.316-3.47-2.316-1.4 0-2.643.91-3.462 2.317zm3.462 6.14c1.92 0 3.47 2.448 3.47 5.456v3.063c-.847-1.393-2.078-2.305-3.47-2.305-1.4 0-2.644.912-3.462 2.306v-3.062c0-3.008 1.557-5.457 3.462-5.457zm0 7.333c.842 0 1.588.51 2.183 1.293h-4.354c.596-.784 1.338-1.293 2.172-1.293zm8.064-9.985c1.387 0 2.627-.897 3.46-2.3v3.067c0 3.003-1.548 5.44-3.46 5.44-1.922 0-3.468-2.437-3.468-5.44v-3.068c.836 1.402 2.066 2.3 3.468 2.3zm-3.468-6.568v-3.07c.836 1.388 2.066 2.318 3.468 2.318 1.387 0 2.627-.93 3.46-2.318v3.07c0 3-1.548 5.44-3.46 5.44-1.922 0-3.468-2.44-3.468-5.44zm11.526 1.9c1.915 0 3.463 2.44 3.463 5.436v3.076c-.84-1.398-2.078-2.313-3.463-2.313-1.39 0-2.62.916-3.468 2.314v-3.076c0-2.996 1.545-5.437 3.468-5.437zm-3.467 1.18v-3.08c0-2.996 1.544-5.436 3.468-5.436 1.915 0 3.463 2.44 3.463 5.436v3.08c-.84-1.407-2.078-2.316-3.463-2.316-1.39 0-2.62.91-3.468 2.317zm3.467 6.14c1.915 0 3.463 2.448 3.463 5.456v3.063c-.84-1.393-2.078-2.305-3.463-2.305-1.39 0-2.62.912-3.468 2.306v-3.062c0-3.008 1.545-5.457 3.468-5.457zm0 7.333c.84 0 1.585.51 2.18 1.293h-4.36c.597-.784 1.342-1.293 2.18-1.293zm8.065-9.985c1.393 0 2.626-.897 3.46-2.3v3.067c0 3.003-1.56 5.44-3.46 5.44-1.917 0-3.474-2.437-3.474-5.44v-3.068c.843 1.402 2.084 2.3 3.473 2.3zm-3.474-6.568v-3.07c.843 1.388 2.084 2.318 3.473 2.318 1.393 0 2.626-.93 3.46-2.318v3.07c0 3-1.56 5.44-3.46 5.44-1.917 0-3.474-2.44-3.474-5.44zm11.53 1.9c1.908 0 3.46 2.44 3.46 5.436v3.076c-.827-1.398-2.067-2.313-3.46-2.313-1.387 0-2.63.916-3.478 2.314v-3.076c0-2.996 1.565-5.437 3.477-5.437zm-3.477 1.18v-3.08c0-2.996 1.563-5.436 3.476-5.436 1.91 0 3.46 2.44 3.46 5.436v3.08c-.826-1.407-2.066-2.316-3.46-2.316-1.386 0-2.63.91-3.477 2.317zm3.475 6.14c1.91 0 3.46 2.448 3.46 5.456v3.063c-.826-1.393-2.066-2.305-3.46-2.305-1.386 0-2.63.912-3.477 2.306v-3.062c0-3.008 1.565-5.457 3.477-5.457zm0 7.333c.84 0 1.58.51 2.173 1.293h-4.358c.604-.784 1.35-1.293 2.185-1.293zm4.587-9.218v-3.068c.85 1.402 2.085 2.3 3.48 2.3 1.39 0 2.618-.897 3.456-2.3v3.067c0 3.003-1.554 5.44-3.457 5.44-1.914.002-3.478-2.437-3.478-5.44zm8.068 10.405v-3.063c0-2.196.856-4.023 2.037-4.89l2.47 5.868c-.336-.127-.676-.222-1.04-.222-1.395 0-2.624.912-3.467 2.306zm-.325-5.932V232.874l-.144.252c.076-.508.145-1.035.145-1.6v-3.157l2.045 4.853c-.877.578-1.608 1.518-2.045 2.777zm-4.264-6.367c-1.914 0-3.478-2.44-3.478-5.44v-3.07c.85 1.388 2.085 2.318 3.48 2.318.694 0 1.32-.282 1.902-.687l1.35 3.217c-.47 2.13-1.747 3.663-3.253 3.663zm-4.605-12.758v3.063c-.826-1.393-2.066-2.305-3.46-2.305-1.386 0-2.63.912-3.477 2.305v-3.063c0-.465.063-.9.133-1.327h6.667c.078.426.138.862.138 1.327zm-8.055 0c0 2.99-1.56 5.434-3.46 5.434-1.917 0-3.474-2.444-3.474-5.435v-1.327h6.934v1.327zm-8.063 0v3.063c-.84-1.393-2.078-2.305-3.463-2.305-1.39 0-2.62.912-3.468 2.305v-3.063c0-.465.06-.9.136-1.327h6.662c.074.426.133.862.133 1.327zm-8.062 0c0 2.99-1.547 5.434-3.46 5.434-1.92 0-3.467-2.444-3.467-5.435v-1.327h6.927v1.327zm-8.052 0v3.063c-.848-1.393-2.08-2.305-3.47-2.305-1.4 0-2.645.912-3.463 2.305v-3.063c0-.465.057-.9.134-1.327h6.672c.063.426.127.862.127 1.327zm-8.06 0c0 2.985-1.55 5.43-3.464 5.434-1.902-.005-3.458-2.45-3.458-5.435v-1.327h6.92v1.327zm-8.066 0v3.045c-.84-1.385-2.067-2.287-3.438-2.287h-.025c-1.384 0-2.61.902-3.455 2.287v-3.045c0-.465.065-.9.133-1.327h6.65c.073.426.134.862.134 1.327zm-8.036 0c0 2.99-1.56 5.434-3.458 5.434-1.927 0-3.482-2.444-3.482-5.435v-1.327h6.94v1.327zm-8.067 0v3.063c-.842-1.393-2.076-2.305-3.453-2.305-1.396 0-2.64.912-3.475 2.305v-3.063c0-.465.062-.9.134-1.327h6.663c.067.426.13.862.13 1.327zm-8.047 0c0 2.99-1.555 5.434-3.48 5.434-1.904 0-3.455-2.444-3.455-5.435v-1.327h6.937v1.327zm-8.067 0v3.063c-.84-1.393-2.08-2.305-3.47-2.305-1.39 0-2.624.912-3.47 2.305v-3.063c0-.465.063-.9.137-1.327h6.672c.068.426.13.862.13 1.327zm-8.057 0c0 2.99-1.56 5.434-3.475 5.434-1.903 0-3.46-2.444-3.46-5.435v-1.327h6.935v1.327zm-8.066 0v3.063c-.84-1.393-2.08-2.305-3.467-2.305-1.394 0-2.62.912-3.468 2.305v-3.063c0-.465.064-.9.135-1.327h6.66c.076.426.14.862.14 1.327zm-8.058 0c0 2.99-1.563 5.434-3.465 5.434-1.918 0-3.475-2.444-3.475-5.435v-1.327h6.938v1.327zm-8.062 0v3.063c-.84-1.393-2.07-2.305-3.47-2.305-1.396 0-2.624.912-3.468 2.305v-3.063c0-.465.063-.9.133-1.327h6.674c.07.426.13.862.13 1.327zm-8.053 0c0 2.99-1.558 5.434-3.478 5.434-1.907 0-3.458-2.444-3.458-5.435v-1.327h6.935v1.327zm-8.07 0v3.063c-.836-1.393-2.078-2.305-3.464-2.305-1.384 0-2.625.912-3.47 2.305v-3.063c0-.465.06-.9.123-1.327h6.678c.075.426.135.862.135 1.327zm-8.054 0c0 2.99-1.55 5.434-3.467 5.434-1.915 0-3.466-2.444-3.466-5.435v-1.327h6.934v1.327zm-8.063 0v3.063c-.842-1.393-2.075-2.305-3.467-2.305-1.396 0-2.634.912-3.466 2.305v-3.063c0-.465.06-.9.134-1.327h6.668c.067.426.13.862.13 1.327zm-8.052 0c0 .746-.097 1.452-.273 2.11-.53 1.948-1.763 3.323-3.192 3.323-1.92 0-3.468-2.443-3.468-5.434v-1.327h6.934v1.328zm-8.064 0v3.063c-.84-1.393-2.068-2.305-3.465-2.305-1.395 0-2.618.906-3.465 2.3v-3.058c0-.465.057-.9.13-1.327h6.67c.068.426.13.862.13 1.327zm-8.058 0c0 2.99-1.56 5.434-3.466 5.434-1.91 0-3.474-2.444-3.474-5.435v-1.327h6.94v1.327zm-8.065 0v3.063c-.836-1.393-2.063-2.305-3.46-2.305-1.39 0-2.622.912-3.457 2.305v-3.063c0-.465.058-.9.13-1.327h6.66c.07.426.127.862.127 1.327zm-8.05 0c0 2.99-1.554 5.434-3.474 5.434-1.91 0-3.46-2.444-3.46-5.435v-1.327h6.935v1.327zm-8.058 0v3.063c-.844-1.393-2.09-2.305-3.472-2.305-1.396 0-2.63.912-3.475 2.305v-3.063c0-.465.062-.9.14-1.327h6.667c.075.426.14.862.14 1.327zm-8.065 0c0 2.99-1.558 5.434-3.468 5.434s-3.468-2.444-3.468-5.435v-1.327h6.935v1.327zm-8.067 0v3.063c-.835-1.393-2.07-2.305-3.458-2.305-1.394 0-2.628.912-3.47 2.305v-3.063c0-.465.062-.9.13-1.327h6.663c.075.426.135.862.135 1.327zm-8.056 0c0 2.99-1.558 5.434-3.453 5.434-1.925 0-3.48-2.444-3.48-5.435v-1.327h6.932v1.327zm-8.05 0v3.063c-.848-1.393-2.074-2.305-3.47-2.305-1.388 0-2.624.912-3.48 2.305v-3.063c0-.465.063-.9.136-1.327h6.676c.07.426.138.862.138 1.327zm-8.066 0c0 2.99-1.558 5.434-3.47 5.434-1.908 0-3.465-2.444-3.465-5.435v-1.327h6.936v1.327zm-8.057 0v3.063c-.854-1.393-2.08-2.305-3.472-2.305-1.396 0-2.632.912-3.47 2.305v-3.063c0-.465.06-.9.138-1.327h6.664c.075.426.14.862.14 1.327zm-8.063 0c0 2.99-1.55 5.434-3.477 5.434-1.907 0-3.457-2.444-3.457-5.435v-1.327h6.934v1.327zm-8.06 0v3.063c-.844-1.393-2.08-2.305-3.47-2.305s-2.633.912-3.467 2.305v-3.063c0-.465.066-.9.137-1.327h6.664c.078.426.136.862.136 1.327zm-8.065 0c0 2.99-1.56 5.434-3.462 5.434-1.92 0-3.47-2.444-3.47-5.435v-1.327h6.932v1.327zm-8.06 0v3.063c-.837-1.393-2.07-2.305-3.463-2.305s-2.626.912-3.47 2.305v-3.063c0-.465.064-.9.13-1.327h6.665c.08.426.138.862.138 1.327zm-8.348-1.327v1.644c0 2.996-1.56 5.437-3.47 5.437-.41 0-.8-.154-1.166-.372v-6.71h4.636zm-5.242 22.31c.545.343 1.145.55 1.773.55 1.39 0 2.627-.905 3.47-2.313v3.074c0 1.06-.206 2.035-.54 2.867h-5.756l1.052-4.178zm298.09 4.18c.593-.784 1.338-1.293 2.174-1.293.64 0 1.232.304 1.742.785l.213.508h-4.13zm-4.417-20.317c-.442.35-.934.59-1.464.59-1.914 0-3.478-2.444-3.478-5.435v-1.327h2.35l2.593 6.173z"/></g></svg>