<?xml version="1.0" encoding="utf-8"?>
<!-- Generator: Adobe Illustrator 16.0.0, SVG Export Plug-In . SVG Version: 6.00 Build 0)  -->
<!DOCTYPE svg PUBLIC "-//W3C//DTD SVG 1.1//EN" "http://www.w3.org/Graphics/SVG/1.1/DTD/svg11.dtd">
<svg version="1.1" id="Layer_1" xmlns="http://www.w3.org/2000/svg" xmlns:xlink="http://www.w3.org/1999/xlink" x="0px" y="0px"
	 width="841.89px" height="595.28px" viewBox="0 0 841.89 595.28" enable-background="new 0 0 841.89 595.28" xml:space="preserve">
<g>
	<path fill="#58595B" d="M420.991,171.431c-0.054-0.084-0.107-0.169-0.153-0.261c-0.054,0.092-0.1,0.176-0.146,0.261
		c-29.629-47.039-84.005-24.125-81.958,17.632c0.33,6.738,2.545,24.953,27.054,40.914c48.028,31.285,54.904,49.147,54.904,49.147
		s0.069-0.03,0.146-0.061c0.069,0.031,0.153,0.061,0.153,0.061s6.861-17.862,54.896-49.147
		c24.502-15.96,26.717-34.175,27.047-40.914C504.98,147.306,450.598,124.392,420.991,171.431z"/>
	<g>
		<g>
			<path fill="#808285" d="M455.027,475.551H244.388c-0.544,0-0.981-0.406-0.981-0.92c0-0.506,0.437-0.92,0.981-0.92h210.639
				c0.529,0,0.975,0.414,0.975,0.92C456.002,475.145,455.557,475.551,455.027,475.551z"/>
		</g>
		<g>
			<path fill="#808285" d="M597.57,475.551H487.969c-0.506,0-0.928-0.406-0.928-0.92c0-0.506,0.422-0.92,0.928-0.92H597.57
				c0.506,0,0.912,0.414,0.912,0.92C598.482,475.145,598.076,475.551,597.57,475.551z"/>
		</g>
	</g>
	<g>
		<path fill="#58595B" d="M399.656,438.079c-0.238,0-1.932,1.901-5.098,5.673c-3.166,3.787-5.604,5.681-7.321,5.681
			c-2.415,0-3.626-2.806-3.626-8.433c0-6.079,0.943-10.648,2.813-13.684c0.23-0.392,0.621-0.667,1.173-0.82
			c0.544-0.153,0.82-0.276,0.82-0.353c0-0.153-0.115-0.43-0.353-0.82c-1.249-1.955-3.281-2.921-6.087-2.921
			c-1.249,0-2.537,0.269-3.863,0.813c-3.665,1.257-7.451,4.745-11.354,10.479c-3.91,5.734-5.849,10.633-5.849,14.688
			c0,2.66,1.204,3.979,3.626,3.979c4.055,0,8.701-4.638,13.929-13.93c-0.161,1.242-0.237,2.423-0.237,3.512
			c0,6.707,2.384,10.065,7.145,10.065c1.403,0,2.798-0.353,4.216-1.051c3.036-1.556,6.271-5.113,9.713-10.655
			c0.467-0.698,0.698-1.25,0.698-1.633C400.001,438.278,399.886,438.079,399.656,438.079z M373.201,443.461
			c-2.729,3.596-4.96,5.39-6.677,5.39c-1.088,0-1.64-0.82-1.64-2.461c0-3.665,2.384-8.379,7.152-14.159
			c3.35-3.986,6.593-5.973,9.705-5.973c0.391,0,0.744,0.039,1.05,0.115C380.223,432.928,377.026,438.624,373.201,443.461z"/>
		<path fill="#58595B" d="M546.6,427.562c0-0.805-0.307-1.518-0.912-2.131c-0.613-0.599-1.281-0.905-2.002-0.905
			c-0.574,0-1.18,0.33-1.824,0.966c-0.729,1.94-1.441,3.45-2.131,4.493c-0.689,1.065-1.434,2.307-2.246,3.771
			c-5.59,9.482-9.561,14.213-11.906,14.213c-1.549,0-2.307-1.288-2.307-3.879c0-2.024,2.92-10.519,4.943-13.999l3.168-5.588
			c0-0.651-0.613-0.974-1.834-0.974c-2.26,0-4.285,2.108-6.078,6.316c-0.982,2.108-2.309,5.949-3.266,9.322
			c-7.82,9.422-14.949,14.213-21.412,14.358c3.811-2.415,7.344-6.669,10.588-12.749c3.234-6.087,4.859-11.438,4.859-16.037
			c0-3.672-1.25-5.504-3.748-5.504c-2.729,0-6.125,2.491-10.182,7.489c-2.66,3.358-5.074,7.022-7.26,11.001
			c0-0.705,0.055-1.809,0.178-3.335c0.115-1.518,0.176-2.667,0.176-3.449c0-5.305-1.326-7.965-3.986-7.965
			c-2.414,0-3.627,0.16-3.627,0.475c0,0.307,0.223,0.713,0.645,1.22c0.43,0.521,0.645,1.157,0.645,1.932
			c0,3.672-1.596,7.819-4.762,12.434c-0.252,0.2-0.49,0.453-0.734,0.798c-2.102,2.499-4.646,4.722-7.613,6.677
			c-3.426,2.262-6.516,3.389-9.246,3.389c-2.881,0-4.33-1.603-4.33-4.799c0-1.326,0.275-2.967,0.82-4.922
			c2.736-1.004,5.734-3.035,9.008-6.079c3.672-3.435,5.512-6.355,5.512-8.777c0-0.782-0.291-1.525-0.883-2.224
			c-0.59-0.697-1.271-1.05-2.047-1.05c-3.979,0-7.85,2.568-11.59,7.72c-3.174,4.377-4.906,8.433-5.205,12.174
			c-4.877,5.289-9.576,7.957-14.105,7.957c-4.209,0-6.324-2.415-6.324-7.252c0-2.975,1.064-6.133,3.158-9.491
			c2.268-3.664,4.807-5.496,7.611-5.496c2.031,0,3.043,0.82,3.043,2.461c0,0.391-0.129,0.928-0.406,1.641
			c-0.268,0.697-0.414,1.211-0.414,1.518c0,0.391,0.154,0.591,0.469,0.591c0.705,0,1.617-0.959,2.76-2.867
			c1.127-1.917,1.686-3.259,1.686-4.04c0-1.955-1.248-2.929-3.74-2.929c-3.74,0-7.742,2.308-11.998,6.907
			c-4.254,4.607-6.377,8.815-6.377,12.642c0,6.163,2.883,9.245,8.662,9.245c3.113,0,6.08-0.905,8.9-2.691
			c2.699-1.832,5.037-3.787,7.076-5.834c0.314,5.352,2.736,8.058,7.313,8.058c3.436,0,7.223-1.364,11.354-4.102
			c3.25-2.139,5.773-4.462,7.674-6.923c0.813-0.114,2.652-2.514,5.551-7.236c0.076,2.108,0.123,4.569,0.123,7.367v0.705
			c-5.084,6.945-10.105,13.853-15.104,20.729c-7.021,10.372-10.533,17.471-10.533,21.296c0,2.883,0.975,4.331,2.922,4.331
			c3.672,0,8.432-4.753,14.281-14.281c4.133-6.861,7.414-13.416,9.828-19.664c2.031,0.553,3.213,0.82,3.52,0.82
			c0.697,0,1.717,0,3.043,0c1.402,0.077,2.453,0.115,3.158,0.115c3.434,0,7.643-1.87,12.641-5.619
			c3.021-2.162,5.49-4.339,7.414-6.509c-0.115,0.629-0.178,1.15-0.178,1.549c0,4.53,1.334,6.8,4.01,6.8
			c2.102,0,4.492-1.579,7.168-4.745c0.406-0.476,1.035-1.326,1.879-2.538c0.85-1.219,1.963-2.798,3.35-4.745
			c-0.574,0.974-1.02,2.154-1.342,3.526s-0.49,2.63-0.49,3.757c0,2.354,0.881,3.817,2.314,4.868
			c2.959,2.169,7.912-2.208,8.203-2.492c0.139-0.13,0.299-0.299,0.438-0.437c-0.123,1.894-0.561,3.664-1.303,5.32
			c-1.166,2.683-2.83,4.086-4.961,4.193c-0.781,0.107-1.648-0.199-2.605-0.92c-0.998-0.675-1.504-0.958-1.504-0.844
			c-0.566,0-0.988,0.307-1.256,0.928c-0.4,0.729,0.299,1.564,2.092,2.515c1.564,0.675,2.828,1.012,3.779,1.012
			c2.514-0.275,4.34-1.74,5.459-4.362c0.391-0.904,0.729-1.9,1.012-2.989c0.283-1.081,0.475-2.3,0.582-3.649
			c0.139-1.165,0.162-2.093,0.092-2.813c0.453-0.674,0.652-1.227,0.545-1.655c-0.168-0.652-0.445-0.729-0.852-0.253
			c-1.541,1.701-2.791,2.981-3.764,3.833c-0.98,0.851-1.748,1.341-2.314,1.464c-0.568,0.115-0.967-0.038-1.205-0.49
			c-0.252-0.445-0.375-1.112-0.375-2.001c0-2.837,1.418-7.007,4.254-12.519L546.6,427.562z M465.668,430.704
			c2.254-3.587,3.979-5.381,5.145-5.381c0.936,0,1.41,0.46,1.41,1.402c0,1.871-1.295,4.063-3.863,6.555
			c-2.193,2.192-4.301,3.711-6.324,4.569C462.502,436.132,463.705,433.748,465.668,430.704z M486.383,452.246
			c-1.803,7.252-3.48,12.365-5.037,15.332c-6.002,11.238-10.732,16.851-14.16,16.851c-0.475,0-0.705-0.346-0.705-1.051
			c0-1.641,1.441-5.229,4.332-10.763c2.492-4.769,4.561-8.311,6.201-10.656c3.75-5.466,6.563-9.598,8.434-12.411
			c0.543-0.774,0.973-1.165,1.279-1.165c0.084,0,0.162,0.038,0.238,0.114c-0.467,0.782-0.705,1.641-0.705,2.576
			C486.26,451.472,486.297,451.855,486.383,452.246z M495.742,452.108c-1.84,0.697-5.635,0-4.324-3.726
			c1.627-4.623,3.273-9.253,5.613-13.692c3.119-6.018,6.094-9.644,8.893-10.893c0.391-0.153,0.781-0.23,1.172-0.23
			c1.326,0,1.994,1.211,1.994,3.626c0,4.063-1.357,8.893-4.102,14.512C502.098,447.639,499.23,450.767,495.742,452.108z"/>
		<path fill="#58595B" d="M595.424,437.604c-0.238,0-1.172,1.142-2.813,3.396c-1.947,2.737-3.787,4.845-5.506,6.332
			c-2.49,2.254-4.828,3.389-7.014,3.389c-2.813,0-4.217-1.479-4.217-4.446c0-1.479,0.369-2.891,1.111-4.209
			c0.736-1.334,1.541-2.89,2.4-4.684c0.314-0.782,0.467-1.25,0.467-1.411c0-1.64-0.857-2.529-2.574-2.69
			c-0.078,0-0.354,0.138-0.82,0.414c-0.469,0.269-1.25,1.388-2.346,3.327c-0.393,0.161-0.775,0.237-1.166,0.237s-0.781,0-1.166,0
			c0.859-0.935,1.52-2.085,1.986-3.449c0.475-1.365,0.744-2.791,0.82-4.278c0.076-1.479-0.061-2.866-0.414-4.146
			c-0.346-1.288-0.975-2.308-1.863-3.052c-0.904-0.735-2.092-1.081-3.58-1.058c-1.479,0.046-3.273,0.659-5.373,1.824
			c-2.967,1.718-4.891,3.488-5.734,5.328c-0.867,1.824-0.982,3.55-0.361,5.144c0.629,1.603,1.855,2.913,3.688,3.926
			c1.832,1.012,3.926,1.556,6.264,1.633c-0.943,1.41-1.641,2.422-2.107,3.043c-2.338,3.281-4.447,5.565-6.318,6.854
			c-1.877,1.28-3.334,1.732-4.393,1.342c-1.049-0.384-1.602-1.557-1.641-3.511c-0.037-1.947,0.568-4.523,1.818-7.728
			c-0.162-0.537-0.506-1.035-1.051-1.465c-0.545-0.429-1.18-0.644-1.871-0.644c-0.705,0-1.371,0.276-1.992,0.828
			c-0.621,0.536-1.051,1.556-1.289,3.035c-0.543,3.044-0.451,5.466,0.293,7.268c0.742,1.786,1.893,2.959,3.457,3.504
			c1.555,0.552,3.395,0.452,5.504-0.292c2.1-0.735,4.238-2.161,6.432-4.27c0.391-0.398,1.25-1.388,2.568-2.982
			c1.326-1.609,2.66-3.296,3.986-5.098c0.391,0,0.82-0.038,1.287-0.123c0.469-0.068,0.936-0.184,1.404-0.345
			c-0.545,1.25-0.975,2.423-1.297,3.519c-0.076,0.46-0.107,0.943-0.107,1.457s0,1.034,0,1.579c0,5.619,2.217,8.425,6.67,8.425
			c5.695,0,11.199-4.408,16.506-13.224c0.475-0.782,0.697-1.441,0.697-1.993C595.77,437.85,595.654,437.604,595.424,437.604z
			 M568.73,436.914c-2.107-0.552-3.756-1.625-4.975-3.22c-1.211-1.603-1.771-3.12-1.688-4.569c0.07-1.44,0.836-2.537,2.277-3.273
			c1.449-0.743,3.803-0.56,7.084,0.521c0.537,0.161,0.836,0.605,0.881,1.35c0.031,0.743-0.084,1.602-0.359,2.568
			c-0.27,0.98-0.697,2.047-1.281,3.227C570.08,434.69,569.443,435.817,568.73,436.914z"/>
		<path fill="#58595B" d="M357.984,419.236c-2.891,0-6.202,2.146-9.958,6.439c-2.806,3.196-5.182,6.555-7.129,10.065
			c0.774-2.729,1.848-5.597,3.212-8.609c1.365-2.997,2.714-5.558,4.04-7.658c8.433-5.229,15.8-11.039,22.124-17.44
			c9.836-10.073,14.75-17.915,14.75-23.534c0-3.197-1.764-4.792-5.274-4.792c-6.003,0-13.769,7.598-23.29,22.822
			c-6.164,9.828-10.495,17.21-12.986,22.124c-2.967,6.087-5.174,11.491-6.616,16.206c-1.449,4.723-2.169,8.563-2.169,11.53
			c0,4.216,1.449,6.324,4.332,6.324c0.391,0,0.59-0.161,0.59-0.468c0-0.322-0.299-0.705-0.889-1.173
			c-0.575-0.468-0.874-1.135-0.874-1.993c0-3.273,2.031-8.226,6.086-14.856c4.293-7.106,7.728-10.656,10.303-10.656
			c1.165,0,1.756,1.288,1.756,3.856c0,4.216-0.744,8.08-2.224,11.591c-1.641,4.056-3.741,7.612-6.324,10.655
			c-3.319,3.856-6.133,5.551-10.457,5.842c-14.405,0.468-20.706-7.099-21.633-8.341c5.833-3.887,10.586-8.401,14.243-13.546
			c4.293-5.994,6.439-12.089,6.439-18.253c0-10.219-5.704-17.946-17.095-23.174c-8.739-4.056-18.881-6.087-30.434-6.087
			c-5.152,0-10.732,0.468-16.735,1.402c-7.175,1.173-12.526,2.691-16.045,4.562c-2.415,1.334-3.618,2.852-3.618,4.569
			c0,1.173,0.506,1.755,1.518,1.755c0.391,0,0.897-0.146,1.525-0.46c10.219-5.78,21.925-8.67,35.118-8.67
			c9.905,0,18.683,1.756,26.325,5.267c9.913,4.677,14.865,11.438,14.865,20.246c0,5.466-1.901,10.932-5.734,16.39
			c-3.273,4.685-7.49,8.824-12.634,12.412c-7.651-10.066-21.971-15.34-42.961-15.8c6.24-12.572,13.032-23.804,20.369-33.716
			c0.153-0.229,0.237-0.468,0.237-0.697c0-0.629-0.552-0.936-1.641-0.936c-2.66,0-4.646,0.851-5.979,2.576
			c-2.415,3.741-4.247,6.822-5.496,9.237c-4.132,7.497-7.958,15.34-11.469,23.535c-5.55,0.307-10.464,1.87-14.749,4.676
			c-4.914,3.357-7.375,7.65-7.375,12.879c0,4.37,3.043,7.835,9.138,10.411c4.516,1.954,9.437,3.051,14.742,3.28
			c1.479,0.085,3.043,0.123,4.684,0.123c15.103,0,28.464-3.473,40.109-10.396c1.625,2.799,10.541,9.322,25.053,8.518
			c0.26-0.031,0.46-0.062,0.644-0.069c0.13-0.022,0.261-0.038,0.391-0.062c0.314-0.03,0.514-0.068,0.759-0.122
			c0.353-0.069,0.706-0.161,1.066-0.246c0.115-0.03,0.214-0.053,0.36-0.084c0.069-0.016,0.1-0.038,0.13-0.062
			c2.652-0.82,5.274-2.422,7.865-4.853c3.273-3.128,5.934-6.8,7.965-11.001c3.036-6.163,4.562-11.675,4.562-16.513
			C361.495,420.907,360.322,419.236,357.984,419.236z M351.782,410.804c5.458-12.404,11.975-21.61,19.541-27.621
			c4.293-3.435,7.451-5.151,9.475-5.151c1.333,0.084,1.993,0.942,1.993,2.575c-0.153,4.37-4.638,10.81-13.461,19.319
			c-7.337,7.252-13.807,12.519-19.426,15.792C350.294,414.552,350.916,412.919,351.782,410.804z M270.951,456.455
			c-1.088,0-2.069,0-2.928,0c-4.208-0.153-8.111-1.012-11.706-2.568c-4.753-2.031-7.137-4.807-7.137-8.317
			c0-7.881,5.19-12.68,15.57-14.397c-3.979,9.683-5.972,16.268-5.972,19.786c0,2.108,0.621,3.158,1.871,3.158
			c0.858,0,1.288-0.513,1.288-1.518c0-0.237-0.039-0.552-0.115-0.942c-0.077-0.384-0.115-0.698-0.115-0.936
			c0-3.351,2.338-10.027,7.022-20.017c1.012-0.076,2.031-0.114,3.043-0.114c6.555,0,13.531,1.288,20.951,3.855
			c8.272,2.813,14.198,6.439,17.793,10.894C298.97,452.744,285.777,456.455,270.951,456.455z"/>
	</g>
	<g>
		<path fill="#808285" d="M254.017,501.163c0,0.392-0.138,0.713-0.406,0.981c-0.276,0.261-0.606,0.391-0.997,0.391
			c-0.368,0-0.69-0.13-0.974-0.391c-0.284-0.269-0.422-0.59-0.422-0.981c0-0.391,0.138-0.729,0.422-1.012
			c0.284-0.276,0.605-0.422,0.974-0.422c0.391,0,0.721,0.146,0.997,0.422C253.878,500.435,254.017,500.772,254.017,501.163z
			 M253.618,519.493c0,0.153-0.022,0.253-0.076,0.291c-0.054,0.046-0.161,0.069-0.314,0.069h-1.25c-0.13,0-0.23-0.023-0.299-0.069
			c-0.069-0.038-0.1-0.138-0.1-0.291v-13.945c0-0.146,0.031-0.245,0.1-0.291c0.069-0.046,0.169-0.069,0.299-0.069h1.25
			c0.153,0,0.261,0.023,0.314,0.069s0.076,0.146,0.076,0.291V519.493z"/>
		<path fill="#808285" d="M279.138,511.973c0.498,0.153,0.92,0.353,1.257,0.605c0.33,0.245,0.605,0.544,0.805,0.866
			c0.207,0.322,0.353,0.675,0.437,1.043c0.084,0.375,0.13,0.735,0.13,1.096c0,0.629-0.123,1.211-0.368,1.725
			c-0.246,0.529-0.575,0.981-1.004,1.357c-0.429,0.383-0.943,0.675-1.526,0.882c-0.59,0.207-1.234,0.307-1.947,0.307h-6.194
			c-0.751,0-1.127-0.346-1.127-1.027v-12.604c0-0.697,0.375-1.035,1.127-1.035h5.972c1.288,0,2.346,0.292,3.174,0.882
			c0.828,0.583,1.241,1.503,1.241,2.745c0,0.62-0.153,1.211-0.49,1.778c-0.322,0.567-0.813,0.981-1.464,1.249L279.138,511.973z
			 M271.641,511.16h4.921c0.23,0,0.483-0.031,0.767-0.093c0.292-0.061,0.56-0.176,0.813-0.353c0.253-0.161,0.46-0.383,0.628-0.659
			c0.177-0.275,0.253-0.628,0.253-1.05c0-0.583-0.199-1.065-0.598-1.465c-0.398-0.398-0.958-0.59-1.664-0.59h-5.121V511.16z
			 M279.667,515.445c0-0.782-0.269-1.418-0.798-1.886c-0.528-0.476-1.326-0.721-2.384-0.721h-4.845v5.396h4.845
			c0.667,0,1.211-0.092,1.633-0.275c0.414-0.192,0.736-0.422,0.958-0.698c0.23-0.283,0.376-0.582,0.46-0.912
			C279.629,516.027,279.667,515.721,279.667,515.445z"/>
		<path fill="#808285" d="M302.381,504.881c1.073,0,1.979,0.146,2.737,0.46c0.774,0.307,1.395,0.736,1.894,1.304
			c0.498,0.552,0.858,1.219,1.104,1.985c0.246,0.759,0.36,1.595,0.36,2.515c0,0.782-0.176,1.288-0.544,1.549
			c-0.368,0.245-0.805,0.375-1.326,0.375h-8.548c0,0.959,0.115,1.778,0.36,2.461c0.245,0.675,0.575,1.219,0.989,1.641
			c0.421,0.414,0.92,0.713,1.495,0.904c0.567,0.177,1.181,0.276,1.833,0.276c0.621,0,1.219-0.077,1.809-0.23
			c0.59-0.146,1.089-0.329,1.503-0.552c0.222-0.115,0.383-0.076,0.475,0.107l0.506,0.981c0.115,0.229,0.061,0.391-0.146,0.483
			c-0.644,0.398-1.349,0.666-2.093,0.813c-0.743,0.146-1.472,0.207-2.177,0.207c-2.047,0-3.657-0.599-4.837-1.794
			c-1.173-1.204-1.755-3.128-1.755-5.772c0-1.25,0.153-2.354,0.475-3.313c0.314-0.966,0.759-1.771,1.319-2.422
			c0.575-0.645,1.242-1.143,2.016-1.472C300.595,505.042,301.454,504.881,302.381,504.881z M306.521,511.39
			c0-0.629-0.069-1.234-0.192-1.816c-0.13-0.575-0.36-1.081-0.667-1.525c-0.307-0.438-0.728-0.782-1.272-1.043
			c-0.537-0.269-1.219-0.391-2.016-0.391c-0.652,0-1.242,0.122-1.755,0.375s-0.943,0.591-1.296,1.02
			c-0.36,0.43-0.636,0.928-0.828,1.511c-0.207,0.574-0.322,1.195-0.353,1.87H306.521z"/>
		<path fill="#808285" d="M325.219,519.769c-0.077,0.062-0.185,0.085-0.33,0.085h-1.135c-0.146,0-0.268-0.023-0.337-0.085
			c-0.084-0.054-0.13-0.161-0.13-0.329v-13.838c0-0.168,0.046-0.275,0.13-0.329c0.069-0.062,0.191-0.085,0.337-0.085h1.135
			c0.146,0,0.253,0.023,0.33,0.085c0.068,0.054,0.107,0.161,0.107,0.329v5.513h7.796v-5.513c0-0.168,0.038-0.275,0.115-0.329
			c0.069-0.062,0.184-0.085,0.337-0.085h1.165c0.169,0,0.284,0.023,0.338,0.085c0.061,0.054,0.084,0.161,0.084,0.329v13.838
			c0,0.168-0.023,0.275-0.084,0.329c-0.054,0.062-0.169,0.085-0.338,0.085h-1.165c-0.153,0-0.268-0.023-0.337-0.085
			c-0.077-0.054-0.115-0.161-0.115-0.329v-6.57h-7.796v6.57C325.326,519.607,325.288,519.715,325.219,519.769z"/>
		<path fill="#808285" d="M355.937,519.769c-0.069,0.062-0.177,0.085-0.322,0.085h-1.157c-0.177,0-0.299-0.023-0.36-0.085
			c-0.062-0.054-0.1-0.168-0.1-0.36v-12.457h-4.47c-0.191,0-0.307-0.038-0.36-0.1c-0.062-0.069-0.084-0.169-0.084-0.291v-0.928
			c0-0.153,0.022-0.253,0.084-0.338c0.054-0.068,0.169-0.107,0.36-0.107h11.231c0.192,0,0.307,0.039,0.345,0.107
			c0.053,0.085,0.076,0.185,0.076,0.338v0.928c0,0.122-0.023,0.222-0.076,0.291c-0.039,0.062-0.153,0.1-0.345,0.1h-4.722v12.457
			C356.037,519.601,356.005,519.715,355.937,519.769z"/>
		<path fill="#808285" d="M396.022,519.784c-0.054,0.046-0.161,0.069-0.299,0.069h-1.234c-0.153,0-0.26-0.023-0.314-0.069
			c-0.069-0.038-0.1-0.138-0.1-0.291v-13.945c0-0.146,0.03-0.245,0.1-0.291c0.054-0.046,0.161-0.069,0.314-0.069h1.234
			c0.138,0,0.245,0.023,0.299,0.069c0.061,0.046,0.092,0.146,0.092,0.291v5.612h2.905c0.291,0,0.575-0.016,0.851-0.077
			c0.269-0.054,0.514-0.161,0.751-0.307c0.23-0.146,0.445-0.36,0.628-0.636c0.192-0.276,0.345-0.637,0.476-1.059l1.119-3.595
			c0.031-0.139,0.084-0.23,0.153-0.261c0.069-0.031,0.146-0.039,0.238-0.039h1.257c0.146,0,0.237,0.039,0.268,0.123
			s0.031,0.169,0.015,0.261l-1.065,3.688c-0.168,0.598-0.391,1.127-0.659,1.602c-0.269,0.476-0.659,0.82-1.157,1.051l-0.023,0.046
			c0.705,0.207,1.211,0.544,1.518,1.012s0.56,1.012,0.736,1.625l1.434,4.838c0.016,0.1,0.016,0.191,0,0.283
			c-0.023,0.092-0.115,0.139-0.284,0.139h-1.365c-0.076,0-0.153-0.016-0.229-0.039c-0.077-0.03-0.123-0.1-0.161-0.237l-1.372-4.669
			c-0.246-0.781-0.621-1.326-1.15-1.617c-0.521-0.299-1.081-0.452-1.671-0.452h-3.212v6.654
			C396.115,519.646,396.083,519.746,396.022,519.784z"/>
		<path fill="#808285" d="M432.107,512.447c0,2.5-0.568,4.416-1.68,5.734s-2.715,1.979-4.791,1.979c-2.063,0-3.649-0.645-4.73-1.94
			c-1.089-1.295-1.633-3.188-1.633-5.688c0-1.227,0.161-2.323,0.475-3.281c0.314-0.958,0.759-1.764,1.341-2.399
			c0.567-0.645,1.257-1.135,2.031-1.464c0.783-0.346,1.648-0.507,2.592-0.507c2.086,0,3.664,0.66,4.762,1.993
			C431.555,508.208,432.107,510.063,432.107,512.447z M430.061,512.547c0-0.759-0.063-1.502-0.199-2.223
			c-0.123-0.721-0.346-1.35-0.66-1.909c-0.322-0.544-0.768-0.988-1.334-1.318c-0.574-0.322-1.279-0.482-2.139-0.482
			c-0.781,0-1.449,0.153-2.008,0.467c-0.561,0.33-1.014,0.752-1.365,1.28c-0.36,0.529-0.621,1.158-0.79,1.863
			c-0.169,0.705-0.253,1.456-0.253,2.238c0,0.882,0.076,1.679,0.229,2.407c0.146,0.736,0.392,1.364,0.729,1.909
			c0.33,0.536,0.773,0.958,1.334,1.265c0.559,0.291,1.248,0.444,2.063,0.444c0.842,0,1.547-0.168,2.115-0.514
			c0.566-0.345,1.027-0.805,1.357-1.364c0.328-0.56,0.574-1.196,0.713-1.901C429.99,513.996,430.061,513.275,430.061,512.547z"/>
		<path fill="#808285" d="M448.926,508.508v10.985c0,0.153-0.031,0.253-0.1,0.291c-0.061,0.046-0.176,0.069-0.314,0.069h-1.18
			c-0.146,0-0.254-0.023-0.307-0.069c-0.063-0.038-0.086-0.138-0.086-0.291v-13.386c0-0.222,0.07-0.429,0.207-0.628
			c0.146-0.192,0.4-0.292,0.775-0.292h0.75c0.277,0,0.5,0.047,0.66,0.139c0.154,0.1,0.314,0.299,0.453,0.613
			c0.152,0.314,0.375,0.781,0.682,1.402c0.291,0.605,0.605,1.258,0.928,1.925c0.33,0.667,0.645,1.311,0.936,1.924
			c0.299,0.621,0.529,1.089,0.674,1.403l1.648,3.541h0.084c0.115-0.215,0.27-0.536,0.461-0.974c0.199-0.429,0.406-0.874,0.635-1.341
			c0.215-0.468,0.43-0.913,0.621-1.342c0.199-0.43,0.354-0.744,0.461-0.943c0.139-0.253,0.322-0.628,0.574-1.157
			c0.254-0.514,0.514-1.065,0.797-1.648c0.277-0.575,0.545-1.127,0.799-1.648c0.252-0.514,0.443-0.896,0.566-1.142
			c0.154-0.314,0.299-0.514,0.438-0.613c0.137-0.092,0.367-0.139,0.689-0.139h0.721c0.375,0,0.629,0.1,0.768,0.292
			c0.145,0.199,0.207,0.406,0.207,0.628v13.386c0,0.153-0.023,0.253-0.078,0.291c-0.053,0.046-0.16,0.069-0.314,0.069h-1.195
			c-0.146,0-0.252-0.023-0.307-0.069c-0.061-0.038-0.084-0.138-0.084-0.291v-11.154h-0.115l-1.25,2.69
			c-0.061,0.131-0.184,0.392-0.375,0.782c-0.176,0.391-0.414,0.866-0.689,1.434c-0.285,0.575-0.592,1.211-0.943,1.932
			c-0.346,0.721-0.705,1.472-1.096,2.276c-0.139,0.261-0.262,0.445-0.393,0.561c-0.137,0.106-0.344,0.168-0.643,0.168h-0.561
			c-0.299,0-0.521-0.054-0.65-0.153c-0.146-0.1-0.285-0.299-0.406-0.575l-3.021-6.179c-0.061-0.092-0.152-0.268-0.268-0.528
			c-0.123-0.261-0.254-0.545-0.391-0.852c-0.139-0.313-0.277-0.59-0.4-0.851c-0.137-0.269-0.221-0.437-0.26-0.536H448.926z"/>
		<path fill="#808285" d="M479.805,519.784c-0.061,0.046-0.16,0.069-0.307,0.069h-1.258c-0.137,0-0.236-0.023-0.299-0.069
			c-0.061-0.038-0.092-0.138-0.092-0.291v-13.239c0-0.215,0.076-0.438,0.215-0.69c0.154-0.253,0.438-0.376,0.867-0.376h10.012
			c0.428,0,0.713,0.123,0.857,0.376c0.154,0.253,0.23,0.476,0.23,0.69v13.239c0,0.153-0.031,0.253-0.084,0.291
			c-0.055,0.046-0.154,0.069-0.299,0.069h-1.273c-0.145,0-0.244-0.023-0.299-0.069c-0.061-0.038-0.084-0.138-0.084-0.291v-12.488
			h-8.104v12.488C479.889,519.646,479.857,519.746,479.805,519.784z"/>
		<path fill="#808285" d="M516.602,518.573c0,0.329-0.131,0.56-0.391,0.674c-0.836,0.354-1.732,0.591-2.684,0.721
			c-0.943,0.131-1.863,0.192-2.736,0.192c-1.195,0-2.178-0.123-2.936-0.392c-0.768-0.261-1.365-0.598-1.811-1.02
			c-0.451-0.422-0.758-0.904-0.941-1.456c-0.178-0.553-0.262-1.127-0.262-1.726c0-0.697,0.115-1.341,0.361-1.954
			c0.236-0.599,0.605-1.127,1.104-1.579c0.498-0.453,1.111-0.798,1.863-1.051c0.742-0.253,1.625-0.376,2.652-0.376h3.717v-0.743
			c0-0.46-0.053-0.882-0.145-1.28c-0.084-0.391-0.27-0.729-0.529-1.012c-0.262-0.269-0.629-0.491-1.09-0.645
			c-0.467-0.16-1.072-0.237-1.816-0.237c-0.613,0-1.287,0.062-2.023,0.184c-0.744,0.123-1.365,0.269-1.893,0.438
			c-0.123,0.038-0.23,0.054-0.307,0.038c-0.07-0.008-0.131-0.076-0.17-0.207l-0.275-1.012c-0.055-0.215,0.016-0.353,0.23-0.43
			c0.328-0.13,0.697-0.253,1.088-0.353c0.391-0.107,0.797-0.199,1.211-0.275c0.422-0.069,0.844-0.123,1.273-0.153
			c0.43-0.023,0.828-0.039,1.203-0.039c1.801,0,3.143,0.399,4.01,1.196c0.865,0.805,1.295,1.978,1.295,3.519V518.573z
			 M514.51,512.417h-3.604c-0.338,0-0.736,0.03-1.203,0.092c-0.469,0.054-0.906,0.191-1.326,0.406
			c-0.422,0.215-0.775,0.537-1.059,0.959c-0.299,0.421-0.438,0.988-0.438,1.725c0,0.56,0.1,1.027,0.322,1.395
			c0.207,0.376,0.506,0.683,0.867,0.905c0.359,0.222,0.773,0.375,1.24,0.468c0.469,0.084,0.943,0.122,1.449,0.122
			c0.176,0,0.398-0.008,0.684-0.022c0.299-0.023,0.613-0.054,0.965-0.093c0.354-0.038,0.713-0.1,1.082-0.184
			c0.367-0.084,0.705-0.176,1.02-0.291V512.417z"/>
		<path fill="#808285" d="M533.988,519.769c-0.068,0.062-0.184,0.085-0.33,0.085h-1.135c-0.145,0-0.26-0.023-0.336-0.085
			c-0.086-0.054-0.131-0.161-0.131-0.329v-13.838c0-0.168,0.045-0.275,0.131-0.329c0.076-0.062,0.191-0.085,0.336-0.085h1.135
			c0.146,0,0.262,0.023,0.33,0.085c0.068,0.054,0.107,0.161,0.107,0.329v5.513h7.797v-5.513c0-0.168,0.037-0.275,0.115-0.329
			c0.076-0.062,0.184-0.085,0.336-0.085h1.166c0.168,0,0.275,0.023,0.338,0.085c0.053,0.054,0.084,0.161,0.084,0.329v13.838
			c0,0.168-0.031,0.275-0.084,0.329c-0.063,0.062-0.17,0.085-0.338,0.085h-1.166c-0.152,0-0.26-0.023-0.336-0.085
			c-0.078-0.054-0.115-0.161-0.115-0.329v-6.57h-7.797v6.57C534.096,519.607,534.057,519.715,533.988,519.769z"/>
		<path fill="#808285" d="M562.406,501.163c0,0.392-0.139,0.713-0.406,0.981c-0.275,0.261-0.605,0.391-0.996,0.391
			c-0.369,0-0.697-0.13-0.975-0.391c-0.283-0.269-0.414-0.59-0.414-0.981c0-0.391,0.131-0.729,0.414-1.012
			c0.277-0.276,0.605-0.422,0.975-0.422c0.391,0,0.721,0.146,0.996,0.422C562.268,500.435,562.406,500.772,562.406,501.163z
			 M562.016,519.493c0,0.153-0.031,0.253-0.084,0.291c-0.063,0.046-0.162,0.069-0.307,0.069h-1.258c-0.131,0-0.23-0.023-0.291-0.069
			c-0.068-0.038-0.1-0.138-0.1-0.291v-13.945c0-0.146,0.031-0.245,0.1-0.291c0.061-0.046,0.16-0.069,0.291-0.069h1.258
			c0.145,0,0.244,0.023,0.307,0.069c0.053,0.046,0.084,0.146,0.084,0.291V519.493z"/>
		<path fill="#808285" d="M588.279,505.188c0.338,0,0.605,0.085,0.805,0.261c0.191,0.185,0.291,0.445,0.291,0.806v13.293
			c0,0.153-0.037,0.237-0.1,0.268c-0.068,0.023-0.176,0.039-0.322,0.039h-1.234c-0.152,0-0.252-0.016-0.299-0.054
			c-0.061-0.039-0.092-0.131-0.092-0.276v-5.872h-3.939c-0.375,0-0.721,0.022-1.043,0.069c-0.33,0.046-0.621,0.146-0.896,0.275
			c-0.27,0.146-0.514,0.353-0.713,0.621c-0.207,0.269-0.383,0.637-0.537,1.104c-0.199,0.637-0.398,1.266-0.582,1.901
			c-0.184,0.629-0.369,1.28-0.561,1.925c-0.037,0.138-0.1,0.214-0.191,0.253c-0.092,0.038-0.176,0.054-0.252,0.054h-1.365
			c-0.215,0-0.314-0.085-0.314-0.246c0-0.038,0.008-0.061,0.016-0.068c0.008-0.016,0.016-0.039,0.016-0.077l1.279-4.108
			c0.154-0.529,0.369-0.981,0.645-1.388c0.283-0.398,0.752-0.69,1.402-0.852c-0.023,0-0.031-0.022-0.031-0.061
			c-0.912-0.246-1.563-0.698-1.953-1.396c-0.393-0.683-0.592-1.434-0.592-2.254c0-0.583,0.107-1.127,0.314-1.633
			c0.199-0.514,0.498-0.966,0.904-1.342c0.4-0.383,0.891-0.683,1.465-0.912c0.574-0.223,1.242-0.33,1.986-0.33H588.279z
			 M582.545,506.951c-0.482,0-0.904,0.069-1.25,0.199c-0.359,0.146-0.65,0.322-0.865,0.56c-0.23,0.23-0.391,0.498-0.506,0.79
			c-0.115,0.299-0.17,0.605-0.17,0.92c0,0.759,0.23,1.372,0.691,1.848c0.451,0.475,1.211,0.705,2.262,0.705h4.621v-5.021H582.545z"
			/>
	</g>
	<g>
		<path fill="#BCBEC0" d="M565.189,98.734c-23.061-24.263-59.695-31.331-89.777-14.121c-38.086,21.779-50.941,58.607-54.575,77.933
			c-3.634-19.326-16.489-56.154-54.574-77.933c-30.09-17.21-66.726-10.142-89.77,14.121c-17.548,18.421-33.401,45.828-31.914,72.291
			c2.346,42.102,22.462,66.625,59.849,90.973c74.384,48.45,102.495,81.705,112.285,96.186c1.042,1.848,1.778,2.982,1.894,3.15
			l2.238,3.374l2.247-3.374c0.115-0.176,0.904-1.372,2-3.35c9.912-14.581,38.107-47.76,112.154-95.987
			c37.387-24.347,57.504-48.871,59.85-90.973C598.574,144.562,582.721,117.155,565.189,98.734z M521.953,184.348
			c2.322,0.79,4.438,2.545,5.643,4.684c4.285,7.137-2.24,14.128-9.107,9.943c-1.342-0.828-2.5-1.855-3.451-3.082
			c0,0-0.068,0.092-0.137,0.307c-1.111,4.324,1.502,8.67,5.887,10.234c3.121,0.997,6.01,0.706,8.709-0.835
			c2.775-1.525,5.09-4.454,5.834-8.241c0.16-0.935,0.23-1.886,0.199-3.043c0.031-0.276-0.031-0.46-0.031-0.644
			c4.4,7.888,2.162,17.087-6.248,19.709c0.299,0.291,0.66,0.521,0.99,0.79c-1.902-0.184-3.818-0.215-5.697-0.069
			c-12.541,0.483-25.496,6.01-35.877,12.933c-1.563,1.004-2.951,2.2-4.445,3.312c-2.346,1.633-4.34,3.703-6.363,5.734
			c-0.844-0.621-1.641-1.288-2.445-1.97c0.674-0.437,1.334-0.874,2.031-1.334c17.363-11.331,27.107-25.919,28.273-42.255
			C509.143,185.682,514.578,182.271,521.953,184.348z M539.846,234.668c0.375,7.804-9.645,10.257-9.645,10.257
			c-14.443,3.672-29.154,1.143-43.076-3.534c-1.012-0.399-2.023-0.851-3.043-1.311c0.307-0.368,0.621-0.729,0.988-1.065
			C499.191,222.732,538.855,214.675,539.846,234.668z M384.377,268.368c4.685-3.917,9.56-4.055,14.635-0.437
			c6.578,4.914,5.382,16.275,1.932,22.5c-0.03,0.046-3.71,10.112-23.427,11.323c1.02-5.765,1.587-11.583,1.717-17.433
			c0.062,0.046,0.077,0.123,0.146,0.176c2.66,2.124,5.742,2.515,7.935,2.131c2.284-0.399,4.009-1.472,5.213-3.212
			c0.146-0.245,0.207-0.368,0.207-0.368C383.611,284.689,378.214,275.191,384.377,268.368z M390.771,257.651
			c-6.708,0.176-11.2,2.783-13.469,7.812c-2.315-8.732-5.673-16.973-11.254-23.987c1.748-1.311,3.488-2.645,5.213-3.986
			c12.618,8.586,21.909,16.015,28.702,22.155C397.295,258.249,394.198,257.49,390.771,257.651z M357.447,230.345
			c-1.495-1.112-2.882-2.308-4.446-3.312c-10.372-6.922-23.335-12.45-35.869-12.933c-1.871-0.146-3.795-0.115-5.696,0.069
			c0.322-0.269,0.69-0.499,0.989-0.79c-8.41-2.622-10.648-11.821-6.248-19.709c0,0.184-0.054,0.368-0.03,0.644
			c-0.023,1.157,0.038,2.108,0.191,3.043c0.751,3.787,3.066,6.716,5.834,8.241c2.706,1.541,5.596,1.832,8.716,0.835
			c4.378-1.563,7-5.91,5.88-10.234c-0.061-0.215-0.122-0.307-0.122-0.307c-0.966,1.227-2.116,2.254-3.465,3.082
			c-6.869,4.186-13.385-2.806-9.092-9.943c1.196-2.139,3.305-3.894,5.635-4.684c8.134-2.292,12.917,1.441,16.306,7.091
			c1.434,16.007,11.162,30.304,28.28,41.427c0.651,0.422,1.28,0.835,1.924,1.265c-0.789,0.674-1.579,1.333-2.415,1.947
			C361.793,234.047,359.808,231.978,357.447,230.345z M357.585,240.081c-1.004,0.46-2.024,0.912-3.036,1.311
			c-13.922,4.676-28.633,7.206-43.076,3.534c0,0-10.027-2.453-9.636-10.257c0.974-19.993,40.646-11.936,54.767,4.347
			C356.972,239.352,357.286,239.712,357.585,240.081z M429.018,307.228c0.514,2.775,0.844,5.673,0.85,8.662
			c0.008,13.033-5.748,24.479-9.014,29.898c-3.266-5.413-9.038-16.813-9.046-29.883c0-1.563,0.092-3.104,0.245-4.615
			c0.023-0.16,0.031-0.329,0.054-0.475c0.092-0.905,0.253-1.778,0.398-2.66c0.215-1.272,0.476-2.515,0.751-3.733
			c0.161-0.69,0.307-1.396,0.499-2.07c0.022-0.092,0.038-0.191,0.068-0.283c1.979-6.961,4.96-12.657,6.984-16.038
			c2.392,3.979,6.109,11.177,7.949,19.847C428.848,306.323,428.934,306.775,429.018,307.228z M420.708,176.261
			c0.03-0.008,0.092-0.008,0.146-0.008c1.135,0.039,2.215-0.514,2.821-1.472c9.66-15.355,22.922-23.803,37.357-23.803
			c9.727,0,19.219,4.086,25.994,11.2c6.977,7.329,10.541,17.195,10.012,27.797c-0.697,14.167-9.244,26.977-24.715,37.05
			c-33.162,21.61-46.441,36.866-51.469,44.179c-5.021-7.313-18.33-22.569-51.508-44.179c-15.462-10.073-24.018-22.883-24.7-37.05
			c-0.513-10.602,3.036-20.468,10.004-27.797c6.792-7.114,16.26-11.2,26.011-11.2c14.436,0,27.697,8.448,37.356,23.803
			C418.599,175.693,419.611,176.261,420.708,176.261z M442.67,267.931c5.068-3.618,9.943-3.48,14.619,0.437
			c6.18,6.823,0.775,16.321-8.348,14.681c0,0,0.053,0.123,0.207,0.368c1.195,1.74,2.928,2.813,5.205,3.212
			c2.199,0.383,5.273-0.008,7.941-2.131c0.07-0.054,0.092-0.13,0.139-0.176c0.131,5.849,0.713,11.668,1.717,17.433
			c-19.709-1.211-23.389-11.277-23.412-11.323C437.281,284.207,436.094,272.845,442.67,267.931z M450.904,257.651
			c-3.344-0.153-6.371,0.552-8.984,1.878c6.752-6.125,15.982-13.523,28.486-22.055c1.725,1.349,3.465,2.683,5.213,4.001
			c-5.566,7.015-8.939,15.255-11.246,23.987C462.096,260.434,457.604,257.828,450.904,257.651z M261.016,184.594
			c-0.491,0.268-1.004,0.644-1.502,1.042c-0.59,0.452-1.111,0.935-1.579,1.449c-0.253,0.269-0.491,0.514-0.675,0.736
			c-0.046,0.069-0.115,0.123-0.161,0.191c-0.268,0.337-0.414,0.567-0.329,0.575c-0.729,1.142-1.28,2.369-1.587,3.672
			c-2.146-6.968-3.542-14.121-3.91-21.458c-0.958-19.464,5.229-36.498,15.861-51.232c-2.162,7.214-2.76,14.627-1.786,22.247
			c1.641,20.131,20.775,39.779,41.979,37.303c1.402-0.138,2.821-0.092,4.193-0.398c5.573-0.805,10.771-3.105,15.424-6.125
			c10.449-6.631,15.662-16.129,15.631-28.518c-0.161-4.875-2.001-11.629-6.938-16.367c-4.646-4.454-12.036-5.833-18.023-3.664
			c-3.036,1.096-5.803,3.863-7.582,6.861c-2.622,4.577-3.258,10.365,0.061,14.934c0.905,1.295,2.583,2.783,4.347,3.458
			c1.365,0.575,8.149,2.016,6.485,0.958c-16.712-10.518,8.893-27.398,13.615-8.647c0.56,8.563-2.806,18.238-10.993,23.389
			c-24.14,13.569-47.161-8.486-49.576-26.9c-5.259-40.047,41.389-62.187,74.981-52.152c18.077,5.734,32.297,16.582,42.67,32.527
			c-1.794,10.732-12.228,21.48-24.187,15.516c-2.415-1.35-4.263-3.649-5.014-6.118c-2.745-8.325,6.608-14.006,13.124-8.126
			c1.027,0.858,1.756,1.863,2.254,2.652c0.452,0.82,0.736,1.326,0.736,1.326s0.176-0.061,0.245-0.299
			c2.775-9.253-6.593-14.972-13.715-13.048c-3.564,0.943-6.999,3.419-8.908,7.145c-0.491,0.912-0.82,1.871-1.135,3.066
			c-0.092,0.292-0.115,0.498-0.153,0.667c-2.683-9.115,2.515-18.046,12.726-18.797c-4.516-6.485-15.409-10.664-19.687-1.725
			c-1.097-12.174-18.966-15.631-17.67-2.193c-12.159-20.392-45.053,8.034-28.809,21.588c-6.34-9.958,8.295-14.941,15.784-14.159
			c10.35,1.096,16.566,7.436,23.39,14.006c7.497,7.252,9.275,15.056,20.169,19.602c14.995,5.926,27.107,1.472,36.345-13.37
			c4.5,6.669,11.108,17.548,14.366,29.43c-9.36-8.525-20.346-13.071-32.044-13.063c-11.813,0.007-23.29,4.952-31.484,13.569
			c-7.106,7.482-11.223,17.103-11.975,27.56c-1.679-1.886-3.664-3.473-6.01-4.562c-1.687-0.782-5.965-3.028-14.52-1.211
			c-10.227,2.131-13.569,8.962-21.58,14.229c-7.245,4.753-13.976,9.398-22.944,8.448
			C264.458,199.911,253.334,192.566,261.016,184.594z M300.32,217.351c-0.997,0.453-1.533,1.012-2.323,1.51
			c-7.329,6.278-10.548,15.692-6.079,24.332c0.683,1.188,1.518,2.254,2.423,3.243c-12.971-10.418-23.052-21.902-30.25-34.183
			c4.822,3.12,10.778,3.427,16.038-2.338c-4.263,12.12,11.56,12.319,15.354,1.326c0.599,3.557,2.545,5.389,4.983,6.056
			L300.32,217.351z M300.611,251.235c9.79,5.021,25.574,4.668,39.266,1.84c-0.207,0.353-0.46,0.697-0.651,1.058
			c-1.143,2.093-1.925,4.301-2.346,6.539c-1.502,7.819,0.805,15.601,5.673,20.729C331.482,273.021,303.01,252.967,300.611,251.235z
			 M346.707,251.426c4.822-1.372,16.045-6.792,16.045-6.792l3.342,4.554c3.596,4.944,5.78,10.786,7.061,16.735
			c-0.398-0.813-0.874-1.587-1.426-2.277c-2.224-2.844-5.673-4.73-9.207-5.052c-3.404-0.322-6.401,0.529-8.885,2.583
			c-1.947,1.702-3.113,4.201-3.136,6.7c-0.016,2.162,0.69,3.925,2.116,5.313l2.146,1.449l0.467-1.871
			c1.012-2.783,2.407-5.811,6.478-5.497c5.703,0.468,4.914,8.195,1.671,10.863c-3.074,2.859-9.368,1.74-12.496,0.176
			C338.727,272.354,341.057,258.609,346.707,251.426z M372.863,301.332c-4.117-0.59-13.599-7.352-25.091-15.991
			c3.089,1.648,6.478,2.599,9.858,2.691c3.756,0.138,8.08-0.92,11.047-3.358c3.082-2.369,5.144-5.91,5.78-9.744
			C375.584,288.952,372.863,301.332,372.863,301.332z M376.504,306.568c0,0,23.397,2.66,32.428-18.537
			c1.732-4.04,1.985-8.701,1.288-13.216c-0.406-2.836-1.365-5.558-2.791-7.958c5.788,6.041,8.517,10.135,9.628,12.059
			c-3.365,5.872-11.101,21.373-11.101,39.925c0,7.535,1.288,14.558,3.021,20.652C394.934,324.676,376.044,306.177,376.504,306.568z
			 M432.721,339.471c1.74-6.095,3.02-13.108,3.02-20.629c0-18.43-7.635-33.846-11.039-39.81c1.051-1.863,3.695-5.903,9.391-11.898
			c-1.334,2.331-2.254,4.953-2.645,7.682c-0.682,4.515-0.438,9.176,1.287,13.216c9.047,21.197,32.436,18.537,32.436,18.537
			C465.631,306.177,446.771,324.652,432.721,339.471z M468.818,301.332c0,0-2.729-12.38-1.594-26.402
			c0.621,3.833,2.684,7.375,5.773,9.744c2.959,2.438,7.289,3.496,11.047,3.358c3.373-0.092,6.768-1.042,9.85-2.691
			C482.418,293.98,472.928,300.742,468.818,301.332z M490.783,278.311c-3.121,1.564-9.414,2.683-12.488-0.176
			c-3.244-2.668-4.033-10.395,1.67-10.863c4.072-0.314,5.459,2.714,6.479,5.497l0.467,1.871l2.146-1.449
			c1.428-1.388,2.133-3.151,2.117-5.313c-0.031-2.499-1.197-4.998-3.137-6.7c-2.475-2.055-5.48-2.906-8.885-2.583
			c-3.533,0.322-6.975,2.208-9.215,5.052c-0.551,0.69-1.02,1.464-1.41,2.277c1.273-5.949,3.457-11.791,7.045-16.735l3.352-4.554
			c0,0,11.23,5.42,16.053,6.792C500.609,258.609,502.941,272.354,490.783,278.311z M499.131,281.4
			c4.859-5.128,7.16-12.91,5.666-20.729c-0.414-2.238-1.205-4.446-2.348-6.539c-0.191-0.36-0.436-0.705-0.658-1.058
			c13.707,2.829,29.484,3.181,39.273-1.84C538.672,252.967,510.193,273.021,499.131,281.4z M547.334,246.436
			c0.898-0.989,1.74-2.054,2.424-3.243c4.469-8.64,1.256-18.054-6.08-24.332c-0.781-0.498-1.326-1.058-2.322-1.51l-0.146-0.054
			c2.445-0.667,4.387-2.499,4.977-6.056c3.803,10.993,19.617,10.794,15.361-1.326c5.26,5.765,11.209,5.458,16.039,2.338
			C570.379,224.534,560.307,236.018,547.334,246.436z M590.395,170.802c-0.359,7.336-1.748,14.489-3.902,21.458
			c-0.307-1.303-0.85-2.53-1.578-3.672c0.084-0.008-0.068-0.238-0.338-0.575c-0.045-0.069-0.107-0.123-0.16-0.191
			c-0.191-0.223-0.414-0.468-0.676-0.736c-0.467-0.514-0.996-0.997-1.586-1.449c-0.49-0.398-1.004-0.774-1.494-1.042
			c7.68,7.973-3.443,15.317-9.92,16.014c-8.971,0.951-15.693-3.695-22.938-8.448c-8.02-5.267-11.361-12.097-21.58-14.229
			c-8.563-1.816-12.826,0.43-14.512,1.211c-2.354,1.088-4.34,2.675-6.01,4.554c-0.752-10.495-4.885-20.169-12.043-27.659
			c-8.195-8.601-19.68-13.538-31.486-13.523c-11.682,0.008-22.637,4.554-31.951,13.04c3.258-11.852,9.844-22.691,14.328-29.346
			c9.244,14.841,21.357,19.295,36.344,13.37c10.91-4.546,12.68-12.35,20.186-19.602c6.807-6.57,13.031-12.91,23.389-14.006
			c7.475-0.782,22.125,4.201,15.77,14.159c16.252-13.554-16.643-41.979-28.809-21.588c1.295-13.438-16.574-9.981-17.656,2.193
			c-4.293-8.939-15.17-4.761-19.693,1.725c10.211,0.751,15.4,9.682,12.727,18.797c-0.039-0.169-0.055-0.375-0.154-0.667
			c-0.314-1.196-0.645-2.154-1.127-3.066c-1.916-3.726-5.359-6.202-8.916-7.145c-7.129-1.924-16.496,3.795-13.723,13.048
			c0.078,0.238,0.262,0.299,0.262,0.299s0.275-0.506,0.736-1.326c0.49-0.79,1.219-1.794,2.238-2.652
			c6.516-5.88,15.877-0.199,13.123,8.126c-0.742,2.468-2.59,4.768-5.006,6.118c-11.951,5.964-22.393-4.784-24.178-15.516
			c10.365-15.945,24.584-26.793,42.654-32.527c33.592-10.035,75.441,10.587,75.441,50.979c0,20.353-22.516,41.642-46.648,28.073
			c-6.807-5.274-12.135-13.891-11.584-22.446c4.73-18.767,27.545-2.813,10.832,7.704c-1.67,1.058,5.113-0.383,6.486-0.958
			c1.756-0.675,3.426-2.162,4.34-3.458c3.311-4.569,2.682-10.357,0.053-14.934c-1.779-2.998-4.545-5.765-7.574-6.861
			c-5.994-2.169-13.377-0.79-18.016,3.664c-4.943,4.738-6.791,11.492-6.938,16.367c-0.037,12.388,5.168,21.887,15.615,28.518
			c4.662,3.021,9.859,5.32,15.434,6.125c1.363,0.307,2.789,0.26,4.186,0.398c21.219,2.476,40.346-17.172,41.986-37.303
			c0.973-7.62,0.375-15.033-1.795-22.247C585.166,134.304,591.361,151.338,590.395,170.802z"/>
	</g>
</g>
</svg>
