<svg xmlns="http://www.w3.org/2000/svg" width="841.89" height="595.28" viewBox="0 0 841.89 595.28"><g fill="#58595B"><path d="M268.835 459.774l-13.96 13.96-13.96-13.96h-13.96v52.35h13.96V479.52l13.96 13.963 13.96-13.96v32.602h13.96v-52.35M373.54 499.908v-40.134h-13.964v52.35h55.85V499.91M293.27 459.774v52.35h55.842v-52.35H293.27zm41.88 40.134h-27.92V471.99h27.92v27.918zM425.897 459.774v52.35h55.84v-52.35h-55.84zm41.88 40.134h-27.92V471.99h27.92v27.918zM558.522 459.774v52.35h55.842v-52.35h-55.842zm41.882 40.134h-27.922V471.99h27.922v27.918zM528.332 512.125h19.744l-26.186-26.187 26.16-26.164h-17.276l-24.607 24.607v-24.606H492.21v52.35h13.957V501.66l5.846-5.846M226.954 82.658v363.156h387.41V82.658h-387.41zm373.45 349.195h-359.49V96.618h359.49v335.235z"/><path d="M375.29 106.388v.01l-40.14 40.137-40.137-40.147h-40.138v150.516h40.138v-93.757l40.138 40.147 40.14-40.133v93.744h40.135V106.388M466.033 221.784V106.388h-40.136v150.516h160.55v-35.12M254.875 267.376v150.516h160.55V267.376h-160.55zM375.29 382.772h-80.277v-80.274h80.276v80.274zM529.742 417.893h56.768l-75.29-75.29 75.228-75.227h-49.673l-70.742 70.743v-70.744h-40.136v150.517h40.136v-30.107l16.804-16.8"/></g></svg>