<svg xmlns="http://www.w3.org/2000/svg" width="841.89" height="595.28" viewBox="0 0 841.89 595.28"><g fill="#58595B"><g fill-rule="evenodd" clip-rule="evenodd"><path d="M760.885 323.098L787.607 267l-34.976-5.91-17.745 47.983-17.746-47.98-34.814 5.908 26.547 56.11-31.734 61.875 37.93 6.43 19.815-54.493 19.808 54.492 37.936-6.43"/><path d="M772.627 322.924l30.48-63.98-57.325-9.69-10.896 29.47-10.898-29.47-57.12 9.69 30.272 63.98-35.926 70.04 60.752 10.295 12.92-35.53 12.916 35.53 60.754-10.297-35.93-70.04zm-37.742 33.603l-15.426 42.425-52.456-8.89 34.402-67.07-28.918-60.375 49.008-9.057 13.39 36.2 13.386-36.202 49.2 8.316-29.114 61.113 34.406 67.075-52.457 8.89-15.422-42.425z"/></g><g fill-rule="evenodd" clip-rule="evenodd"><path d="M477.65 294.27v-45.052l-90.822 7.656v146.384l59.535-6.468v-46.82h26.45v-36.126h-26.45V294.27h31.288zm-31.287 23.402h22.62v28.47h-26.448V393.375l-51.878 5.577v-138.25l83.167-7.143v36.88h-31.288V317.67h3.827z"/><path d="M467.124 283.742v-23.404l-69.768 5.628v125.507l38.48-4.106v-47.925h26.45v-15.07h-26.45v-40.63"/></g><g fill-rule="evenodd" clip-rule="evenodd"><path d="M631.04 280.185c-12.49-12.42-30-18.985-50.63-18.985-20.83 0-38.37 6.553-50.723 18.952-11.523 11.565-17.87 27.833-17.87 45.803 0 17.806 6.495 34.06 18.284 45.762 12.52 12.425 29.915 18.993 50.31 18.993 21.283 0 39.004-6.545 51.248-18.924 11.314-11.44 17.547-27.72 17.547-45.83 0-17.868-6.453-34.123-18.164-45.77zm-30.42 72.734c-4.788 9.313-11.966 14.442-20.21 14.442-8.248 0-15.428-5.13-20.215-14.443-3.646-7.094-5.656-16.314-5.656-25.957 0-9.64 2.01-18.86 5.655-25.953 4.79-9.314 11.967-14.444 20.214-14.444 8.244 0 15.422 5.13 20.21 14.444 3.645 7.096 5.655 16.313 5.655 25.953s-2.01 18.86-5.654 25.956z"/><path d="M580.41 293.265c-5.61 0-10.674 3.837-14.256 10.806-3.17 6.166-4.916 14.297-4.916 22.893 0 8.6 1.746 16.73 4.916 22.895 3.582 6.97 8.645 10.806 14.255 10.806 5.606 0 10.668-3.837 14.252-10.806 3.168-6.166 4.914-14.296 4.914-22.895 0-8.596-1.746-16.725-4.916-22.892-3.582-6.967-8.643-10.805-14.25-10.805zm0 63.57c-8.48 0-15.344-13.32-15.344-29.872 0-16.55 6.863-29.87 15.343-29.87 8.475 0 15.338 13.32 15.338 29.87 0 16.553-6.863 29.872-15.34 29.872z"/><path d="M580.41 250.672c-49.652 0-79.12 33.702-79.12 75.282 0 41.577 30.68 75.282 79.12 75.282 50.86 0 79.322-33.705 79.322-75.282 0-41.58-30.28-75.282-79.323-75.282zm56.012 125.824c-13.53 13.68-32.9 20.912-56.013 20.912-22.2 0-41.23-7.24-55.03-20.94-13.065-12.97-20.263-30.907-20.263-50.514 0-19.756 7.04-37.702 19.825-50.532C538.58 261.734 557.76 254.5 580.41 254.5c22.438 0 41.58 7.24 55.352 20.935 12.988 12.914 20.143 30.857 20.143 50.52 0 19.887-6.92 37.838-19.483 50.54z"/></g><path fill-rule="evenodd" clip-rule="evenodd" d="M413.133 200.775v5.815h-9.47v27.008h-6.66V206.59h-9.472v-5.815h25.603zM481.486 200.775c8.77 0 11.02 4.5 11.02 8.908 0 5.393-4.032 7.08-6.33 7.644v.095c1.595.374 2.626 1.594 3.425 3.47l5.345 12.706h-7.457l-4.22-10.41c-.796-1.968-2.015-3.096-4.22-3.096h-2.532v13.505h-6.656v-32.823h11.626zm-4.97 14.162h3.566c4.22 0 5.578-2.626 5.578-4.548 0-1.08-.326-4.456-5.578-4.456h-3.565v9.003zM552.14 200.775h6.66v32.823h-6.66v-32.823zM642.486 232.566c-2.906.985-5.86 1.408-8.486 1.408-8.158 0-17.068-4.643-17.068-16.6 0-11.3 7.973-16.975 18.287-16.975 2.577 0 4.784.328 7.267 1.124l-.28 5.628c-1.923-.75-4.032-1.22-6.517-1.22-7.363 0-11.725 4.642-11.725 11.347 0 7.924 5.346 11.16 11.254 11.16 2.907 0 5.204-.703 6.845-1.455l.42 5.58zM707.045 200.775v14.02h.14l11.864-14.02h7.923l-13.69 14.864 14.534 17.958h-8.44l-12.19-16.318h-.14v16.318h-6.66v-32.823h6.658zM785.904 200.775l6.752 11.535 1.03 2.25h.144l1.125-2.25 6.797-11.535h7.035l-11.818 19.507v13.316h-6.66v-13.41l-12.095-19.414h7.69zM365.092 270.168s-1.467-.298-4.542-.718c-10.55-2.877-38.07-10.09-66.734-11.373 8.653-21.686 17.84-49.967 6.405-88.118 0 0-40.866 5.132-65.816 38.203-1.42 1.88-2.527 3.727-3.363 5.553-10.076-2.877-20.708-4.436-31.702-4.467-11.066-.036-21.77 1.484-31.92 4.335-.828-1.778-1.916-3.587-3.3-5.422-24.95-33.07-65.817-38.204-65.817-38.204-11.352 37.88-2.377 66.028 6.224 87.648-.12.162-.23.33-.346.49-27.615 1.113-54.155 7.726-65.414 10.69-3.845.556-5.66.98-5.66.98h.01c.492 0 20.33.105 43.57 16.527-4.98.89-14.147 2.83-20.933 6.582l13.995 3.275s22.095 6.398 43.625 29.494c-3.512-.832-12.704-2.453-20.847.732l18.98 10.15s16.892 8.768 48.95 43.625c9.485 10.31 18.868 23.775 24.013 31.197.06.088.12.166.18.254 1.127 6.875 14.45 12.582 14.45 12.582s13.594-5.816 14.49-12.783c5.246-7.615 14.45-21.283 23.52-31.03 32.262-34.67 49.205-43.347 49.205-43.347l19.038-10.04c-8.752-3.48-18.342-1.384-21.03-.67 21.637-23.14 43.565-29.525 43.565-29.525l13.877-2.798c-6.77-3.797-15.7-5.907-20.51-6.914 23.702-16.72 43.842-16.91 43.842-16.91zm-77.143-22.036c-7.667-8.767-16.458-16.264-26.235-22.386 1.498-2.348 5.84-6.71 17.725-7.817 0 0-12.796-7.59-21.437-2.51 2.683-5.054 5.533-9.586 8.432-13.637 5.97-7.56 11.947-13.226 16.775-17.206 6.5-5.355 11.964-8.548 14.674-9.99 5.61 25.357 2.355 49.464-9.935 73.545zm-187.312-73.548c2.69 1.432 8.095 4.59 14.572 9.91 4.854 3.99 10.867 9.678 16.866 17.275 2.904 4.055 5.76 8.59 8.443 13.65-8.64-5.08-21.435 2.508-21.435 2.508 11.883 1.108 16.225 5.47 17.72 7.817-9.776 6.122-18.565 13.62-26.23 22.386-12.293-24.08-15.547-48.186-9.937-73.546zm208.998 128.67c-9.387 5.617-23.227 15.83-35.852 32.572l-2.35 3.113 3.902.013 4.246.012c-7.53 5.217-22.268 16.826-43.903 40.08-8.453 9.086-17.135 21.693-22.388 29.344-1.43-4.806-7.24-8.405-14.195-8.405-7.01 0-12.862 3.658-14.23 8.523-5.02-7.217-13.994-19.908-22.978-29.674-21.5-23.38-36.17-35.078-43.672-40.332l4.248.008 3.902.014-2.332-3.13c-12.53-16.817-26.43-27.083-35.885-32.73-3.165-1.897-6.046-3.407-8.523-4.6l9.04-.038 4.914-.022-3.588-3.354c-16.575-15.506-32.813-22.05-43.678-24.813 8.24-.854 20.66-1.682 37.823-1.682h1.557c13.11.04 45.85 4.932 62.872 11.378 4.642 2.167 8.876 4.677 12.415 7.575 37.97 31.137 37.95 109.497 37.95 109.497s.472-79.643 37.894-109.497c2.92-2.33 6.317-4.396 10.024-6.235.79-.315 1.583-.626 2.38-.924 16.816-6.36 49.883-11.142 63.12-11.142h.16c17.803.052 30.678.836 39.186 1.624-1.38.368-2.85.793-4.395 1.292-9.655 3.118-24.294 9.735-39.24 23.552l-3.637 3.363 4.953.02 8.677.04c-2.446 1.18-5.29 2.68-8.417 4.554z"/><path d="M269.637 284.585c-8.294 2.692-15.28 5.93-21.288 9.546-2.057 1.24-5.825 3.653-7.594 5.102-7.642 6.264-14.2 14.86-17.39 19.693C216.36 329.55 212.356 344 212.356 344s7.303-2.474 20.447-4.52c15.618-2.43 25.833-6.454 32.354-10.378 3.008-1.813 5.23-3.604 6.836-5.21 9.86-9.868 14.876-22.83 16.23-28.66.53-2.276.914-4.383 1.194-6.283 35.575-15.836 45.51-17.732 47.282-17.96-22.4 2.103-42.32 6.792-46.558 7.83 0 .002-2.817.01-20.505 5.765zm-17.61 21c.36-.597 1.138-.79 1.733-.427.6.36.79 1.14.427 1.738-.36.596-1.138.79-1.734.426-.6-.36-.788-1.138-.427-1.738zm-3.796 12.44c6.445.02 11.803-4.643 12.858-10.787-.975 1.31-2.81 1.69-4.237.828-1.517-.92-2.002-2.895-1.085-4.414.917-1.516 2.892-2.002 4.414-1.086.42.258.76.596 1.013.98-.5-4.436-3.234-8.185-7.055-10.12.06-.036.118-.066.18-.097 5.044 1.803 8.652 6.616 8.637 12.274-.02 7.19-5.86 12.996-13.05 12.975-1.74-.005-3.4-.35-4.914-.972 1.04.267 2.125.417 3.24.417zm37.807-23.29c-1.358 5.843-6.33 18.275-15.634 27.585-1.69 1.69-3.847 3.332-6.407 4.875-7.694 4.633-18.305 8.025-31.54 10.084-7.51 1.165-13.12 2.466-16.613 3.39 2.122-6.004 6.544-17.338 11.71-23.775 4.125 8.145 12.562 13.742 22.32 13.773 13.86.04 25.128-11.164 25.17-25.027.02-7.05-2.878-13.426-7.55-17.998.937-.324 1.897-.645 2.892-.955 8.67-2.732 17.004-5.308 17.004-5.308.18 3.906.005 7.51-1.353 13.356z"/><path fill-rule="evenodd" clip-rule="evenodd" d="M174.232 318.77c-3.175-4.836-9.7-13.432-17.302-19.693-1.76-1.45-5.51-3.863-7.554-5.098-5.98-3.622-12.97-6.74-21.185-9.552-17.25-5.912-20.266-6.13-20.266-6.13-4.45-1.06-24.79-5.702-47.475-7.734 0 0 10.592 1.143 48.203 17.963.29 2.006.688 4.23 1.237 6.613 1.346 5.824 6.146 18.73 15.958 28.595 1.596 1.607 3.808 3.398 6.8 5.21 6.49 3.93 16.653 7.954 32.195 10.38 13.076 2.045 20.343 4.52 20.343 4.52s-3.98-14.45-10.954-25.075zm-24.123-13.782c.36-.596 1.138-.79 1.738-.426.598.36.788 1.14.427 1.734-.36.6-1.14.79-1.74.43-.597-.363-.787-1.138-.426-1.738zm-3.782 12.742c6.57.02 12.007-4.844 12.9-11.17-.958 1.375-2.834 1.79-4.29.91-1.52-.924-2.004-2.895-1.087-4.414.504-.832 1.328-1.354 2.214-1.506 0 0 1.355 1.023 2.632 2.22 1.104 1.038 2.133 2.247 2.314 2.435-.477 6.77-6.124 12.104-13.013 12.082-1.732-.004-3.383-.35-4.894-.967 1.03.266 2.11.407 3.225.41zm-12.522 9.307c-2.55-1.54-4.694-3.18-6.376-4.875-9.26-9.31-14.016-21.686-15.364-27.523-1.354-5.852-1.548-9.775-1.36-13.54 0 0 8.115 2.7 16.744 5.43 1 .314 1.964.64 2.906.968-4.806 4.488-7.395 10.496-7.414 17.71-.04 13.858 11.165 25.126 25.025 25.165 9.665.027 18.064-5.416 22.28-13.418 5.062 6.482 9.386 17.623 11.475 23.557-3.48-.92-9.06-2.22-16.534-3.39-13.17-2.058-23.728-5.452-31.382-10.085zM761.418 323.09l26.895-56.455-35.94-6.08-17.487 47.138-17.434-47.137-35.828 6.08 26.72 56.466-31.93 62.246 38.972 6.604 19.5-53.63 19.496 53.63 38.973-6.604-31.937-62.258zm-26.533 12.432l-20.127 55.353-36.896-6.252 31.547-61.505-26.38-55.752 33.8-5.733 18.056 48.82 18.055-48.826 33.964 5.74-26.553 55.74 31.558 61.517-36.898 6.252-20.125-55.354zM436.314 284.22h31.288v-24.753l-70.725 6.06V391.95l39.437-4.247V339.92h26.45v-16.027h-26.45V284.22zm25.493 40.63v14.114h-26.45v47.89l-37.522 4.022V266.35l68.81-5.844v22.757H435.36v41.586h26.45zM580.41 366.884c-8.035-.003-15.045-4.974-19.79-14.184-3.604-7.007-5.603-16.16-5.603-25.737 0-9.576 1.998-18.727 5.604-25.734 4.745-9.21 11.755-14.18 19.79-14.185 8.03.004 15.04 4.976 19.783 14.184 3.605 7.01 5.604 16.16 5.604 25.733 0 9.576-1.998 18.727-5.602 25.737-4.744 9.21-11.756 14.18-19.786 14.184m.008-80.797H580.4c-8.457 0-15.8 5.288-20.63 14.704-3.69 7.18-5.708 16.465-5.71 26.173.002 9.71 2.02 18.995 5.71 26.175 4.83 9.417 12.173 14.703 20.63 14.703H580.418c8.455 0 15.797-5.285 20.627-14.702 3.69-7.183 5.707-16.466 5.71-26.175-.003-9.707-2.02-18.99-5.712-26.172-4.828-9.415-12.17-14.7-20.625-14.703m-.01 104.143c-20.29-.002-37.55-6.53-49.97-18.855-11.694-11.607-18.142-27.73-18.144-45.42.002-17.86 6.305-33.998 17.73-45.468 12.252-12.293 29.652-18.808 50.384-18.81 20.533.002 37.9 6.527 50.292 18.847 11.617 11.553 18.023 27.677 18.025 45.43-.002 18.003-6.193 34.15-17.408 45.494-12.137 12.274-29.72 18.78-50.908 18.782m.008-129.51h-.01c-20.927 0-38.603 6.592-51.06 19.093-11.622 11.664-18.01 28.06-18.01 46.142 0 17.922 6.538 34.304 18.426 46.1C542.38 384.58 559.91 391.19 580.4 391.19h.01c21.377 0 39.238-6.58 51.59-19.067 11.412-11.542 17.684-27.946 17.684-46.167 0-17.98-6.496-34.364-18.307-46.108-12.59-12.522-30.232-19.127-50.96-19.127"/></g></svg>