<?xml version="1.0" encoding="utf-8"?>
<!-- Generator: Adobe Illustrator 16.0.0, SVG Export Plug-In . SVG Version: 6.00 Build 0)  -->
<!DOCTYPE svg PUBLIC "-//W3C//DTD SVG 1.1//EN" "http://www.w3.org/Graphics/SVG/1.1/DTD/svg11.dtd">
<svg version="1.1" id="Layer_1" xmlns="http://www.w3.org/2000/svg" xmlns:xlink="http://www.w3.org/1999/xlink" x="0px" y="0px"
	 width="841.89px" height="595.28px" viewBox="0 0 841.89 595.28" enable-background="new 0 0 841.89 595.28" xml:space="preserve">
<g>
	<path fill-rule="evenodd" clip-rule="evenodd" fill="#58595B" d="M673.924,389.078l16.344-56.025
		c2.861-10.125,5.567-16.64,8.125-19.509c2.551-2.869,8.098-4.311,12.528-4.311c2.981,0,5.052,0.729,6.218,2.19
		c1.159,1.449,1.18,4.169-0.085,8.112c-1.667,5.172-2.96,8.429-3.737,9.85c-0.777,1.42-1.42,3.031-1.93,4.833
		c15.814-11.454,23.707-18.039,28.088-19.982c4.395-1.929,8.676-3.003,12.873-3.25c6.635-0.36,11.814,0.572,14.817,3.624
		c2.933,2.989,2.897,7.787,0.579,13.736c-5.059,12.98-16.244,25.6-29.889,34.905c-13.658,9.32-23.303,13.977-33.074,13.977
		c-2.063,0-3.506-0.431-4.354-1.279c-0.854-0.861-0.981-2.147-0.416-3.872c0.487-1.462,1.363-2.833,2.613-4.133
		c1.251-1.272,3.717-0.233,5.618-1.011l9.107-3.73c8.945-3.675,23.522-20.321,26.659-29.755c1.364-4.119,1.272-6.62-3.257-4.126
		l-4.911,2.699c-4.96,2.728-11.136,7.277-18.583,13.587c-7.454,6.317-11.086,11.701-15.058,16.16
		c-2.416,7.306-5.087,16.556-7.998,27.755c-2.911,11.206-4.332,18.236-4.388,21.056l-0.078,3.477
		c-0.106,4.127-2.105,7.836-5.879,11.143c-3.772,3.308-9.482,4.961-12.973,4.961c-3.293,0-5.497-0.954-6.6-2.904
		c-1.103-1.922-1.145-4.431-0.113-7.519c0.318-0.953,0.799-2.353,1.478-4.189c0.656-1.845,1.18-3.194,1.575-4.07
		c0.522-1.526,1.187-3.709,2.014-6.5C670.066,402.192,671.628,396.886,673.924,389.078"/>
	<path fill-rule="evenodd" clip-rule="evenodd" fill="#58595B" d="M58.848,375.398c-0.354-2.925,0.353-4.451,1.667-6.409
		c2.226-3.335,6.204-9.793,9.278-12.958c91.595-94.061,140.144-119.844,211.679-162.579c15.481-9.25,71.563-34.51,87.645-27.246
		c9.871,4.437,4.155,22.088-1.35,35.619c-7.271,17.897-35.301,59.402-9.963,50.697c15.192-5.229,24.413-13.361,38.678-21.339
		c0.537-0.297,44.833-26.292,39.061-6.706c-7.2,24.526-13.313,25.557-19.063,48.331c-1.611,6.359-0.997,6.691-6.494,9.596
		c-11.008,5.808-16.329,13.149-25.981,12.895c-5.179-0.141-6.274-7.151-3.151-14.195c12.902-29.231,13.375-31.902,3.279-27.055
		c-10.09,4.847-30.737,17.212-48.267,25.889c-17.036,8.437-27.592,3.024-23.89-20.13c3.872-24.314,33.083-77.195,10.825-71.337
		c-64.759,17.093-183.684,108.567-230.199,166.91c-4.96,6.218-7.85,11.899-11.659,15.333c-3.872,3.47-10.839,7.073-14.881,7.574
		C61.66,378.86,59.095,377.44,58.848,375.398"/>
	<path fill-rule="evenodd" clip-rule="evenodd" fill="#58595B" d="M452.239,235.261c8.211-2.402,14.259-2.678,23.19-5.215
		c1.088-0.169,4.883,0.212,2.763,2.728c-9.532,11.327-15.156,31.288-21.296,48.041c-5.307,7.207-17.107,10.167-28.01,14.895
		c-4.932,2.134-7.482-3.307-4.925-7.808c7.299-12.881,14.499-30.518,19.855-45.928C445.414,237.402,447.576,236.618,452.239,235.261
		"/>
	<path fill-rule="evenodd" clip-rule="evenodd" fill="#58595B" d="M495.065,233.912c6.366-1.124,12.719-2.607,17.743-3.936
		c1.879-0.488,3.787,1.201,2.903,3.066c-6.041,12.994-12.181,19.947-17.227,31.839c10.705-6.713,22.427-8.945,30.772-13.56
		c1.61-5.299,3.681-11.284,6.917-15.785c1.491-2.049,9.603-4.141,11.772-4.558c5.002-1.01,5.108-1.406,10.322-1.151
		c4.12,0.198,3.371-1.505,1.823,4.451c-1.201,4.6-3.547,10.097-4.176,12.655c11.271-2.777,24.837-7.377,37.351-8.338
		c-11.581,5.476-25.268,9.574-40.156,14.958c-5.271,8.924-8.055,17.17-11.531,26.702c-0.657,1.83-0.48,4.134-1.604,5.978
		c-1.435,2.381-4.339,4.197-6.521,5.172c-0.982,0.445-4.918,1.632-10.176,3.187c-6.769,1.985-13.877,4.027-12.732,0.12
		c0.806-2.699,2.085-5.172,3.773-8.281c3.724-6.847,6.805-15.093,9.03-20.901c-6.656-0.042-20.781,9.397-26.794,14.895
		c-3.632,3.314-9.433,9.927-14.012,12.634c-6.119,3.589-19.594,8.684-15.347-4.452c4.798-14.853,11.376-32.326,18.682-46.91
		C488.544,236.399,489.688,234.887,495.065,233.912"/>
	<path fill-rule="evenodd" clip-rule="evenodd" fill="#58595B" d="M592.222,178.091c0.961,1.773-0.601,1.773-4.289,3.052
		c-17.298,6.013-41.731,17.502-62.011,36.064c-6.825,4.508-9.129,3.095-9.284-5.37c19.078-15.496,34.743-24.25,51.956-29.493
		C576.225,180.027,584.343,179.512,592.222,178.091"/>
	<path fill-rule="evenodd" clip-rule="evenodd" fill="#58595B" d="M473.727,204.058c5.123-2.19,14.69-3.116,20.223-1.562
		c-4.953,3.123-11.334,5.073-16.301,8.197c-7.369,4.112-13.765,8.627-21.148,12.753c-7.391-4.529-4.995-6.953,0.085-10.167
		C461.064,210.439,467.487,206.715,473.727,204.058"/>
	<path fill-rule="evenodd" clip-rule="evenodd" fill="#58595B" d="M658.867,208.164c13.297-1.639,25.769,0.275,38.572,1.003
		c19.092,12.188,37.088,25.628,54.576,38.989c-5.836,0.848-9.602,0.756-15.432,1.371c-2.359,10.853-8.747,33.747-12.457,44.6
		c-2.119,0.565-6.733,1.568-8.847,2.127c3.999-12.613,12.245-36.403,14.888-49.016c4.007-0.113,10.451,0.686,14.45-0.516
		c-15.136-11.157-32.828-22.781-47.942-33.931c-9.688-1.611-21.374-3.886-32.934-2.791
		C662.018,210.163,660.266,208.771,658.867,208.164"/>
	<path fill-rule="evenodd" clip-rule="evenodd" fill="#58595B" d="M570.042,318.115l-9.052,25.564
		c-1.024,2.678-1.9,5.031-2.656,7.059c-0.764,2.028-1.576,4.148-2.459,6.339l4.932-0.403c3.109-0.269,9.164,0.07,10.514,0.819
		c1.35,0.757,1.513,1.845,0.48,3.293c-0.933,1.308-2.162,2.354-3.682,3.145c-1.533,0.791-9.263,1.773-15.509,2.939
		c-2.826,3.095-5.477,5.419-7.956,6.96c-2.474,1.54-4.664,2.317-6.6,2.317c-1.717,0-7.2,0.487-8.02-0.431
		c-0.82-0.933-0.897-2.382-0.227-4.396c-11.461,2.014-17.396,3.088-26.277,5.193c-8.883,2.099-14.811,3.441-17.764,3.852
		l-11.906,1.695c-2.968,0.424-4.854,0.07-5.652-1.031c-0.799-1.089-0.594-2.579,0.685-4.431c0.799-1.166,2.247-2.282,4.226-3.35
		c2.014-1.066,10.45-2.727,13.121-3.08l3.088-0.41c1.293-1.922,3.54-4.564,6.698-7.886c3.166-3.335,15.813-15.862,37.958-37.568
		c17.573-17.319,27.691-26.724,30.404-28.2c2.707-1.463,4.996-2.247,6.903-2.318c2.537,0,3.845,1.526,3.887,4.586
		C575.242,301.447,573.518,308.019,570.042,318.115 M508.576,364.298l-1.463,1.745l27.026-5.122
		c0.594-1.506,1.201-3.074,1.845-4.686c0.629-1.61,1.512-3.355,2.105-5.2l4.543-14.272c4.869-15.27,2.078-13.411-2.748-8.31
		c-4.833,5.102-8.903,11.475-13.771,16.569l-10.14,10.612c-0.522,0.552-1.011,1.067-1.456,1.541
		C514.066,357.656,512.095,360.03,508.576,364.298"/>
	<path fill-rule="evenodd" clip-rule="evenodd" fill="#58595B" d="M570.374,366.418l9.129-31.754l9.122-31.754
		c3.525-8.663,11.524-24.434,16.047-28.292c9.581-8.218,21.451-15.531,35.725-14.754c10.486,0.565,19.523,6.225,18.406,13.828
		c-2.479,16.732-31.542,42.833-42.649,44.691c10.062-1.78,22.229-1.158,26.646,1.823c4.431,2.981,5.752,7.709,3.985,14.174
		c-2.028,7.384-5.158,17.106-24.49,31.373c-13.955,10.309-33.153,13.644-42.579,13.644c-3.229,0-5.427-1.018-6.593-3.031
		C571.949,374.353,569.088,371.032,570.374,366.418 M615.489,283.182l-10.31,31.245c8.501,3.724,37.025-26.15,28.37-36.58
		C631.197,275,617.186,278.045,615.489,283.182 M601.895,333.399c-1.66,3.434-3.024,7.814-4.197,11.418l-5.327,15.198
		c-1.244,3.52,1.964,3.78,4.303,3.625c12.309-0.854,31.599-20.314,25.938-31.11c-2.184-4.169-4.557-7.872-12.139-5.145
		C608.027,328.276,603.725,329.64,601.895,333.399"/>
	<path fill-rule="evenodd" clip-rule="evenodd" fill="#58595B" d="M659.743,319.416l1.343-4.014
		c0.968-3.003,2.854-5.349,5.674-6.988c2.818-1.668,5.864-2.509,9.136-2.509s5.929,0.65,7.949,1.93
		c2.021,1.278,2.784,2.932,2.268,4.981c-1.165,4.649-4.239,12.944-9.199,24.879c-4.96,11.941-7.222,20.9-6.763,26.893l0.1,1.533
		c0.162,2.868-1.145,5.243-3.9,7.129c-2.77,1.887-6.444,2.819-11.016,2.819c-4.268,0-7.235-1.053-8.953-3.144
		c-1.709-2.106-1.844-5.985-0.438-11.589c0.085-0.317,0.177-0.721,0.297-1.201C646.36,359.663,650.861,346.082,659.743,319.416"/>
	<path fill-rule="evenodd" clip-rule="evenodd" fill="#58595B" d="M364.679,320.751c-10.584,4.091-13.192,10.387-7.016,12.323
		c5.525,1.724,19.332,2.077,22.957,0.678c9.107-3.483,5.984-9.341,1.102-11.997C377.935,319.691,369.873,318.504,364.679,320.751"/>
	<path fill="#58595B" d="M364.679,320.751c-10.584,4.091-13.192,10.387-7.016,12.323c5.525,1.724,19.332,2.077,22.957,0.678
		c9.107-3.483,5.984-9.341,1.102-11.997C377.935,319.691,369.873,318.504,364.679,320.751z"/>
	<path fill-rule="evenodd" clip-rule="evenodd" fill="#58595B" d="M345.722,337.936c-10.782,3.575-17.757,12.422-11.383,14.294
		c5.688,1.696,23.43,2.544,28.405-1.745c7.737-6.628,8.86-9.836,3.823-12.372C362.63,336.134,350.985,335.942,345.722,337.936"/>
	<path fill="#58595B" d="M345.722,337.936c-10.782,3.575-17.757,12.422-11.383,14.294c5.688,1.696,23.43,2.544,28.405-1.745
		c7.737-6.628,8.86-9.836,3.823-12.372C362.63,336.134,350.985,335.942,345.722,337.936z"/>
	<path fill-rule="evenodd" clip-rule="evenodd" fill="#58595B" d="M321.79,357.31c-12.867,4.656-21.29,15.913-13.75,18.224
		c6.755,2.056,27.847,2.911,33.846-2.579c9.277-8.473,9.504-11.454,3.533-14.599C340.769,355.911,328.085,354.724,321.79,357.31"/>
	<path fill="#58595B" d="M321.79,357.31c-12.867,4.656-21.29,15.913-13.75,18.224c6.755,2.056,27.847,2.911,33.846-2.579
		c9.277-8.473,9.504-11.454,3.533-14.599C340.769,355.911,328.085,354.724,321.79,357.31z"/>
	<path fill-rule="evenodd" clip-rule="evenodd" fill="#58595B" d="M384.902,338.104c-9.942,3.548-16.435,12.146-10.592,13.92
		c5.208,1.597,21.516,2.275,26.137-1.922c7.165-6.479,8.246-9.588,3.618-11.998C400.468,336.226,389.771,336.126,384.902,338.104"/>
	<path fill="#58595B" d="M384.902,338.104c-9.942,3.548-16.435,12.146-10.592,13.92c5.208,1.597,21.516,2.275,26.137-1.922
		c7.165-6.479,8.246-9.588,3.618-11.998C400.468,336.226,389.771,336.126,384.902,338.104z"/>
	<path fill-rule="evenodd" clip-rule="evenodd" fill="#58595B" d="M419.419,338.663c-8.161,3.505-13.63,11.638-8.932,13.171
		c4.204,1.37,17.417,1.675,21.275-2.325c5.971-6.154,6.903-9.072,3.215-11.221C432.102,336.614,423.411,336.748,419.419,338.663"/>
	<path fill="#58595B" d="M419.419,338.663c-8.161,3.505-13.63,11.638-8.932,13.171c4.204,1.37,17.417,1.675,21.275-2.325
		c5.971-6.154,6.903-9.072,3.215-11.221C432.102,336.614,423.411,336.748,419.419,338.663z"/>
	<path fill-rule="evenodd" clip-rule="evenodd" fill="#58595B" d="M448.734,341.115c-0.621,0.247-2.791,0.933-3.355,1.236
		c-5.582,2.861-7.772,8.161-4.268,9.271c3.44,1.074,14.258,1.441,17.367-1.541c4.819-4.628,5.547-6.825,2.494-8.485
		C458.599,340.281,451.979,339.688,448.734,341.115"/>
	<path fill="#58595B" d="M448.734,341.115c-0.621,0.247-2.791,0.933-3.355,1.236c-5.582,2.861-7.772,8.161-4.268,9.271
		c3.44,1.074,14.258,1.441,17.367-1.541c4.819-4.628,5.547-6.825,2.494-8.485C458.599,340.281,451.979,339.688,448.734,341.115z"/>
	<path fill-rule="evenodd" clip-rule="evenodd" fill="#58595B" d="M366.262,356.936c-11.8,4.826-19.657,16.174-12.817,18.364
		c6.098,1.957,25.282,2.494,30.843-3.066c8.592-8.586,8.854-11.567,3.462-14.612C383.56,355.261,372.042,354.258,366.262,356.936"/>
	<path fill="#58595B" d="M366.262,356.936c-11.8,4.826-19.657,16.174-12.817,18.364c6.098,1.957,25.282,2.494,30.843-3.066
		c8.592-8.586,8.854-11.567,3.462-14.612C383.56,355.261,372.042,354.258,366.262,356.936z"/>
	<path fill-rule="evenodd" clip-rule="evenodd" fill="#58595B" d="M404.587,356.561c-10.26,5.088-17.319,16.569-11.503,18.584
		c5.193,1.809,21.643,1.907,26.568-3.752c7.596-8.762,7.907-11.729,3.356-14.634C419.468,354.49,409.618,353.77,404.587,356.561"/>
	<path fill="#58595B" d="M404.587,356.561c-10.26,5.088-17.319,16.569-11.503,18.584c5.193,1.809,21.643,1.907,26.568-3.752
		c7.596-8.762,7.907-11.729,3.356-14.634C419.468,354.49,409.618,353.77,404.587,356.561z"/>
	<path fill-rule="evenodd" clip-rule="evenodd" fill="#58595B" d="M437.472,360.313c-2.049,1.024-3.123,1.074-4.755,2.537
		c-4.89,4.359-7.688,11.306-4.304,12.429c4.014,1.356,16.923,1.229,20.943-3.271c6.204-6.96,6.783-9.984,3.038-11.503
		C449.343,359.26,441.139,358.539,437.472,360.313"/>
	<path fill="#58595B" d="M437.472,360.313c-2.049,1.024-3.123,1.074-4.755,2.537c-4.89,4.359-7.688,11.306-4.304,12.429
		c4.014,1.356,16.923,1.229,20.943-3.271c6.204-6.96,6.783-9.984,3.038-11.503C449.343,359.26,441.139,358.539,437.472,360.313z"/>
	<path fill-rule="evenodd" clip-rule="evenodd" fill="#58595B" d="M681.414,267.581c-5.942,5.971-9.553,19.438-5.922,21.819
		c3.244,2.113,13.242,2.233,15.898-4.409c4.127-10.281,4.141-13.764,1.209-17.177C690.338,265.157,684.304,264.302,681.414,267.581"
		/>
	<path fill="#58595B" d="M769.349,216.014c2.261,0,4.409,0.565,6.472,1.696c2.078,1.117,3.689,2.728,4.876,4.826
		s1.767,4.31,1.767,6.6c0,2.275-0.572,4.465-1.725,6.521c-1.166,2.078-2.783,3.688-4.861,4.847
		c-2.056,1.152-4.246,1.731-6.528,1.731c-2.269,0-4.452-0.58-6.522-1.731c-2.07-1.159-3.688-2.77-4.847-4.847
		c-1.166-2.056-1.731-4.247-1.731-6.521c0-2.29,0.587-4.501,1.767-6.6c1.181-2.099,2.806-3.709,4.868-4.826
		C764.953,216.579,767.108,216.014,769.349,216.014 M769.377,218.593c-1.802,0-3.533,0.445-5.187,1.342
		c-1.653,0.897-2.954,2.19-3.915,3.886c-0.953,1.696-1.427,3.47-1.427,5.314c0,1.823,0.459,3.589,1.385,5.257
		c0.933,1.661,2.233,2.968,3.9,3.893c1.668,0.94,3.413,1.406,5.243,1.406c1.837,0,3.582-0.466,5.242-1.406
		c1.668-0.925,2.961-2.232,3.894-3.893c0.947-1.667,1.399-3.434,1.399-5.257c0-1.844-0.467-3.618-1.42-5.314
		c-0.947-1.696-2.262-2.989-3.922-3.886C772.91,219.038,771.186,218.593,769.377,218.593 M763.435,236.151v-13.92h2.819
		c2.656,0,4.147,0.007,4.444,0.042c0.939,0.078,1.667,0.262,2.19,0.559c0.516,0.29,0.954,0.728,1.3,1.328
		c0.354,0.594,0.522,1.265,0.522,1.993c0,1.003-0.324,1.858-0.981,2.579c-0.65,0.721-1.583,1.145-2.771,1.328
		c0.425,0.148,0.757,0.325,0.982,0.516c0.233,0.19,0.545,0.544,0.934,1.074c0.112,0.12,0.451,0.7,1.031,1.682l1.639,2.819h-3.483
		l-1.165-2.261c-0.777-1.519-1.435-2.48-1.951-2.861c-0.516-0.389-1.165-0.594-1.949-0.594h-0.742v5.716H763.435z M766.254,228.245
		h1.158c1.625,0,2.629-0.063,3.024-0.19c0.396-0.127,0.707-0.347,0.94-0.665c0.232-0.311,0.346-0.664,0.346-1.06
		c0-0.396-0.113-0.742-0.339-1.039c-0.22-0.304-0.537-0.522-0.954-0.657c-0.402-0.134-1.413-0.191-3.018-0.191h-1.158V228.245z"/>
</g>
</svg>
