<?xml version="1.0" encoding="utf-8"?>
<!-- Generator: Adobe Illustrator 16.0.0, SVG Export Plug-In . SVG Version: 6.00 Build 0)  -->
<!DOCTYPE svg PUBLIC "-//W3C//DTD SVG 1.1//EN" "http://www.w3.org/Graphics/SVG/1.1/DTD/svg11.dtd">
<svg version="1.1" id="Layer_1" xmlns="http://www.w3.org/2000/svg" xmlns:xlink="http://www.w3.org/1999/xlink" x="0px" y="0px"
	 width="841.89px" height="595.28px" viewBox="0 0 841.89 595.28" enable-background="new 0 0 841.89 595.28" xml:space="preserve">
<g>
	<rect x="119.795" y="494.889" fill="#58595B" width="602.3" height="1.395"/>
	<rect x="260.87" y="564.98" fill="#58595B" width="320.151" height="1.951"/>
	<g>
		<path fill="#58595B" d="M229.235,539.016c-1.61-0.093-3.189-0.127-4.765-0.127c-0.578,0-1.146,0-1.707,0.013
			c-0.566,0.021-1.14,0.051-1.754,0.062c-0.081,0-0.145-0.04-0.15-0.149c-0.017-0.097,0.018-0.145,0.11-0.186
			c0.949-0.249,1.551-0.591,1.812-1.015c0.266-0.414,0.417-1.075,0.417-1.96v-8.765h-13.944v8.847c0,1.747,0.979,2.725,2.946,2.893
			c0.099,0,0.151,0.064,0.151,0.162c0,0.126-0.053,0.173-0.151,0.173c-0.48,0-0.954,0-1.4,0c-0.429,0-0.893,0.013-1.366,0.053
			c-0.335,0-0.724,0.006-1.156,0.006c-0.447,0.029-0.828,0.029-1.153,0.029c-0.371,0-0.74,0-1.135,0
			c-0.388,0-0.792-0.013-1.187-0.035c-0.127,0-0.266-0.013-0.428-0.04c-0.167-0.013-0.301-0.013-0.435-0.013
			c-0.098,0-0.145-0.04-0.15-0.149c-0.018-0.097,0.018-0.145,0.099-0.186c0.486-0.087,0.874-0.173,1.188-0.272
			c0.312-0.099,0.531-0.23,0.677-0.416c0.156-0.18,0.248-0.424,0.301-0.695c0.04-0.283,0.058-0.648,0.058-1.088v-17.949
			c0-0.631-0.254-1.082-0.781-1.394c-0.527-0.302-1.105-0.475-1.714-0.492v-0.343c1.274,0.076,2.536,0.111,3.78,0.111
			c0.51,0,1.023,0,1.534-0.005c0.526-0.03,1.035-0.03,1.551-0.03h0.95c0.086,0,0.144,0.063,0.144,0.168
			c0,0.116-0.058,0.162-0.144,0.162c-0.539,0-1.037,0.162-1.471,0.463c-0.44,0.325-0.666,0.752-0.666,1.309v7.339h13.903v-7.166
			c0-0.666-0.197-1.1-0.579-1.285c-0.365-0.174-0.822-0.347-1.378-0.485c-0.115-0.029-0.231-0.047-0.335-0.087
			c-0.11-0.017-0.221-0.058-0.336-0.087c-0.093-0.023-0.139-0.088-0.122-0.186c0.012-0.088,0.064-0.145,0.157-0.145
			c1.451,0.081,2.864,0.127,4.213,0.127c0.619,0,1.228,0,1.852-0.018c0.626-0.006,1.233-0.04,1.836-0.074
			c0.104,0,0.145,0.068,0.168,0.157c0.012,0.092-0.035,0.161-0.122,0.185c-0.66,0.115-1.192,0.271-1.591,0.485
			c-0.399,0.22-0.591,0.659-0.591,1.379v17.254c0,0.965,0.226,1.679,0.688,2.146c0.445,0.492,1.192,0.812,2.217,0.974
			L229.235,539.016z"/>
		<path fill="#58595B" d="M258.465,532.625c-0.719,1.384-1.662,2.588-2.843,3.595c-1.186,1.024-2.552,1.806-4.109,2.368
			c-1.568,0.561-3.206,0.845-4.931,0.845c-1.424,0-2.906-0.331-4.434-0.973c-1.523-0.648-2.93-1.481-4.197-2.535
			c-1.268-1.031-2.314-2.211-3.16-3.529c-0.821-1.32-1.232-2.665-1.232-4.001c0-2.049,0.196-3.808,0.603-5.283
			c0.41-1.481,1.07-2.734,1.973-3.752c0.904-1.03,2.113-1.869,3.596-2.517c1.481-0.661,3.292-1.212,5.435-1.627l0.602-0.036
			c1.934-0.149,3.732,0.111,5.405,0.771c1.656,0.66,3.126,1.581,4.358,2.771c1.233,1.205,2.217,2.612,2.936,4.239
			c0.705,1.638,1.059,3.35,1.059,5.133C259.523,529.725,259.17,531.219,258.465,532.625z M255.825,523.933
			c-0.439-1.377-1.088-2.611-1.95-3.711c-0.863-1.089-1.928-1.973-3.185-2.649c-1.262-0.673-2.703-1.014-4.335-1.014
			c-1.539,0-2.922,0.255-4.121,0.781c-1.181,0.515-2.188,1.237-3.016,2.142c-0.81,0.913-1.44,1.98-1.875,3.16
			c-0.445,1.198-0.66,2.459-0.66,3.814c0,1.418,0.232,2.803,0.678,4.172c0.457,1.373,1.134,2.61,2.025,3.717
			c0.892,1.123,1.968,2.025,3.241,2.705c1.269,0.687,2.732,1.034,4.364,1.034c1.552,0,2.9-0.278,4.093-0.822
			c1.163-0.557,2.164-1.273,2.963-2.188c0.805-0.903,1.413-1.974,1.823-3.184c0.4-1.198,0.607-2.487,0.607-3.832
			C256.479,526.681,256.259,525.31,255.825,523.933z"/>
		<path fill="#58595B" d="M282.271,517.825c-0.023,0.74-0.133,1.401-0.318,2.015c-0.028,0.087-0.093,0.135-0.174,0.135
			c-0.058,0-0.11-0.048-0.139-0.135c-0.243-0.972-0.718-1.626-1.424-1.95c-0.718-0.323-1.568-0.492-2.523-0.492h-4.006v18.07
			c0,0.817,0.278,1.511,0.816,2.071c0.55,0.551,1.25,0.916,2.107,1.049c0.075,0.034,0.116,0.088,0.109,0.196
			c-0.028,0.092-0.074,0.139-0.162,0.139c-0.787-0.051-1.569-0.109-2.32-0.139c-0.753-0.058-1.534-0.067-2.321-0.067
			c-0.597,0-1.188,0.01-1.765,0.044c-0.574,0.029-1.17,0.063-1.766,0.128c-0.093,0.027-0.163-0.017-0.175-0.128
			c0-0.127,0.035-0.19,0.122-0.22c0.521-0.104,0.902-0.236,1.198-0.354c0.295-0.128,0.503-0.283,0.672-0.492
			c0.139-0.186,0.226-0.439,0.26-0.769c0.034-0.331,0.052-0.725,0.052-1.191v-18.292h-5.452c-0.718,0-1.354,0.231-1.904,0.679
			c-0.55,0.443-0.949,0.971-1.174,1.55c-0.041,0.094-0.1,0.111-0.186,0.094c-0.104-0.029-0.139-0.094-0.139-0.168l-0.099-0.55
			c0-0.459,0.063-0.892,0.185-1.279c0.127-0.417,0.243-0.806,0.364-1.21c0.064-0.197,0.121-0.377,0.186-0.563
			c0.059-0.18,0.128-0.382,0.186-0.579c0.052-0.132,0.139-0.155,0.266-0.073c0.464,0.271,0.921,0.449,1.384,0.52
			c0.474,0.075,0.973,0.115,1.522,0.115h14.517c0.342,0,0.769-0.075,1.285-0.214c0.121-0.022,0.23-0.057,0.323-0.092
			c0.081-0.024,0.186-0.059,0.308-0.093l0.236,0.185C282.322,516.408,282.3,517.095,282.271,517.825z"/>
		<path fill="#58595B" d="M301.03,536.758c-0.094,0.604-0.18,1.227-0.278,1.87c0,0.089-0.059,0.133-0.18,0.133l-0.046,0.029
			c-0.237,0.099-0.435,0.133-0.597,0.133c-0.688,0-1.4,0-2.106-0.021c-0.712-0.013-1.413-0.013-2.113-0.013
			c-0.607,0-1.186-0.013-1.759-0.034c-0.586-0.006-1.169-0.019-1.777-0.019c-0.81,0-1.638,0.013-2.483,0.019
			c-0.821,0.021-1.649,0.04-2.471,0.068v-0.335c0.457,0,0.821-0.098,1.122-0.283c0.283-0.174,0.498-0.4,0.654-0.691
			c0.15-0.265,0.249-0.587,0.289-0.941c0.053-0.358,0.07-0.708,0.07-1.071V518.08c0-0.562-0.146-0.926-0.429-1.093
			c-0.284-0.174-0.602-0.308-0.927-0.429c-0.196-0.047-0.388-0.121-0.618-0.191c-0.232-0.07-0.464-0.186-0.701-0.313
			c-0.057-0.053-0.081-0.116-0.074-0.191c0.018-0.07,0.074-0.099,0.167-0.099h12.937c0.116-0.057,0.249-0.109,0.382-0.15
			c0.145-0.041,0.267-0.098,0.395-0.145c0.149-0.068,0.23,0,0.23,0.161c-0.104,0.73-0.214,1.413-0.335,2.044
			c-0.146,0.643-0.29,1.272-0.452,1.923c-0.018,0.074-0.086,0.115-0.19,0.109c-0.11-0.019-0.157-0.063-0.157-0.156
			c-0.075-0.985-0.428-1.632-1.105-1.945c-0.653-0.295-1.476-0.451-2.453-0.451h-3.578v8.63h5.268c0.157,0,0.347-0.035,0.585-0.122
			c0.254-0.086,0.492-0.167,0.729-0.248c0.342-0.175,0.672-0.313,1.007-0.389c0.146-0.051,0.221,0,0.221,0.169
			c-0.04,0.342-0.068,0.707-0.109,1.1c-0.053,0.387-0.104,0.752-0.156,1.101c-0.069,0.329-0.11,0.676-0.145,1.052
			c-0.023,0.365-0.064,0.713-0.134,1.036c0,0.088-0.041,0.156-0.116,0.18c-0.068,0.028-0.138,0.023-0.196-0.051
			c-0.156-0.135-0.249-0.268-0.301-0.424c-0.053-0.138-0.104-0.288-0.157-0.469c-0.068-0.15-0.121-0.324-0.179-0.486
			c-0.069-0.174-0.174-0.329-0.324-0.456c-0.157-0.164-0.429-0.256-0.845-0.337c-0.417-0.045-0.834-0.115-1.319-0.168
			c-0.458-0.04-0.921-0.051-1.384-0.051c-0.439,0-0.794,0-1.036,0h-1.36v8.67c0.446,0.624,1.101,1.088,1.928,1.412
			c0.834,0.317,1.638,0.487,2.42,0.487c1.076,0,1.967-0.257,2.708-0.776c0.747-0.521,1.232-1.268,1.482-2.211l0.364,0.086
			C301.227,535.526,301.116,536.156,301.03,536.758z"/>
		<path fill="#58595B" d="M321.299,534.842c-0.018,0.07-0.018,0.157-0.018,0.255c-0.057,0.608-0.127,1.217-0.208,1.789
			c-0.063,0.585-0.266,1.14-0.562,1.702c0.017,0.034,0.041,0.081,0.041,0.173c0,0.075-0.099,0.162-0.261,0.255
			c-1.221-0.121-2.431-0.202-3.623-0.231c-1.192-0.058-2.414-0.067-3.652-0.067c-1.007,0-1.997,0.01-3.004,0.044
			c-0.984,0.029-1.991,0.053-2.999,0.075c-0.138,0-0.301,0.013-0.468,0.019c-0.174,0.021-0.324,0.034-0.481,0.034
			c-0.086,0-0.132-0.064-0.132-0.172c0-0.101,0.046-0.176,0.132-0.176c0.331-0.027,0.632-0.133,0.921-0.33
			c0.262-0.203,0.491-0.434,0.677-0.74c0.174-0.313,0.313-0.619,0.4-0.956c0.087-0.33,0.144-0.624,0.144-0.861v-17.154
			c0-0.674-0.248-1.194-0.729-1.6c-0.474-0.388-1.087-0.603-1.821-0.63v-0.349c0.584,0.041,1.134,0.058,1.684,0.058s1.111,0,1.689,0
			c1.563,0,3.172-0.058,4.799-0.138c0.093,0,0.15,0.059,0.168,0.155c0.006,0.094-0.029,0.162-0.104,0.186
			c-0.648,0.115-1.228,0.37-1.748,0.781c-0.51,0.395-0.771,0.897-0.771,1.5v15.662c0,1.174,0.412,2.089,1.216,2.716
			c0.8,0.63,1.795,0.949,2.97,0.949c1.152,0,2.211-0.308,3.178-0.904c0.978-0.601,1.707-1.401,2.223-2.379l0.365,0.081
			C321.323,534.656,321.316,534.75,321.299,534.842z"/>
		<path fill="#58595B" d="M368.554,539.356c-0.325,0.047-0.701,0.076-1.09,0.101c-0.398,0-0.792,0.01-1.191,0.01
			c-0.393,0-0.729,0-0.989,0h-0.272c-0.881,0-1.673-0.075-2.345-0.195c-0.671-0.146-1.308-0.349-1.892-0.633
			c-0.615-0.26-1.177-0.596-1.754-1.002c-0.578-0.402-1.182-0.855-1.813-1.358c-1.267,0.862-2.656,1.667-4.098,2.391
			c-1.459,0.723-2.992,1.105-4.631,1.105c-1.175,0-2.332-0.18-3.472-0.563c-1.141-0.363-2.153-0.866-3.04-1.527
			c-0.902-0.658-1.625-1.471-2.192-2.396c-0.557-0.954-0.834-2.003-0.834-3.188c0-0.922,0.149-1.76,0.457-2.529
			c0.302-0.759,0.695-1.459,1.181-2.131c0.486-0.648,1.036-1.261,1.678-1.853c0.637-0.573,1.309-1.134,2.004-1.654
			c-0.608-0.568-1.117-1.198-1.527-1.915c-0.401-0.724-0.603-1.523-0.603-2.374c0-1.014,0.225-1.95,0.718-2.801
			c0.486-0.864,1.123-1.61,1.921-2.245c0.8-0.633,1.714-1.111,2.704-1.473c1.006-0.341,2.019-0.521,3.049-0.521
			c0.783,0,1.581,0.064,2.385,0.157c0.8,0.116,1.574,0.308,2.339,0.603c0.093,0,0.127,0.041,0.127,0.123
			c0.226,0.762,0.318,1.584,0.318,2.492c0,1.116-0.196,2.171-0.584,3.154c-0.053,0.089-0.134,0.122-0.232,0.101
			c-0.087-0.007-0.121-0.071-0.121-0.141l0.034-0.683c0.036-0.602-0.092-1.181-0.358-1.707c-0.283-0.521-0.643-0.961-1.11-1.349
			c-0.476-0.371-1.02-0.66-1.668-0.874c-0.624-0.221-1.268-0.313-1.898-0.313c-1.273,0-2.332,0.358-3.148,1.123
			c-0.84,0.764-1.262,1.729-1.262,2.916c0,1.015,0.376,2.103,1.1,3.307c0.747,1.186,1.685,2.396,2.784,3.587
			c1.105,1.223,2.292,2.385,3.565,3.525c1.268,1.135,2.437,2.159,3.508,3.05c0.329,0.29,0.631,0.552,0.949,0.806
			c0.289,0.248,0.572,0.481,0.811,0.681c0.485-0.75,0.92-1.544,1.325-2.445c0.393-0.87,0.584-1.715,0.584-2.52
			c0-0.85-0.295-1.487-0.867-1.903c-0.567-0.429-1.28-0.694-2.131-0.799c-0.086-0.041-0.127-0.075-0.127-0.138
			c0-0.078,0.041-0.123,0.127-0.163c0.567-0.169,1.216-0.256,1.91-0.256c0.666,0,1.314,0.07,1.968,0.198
			c0.649,0.132,1.291,0.323,1.893,0.647c0.047,0.058,0.087,0.117,0.087,0.174c-0.162,0.583-0.336,1.245-0.55,1.962
			c-0.213,0.747-0.464,1.471-0.747,2.206c-0.283,0.729-0.59,1.417-0.92,2.102c-0.341,0.67-0.712,1.267-1.105,1.729
			c1.332,1.233,2.808,2.31,4.411,3.201c1.613,0.932,3.34,1.511,5.22,1.73l0.094,0.323
			C369.121,539.276,368.883,539.328,368.554,539.356z M350.09,530.525c-1.802-1.703-3.52-3.479-5.152-5.331
			c-0.816,0.81-1.504,1.734-2.044,2.767c-0.543,1.054-0.815,2.129-0.815,3.252c0,0.969,0.215,1.864,0.603,2.703
			c0.416,0.834,0.972,1.575,1.667,2.24c0.7,0.637,1.493,1.146,2.413,1.528c0.909,0.375,1.87,0.572,2.895,0.572
			c1.221,0,2.355-0.282,3.426-0.82c1.089-0.551,2.026-1.252,2.86-2.09C353.845,533.842,351.889,532.216,350.09,530.525z"/>
		<path fill="#58595B" d="M410.124,539.328c-0.563,0.129-1.118,0.191-1.657,0.191c-0.926,0-1.73-0.163-2.447-0.469
			c-0.729-0.308-1.384-0.705-1.957-1.177c-0.573-0.478-1.117-1.027-1.621-1.654c-0.491-0.596-0.972-1.238-1.43-1.886
			c-0.428-0.591-0.868-1.172-1.331-1.748c-0.48-0.579-0.995-1.089-1.545-1.552c-0.562-0.47-1.17-0.841-1.829-1.124
			c-0.643-0.271-1.378-0.428-2.194-0.428c-0.237,0-0.485,0-0.734,0c-0.209,0-0.429,0.034-0.678,0.088v5.979
			c0,0.825,0.273,1.516,0.806,2.087c0.52,0.574,1.221,0.904,2.112,0.991v0.335c-0.706-0.047-1.384-0.108-2.062-0.149
			c-0.688-0.029-1.377-0.053-2.077-0.053c-0.695,0-1.372,0.029-2.025,0.075c-0.649,0.059-1.303,0.127-2.003,0.215
			c-0.093,0.035-0.162,0-0.215-0.099c-0.045-0.104-0.012-0.179,0.064-0.235c0.643-0.28,1.168-0.709,1.591-1.259
			c0.423-0.572,0.638-1.173,0.638-1.805v-16.82c0-0.632-0.25-1.228-0.747-1.696c-0.498-0.491-1.095-0.815-1.801-1.001
			c-0.087-0.018-0.122-0.081-0.11-0.186c0.018-0.092,0.064-0.157,0.152-0.157h8.947c0.943,0,1.869,0.11,2.784,0.325
			c0.897,0.221,1.702,0.549,2.401,0.983c0.695,0.459,1.245,1.048,1.679,1.778c0.417,0.734,0.637,1.591,0.637,2.6
			c0,1.347-0.398,2.626-1.204,3.842c-0.798,1.22-1.713,2.247-2.708,3.125c0.336,0.318,0.688,0.765,1.1,1.278
			c0.388,0.511,0.811,1.061,1.262,1.628c0.672,0.834,1.377,1.694,2.107,2.581c0.752,0.886,1.522,1.69,2.35,2.401
			c0.815,0.715,1.666,1.278,2.547,1.673c0.874,0.411,1.76,0.563,2.668,0.452l0.133,0.33
			C411.223,539.021,410.679,539.195,410.124,539.328z M399.901,520.858c-0.221-0.733-0.562-1.39-1.019-1.979
			c-0.451-0.584-1.013-1.071-1.686-1.454c-0.659-0.382-1.436-0.578-2.303-0.578c-0.376,0-0.746,0.035-1.094,0.069
			c-0.364,0.046-0.719,0.138-1.048,0.278v10.481c0.509,0.1,1.019,0.139,1.5,0.168c0.474,0.034,0.983,0.059,1.504,0.059
			c1.684,0,2.865-0.435,3.514-1.298c0.648-0.856,0.972-2.036,0.972-3.564C400.242,522.311,400.132,521.595,399.901,520.858z"/>
		<path fill="#58595B" d="M430.453,536.758c-0.094,0.604-0.196,1.227-0.279,1.87c0,0.089-0.056,0.133-0.186,0.133l-0.046,0.029
			c-0.242,0.099-0.438,0.133-0.588,0.133c-0.697,0-1.401,0-2.11-0.021c-0.707-0.013-1.405-0.013-2.126-0.013
			c-0.582,0-1.186-0.013-1.759-0.034c-0.578-0.006-1.17-0.019-1.771-0.019c-0.816,0-1.644,0.013-2.478,0.019
			c-0.821,0.021-1.661,0.04-2.472,0.068v-0.335c0.446,0,0.811-0.098,1.111-0.283c0.283-0.174,0.498-0.4,0.647-0.691
			c0.163-0.265,0.256-0.587,0.313-0.941c0.042-0.358,0.053-0.708,0.053-1.071V518.08c0-0.562-0.133-0.926-0.424-1.093
			c-0.283-0.174-0.596-0.308-0.926-0.429c-0.185-0.047-0.399-0.121-0.618-0.191c-0.232-0.07-0.463-0.186-0.695-0.313
			c-0.069-0.053-0.099-0.116-0.081-0.191c0.029-0.07,0.081-0.099,0.156-0.099h12.934c0.139-0.057,0.256-0.109,0.394-0.15
			c0.149-0.041,0.275-0.098,0.405-0.145c0.139-0.068,0.209,0,0.209,0.161c-0.082,0.73-0.196,1.413-0.326,2.044
			c-0.139,0.643-0.288,1.272-0.438,1.923c-0.035,0.074-0.105,0.115-0.209,0.109c-0.106-0.019-0.149-0.063-0.149-0.156
			c-0.071-0.985-0.43-1.632-1.111-1.945c-0.653-0.295-1.469-0.451-2.446-0.451h-3.578v8.63h5.263c0.162,0,0.355-0.035,0.589-0.122
			c0.252-0.086,0.495-0.167,0.728-0.248c0.335-0.175,0.671-0.313,0.995-0.389c0.148-0.051,0.23,0,0.23,0.169
			c-0.035,0.342-0.058,0.707-0.101,1.1c-0.061,0.387-0.107,0.752-0.165,1.101c-0.068,0.329-0.116,0.676-0.127,1.052
			c-0.035,0.365-0.092,0.713-0.162,1.036c0,0.088-0.013,0.156-0.103,0.18c-0.083,0.028-0.142,0.023-0.197-0.051
			c-0.153-0.135-0.244-0.268-0.303-0.424c-0.048-0.138-0.092-0.288-0.162-0.469c-0.048-0.15-0.114-0.324-0.174-0.486
			c-0.047-0.174-0.173-0.329-0.323-0.456c-0.137-0.164-0.429-0.256-0.826-0.337c-0.418-0.045-0.849-0.115-1.337-0.168
			c-0.462-0.04-0.92-0.051-1.37-0.051c-0.459,0-0.812,0-1.044,0h-1.363v8.67c0.448,0.624,1.105,1.088,1.931,1.412
			c0.823,0.317,1.635,0.487,2.432,0.487c1.058,0,1.961-0.257,2.702-0.776c0.74-0.521,1.226-1.268,1.48-2.211l0.359,0.086
			C430.639,535.526,430.533,536.156,430.453,536.758z"/>
		<path fill="#58595B" d="M447.207,535.515c-0.543,0.809-1.267,1.512-2.121,2.089c-0.863,0.562-1.817,1.024-2.855,1.349
			c-1.046,0.319-2.043,0.48-2.987,0.48c-0.443,0-0.926-0.047-1.422-0.15c-0.503-0.1-0.95-0.261-1.362-0.492
			c-0.414-0.22-0.74-0.51-1.01-0.851c-0.244-0.359-0.377-0.799-0.377-1.332c0-0.329,0.042-0.683,0.108-1.007
			c0.07-0.336,0.145-0.666,0.21-0.96l0.237-1.02c0-0.088,0.048-0.12,0.174-0.12c0.108,0,0.178,0.032,0.178,0.12v0.632
			c0,0.589,0.145,1.111,0.406,1.563c0.271,0.434,0.63,0.833,1.054,1.146c0.416,0.336,0.913,0.572,1.458,0.724
			c0.578,0.149,1.135,0.226,1.72,0.226c0.537,0,1.105-0.081,1.672-0.256c0.58-0.172,1.101-0.398,1.558-0.728
			c0.48-0.331,0.862-0.713,1.168-1.181c0.309-0.458,0.453-0.979,0.453-1.54c0-0.532-0.128-1.048-0.417-1.581
			c-0.266-0.515-0.632-1.042-1.07-1.585c-0.453-0.521-0.985-1.059-1.559-1.591c-0.562-0.533-1.162-1.073-1.765-1.604
			c-0.632-0.562-1.284-1.123-1.927-1.707c-0.616-0.574-1.165-1.158-1.662-1.76c-0.485-0.613-0.873-1.217-1.177-1.847
			c-0.305-0.597-0.46-1.237-0.46-1.887c0-0.956,0.294-1.765,0.872-2.46c0.574-0.694,1.272-1.244,2.132-1.678
			c0.843-0.452,1.77-0.765,2.76-0.973c1.001-0.208,1.922-0.318,2.785-0.318c1.196,0,2.302,0.139,3.31,0.415
			c0.088,0.054,0.133,0.116,0.133,0.162c-0.12,1.396-0.301,2.796-0.544,4.266c-0.035,0.083-0.085,0.122-0.179,0.122
			c-0.085,0-0.156-0.039-0.191-0.122c-0.242-0.979-0.694-1.834-1.382-2.527c-0.686-0.695-1.582-1.06-2.705-1.06
			c-1.153,0-2.11,0.342-2.893,1.036c-0.758,0.693-1.136,1.572-1.136,2.634c0,0.562,0.121,1.082,0.378,1.563
			c0.26,0.48,0.596,0.938,1.011,1.384c0.394,0.45,0.875,0.884,1.413,1.331c0.551,0.435,1.118,0.867,1.691,1.33
			c0.641,0.476,1.26,0.973,1.876,1.482c0.622,0.527,1.178,1.077,1.667,1.656c0.472,0.562,0.873,1.174,1.166,1.822
			c0.304,0.647,0.465,1.344,0.465,2.117C448.061,533.807,447.787,534.692,447.207,535.515z"/>
		<path fill="#58595B" d="M473.028,517.825c-0.022,0.74-0.126,1.401-0.312,2.015c-0.035,0.087-0.099,0.135-0.179,0.135
			c-0.077,0-0.11-0.048-0.145-0.135c-0.238-0.972-0.723-1.626-1.426-1.95c-0.711-0.323-1.55-0.492-2.522-0.492h-3.988v18.07
			c0,0.817,0.278,1.511,0.805,2.071c0.55,0.551,1.255,0.916,2.091,1.049c0.103,0.034,0.125,0.088,0.12,0.196
			c-0.007,0.092-0.08,0.139-0.161,0.139c-0.789-0.051-1.573-0.109-2.308-0.139c-0.766-0.058-1.529-0.067-2.324-0.067
			c-0.607,0-1.197,0.01-1.773,0.044c-0.568,0.029-1.16,0.063-1.762,0.128c-0.104,0.027-0.15-0.017-0.162-0.128
			c-0.023-0.127,0.012-0.19,0.114-0.22c0.505-0.104,0.908-0.236,1.205-0.354c0.277-0.128,0.503-0.283,0.659-0.492
			c0.145-0.186,0.238-0.439,0.267-0.769c0.018-0.331,0.048-0.725,0.048-1.191v-18.292h-5.46c-0.717,0-1.354,0.231-1.911,0.679
			c-0.525,0.443-0.931,0.971-1.16,1.55c-0.03,0.094-0.088,0.111-0.191,0.094c-0.1-0.029-0.136-0.094-0.136-0.168l-0.084-0.55
			c0-0.459,0.056-0.892,0.178-1.279c0.121-0.417,0.233-0.806,0.365-1.21c0.054-0.197,0.109-0.377,0.181-0.563
			c0.053-0.18,0.12-0.382,0.172-0.579c0.064-0.132,0.162-0.155,0.277-0.073c0.464,0.271,0.905,0.449,1.377,0.52
			c0.47,0.075,0.98,0.115,1.53,0.115h14.528c0.342,0,0.757-0.075,1.272-0.214c0.115-0.022,0.219-0.057,0.324-0.092
			c0.08-0.024,0.196-0.059,0.306-0.093l0.244,0.185C473.088,516.408,473.064,517.095,473.028,517.825z"/>
		<path fill="#58595B" d="M498.485,538.836c-0.37-0.022-0.795-0.046-1.193-0.075c-0.258-0.034-0.502-0.057-0.762-0.068
			c-0.25-0.017-0.518-0.023-0.794-0.023c-0.699,0-1.401,0.035-2.09,0.092c-0.706,0.053-1.394,0.111-2.079,0.162
			c-0.103,0-0.168-0.034-0.191-0.133c-0.021-0.073,0-0.156,0.089-0.202l1.77-0.798c-0.515-1.32-1.053-2.629-1.614-3.907
			c-0.556-1.269-1.088-2.588-1.602-3.932h-7.031c-0.169,0.359-0.389,0.909-0.657,1.632c-0.3,0.707-0.572,1.452-0.849,2.224
			c-0.286,0.764-0.511,1.505-0.724,2.188c-0.227,0.69-0.327,1.188-0.327,1.488c0,0.428,0.203,0.705,0.587,0.822
			c0.399,0.144,0.781,0.226,1.14,0.283v0.335c-0.574-0.051-1.164-0.109-1.77-0.139c-0.608-0.058-1.205-0.067-1.819-0.067
			c-0.601,0-1.203,0.01-1.823,0.067c-0.591,0.029-1.202,0.088-1.811,0.139c-0.088,0.034-0.139-0.007-0.149-0.133
			c-0.03-0.098,0.028-0.168,0.108-0.202c1.655-0.186,2.83-1.008,3.5-2.432v0.028c0.883-2.048,1.715-4.098,2.544-6.146
			c0.82-2.042,1.613-4.119,2.413-6.198c0.55-1.396,1.059-2.796,1.585-4.186c0.509-1.382,1.048-2.777,1.632-4.185
			c0.022-0.081,0.087-0.126,0.185-0.126c0.082,0,0.151,0.045,0.18,0.126c0.146,0.389,0.297,0.777,0.482,1.158
			c0.149,0.383,0.324,0.764,0.473,1.157c1.235,3.144,2.525,6.303,3.866,9.475c1.35,3.178,2.896,6.273,4.608,9.308
			c0.382,0.644,0.828,1.1,1.406,1.396c0.563,0.276,1.197,0.445,1.911,0.497v0.33C499.267,538.849,498.855,538.872,498.485,538.836z
			 M486.527,519.805c-0.539,1.489-1.013,2.959-1.482,4.358c-0.462,1.413-1,2.883-1.568,4.405h5.856L486.527,519.805z"/>
		<path fill="#58595B" d="M522.343,517.212c-0.408,0.463-0.63,0.995-0.63,1.58v11.281c0,1.297-0.226,2.525-0.683,3.67
			c-0.458,1.15-1.083,2.164-1.903,3.015c-0.818,0.855-1.812,1.522-2.971,2.026c-1.17,0.487-2.478,0.735-3.941,0.735
			c-1.053,0-2.102-0.163-3.096-0.498c-1.025-0.317-1.975-0.765-2.849-1.367c-0.873-0.589-1.667-1.272-2.344-2.054
			c-0.673-0.781-1.181-1.644-1.517-2.581c-0.1-0.186-0.156-0.492-0.197-0.903c-0.065-0.405-0.082-0.862-0.094-1.399
			c-0.017-0.511-0.027-1.071-0.056-1.674c-0.006-0.638-0.006-1.25-0.006-1.875c0-0.729,0-1.43,0.006-2.143
			c0.028-0.706,0.028-1.354,0.028-1.938v-4.255c0-0.812-0.23-1.39-0.707-1.731c-0.469-0.329-1.111-0.59-1.921-0.78
			c-0.088-0.035-0.134-0.11-0.116-0.203c0.005-0.099,0.075-0.14,0.157-0.14c1.729,0.076,3.438,0.111,5.128,0.111
			c0.479,0,0.949,0,1.411,0c0.459,0,0.92-0.005,1.408-0.035c0.098,0,0.149,0.035,0.191,0.127c0.033,0.088,0,0.157-0.094,0.203
			c-0.492,0.238-0.983,0.562-1.471,0.996c-0.509,0.434-0.765,0.915-0.765,1.411l-0.092,12.884c0,0.949,0.18,1.825,0.533,2.598
			c0.335,0.766,0.832,1.426,1.475,1.976c0.632,0.557,1.384,0.979,2.236,1.29c0.883,0.295,1.793,0.452,2.801,0.452
			c1.022,0,1.985-0.157,2.863-0.452c0.87-0.311,1.633-0.746,2.259-1.319c0.637-0.556,1.134-1.231,1.475-2.014
			c0.359-0.782,0.52-1.679,0.52-2.663l-0.085-12.71c0-0.812-0.219-1.407-0.676-1.789c-0.458-0.377-1.105-0.636-1.957-0.774
			c-0.087-0.035-0.127-0.088-0.093-0.185c0.006-0.106,0.045-0.164,0.134-0.164c0.855,0.087,1.69,0.134,2.504,0.134
			c0.256,0,0.5,0,0.747-0.023c0.256-0.012,0.507-0.023,0.753-0.023c0.509,0,1.049,0,1.594-0.012
			c0.549-0.018,1.094-0.012,1.624,0.012l0.048,0.331C523.315,516.472,522.766,516.755,522.343,517.212z"/>
		<path fill="#58595B" d="M551.521,539.328c-0.557,0.129-1.104,0.191-1.66,0.191c-0.903,0-1.708-0.163-2.448-0.469
			c-0.725-0.308-1.372-0.705-1.95-1.177c-0.574-0.478-1.112-1.027-1.614-1.654c-0.488-0.596-0.974-1.238-1.431-1.886
			c-0.423-0.591-0.863-1.172-1.331-1.748c-0.476-0.579-1.002-1.089-1.551-1.552c-0.567-0.47-1.159-0.841-1.812-1.124
			c-0.656-0.271-1.384-0.428-2.207-0.428c-0.247,0-0.486,0-0.729,0c-0.214,0-0.439,0.034-0.672,0.088v5.979
			c0,0.825,0.263,1.516,0.794,2.087c0.525,0.574,1.221,0.904,2.1,0.991v0.335c-0.706-0.047-1.382-0.108-2.064-0.149
			c-0.673-0.029-1.361-0.053-2.065-0.053c-0.697,0-1.367,0.029-2.021,0.075c-0.657,0.059-1.332,0.127-2.017,0.215
			c-0.098,0.035-0.146,0-0.212-0.099c-0.04-0.104-0.017-0.179,0.073-0.235c0.633-0.28,1.159-0.709,1.587-1.259
			c0.422-0.572,0.635-1.173,0.635-1.805v-16.82c0-0.632-0.253-1.228-0.739-1.696c-0.497-0.491-1.112-0.815-1.806-1.001
			c-0.093-0.018-0.132-0.081-0.11-0.186c0.018-0.092,0.075-0.157,0.151-0.157h8.947c0.944,0,1.864,0.11,2.772,0.325
			c0.922,0.221,1.712,0.549,2.421,0.983c0.676,0.459,1.244,1.048,1.672,1.778c0.409,0.734,0.631,1.591,0.631,2.6
			c0,1.347-0.389,2.626-1.198,3.842c-0.799,1.22-1.701,2.247-2.715,3.125c0.346,0.318,0.712,0.765,1.117,1.278
			c0.37,0.511,0.805,1.061,1.261,1.628c0.668,0.834,1.373,1.694,2.114,2.581c0.733,0.886,1.518,1.69,2.332,2.401
			c0.822,0.715,1.66,1.278,2.548,1.673c0.867,0.411,1.77,0.563,2.673,0.452l0.133,0.33
			C552.62,539.021,552.094,539.195,551.521,539.328z M541.298,520.858c-0.212-0.733-0.549-1.39-1.011-1.979
			c-0.459-0.584-1.02-1.071-1.673-1.454c-0.671-0.382-1.458-0.578-2.328-0.578c-0.364,0-0.724,0.035-1.088,0.069
			c-0.376,0.046-0.723,0.138-1.053,0.278v10.481c0.509,0.1,1.013,0.139,1.512,0.168c0.474,0.034,0.971,0.059,1.488,0.059
			c1.706,0,2.862-0.435,3.518-1.298c0.646-0.856,0.978-2.036,0.978-3.564C541.641,522.311,541.536,521.595,541.298,520.858z"/>
		<path fill="#58595B" d="M581.128,538.836c-0.376-0.022-0.787-0.046-1.205-0.075c-0.226-0.034-0.485-0.057-0.747-0.068
			c-0.255-0.017-0.525-0.023-0.798-0.023c-0.689,0-1.389,0.035-2.095,0.092c-0.696,0.053-1.385,0.111-2.084,0.162
			c-0.099,0-0.144-0.034-0.174-0.133c-0.041-0.073,0-0.156,0.075-0.202l1.776-0.798c-0.502-1.32-1.046-2.629-1.608-3.907
			c-0.556-1.269-1.089-2.588-1.609-3.932h-7.032c-0.168,0.359-0.371,0.909-0.672,1.632c-0.272,0.707-0.561,1.452-0.822,2.224
			c-0.276,0.764-0.526,1.505-0.741,2.188c-0.219,0.69-0.312,1.188-0.312,1.488c0,0.428,0.191,0.705,0.596,0.822
			c0.389,0.144,0.765,0.226,1.125,0.283v0.335c-0.579-0.051-1.166-0.109-1.768-0.139c-0.596-0.058-1.208-0.067-1.812-0.067
			c-0.614,0-1.215,0.01-1.816,0.067c-0.614,0.029-1.223,0.088-1.824,0.139c-0.087,0.034-0.146-0.007-0.162-0.133
			c-0.006-0.098,0.021-0.168,0.128-0.202c1.667-0.186,2.823-1.008,3.49-2.432v0.028c0.867-2.048,1.72-4.098,2.54-6.146
			c0.817-2.042,1.615-4.119,2.414-6.198c0.538-1.396,1.076-2.796,1.581-4.186c0.52-1.382,1.07-2.777,1.644-4.185
			c0.023-0.081,0.097-0.126,0.18-0.126c0.08,0,0.143,0.045,0.174,0.126c0.143,0.389,0.304,0.777,0.474,1.158
			c0.179,0.383,0.337,0.764,0.481,1.157c1.249,3.144,2.527,6.303,3.878,9.475c1.355,3.178,2.887,6.273,4.624,9.308
			c0.346,0.644,0.816,1.1,1.377,1.396c0.561,0.276,1.199,0.445,1.922,0.497v0.33C581.914,538.849,581.515,538.872,581.128,538.836z
			 M569.17,519.805c-0.527,1.489-1.015,2.959-1.482,4.358c-0.474,1.413-1.002,2.883-1.563,4.405h5.853L569.17,519.805z"/>
		<path fill="#58595B" d="M613.147,516.297c-0.019-0.027-0.059-0.011-0.121,0.024c-0.43,0.093-0.864,0.237-1.332,0.41
			c-0.47,0.168-0.706,0.464-0.706,0.874l0.033,10.171v1.706c0,1.628-0.027,3.247-0.08,4.832c-0.058,1.593-0.174,3.168-0.313,4.783
			c0,0.051-0.046,0.098-0.115,0.156c-0.086,0.028-0.156,0.022-0.207-0.042c-1.454-1.135-2.901-2.396-4.359-3.728
			c-1.464-1.313-2.883-2.691-4.295-4.08c-1.406-1.384-2.789-2.796-4.155-4.201c-1.359-1.431-2.662-2.808-3.902-4.162
			c-0.416-0.418-0.809-0.821-1.146-1.199c-0.33-0.374-0.694-0.768-1.128-1.197c-0.094,0.765-0.14,1.493-0.14,2.182
			c0,1.083,0.022,2.148,0.046,3.213c0.035,1.059,0.076,2.129,0.146,3.196c0.058,1.069,0.099,2.135,0.14,3.204
			c0.022,1.062,0.045,2.148,0.045,3.23c0,0.486,0.028,0.874,0.134,1.171c0.08,0.3,0.209,0.521,0.342,0.698
			c0.132,0.156,0.3,0.283,0.497,0.359c0.191,0.064,0.399,0.109,0.607,0.139c0.249,0.053,0.497,0.116,0.73,0.196
			c0.237,0.06,0.531,0.222,0.867,0.436c0.059,0.058,0.075,0.121,0.064,0.186c-0.019,0.073-0.064,0.108-0.15,0.108
			c-0.318-0.011-0.603-0.047-0.892-0.074c-0.29-0.04-0.579-0.064-0.886-0.099c-0.423-0.047-0.856-0.086-1.302-0.121
			c-0.428-0.035-0.856-0.041-1.303-0.041c-0.527,0-1.105,0.041-1.667,0.099c-0.58,0.074-1.146,0.162-1.73,0.236
			c-0.088,0.034-0.151,0-0.208-0.074c-0.041-0.099-0.023-0.162,0.029-0.22c0.236-0.196,0.462-0.354,0.646-0.458
			c0.215-0.121,0.383-0.22,0.58-0.301c0.37-0.174,0.688-0.4,0.984-0.688c0.281-0.296,0.41-0.765,0.41-1.407V516.09l0.382-0.673
			c0.036-0.063,0.076-0.091,0.129-0.126c0.057-0.018,0.12-0.006,0.137,0.053c3.293,3.159,6.489,6.286,9.573,9.375
			c3.098,3.063,6.234,6.246,9.401,9.534v-0.128c0-1.291,0-2.582-0.012-3.844c-0.013-1.238-0.036-2.551-0.07-3.86
			c-0.034-1.199-0.068-2.488-0.103-3.859c-0.018-1.367-0.029-2.64-0.029-3.851c0-0.486-0.064-0.862-0.168-1.15
			c-0.111-0.303-0.25-0.54-0.424-0.678c-0.186-0.156-0.382-0.26-0.597-0.324c-0.208-0.047-0.415-0.087-0.629-0.127
			c-0.257-0.023-0.465-0.064-0.668-0.093c-0.186-0.042-0.354-0.157-0.509-0.284c-0.069-0.053-0.075-0.134-0.029-0.214
			c0.048-0.076,0.101-0.099,0.15-0.076c0.713,0.076,1.355,0.111,1.958,0.111c0.636,0,1.272,0,1.909,0c0.389,0,0.799,0,1.192-0.013
			c0.43-0.005,0.835-0.005,1.256,0.013c0.161,0,0.33,0.023,0.51,0.027c0.187,0.018,0.343,0.018,0.492,0.018l0.093,0.349
			C613.193,516.297,613.152,516.297,613.147,516.297z"/>
		<path fill="#58595B" d="M638.232,517.825c-0.029,0.74-0.135,1.401-0.313,2.015c-0.033,0.087-0.104,0.135-0.186,0.135
			c-0.068,0-0.099-0.048-0.145-0.135c-0.248-0.972-0.718-1.626-1.424-1.95c-0.705-0.323-1.545-0.492-2.518-0.492h-3.988v18.07
			c0,0.817,0.256,1.511,0.806,2.071c0.55,0.551,1.231,0.916,2.089,1.049c0.086,0.034,0.134,0.088,0.122,0.196
			c-0.018,0.092-0.081,0.139-0.168,0.139c-0.787-0.051-1.569-0.109-2.31-0.139c-0.754-0.058-1.54-0.067-2.31-0.067
			c-0.618,0-1.21,0.01-1.784,0.044c-0.577,0.029-1.174,0.063-1.769,0.128c-0.083,0.027-0.146-0.017-0.156-0.128
			c-0.018-0.127,0.016-0.19,0.109-0.22c0.514-0.104,0.92-0.236,1.204-0.354c0.283-0.128,0.504-0.283,0.659-0.492
			c0.144-0.186,0.248-0.439,0.261-0.769c0.034-0.331,0.057-0.725,0.057-1.191v-18.292h-5.451c-0.719,0-1.359,0.231-1.904,0.679
			c-0.538,0.443-0.937,0.971-1.176,1.55c-0.04,0.094-0.091,0.111-0.186,0.094c-0.085-0.029-0.132-0.094-0.132-0.168l-0.1-0.55
			c0-0.459,0.059-0.892,0.191-1.279c0.117-0.417,0.231-0.806,0.354-1.21c0.057-0.197,0.121-0.377,0.189-0.563
			c0.053-0.18,0.104-0.382,0.175-0.579c0.058-0.132,0.162-0.155,0.276-0.073c0.448,0.271,0.921,0.449,1.39,0.52
			c0.463,0.075,0.974,0.115,1.516,0.115h14.534c0.319,0,0.753-0.075,1.268-0.214c0.129-0.022,0.22-0.057,0.318-0.092
			c0.081-0.024,0.186-0.059,0.314-0.093l0.226,0.185C638.273,516.408,638.269,517.095,638.232,517.825z"/>
	</g>
	<g>
		<path fill="#58595B" d="M210.753,409.717c-2.754,0-5.255,1.68-7.494,5.024c-0.735,1.146-2.103,3.918-4.128,8.352l-24.077,52.719
			l-3.948-0.006l-13.648-30.39l-13.63,30.396h-4.047l-24.824-54.761c-3.26-7.161-7.548-10.935-12.878-11.334v-2.043
			c8.693,0.342,14.446,0.484,17.248,0.424c1.354,0,5.365-0.142,12.039-0.424v2.043c-2.524,0.174-4.26,0.456-5.216,0.854
			c-1.233,0.568-1.852,1.454-1.852,2.647c0,0.967,0.353,2.245,1.07,3.83l19.646,45.38l10.43-24.269v-5.321
			c0-2.736-0.949-4.595-2.859-5.568c-1.297-0.622-3.543-0.942-6.737-0.942v-2.471l14.816,0.85c-0.393,0,4.55-0.282,14.818-0.85
			v2.471c-3.762,0-6.31,0.708-7.617,2.13c-1.325,1.418-1.985,4.093-1.985,8.012v1.614l10.366,24.368l16.49-37.745
			c2.136-4.885,3.201-8.091,3.201-9.626c0-3.235-2.813-5.018-8.422-5.364v-2.043c2.135,0.282,6.935,0.424,14.395,0.424
			c2.976,0,5.921-0.142,8.844-0.424V409.717z"/>
		<path fill="#58595B" d="M276.494,475.812c-5.951-0.573-10.662-0.852-14.146-0.852c-2.976,0-7.71,0.278-14.227,0.852v-2.474
			c4.942-0.284,7.407-1.643,7.407-4.091c0-1.129-0.445-2.634-1.343-4.509l-5.209-15.159h-25.549l-4.526,11.836
			c-1.001,2.668-1.504,4.793-1.504,6.386c0,3.691,3.333,5.537,10.019,5.537v2.474c-7.576-0.573-12.293-0.852-14.14-0.852
			c-2.194,0-6.263,0.278-12.213,0.852v-2.474c3.368,0,6.008-1.024,7.912-3.067c1.407-1.526,2.842-4.202,4.301-8.004l17.845-47.607
			c-0.897-2.61-3.879-4.121-8.925-4.514v-2.472c4.039,0.573,9.566,0.85,16.582,0.85c8.138,0,13.556-0.276,16.247-0.85v2.472
			c-5.331,0-8.444,1.788-9.349,5.366l19.871,50.419c1.065,2.668,2.472,4.543,4.207,5.62c1.518,0.966,3.763,1.562,6.738,1.787
			V475.812z M246.952,445.406L235.098,415.8l-10.465,29.606H246.952z"/>
		<path fill="#58595B" d="M357.643,475.812c-5.938-0.573-8.485-0.852-7.651-0.852c-0.221,0-1.233,0.081-3.027,0.254
			c-2.402,0.221-4.648,0.429-6.721,0.598c-5.55-4.771-13.926-15.443-25.131-32.021c-1.228,0-2.952-0.08-5.169-0.214
			c-2.211-0.146-3.85-0.214-4.913-0.214v18.482c0,4.313,0.496,7.205,1.516,8.687c1.284,1.87,4.04,2.807,8.247,2.807v2.474
			c-1.521,0-3.837-0.146-6.963-0.423c-3.125-0.285-5.417-0.429-6.881-0.429c-1.801,0-4.533,0.144-8.19,0.429
			c-3.658,0.277-6.355,0.423-8.104,0.423v-2.474c3.369,0,5.695-0.388,6.992-1.191c1.846-1.077,2.778-3.265,2.778-6.552v-48.469
			c0-2.946-0.984-4.881-2.952-5.789c-1.007-0.509-3.281-0.908-6.818-1.191v-2.472c2.808,0.688,8.364,0.822,16.67,0.424
			c5.949-0.274,8.641-0.424,8.079-0.424c21.098,0,31.649,5.741,31.649,17.207c0,7.896-5.128,13.51-15.402,16.866
			c3.763,5.221,8.364,11.38,13.805,18.477c7.467,8.75,13.526,13.114,18.187,13.114V475.812z M330.114,425.734
			c0-9.828-6.599-14.738-19.801-14.738c-2.182,0-3.941,0.115-5.283,0.341v28.366c2.176,0.562,4.051,0.847,5.625,0.847
			c5.308,0,9.724-1.134,13.254-3.41C328.043,434.478,330.114,430.67,330.114,425.734z"/>
		<path fill="#58595B" d="M411.593,456.902c0,6.477-2.888,11.614-8.665,15.411c-4.938,3.242-10.771,4.857-17.508,4.857
			c-6.286,0-11.901-1.244-16.838-3.75l-2.442-14.471h2.859c2.928,9.648,8.647,14.471,17.179,14.471c4.207,0,7.71-1.05,10.522-3.15
			c3.079-2.326,4.63-5.566,4.63-9.7c0-3.357-2.083-6.648-6.227-9.887c-2.027-1.532-5.534-3.6-10.529-6.214
			c-4.988-2.611-8.643-5.054-10.945-7.33c-3.363-3.403-5.047-7.319-5.047-11.749c0-6.354,2.466-11.24,7.408-14.65
			c4.324-2.952,9.771-4.428,16.334-4.428c3.312,0,7.826,0.424,13.549,1.279l1.599,12.428h-2.441
			c-1.233-7.207-5.864-10.806-13.887-10.806c-3.537,0-6.621,0.987-9.261,2.976c-2.859,2.217-4.295,5.08-4.295,8.6
			c0,4.145,1.934,7.723,5.806,10.737c1.8,1.418,5.613,3.513,11.454,6.303c5.222,2.5,9.006,4.85,11.362,7.062
			C409.799,448.247,411.593,452.249,411.593,456.902z"/>
		<path fill="#58595B" d="M492.743,407.592l-54.802,64.468h26.598c6.738,0,11.674-0.712,14.816-2.124
			c4.208-1.875,7.438-5.568,9.685-11.073l2.448,0.856l-4.893,16.093h-65.383l55.532-64.56h-31.475c-5.221,0-9.04,0.623-11.447,1.875
			c-3.094,1.591-5.396,4.681-6.903,9.277h-2.437l3.192-16.092h2.857c0.395,0.685,1.576,1.104,3.543,1.279h4.713H492.743z"/>
		<path fill="#58595B" d="M575.907,475.812c-5.945-0.573-10.658-0.852-14.141-0.852c-2.976,0-7.715,0.278-14.227,0.852v-2.474
			c4.936-0.284,7.408-1.643,7.408-4.091c0-1.129-0.452-2.634-1.343-4.509l-5.21-15.159h-25.542l-4.527,11.836
			c-1.001,2.668-1.511,4.793-1.511,6.386c0,3.691,3.34,5.537,10.014,5.537v2.474c-7.57-0.573-12.282-0.852-14.134-0.852
			c-2.194,0-6.257,0.278-12.208,0.852v-2.474c3.362,0,6.003-1.024,7.913-3.067c1.4-1.526,2.83-4.202,4.295-8.004l17.844-47.607
			c-0.897-2.61-3.872-4.121-8.924-4.514v-2.472c4.04,0.573,9.567,0.85,16.588,0.85c8.131,0,13.545-0.276,16.246-0.85v2.472
			c-5.342,0-8.455,1.788-9.346,5.366l19.863,50.419c1.06,2.668,2.466,4.543,4.208,5.62c1.518,0.966,3.763,1.562,6.732,1.787V475.812
			z M546.363,445.406L534.522,415.8l-10.467,29.606H546.363z"/>
		<path fill="#58595B" d="M674.066,409.717c-2.756,0-5.251,1.68-7.496,5.024c-0.729,1.146-2.102,3.918-4.127,8.352l-24.072,52.719
			l-3.954-0.006l-13.642-30.39l-13.637,30.396h-4.035l-24.836-54.761c-3.252-7.161-7.547-10.935-12.885-11.334v-2.043
			c8.701,0.342,14.455,0.484,17.267,0.424c1.336,0,5.354-0.142,12.034-0.424v2.043c-2.524,0.174-4.261,0.456-5.215,0.854
			c-1.239,0.568-1.864,1.454-1.864,2.647c0,0.967,0.358,2.245,1.076,3.83l19.65,45.38l10.425-24.269v-5.321
			c0-2.736-0.955-4.595-2.855-5.568c-1.296-0.622-3.537-0.942-6.735-0.942v-2.471l14.818,0.85c-0.396,0,4.542-0.282,14.805-0.85
			v2.471c-3.757,0-6.291,0.708-7.617,2.13c-1.32,1.418-1.973,4.093-1.973,8.012v1.614l10.354,24.368l16.5-37.745
			c2.131-4.885,3.195-8.091,3.195-9.626c0-3.235-2.807-5.018-8.422-5.364v-2.043c2.142,0.282,6.929,0.424,14.401,0.424
			c2.976,0,5.921-0.142,8.839-0.424V409.717z"/>
		<path fill="#58595B" d="M739.812,475.812c-5.949-0.573-10.66-0.852-14.146-0.852c-2.975,0-7.716,0.278-14.228,0.852v-2.474
			c4.933-0.284,7.403-1.643,7.403-4.091c0-1.129-0.439-2.634-1.343-4.509l-5.208-15.159h-25.544l-4.519,11.836
			c-1.015,2.668-1.513,4.793-1.513,6.386c0,3.691,3.335,5.537,10.019,5.537v2.474c-7.58-0.573-12.293-0.852-14.146-0.852
			c-2.188,0-6.263,0.278-12.207,0.852v-2.474c3.37,0,6.008-1.024,7.918-3.067c1.396-1.526,2.83-4.202,4.289-8.004l17.846-47.607
			c-0.897-2.61-3.866-4.121-8.92-4.514v-2.472c4.04,0.573,9.567,0.85,16.576,0.85c8.14,0,13.556-0.276,16.247-0.85v2.472
			c-5.324,0-8.444,1.788-9.336,5.366l19.858,50.419c1.072,2.668,2.467,4.543,4.216,5.62c1.51,0.966,3.755,1.562,6.735,1.787V475.812
			z M710.265,445.406l-11.85-29.606l-10.464,29.606H710.265z"/>
	</g>
	<path fill="#58595B" d="M570.441,238.334l0.071,0.426l9.416-6.63c6.326,0.576,30.134,0.656,37.813-29.03l0.07-0.063
		c-0.012-0.006-0.023,0-0.06,0c0-0.012,0.013-0.018,0-0.024l-0.021,0.03c-28.356-1.221-36.351,18.232-38.422,26.058l-6.903,4.237
		c1.613-4.399,3.042-8.867,4.229-13.405c1.243-4.717,2.229-9.492,2.999-14.299l7.999-8.335c6.203-0.686,27.499-5.099,29.216-33.278
		l0.059-0.069c-0.011,0-0.022,0.012-0.046,0.012c0-0.012,0.012-0.024,0-0.024l-0.023,0.036
		c-26.427,3.967-30.085,23.505-30.536,30.885l-5.943,5.449c1.236-9.984,1.487-20.076,0.814-30.104l0.23,0.484l6.524-8.098
		c5.243-1.054,23.11-6.407,22.485-30.619l0.037-0.063c-0.012,0-0.012,0.011-0.037,0.017c0-0.017,0-0.02,0-0.02l-0.022,0.028
		c-22.29,5.36-23.951,22.333-23.789,28.665l-5.654,6.174c-0.231-2.613-0.521-5.218-0.874-7.811
		c-0.625-4.651-1.466-9.281-2.483-13.874l4.347-9.913c4.7-2.327,19.673-11.649,13.255-33.747l0.012-0.067
		c-0.012,0-0.012,0.009-0.035,0.024c0-0.015,0-0.021,0-0.015l-0.024,0.026c-19.373,10.417-16.704,26.583-15.014,32.363l-3.622,6.877
		c-2.291-9.074-5.379-17.949-9.366-26.4l0.476,0.362l1.818-8.896c3.697-3.039,13.972-13.573,4.619-30.613v-0.063
		c0,0.005-0.013,0.017-0.023,0.029v0.017c-14.594,12.596-8.856,25.907-6.426,30.183l-1.742,6.431
		c-1.744-3.503-3.596-6.946-5.655-10.277c-1.389-2.284-2.858-4.518-4.376-6.711l-1.123-9.562c2.137-3.302,8-14.817-4.363-26.35
		l-0.022-0.049c0,0,0,0.017-0.012,0.031c-0.011-0.009,0-0.014-0.011-0.014l0.011,0.026c-8.411,14.031-0.441,23.3,2.767,26.249
		l0.341,6.367c-5.121-6.955-10.836-13.459-17.068-19.427l-1.905-6.992c1.278-2.813,4.485-12.438-6.465-19.951l-0.024-0.035
		c0,0.005,0,0.011,0,0.017c0,0,0,0.003,0,0.005v0.012c-4.894,11.865,2.373,18.128,5.205,20.049l1.008,4.894
		c-4.881-4.498-10.008-8.717-15.379-12.592l0.301,0.011l-2.462-5.637c0.68-2.31,2.206-10.369-7.46-15.107l-0.021-0.029
		c0,0,0,0.009,0,0.011c0,0,0,0.003,0,0.006v0.006c-2.507,10.033,4.004,14.15,6.471,15.337l1.567,4.324
		c-7.831-5.5-16.037-10.474-24.6-14.742c-1.648-3.485-9.676-17.515-29.56-11.895l-0.058-0.029c0,0.011,0,0.023,0.011,0.041
		c-0.011,0-0.011,0-0.011,0l0.011,0.006c10.21,18.646,26.614,13.668,29.578,12.58c7.877,4.063,15.408,8.758,22.631,13.866
		l-5.567-0.741c-1.985-2.119-9.175-8.471-19.737-1.673l-0.046-0.006c0,0.006,0.012,0.012,0.023,0.012l-0.012,0.005l0.012,0.006
		c8.509,8.563,16.604,4.602,19.325,2.822l9.498,2.005c10.441,7.785,19.991,16.797,28.199,26.881l-6.215-2.73
		c-1.801-3.556-8.884-14.706-25.456-9.772l-0.061-0.022c0.013,0.011,0.013,0.022,0.025,0.028l-0.013,0.006l0.013,0.006
		c7.969,14.574,20.175,12.447,24.472,11.136l10.68,5.692c3.02,4.017,5.833,8.193,8.396,12.52c2.67,4.433,5.041,9.021,7.149,13.727
		l-6.674-5.068c-0.996-4.167-5.597-17.575-24.112-16.568l-0.06-0.041c0.012,0.011,0.012,0.029,0.012,0.035l-0.012,0.006l0.023,0.011
		c4.757,17.567,18.493,18.062,23.031,17.723l9.162,7.181c3.809,9.147,6.623,18.698,8.524,28.439l-4.236-4.815
		c-0.18-5.547-2.563-23.743-26.306-27.253l-0.069-0.061c0.011,0.017,0.011,0.034,0.011,0.046c0-0.005-0.011,0-0.011,0l0.023,0.023
		c1.464,23.108,18.202,27.548,24.339,28.401l7.287,9.467c0.3,1.907,0.596,3.817,0.832,5.734c1.36,10.863,1.581,21.86,0.673,32.753
		l-4.591-8.624c1.111-5.825,3.005-26.078-21.744-35.457l-0.059-0.076c0,0.018,0,0.041,0,0.052c0-0.005-0.012,0-0.012,0l0.012,0.024
		c-3.843,25.112,13.068,33.77,19.412,36.105l6.438,13.599c-0.874,7.244-2.258,14.421-4.202,21.448
		c-0.927,3.374-2.016,6.699-3.185,9.996l-3.727-9.476c1.776-5.137,6.956-25.525-16.844-38.305l-0.058-0.082c0,0.018,0,0.04,0,0.052
		c0-0.006-0.011,0-0.011,0l0.011,0.023c-6.946,23.943,8.022,34.792,14.244,38.16l4.578,14.296l0.094,0.005
		c-4.006,10.162-9.187,19.836-15.334,28.848l-1.638-10.934c3.12-5.201,11.727-23.393-8.067-40.713l-0.023-0.093
		c-0.012,0.018-0.012,0.036-0.023,0.046c0,0-0.012,0-0.012-0.005v0.028c-12.242,21.978,0.238,35.957,5.459,40.5l0.88,16.003
		c-1.2,1.619-2.408,3.227-3.675,4.793c-4.169,5.171-8.788,9.943-13.58,14.528l-2.472-10.697c2.963-5.955,10.807-26.581-12.334-43.82
		l-0.035-0.098c0,0.023-0.012,0.045-0.012,0.057c-0.012-0.006-0.023,0-0.023,0l0.012,0.024
		c-11.609,25.316,3.618,39.535,9.602,43.913l2.211,13.441c-8.896,8.08-18.59,15.292-28.99,21.306
		c-0.799,0.457-1.646,0.833-2.448,1.28l0.688-10.948c4.739-5.075,18.742-23.383,0.718-47.519v-0.104
		c-0.024,0.017-0.024,0.035-0.035,0.046c0-0.012-0.022-0.012-0.022-0.012v0.035c-19.152,21.87-8.15,40.641-3.468,46.815
		l-1.752,13.711c-12.017,6.321-24.63,11.461-37.769,15.057l3.878-11.004c6.224-3.758,25.562-18.214,14.291-47.689l0.022-0.104
		c-0.011,0.011-0.022,0.022-0.046,0.039c0-0.01-0.011-0.017-0.011-0.017l-0.01,0.034c-25.558,16.569-19.833,38.625-16.87,46.183
		l-5.82,13.668c-2.467,0.6-4.91,1.311-7.409,1.805c-7.93,1.943-15.915,4.153-23.606,7.42c-7.689-3.267-15.671-5.477-23.61-7.42
		c-2.497-0.494-4.93-1.205-7.399-1.805l-5.822-13.668c2.963-7.564,8.679-29.614-16.863-46.183l-0.023-0.034
		c0,0-0.012,0.006-0.012,0.017c-0.013-0.017-0.023-0.028-0.046-0.039l0.022,0.104c-11.26,29.478,8.073,43.931,14.306,47.695
		l3.877,10.998c-13.145-3.596-25.76-8.735-37.78-15.062l-1.744-13.717c4.69-6.184,15.676-24.946-3.477-46.804v-0.035
		c0,0-0.012,0-0.012,0.012c-0.024-0.012-0.024-0.029-0.034-0.046l-0.013,0.104c-18.023,24.15-4.005,42.464,0.727,47.531
		l0.682,10.936c-0.801-0.447-1.64-0.823-2.438-1.28c-10.407-6.014-20.1-13.223-28.999-21.3l2.206-13.446
		c5.993-4.378,21.213-18.597,9.613-43.913l0.012-0.024c0,0-0.012-0.006-0.023,0c-0.012-0.012-0.012-0.034-0.012-0.057l-0.046,0.098
		c-23.117,17.228-15.292,37.839-12.325,43.809l-2.469,10.711c-4.798-4.587-9.412-9.359-13.579-14.531
		c-1.271-1.569-2.483-3.184-3.687-4.805l0.891-15.997c5.229-4.549,17.694-18.525,5.447-40.494l0.012-0.028
		c0,0.005-0.012,0.005-0.023,0.005c0-0.011-0.012-0.028-0.012-0.046l-0.034,0.093c-19.77,17.31-11.188,35.487-8.061,40.702
		l-1.635,10.945c-6.15-9.011-11.336-18.688-15.342-28.848l0.09-0.005l4.59-14.299c6.217-3.366,21.182-14.218,14.244-38.158
		l0.012-0.023c0,0-0.012-0.006-0.022,0c0-0.012,0-0.034,0-0.052l-0.047,0.082c-23.798,12.777-18.62,33.162-16.854,38.305
		l-3.725,9.472c-1.169-3.297-2.264-6.619-3.187-9.993c-1.942-7.033-3.322-14.213-4.195-21.459l6.43-13.588
		c6.343-2.335,23.268-10.993,19.425-36.105l0.012-0.024c0,0-0.012-0.005-0.023,0c0-0.011,0.012-0.034,0.012-0.052l-0.058,0.076
		c-24.744,9.379-22.857,29.623-21.755,35.454l-4.588,8.614c-0.902-10.888-0.686-21.883,0.666-32.74
		c0.235-1.917,0.533-3.827,0.837-5.734l7.281-9.467c6.12-0.85,22.878-5.281,24.354-28.401l0.012-0.023c0,0-0.012-0.005-0.012,0
		c0-0.012,0-0.029,0.012-0.046l-0.069,0.061c-23.749,3.51-26.131,21.714-26.311,27.259l-4.23,4.821
		c1.901-9.744,4.715-19.295,8.525-28.445l9.162-7.187c4.527,0.342,18.278-0.147,23.04-17.723l0.012-0.011l-0.012-0.006
		c0-0.005,0.012-0.023,0.012-0.035l-0.047,0.041c-18.527-1.007-23.132,12.406-24.124,16.571l-6.675,5.067
		c2.108-4.702,4.481-9.293,7.148-13.729c2.57-4.326,5.38-8.505,8.405-12.523l10.673-5.689c4.301,1.308,16.511,3.44,24.473-11.136
		l0.022-0.006l-0.012-0.006c0-0.006,0.012-0.017,0.023-0.028l-0.069,0.022c-16.565-4.937-23.65,6.228-25.456,9.779l-6.214,2.729
		c8.208-10.083,17.752-19.098,28.193-26.883l9.504-2.008c2.728,1.78,10.821,5.741,19.324-2.822l0.023-0.006l-0.012-0.005
		c0,0,0.012-0.006,0.012-0.012l-0.035,0.006c-10.571-6.795-17.761-0.446-19.739,1.673l-5.574,0.741
		c7.226-5.107,14.76-9.805,22.637-13.866c2.951,1.085,19.363,6.072,29.567-12.58l0.023-0.006c-0.011,0-0.011,0-0.011,0
		c0-0.018,0-0.03,0.011-0.041l-0.058,0.029c-19.902-5.623-27.919,8.418-29.575,11.897c-8.557,4.269-16.764,9.243-24.598,14.739
		l1.571-4.324c2.468-1.187,8.985-5.305,6.471-15.337v-0.006c0-0.012,0.012-0.012,0.012-0.018l-0.035,0.029
		c-9.646,4.731-8.14,12.774-7.452,15.098l-2.456,5.646l0.289-0.011c-5.366,3.872-10.496,8.089-15.37,12.586l1.002-4.889
		c2.835-1.918,10.094-8.184,5.199-20.049l0.013-0.018c-0.003-0.006,0-0.012,0-0.017l-0.035,0.035
		c-10.942,7.513-7.736,17.139-6.457,19.951l-1.897,6.98c-6.237,5.974-11.953,12.481-17.078,19.441l0.338-6.373
		c3.207-2.955,11.172-12.218,2.765-26.246l0.012-0.026c0,0,0,0.005-0.012,0.014c0-0.014,0-0.031,0-0.031l-0.022,0.049
		c-12.379,11.536-6.507,23.056-4.374,26.355l-1.111,9.556c-1.522,2.193-2.986,4.428-4.379,6.711
		c-2.063,3.331-3.916,6.78-5.664,10.286l-1.741-6.44c2.431-4.275,8.164-17.587-6.428-30.183v-0.017
		c-0.012-0.012-0.022-0.023-0.022-0.029v0.063c-9.354,17.04,0.923,27.575,4.615,30.613l1.82,8.896l0.483-0.371
		c-3.994,8.458-7.079,17.332-9.373,26.409l-3.618-6.886c1.689-5.784,4.341-21.942-15.021-32.354l-0.011-0.026
		c-0.013-0.006,0,0-0.013,0.015c-0.022-0.015-0.022-0.024-0.033-0.024l0.022,0.067c-6.422,22.082,8.517,31.407,13.243,33.739
		l4.35,9.921c-1.021,4.595-1.863,9.223-2.486,13.874c-0.355,2.593-0.643,5.198-0.874,7.811l-5.651-6.17
		c0.168-6.329-1.499-23.308-23.792-28.668l-0.012-0.028c-0.012,0,0,0.003-0.012,0.02c-0.022-0.006-0.022-0.017-0.035-0.017
		l0.035,0.063c-0.628,24.232,17.271,29.577,22.502,30.622l6.52,8.095l0.217-0.46c-0.671,10.019-0.417,20.1,0.822,30.074
		l-5.947-5.449c-0.448-7.38-4.104-26.915-30.526-30.879l-0.023-0.036c-0.012,0,0,0.012-0.012,0.024
		c-0.022,0-0.022-0.012-0.035-0.012l0.047,0.069c1.728,28.185,23.025,32.596,29.221,33.278l8.003,8.327
		c0.77,4.809,1.757,9.59,3.003,14.308c1.185,4.538,2.62,9.009,4.235,13.414l-6.912-4.24c-2.074-7.823-10.057-27.285-38.418-26.063
		l-0.034-0.03c-0.012,0.006,0,0.012,0.011,0.024c-0.034,0-0.058-0.006-0.069,0l0.069,0.063c7.69,29.683,31.496,29.606,37.812,29.03
		l9.419,6.63l0.073-0.443c3.34,8.178,7.371,16.077,12.1,23.549l-8.896-1.934c-5.116-7.403-20.151-23.771-48.271-12.565l-0.035-0.023
		c0,0.012,0.012,0.012,0.012,0.023c-0.035,0.012-0.046,0.012-0.07,0.018l0.104,0.04c18.855,28.214,43.811,18.571,49.306,15.976
		l10.763,3.062l-0.058-0.327c1.985,2.911,4.031,5.776,6.216,8.541c3.636,4.619,7.595,8.959,11.718,13.142l-10.397,0.523
		c-7.174-6.229-28.139-20.212-55.299,0.151l-0.047-0.006c0,0.006,0.013,0.006,0.023,0.012c-0.023,0.028-0.035,0.034-0.069,0.04
		l0.116,0.018c28.03,24.448,51.682,7.247,56.879,2.829l12.733,0.167c9.345,8.861,19.606,16.758,30.671,23.328
		c0.046,0.03,0.096,0.048,0.142,0.077l-12.155,1.834c-9.15-6.082-32.033-16.731-57.64,6.782l-0.059-0.005
		c0,0.011,0.023,0.011,0.035,0.023c-0.023,0.022-0.046,0.028-0.058,0.04l0.115,0.012c33.594,23.875,57.51,0.556,61.33-3.583
		l0.544-0.029c0,0-0.057-0.05-0.072-0.063l14.416-1.251l-0.241-0.398c11.055,6.001,22.669,10.979,34.633,14.8l-11.578,3.681
		c-9.941-4.954-38.335-14.904-63.411,16.751h-0.046c0,0.012,0.012,0.012,0.035,0.024c-0.023,0.025-0.047,0.038-0.07,0.055
		l0.14-0.017c39.624,19.627,61.546-7.506,66.029-13.971l16.934-4.228c2.659,0.742,5.301,1.559,7.978,2.197
		c5.759,1.549,11.354,3.603,16.731,6.011c-3.884,2.171-7.673,4.654-11.012,7.839c-2.038,1.869-3.925,3.947-5.534,6.309
		c-0.811,1.176-1.574,2.407-2.245,3.727c-0.337,0.659-0.648,1.345-0.938,2.063c-0.336,0.67-0.127,1.781,2.558,3.221
		c0.162,0.089,0.348,0.147,0.545,0.158l0.358,0.027c2.975,0.209,3.636,0.13,3.786-0.376c0.197-0.45,0.439-0.914,0.694-1.376
		c0.522-0.926,1.123-1.835,1.795-2.721c1.354-1.76,2.906-3.438,4.583-5.034c3.427-3.128,7.246-6.021,11.426-8.477
		c0.731-0.431,1.509-0.809,2.255-1.226c0.749,0.417,1.529,0.795,2.261,1.226c4.162,2.455,7.996,5.349,11.409,8.477
		c1.678,1.597,3.23,3.274,4.586,5.034c0.671,0.886,1.285,1.795,1.794,2.721c0.266,0.462,0.497,0.926,0.706,1.376
		c0.138,0.506,0.799,0.585,3.773,0.376l0.371-0.027c0.185-0.011,0.359-0.063,0.532-0.158c2.685-1.439,2.894-2.551,2.558-3.221
		c-0.289-0.718-0.603-1.403-0.938-2.063c-0.671-1.319-1.422-2.551-2.247-3.727c-1.608-2.361-3.495-4.439-5.52-6.309
		c-3.34-3.185-7.138-5.668-11.021-7.839c5.371-2.408,10.969-4.462,16.727-6.011c2.675-0.639,5.322-1.455,7.977-2.197l16.937,4.228
		c4.497,6.465,26.405,33.598,66.028,13.971l0.14,0.017c-0.022-0.017-0.034-0.029-0.057-0.055c0.013-0.013,0.022-0.013,0.034-0.024
		h-0.057c-25.081-31.655-53.466-21.705-63.403-16.751l-11.588-3.681c11.969-3.821,23.593-8.806,34.646-14.811l-0.242,0.409
		l14.413,1.251c-0.013,0.013-0.071,0.063-0.071,0.063l0.545,0.029c3.82,4.139,27.726,27.458,61.319,3.583l0.126-0.012
		c-0.022-0.012-0.035-0.018-0.069-0.04c0.023-0.013,0.034-0.013,0.034-0.023l-0.044,0.005c-25.618-23.51-48.494-12.87-57.646-6.782
		l-12.159-1.834c0.047-0.029,0.092-0.047,0.139-0.077c11.067-6.569,21.329-14.467,30.671-23.328l12.732-0.167
		c5.21,4.417,28.85,21.619,56.88-2.829l0.116-0.018c-0.023-0.006-0.036-0.012-0.07-0.04c0.023-0.006,0.034-0.006,0.034-0.012
		l-0.045,0.006c-27.157-20.363-48.132-6.38-55.312-0.151l-10.395-0.523c4.12-4.182,8.081-8.523,11.715-13.142
		c2.183-2.765,4.231-5.629,6.217-8.538l-0.06,0.324l10.772-3.064c5.487,2.596,30.439,12.25,49.309-15.973l0.094-0.04
		c-0.024-0.006-0.036-0.006-0.06-0.018c0-0.012,0.012-0.012,0.012-0.023l-0.033,0.023c-28.119-11.203-43.155,5.156-48.273,12.563
		l-8.907,1.935C563.069,254.4,567.102,246.504,570.441,238.334z"/>
	<g>
		<g>
			<path fill="#58595B" d="M467.035,64.696c-3.139,0.816-4.391,1.931-7.03,4.008c-0.946,0.747-6.656,6.22-9.226,6.955
				c-2.025-3.762-3.194-8.155-3.206-12.857c-2.256,4.09-5.533,7.408-9.429,9.523c-6.447-3.815-11.077-9.585-12.606-16.265V55.63
				c-0.024,0.075-0.035,0.145-0.056,0.215c-0.012-0.07-0.035-0.14-0.048-0.215v0.431c-1.54,6.68-6.158,12.45-12.617,16.265
				c-3.901-2.115-7.165-5.434-9.436-9.523c-0.012,4.702-1.18,9.096-3.206,12.857c-2.569-0.735-8.277-6.208-9.227-6.955
				c-2.639-2.078-3.89-3.192-7.026-4.008c-2.432-0.636-7.131-0.393-7.131-0.393c9.586,5.936,16.636,18.944,20.595,28.621
				c8.693-1.797,18.231-3.247,28.163-3.247c9.935,0,19.327,1.45,28.02,3.247c3.949-9.677,11.011-22.686,20.606-28.621
				C474.176,64.304,469.464,64.06,467.035,64.696z"/>
		</g>
		<path fill="#58595B" d="M451.06,101.541c0.438-1.346,0.969-2.909,1.619-4.619c-8.208-2.067-17.439-3.233-27.196-3.233
			c-9.761,0-18.985,1.166-27.205,3.233c0.647,1.71,1.182,3.272,1.609,4.619c7.004-1.803,15.906-2.883,25.596-2.883
			C435.181,98.658,444.064,99.738,451.06,101.541z"/>
		<path fill="#58595B" d="M425.482,99.57c9.584,0,18.364,1.054,25.321,2.816c0.083-0.272,0.174-0.556,0.256-0.845
			c-6.995-1.803-15.879-2.883-25.577-2.883c-9.689,0-18.592,1.08-25.596,2.883c0.104,0.29,0.185,0.573,0.266,0.845
			C407.11,100.624,415.907,99.57,425.482,99.57z"/>
		<path fill="#58595B" d="M400.152,104.169c0.186,0.602,0.336,1.151,0.463,1.637c6.402-1.603,15.178-2.593,24.867-2.593
			c9.687,0,18.468,0.99,24.858,2.593c0.127-0.485,0.289-1.035,0.463-1.637c-6.957-1.763-15.737-2.816-25.321-2.816
			C415.907,101.353,407.098,102.406,400.152,104.169z"/>
		<path fill="#58595B" d="M389.724,65.58c0,1.977-1.609,3.58-3.578,3.58c-1.979,0-3.588-1.603-3.588-3.58
			c0-1.979,1.608-3.58,3.588-3.58C388.114,62,389.724,63.6,389.724,65.58z"/>
		<path fill="#58595B" d="M406.96,61.013c0,1.98-1.599,3.583-3.578,3.583c-1.979,0-3.576-1.602-3.576-3.583
			c0-1.974,1.598-3.576,3.576-3.576C405.361,57.437,406.96,59.039,406.96,61.013z"/>
		<path fill="#58595B" d="M451.891,61.013c0,1.98-1.608,3.583-3.586,3.583c-1.981,0-3.577-1.602-3.577-3.583
			c0-1.974,1.596-3.576,3.577-3.576C450.282,57.437,451.891,59.039,451.891,61.013z"/>
		<path fill="#58595B" d="M429.057,53.288c0,1.978-1.596,3.581-3.574,3.581c-1.981,0-3.578-1.603-3.578-3.581
			c0-1.977,1.597-3.579,3.578-3.579C427.461,49.709,429.057,51.312,429.057,53.288z"/>
		<path fill="#58595B" d="M468.631,65.58c0,1.977-1.608,3.58-3.578,3.58c-1.978,0-3.576-1.603-3.576-3.58
			c0-1.979,1.599-3.58,3.576-3.58C467.022,62,468.631,63.6,468.631,65.58z"/>
	</g>
	<path fill="#58595B" d="M523.686,130.151c-5.266,0-10.06,3.212-14.364,9.632c-1.39,2.178-4.03,7.509-7.896,15.994l-46.142,101.031
		l-7.582-0.006l-26.146-58.233l-26.114,58.239h-7.745l-47.589-104.946c-6.239-13.709-14.459-20.947-24.68-21.711v-3.913
		c16.658,0.654,27.689,0.923,33.072,0.813c2.581,0,10.268-0.266,23.06-0.813v3.913c-4.828,0.324-8.173,0.875-10.001,1.638
		c-2.362,1.088-3.543,2.778-3.543,5.07c0,1.846,0.684,4.297,2.049,7.351l37.657,86.963l19.98-46.525v-10.182
		c0-5.261-1.829-8.815-5.487-10.679c-2.477-1.204-6.772-1.806-12.907-1.806v-4.735l28.397,1.627c-0.753,0,8.711-0.54,28.39-1.627
		v4.735c-7.214,0-12.073,1.354-14.599,4.075c-2.534,2.72-3.796,7.843-3.796,15.356v3.097l19.854,46.697l31.612-72.332
		c4.086-9.357,6.124-15.501,6.124-18.441c0-6.202-5.383-9.628-16.138-10.283v-3.913c4.086,0.547,13.293,0.813,27.588,0.813
		c5.707,0,11.354-0.266,16.945-0.813V130.151z"/>
</g>
</svg>
