<svg xmlns="http://www.w3.org/2000/svg" width="841.89" height="595.28" viewBox="0 0 841.89 595.28"><g fill="#58595B"><path fill-rule="evenodd" clip-rule="evenodd" d="M348.89 363.256L384.6 385 357.97 453.06l256.568-135.313-.73 5.238-329.274 211.35"/><path fill-rule="evenodd" clip-rule="evenodd" d="M716.008 252.797l-183.62 8.958 100.31 270.873L318.784 332v-31.56l312.512 230.538-130.36-268.066-70.934 2.56-7.375 24.307h81.725l17.796 38.018-155.89.485 21.024-61.288-161.07 5.847-37.482-23.21 204.524-.122L457.98 60.947l69.835 188.562 188.193 3.287zm-281.19-3.288h59.603l-36.687-75.363-22.914 75.362z"/><path fill-rule="evenodd" clip-rule="evenodd" d="M285.205 266.142h26.63v145.12l-26.63 86.82"/><path d="M713.753 308.056c0 10.785-3.045 19.677-9.143 26.747-8.29 9.504-27.605 14.314-44.976 14.314h-37.11v125.51l-24.62-75.305V289.475l-32.546-22.848h94.276c18.47 0 38.213 5.3 46.255 15.965 5.24 7.066 7.863 15.534 7.863 25.464zm-31.143-.182c0-7.064-2.682-11.94-8.046-14.68-3.473-1.77-7.8-2.685-12.98-2.685h-39.06v34.788h39.06c7.314 0 12.676-1.522 16.03-4.51 3.352-2.985 4.996-7.306 4.996-12.914zM275.21 357.833v-47.526c-45.768 46.916-126.76 20.844-128.162-36.245-1.464-57.087 84.1-81.64 128.163-33.998v-47.52l-16.698 10.966c-35.042-19.68-94.157-15.718-124.08 11.64-38.454 35.152-37.783 83.89.305 118.98 29.923 27.602 85.747 34.12 123.775 12.736l16.7 10.967zM633.67 193.52l-15.11-23.274-9.324-6.763h28.826L632.696 170l7.622 11.212 5.85-9.992-7.497-7.737h24.5l-8.288 8.225-13.224 23.518c-1.096 1.95-2.316 3.715-3.597 5.3-1.34 1.647-2.74 2.985-4.205 4.082-1.465 1.096-2.864 1.768-4.265 2.012l-1.647.305-1.827.304h-1.402c-.67 0-1.52-.122-2.496-.366-.854 0-2.438-.852-4.69-2.438-.368-.242-.676-.852-.917-1.764-.242-.977-.363-2.013-.363-3.23 0-1.706.245-3.473.67-5.424.484-1.948 1.152-3.776 2.07-5.604.916-1.768 2.075-3.23 3.472-4.388l-.12.61-.063.61c0 .423.125 1.34.367 2.618.063.67.186 1.217.24 1.584.065.43.065.792.065 1.158.853 2.193 1.83 3.84 2.86 4.934.55.67 1.1 1.097 1.71 1.462.67.306 1.277.49 1.946.49l.186.06.183.06c.854 0 1.522-.243 2.192-.67.244-.243.487-.427.67-.73.184-.243.367-.487.612-.852.24-.61.36-1.098.36-1.463v-.366zM701.99 198.393h4.875v15.353l-8.104-7.735h-39.914l-8.048 7.736v-15.353h7.07L670.662 170l-5.787-6.518h27.304L687.79 170l14.2 28.393zm-36.503 0h23.035l-12.006-24.676-11.03 24.676z"/><path fill-rule="evenodd" clip-rule="evenodd" d="M608.322 193.7c.673-2.435.913-4.995.913-7.613v-1.28c0-2.5-.24-4.995-.852-7.313-.61-2.07-1.403-4.018-2.56-5.604-2.196-3.23-4.817-5.604-7.92-6.823h-.063c-1.768-.79-3.594-1.584-5.364-2.13-1.28-.43-2.62-.55-3.96-.55h-.122l-9.02-1.34H560.06V136.49h31.137l12.678 11.09v-20.288h-71.182l11.15 14.5.125 49.532-11.337 15.292h57.41l2.86-.367 3.11-.608 3.54-.67c1.094-.243 2.187-.79 3.163-1.52 1.16-1.036 2.197-2.316 3.11-3.72.55-.91.974-1.888 1.4-2.923.43-.976.798-2.073 1.1-3.11zm-48.262 3.96v-26.378h21.387c2.377 0 4.512 1.156 6.157 3.472 1.948 2.618 2.56 6.335 2.56 9.992 0 4.203-1.16 7.8-3.783 10.05-2.13 1.89-4.504 2.864-7.003 2.864H560.06z"/></g></svg>