<svg xmlns="http://www.w3.org/2000/svg" width="841.89" height="595.28" viewBox="0 0 841.89 595.28"><g fill="#58595B"><path d="M692.13 375.66c0 6.783 2.687 8.198 5.2 8.198 1.545 0 2.775-.366 3.634-.82l.604 2.548c-1.24.64-3.105 1.054-4.89 1.054-5.277 0-8.007-4.33-8.007-11.07 0-7.114 3.056-11.57 7.47-11.57 4.467 0 6.282 4.742 6.282 9.65 0 .87-.042 1.458-.09 2.01H692.13zm6.926-2.604c.047-4.368-1.597-6.323-3.282-6.323-2.32 0-3.458 3.32-3.593 6.323h6.876zM709.627 364.316v9.563h.5l5.785-9.564h3.872l-6.885 9.924c3.06.51 4.562 3.198 5.38 6.248.497 1.82 1.096 4.188 1.82 5.873h-3.594c-.548-1.362-1.05-3.235-1.593-5.145-.82-3.008-2.052-4.784-4.926-4.784h-.36v9.932h-3.413v-22.045h3.413zM733.55 385.813c-.785.46-2.104.826-3.654.826-4.82 0-8.06-3.875-8.06-11.166 0-6.323 3.185-11.477 8.7-11.477 1.188 0 2.456.318 3.097.683l-.678 2.87c-.46-.232-1.37-.593-2.507-.593-3.552 0-5.103 4.19-5.103 8.517 0 5.142 1.955 8.245 5.19 8.245.91 0 1.73-.183 2.512-.596l.502 2.69zM749.176 364.316v2.918h-5.01v19.127h-3.514v-19.126h-5.015v-2.918h13.54zM751.724 371.19c0-3.362-.14-5.325-.18-6.874h3.096l.177 2.83h.097c1.23-2.33 2.962-3.148 4.694-3.148 3.862 0 6.373 4.063 6.373 11.296 0 8.198-3.374 11.43-6.837 11.43-2.09 0-3.272-1.314-3.867-2.55h-.088v10.93h-3.464v-23.915zm3.464 7.112c0 .636.05 1.272.18 1.827.684 3.135 2.272 3.678 3.232 3.678 2.91 0 3.876-4.006 3.876-8.42 0-4.556-1.096-8.386-3.918-8.386-1.593 0-3.06 1.964-3.23 3.965-.09.497-.14 1.094-.14 1.69v5.645zM781.565 381.352c0 1.686.042 3.603.228 5.01h-3.147l-.228-2.32h-.13c-.966 1.684-2.517 2.683-4.42 2.683-2.91 0-5.2-2.452-5.2-6.28 0-5.563 4.416-7.973 9.383-8.017v-.68c0-2.97-.77-4.968-3.504-4.968-1.364 0-2.595.41-3.644 1.138l-.77-2.46c.95-.688 2.952-1.46 5.144-1.46 4.424 0 6.29 2.863 6.29 7.79v9.564zm-3.417-6.42c-1.82 0-6.063.362-6.063 5.144 0 2.915 1.462 3.918 2.692 3.918 1.55 0 2.813-1.137 3.23-3.333.094-.403.14-.857.14-1.267v-4.46z"/><g><path d="M506.567 236.112c-35.478 0-58.81 22.662-58.81 58.362 0 35.47 24.692 56.563 56.79 56.563 29.414 0 57.896-18.407 57.896-58.59 0-33.214-22.422-56.335-55.876-56.335zm-1.443 90.824c-15.938 0-28.835-12.908-28.835-28.836 0-.165.004-.307.027-.474-.023-.042-.023-.074-.028-.11-.177-2.085.273-4.532 1.086-7.17.455-1.603 1.026-3.146 1.73-4.623 6.793-15.668 23.66-35.626 25.97-38.56v-.054c0 .018.02.02.02.02.02 0 .02-.002.028-.02v.053c2.28 2.887 18.653 22.274 25.653 37.813.957 1.848 1.686 3.81 2.22 5.86.11.365.186.7.273 1.052.06.255.11.52.167.773.344 1.572.524 3.048.47 4.395 0 .353.055.697.055 1.045 0 15.927-12.905 28.836-28.838 28.836zM192.897 243.82c0-1.857-1.506-3.37-3.383-3.37h-32.68c-1.093 0-2.067.53-2.68 1.34-.4.54-.65 1.176-.675 1.884l-20.462 56.575-5.85 18.582h-1.817l-5.854-18.583-20.625-57.052c-.06-.334-.187-.654-.344-.952-.57-1.06-1.678-1.796-2.963-1.796h-32.7c-1.858 0-3.375 1.513-3.375 3.37v97.9c0 1.865 1.517 3.372 3.375 3.372h20.723c1.865 0 3.378-1.507 3.378-3.373v-56.216l-.603-18.788h1.01l5.25 16.963 19.86 59.202.06.17c.52 1.206 1.706 2.04 3.09 2.04h21.237c1.394 0 2.596-.843 3.102-2.05l.014-.052 19.914-59.31 5.244-16.964h1.004l-.6 18.788.008 56.215c0 1.865 1.506 3.372 3.365 3.372h20.728c1.866 0 3.364-1.507 3.364-3.373 0 0-.115-99.757-.115-97.9zM261.305 238.84c-13.107 0-24.128 1.557-35.635 5.805-.353.072-.674.213-.974.374-1.042.56-1.754 1.656-1.754 2.937v13.763c0 1.86 1.514 3.373 3.372 3.373.248 0 .49-.028.727-.088.084-.014.147-.033.223-.067.153-.035.31-.086.446-.153.028-.007.05-.016.073-.02h-.03c.154-.078.308-.15.442-.242-.128.093-.273.165-.412.24 11.89-5.932 20.513-6.735 28.672-6.735 12.526 0 23.637 6.464 23.637 17.984v4.43h-2.42c-5.057 0-10.302-.2-15.347-.2-44.446 0-51.927 20.207-51.927 34.557 0 16.354 10.714 31.906 37.17 31.906 22.83 0 30.508-12.516 32.737-16.958h.39v11.843c0 .054-.012.09-.012.13 0 .043.012.08.012.126.08 1.813 1.54 3.248 3.363 3.248H304.2c1.865 0 3.38-1.507 3.38-3.373v-62.68c0-15.754-3.844-40.2-46.275-40.2zm18.168 59.368c-.857 1.94-6.297 15.557-12.328 23.35-.69.992-1.495 1.894-2.39 2.72-.154.155-.315.29-.472.44-.105.09-.232.186-.338.283-.71.616-1.416 1.1-2.116 1.445-.184.093-.354.213-.525.31-8.13 4.314-18.224 1.236-22.543-6.888-4.33-8.134-1.248-18.222 6.88-22.55.084-.043.166-.073.25-.117.022-.007.033-.03.044-.053 1.034-.646 2.39-1.073 3.955-1.38.942-.217 1.89-.324 2.84-.366 9.845-.793 24.605 2.397 26.73 2.784l.02-.017v.017h.02l-.027.024zM427.26 240.45h-25.44c-1.228 0-2.3.666-2.888 1.652h-.02l-44.03 72.088h-.404l.802-18.78v-51.523c0-.02.007-.044.007-.067 0-.014-.007-.037-.007-.06-.03-1.828-1.52-3.31-3.364-3.31h-20.738c-1.865 0-3.364 1.512-3.364 3.37v97.903c0 1.848 1.49 3.35 3.327 3.368h24.117c1.217-.01 2.27-.666 2.847-1.65l.03-.01 45.23-72.063h.598l-.806 19.582v50.685c0 .025-.003.056-.003.09l.003.09c.057 1.806 1.51 3.26 3.338 3.277H427.3c1.853-.02 3.324-1.52 3.324-3.368V243.82c0-1.857-1.504-3.37-3.36-3.37zM733.962 238.84c-13.1 0-24.13 1.557-35.635 5.805-.35.072-.66.213-.96.374-1.04.56-1.77 1.656-1.77 2.937v13.763c0 1.86 1.513 3.373 3.38 3.373.255 0 .496-.028.724-.088.085-.014.154-.033.22-.067.162-.035.315-.086.445-.153.027-.007.046-.016.08-.02h-.034c.154-.078.313-.15.442-.242-.12.093-.274.165-.408.24 11.89-5.932 20.523-6.735 28.676-6.735 12.52 0 23.64 6.464 23.64 17.984v4.43h-2.424c-5.06 0-10.31-.2-15.353-.2-44.465 0-51.92 20.207-51.92 34.557 0 16.354 10.705 31.906 37.176 31.906 22.82 0 30.49-12.516 32.714-16.958h.41v11.843c0 .054-.02.09-.02.13 0 .043.02.08.02.126.063 1.813 1.54 3.248 3.354 3.248h20.135c1.87 0 3.375-1.507 3.375-3.373v-62.68c0-15.754-3.84-40.2-46.266-40.2zm18.17 59.368c-.85 1.94-6.294 15.557-12.33 23.35-.682.992-1.494 1.894-2.376 2.72-.163.155-.32.29-.474.44-.116.09-.232.186-.35.283-.714.616-1.42 1.1-2.116 1.445-.176.093-.343.213-.524.31-8.13 4.314-18.226 1.236-22.548-6.888-4.322-8.134-1.244-18.222 6.885-22.55.087-.043.166-.073.254-.117.015-.007.028-.03.052-.053 1.012-.646 2.38-1.073 3.955-1.38.93-.217 1.88-.324 2.833-.366 9.832-.793 24.596 2.397 26.727 2.784l.027-.017c-.005.01-.005.017-.005.017h.005l-.014.024zM665.14 240.487c-.146-.014-.266-.037-.4-.037h-71.048c-.14 0-.255.023-.395.037-1.634.186-2.938 1.562-2.976 3.266 0 .023-.004.044-.004.067 0 .03.005.05.005.083v40.006c0 22.415-1.23 40.99-16.98 40.99-.158 0-.335-.015-.502-.022v.008l-.014-.008c-.627-.012-.998-.275-1.908-.152-1.347.275-2.41 1.374-2.628 2.778l-.826 14.363-.028.568c-.092 1.593.938 2.974 2.396 3.42.07.02.14.037.213.053.014 0 .02 0 .028.007 2.865.674 5.553.79 8.92.79 27.663 0 35.77-10.892 35.77-62.796v-23.223h25.895v80.873c0 .06-.02.107-.02.163s.02.106.02.167c.088 1.785 1.54 3.2 3.348 3.2h20.737c1.87 0 3.37-1.506 3.37-3.367V243.82c0-1.734-1.296-3.138-2.97-3.333zm-94.536 105.508zM378.733 229.392c.16 0 .322-.014.484-.014.165 0 .314.014.494.014 18.045 0 27.414-9.95 29.46-25.82.07-.282.13-.558.13-.865 0-.02-.022-.04-.022-.07-.04-1.83-1.53-3.3-3.358-3.3h-12.015c-1.843 0-3.333 1.476-3.372 3.314 0 .017-.034.953-.034 1.013 0 6.235-5.043 11.28-11.283 11.28-6.22 0-11.284-5.045-11.284-11.28 0-.06-.03-.996-.037-1.012-.03-1.837-1.52-3.313-3.356-3.313h-12.024c-1.836 0-3.32 1.47-3.364 3.3v.07c0 .307.045.583.112.864 2.045 15.873 11.418 25.822 29.47 25.822z"/></g></g></svg>