<svg xmlns="http://www.w3.org/2000/svg" width="841.89" height="595.28" viewBox="0 0 841.89 595.28"><g fill="#58595B"><path d="M512.443 133.11c1.95 91.738-69.894 134.574-69.898 134.524 0 0-36.19-28.37-34.78-82.215 0 0 15.217-.454 29.494 6.69 0 0 13.783-13.413 16.7-35.47-49.056-15.638-92.898.846-92.898.846 3.068 77.335 46.68 127.518 80.394 152.572 30.472-24.732 81.46-80.866 84.354-170.42 0 0-5.886-3.298-13.367-6.527z"/><path d="M503.38 129.39s-35.27-15.413-82.305-15.413c-61.344 0-104.73 25.662-104.73 25.662 4.152 128.258 104.73 185 104.73 185l12.524-8.626c-87.172-66.654-82.196-163.632-82.196-163.632 58.765-23.21 111.947-1.376 113.145-.878l.165-.01-.138.022c-4.033 49.263-44.443 65.245-44.443 65.245 5.883 22.374 22.41 38.947 22.41 38.947 37.706-28.538 63.596-71.863 60.836-126.316z"/><path d="M464.306 151.514h.27l-.027-.012c-.11.007-.197.01-.244.012zM464.306 151.514c-.06 0-.07.002 0 0z"/><g><path d="M697.305 423.644h7.744v56.122h-7.745zM701.178 401.963c-3.308 0-5.99 2.683-5.99 5.99 0 3.306 2.683 5.987 5.99 5.987 3.305 0 5.987-2.682 5.987-5.987 0-3.307-2.683-5.99-5.987-5.99zM659.174 422.172c-6.72 0-12.8 2.708-17.224 7.092v-5.62h-7.18v56.122h7.18V445.45c.612-8.99 8.08-16.096 17.224-16.096 9.54 0 17.28 7.734 17.28 17.278v33.134h7.18v-33.533h-.01c0-13.944-11.075-24.06-24.45-24.06zM354.68 432.455c-5.42-6.275-13.428-10.253-22.37-10.253-16.32 0-29.55 13.23-29.55 29.55 0 16.322 13.228 29.552 29.55 29.552 8.942 0 16.95-3.978 22.37-10.254v8.716h7.18v-77.803h-7.18v30.492zm-22.37 41.72c-12.384 0-22.423-10.037-22.423-22.423 0-12.382 10.04-22.423 22.423-22.423 12.025 0 21.812 9.474 22.37 21.36v2.125c-.56 11.886-10.345 21.36-22.37 21.36zM130.376 462.274l-13.403-34.776 9.87-25.535h-6.872l-6.418 16.658-6.418-16.657h-6.872l9.87 25.535-13.403 34.776-23.244-60.31h-6.872l30.115 77.904 16.822-43.522 16.824 43.522 30.114-77.905h-6.87M192.86 422.202c-16.32 0-29.553 13.23-29.553 29.55 0 16.322 13.23 29.552 29.552 29.552s29.55-13.23 29.55-29.552c0-16.32-13.23-29.55-29.55-29.55zm0 51.974c-12.385 0-22.424-10.038-22.424-22.424 0-12.382 10.04-22.423 22.423-22.423s22.422 10.04 22.422 22.422c0 12.386-10.04 22.424-22.423 22.424zM262.584 422.202c-16.32 0-29.55 13.23-29.55 29.55 0 16.322 13.23 29.552 29.55 29.552s29.552-13.23 29.552-29.552c0-16.32-13.232-29.55-29.552-29.55zm0 51.974c-12.384 0-22.423-10.038-22.423-22.424 0-12.382 10.04-22.423 22.424-22.423s22.423 10.04 22.423 22.422c0 12.386-10.04 22.424-22.423 22.424zM467.12 422.2c-16.32 0-29.55 13.228-29.55 29.55 0 16.32 13.228 29.55 29.55 29.55 11.843 0 22.04-6.968 26.757-17.02l-6.326-3.372c-3.498 7.813-11.312 13.266-20.43 13.266-12.198 0-22.396-9.577-22.396-23.3h51.95c-.678-16.892-14.224-28.675-29.553-28.675zm0 7.127c10.074 0 18.596 6.645 21.427 15.786h-42.85c2.83-9.14 11.35-15.786 21.424-15.786zM398.443 401.963h-25.96v7.183h25.96v70.62h7.182v-70.62h25.96v-7.183h-25.96M536.85 474.173c-12.2 0-22.396-9.82-22.396-22.42 0-14.628 12.325-22.426 22.396-22.426 8.266 0 15.476 4.474 19.366 11.127l6.042-3.807c-5.174-8.734-14.658-14.448-25.408-14.448-16.32 0-29.552 13.228-29.552 29.55 0 16.32 13.23 29.55 29.552 29.55 11.84 0 22.04-6.968 26.756-17.02l-6.325-3.372c-3.5 7.813-11.313 13.265-20.43 13.265zM768.95 460.907c-3.5 7.813-11.313 13.266-20.43 13.266-12.2 0-22.396-9.82-22.396-22.42 0-14.628 12.324-22.426 22.395-22.426 8.264 0 15.476 4.474 19.365 11.127l6.042-3.807c-5.173-8.734-14.658-14.448-25.408-14.448-16.32 0-29.552 13.228-29.552 29.55 0 16.32 13.23 29.55 29.55 29.55 11.843 0 22.04-6.968 26.757-17.02l-6.324-3.373zM598.63 422.172c-6.717 0-12.8 2.708-17.222 7.092v-27.3h-7.18v77.802h7.18V445.45c.613-8.99 8.078-16.096 17.223-16.096 9.543 0 17.28 7.734 17.28 17.278v33.134h7.182v-33.533h-.01c0-13.944-11.076-24.06-24.45-24.06z"/></g></g></svg>