<?xml version="1.0" encoding="utf-8"?>
<!-- Generator: Adobe Illustrator 16.0.0, SVG Export Plug-In . SVG Version: 6.00 Build 0)  -->
<!DOCTYPE svg PUBLIC "-//W3C//DTD SVG 1.1//EN" "http://www.w3.org/Graphics/SVG/1.1/DTD/svg11.dtd">
<svg version="1.1" id="Layer_1" xmlns="http://www.w3.org/2000/svg" xmlns:xlink="http://www.w3.org/1999/xlink" x="0px" y="0px"
	 width="841.89px" height="595.28px" viewBox="0 0 841.89 595.28" enable-background="new 0 0 841.89 595.28" xml:space="preserve">
<g id="BIG">
	<path fill="#9FA1A4" d="M302.312,217.573c23.879-38.176,66.451-61.858,111.479-61.858c45.029,0,87.599,23.684,111.479,61.858
		h20.136c-24.946-47.19-74.52-79.354-131.614-79.354c-57.094,0-106.668,32.164-131.617,79.354H302.312z"/>
	<path fill="#9FA1A4" d="M475.93,402.735c-18.88,10.168-40.092,15.569-62.139,15.569c-43.663,0-85.101-22.262-109.35-58.555h-20.467
		c25.485,45.381,74.065,76.05,129.816,76.05c35.424,0,67.941-12.395,93.489-33.064H475.93z"/>
	<g>
		<rect x="641.936" y="237.412" fill="#58595B" width="33.065" height="99.192"/>
		<polygon fill="#58595B" points="362.598,237.412 427.015,336.606 387.591,336.606 335.219,255.958 308.613,296.928 
			345.551,296.928 358.434,316.767 295.729,316.767 282.845,336.606 255.081,336.606 319.497,237.412 		"/>
		<polygon fill="#58595B" points="195.577,237.412 139.355,302.868 83.133,237.412 56.693,237.412 56.693,336.604 89.758,336.604 
			89.758,275.572 139.355,333.316 188.952,275.572 188.952,336.604 222.017,336.604 222.017,237.412 		"/>
		<polygon fill="#58595B" points="771.643,237.411 741.939,237.411 688.225,293.327 688.225,302.677 722.783,336.606 
			770.139,336.606 721.825,289.486 		"/>
		<path fill="#58595B" d="M595.645,277.098c0-21.912-17.766-39.677-39.677-39.677l-96.038-0.009v99.192h33.063V257.25h49.899
			c10.946,0,19.849,8.903,19.849,19.848c0,10.819-8.705,19.63-19.476,19.83h-37.049v19.839h28.361l-0.012,0.001l16.532,19.839
			h42.983l-22.868-22.87C585.558,307.759,595.645,293.607,595.645,277.098z"/>
	</g>
	<g>
		<path fill="#9FA1A4" d="M507.893,329.131c0.068-0.009,0.125-0.034,0.202-0.034C507.94,329.097,507.878,329.109,507.893,329.131z"
			/>
		<path fill="#9FA1A4" d="M567.063,349.008c-0.93,0.677-1.394,1.522-1.394,2.537c0.082,1.521,0.801,2.281,2.154,2.281
			c0.676,0,1.46-0.398,2.346-1.203c0.888-0.804,1.334-1.585,1.334-2.346c0-1.438-0.763-2.157-2.285-2.157
			C568.459,348.12,567.74,348.418,567.063,349.008z"/>
		<path fill="#9FA1A4" d="M784.818,379.445c-0.257,0-0.51,0.127-0.763,0.376c-2.707,1.669-4.354,2.671-4.944,3.004
			c-7.358,4.175-12.6,6.26-15.726,6.26c-3.301,0-5.076-1.853-5.329-5.555c2.538-1.514,5.791-4.334,9.768-8.461
			c4.985-5.216,7.482-9.256,7.482-12.119c0-1.176-0.634-1.768-1.903-1.768c-4.145,0-8.521,2.39-13.124,7.165
			c-4.611,4.778-6.914,9.533-6.914,14.269c0,0.555,0.029,1.075,0.065,1.581c-0.418,0.267-0.796,0.52-1.071,0.747
			c-5.52,3.785-10.818,5.281-13.914,5.281c-4.685,0-7.151-3.979-7.402-11.939c1.517,0,6.143-3.725,13.878-11.178
			c9.086-8.635,16.612-17.359,22.584-26.166c7.905-11.601,11.859-21.677,11.859-30.23c0-2.707-1.017-4.063-3.045-4.063
			c-4.735,0-11.242,4.735-19.528,14.205c-7.78,8.961-14.672,19.234-20.673,30.816c-5.372,10.39-8.49,19.03-9.372,25.934
			c-2.295,1.955-6.08,5.128-9.893,7.687c-3.58,2.404-8.675,5.296-12.781,7.361c4.99-9.891,9.471-17.813,12.77-22.971
			c0.589-0.932,0.887-1.691,0.887-2.285c0-1.097-0.551-1.647-1.649-1.647c-0.592,0-1.522,0.633-2.789,1.902
			c-2.536,4.65-6.341,9.005-11.417,13.063c-4.48,3.549-7.734,5.326-9.765,5.326c-0.59,0-0.888-0.338-0.888-1.017
			c0-1.097,1.143-3.76,3.426-7.988c2.282-4.227,3.423-7.271,3.423-9.132c0-1.689-1.508-2.537-4.519-2.537
			c-0.068,0-0.133,0.015-0.198,0.017c-0.004-0.007,0.007-0.018-0.012-0.017c-4.337,0.215-8.331,2.157-13.404,2.157
			c6.764-13.527,12.092-23.631,15.979-30.311c0.338-0.591,0.51-1.099,0.51-1.522c0-0.169-0.215-0.422-0.635-0.761
			c-0.418-0.338-0.757-0.509-1.008-0.509c-2.861,4.82-5.301,8.923-7.32,12.303l-5.118,8.879l-6.086,11.921
			c-1.1,0-2.305,0.09-4.438-0.635c-0.042-0.015-0.088-0.033-0.128-0.049c-1.863-0.916-5.554-2.924-7.413-4.611
			c-4.215-3.818-9.603-2.515-11.745-0.115c-7.004-0.948-15.829,4.922-16.673,10.828c-0.161,1.133-0.22,3.776,1.733,4.485
			c1.984,0.723,4.332-1.118,8.04-0.433c0.106,0.029,0.224,0.044,0.322,0.079c1.679,0.576,2.161,1.905,1.449,3.983
			c-0.484,1.406-1.354,3.791-3.963,6.298c-2.368,2.185-4.674,3.617-5.823,3.377c-1.35-0.424-2.028-1.31-2.028-2.663
			c0-0.675,0.443-1.541,1.333-2.599c0.886-1.057,1.33-1.882,1.33-2.473c0-0.593-0.378-0.89-1.141-0.89
			c-1.015,0-2.178,0.593-3.487,1.775c-0.331,0.301-0.621,0.616-0.871,0.944c-0.911,0.554-1.533,0.927-1.845,1.104
			c-7.358,4.172-14.199,3.825-17.724,3.319c-3.263-0.472-4.273-2.02-4.526-5.722c2.536-1.514,5.79-4.334,9.764-8.461
			c4.989-5.216,7.483-9.256,7.483-12.119c0-1.176-0.633-1.768-1.902-1.768c-4.143,0-8.519,2.39-13.126,7.165
			c-4.608,4.778-6.912,9.533-6.912,14.269c0,0.609,0.033,1.178,0.082,1.729c-6.95,4.36-13.146,4.621-17.262,4.621
			c-4.397,0-7.295-3.6-8.055-7.49c0-0.846,0.338-1.479,1.015-1.903c10.906-7.356,21.603-18.177,32.086-32.468
			c11.75-16.063,17.628-29.632,17.628-40.708c0-2.705-1.353-4.061-4.059-4.061c-4.99,0-14.542,11.712-28.662,35.131
			c-8.347,13.815-16.623,28.817-24.834,44.946c-5.957,3.862-11.371,4.769-14.122,4.769c-2.271,0-3.404-1.31-3.404-3.931
			c0-2.283,1.46-5.836,4.377-10.653c2.916-4.82,4.375-7.272,4.375-7.356c0-0.253-0.341-0.462-1.016-0.635
			c-1.268,0-2.199,0.382-2.788,1.143c-1.776,1.775-3.596,4.144-5.454,7.102c-2.876,4.564-4.313,8.541-4.313,11.921
			c0,3.215,1.903,4.82,5.707,4.82c3.485,0,9.319-0.846,15.34-4.624c-3.411,6.76-6.813,13.698-10.202,20.856
			c-1.422,3.008-2.755,5.865-4.01,8.596c-4.366-2.601-9.175-5.546-14.44-8.849c-15.39-9.725-26.465-16.275-33.228-19.659
			c9.383-5.155,18.557-14.204,27.52-27.14c3.381-4.818,10.357-16.486,20.925-35.002c10.147-4.313,18.665-9.278,25.555-14.901
			c6.893-5.623,10.337-10.548,10.337-14.775c0-2.791-2.325-4.186-6.973-4.186c-6.429,0-12.729,3.425-18.898,10.272
			c-4.482,4.989-9.893,13.148-16.234,24.478c-10.483,3.806-19.701,5.707-27.646,5.707c-5.752,0-9.894-0.211-12.432-0.635
			c-1.957-0.326-2.947-0.524-2.989-0.6c-0.7,0.085-1.067,0.565-1.067,1.487c0.506,1.354,4.312,2.028,11.415,2.028
			c9.554,0,20.079-2.028,31.578-6.087c-9.893,17.756-16.319,28.833-19.275,33.228c-7.949,11.921-15.939,20.293-23.971,25.111
			c-11.077-5.24-20.292-7.862-27.647-7.862c-3.212,0-5.963,0.552-8.244,1.648c-2.705,1.269-4.059,2.918-4.059,4.946
			c0,2.876,2.918,5.117,8.75,6.722c3.888,1.014,7.482,1.522,10.78,1.522c6.342,0,12.725-1.396,19.15-4.186
			c15.641,9.976,31.325,19.952,47.05,29.93c0.69,0.399,1.374,0.775,2.06,1.16c-7.965,17.683-11.952,28.839-11.952,33.464
			c0,2.619,0.932,3.931,2.792,3.931c3.129,0,7.398-3.256,12.809-9.765c4.8-5.719,8.942-12.271,12.443-19.637
			c13.825,5.896,26.843,8.854,39.049,8.854c5.41,0,10.229-0.759,14.457-2.281c6.087-2.283,9.132-5.878,9.132-10.78
			c0-6.766-6.089-11.753-18.264-14.964c-8.032-2.201-16.443-3.3-25.237-3.3c-3.845,0-7.712,0.236-11.604,0.706
			c0.954-4.649,1.457-9.201,1.457-13.642c0-2.451,0-4.268,0-5.454c0.92,2.792,2.973,4.121,6.154,4.188
			c1.614,0.033,6.469,0.491,12.267-1.693c2.626-0.99,4.753-1.853,6.332-2.588c0.82,4.29,3.474,6.436,7.966,6.436
			c3.712,0,11.015,0.398,19.534-4.979c-0.039,0.26-0.087,0.521-0.087,0.794c0,3.209,2.143,5.126,5.405,5.264
			c2.947,0.107,6.156-1.693,9.099-4.386c3.329-2.784,5.92-5.891,6.782-8.401c0.851-2.478-0.244-4.24-3.283-5.284
			c-1.074-0.366-2.392-0.517-3.899-0.497c-0.015-0.007-0.021-0.018-0.04-0.025c-4.519,0.248-6.335-0.055-6.191-1.907
			c0.106-1.405,0.727-2.766,2.987-5.316c1.968-2.224,6.237-4.647,9.391-4.488c-0.061,0.121-0.127,0.244-0.171,0.369
			c-0.777,2.241-0.357,3.983-0.763,6.787c0,0.002,0.004,0.002,0.005,0.004c-0.093,0.169-0.163,0.332-0.188,0.477
			c-0.079,0.493,0.198,0.793,0.835,0.896c0.845,0.138,1.897-0.202,3.15-1.013c1.253-0.813,1.986-1.889,2.203-3.228
			c0.381-2.362-0.766-4.106-2.898-4.866c2.645-2.229,7.318-1.135,9.141,0.432c1.109,0.955,2.102,1.742,2.961,2.378h-0.002
			c0.343,1.416,1.674,4.8,1.803,8.046c0.13,3.248-1.934,12.213-3.774,16.536c-0.507,1.183-0.76,2.072-0.76,2.663
			c0,1.099,0.462,1.648,1.394,1.648c0.595,0,1.271-0.633,2.032-1.902c3.636-6.256,7.732-13.951,12.301-23.081
			c5.664,0,8.733-1.768,12.449-1.776c1.589,0,2.387,0.466,2.387,1.388c0,0.84-1.29,3.699-3.868,8.574
			c-2.578,4.879-3.868,7.902-3.868,9.08c0,2.018,1.015,3.026,3.045,3.026c2.11,0,7.818-3.553,17.118-10.654
			c0.255,0,0.382,0.171,0.382,0.509l-7.862,16.487c-27.563,19.105-41.345,37.874-41.345,56.31c0,3.296,1.27,4.945,3.804,4.945
			c5.41,0,12.094-6.764,20.039-20.292c2.791-4.564,9.893-18.307,21.308-41.216c3.106-1.612,8.934-4.741,15.037-8.708
			c3.134-2.036,6.348-4.642,8.713-6.791c-0.025,0.482-0.036,0.955-0.036,1.421c0,3.296,0.907,6.109,2.727,8.433
			c1.818,2.326,4.121,3.488,6.913,3.488c3.719,0,10.123-2.223,17.225-7.466c0.11-0.079,0.184-0.145,0.282-0.22
			c0.8,4.359,3.456,6.543,7.982,6.543c3.719,0,9.849-2.705,18.391-8.117c3.467-2.197,5.198-3.591,5.198-4.184
			C785.196,379.614,785.071,379.445,784.818,379.445z M762.752,370.188c3.04-4.228,5.619-6.34,7.735-6.34
			c0.591,0,0.888,0.506,0.888,1.52c0,2.201-1.903,5.413-5.707,9.64c-3.467,3.891-6.005,6.088-7.611,6.596
			C758.141,378.223,759.707,374.417,762.752,370.188z M739.162,351.783c5.408-10.761,11.327-20.19,17.754-28.292
			c7.357-9.115,13.189-13.671,17.504-13.671c0.843,0,1.269,0.971,1.269,2.911c0,7.426-3.639,16.539-10.908,27.342
			c-5.499,8.271-12.388,16.541-20.674,24.811c-7.271,7.255-11.541,10.885-12.809,10.885c-0.169,0-0.255-0.171-0.255-0.508
			C731.043,370.367,733.75,362.543,739.162,351.783z M613.353,370.188c3.044-4.228,5.623-6.34,7.737-6.34
			c0.591,0,0.886,0.506,0.886,1.52c0,2.201-1.899,5.413-5.705,9.64c-3.469,3.891-6.005,6.088-7.609,6.596
			C608.745,378.223,610.31,374.417,613.353,370.188z M571.579,300.6c4.713-5.775,9.176-8.662,13.387-8.662
			c2.947,0,4.423,0.807,4.423,2.419c0,4.416-3.117,9.212-9.35,14.394c-5.642,4.755-12.926,9.085-21.851,12.99
			C563.83,311.723,568.292,304.677,571.579,300.6z M486.915,390.479c-3.217,0-6.258-0.509-9.132-1.521
			c-3.552-1.354-5.834-3.214-6.85-5.581c0.084-3.214,2.582-4.822,7.482-4.822c6.764,0,15.135,2.709,25.111,8.119
			C498.202,389.212,492.663,390.479,486.915,390.479z M605.543,328.376c9.361-15.245,15.263-22.869,17.709-22.869
			c1.266,0,1.896,0.85,1.896,2.54c0,8.048-3.583,18.001-10.751,29.856c-5.901,9.74-12.984,19.102-21.249,28.077
			c-7.758,8.216-12.984,12.451-15.685,12.704C587.836,358.781,597.194,342.014,605.543,328.376z M557.555,443.618
			c-4.904,6.424-8.584,9.64-11.034,9.64c-0.592,0-0.89-0.509-0.89-1.522c0-4.758,3.755-15.292,11.245-31.586
			c3.925,2.135,7.789,4.043,11.591,5.735C565.342,432.358,561.708,438.275,557.555,443.618z M586.343,405.951
			c10.738,0,20.334,1.564,28.79,4.692c9.554,3.636,14.329,8.242,14.329,13.823c0,3.214-2.154,5.664-6.466,7.356
			c-3.891,1.604-8.921,2.41-15.093,2.41c-8.963,0-19.614-3.003-31.959-9.005c-1.194-0.578-2.485-1.231-3.855-1.944
			c0.142-0.326,0.292-0.642,0.431-0.972c2.333-5.433,4.079-10.735,5.24-15.909C580.483,406.108,583.341,405.951,586.343,405.951z
			 M567.447,406.839c-2.029,0-3.045,0.466-3.045,1.396c0.169,0.508,0.508,0.761,1.016,0.761c0.591,0,1.184-0.17,1.775-0.506
			c2.579-0.783,5.339-1.376,8.261-1.796c-1.065,4.389-2.534,8.913-4.456,13.589c-0.279,0.665-0.569,1.314-0.858,1.97
			c-3.306-1.771-7.065-3.894-11.276-6.374c4.472-9.509,10.08-20.761,16.826-33.77c1.185,1.27,1.774,4.229,1.774,8.877
			c0,4.594-0.561,9.373-1.672,14.338c-0.584,0.083-1.167,0.154-1.75,0.248C568.799,406.415,566.602,406.839,567.447,406.839z
			 M654.669,366.822c-0.209,0.524-1.515,1.179-2.398,1.929c-0.263-2.499,0.178-4.256,1.023-5.439
			C655.344,364.238,655.208,365.458,654.669,366.822z M669.305,381.487l-1.568,3.213l0.75-3.565
			c2.826-10.995-0.715-12.952-0.015-13.803c0.697-0.85,2.308,1.434,7.024,1.715L669.305,381.487z M679.109,436.135
			c-6.907,12.177-12.131,18.264-15.67,18.264c-1.431,0-2.147-1.101-2.147-3.298c0-17.333,12.049-34.623,36.146-51.869
			C689.685,415.886,683.577,428.188,679.109,436.135z"/>
	</g>
</g>
</svg>
