<svg xmlns="http://www.w3.org/2000/svg" width="841.89" height="595.28" viewBox="0 0 841.89 595.28"><path fill="#58595B" d="M464.15 252.868v-.005h-37.907v.005c-9.808-.142-13.988 4.96-13.988 4.96-2.974 3.11-4.355 7.496-4.378 12.638v53.277h-2.297v-.014h-8.893v-70.9H372.44l-16.807 43.02-16.967-43.02h-35.27v18.65h11.166v52.23h-38.847l-9.66-11.156h7.907c8.587.238 13.096-4.414 13.096-4.414 3.235-3.07 5.146-7.907 5.146-14.94l-.01-19.82v-3.33c.232-8.333-4.283-12.717-4.283-12.717-2.995-3.14-7.692-4.5-14.515-4.5h-115.86v.005c-9.802-.142-13.987 4.96-13.987 4.96-2.974 3.112-4.356 7.496-4.378 12.64l.005 53.272h-22.392l-21.606-27.948 21.237-24.282h11.566v-18.648h-18.684l-29.847 33.59v-33.595H49.584l.012 18.653H60.78v70.926h18.67l.004-37.302 29.84 37.322 85.61-.01v.01l.147-.01h.17v-.01c7.49-.077 12.334-1.97 15.012-5.154 2.713-3.195 3.543-7.676 3.543-12.686l.035-53.087h11.178v70.925h18.685V271.48h27.345c1.03.087 1.575.428 2.046 1 .444.564.444 1.338.444 2.643v18.22c-.114.926-.42 1.49-.98 1.94-.59.467-1.38.467-2.723.467h-22.408v16.75l26.11 29.905h59.722v-56.14l14.908 37.464h14.96l14.926-37.283v55.958h18.662v.05l66.917-.005v.004l.157-.004h.17v-.013c7.485-.066 12.34-1.973 15.013-5.15 2.708-3.195 3.538-7.677 3.538-12.687l.035-53.09v-1.044c-.024-5.143-1.4-9.527-4.38-12.637.002 0-4.183-5.104-13.986-4.962zm-268.955 22.218v44.83c0 1.273.028 2.04-.455 2.758-.426.602-1.137 1-2.405 1.035h-31.847c-1.172.054-1.717-.332-2.195-.867-.512-.585-.546-1.41-.5-2.74v-45.017c0-1.288.08-2.09.523-2.698.382-.46.87-.884 2.173-.91h31.857c1.285.04 1.802.28 2.31.87.64.723.538 1.63.538 2.738zm268.716.03v44.833c0 1.27.012 2.04-.466 2.758-.432.602-1.126 1.006-2.4 1.035h-31.852c-1.175.05-1.716-.33-2.198-.872-.507-.572-.547-1.402-.49-2.737v-45.016c0-1.288.07-2.09.52-2.69.38-.468.875-.89 2.17-.917h31.862c.31.01.58.033.808.07.047.006.08.02.125.03.636.12 1.012.348 1.376.77.634.722.545 1.63.545 2.737zm29.796-3.637h26.12v70.925h18.676l-.014-70.926h89.58v-18.654l-134.362.017v18.636zm279.947-18.654v89.58h18.65v-89.58h-18.65zm-220.23 46.817c0 15.85 4.728 27.637 14.043 34.994 9.302 7.375 18.56 7.77 28.01 7.77h32.592V323.73h-31.772c-9.838 0-19.73-8.22-20.29-18.626h52.063V286.42h-74.647v13.223zm182.908-46.817h-18.673v70.903h-57.1c-1.09-.007-1.66-.49-2.013-.938-.442-.552-.567-1.553-.567-2.86v-44.866c0-1.293.125-2.115.567-2.66.352-.453.922-.945 2.014-.953h24.813c1.024.025 1.548.5 1.89.952.407.545.534 1.367.534 2.66v11.355h18.673v-33.595h-48.73c-6.424 0-11.053 1.84-14.043 4.986-3.015 3.117-4.413 7.533-4.413 12.71l-.033-.117v54.406l.034-.114c0 5.174 1.4 9.574 4.414 12.71 2.99 3.132 7.62 4.984 14.043 4.984h19.72v.006h58.874v-37.294h29.853V286.42H736.33v-33.594z"/></svg>