<?xml version="1.0" encoding="utf-8"?>
<!-- Generator: Adobe Illustrator 16.0.0, SVG Export Plug-In . SVG Version: 6.00 Build 0)  -->
<!DOCTYPE svg PUBLIC "-//W3C//DTD SVG 1.1//EN" "http://www.w3.org/Graphics/SVG/1.1/DTD/svg11.dtd">
<svg version="1.1" id="Layer_1" xmlns="http://www.w3.org/2000/svg" xmlns:xlink="http://www.w3.org/1999/xlink" x="0px" y="0px"
	 width="841.89px" height="595.28px" viewBox="0 0 841.89 595.28" enable-background="new 0 0 841.89 595.28" xml:space="preserve">
<g>
	<polygon fill="#58595B" points="268.835,459.774 268.835,459.774 254.875,473.734 240.914,459.774 240.914,459.774 
		226.954,459.774 226.954,512.125 240.914,512.125 240.914,479.519 254.875,493.483 268.835,479.522 268.835,512.125 
		282.796,512.125 282.796,459.774 	"/>
	<polygon fill="#58595B" points="373.541,499.908 373.541,459.774 359.576,459.774 359.576,512.125 415.425,512.125 
		415.425,499.908 	"/>
	<path fill="#58595B" d="M293.269,459.774v52.351h55.843v-52.351l0,0H293.269z M335.151,499.908h-27.921v-27.917h27.921V499.908z"/>
	<path fill="#58595B" d="M425.897,459.774v52.351h55.841v-52.351l0,0H425.897z M467.777,499.908h-27.921v-27.917h27.921V499.908z"/>
	<path fill="#58595B" d="M558.522,459.774v52.351h55.842v-52.351l0,0H558.522z M600.404,499.908h-27.922v-27.917h27.922V499.908z"/>
	<polygon fill="#58595B" points="528.332,512.125 548.076,512.125 521.89,485.938 548.049,459.774 530.774,459.774 506.167,484.381 
		506.167,459.774 492.211,459.774 492.211,512.125 506.167,512.125 506.167,501.66 512.013,495.814 	"/>
	<path fill="#58595B" d="M226.954,82.658v363.156h387.411V82.658H226.954z M600.404,431.853h-359.49V96.618h359.49V431.853z"/>
	<polygon fill="#58595B" points="375.289,106.388 375.289,106.397 335.151,146.535 295.013,106.388 295.013,106.388 
		254.875,106.388 254.875,256.904 295.013,256.904 295.013,163.147 335.151,203.294 375.289,163.161 375.289,256.904 
		415.425,256.904 415.425,106.388 	"/>
	<polygon fill="#58595B" points="466.033,221.784 466.033,106.388 425.897,106.388 425.897,256.904 586.448,256.904 
		586.448,221.784 	"/>
	<path fill="#58595B" d="M254.875,267.376v150.516h160.55V267.376l0,0H254.875z M375.289,382.772h-80.276v-80.274h80.276V382.772z"
		/>
	<polygon fill="#58595B" points="529.742,417.893 586.51,417.893 511.221,342.604 586.448,267.376 536.775,267.376 466.033,338.119 
		466.033,267.376 425.897,267.376 425.897,417.893 466.033,417.893 466.033,387.786 482.837,370.987 	"/>
</g>
</svg>
