<?xml version="1.0" encoding="utf-8"?>
<!-- Generator: Adobe Illustrator 18.0.0, SVG Export Plug-In . SVG Version: 6.00 Build 0)  -->
<!DOCTYPE svg PUBLIC "-//W3C//DTD SVG 1.1//EN" "http://www.w3.org/Graphics/SVG/1.1/DTD/svg11.dtd">
<svg width="36" height="36" version="1.1" id="Icons" xmlns="http://www.w3.org/2000/svg" xmlns:xlink="http://www.w3.org/1999/xlink" x="0px" y="0px"
	 viewBox="10 50 36 36" enable-background="new 10 50 36 36" xml:space="preserve">
<g id="Development">
	<g>
		<g>
			<path d="M32,52v8h-8v-8H32 M34,50H22v12h12V50L34,50z"/>
		</g>
		<g>
			<path d="M20,76v8h-8v-8H20 M22,74H10v12h12V74L22,74z"/>
		</g>
		<g>
			<path d="M44,76v8h-8v-8H44 M46,74H34v12h12V74L46,74z"/>
		</g>
		<g>
			<polygon points="41,75 39,75 39,69 17,69 17,75 15,75 15,67 41,67 			"/>
		</g>
		<g>
			<rect x="27" y="61" width="2" height="8"/>
		</g>
	</g>
</g>
</svg>
