<?xml version="1.0" encoding="utf-8"?>
<!-- Generator: Adobe Illustrator 18.0.0, SVG Export Plug-In . SVG Version: 6.00 Build 0)  -->
<!DOCTYPE svg PUBLIC "-//W3C//DTD SVG 1.1//EN" "http://www.w3.org/Graphics/SVG/1.1/DTD/svg11.dtd">
<svg width="40" height="40" version="1.1" id="Icons" xmlns="http://www.w3.org/2000/svg" xmlns:xlink="http://www.w3.org/1999/xlink" x="0px" y="0px"
	 viewBox="0 0 40 40" enable-background="new 0 0 40 40" xml:space="preserve">
<g id="Graphic">
	<g>
		<g>
			<polygon points="8,8 0,8 0,6 6,6 6,0 8,0 			"/>
		</g>
		<g>
			<polygon points="8,32 8,40 6,40 6,34 0,34 0,32 			"/>
		</g>
		<g>
			<polygon points="32,8 32,0 34,0 34,6 40,6 40,8 			"/>
		</g>
		<g>
			<polygon points="32,32 40,32 40,34 34,34 34,40 32,40 			"/>
		</g>
		<g>
			<path d="M28,28H12V12h16V28z M30,10H10v20h20V10L30,10z"/>
		</g>
	</g>
</g>
</svg>
