<?xml version="1.0" encoding="utf-8"?>
<!-- Generator: Adobe Illustrator 18.0.0, SVG Export Plug-In . SVG Version: 6.00 Build 0)  -->
<!DOCTYPE svg PUBLIC "-//W3C//DTD SVG 1.1//EN" "http://www.w3.org/Graphics/SVG/1.1/DTD/svg11.dtd">
<svg version="1.1" id="Layer_1" xmlns="http://www.w3.org/2000/svg" xmlns:xlink="http://www.w3.org/1999/xlink" x="0px" y="0px"
	 width="60px" height="60px" viewBox="0 0 60 60" enable-background="new 0 0 60 60" xml:space="preserve">
<g>
	<path d="M14,46h32V14H14V46z M17,17h26v26H17V17z"/>
	<polygon points="9,9 0,9 0,12 12,12 12,0 9,0 	"/>
	<polygon points="51,9 51,0 48,0 48,12 60,12 60,9 	"/>
	<polygon points="0,51 9,51 9,60 12,60 12,48 0,48 	"/>
	<polygon points="48,60 51,60 51,51 60,51 60,48 48,48 	"/>
</g>
</svg>
