<svg xmlns="http://www.w3.org/2000/svg" width="841.89" height="595.28" viewBox="0 0 841.89 595.28"><g fill="#58595B"><path fill-rule="evenodd" clip-rule="evenodd" d="M673.924 389.078l16.344-56.025c2.86-10.125 5.567-16.64 8.125-19.51 2.55-2.868 8.098-4.31 12.528-4.31 2.982 0 5.053.73 6.22 2.19 1.158 1.45 1.18 4.17-.086 8.112-1.667 5.172-2.96 8.43-3.737 9.85-.777 1.42-1.42 3.03-1.93 4.833 15.814-11.454 23.707-18.04 28.088-19.982 4.395-1.93 8.676-3.003 12.873-3.25 6.635-.36 11.814.572 14.817 3.624 2.933 2.99 2.897 7.787.58 13.736-5.06 12.98-16.245 25.6-29.89 34.905-13.658 9.32-23.303 13.978-33.074 13.978-2.062 0-3.505-.43-4.353-1.28-.854-.86-.98-2.146-.416-3.87.488-1.463 1.364-2.834 2.614-4.134 1.25-1.272 3.717-.233 5.618-1.01l9.107-3.73c8.944-3.676 23.52-20.322 26.658-29.756 1.364-4.12 1.272-6.62-3.257-4.126l-4.91 2.7c-4.96 2.727-11.136 7.276-18.583 13.586-7.454 6.317-11.086 11.7-15.058 16.16-2.417 7.306-5.088 16.556-8 27.755-2.91 11.206-4.33 18.236-4.387 21.056l-.078 3.476c-.106 4.127-2.105 7.836-5.88 11.143-3.77 3.307-9.48 4.96-12.972 4.96-3.293 0-5.497-.954-6.6-2.904-1.103-1.922-1.145-4.43-.113-7.52.318-.952.8-2.352 1.478-4.188.656-1.845 1.18-3.194 1.575-4.07.522-1.526 1.187-3.71 2.014-6.5.83-2.786 2.39-8.092 4.687-15.9M58.848 375.398c-.354-2.925.353-4.45 1.667-6.41 2.226-3.334 6.204-9.792 9.278-12.957 91.595-94.06 140.144-119.843 211.68-162.578 15.48-9.25 71.562-34.51 87.644-27.246 9.87 4.437 4.155 22.088-1.35 35.62-7.27 17.896-35.3 59.4-9.963 50.696 15.192-5.23 24.413-13.36 38.678-21.34.537-.296 44.833-26.29 39.06-6.705-7.2 24.526-13.312 25.557-19.062 48.33-1.61 6.36-.997 6.692-6.494 9.597-11.008 5.808-16.33 13.15-25.98 12.895-5.18-.142-6.275-7.152-3.152-14.196 12.902-29.23 13.375-31.902 3.28-27.055-10.09 4.846-30.738 17.21-48.268 25.888-17.036 8.437-27.592 3.024-23.89-20.13 3.872-24.314 33.083-77.195 10.825-71.337-64.758 17.094-183.683 108.568-230.198 166.91-4.96 6.22-7.85 11.9-11.66 15.334-3.87 3.47-10.838 7.073-14.88 7.574-4.402.572-6.967-.848-7.214-2.89M452.24 235.26c8.21-2.4 14.258-2.677 23.19-5.214 1.087-.17 4.882.212 2.762 2.728-9.532 11.327-15.156 31.288-21.296 48.04-5.307 7.208-17.107 10.168-28.01 14.896-4.932 2.134-7.482-3.307-4.925-7.808 7.3-12.88 14.5-30.518 19.856-45.928 1.598-4.572 3.76-5.356 8.423-6.713M495.065 233.912c6.366-1.124 12.72-2.607 17.743-3.936 1.88-.488 3.787 1.2 2.903 3.066-6.04 12.994-12.18 19.947-17.226 31.84 10.705-6.714 22.427-8.946 30.772-13.56 1.61-5.3 3.68-11.285 6.917-15.786 1.49-2.05 9.603-4.14 11.772-4.558 5.002-1.01 5.108-1.406 10.322-1.15 4.12.197 3.37-1.506 1.823 4.45-1.2 4.6-3.547 10.097-4.176 12.655 11.27-2.777 24.837-7.377 37.35-8.338-11.58 5.476-25.267 9.574-40.155 14.958-5.272 8.924-8.056 17.17-11.532 26.702-.657 1.83-.48 4.134-1.604 5.978-1.435 2.38-4.34 4.197-6.52 5.172-.983.445-4.92 1.632-10.177 3.187-6.77 1.985-13.877 4.027-12.732.12.806-2.7 2.085-5.172 3.773-8.28 3.724-6.848 6.805-15.094 9.03-20.902-6.656-.042-20.78 9.397-26.794 14.895-3.632 3.314-9.433 9.927-14.012 12.634-6.12 3.588-19.594 8.683-15.347-4.453 4.798-14.853 11.376-32.326 18.682-46.91 2.667-5.298 3.81-6.81 9.188-7.785M592.222 178.09c.96 1.774-.6 1.774-4.29 3.053-17.297 6.013-41.73 17.502-62.01 36.064-6.825 4.508-9.13 3.095-9.284-5.37 19.078-15.496 34.743-24.25 51.956-29.493 7.63-2.317 15.75-2.832 23.628-4.253M473.727 204.058c5.123-2.19 14.69-3.116 20.223-1.562-4.953 3.123-11.334 5.073-16.3 8.197-7.37 4.112-13.766 8.627-21.15 12.753-7.39-4.53-4.994-6.953.086-10.167 4.478-2.84 10.9-6.565 17.14-9.222M658.867 208.164c13.297-1.64 25.77.275 38.572 1.003 19.09 12.188 37.087 25.628 54.575 38.99-5.836.847-9.602.755-15.432 1.37-2.36 10.853-8.747 33.747-12.457 44.6-2.12.565-6.733 1.568-8.847 2.127 3.998-12.613 12.244-36.403 14.887-49.016 4.007-.113 10.45.686 14.45-.516-15.136-11.157-32.828-22.78-47.942-33.93-9.688-1.612-21.374-3.887-32.934-2.792-1.722.163-3.474-1.23-4.873-1.836M570.042 318.115l-9.052 25.564c-1.024 2.677-1.9 5.03-2.656 7.058-.764 2.028-1.576 4.148-2.46 6.34l4.933-.404c3.11-.27 9.164.07 10.514.82 1.35.756 1.514 1.844.48 3.292-.932 1.308-2.16 2.354-3.68 3.145-1.534.792-9.264 1.774-15.51 2.94-2.826 3.095-5.477 5.42-7.956 6.96-2.474 1.54-4.664 2.317-6.6 2.317-1.717 0-7.2.487-8.02-.43-.82-.934-.897-2.383-.227-4.397-11.46 2.014-17.396 3.088-26.277 5.193-8.883 2.1-14.81 3.44-17.764 3.852l-11.906 1.695c-2.968.424-4.854.07-5.652-1.03-.8-1.09-.594-2.58.685-4.432.8-1.166 2.247-2.282 4.226-3.35 2.013-1.066 10.45-2.727 13.12-3.08l3.088-.41c1.293-1.922 3.54-4.564 6.698-7.886 3.166-3.335 15.813-15.862 37.958-37.568 17.573-17.32 27.69-26.724 30.404-28.2 2.707-1.463 4.996-2.247 6.903-2.318 2.538 0 3.846 1.526 3.888 4.586.064 3.075-1.66 9.647-5.136 19.743m-61.466 46.183l-1.463 1.745 27.026-5.122c.593-1.505 1.2-3.073 1.844-4.685.63-1.61 1.512-3.355 2.105-5.2l4.542-14.272c4.87-15.27 2.078-13.41-2.748-8.31-4.833 5.102-8.903 11.475-13.77 16.57l-10.14 10.61c-.523.553-1.012 1.068-1.457 1.542-.45.48-2.422 2.855-5.94 7.123"/><path fill-rule="evenodd" clip-rule="evenodd" d="M570.374 366.418l9.13-31.754 9.12-31.754c3.526-8.663 11.525-24.434 16.048-28.292 9.58-8.218 21.45-15.53 35.725-14.754 10.486.565 19.523 6.225 18.406 13.828-2.48 16.732-31.542 42.833-42.65 44.69 10.063-1.78 22.23-1.157 26.647 1.824 4.43 2.98 5.752 7.71 3.985 14.174-2.028 7.384-5.158 17.106-24.49 31.373-13.955 10.31-33.153 13.644-42.58 13.644-3.228 0-5.426-1.018-6.592-3.03-1.174-2.014-4.035-5.335-2.75-9.95m45.116-83.235l-10.31 31.245c8.5 3.724 37.024-26.15 28.37-36.58-2.353-2.847-16.364.198-18.06 5.335M601.894 333.4c-1.66 3.433-3.024 7.813-4.197 11.417l-5.327 15.198c-1.243 3.52 1.965 3.78 4.304 3.625 12.31-.854 31.6-20.314 25.938-31.11-2.184-4.17-4.557-7.872-12.14-5.145-2.445.89-6.747 2.255-8.577 6.014M659.743 319.416l1.343-4.014c.968-3.003 2.854-5.35 5.674-6.988 2.818-1.668 5.864-2.51 9.136-2.51s5.93.65 7.95 1.93c2.02 1.28 2.783 2.933 2.267 4.982-1.165 4.65-4.24 12.944-9.2 24.88-4.96 11.94-7.22 20.9-6.762 26.892l.1 1.533c.163 2.87-1.144 5.244-3.9 7.13-2.77 1.887-6.443 2.82-11.015 2.82-4.268 0-7.235-1.054-8.953-3.145-1.71-2.106-1.844-5.985-.438-11.59.085-.316.177-.72.297-1.2.12-.472 4.62-14.053 13.503-40.72M364.68 320.75c-10.585 4.092-13.193 10.388-7.017 12.324 5.525 1.724 19.332 2.077 22.957.678 9.107-3.483 5.984-9.34 1.102-11.997-3.787-2.064-11.85-3.25-17.043-1.004"/><path d="M364.68 320.75c-10.585 4.092-13.193 10.388-7.017 12.324 5.525 1.724 19.332 2.077 22.957.678 9.107-3.483 5.984-9.34 1.102-11.997-3.787-2.064-11.85-3.25-17.043-1.004z"/><path fill-rule="evenodd" clip-rule="evenodd" d="M345.722 337.936c-10.782 3.575-17.757 12.422-11.383 14.294 5.687 1.696 23.43 2.544 28.404-1.745 7.737-6.628 8.86-9.836 3.823-12.372-3.937-1.98-15.582-2.17-20.845-.177"/><path d="M345.722 337.936c-10.782 3.575-17.757 12.422-11.383 14.294 5.687 1.696 23.43 2.544 28.404-1.745 7.737-6.628 8.86-9.836 3.823-12.372-3.937-1.98-15.582-2.17-20.845-.177z"/><path fill-rule="evenodd" clip-rule="evenodd" d="M321.79 357.31c-12.867 4.656-21.29 15.913-13.75 18.224 6.755 2.056 27.847 2.91 33.846-2.58 9.277-8.472 9.504-11.453 3.533-14.598-4.65-2.445-17.335-3.632-23.63-1.046"/><path d="M321.79 357.31c-12.867 4.656-21.29 15.913-13.75 18.224 6.755 2.056 27.847 2.91 33.846-2.58 9.277-8.472 9.504-11.453 3.533-14.598-4.65-2.445-17.335-3.632-23.63-1.046z"/><path fill-rule="evenodd" clip-rule="evenodd" d="M384.902 338.104c-9.942 3.548-16.435 12.146-10.592 13.92 5.208 1.597 21.516 2.275 26.137-1.922 7.165-6.48 8.246-9.588 3.618-11.998-3.597-1.878-14.294-1.978-19.163 0"/><path d="M384.902 338.104c-9.942 3.548-16.435 12.146-10.592 13.92 5.208 1.597 21.516 2.275 26.137-1.922 7.165-6.48 8.246-9.588 3.618-11.998-3.597-1.878-14.294-1.978-19.163 0z"/><path fill-rule="evenodd" clip-rule="evenodd" d="M419.42 338.663c-8.162 3.505-13.63 11.638-8.933 13.17 4.204 1.37 17.417 1.676 21.275-2.324 5.97-6.155 6.903-9.073 3.215-11.222-2.875-1.674-11.566-1.54-15.558.375"/><path d="M419.42 338.663c-8.162 3.505-13.63 11.638-8.933 13.17 4.204 1.37 17.417 1.676 21.275-2.324 5.97-6.155 6.903-9.073 3.215-11.222-2.875-1.674-11.566-1.54-15.558.375z"/><path fill-rule="evenodd" clip-rule="evenodd" d="M448.734 341.115c-.62.247-2.79.933-3.355 1.236-5.583 2.862-7.773 8.162-4.27 9.272 3.44 1.074 14.26 1.44 17.368-1.54 4.82-4.63 5.547-6.826 2.494-8.486-2.373-1.315-8.993-1.908-12.238-.48"/><path d="M448.734 341.115c-.62.247-2.79.933-3.355 1.236-5.583 2.862-7.773 8.162-4.27 9.272 3.44 1.074 14.26 1.44 17.368-1.54 4.82-4.63 5.547-6.826 2.494-8.486-2.373-1.315-8.993-1.908-12.238-.48z"/><path fill-rule="evenodd" clip-rule="evenodd" d="M366.262 356.936c-11.8 4.826-19.657 16.174-12.817 18.364 6.098 1.957 25.282 2.494 30.843-3.066 8.592-8.586 8.854-11.567 3.462-14.612-4.19-2.36-15.708-3.364-21.488-.686"/><path d="M366.262 356.936c-11.8 4.826-19.657 16.174-12.817 18.364 6.098 1.957 25.282 2.494 30.843-3.066 8.592-8.586 8.854-11.567 3.462-14.612-4.19-2.36-15.708-3.364-21.488-.686z"/><path fill-rule="evenodd" clip-rule="evenodd" d="M404.587 356.56c-10.26 5.09-17.32 16.57-11.503 18.585 5.193 1.81 21.643 1.907 26.568-3.752 7.596-8.762 7.907-11.73 3.356-14.634-3.54-2.27-13.39-2.99-18.42-.2"/><path d="M404.587 356.56c-10.26 5.09-17.32 16.57-11.503 18.585 5.193 1.81 21.643 1.907 26.568-3.752 7.596-8.762 7.907-11.73 3.356-14.634-3.54-2.27-13.39-2.99-18.42-.2z"/><path fill-rule="evenodd" clip-rule="evenodd" d="M437.472 360.313c-2.05 1.024-3.123 1.074-4.755 2.537-4.89 4.36-7.688 11.306-4.304 12.43 4.014 1.355 16.923 1.228 20.943-3.272 6.204-6.96 6.783-9.984 3.038-11.503-3.05-1.245-11.255-1.966-14.922-.192"/><path d="M437.472 360.313c-2.05 1.024-3.123 1.074-4.755 2.537-4.89 4.36-7.688 11.306-4.304 12.43 4.014 1.355 16.923 1.228 20.943-3.272 6.204-6.96 6.783-9.984 3.038-11.503-3.05-1.245-11.255-1.966-14.922-.192z"/><path fill-rule="evenodd" clip-rule="evenodd" d="M681.414 267.58c-5.942 5.972-9.553 19.44-5.922 21.82 3.244 2.113 13.242 2.233 15.898-4.41 4.127-10.28 4.14-13.763 1.21-17.176-2.262-2.657-8.296-3.512-11.186-.233"/><path d="M769.35 216.014c2.26 0 4.408.565 6.47 1.696 2.08 1.117 3.69 2.728 4.877 4.826s1.767 4.31 1.767 6.6c0 2.275-.572 4.465-1.725 6.52-1.167 2.08-2.784 3.69-4.862 4.848-2.056 1.152-4.246 1.73-6.528 1.73-2.27 0-4.452-.58-6.522-1.73-2.07-1.16-3.688-2.77-4.847-4.847-1.165-2.056-1.73-4.247-1.73-6.52 0-2.29.587-4.502 1.767-6.6 1.18-2.1 2.806-3.71 4.868-4.827 2.068-1.13 4.223-1.696 6.464-1.696m.027 2.58c-1.802 0-3.533.444-5.187 1.34-1.653.898-2.954 2.19-3.915 3.887-.953 1.697-1.427 3.47-1.427 5.315 0 1.823.46 3.59 1.385 5.257.933 1.66 2.233 2.968 3.9 3.893 1.668.94 3.413 1.406 5.243 1.406 1.837 0 3.582-.465 5.242-1.405 1.668-.925 2.96-2.232 3.894-3.893.947-1.667 1.4-3.434 1.4-5.257 0-1.844-.468-3.618-1.42-5.314-.948-1.695-2.263-2.988-3.923-3.885-1.66-.897-3.384-1.342-5.193-1.342m-5.942 17.558v-13.92h2.82c2.655 0 4.146.008 4.443.043.94.078 1.667.262 2.19.56.516.29.954.727 1.3 1.327.354.594.522 1.265.522 1.993 0 1.003-.324 1.858-.98 2.58-.65.72-1.584 1.144-2.772 1.327.425.148.757.325.982.516.233.19.545.544.934 1.074.112.12.45.7 1.03 1.682l1.64 2.82h-3.483l-1.164-2.262c-.777-1.52-1.435-2.48-1.95-2.86-.517-.39-1.166-.595-1.95-.595h-.742v5.716h-2.82zm2.82-7.905h1.157c1.625 0 2.63-.063 3.024-.19.396-.127.707-.347.94-.665.232-.31.346-.664.346-1.06s-.113-.742-.34-1.04c-.22-.303-.536-.52-.953-.656-.403-.134-1.414-.19-3.02-.19h-1.157v3.8z"/></g></svg>