<?xml version="1.0" encoding="utf-8"?>
<!-- Generator: Adobe Illustrator 16.0.0, SVG Export Plug-In . SVG Version: 6.00 Build 0)  -->
<!DOCTYPE svg PUBLIC "-//W3C//DTD SVG 1.1//EN" "http://www.w3.org/Graphics/SVG/1.1/DTD/svg11.dtd">
<svg version="1.1" id="Layer_1" xmlns="http://www.w3.org/2000/svg" xmlns:xlink="http://www.w3.org/1999/xlink" x="0px" y="0px"
	 width="841.89px" height="595.28px" viewBox="0 0 841.89 595.28" enable-background="new 0 0 841.89 595.28" xml:space="preserve">
<g>
	<g>
		<g>
			<path fill="#58595B" d="M123.838,250.096c-4.837,0-8.991,1.721-12.471,5.215c-3.47,3.469-5.215,7.623-5.215,12.45v47.618
				c0,4.816,1.745,8.986,5.215,12.449c3.479,3.5,7.634,5.215,12.471,5.215c4.84,0,8.99-1.715,12.477-5.215
				c3.463-3.463,5.214-7.633,5.214-12.449v-47.618c0-4.827-1.751-8.981-5.214-12.45
				C132.828,251.816,128.678,250.096,123.838,250.096z"/>
		</g>
		<g>
			<path fill="#58595B" d="M92.724,184.681L42.52,235.127V410.6h301.202V184.681H92.724z M180.061,313.992
				c0,15.588-5.479,28.871-16.438,39.826c-10.96,10.951-24.215,16.43-39.784,16.43c-15.554,0-28.83-5.479-39.781-16.43
				c-10.951-10.955-16.431-24.238-16.431-39.826v-44.848c0-15.579,5.479-28.824,16.431-39.794
				c10.951-10.946,24.228-16.427,39.781-16.427c15.569,0,28.824,5.48,39.784,16.427c10.96,10.97,16.438,24.215,16.438,39.794
				V313.992z M200.529,365.553c0,5.279-1.41,9.539-4.248,12.715c-2.82,3.166-6.393,4.75-10.716,4.75h-4.986v-8.527h2.617
				c1.488,0,2.697-0.436,3.622-1.371c0.913-0.902,1.37-2.35,1.37-4.357v-3.209h-7.609v-19.008h19.95V365.553z M303.426,354.475
				c-11.567,10.527-25.722,15.773-42.5,15.773c-13.448,0-25.726-4.287-36.838-12.799c-11.116-8.578-18.026-18.975-20.744-31.223
				h38.544c1.664,2.455,4.153,4.469,7.466,6.164c3.334,1.621,6.731,2.457,10.212,2.457c5.749,0,10.578-2.023,14.505-6.076
				c3.937-4.133,5.893-8.813,5.893-14.059c0-5.18-1.956-9.387-5.893-12.736c-3.927-3.309-8.756-4.963-14.505-4.963
				c-4.234,0-8.247,1.214-12.013,3.619c-3.78,2.406-6.2,5.379-7.255,8.865l-31.96-7.738l13.145-86.129h86.126v31.747h-55.062
				l-2.726,18.121c1.35-1.043,4.043-1.952,8.041-2.731c3.995-0.739,8.419-1.123,13.26-1.123c14.354,0,26.221,5.063,35.578,15.202
				c9.374,10.123,14.066,22.89,14.066,38.313C320.767,330.879,314.995,343.955,303.426,354.475z"/>
		</g>
	</g>
	<g>
		<path fill="#58595B" d="M381.38,184.681h49.704v22.678h-10.565v15.52h30.283v-15.52h-10.55v-22.678h49.682v22.678h-10.524v58.705
			h10.524v22.675h-49.682v-22.675h10.55v-18.025h-30.283v18.025h10.565v22.675H381.38v-22.675h10.559v-58.705H381.38V184.681z"/>
		<path fill="#58595B" d="M511.551,184.681h48.319v22.678h-10.723v41.784l25.783-41.784h-6.532v-22.678h46.644v22.678h-9.048
			l-56.847,81.38h-40.504v-22.675h13.497v-58.705h-10.59V184.681z"/>
		<path fill="#58595B" d="M693.323,288.738h-49.848v-22.675h10.7v-41.769l-25.796,41.769h6.531v22.675h-46.59v-22.675h9.009
			l56.846-81.383h39.147v22.678h-10.546v58.705h10.546V288.738z"/>
		<path fill="#58595B" d="M711.108,184.681h49.707v22.678h-10.553v11.034h12.104c10.054,0,18.73,3.391,26.031,10.172
			c7.301,6.783,10.949,15.037,10.949,24.775c0,9.725-3.666,18.053-11.033,24.994c-7.357,6.953-16.002,10.404-25.947,10.404h-51.258
			v-22.675h10.576v-58.705h-10.576V184.681z M750.263,242.001v23.129h8.394c3.292,0,6.041-1.038,8.216-3.105
			c2.188-2.063,3.275-4.902,3.275-8.524c0-3.226-1.119-5.948-3.362-8.175c-2.22-2.225-4.939-3.324-8.129-3.324H750.263z"/>
		<path fill="#58595B" d="M489.982,410.6h-49.703v-22.686h10.528v-57.205h-30.271v57.205h10.568V410.6H381.38v-22.686h10.559
			v-58.752H381.38v-22.686h108.603v22.686h-10.53v58.752h10.53V410.6z"/>
		<path fill="#58595B" d="M561.093,375.182L536.844,410.6h-29.202v-22.686h8.242l13.824-14.281
			c-6.143-2.391-10.982-6.203-14.597-11.377c-3.956-5.564-5.904-12.154-5.904-19.715c0-10.088,3.992-18.584,12.011-25.557
			c8.059-6.984,18.193-10.508,30.404-10.508h48.596v22.686h-10.53v58.752h10.53V410.6h-46.266v-21.789h7.141V375.182z
			 M561.093,356.498v-25.789h-8.865c-3.915,0-7.239,1.172-9.889,3.424c-2.627,2.268-3.933,5.107-3.933,8.531
			c0,3.861,1.3,7.115,3.894,9.834c2.6,2.645,5.828,4,9.774,4H561.093z"/>
		<path fill="#58595B" d="M614.149,306.477h85.443v38.223H678.45v-13.99h-8.377v57.205h10.574V410.6h-47.568v-22.686h10.607v-57.205
			h-8.408v13.99h-21.129V306.477z"/>
		<path fill="#58595B" d="M711.108,306.477h49.729v22.686h-10.559v11.061h12.104c10.063,0,18.733,3.393,26.038,10.178
			c7.303,6.785,10.949,15.029,10.949,24.781c0,9.693-3.668,18.031-11.025,25.01c-7.369,6.916-16.018,10.408-25.962,10.408h-51.274
			v-22.686h10.578v-58.752h-10.578V306.477z M750.278,363.803v23.148h8.393c3.299,0,6.036-1.041,8.217-3.113
			c2.199-2.066,3.273-4.908,3.273-8.531c0-3.223-1.107-5.912-3.356-8.172c-2.218-2.191-4.941-3.332-8.134-3.332H750.278z"/>
		<g>
			<g>
				<path fill="#58595B" d="M499.028,310.105v-12.288h12.957v12.288c0,3.48-0.956,6.199-2.773,8.26
					c-1.836,2.086-4.17,3.117-6.977,3.117h-3.207v-5.51h1.679c0.954,0,1.729-0.313,2.342-0.93c0.621-0.584,0.931-1.529,0.931-2.834
					v-2.104H499.028z"/>
			</g>
		</g>
	</g>
</g>
</svg>
