<?xml version="1.0" encoding="utf-8"?>
<!-- Generator: Adobe Illustrator 16.0.0, SVG Export Plug-In . SVG Version: 6.00 Build 0)  -->
<!DOCTYPE svg PUBLIC "-//W3C//DTD SVG 1.1//EN" "http://www.w3.org/Graphics/SVG/1.1/DTD/svg11.dtd">
<svg version="1.1" id="Layer_2" xmlns="http://www.w3.org/2000/svg" xmlns:xlink="http://www.w3.org/1999/xlink" x="0px" y="0px"
	 width="841.89px" height="595.28px" viewBox="0 0 841.89 595.28" enable-background="new 0 0 841.89 595.28" xml:space="preserve">
<g>
	<g>
		<path fill="#58595B" d="M168.397,485.499c-0.389-9.104-0.59-18.335-0.59-27.646l0,0c0.094-94.348,15.187-189.615,66.199-270.883
			l0,0c6.055-9.613,18.763-12.497,28.376-6.448l0,0c9.613,6.066,12.514,18.76,6.444,28.387l0,0
			c-45.305,71.671-59.968,160.479-59.875,248.944l0,0c0,8.722,0.201,17.357,0.57,25.871l0,0v0.014
			c0.481,11.348-8.327,20.947-19.675,21.443l0,0c-0.295,0.013-0.589,0.02-0.884,0.02l0,0
			C177.997,505.2,168.866,496.559,168.397,485.499L168.397,485.499z"/>
	</g>
	<path fill="#58595B" d="M214.097,137.719c-9.773-5.798-22.401-2.573-28.188,7.201c-42.364,71.424-68.624,153.834-76.997,244.054
		c-7.242-36.683-11.073-75.041-11.053-113.178c-0.013-67.233,11.736-133.686,35.926-188.865c4.555-10.41-0.182-22.548-10.591-27.1
		c-10.423-4.556-22.548,0.184-27.104,10.607c-27.003,61.757-39.363,133.388-39.396,205.357
		c0.061,88.533,18.73,177.663,54.221,249.896c0.007,0.014,0.02,0.027,0.02,0.04c0.121,0.228,0.268,0.436,0.389,0.663
		c0.442,0.804,0.911,1.581,1.44,2.304c0.214,0.295,0.441,0.563,0.669,0.838c0.53,0.649,1.079,1.26,1.668,1.829
		c0.241,0.228,0.476,0.462,0.724,0.683c0.737,0.645,1.507,1.233,2.318,1.756c0.147,0.094,0.268,0.207,0.415,0.294
		c0.938,0.584,1.929,1.065,2.941,1.487c0.348,0.147,0.703,0.255,1.065,0.375c0.723,0.263,1.473,0.477,2.224,0.65
		c0.389,0.094,0.777,0.181,1.173,0.248c1.065,0.181,2.15,0.295,3.235,0.308c0.054,0,0.094,0.014,0.147,0.014
		c0.007,0,0.014,0,0.027,0s0.013,0,0.027,0c0.007,0,0.02-0.007,0.026-0.007c0.576,0,1.152-0.02,1.729-0.073
		c0.536-0.047,1.032-0.208,1.554-0.295c0.616-0.101,1.233-0.188,1.849-0.348c0.992-0.262,1.929-0.624,2.854-1.02
		c0.348-0.141,0.703-0.2,1.045-0.368c0.094-0.047,0.167-0.113,0.254-0.16c0.697-0.355,1.313-0.791,1.956-1.22
		c0.497-0.328,1.032-0.623,1.501-0.991c0.509-0.402,0.938-0.878,1.407-1.326c0.495-0.482,1.025-0.925,1.466-1.447
		c0.422-0.488,0.744-1.052,1.119-1.581c0.375-0.542,0.804-1.058,1.125-1.628c0.388-0.683,0.657-1.42,0.964-2.137
		c0.201-0.488,0.462-0.951,0.63-1.447c0.241-0.709,0.361-1.453,0.522-2.19c0.121-0.568,0.295-1.132,0.375-1.715
		c0.074-0.603,0.047-1.226,0.067-1.842c0.033-0.757,0.094-1.508,0.04-2.264c-0.014-0.101,0.014-0.194,0-0.296l-0.014-0.014
		c-1.822-20.994-2.733-41.612-2.719-61.83c0.013-108.864,26.032-205.897,74.143-287.071
		C227.093,156.121,223.871,143.507,214.097,137.719z"/>
	<g>
		<path fill="#58595B" d="M755.795,248.519v-23.486h10.396c2.084,0,3.686,0.211,4.756,0.633c1.094,0.429,1.957,1.166,2.607,2.234
			c0.648,1.075,0.977,2.248,0.977,3.537c0,1.668-0.541,3.078-1.613,4.217c-1.072,1.142-2.732,1.865-4.984,2.177
			c0.824,0.398,1.453,0.781,1.875,1.162c0.912,0.841,1.756,1.875,2.566,3.128l4.053,6.397h-3.871l-3.109-4.887
			c-0.891-1.414-1.648-2.485-2.23-3.235s-1.105-1.273-1.58-1.581c-0.455-0.301-0.932-0.512-1.4-0.633
			c-0.361-0.074-0.924-0.114-1.729-0.114h-3.598v10.45H755.795z M758.91,235.386h6.666c1.414,0,2.518-0.145,3.309-0.439
			c0.797-0.285,1.406-0.757,1.822-1.41c0.402-0.643,0.615-1.346,0.615-2.1c0-1.109-0.408-2.02-1.205-2.736
			c-0.797-0.72-2.07-1.079-3.791-1.079h-7.416V235.386z"/>
		<g>
			<path fill="#58595B" d="M744.488,236.829c0-11.244,9.109-20.351,20.352-20.351l0,0c11.24,0,20.357,9.107,20.357,20.351l0,0
				c0,11.241-9.117,20.348-20.357,20.348l0,0C753.598,257.177,744.488,248.07,744.488,236.829L744.488,236.829z M747.764,236.829
				c0.014,9.436,7.65,17.055,17.076,17.072l0,0c9.432-0.017,17.068-7.646,17.074-17.072l0,0
				c-0.006-9.436-7.643-17.069-17.074-17.076l0,0C755.406,219.76,747.777,227.394,747.764,236.829L747.764,236.829z"/>
		</g>
	</g>
	<path fill="#58595B" d="M286.404,461.369c36.107-0.188,77.862-10.303,80.581-59.245l0,0c-0.054-29.461-17.678-43.696-35.993-53.329
		l0,0c-18.114-9.955-37.112-12.755-38.225-24.519l0,0c0-0.268,0.014-0.495,0.027-0.475l0,0c0.563-8.688,10.557-10.082,21.034-10.163
		l0,0c14.858,0.014,33.622,3.698,40.354,5.132l0,0v-49.475c-5.145-1.038-21.932-4.133-41.319-4.133l0,0
		c-32.229,0.08-70.057,8.367-75.115,46.909l0,0c-0.489,3.912-0.723,7.569-0.723,11.026l0,0
		c0.066,30.105,17.215,44.133,35.028,53.511l0,0c17.604,9.646,36.228,12.246,37.272,24.271l0,0v0.167
		c-0.884,9.238-12.788,10.136-25.603,10.391l0,0c-16.788,0-37.219-3.195-44.186-4.375l0,0v49.049
		C245.045,457.351,264.338,461.369,286.404,461.369L286.404,461.369z"/>
	<path fill="#58595B" d="M433.766,264.844c-37.644,0.039-60.958,13.874-75.415,31.696v27.449l-2.552-0.597
		c-0.021,0-4.803-1.103-11.654-2.328c-3.663,9.107-5.903,18.161-7.27,26.155c17.472,9.895,34.334,25.709,34.291,55.019
		c-0.714,12.864-4.011,23.238-9.114,31.569c14.789,16.098,37.068,29.022,70.824,29.049c84.172,0.067,98.508-70.298,99.064-86.361
		c0.02-1.367,0.059-3.31,0.059-5.741C531.799,344.722,526.492,264.844,433.766,264.844z M432.441,410.559
		c-21.78-0.147-42.184-22.213-42.285-46.303c0.013-23.929,18.349-46.478,42.718-46.544c21.738,0.04,43.992,15.983,44.047,46.812
		C476.867,395.46,453.648,410.512,432.441,410.559z"/>
	<path fill="#58595B" d="M572.648,321.235h49.746l-13.084-52.633h-89.906v34.628c15.041,24.873,16.729,53.968,16.781,67.523
		c0,2.498-0.053,4.488-0.086,5.835c-0.16,8.132-3.754,28.755-16.695,48.259v37.514l53.244-4.061v-63.163l33.561-0.021v-47.408
		h-33.561V321.235z"/>
	<polygon fill="#58595B" points="622.582,268.602 622.582,304.675 626.553,320.633 649.98,320.633 649.98,461.269 705.869,456.936 
		705.869,320.633 739.436,320.633 739.436,268.602 	"/>
</g>
</svg>
