<?xml version="1.0" encoding="utf-8"?>
<!-- Generator: Adobe Illustrator 18.0.0, SVG Export Plug-In . SVG Version: 6.00 Build 0)  -->
<!DOCTYPE svg PUBLIC "-//W3C//DTD SVG 1.1//EN" "http://www.w3.org/Graphics/SVG/1.1/DTD/svg11.dtd">
<svg version="1.1" id="Layer_1" xmlns="http://www.w3.org/2000/svg" xmlns:xlink="http://www.w3.org/1999/xlink" x="0px" y="0px"
	 viewBox="0 0 383 170" enable-background="new 0 0 383 170" xml:space="preserve">
<g>
	<g>
		<g>
			<g>
				<path fill="#FFFFFF" d="M121.8,127l1.7-21.5c2.3-2.2,4.5-4.4,6.8-6.6c-2.6-5.6-3.7-11.5-4.3-17.5c-0.1-0.8-0.1-1.5-0.2-2.3
					c-0.1-1.1-0.2-2.2-0.2-3.3c-0.1,0-0.2-0.1-0.3-0.1c-0.3,0.7-0.6,1.3-0.9,2c-0.2,0.5-0.4,1-0.7,1.5c-0.7,1.4-1.3,2.8-1.9,4.2h0
					c0,0,0,0,0,0c0,0.1-0.1,0.1-0.2,0.1c0,0-0.1-0.1-0.1-0.1h0c-0.1-1.5-0.3-3-0.4-4.5c0-0.8,0-1.6-0.1-2.3c0-0.8,0-1.5-0.1-2.3
					c0-1.4,0-2.8-0.1-4.2c-0.1-3.4-0.2-6.8-0.2-10.3c0-1.1-0.3-1.4-1.4-1.4c-4.8-0.1-9.6-0.2-14.4-0.3c-1,0-2-0.1-3.1-0.1
					c-1.3,0-2.6-0.1-3.8-0.1c-0.7,0-1.5-0.2-2.2-0.2c0,0-0.1,0-0.1-0.1c-0.1-0.1-0.1-0.2,0-0.2c0,0,0,0,0,0l0,0c0,0,0,0,0,0
					c0,0,0,0,0,0c1.2-0.5,2.4-1.1,3.7-1.6c0.7-0.3,1.4-0.6,2.1-1c0.6-0.3,1.2-0.5,1.7-0.8c0-0.1,0-0.1-0.1-0.2c0-0.1,0-0.1,0-0.2
					c-1-0.1-2-0.2-3-0.2c-1.3-0.1-2.5-0.2-3.7-0.4c-5.5-0.6-10.8-1.7-15.9-4c-2.2,2.3-4.5,4.6-6.7,6.9l-21.5,1.7
					c-4.4,0.4-10.6,3.2-13.8,6.4L15,87.4c-3.1,3.1-2.1,5.8,2.4,5.8l31.7,0.3c0.5,0,1.1,0,1.7-0.1c2.2,6.9,7,14.5,13.8,21.4
					c6.7,6.7,14.1,11.4,20.9,13.6c0.1,0,0.2,0,0.3-0.1c1.1-0.3,2.2-0.5,3.3-0.9c1.1-0.3,2.1-0.7,3.1-1.1c1-0.4,2-0.8,2.9-1.2
					c1.9-0.8,3.7-1.8,5.3-2.6c1.6-0.9,3.1-1.8,4.4-2.6c1.3-0.8,2.4-1.5,3.3-2.1c0.9-0.6,1.7-1.1,2.1-1.4c0.5-0.3,0.8-0.5,0.8-0.5
					s-0.2,0.2-0.6,0.7c-0.4,0.4-0.9,1.1-1.7,1.9c-0.7,0.8-1.7,1.8-2.8,2.9c-1.1,1.1-2.4,2.2-4,3.4c-0.7,0.6-1.6,1.2-2.4,1.8
					c-0.9,0.6-1.8,1.2-2.7,1.8c-0.9,0.6-2,1.1-3,1.7c-1.1,0.5-2.2,1-3.3,1.5c-1.5,0.6-3,1.1-4.6,1.5l0.3,28.9
					c0.1,4.5,2.7,5.5,5.8,2.4l23.5-23.5C118.6,137.7,121.5,131.5,121.8,127z"/>
			</g>
			<g>
				<path fill="#FFFFFF" d="M64.3,123.3c-1.4-1.2-3-2.4-4.4-3.9c-0.5-0.5-1-1.1-1.5-1.6c-2-2.2-3.6-4.5-5.4-5.9
					c-3.3-2.5-7.4-2.2-15.6,6c-10.4,10.4-12.6,26.1-13,33.3c-0.1,2.4-0.1,3.8-0.1,3.8s23.2,0.8,37.1-13.1
					C72.2,131.1,69.3,127.5,64.3,123.3z"/>
			</g>
			<path fill="#FFFFFF" d="M175.1,4.2c-0.3-0.3-0.8-0.7-1.6-0.7C158.7,4,143.6,4,130.2,10.1c-18.5,8.3-33.7,22.7-48.4,37.6
				c1.1,0.2,2.1,0.5,3.2,0.5c2.9,0.2,5.7,0.3,8.6,0.4c1.3,0.1,2.7,0.1,4,0.1c1.1,0,2.2,0.1,3.3,0.1c3.4,0.1,6.8-0.1,10.1,0
				c1.5,0,1.6,0.3,1.3,1.8c-0.3,1.5-0.3,1.6,1.3,1.4c4.3-0.4,8.6-0.8,12.8-1.2c1.5-0.1,1.9,0.3,1.8,1.8c-0.4,4.4-0.8,8.9-1.2,13.3
				c0,0.2,0,0.5-0.1,1c0.6-0.1,1.1-0.2,1.5-0.2c1.4-0.2,1.7,0,1.9,1.4c0.1,1.1,0.1,2.2,0.1,3.2c0,0.9,0,1.8,0,2.7
				c-0.1,2.6-0.1,5.1-0.2,7.7c0,0.6,0,1.3,0,1.9c0,1,0,2.1,0.1,3.1c0.1,3.6,0.8,7.2,1.3,10.9c14.9-14.7,29.3-29.9,37.6-48.4
				c6-13.4,6.1-28.5,6.6-43.3C175.8,5.1,175.4,4.5,175.1,4.2z M150.3,42.5c-0.9,0.9-1.9,1.6-3,2c-3.5,1.4-7.6,0.8-10.4-2
				c-3.7-3.7-3.7-9.7,0-13.4c3.7-3.7,9.7-3.7,13.4,0c0.2,0.2,0.4,0.4,0.6,0.7C154,33.5,153.8,39,150.3,42.5z"/>
			<g>
				<path fill="#FFFFFF" d="M81.8,28.7c-2.5,2.5-6.5,2.5-8.9,0c-2.5-2.5-2.5-6.5,0-8.9c2.5-2.5,6.5-2.5,8.9,0
					C84.3,22.3,84.3,26.3,81.8,28.7z"/>
			</g>
			<g>
				<path fill="#FFFFFF" d="M12,112.4c-1.8,1.8-4.8,1.8-6.7,0c-1.8-1.8-1.8-4.8,0-6.7c1.8-1.8,4.8-1.9,6.7,0
					C13.9,107.6,13.9,110.6,12,112.4z"/>
			</g>
			<g>
				<path fill="#FFFFFF" d="M151.9,156.9c-4.6,4.6-12.1,4.6-16.7,0c-4.6-4.6-4.6-12.1,0-16.7c4.6-4.6,12.1-4.6,16.7,0
					C156.6,144.8,156.6,152.3,151.9,156.9z"/>
			</g>
		</g>
	</g>
	<g>
		<g>
			<g>
				<g>
					<path fill="#FFFFFF" d="M221.7,115h8.6v7.7h-8.6v29.7h-9v-29.7h-6.4V115h6.4c0.1-12.4,6.8-15.5,14-15.5c1.3,0,2.5,0.1,3.7,0.4
						v7.1c-0.7-0.1-1.3-0.2-2-0.2C223.9,106.8,221.7,108.2,221.7,115z"/>
					<path fill="#FFFFFF" d="M269.9,133.8c0,12.5-6.3,19.3-17.7,19.3c-11.4,0-17.7-6.8-17.7-19.3c0-12.5,6.3-19.3,17.7-19.3
						C263.6,114.5,269.9,121.3,269.9,133.8z M260.9,133.8c0-9.9-3.4-11.9-8.7-11.9c-5.3,0-8.7,2-8.7,11.9c0,9.9,3.4,11.9,8.7,11.9
						C257.5,145.6,260.9,143.7,260.9,133.8z"/>
					<path fill="#FFFFFF" d="M297.4,114.4v7.8c-5,0.1-8.4,0.9-9.7,1.3v29h-9v-34.1C278.7,118.4,286.7,114.6,297.4,114.4z"/>
					<path fill="#FFFFFF" d="M323.3,145.3c3.5,0,6.5-0.8,9.3-1.9v7.5c-3.2,1.3-6.8,2.1-10.8,2.1c-11.4,0-17.7-6.8-17.7-19.3
						c0-12.5,6.3-19.4,17.7-19.4c4,0,7.6,0.8,10.8,2.1v7.5c-2.8-1.1-5.9-1.8-9.3-1.8c-6.3,0-10.2,1.9-10.2,11.6
						C313.1,143.4,317,145.3,323.3,145.3z"/>
					<path fill="#FFFFFF" d="M370.8,142.4v7.3c-3.4,1.9-8.1,3.4-14.1,3.4c-7.4,0-17.4-3-17.4-18.9c0-11.2,4.5-19.8,16.7-19.8
						c11.7,0,16.7,8.8,16.7,18.1c0,1.7,0,3.1-0.1,4.7h-24.1c0.5,7.2,5.2,8.2,9.5,8.2C363.4,145.3,367.7,143.9,370.8,142.4z
						 M348.6,130.9h15.1c-0.5-4.7-2.8-9.2-7.6-9.2C351.6,121.7,349.1,124.2,348.6,130.9z"/>
				</g>
			</g>
		</g>
	</g>
	<g>
		<g>
			<polygon fill="#FFFFFF" points="203.5,23.5 206.5,35.1 218.1,28.8 218.1,88.4 231.5,88.4 231.5,14.3 220.8,14.3 			"/>
			<path fill="#FFFFFF" d="M273.8,13.1c-16.2,0-26.2,14.6-26.2,38.1c0.2,23.2,9.8,37.7,25,37.7c16.7,0,26.2-14.1,26.2-38.7
				C298.8,27,289.5,13.1,273.8,13.1z M273.2,77.3c-7.3,0-11.9-10-11.9-26c0-16.2,4.7-26.7,12-26.7c10.3,0,11.9,16.3,11.9,26
				C285.1,60.6,283.6,77.3,273.2,77.3z"/>
			<path fill="#FFFFFF" d="M375.6,68.9c0-14.8-10.6-22.3-26.8-22.3h-0.9l0,11.7h0.8c7,0,13.3,1.5,13.6,10.3v7.3
				c-1.6,0.5-4.7,1.2-10.1,1.2c-15.8,0-25.2-9.9-25.2-26.5c0-16.3,10.1-26.4,26.4-26.4c7.4,0,11.8,1.5,14.8,2.9l2.2,1l3.4-11.6
				l-1.6-0.8c-3.5-1.7-10.2-3.5-18.6-3.5c-24.2,0-40.5,15.6-40.6,38.8c0,11.3,3.8,21.5,10.6,28c7,6.7,16.2,10,28,10
				c9.4,0,17.4-2.2,22.5-4l1.4-0.5L375.6,68.9L375.6,68.9z"/>
		</g>
	</g>
</g>
</svg>
