
<?xml version="1.0" encoding="utf-8"?>
<!-- Generator: Adobe Illustrator 18.0.0, SVG Export Plug-In . SVG Version: 6.00 Build 0)  -->
<!DOCTYPE svg PUBLIC "-//W3C//DTD SVG 1.1//EN" "http://www.w3.org/Graphics/SVG/1.1/DTD/svg11.dtd">
<svg version="1.1" id="Layer_1" xmlns="http://www.w3.org/2000/svg" xmlns:xlink="http://www.w3.org/1999/xlink" x="0px" y="0px"
  width="46" height="25" viewBox="0 0 93 40" enable-background="new 0 0 93 40" xml:space="preserve">
<g>
  <g>
    <path fill="#A43122" d="M88,16.3c0-3.4-2.4-5.1-6.1-5.1h-0.2l0,2.6h0.2c1.6,0,3,0.3,3.1,2.3v1.7c-0.4,0.1-1.1,0.3-2.3,0.3
      c-3.6,0-5.7-2.2-5.7-6c0-3.7,2.3-6,6-6c1.7,0,2.7,0.3,3.4,0.7L86.9,7l0.8-2.6l-0.4-0.2C86.5,3.8,85,3.4,83,3.4
      c-5.5,0-9.2,3.5-9.2,8.8c0,2.6,0.9,4.9,2.4,6.4c1.6,1.5,3.7,2.3,6.4,2.3c2.1,0,4-0.5,5.1-0.9l0.3-0.1L88,16.3L88,16.3z"/>
    <g>
      <path fill="#0D5173" d="M53.3,28.6h2v1.8h-2v6.7h-2v-6.7h-1.4v-1.8h1.4c0-2.8,1.5-3.5,3.2-3.5c0.3,0,0.6,0,0.8,0.1v1.6
        c-0.2,0-0.3,0-0.5,0C53.8,26.7,53.3,27,53.3,28.6z"/>
      <path fill="#0D5173" d="M64.2,32.8c0,2.8-1.4,4.4-4,4.4c-2.6,0-4-1.5-4-4.4c0-2.8,1.4-4.4,4-4.4C62.8,28.4,64.2,30,64.2,32.8z
         M62.2,32.8c0-2.2-0.8-2.7-2-2.7c-1.2,0-2,0.4-2,2.7c0,2.2,0.8,2.7,2,2.7C61.4,35.5,62.2,35.1,62.2,32.8z"/>
      <path fill="#0D5173" d="M70.5,28.4v1.8c-1.1,0-1.9,0.2-2.2,0.3v6.6h-2v-7.7C66.2,29.3,68,28.5,70.5,28.4z"/>
      <path fill="#0D5173" d="M76.3,35.5c0.8,0,1.5-0.2,2.1-0.4v1.7c-0.7,0.3-1.5,0.5-2.5,0.5c-2.6,0-4-1.5-4-4.4c0-2.8,1.4-4.4,4-4.4
        c0.9,0,1.7,0.2,2.5,0.5v1.7c-0.6-0.3-1.3-0.4-2.1-0.4c-1.4,0-2.3,0.4-2.3,2.6C74,35,74.9,35.5,76.3,35.5z"/>
      <path fill="#0D5173" d="M87.1,34.8v1.7c-0.8,0.4-1.8,0.8-3.2,0.8c-1.7,0-4-0.7-4-4.3c0-2.5,1-4.5,3.8-4.5c2.7,0,3.8,2,3.8,4.1
        c0,0.4,0,0.7,0,1.1h-5.5c0.1,1.6,1.2,1.9,2.2,1.9C85.4,35.5,86.4,35.1,87.1,34.8z M82.1,32.2h3.4c-0.1-1.1-0.6-2.1-1.7-2.1
        C82.8,30.1,82.2,30.7,82.1,32.2z"/>
    </g>
    <g>
      <g>
        <path fill="#59C8E6" d="M53.1,28.3h2v1.8h-2v6.7h-2v-6.7h-1.4v-1.8H51c0-2.8,1.5-3.5,3.2-3.5c0.3,0,0.6,0,0.8,0.1v1.6
          c-0.2,0-0.3,0-0.5,0C53.6,26.5,53.1,26.8,53.1,28.3z"/>
        <path fill="#59C8E6" d="M64,32.6c0,2.8-1.4,4.4-4,4.4c-2.6,0-4-1.5-4-4.4c0-2.8,1.4-4.4,4-4.4C62.6,28.2,64,29.8,64,32.6z
           M62,32.6c0-2.2-0.8-2.7-2-2.7c-1.2,0-2,0.4-2,2.7c0,2.2,0.8,2.7,2,2.7C61.2,35.3,62,34.9,62,32.6z"/>
        <path fill="#59C8E6" d="M70.2,28.2V30c-1.1,0-1.9,0.2-2.2,0.3v6.6h-2v-7.7C66,29.1,67.8,28.3,70.2,28.2z"/>
        <path fill="#59C8E6" d="M76.1,35.2c0.8,0,1.5-0.2,2.1-0.4v1.7c-0.7,0.3-1.5,0.5-2.5,0.5c-2.6,0-4-1.5-4-4.4c0-2.8,1.4-4.4,4-4.4
          c0.9,0,1.7,0.2,2.5,0.5v1.7c-0.6-0.3-1.3-0.4-2.1-0.4c-1.4,0-2.3,0.4-2.3,2.6C73.8,34.8,74.7,35.2,76.1,35.2z"/>
        <path fill="#59C8E6" d="M86.9,34.6v1.7c-0.8,0.4-1.8,0.8-3.2,0.8c-1.7,0-4-0.7-4-4.3c0-2.5,1-4.5,3.8-4.5c2.7,0,3.8,2,3.8,4.1
          c0,0.4,0,0.7,0,1.1h-5.5C82,35,83,35.2,84,35.2C85.2,35.2,86.2,34.9,86.9,34.6z M81.9,32h3.4c-0.1-1.1-0.6-2.1-1.7-2.1
          C82.6,29.9,82,30.4,81.9,32z"/>
      </g>
    </g>
    <polygon fill="#A43122" points="49,6 49.6,8.7 52.3,7.3 52.3,20.8 55.3,20.8 55.3,4 52.9,4     "/>
    <path fill="#A43122" d="M64.9,3.7c-3.7,0-6,3.3-6,8.7c0,5.3,2.2,8.6,5.7,8.6c3.8,0,6-3.2,6-8.8C70.6,6.8,68.5,3.7,64.9,3.7z
       M64.8,18.3c-1.7,0-2.7-2.3-2.7-5.9c0-3.7,1.1-6.1,2.7-6.1c2.3,0,2.7,3.7,2.7,5.9C67.5,14.5,67.1,18.3,64.8,18.3z"/>
    <polygon fill="#EF5023" points="48.8,5.8 49.5,8.4 52.1,7 52.1,20.6 55.2,20.6 55.2,3.7 52.7,3.7     "/>
    <path fill="#EF5023" d="M64.8,3.5c-3.7,0-6,3.3-6,8.7c0,5.3,2.2,8.6,5.7,8.6c3.8,0,6-3.2,6-8.8C70.5,6.6,68.3,3.5,64.8,3.5z
       M64.6,18c-1.7,0-2.7-2.3-2.7-5.9c0-3.7,1.1-6.1,2.7-6.1c2.3,0,2.7,3.7,2.7,5.9C67.3,14.3,67,18,64.6,18z"/>
    <path fill="#EF5023" d="M87.9,16.1c0-3.4-2.4-5.1-6.1-5.1h-0.2l0,2.6h0.2c1.6,0,3,0.3,3.1,2.3v1.7c-0.4,0.1-1.1,0.3-2.3,0.3
      c-3.6,0-5.7-2.2-5.7-6c0-3.7,2.3-6,6-6c1.7,0,2.7,0.3,3.4,0.7l0.5,0.2l0.8-2.6L87.1,4c-0.8-0.4-2.3-0.8-4.2-0.8
      c-5.5,0-9.2,3.5-9.2,8.8c0,2.6,0.9,4.9,2.4,6.4c1.6,1.5,3.7,2.3,6.4,2.3c2.1,0,4-0.5,5.1-0.9l0.3-0.1L87.9,16.1L87.9,16.1z"/>
  </g>
  <g>
    <path fill="#EF5023" d="M32.6,30.2l0.4-5.1c0.5-0.5,1.1-1.1,1.6-1.6c-0.6-1.3-0.9-2.7-1-4.2c0-0.2,0-0.4-0.1-0.5
      c0-0.3,0-0.5-0.1-0.8c0,0-0.1,0-0.1,0c-0.1,0.2-0.1,0.3-0.2,0.5c-0.1,0.1-0.1,0.2-0.2,0.3c-0.2,0.3-0.3,0.7-0.5,1l0,0c0,0,0,0,0,0
      c0,0,0,0,0,0c0,0,0,0,0,0c0,0,0,0,0,0c0-0.4-0.1-0.7-0.1-1.1c0-0.2,0-0.4,0-0.6c0-0.2,0-0.4,0-0.5c0-0.3,0-0.7,0-1
      c0-0.8,0-1.6,0-2.4c0-0.3-0.1-0.3-0.3-0.3c-1.1,0-2.3,0-3.4-0.1c-0.2,0-0.5,0-0.7,0c-0.3,0-0.6,0-0.9,0c-0.2,0-0.3,0-0.5-0.1
      c0,0,0,0,0,0c0,0,0,0,0-0.1c0,0,0,0,0,0c0,0,0,0,0,0c0,0,0,0,0,0c0,0,0,0,0,0c0.3-0.1,0.6-0.3,0.9-0.4c0.2-0.1,0.3-0.2,0.5-0.2
      c0.1-0.1,0.3-0.1,0.4-0.2c0,0,0,0,0,0c0,0,0,0,0,0c-0.2,0-0.5,0-0.7-0.1c-0.3,0-0.6-0.1-0.9-0.1c-1.3-0.2-2.6-0.4-3.8-1
      c-0.5,0.5-1.1,1.1-1.6,1.6L16,13.6c-1.1,0.1-2.5,0.8-3.3,1.5l-5.6,5.6c-0.7,0.7-0.5,1.4,0.6,1.4l7.5,0.1c0.1,0,0.3,0,0.4,0
      c0.5,1.6,1.7,3.5,3.3,5.1c1.6,1.6,3.4,2.7,5,3.2c0,0,0,0,0.1,0c0.3-0.1,0.5-0.1,0.8-0.2c0.3-0.1,0.5-0.2,0.7-0.3
      c0.2-0.1,0.5-0.2,0.7-0.3c0.5-0.2,0.9-0.4,1.3-0.6c0.4-0.2,0.7-0.4,1-0.6c0.3-0.2,0.6-0.4,0.8-0.5c0.2-0.1,0.4-0.3,0.5-0.3
      c0.1-0.1,0.2-0.1,0.2-0.1s0,0.1-0.1,0.2c-0.1,0.1-0.2,0.3-0.4,0.5c-0.2,0.2-0.4,0.4-0.7,0.7c-0.3,0.3-0.6,0.5-0.9,0.8
      c-0.2,0.1-0.4,0.3-0.6,0.4c-0.2,0.1-0.4,0.3-0.6,0.4c-0.2,0.1-0.5,0.3-0.7,0.4c-0.3,0.1-0.5,0.2-0.8,0.3c-0.3,0.1-0.7,0.3-1.1,0.4
      l0.1,6.9c0,1.1,0.6,1.3,1.4,0.6l5.6-5.6C31.8,32.7,32.5,31.2,32.6,30.2z"/>
    <path fill="#FFFFFF" d="M27.4,12.6c0.2,0,0.5,0,0.7,0.1c0,0,0,0,0,0c0,0,0,0,0,0c-0.1,0.1-0.3,0.1-0.4,0.2
      c-0.2,0.1-0.3,0.2-0.5,0.2c-0.3,0.1-0.6,0.3-0.9,0.4c0,0,0,0,0,0c0,0,0,0,0,0c0,0,0,0,0,0c0,0,0,0,0,0c0,0,0,0,0,0.1c0,0,0,0,0,0
      c0.2,0,0.3,0.1,0.5,0.1c0.3,0,0.6,0,0.9,0c0.2,0,0.5,0,0.7,0c1.1,0,2.3,0.1,3.4,0.1c0.3,0,0.3,0.1,0.3,0.3c0,0.8,0,1.6,0,2.4
      c0,0.3,0,0.7,0,1c0,0.2,0,0.4,0,0.5c0,0.2,0,0.4,0,0.6c0,0.4,0.1,0.7,0.1,1.1c0,0,0,0,0,0c0,0,0,0,0,0c0,0,0,0,0,0c0,0,0,0,0,0
      c0,0,0,0,0,0c0.2-0.3,0.3-0.7,0.5-1c0.1-0.1,0.1-0.2,0.2-0.3c0.1-0.2,0.1-0.3,0.2-0.5c0,0,0.1,0,0.1,0c0,0.3,0,0.5,0.1,0.8
      c0,0.2,0,0.4,0.1,0.5c0.1,1.4,0.4,2.8,1,4.2c0,0,0.1-0.1,0.1-0.1c-0.1-0.9-0.3-1.7-0.3-2.6c0-0.2,0-0.5,0-0.7c0-0.2,0-0.3,0-0.5
      c0-0.8,0-1.6,0-2.5c0-0.3,0-0.5,0-0.8c0-0.3-0.1-0.4-0.4-0.3c-0.1,0-0.2,0-0.4,0.1c0-0.1,0-0.2,0-0.2c0.1-1.1,0.2-2.1,0.3-3.2
      c0-0.4-0.1-0.5-0.4-0.4c-1,0.1-2,0.2-3.1,0.3c-0.4,0-0.4,0-0.3-0.3c0.1-0.3,0-0.4-0.3-0.4c-0.8,0-1.6,0-2.4,0c-0.3,0-0.5,0-0.8,0
      c-0.3,0-0.6,0-1,0c-0.7,0-1.4-0.1-2-0.1c-0.3,0-0.5-0.1-0.8-0.1c0,0,0,0-0.1,0.1c1.2,0.5,2.5,0.8,3.8,1
      C26.8,12.6,27.1,12.6,27.4,12.6z"/>
    <path fill="#F89F1B" d="M33.6,20c0,0,0-0.1,0-0.1c0-0.2,0-0.3-0.1-0.5c0-0.2,0-0.4-0.1-0.5c0-0.1,0-0.1,0-0.2c0-0.2,0-0.4,0-0.6
      c0,0-0.1,0-0.1,0c-0.1,0.1-0.1,0.3-0.2,0.4c0,0,0,0,0,0.1c-0.1,0.1-0.1,0.2-0.2,0.3c-0.2,0.3-0.3,0.7-0.5,1l0,0c0,0,0,0,0,0
      c0,0,0,0,0,0c0,0,0,0,0,0c0,0,0,0,0,0c0-0.4-0.1-0.7-0.1-1.1c0-0.2,0-0.4,0-0.6c0-0.2,0-0.4,0-0.5c0-0.3,0-0.7,0-1
      c0-0.8,0-1.6,0-2.4c0-0.3-0.1-0.3-0.3-0.3c-1.1,0-2.3,0-3.4-0.1c-0.2,0-0.5,0-0.7,0c-0.3,0-0.6,0-0.9,0c-0.2,0-0.3,0-0.5-0.1
      c0,0,0,0,0,0c0,0,0,0,0-0.1c0,0,0,0,0,0c0,0,0,0,0,0c0,0,0,0,0,0c0,0,0,0,0,0c0.3-0.1,0.6-0.3,0.9-0.4c0.2-0.1,0.3-0.2,0.5-0.2
      c0,0,0,0,0,0c0.1-0.1,0.2-0.1,0.4-0.2c0,0,0,0,0,0c0,0,0,0,0,0c-0.2,0-0.4,0-0.6-0.1c0,0-0.1,0-0.1,0c-0.3,0-0.6-0.1-0.9-0.1
      c-1.3-0.2-2.6-0.4-3.8-0.9c-0.3,0.3-0.6,0.6-0.8,0.8l0,0c-0.3,0.3-0.5,0.5-0.8,0.8L16,13.6c-1.1,0.1-2.5,0.8-3.3,1.5l-4.8,4.8
      c-0.7,0.7-0.5,1.4,0.6,1.4l7.5,0.1c0.1,0,0.3,0,0.4,0c0.5,1.6,1.7,3.5,3.3,5.2c0.7,0.7,1.3,1.2,2.1,1.7c3.6-1.3,7-3.4,9.9-6.2
      c0.1-0.1,0.3-0.3,0.4-0.4C32.6,21.1,33.1,20.5,33.6,20z"/>
    <g>
      <path fill="#EF5023" d="M18.9,29.3c0.6,0.8,0.5,1.7-1.4,3.6c-2.6,2.6-6.6,3-8.1,3c0,0.6,0,0.9,0,0.9s5.5,0.2,8.8-3.1
        C20.8,31.1,20.1,30.3,18.9,29.3z"/>
      <path fill="#F89F1B" d="M18.9,29.3c-0.3-0.3-0.7-0.6-1-0.9c-0.1-0.1-0.2-0.3-0.4-0.4c-0.5-0.5-0.9-1.1-1.3-1.4
        C15.4,26,14.4,26,12.5,28c-2.5,2.5-3,6.2-3.1,7.9c1.5-0.1,5.5-0.4,8.1-3C19.3,31,19.4,30,18.9,29.3z"/>
    </g>
    <g>
      <path fill="#2CABE1" d="M45,1.2C44.9,1.1,44.8,1,44.6,1c-3.5,0.1-7.1,0.1-10.3,1.6c-4.4,2-8,5.4-11.5,8.9
        c0.3,0.1,0.5,0.1,0.8,0.1c0.7,0,1.4,0.1,2,0.1c-0.4,0-0.9,0-1.3-0.1c3.3-3.3,6.7-6.4,10.8-8.3c1.4-0.6,3-1,4.5-1.2
        c0,1.7-0.2,3.4-0.5,5.1c0.7,0.9,0.7,2.2-0.1,3c-0.2,0.2-0.5,0.4-0.7,0.5c-0.9,2.8-2.2,5.6-4,8.1c0-0.3,0-0.7,0-1
        c0,0.6,0,1.2,0,1.8c0,0.2,0,0.3,0,0.5c0,0.2,0,0.5,0,0.7c0,0.9,0.2,1.7,0.3,2.6c3.5-3.5,7-7.1,9-11.5c1.4-3.2,1.4-6.8,1.6-10.3
        C45.2,1.4,45.1,1.2,45,1.2z"/>
      <path fill="#59C8E6" d="M34.4,17.8c0-0.2,0-0.4,0-0.6C34.4,17.4,34.4,17.6,34.4,17.8z"/>
      <path fill="#59C8E6" d="M38.4,10.8c-0.8,0.3-1.8,0.2-2.5-0.5C35,9.4,35,8,35.9,7.1c0.9-0.9,2.3-0.9,3.2,0
        c0.1,0.1,0.1,0.1,0.1,0.2c0.3-1.7,0.5-3.4,0.5-5.1c-1.6,0.2-3.1,0.6-4.5,1.2c-4.1,1.9-7.5,5-10.8,8.3c0.4,0,0.9,0,1.3,0.1
        c0.3,0,0.6,0,1,0c0.3,0,0.5,0,0.8,0c0.8,0,1.6,0,2.4,0c0.4,0,0.4,0.1,0.3,0.4c-0.1,0.4-0.1,0.4,0.3,0.3c1-0.1,2-0.2,3.1-0.3
        c0.4,0,0.5,0.1,0.4,0.4c-0.1,1.1-0.2,2.1-0.3,3.2c0,0.1,0,0.1,0,0.2c0.1,0,0.3,0,0.4-0.1c0.3-0.1,0.4,0,0.4,0.3
        c0,0.3,0,0.5,0,0.8c0,0.2,0,0.4,0,0.6c0,0.3,0,0.7,0,1C36.1,16.3,37.5,13.6,38.4,10.8z"/>
    </g>
    <circle fill="#EF5023" cx="22" cy="5.7" r="1.5"/>
    <circle fill="#EF5023" cx="5.6" cy="25.9" r="1.1"/>
    <circle fill="#EF5023" cx="37.7" cy="35.3" r="2.8"/>
  </g>
</g>
</svg>
