<?xml version="1.0" encoding="utf-8"?>
<!-- Generator: Adobe Illustrator 18.0.0, SVG Export Plug-In . SVG Version: 6.00 Build 0)  -->
<!DOCTYPE svg PUBLIC "-//W3C//DTD SVG 1.1//EN" "http://www.w3.org/Graphics/SVG/1.1/DTD/svg11.dtd">
<svg version="1.1" id="Layer_1" xmlns="http://www.w3.org/2000/svg" xmlns:xlink="http://www.w3.org/1999/xlink" x="0px" y="0px"
	 viewBox="0 0 197 348" enable-background="new 0 0 197 348" xml:space="preserve">
<g>
	<path fill="#59C8E6" d="M131,139.4l1.8-22.9c2.4-2.4,4.8-4.7,7.2-7.1c-2.7-6-3.9-12.2-4.6-18.6c-0.1-0.8-0.2-1.6-0.2-2.4
		c-0.1-1.2-0.2-2.4-0.3-3.6c-0.1,0-0.2-0.1-0.4-0.1c-0.3,0.7-0.6,1.4-1,2.1c-0.2,0.5-0.5,1-0.7,1.6c-0.7,1.5-1.4,3-2.1,4.5h0
		c0,0,0,0,0,0c0,0.1-0.1,0.1-0.2,0.1c0,0-0.1-0.1-0.1-0.1h0c-0.1-1.6-0.3-3.2-0.4-4.8c0-0.8,0-1.7-0.1-2.5c0-0.8,0-1.6-0.1-2.5
		c0-1.5-0.1-3-0.1-4.5c-0.1-3.6-0.2-7.3-0.2-10.9c0-1.2-0.3-1.5-1.5-1.5c-5.1-0.1-10.2-0.2-15.3-0.3c-1.1,0-2.2-0.1-3.3-0.1
		c-1.4,0-2.7-0.1-4.1-0.1c-0.8,0-1.6-0.2-2.3-0.2c0,0-0.1,0-0.1-0.1c-0.1-0.1-0.1-0.2,0-0.3c0,0,0,0,0,0c0,0,0,0,0,0c0,0,0,0,0,0
		c0,0,0,0,0,0c1.3-0.6,2.6-1.2,3.9-1.8c0.8-0.3,1.5-0.7,2.3-1c0.6-0.3,1.2-0.6,1.8-0.8c0-0.1,0-0.1-0.1-0.2c0-0.1,0-0.1,0-0.2
		c-1.1-0.1-2.1-0.2-3.2-0.3c-1.3-0.1-2.7-0.3-4-0.4c-5.8-0.7-11.5-1.8-17-4.3c-2.4,2.4-4.8,4.9-7.2,7.3l-22.9,1.8
		c-4.7,0.4-11.3,3.4-14.7,6.8l-25,25c-3.3,3.4-2.2,6.1,2.5,6.2l33.7,0.4c0.6,0,1.2,0,1.8-0.1c2.3,7.3,7.4,15.5,14.7,22.7
		c7.1,7.1,15.1,12.1,22.3,14.5c0.1,0,0.2,0,0.3-0.1c1.2-0.3,2.3-0.6,3.5-0.9c1.1-0.3,2.2-0.8,3.3-1.1c1.1-0.4,2.1-0.8,3.1-1.3
		c2-0.9,3.9-1.9,5.6-2.8c1.7-0.9,3.3-1.9,4.6-2.7c1.4-0.9,2.6-1.6,3.5-2.3c1-0.6,1.8-1.1,2.3-1.5c0.5-0.3,0.8-0.5,0.8-0.5
		s-0.2,0.3-0.6,0.7c-0.4,0.5-1,1.2-1.8,2.1c-0.8,0.9-1.8,1.9-3,3.1c-1.2,1.1-2.6,2.4-4.2,3.7c-0.8,0.7-1.7,1.3-2.6,1.9
		c-0.9,0.6-1.9,1.3-2.9,1.9c-1,0.6-2.1,1.2-3.2,1.8c-1.1,0.5-2.3,1.1-3.5,1.6c-1.6,0.6-3.2,1.2-4.9,1.6l0.3,30.8
		c0.1,4.7,2.8,5.9,6.2,2.5l25-25C127.6,150.8,130.6,144.2,131,139.4z"/>
	<path fill="#59C8E6" d="M69.7,135.5c-1.5-1.3-3.1-2.6-4.7-4.1c-0.6-0.6-1.1-1.2-1.6-1.7c-2.1-2.4-3.8-4.8-5.8-6.2
		c-3.5-2.7-7.8-2.4-16.6,6.4c-11.1,11.1-13.4,27.8-13.8,35.4c-0.2,2.5-0.1,4.1-0.1,4.1s24.8,0.8,39.5-13.9
		C78.2,143.8,75,140,69.7,135.5z"/>
	<g>
		<path fill="#59C8E6" d="M187.7,8.6c-0.3-0.3-0.9-0.7-1.7-0.8c-15.7,0.5-31.8,0.6-46.1,7c-19.7,8.9-35.9,24.2-51.5,40
			c1.1,0.2,2.3,0.5,3.4,0.5c3,0.2,6.1,0.3,9.1,0.4c1.4,0.1,2.8,0.1,4.3,0.1c1.2,0,2.4,0.1,3.5,0.1c3.6,0.1,7.2-0.1,10.8,0
			c1.6,0,1.7,0.4,1.4,1.9c-0.3,1.6-0.3,1.7,1.4,1.5c4.6-0.4,9.1-0.9,13.7-1.3c1.6-0.1,2,0.3,1.9,1.9c-0.4,4.7-0.8,9.5-1.3,14.2
			c0,0.3,0,0.5-0.1,1c0.7-0.1,1.1-0.2,1.6-0.2c1.5-0.3,1.9,0,2,1.5c0.1,1.1,0.1,2.3,0.1,3.5c0,1,0,1.9-0.1,2.9
			c-0.1,2.7-0.1,5.4-0.2,8.2c0,0.7,0,1.4,0,2c0,1.1,0,2.2,0.1,3.3c0.2,3.9,0.9,7.7,1.4,11.6c15.9-15.7,31.2-31.8,40.1-51.5
			c6.4-14.3,6.4-30.4,7-46.1L187.7,8.6z M161.3,49.3c-1,1-2.1,1.7-3.2,2.2c-3.7,1.5-8.1,0.8-11.1-2.2c-3.9-3.9-3.9-10.3,0-14.3
			c3.9-4,10.3-4,14.3,0c0.2,0.2,0.4,0.5,0.7,0.7C165.3,39.7,165,45.6,161.3,49.3z"/>
	</g>
	<path fill="#59C8E6" d="M88.4,34.7c-2.6,2.6-6.9,2.6-9.5,0c-2.6-2.6-2.6-6.9,0-9.5c2.6-2.6,6.9-2.6,9.5,0
		C91,27.8,91,32.1,88.4,34.7z"/>
	<path fill="#59C8E6" d="M14,123.9c-2,2-5.2,2-7.1,0c-2-2-2-5.2,0-7.1c2-2,5.2-2,7.1,0C16,118.7,16,121.9,14,123.9z"/>
	<path fill="#59C8E6" d="M163.1,171.2c-4.9,4.9-12.9,4.9-17.8,0c-4.9-4.9-4.9-12.9,0-17.8c4.9-4.9,12.9-4.9,17.8,0
		C168,158.3,168,166.3,163.1,171.2z"/>
	<g>
		<g>
			<path fill="#59C8E6" d="M30.3,304h8.8v7.9h-8.8v30.3h-9.2v-30.3h-6.5V304h6.5c0.1-12.6,7-15.8,14.2-15.8c1.3,0,2.6,0.2,3.7,0.4
				v7.2c-0.7-0.1-1.4-0.2-2.1-0.2C32.5,295.6,30.3,297,30.3,304z"/>
			<path fill="#59C8E6" d="M79.4,323.1c0,12.7-6.4,19.7-18.1,19.7c-11.6,0-18.1-7-18.1-19.7c0-12.7,6.4-19.7,18.1-19.7
				C73,303.4,79.4,310.4,79.4,323.1z M70.3,323.1c0-10.1-3.4-12.1-8.9-12.1c-5.4,0-8.9,2-8.9,12.1c0,10.1,3.4,12.1,8.9,12.1
				C66.8,335.2,70.3,333.2,70.3,323.1z"/>
			<path fill="#59C8E6" d="M107.5,303.4v8c-5.1,0.1-8.6,0.9-9.9,1.3v29.5h-9.2v-34.8C88.5,307.4,96.6,303.6,107.5,303.4z"/>
			<path fill="#59C8E6" d="M134,334.9c3.5,0,6.7-0.8,9.5-1.9v7.7c-3.3,1.3-7,2.1-11,2.1c-11.6,0-18.1-7-18.1-19.7
				c0-12.7,6.4-19.7,18.1-19.7c4.1,0,7.7,0.8,11,2.1v7.7c-2.8-1.1-6-1.8-9.5-1.8c-6.4,0-10.4,1.9-10.4,11.8
				C123.6,332.9,127.6,334.9,134,334.9z"/>
			<path fill="#59C8E6" d="M182.5,331.9v7.4c-3.5,1.9-8.3,3.4-14.4,3.4c-7.6,0-17.8-3.1-17.8-19.3c0-11.4,4.6-20.2,17.1-20.2
				c11.9,0,17.1,9,17.1,18.5c0,1.7,0,3.2-0.2,4.7h-24.6c0.5,7.3,5.3,8.3,9.7,8.3C174.9,334.9,179.3,333.5,182.5,331.9z M159.8,320.2
				h15.4c-0.5-4.8-2.8-9.4-7.7-9.4C162.9,310.8,160.3,313.4,159.8,320.2z"/>
		</g>
	</g>
	<polygon fill="#59C8E6" points="10.3,210.4 13.3,222.2 25.1,215.8 25.1,276.5 38.8,276.5 38.8,201 27.8,201 	"/>
	<path fill="#59C8E6" d="M81.8,199.8c-16.4,0-26.7,14.9-26.7,38.8c0.2,23.6,10,38.3,25.5,38.3c16.9,0,26.7-14.3,26.7-39.3
		C107.3,214,97.8,199.8,81.8,199.8z M81.2,265.2c-7.5,0-12.1-10.1-12.1-26.5c0-16.5,4.8-27.1,12.2-27.1c10.5,0,12.1,16.6,12.1,26.5
		C93.3,248.2,91.8,265.2,81.2,265.2z"/>
	<path fill="#59C8E6" d="M185.4,256.6c0-15.1-10.8-22.7-27.3-22.7h-0.9v11.9h0.8c7.2,0,13.5,1.5,13.9,10.4v7.5
		c-1.6,0.5-4.8,1.2-10.2,1.2c-16.1,0-25.7-10.1-25.7-27c0-16.6,10.3-26.9,26.9-26.9c7.5,0,12,1.6,15.1,2.9l2.3,1l3.5-11.8l-1.7-0.8
		c-3.6-1.7-10.4-3.5-19-3.5c-24.6,0-41.2,15.9-41.3,39.5c0,11.5,3.9,21.9,10.8,28.5c7.1,6.8,16.5,10.1,28.5,10.1
		c9.5,0,17.7-2.2,22.9-4.1l1.4-0.5L185.4,256.6L185.4,256.6z"/>
</g>
</svg>
