<svg xmlns="http://www.w3.org/2000/svg" width="841.89" height="595.28" viewBox="0 0 841.89 595.28"><g fill="#58595B"><path d="M407.85 333.613c0 3.955-3.208 7.16-7.164 7.16h-102.56c-3.957 0-7.164-3.205-7.164-7.16v-40.11c0-3.955 3.207-7.162 7.163-7.162h102.56c3.957 0 7.164 3.208 7.164 7.163v40.11zM407.85 271.156c0 3.957-3.208 7.163-7.164 7.163h-102.56c-3.957 0-7.164-3.207-7.164-7.164V231.05c0-3.955 3.207-7.162 7.163-7.162h102.56c3.957 0 7.164 3.207 7.164 7.162v40.106z"/></g><g fill="#58595B"><path d="M298.125 215.865c-3.956 0-7.163-3.206-7.163-7.16V106.14c0-3.956 3.207-7.163 7.163-7.163h40.106c3.957 0 7.164 3.207 7.164 7.163v102.562c0 3.955-3.207 7.162-7.163 7.162l-40.105-.002zM360.58 215.866c-3.956 0-7.163-3.207-7.163-7.162v-102.56c0-3.957 3.207-7.164 7.163-7.164h40.106c3.956 0 7.163 3.207 7.163 7.163v102.562c0 3.955-3.208 7.162-7.164 7.162H360.58z"/></g><g fill="#58595B"><path d="M532.758 208.703c0 3.956-3.207 7.163-7.16 7.163H423.035c-3.956 0-7.163-3.207-7.163-7.163v-40.107c0-3.956 3.207-7.162 7.163-7.162h102.563c3.953 0 7.16 3.206 7.16 7.162v40.107zM532.758 146.25c0 3.955-3.207 7.16-7.16 7.16H423.035c-3.956 0-7.163-3.205-7.163-7.16V106.14c0-3.956 3.207-7.163 7.163-7.163h102.563c3.953 0 7.16 3.206 7.16 7.162v40.107z"/></g><path fill="#58595B" d="M423.033 226.888h40.11c2.293 0 4.16 1.868 4.16 4.162v102.563c0 2.294-1.867 4.16-4.16 4.16h-40.11c-2.294 0-4.16-1.866-4.16-4.16V231.05c0-2.295 1.866-4.162 4.16-4.162m0-3c-3.956 0-7.16 3.207-7.16 7.162v102.563c0 3.954 3.204 7.16 7.16 7.16h40.11c3.954 0 7.16-3.205 7.16-7.16V231.05c0-3.955-3.206-7.16-7.16-7.16l-40.11-.002zM525.596 226.89c2.295 0 4.162 1.866 4.162 4.16v102.563c0 2.294-1.867 4.16-4.162 4.16H485.49c-2.296 0-4.163-1.866-4.163-4.16V231.05c0-2.294 1.867-4.16 4.162-4.16h40.106m0-3H485.49c-3.956 0-7.163 3.205-7.163 7.16v102.563c0 3.955 3.207 7.16 7.162 7.16h40.106c3.955 0 7.162-3.205 7.162-7.16V231.05c0-3.955-3.207-7.16-7.162-7.16z"/><path fill-rule="evenodd" clip-rule="evenodd" fill="#58595B" d="M616.118 443.8h42.52v19.966h-42.52zM276.79 479.553v-68.289h-24.376v32.51H207.62v-32.51h-24.374v35.092c0 10.27 6.888 17.41 17.064 17.41h52.104v12.57h-69.168v19.938h75.876c10.492 0 17.667-6.223 17.667-16.72zM169.033 426.9c0-9.725-7.52-15.637-17.182-15.637H75.53V496.3h24.356v-32.535h52.365c8.52 0 16.782-6.686 16.782-16.468-.056-7.43.115-12.964 0-20.397zm-24.367 12.164v2.81c-.058 1.294-.6 1.837-1.572 1.894H99.887v-12.506h43.207c.943 0 1.544.688 1.572 1.578v6.224zM290.963 477.718c0 11.157 6.09 18.584 17.267 18.584l59.295-.027c9.663 0 16.98-6.34 16.98-16.032v-16.477H360.18v12.57h-44.84V431.23h44.84v12.568h24.328v-16.56c0-10.525-7.747-15.976-18.268-15.976H309.23c-11.835 0-18.268 6.684-18.268 18.5v47.956zM766.33 470.997V426.9l.03-.23c0-9.352-8.15-15.406-17.612-15.406H690.05c-10.32 0-17.238 6.686-17.238 16.986V479.002c0 10.5 6.775 17.3 17.268 17.3H748.466c9.66 0 17.895-5.91 17.895-15.437l-.028-.2v-9.668zm-24.346 5.338h-44.798V431.23h44.798v45.105zM508.397 496.274h24.375v-32.508h44.798v32.508h24.375v-85.01H577.57V443.8h-44.798v-32.536h-24.375M398.993 496.302h18.374l50.382-49.72v49.72h24.475v-85.038H473.38L423 460.67v-49.406h-24.32v85.038"/></svg>