<?xml version="1.0" encoding="utf-8"?>
<!-- Generator: Adobe Illustrator 16.0.0, SVG Export Plug-In . SVG Version: 6.00 Build 0)  -->
<!DOCTYPE svg PUBLIC "-//W3C//DTD SVG 1.1//EN" "http://www.w3.org/Graphics/SVG/1.1/DTD/svg11.dtd">
<svg version="1.1" id="Layer_1" xmlns="http://www.w3.org/2000/svg" xmlns:xlink="http://www.w3.org/1999/xlink" x="0px" y="0px"
	 width="841.89px" height="595.28px" viewBox="0 0 841.89 595.28" enable-background="new 0 0 841.89 595.28" xml:space="preserve">
<path fill-rule="evenodd" clip-rule="evenodd" fill="#58595B" d="M90.1,336.001c5.443,5.837,14.281,5.574,14.817,5.574
	c451.606-0.071,17.461-5.526,2.561-5.479c-9.684,0.048-12.102-0.644-17.378-10.089c-22.083-39.473-5.039-128.983,37.447-138.678
	c9.112-2.073,141.463-1.811,138.307-4.276c-1.811-1.417-142.488-7.205-147.514-4.739C75.914,199.062,61.455,289.655,90.1,336.001
	L90.1,336.001z M714.199,344.053c0.285,5.36-10.744,11.792-22.512,6.479c-8.504-3.835-18.271-6.646-28.824-3.239
	c-12.578,4.073-20.2,9.671-31.23,3.239c-21.415-12.53-47.833,1.93-44.117-0.786c30.396-22.226,46.595,2.239,73.014-6.885
	c8.956-3.097,20.105-4.883,28.037,0.096c11.387,7.146,21.631-0.715,21.32-9.695c-0.523-15.258-16.65-123.874-23.416-130.758
	c-9.172-9.314-75.348-18.354-84.186-6.837c-3.168,4.133-5.789,38.257,0.071,62.008c1.024,4.145,83.232,2.096,80.374,6.432
	c-2.668,4.038-81.637-1.941-82.732,4.919c-5.765,36.579,5.026,67.523-34.922,68.453c-330.654,7.741-50.979-4.765-24.513-7.778
	c16.175-1.846,41.568-87.402,2.645-127.518c-28.968-29.859-242.658-14.007-258.249-19.629c-4.455-1.607,223.207-7.586,256.033,4.085
	c34.398,12.232,35.542,107.423,18.295,134.891c-3.192,5.098,27.657,2.43,30.468,1.441c6.956-2.441,1.501-87.521,0.715-126.684
	c-0.238-11.458-27.371-21.701-25.656-21.724c36.59-0.441,115.416,7.991,128.827,24.178
	C703.122,210.174,712.293,309.773,714.199,344.053z"/>
<path fill-rule="evenodd" clip-rule="evenodd" fill="#58595B" d="M234.172,363.515c-15.842-13.792-38.733-25.155-58.374-6.241
	c-17.688,16.961-2.299-26.858,38.542-11.625C223.643,349.127,239.436,368.089,234.172,363.515z"/>
<path fill-rule="evenodd" clip-rule="evenodd" fill="#58595B" d="M421.646,360.871c15.877-12.936,38.805-23.584,58.482-5.646
	c17.699,16.103,2.311-25.335-38.614-11.125C432.188,347.34,416.371,365.183,421.646,360.871z"/>
<path fill-rule="evenodd" clip-rule="evenodd" fill="#58595B" d="M111.766,409.157v-81.315H93.554v-17.807h55.075v17.807h-18.521
	v81.315H111.766L111.766,409.157z M359.401,381.19h19.2c0.262,3.883,1.608,6.956,4.026,9.219c2.418,2.239,5.622,3.383,9.577,3.383
	c3.812,0,6.944-1.215,9.421-3.62c2.465-2.383,3.692-5.432,3.692-9.124c0-4.288-1.513-7.719-4.514-10.314
	c-2.621-2.192-6.861-4.288-12.709-6.194c-2.156-0.715-3.466-1.144-3.99-1.286c-3.454-1.286-6.193-2.572-8.183-3.812
	c-3.931-2.501-7.063-5.813-9.374-9.981c-2.311-4.192-3.454-8.623-3.454-13.34c0-5.026,1.298-9.695,3.883-14.007
	c2.608-4.312,6.134-7.719,10.588-10.208c4.479-2.501,9.267-3.752,14.448-3.752c5.372,0,10.244,1.203,14.603,3.586
	c4.347,2.37,7.813,5.717,10.386,9.993c2.56,4.312,3.965,9.147,4.251,14.531h-18.901c-0.286-3.169-1.429-5.67-3.442-7.528
	c-2.025-1.87-4.585-2.787-7.706-2.787c-2.906,0-5.265,0.977-7.075,2.871c-1.811,1.941-2.704,4.419-2.704,7.444
	c0,2.953,0.917,5.312,2.751,7.122c1.811,1.834,5.074,3.573,9.731,5.193l4.229,1.405c6.634,2.335,11.66,4.884,15.103,7.623
	c6.919,5.693,10.421,13.102,10.421,22.178c0,5.836-1.417,11.196-4.263,16.056c-2.823,4.859-6.73,8.695-11.673,11.529
	c-4.931,2.787-10.314,4.217-16.127,4.217c-9.35,0-17.211-3.239-23.583-9.767c-2.882-2.883-4.967-6.074-6.336-9.624
	C360.39,389.409,359.628,385.74,359.401,381.19L359.401,381.19z M748.979,409.157v-81.708H736.52v-16.89h30.158v98.598H748.979z"/>
<path fill-rule="evenodd" clip-rule="evenodd" fill="#58595B" d="M142.936,409.157v-48.858h10.637v4.407
	c1.56-2.239,3.108-3.812,4.669-4.669c1.572-0.882,3.561-1.334,5.967-1.334h0.953v11.387c-2.37,0.096-4.347,0.596-5.932,1.501
	c-1.524,0.762-2.751,2.024-3.668,3.787c-0.631,1.382-0.953,3.859-0.953,7.409v26.37H142.936L142.936,409.157z M232.028,409.157
	v-48.858h10.827v4.455c1.62-1.882,3.312-3.264,5.086-4.169c2.597-1.238,5.36-1.882,8.302-1.882c5.753,0,10.66,2.263,14.686,6.789
	c0.381,0.405,0.583,0.644,0.655,0.667c1.465,2.024,2.465,4.288,3.013,6.837c0.56,2.549,0.834,6.17,0.834,10.839v25.322h-11.768
	v-23.06c0-5.788-0.655-9.743-1.977-11.839c-0.774-1.215-1.87-2.168-3.311-2.931c-1.441-0.738-2.954-1.119-4.502-1.119
	c-1.68,0-3.264,0.381-4.752,1.167c-1.489,0.811-2.632,1.858-3.442,3.169c-0.75,1.167-1.262,2.62-1.56,4.383
	c-0.274,1.739-0.405,4.454-0.405,8.123v22.106H232.028L232.028,409.157z M317.178,373.711H305.72
	c-0.5-2.335-2.037-3.502-4.622-3.502c-1.37,0-2.477,0.381-3.299,1.119c-0.822,0.739-1.227,1.716-1.227,2.906
	c0,1.144,0.429,2.025,1.286,2.716c0.858,0.691,2.371,1.311,4.55,1.906l0.583,0.19h0.167c5.491,1.501,9.398,3.406,11.78,5.693
	c2.394,2.287,3.585,5.313,3.585,9.076c0,3.097-0.798,5.932-2.382,8.552c-1.596,2.597-3.752,4.646-6.503,6.17
	c-2.739,1.477-5.753,2.239-8.993,2.239c-2.334,0-4.574-0.429-6.729-1.263c-2.144-0.834-4.062-2.025-5.705-3.55
	c-1.406-1.405-2.608-3.145-3.597-5.193c-0.774-1.667-1.25-4.002-1.489-6.979h11.97c0.905,3.669,2.99,5.479,6.194,5.479
	c1.596,0,2.93-0.429,3.942-1.263c1.024-0.857,1.524-1.978,1.524-3.359c0-1.381-0.524-2.501-1.62-3.382
	c-1.072-0.882-2.978-1.787-5.741-2.716c-0.071,0-0.167-0.024-0.262-0.048c-0.107-0.023-0.178-0.048-0.19-0.048l-0.488-0.19
	l-2.072-0.644c-3.692-1.167-6.539-2.953-8.54-5.336c-2.037-2.358-3.049-5.169-3.049-8.433c0-2.739,0.727-5.288,2.18-7.623
	c1.453-2.334,3.43-4.169,5.943-5.503s5.241-2.024,8.183-2.024c2.966,0,5.634,0.644,8.004,1.882c2.358,1.263,4.252,3.025,5.669,5.336
	C316.201,368.184,317.011,370.805,317.178,373.711L317.178,373.711z M326.242,385.979v-10.553h24.75v10.553H326.242L326.242,385.979
	z M490.896,409.157v-48.858h10.624v4.407c1.572-2.239,3.121-3.812,4.67-4.669c1.571-0.882,3.572-1.334,5.979-1.334h0.953v11.387
	c-2.382,0.096-4.359,0.596-5.932,1.501c-1.524,0.762-2.764,2.024-3.692,3.787c-0.619,1.382-0.929,3.859-0.929,7.409v26.37H490.896
	L490.896,409.157z M535.489,409.157l-19.771-48.858h13.078l11.315,32.088l11.268-32.088h13.006l-19.748,48.858H535.489
	L535.489,409.157z M571.127,409.157v-48.858h11.672v48.858H571.127L571.127,409.157z M571.127,354.653v-10.768h11.672v10.768
	H571.127L571.127,354.653z M710.078,385.979v-10.553h24.75v10.553H710.078z"/>
<g>
	<path fill="#58595B" d="M456.807,370.209c-4.454,0-8.171,1.644-11.101,4.955c-1.048,1.167-1.918,2.62-2.549,4.335H470.1
		c-0.763-2.072-1.716-3.668-2.835-4.788C464.549,371.71,461.047,370.209,456.807,370.209z"/>
	<path fill="#58595B" d="M203.991,372.067c-2.144-1.239-4.585-1.858-7.325-1.858c-2.751,0-5.265,0.619-7.492,1.905
		c-2.227,1.263-3.978,3.025-5.229,5.265c-1.227,2.239-1.87,4.765-1.87,7.6c0,2.668,0.643,5.098,1.894,7.289
		c1.239,2.191,3.001,3.907,5.193,5.146c2.203,1.239,4.669,1.858,7.408,1.858c2.704,0,5.146-0.619,7.301-1.882
		c2.156-1.239,3.87-2.954,5.085-5.146c1.227-2.191,1.834-4.669,1.834-7.361c0-2.835-0.596-5.359-1.787-7.599
		C207.825,375.045,206.146,373.306,203.991,372.067z"/>
	<path fill="#58595B" d="M199.905,349.056c-19.748,0-35.851,16.079-35.851,35.827s16.103,35.852,35.851,35.852
		c19.735,0,35.851-16.104,35.851-35.852S219.641,349.056,199.905,349.056z M221.892,409.157H211.16v-6.599
		c-1.346,1.572-2.454,2.739-3.335,3.478c-0.916,0.739-2.167,1.501-3.715,2.264c-3.085,1.644-6.444,2.478-10.076,2.478
		c-4.491,0-8.54-1.144-12.149-3.383c-3.609-2.264-6.443-5.384-8.504-9.386c-2.049-4.002-3.073-8.457-3.073-13.412
		c0-4.788,1.06-9.147,3.228-13.102c2.144-3.978,5.074-7.099,8.802-9.361c3.692-2.287,7.79-3.431,12.245-3.431
		c3.609,0,6.741,0.715,9.433,2.168c1.441,0.715,2.645,1.524,3.621,2.358c0.987,0.881,2.143,2.191,3.524,3.954v-6.885h10.731V409.157
		z"/>
	<path fill="#58595B" d="M455.663,347.983c-19.735,0-35.839,16.104-35.839,35.852s16.104,35.827,35.839,35.827
		c19.748,0,35.852-16.079,35.852-35.827S475.411,347.983,455.663,347.983z M481.462,388.837l-0.167,1.144h-37.947
		c0.81,2.097,1.727,3.692,2.739,4.765c2.645,3.025,6.099,4.526,10.339,4.526c2.453,0,4.692-0.477,6.789-1.43
		c1.405-0.619,2.716-1.572,3.954-2.787h13.007c-1.286,3.073-2.739,5.432-4.359,7.146c-2.501,2.692-5.479,4.813-8.861,6.313
		c-3.383,1.501-6.861,2.264-10.41,2.264c-4.598,0-8.861-1.168-12.805-3.479c-3.942-2.311-7.074-5.455-9.35-9.434
		c-2.311-3.954-3.466-8.266-3.466-12.911c0-4.74,1.167-9.1,3.466-13.149c2.322-4.025,5.455-7.218,9.397-9.576
		c3.967-2.334,8.278-3.525,12.947-3.525c4.479,0,8.647,1.167,12.53,3.478c3.859,2.312,6.956,5.408,9.242,9.314
		c2.312,3.907,3.431,8.123,3.431,12.626C481.938,385.002,481.796,386.598,481.462,388.837z"/>
	<path fill="#58595B" d="M674.25,349.056c-15.627,0-23.226,6.479-33.397,6.479c-6.504,0-14.722-6.479-24.728-6.479
		c-19.748,0-35.852,16.079-35.852,35.827s16.104,35.852,35.852,35.852c11.936,0,22.535-5.884,29.063-14.912
		c6.527,9.028,17.128,14.912,29.063,14.912c19.748,0,35.852-16.104,35.852-35.852S693.998,349.056,674.25,349.056z M607.335,395.078
		c2.739,2.787,6.17,4.193,10.268,4.193c4.621,0,8.313-2.001,11.053-6.027h13.174c-0.811,2.191-1.549,3.883-2.191,5.026
		c-0.62,1.144-1.501,2.382-2.597,3.645c-2.525,2.835-5.479,5.026-8.838,6.552c-3.406,1.548-6.908,2.311-10.601,2.311
		c-4.717,0-9.076-1.168-13.103-3.502c-4.025-2.335-7.193-5.526-9.552-9.553c-2.335-4.025-3.502-8.409-3.502-13.126
		c0-4.716,1.167-9.052,3.478-13.03c2.335-3.978,5.455-7.122,9.434-9.409c4.002-2.311,8.338-3.454,12.982-3.454
		c2.525,0,4.979,0.357,7.385,1.072c2.383,0.738,4.646,1.763,6.766,3.145c2.145,1.334,4.05,3.001,5.717,4.931
		c1.12,1.286,1.978,2.525,2.621,3.716c0.643,1.239,1.31,2.883,2.001,4.979h-13.174c-1.429-2.286-3.001-3.883-4.74-4.859
		s-3.883-1.477-6.479-1.477c-2.764,0-5.24,0.619-7.385,1.811c-2.144,1.238-3.812,2.93-5.026,5.121
		c-1.19,2.192-1.786,4.669-1.786,7.456C603.238,388.813,604.596,392.291,607.335,395.078z M699.62,389.98h-37.948
		c0.811,2.097,1.716,3.692,2.716,4.765c2.668,3.025,6.122,4.526,10.387,4.526c2.43,0,4.692-0.477,6.765-1.43
		c1.406-0.619,2.716-1.572,3.955-2.787H698.5c-1.286,3.073-2.739,5.432-4.359,7.146c-2.501,2.692-5.479,4.813-8.861,6.313
		c-3.383,1.501-6.86,2.264-10.434,2.264c-4.574,0-8.838-1.168-12.792-3.479c-3.931-2.311-7.052-5.455-9.339-9.434
		c-2.311-3.954-3.453-8.266-3.453-12.911c0-4.74,1.143-9.1,3.453-13.149c2.335-4.025,5.456-7.218,9.41-9.576
		c3.954-2.334,8.266-3.525,12.911-3.525c4.502,0,8.671,1.167,12.554,3.478c3.859,2.312,6.956,5.408,9.243,9.314
		c2.311,3.907,3.454,8.123,3.454,12.626c0,0.881-0.143,2.477-0.477,4.716L699.62,389.98z"/>
	<path fill="#58595B" d="M675.132,370.209c-4.455,0-8.147,1.644-11.102,4.955c-1.048,1.167-1.905,2.62-2.549,4.335h26.942
		c-0.762-2.072-1.715-3.668-2.835-4.788C682.873,371.71,679.372,370.209,675.132,370.209z"/>
</g>
</svg>
