<svg xmlns="http://www.w3.org/2000/svg" width="841.89" height="595.28" viewBox="0 0 841.89 595.28"><path fill="#464547" d="M228.12 42.522h385.65v385.65H228.12z"/><path fill="#FFF" d="M557.684 151.61c1.64-1.74 4.484-3.145 8.67-4.27v-5.28h-91.066v5.28c5.436 1.29 8.168 4.324 8.168 9.05 0 2.19-.834 4.715-2.428 7.58l-60.083 108.345L360.86 163.97c-1.597-2.865-2.415-5.39-2.415-7.58 0-4.726 2.718-7.76 8.153-9.05v-5.28H275.52v5.28c4.192 1.125 7.028 2.53 8.68 4.27 1.6 1.743 2.422 4.27 2.422 7.59v190.27c0 3.413-.823 6.005-2.423 7.75-1.652 1.745-4.488 3.152-8.68 4.264v5.28h69.464v-5.28c-4.135-1.11-7.03-2.52-8.687-4.263-1.594-1.745-2.43-4.337-2.43-7.75V211.512l87.066 155.25.012-.018.007.02 87.052-155.252V349.47c0 3.413-.807 6.005-2.402 7.75-1.67 1.745-4.55 3.152-8.7 4.264v5.28h69.452v-5.28c-4.186-1.11-7.03-2.52-8.67-4.263-1.59-1.745-2.426-4.337-2.426-7.75V159.2c0-3.32.836-5.846 2.426-7.59z"/><path fill-rule="evenodd" clip-rule="evenodd" fill="#FFF" d="M590.485 211.406l-.57-1.95c-.596-2.04-1.113-2.743-1.276-2.926-.168-.086-.907-.388-3.05-.388H485.328c-2.563 0-3.234.445-3.24.45-.004.003-.512.436-1.038 2.716l-.485 2.1h-8.03v-6.577c0-13.302 3.112-24.836 9.25-34.28 6.044-9.368 15.568-17.248 28.3-23.413 4.813-2.262 10.693-5.008 18.046-8.324 24.577-10.88 29.732-19.255 29.732-24.367 0-4.703-1.604-8.207-4.902-10.714-3.48-2.653-8.612-3.997-15.262-3.997-8.503 0-16.438 2.03-23.584 6.034-6.632 3.69-9.99 7.427-9.99 11.11.005.028.096.79 1.21 3.582l.05.14.797 2.368-5.642 5.07-28.876-30.624 5.787-5.574 1.797 1.14c.876.556 1.76 1.034 2.7 1.46.53.23.88.315 1.092.344.366-.156 1.532-.784 4.54-3.274 3.34-2.777 6.14-4.858 8.557-6.358 6.712-4.24 13.99-7.422 21.615-9.445 7.513-1.993 15.914-3.003 24.972-3.003 14.626 0 26.455 3.73 35.16 11.087 8.844 7.476 13.328 17.628 13.328 30.176 0 10.893-3.16 20.037-9.393 27.177-6.145 6.982-17.936 14.274-35.055 21.68-3.393 1.493-7.816 3.353-13.133 5.52-10.245 4.104-16.12 7.277-19.48 9.612h71.438c2.48 0 3.106-.453 3.17-.504-.003 0 .573-.537 1.104-3.077l.45-2.156h8.074v39.183h-7.903z"/><path fill="#464547" d="M542.723 75.416c14.016 0 25.158 3.472 33.412 10.447 8.254 6.978 12.367 16.347 12.367 28.107 0 10.287-2.912 18.736-8.725 25.396-5.86 6.66-17.223 13.68-34.088 20.975-3.165 1.394-7.503 3.225-13.08 5.498-14.532 5.822-22.874 10.768-25 14.83h77.98c2.356 0 3.954-.356 4.882-1.114.887-.753 1.553-2.273 2.043-4.62h3.164v33.764h-3.165c-.64-2.192-1.373-3.59-2.154-4.268-.845-.67-2.413-.997-4.77-.997H485.328c-2.447 0-4.08.357-4.93 1.04-.88.714-1.5 2.112-1.988 4.225h-3.166v-3.867c0-12.836 2.932-23.757 8.81-32.805 5.843-9.052 14.944-16.51 27.212-22.45 4.406-2.07 10.377-4.864 17.98-8.293 20.886-9.247 31.325-18.22 31.325-26.836 0-5.54-1.99-9.845-5.972-12.87-3.98-3.037-9.637-4.55-16.9-4.55-9.006 0-17.293 2.113-24.908 6.38-7.592 4.225-11.375 8.73-11.375 13.476 0 .716.465 2.233 1.402 4.584l.23.68-2.353 2.113-25.223-26.75 2.325-2.24c1.135.72 2.146 1.24 3.03 1.64.91.396 1.694.6 2.382.6.98 0 2.97-1.317 6.1-3.91 3.166-2.632 5.875-4.663 8.258-6.142 6.56-4.144 13.506-7.172 20.88-9.13 7.368-1.954 15.457-2.912 24.278-2.912m0-5.417c-9.29 0-17.927 1.04-25.666 3.09-7.892 2.095-15.423 5.387-22.386 9.787-2.486 1.543-5.386 3.695-8.827 6.557-1.54 1.274-2.512 1.992-3.104 2.392-.705-.336-1.377-.708-2.044-1.13l-3.594-2.28-3.065 2.952-2.324 2.238-3.86 3.72 3.677 3.9 25.223 26.75 3.63 3.847 3.933-3.535 2.352-2.113 2.65-2.38-1.137-3.376-.228-.68-.047-.143-.056-.14c-.68-1.698-.923-2.51-1.007-2.835.204-2.475 3.306-5.547 8.58-8.483 6.847-3.836 14.128-5.697 22.274-5.697 6.043 0 10.623 1.157 13.615 3.44 2.622 1.992 3.84 4.71 3.84 8.562 0 2.838-2.738 10.653-28.102 21.882-7.402 3.34-13.296 6.09-18.09 8.344l-.028.014-.028.014c-13.187 6.385-23.078 14.59-29.4 24.388-6.42 9.877-9.678 21.908-9.678 35.744V214.114H482.72l.97-4.197c.1-.43.19-.76.27-1.007.323-.033.77-.06 1.37-.06h100.26c.556 0 .973.022 1.275.05.126.306.28.734.45 1.315l1.14 3.898h12.643v-44.598h-12.985l-.9 4.31c-.128.617-.25 1.06-.353 1.367-.295.033-.708.06-1.27.06h-61.06c2.718-1.298 6.037-2.758 10.094-4.384 5.37-2.188 9.817-4.057 13.248-5.567 17.703-7.66 29.48-14.976 35.973-22.355 6.69-7.664 10.075-17.407 10.075-28.974 0-13.38-4.808-24.23-14.287-32.244C570.423 73.944 558.006 70 542.723 70z"/><path fill="#FFF" d="M230.83 425.88h380.23v124.17H230.83z"/><path fill="#464547" d="M608.352 428.59v118.75H233.538V428.59h374.814m5.418-5.418H228.12v129.586h385.65V423.172z"/><g fill-rule="evenodd" clip-rule="evenodd" fill="#464547"><path d="M299.322 444.805c-.276-.376-5.09-3.633-5.712-3.885-.624-.232-1.514-.74-3.555 1.12-7.108 6.08-27.64 38.327-34.284 57.75-3.674-.155-5.344 1.187-7.9 2.636-2.14 1.22-.664 4.406.978 8.113 1.937 4.383 15.524 1.667 16.975.485 1.89-.112 15.227-.03 18.93-.03-.463 1.95 4.485 2.633 6.742 1.97 2.26-.665 6.605-2.476 7.095-8.11.48-5.638-.666-5.73-1.32-5.73.91-30.196 2.978-43.468 3.29-49.05.228-3.94-.956-4.893-1.238-5.27zm-15.14 51.3c-.152 2.25-1.932 3.184-2.532 3.13-.598-.065-11.253.7-12.047.505-.794-.207-.452-1.452.042-3.63 1.924-8.43 15.855-30.035 16.652-30.92 1.19-1.31 2.59-.328 2.724 1.063.13 1.396-4.44 23.503-4.838 29.85zM374.334 468.834c-1.733-5.13-10.596-7.932-16.067-6.586-12.55 3.102-27.374 21.662-19.85 42.377 3.12 8.582 13.083 7.675 15.41 7.675 2.34 0 10.633-1.25 13.253-7.24 2.622-5.99-2.853-7.542-6.324-5.27-1.207.798-2.207 1.94-8.81 2.25-6.602.295-3.962-10.718-3.962-11.847 0-1.13 1.745-1.21 1.97.38.24 1.59 2.675 4.453 9.887 2.634 7.212-1.827 11.737-8.13 13.178-9.895 2.066-2.54 3.11-9.135 1.316-14.478zm-9.305 6.89c-2.472 6.66-7.165 8.588-8.7 9.3-1.546.714-8.267 2.807-5.082-2.807 3.186-5.613 5.557-8.412 6.774-9.847 2.13-2.52 9.48-3.307 7.007 3.353zM432.943 484.85c6.072-2.652 14.2-10.715 16.525-15.063.592-1.055.813-4.093.613-4.79-.282-.916-1.202-1.74-1.808-2.796-1-1.787-2.377-1.266-3.457-.22-3.182 3.054-14.54 17.584-20.94 18.498 1.603-5.076 2.927-9.18 3.526-10.763 1.5-4.115.608-4.83-.116-5.48-.387-.355-.916-.715-2.55-2.138-4.258-3.664-6.232 1.856-6.232 1.856-.65 1.932-12.85 36.122-13.52 39.14-.65 3.01.306 5.046.306 5.046s1.67 1.875 4.958 3.86c3.305 1.98 4.794-2.236 4.917-2.723 1.152-4.31 3.956-13.59 6.63-22.166 2.168 8.5 7.398 21.205 10.176 25.314 1.302 2.633 5.31 1.76 6.24 1.76.964 0 3.51-1.486 4.704-1.972 1.285-.54 3.006-2.78 1.008-4.452-2.03-1.655-9.682-15.857-11.436-21.55-.218-.654-.463-.957.457-1.36zM520.564 474.108c-1.502-5.073-6.586-4.606-7.266-4.606-.656 0-2.074-2.145-3.273-6.027-1.205-3.892-5.79-3.018-8.44-1.227-10.442 6.985-17.907 20.173-17.907 29.382 0 13.858 4.03 16.614 6.568 18.702 2.36 1.912 8.773 2.466 12.533 1.32 4.103-1.272 12.216-7.436 16.45-19.1 1.616-4.468 3.174-12.114 1.334-18.444zM501.146 501c-3.076 3.105-5.896 2.727-6.31.598-.452-2.56-2.82-14.666 10.505-28.54.448-.46 3.677-2.492 4.29 1.232.59 3.597.575 17.617-8.484 26.71zM582.455 463.67c-1.273-.043-3.143.207-5.254.588 0-.01.003-.02.003-.023.113-2.1.496-4.88-.818-5.326-1.285-.453-4.453-1.278-5.77-1.93-1.317-.65-3.93.65-3.952 2.397-.035 2.487-.23 5.06-.547 7.643-2.23.686-4.035 1.333-4.943 1.815-1.406.73-2.418 4.325-1.098 6.66 0 0 1.004 1.847 1.67 3.216.51 1.048.918 1.833 1.78 1.732-4.71 18.505-13.38 36.282-16.616 43.73-1.35 3.064-1.806 5.133 0 6.573.726.597 4.192 2.382 5.51 4.357 1.314 1.97 3.147.3 4.923-2.906 1.717-3.07 4.9-12.557 8.23-23.525 1.318 1.705 2.916 3.586 4.16 4.507 2.63 1.988 4.22.58 7.838-1.84 4.827-3.238 17.214-12.686 18.077-29.443.722-14.037-8.504-18.105-13.192-18.223zm-2.762 31.547c-2.648 2.955-7.95 5.835-10.49 6.09-.63.062-1.074-.083-1.35-.3 2.45-8.412 4.8-17.02 6.543-23.856.725-.354 1.416-.74 2.035-1.182 4.07-2.974 8.364-1.14 9.802 1.43 1.463 2.556-1.478 12.202-6.54 17.82z"/></g></svg>