<svg xmlns="http://www.w3.org/2000/svg" width="841.89" height="595.28" viewBox="0 0 841.89 595.28"><g fill="#58595B"><path d="M559.41 366.65c-26.423 0-47.85 23.174-47.85 51.753s21.427 51.745 47.85 51.745c26.422 0 47.85-23.166 47.85-51.745s-21.428-51.753-47.85-51.753zm0 80.252c-13.624 0-24.65-13.776-24.65-28.5 0-14.737 11.026-28.153 24.65-28.153 13.625 0 24.666 13.415 24.666 28.153 0 14.723-11.04 28.5-24.666 28.5zM124.893 368.8H63.75c-2.96 0-4.436 2.356-4.436 5.163v12.694c0 2.365 1.323 5.172 4.435 5.172h17.656v71.182c0 2.51 2.366 4.436 5.156 4.436h15.493c2.814 0 5.172-1.925 5.172-4.436V391.83h17.665c3.087 0 4.427-2.808 4.427-5.173v-12.694c0-2.807-1.484-5.164-4.427-5.164zM499.63 368.277h-56.66c-3.394 0-5.173 1.917-5.173 4.418l-1.483 55.523c-.265 10.617-3.16 16.005-9.688 16.615-.457.048-29.068-.032-29.068-.032-12.35-1.13-22.108-13.864-22.108-27.487 0-14.258 10.69-27.257 23.88-27.257.915 0 3.305-.216 3.305-.216 2.518 0 4.442-2.366 4.442-5.173v-12.31c0-2.277-1.292-4.25-3.127-4.907-.41-.16-.843-.256-1.315-.256h-3.305c-12.958 0-24.674 5.774-33.085 15.043-8.195 9.045-13.263 21.42-13.263 35.075 0 13.672 5.067 26.045 13.263 35.073 8.41 9.286 20.127 15.06 33.085 15.06l29.76.032c21.128 0 28.49-13.095 31.136-39.854l1.034-36.324h19.8v71.742c0 2.51 2.365 4.435 5.18 4.435h13.543c2.815 0 5.02-1.924 5.02-4.435v-90.35c0-2.498-1.782-4.415-5.173-4.415zM686.525 368.8h-13.52c-3.393 0-5.173 1.924-5.173 4.434v30.118h-30.36v-30.118c0-2.51-1.778-4.435-5.172-4.435h-13.27c-3.4 0-5.164 1.924-5.164 4.434v90.348c0 2.494 2.357 4.41 5.164 4.41h13.27c2.815 0 5.173-1.916 5.173-4.41v-37.207h30.36v37.207c0 2.494 2.357 4.41 5.172 4.41h13.672c2.814 0 5.02-1.916 5.02-4.41v-90.348c0-2.51-1.78-4.435-5.172-4.435zM777.402 368.277h-10.89c-3.544 0-5.31 1.772-6.495 3.69l-31.586 47.687v-46.96c0-2.5-2.356-4.418-5.17-4.418h-13.353c-2.807 0-5.172 1.917-5.172 4.418v90.35c0 2.51 1.78 4.434 5.172 4.434H720.9c3.536 0 5.324-1.764 6.495-3.697l31.45-48.712v47.976c0 2.51 2.214 4.435 5.004 4.435h13.55c2.824 0 5.182-1.925 5.182-4.436v-90.35c0-2.5-1.78-4.417-5.18-4.417zM301.42 368.277h-10.89c-3.56 0-5.317 1.772-6.495 3.69l-31.595 47.687v-46.96c0-2.5-2.357-4.418-5.155-4.418h-13.368c-2.8 0-5.155 1.917-5.155 4.418v90.35c0 2.51 1.764 4.434 5.155 4.434h11.01c3.536 0 5.31-1.764 6.48-3.697l31.44-48.712v47.976c0 2.51 2.214 4.435 5.028 4.435h13.544c2.806 0 5.17-1.925 5.17-4.436v-90.35c.002-2.5-1.778-4.417-5.17-4.417zM217.88 404.555c-.217-12.677-2.735-22.043-12.125-28.908-7.05-5.155-19.55-7.257-32.51-7.257h-24.978c-3.392 0-5.172 1.933-5.172 4.435v90.35c0 2.51 2.213 4.417 5.027 4.417h13.544c2.815 0 5.172-1.908 5.172-4.418V442.5c1.26.072 6.407.104 6.407.104 12.96 0 25.46-2.085 32.51-7.25 9.39-6.863 11.907-16.23 12.123-28.898.01 0 .01-1.9 0-1.9zm-43.423 17.224h-7.618V389.22h7.617c12.116 1.114 21.715 3.264 22.068 16.206-.49 14.29-9.88 15.237-22.068 16.35z"/></g><g fill="#58595B"><path d="M433.033 523.13c.537-1.14 1.154-2.373 1.836-3.72.69-1.35 1.402-2.696 2.14-4.05.746-1.355 1.484-2.68 2.238-3.954.737-1.268 1.435-2.39 2.102-3.352h7.104c-.338 1.9-.706 3.913-1.107 6.045l-2.028 9.943c-.082.313-.12.593-.154.85-.023.256-.047.457-.047.602 0 .4.095.69.303.89.218.2.546.29.995.29.448 0 1.002-.04 1.684-.13l-.962 4.5c-.434.087-.898.167-1.396.224-.505.055-.945.088-1.362.088-1.62 0-2.847-.313-3.64-.915-.812-.61-1.22-1.556-1.22-2.838 0-.338.064-.787.145-1.38.104-.593.24-1.275.4-2.037.16-.77.354-1.604.562-2.5.207-.9.448-1.82.665-2.744.224-.93.457-1.845.697-2.767.225-.938.474-1.795.69-2.598h-.21c-.65 1.122-1.354 2.38-2.116 3.76-.754 1.396-1.54 2.855-2.365 4.362-.81 1.523-1.628 3.08-2.493 4.66-.858 1.586-1.7 3.143-2.534 4.657h-3.673c-.048-1.412-.104-2.855-.176-4.355-.072-1.49-.16-2.983-.257-4.482-.112-1.508-.24-2.99-.385-4.475-.16-1.476-.354-2.887-.602-4.226h-.21c-.264 1.645-.512 3.23-.784 4.763-.25 1.53-.554 2.96-.906 4.29-.345 1.33-.762 2.534-1.22 3.624-.48 1.09-1.058 2.02-1.723 2.79-.667.778-1.437 1.388-2.318 1.812-.907.426-1.934.634-3.105.634-.32 0-.697-.016-1.146-.056-.434-.048-.795-.104-1.1-.184l1.02-4.925c.384.105.785.17 1.178.17.577 0 1.13-.24 1.628-.706.497-.464.946-1.123 1.38-1.964.408-.843.785-1.853 1.162-2.99.353-1.156.682-2.423.986-3.77.305-1.364.602-2.8.883-4.314.264-1.516.537-3.056.785-4.603h6.664c.488 2.405.882 4.898 1.194 7.49.306 2.598.514 5.114.626 7.585h.167zM473.007 513.764c0 1.282-.313 2.438-.93 3.448-.625 1.026-1.556 1.893-2.768 2.614-1.22.713-2.718 1.267-4.5 1.636-1.787.385-3.83.577-6.166.577-.27 0-.608-.01-1.01-.025v.136c0 .845.12 1.573.36 2.19.257.635.61 1.147 1.06 1.532.473.4 1.042.69 1.69.866.667.185 1.42.272 2.246.272 1.228 0 2.526-.145 3.88-.45 1.356-.304 2.544-.704 3.554-1.21l-1.01 4.933c-.986.4-2.11.72-3.36.962-1.268.24-2.605.37-4.018.37-1.69 0-3.16-.234-4.4-.69-1.26-.467-2.295-1.1-3.09-1.925-.817-.834-1.426-1.82-1.82-2.952-.408-1.146-.6-2.405-.6-3.768 0-1.22.135-2.43.4-3.633.24-1.195.61-2.35 1.1-3.44.487-1.107 1.105-2.116 1.818-3.063.723-.946 1.572-1.75 2.526-2.438.955-.69 2.03-1.236 3.216-1.63 1.18-.392 2.478-.592 3.857-.592 1.22 0 2.317.15 3.31.456.963.29 1.8.722 2.48 1.268.69.537 1.227 1.203 1.61 1.973.37.772.564 1.637.564 2.584zm-5.63 0c0-.514-.223-.97-.625-1.348-.416-.385-1.034-.57-1.868-.57-.642 0-1.282.13-1.94.378-.65.257-1.267.626-1.852 1.13-.562.507-1.083 1.1-1.55 1.82-.456.724-.825 1.548-1.082 2.486 1.677 0 3.08-.112 4.22-.336 1.146-.226 2.053-.513 2.74-.882.698-.37 1.196-.786 1.5-1.235.298-.48.458-.946.458-1.443zM489.935 503.388c-.85.192-1.61.465-2.27.826-.657.368-1.242.857-1.764 1.475-.513.608-.985 1.378-1.402 2.293-.41.922-.794 2.028-1.187 3.344h.105c.4-.337.866-.65 1.38-.946.514-.305 1.075-.56 1.668-.8.593-.226 1.21-.402 1.86-.53.657-.145 1.347-.21 2.053-.21 1.026 0 1.988.162 2.903.507.896.336 1.683.85 2.356 1.53.673.683 1.202 1.524 1.58 2.535.384 1.01.568 2.18.568 3.504 0 1.9-.28 3.73-.882 5.51-.594 1.763-1.443 3.327-2.566 4.683-1.122 1.353-2.493 2.444-4.12 3.27-1.605.818-3.45 1.236-5.494 1.236-1.01 0-2.02-.146-3.04-.426-1.01-.297-1.932-.795-2.74-1.508-.803-.722-1.47-1.69-1.967-2.942-.505-1.235-.77-2.807-.77-4.7 0-1.41.104-2.887.29-4.44.184-1.557.472-3.113.84-4.652s.835-3.015 1.373-4.442c.537-1.41 1.17-2.693 1.884-3.832.497-.81 1.075-1.557 1.692-2.245.625-.69 1.323-1.3 2.11-1.846.776-.546 1.667-1.02 2.645-1.43.97-.392 2.084-.728 3.312-1.008l8.748-1.885-1.082 5.3-8.083 1.828zm-8.228 18.54c0 1.05.09 1.907.266 2.573.192.667.432 1.18.753 1.557.32.368.698.617 1.14.76.44.13.922.194 1.443.194 1.09 0 2.052-.28 2.918-.857.857-.585 1.563-1.323 2.14-2.245.586-.913 1.01-1.933 1.324-3.056.313-1.122.465-2.22.465-3.312 0-.634-.05-1.21-.177-1.724-.12-.514-.313-.946-.602-1.3-.264-.36-.617-.633-1.06-.817-.44-.193-.977-.29-1.626-.29-.506 0-1.026.065-1.572.193-.537.12-1.09.304-1.635.53-.546.23-1.075.504-1.597.833-.52.32-1.002.682-1.45 1.074-.113.4-.21.85-.314 1.348-.08.49-.17 1.01-.226 1.54-.072.545-.12 1.066-.144 1.58-.03.52-.047.986-.047 1.42zM517.632 512.608c-.44-.08-.803-.112-1.066-.112-1.194 0-2.19.418-2.967 1.268-.434.497-.835 1.09-1.172 1.788-.345.698-.666 1.476-.963 2.285-.288.834-.593 1.69-.897 2.6-.305.913-.61 1.812-.945 2.7-.354.9-.738 1.757-1.156 2.607-.433.85-.93 1.62-1.5 2.34-.81 1.012-1.78 1.814-2.91 2.423-1.138.594-2.51.89-4.13.89-.288 0-.657-.016-1.114-.056-.45-.047-.842-.103-1.13-.183l1.02-4.925c.43.104.896.17 1.37.17.52 0 1.002-.146 1.418-.435.435-.28.82-.69 1.19-1.234.384-.562.736-1.234 1.057-2.004.32-.78.634-1.605.938-2.487.313-.898.634-1.805.955-2.742.32-.937.69-1.86 1.074-2.767.4-.89.834-1.748 1.314-2.558.49-.802 1.044-1.507 1.677-2.102.994-.97 2.156-1.635 3.473-2.02 1.33-.37 2.798-.57 4.466-.57 2.045 0 4.226.25 6.535.738l-3.296 15.822c-.057.313-.104.593-.13.85-.047.256-.062.457-.062.602 0 .408.12.714.328.906.225.185.537.272.98.272.416 0 .978-.04 1.683-.128l-.97 4.5c-.417.086-.882.166-1.388.223-.497.056-.954.09-1.355.09-1.636 0-2.902-.32-3.85-.94-.92-.633-1.387-1.644-1.387-3.055 0-.208.008-.448.032-.714.016-.264.057-.52.137-.793l2.74-13.247zM548.722 513.764c0 1.282-.313 2.438-.938 3.448-.618 1.026-1.54 1.893-2.75 2.614-1.22.713-2.72 1.267-4.508 1.636-1.78.385-3.85.577-6.158.577-.272 0-.61-.01-1.01-.025v.136c0 .845.103 1.573.36 2.19.233.635.586 1.147 1.058 1.532.475.4 1.036.69 1.692.866.666.185 1.404.272 2.23.272 1.242 0 2.525-.145 3.88-.45 1.363-.304 2.542-.704 3.553-1.21l-1.018 4.933c-.962.4-2.084.72-3.336.962-1.267.24-2.605.37-4.025.37-1.683 0-3.158-.234-4.394-.69-1.267-.467-2.293-1.1-3.103-1.925-.818-.834-1.42-1.82-1.82-2.952-.394-1.146-.586-2.405-.586-3.768 0-1.22.12-2.43.377-3.633.257-1.195.626-2.35 1.122-3.44.49-1.107 1.09-2.116 1.83-3.063.72-.946 1.554-1.75 2.517-2.438.946-.69 2.02-1.236 3.208-1.63 1.188-.392 2.463-.592 3.865-.592 1.22 0 2.302.15 3.29.456.977.29 1.81.722 2.5 1.268.683.537 1.22 1.203 1.597 1.973.385.772.57 1.637.57 2.584zm-5.647 0c0-.514-.2-.97-.6-1.348-.427-.385-1.035-.57-1.87-.57-.64 0-1.282.13-1.94.378-.657.257-1.267.626-1.853 1.13-.57.507-1.082 1.1-1.547 1.82-.465.724-.826 1.548-1.1 2.486 1.677 0 3.096-.112 4.22-.336 1.138-.226 2.06-.513 2.757-.882.698-.37 1.195-.786 1.5-1.235.282-.48.433-.946.433-1.443zM568.623 519.336c1.13.265 1.99.762 2.575 1.468.6.706.89 1.588.89 2.63 0 1.092-.256 2.134-.777 3.128s-1.29 1.86-2.31 2.614c-1.01.738-2.253 1.33-3.744 1.77-1.5.442-3.216.668-5.18.668-1.55 0-3.072-.17-4.563-.514-1.5-.338-2.854-.81-4.065-1.412.112-1.026.225-2.053.353-3.103.138-1.034.274-2.045.418-3.048.145-.985.305-1.932.466-2.846.168-.922.33-1.764.49-2.533.392-1.78.864-3.328 1.466-4.65.586-1.332 1.355-2.44 2.293-3.337.923-.882 2.045-1.556 3.337-2.013 1.307-.44 2.854-.673 4.667-.673 1.282 0 2.414.15 3.416.456 1.002.29 1.844.706 2.533 1.235.706.538 1.22 1.162 1.59 1.893.358.722.543 1.516.543 2.365 0 1.388-.36 2.582-1.067 3.577-.714.993-1.82 1.74-3.328 2.23v.096zm-5.147 2.35c-.705 0-1.547.024-2.526.08-.97.064-1.98.153-3.007.273-.128.713-.256 1.475-.385 2.276-.112.802-.216 1.587-.272 2.357.4.152.882.257 1.435.337.547.08 1.196.13 1.95.13.778 0 1.54-.082 2.237-.26.698-.16 1.314-.4 1.837-.712.52-.297.946-.682 1.234-1.114.313-.45.465-.938.465-1.476 0-.603-.225-1.06-.705-1.396-.474-.335-1.22-.495-2.262-.495zm1.147-9.783c-.754 0-1.452.104-2.094.336-.643.225-1.22.593-1.717 1.09-.514.498-.946 1.14-1.315 1.94-.368.803-.657 1.765-.842 2.888 1.732-.137 3.168-.337 4.282-.61 1.123-.28 2.013-.6 2.678-.985.666-.377 1.13-.786 1.388-1.234.265-.442.4-.892.4-1.373 0-.61-.248-1.106-.705-1.49-.482-.38-1.172-.564-2.077-.564zM577.276 524.9c0-.375.023-.8.064-1.274.04-.48.15-1.106.328-1.907l2.863-13.665h5.59l-2.943 14.145c-.137.642-.208 1.235-.208 1.804 0 .963.23 1.66.673 2.11.45.448 1.05.657 1.812.657.49 0 1.003-.063 1.516-.208.522-.145 1.036-.385 1.54-.722s.995-.785 1.477-1.33c.473-.546.897-1.22 1.298-2.03.266-.545.52-1.178.738-1.9s.45-1.587.666-2.598l2.052-9.927h5.59l-3.305 15.99c-.072.312-.112.592-.145.85-.032.255-.048.456-.048.6 0 .41.104.715.32.907.233.185.554.272.98.272.457 0 1.018-.04 1.676-.128l-.97 4.5c-1.012.2-1.926.312-2.743.312-1.315 0-2.31-.32-2.983-.964-.674-.624-1.05-1.53-1.14-2.717h-.095c-.867 1.323-1.966 2.316-3.266 2.958-1.314.658-2.814.98-4.482.98-1.01 0-1.94-.147-2.767-.458-.84-.297-1.57-.73-2.156-1.3-.61-.57-1.084-1.268-1.43-2.094-.335-.832-.504-1.778-.504-2.862zM604.612 524.9c0-.375.008-.8.05-1.274.03-.48.15-1.106.32-1.907l2.87-13.665h5.59l-2.937 14.145c-.145.642-.224 1.235-.224 1.804 0 .963.24 1.66.682 2.11.45.448 1.06.657 1.813.657.49 0 .994-.063 1.516-.208s1.028-.385 1.54-.722c.506-.337.995-.785 1.477-1.33.473-.546.897-1.22 1.307-2.03.257-.545.513-1.178.72-1.9.242-.72.45-1.587.676-2.598l2.053-9.927h5.598l-3.312 15.99c-.056.312-.12.592-.145.85-.032.255-.048.456-.048.6 0 .41.104.715.337.907.217.185.538.272.954.272.465 0 1.026-.04 1.684-.128l-.962 4.5c-1.002.2-1.933.312-2.76.312-1.29 0-2.284-.32-2.958-.964-.674-.624-1.066-1.53-1.154-2.717h-.104c-.865 1.323-1.948 2.316-3.264 2.958-1.307.658-2.807.98-4.482.98-1.01 0-1.924-.147-2.767-.458-.835-.297-1.55-.73-2.157-1.3-.61-.57-1.067-1.268-1.404-2.094-.348-.832-.508-1.778-.508-2.862zm11.692-27.936c-.17.746-.248 1.372-.248 1.876 0 1.63.705 2.447 2.116 2.447 1.043 0 1.973-.386 2.775-1.123.785-.746 1.427-1.805 1.9-3.2h5.34c-.897 2.734-2.196 4.836-3.953 6.278-1.74 1.46-3.89 2.183-6.432 2.183-.97 0-1.86-.13-2.678-.394-.825-.265-1.53-.65-2.142-1.178-.593-.53-1.06-1.188-1.395-1.973-.33-.804-.498-1.717-.498-2.76 0-.674.08-1.396.208-2.157h5.006zM659.077 530.78c-.706-.21-1.268-.554-1.7-1.035-.417-.49-.683-1.18-.755-2.068h-.096c-.866 1.323-1.973 2.316-3.27 2.958-1.31.658-2.808.98-4.477.98-1.02 0-1.95-.147-2.79-.458-.818-.297-1.548-.73-2.143-1.3-.6-.57-1.082-1.268-1.418-2.094-.338-.833-.507-1.778-.507-2.862 0-.375.008-.8.064-1.274.04-.48.152-1.106.328-1.907l2.855-13.665h5.597l-2.95 14.145c-.145.642-.21 1.188-.21 1.668 0 1.034.226 1.78.675 2.23.457.456 1.05.673 1.82.673.73 0 1.516-.16 2.316-.488.787-.33 1.55-.93 2.254-1.78.545-.666 1.05-1.507 1.5-2.535.448-1.025.817-2.31 1.138-3.864l2.078-10.047h5.588l-3.343 16.142c-.057.33-.097.568-.104.722-.017.152-.033.28-.033.368 0 .538.137.9.417 1.1.28.2.722.288 1.34.288.176 0 .464-.008.85-.04.393-.032.817-.08 1.25-.17l-2.622 12.615h-5.42l1.765-8.3zM690.382 513.764c0 1.282-.313 2.438-.93 3.448-.625 1.026-1.556 1.893-2.768 2.614-1.21.713-2.71 1.267-4.507 1.636-1.77.385-3.823.577-6.15.577-.27 0-.617-.01-1.018-.025v.136c0 .845.11 1.573.36 2.19.24.635.593 1.147 1.066 1.532.465.4 1.026.69 1.69.866.667.185 1.42.272 2.23.272 1.234 0 2.534-.145 3.896-.45 1.355-.304 2.543-.704 3.553-1.21l-1.018 4.933c-.987.4-2.102.72-3.353.962-1.268.24-2.606.37-4.025.37-1.685 0-3.16-.234-4.403-.69-1.26-.467-2.286-1.1-3.104-1.925-.802-.834-1.41-1.82-1.795-2.952-.41-1.146-.603-2.405-.603-3.768 0-1.22.128-2.43.377-3.633.257-1.195.626-2.35 1.114-3.44.49-1.107 1.09-2.116 1.828-3.063.722-.946 1.564-1.75 2.527-2.438.946-.69 2.02-1.236 3.208-1.63 1.186-.392 2.47-.592 3.864-.592 1.21 0 2.31.15 3.288.456.98.29 1.813.722 2.502 1.268.682.537 1.21 1.203 1.604 1.973.38.772.566 1.637.566 2.584zm-5.63 0c0-.514-.216-.97-.625-1.348-.416-.385-1.026-.57-1.86-.57-.642 0-1.29.13-1.95.378-.647.257-1.257.626-1.842 1.13-.57.507-1.092 1.1-1.55 1.82-.464.724-.824 1.548-1.09 2.486 1.668 0 3.09-.112 4.227-.336 1.123-.226 2.045-.513 2.742-.882.69-.37 1.188-.786 1.492-1.235.304-.48.457-.946.457-1.443zM706.732 531.02l1.973-9.478h-8.974l-1.972 9.478h-5.59l4.756-22.965h5.59l-1.83 8.724h8.998l1.813-8.725h5.604l-4.78 22.965h-5.588zM740.7 511.494c.978-1.3 2.14-2.285 3.448-2.975 1.33-.69 2.75-1.035 4.218-1.035.938 0 1.788.136 2.56.393.745.265 1.4.642 1.946 1.154.546.498.987 1.123 1.284 1.845.296.722.44 1.563.44 2.51 0 .585-.048 1.235-.16 1.94-.104.714-.233 1.42-.377 2.14l-2.823 13.553h-5.59l2.8-13.454c.16-.763.256-1.372.32-1.83.056-.456.07-.85.07-1.17 0-.328-.03-.625-.127-.914-.08-.29-.216-.537-.408-.745-.185-.218-.45-.385-.746-.506-.32-.127-.722-.2-1.163-.2-.954 0-1.845.273-2.68.81-.84.53-1.57 1.268-2.164 2.206-.32.474-.602 1.003-.827 1.604-.24.6-.456 1.323-.625 2.156l-2.485 12.044h-5.598l2.807-13.454c.16-.763.272-1.372.32-1.83.05-.456.073-.85.073-1.17 0-.328-.04-.625-.12-.914-.09-.29-.233-.537-.418-.745-.184-.218-.45-.385-.753-.506-.313-.127-.714-.2-1.163-.2-.873 0-1.69.232-2.477.683-.795.465-1.476 1.09-2.07 1.908-.393.514-.73 1.116-1 1.78-.29.675-.515 1.468-.716 2.358l-2.5 12.092h-5.605l4.77-22.965h4.765v2.887h.095c.377-.45.81-.89 1.315-1.308.506-.417 1.067-.794 1.652-1.1.6-.32 1.218-.576 1.908-.76.69-.193 1.387-.29 2.108-.29 1.403 0 2.59.345 3.577 1.035.978.688 1.65 1.675 2.012 2.974h.105zM773.232 507.485c.994 0 1.9.2 2.727.608.817.393 1.522.954 2.124 1.66.585.723 1.05 1.588 1.37 2.614.322 1.026.49 2.173.49 3.432 0 1.203-.13 2.437-.353 3.704-.248 1.268-.6 2.47-1.05 3.64-.473 1.172-1.06 2.28-1.732 3.305-.682 1.026-1.46 1.924-2.357 2.678-.89.77-1.89 1.38-3.014 1.82-1.106.44-2.294.666-3.56.666-1.012 0-1.926-.146-2.752-.457-.818-.297-1.516-.7-2.076-1.18h-.097l-2.517 12.06h-5.59l7.04-33.982h4.805v2.887h.104c.328-.434.707-.867 1.156-1.283.416-.42.905-.787 1.442-1.108.536-.32 1.123-.568 1.765-.77.617-.193 1.324-.297 2.077-.297zm-9.414 18.203c.44.377.947.698 1.516.946.602.257 1.26.377 1.972.377.715 0 1.39-.16 2.02-.464.635-.32 1.204-.754 1.717-1.314.514-.546.97-1.188 1.37-1.926.403-.737.755-1.515 1.028-2.35.29-.825.498-1.684.642-2.558.145-.874.21-1.73.21-2.565 0-1.14-.21-2.054-.627-2.727-.433-.675-1.098-1.02-1.996-1.02-.795 0-1.62.266-2.48.82-.856.536-1.644 1.33-2.333 2.38-.408.61-.777 1.323-1.083 2.125-.32.81-.593 1.74-.81 2.784l-1.146 5.494z"/></g><g fill="#58595B"><path d="M784.604 308.016c-3.448-.433-51.305-5.945-51.81-6.02l10.12-16.71h-33.047c-5.404-9.638-7.016-20.788-7.49-26.188 1.975-6.415 3.016-13.103 3.113-19.82.568 3.485 2.47 19.415 2.47 19.415.03.47.103 1.095.584 1.41.418.33 1.06.342 1.516.037.506-.297.57-.906.698-1.36.12-.48 1.868-8.195 1.1-22.428-.723-13.287-2.318-26.743-7.37-39.1-3.865-9.446-27.97-29.345-47.368-35.1-1.604-.476-3.176-1-4.81-1.395-1.637-.368-45.476-7.493-54.177-8.27-.232-.822-1.034-3.777-2.838-5.197-1.188-.93-11.523-3.576-14.98-4.64-3.43-1.053-6.863-2.14-10.296-3.283-1.71-.573-3.408-1.138-5.1-1.744-1.71-.58-3.353-1.19-4.756-2.3-1.034-1.34-3.697-4.25-8.726-4.917-3.535-.473-8.46.718-10.104 1.138-6.552 1.58-12.854 4.01-19.02 6.704-21.442-7.45-34.314-32.82-35.38-35.03-6.207-12.915-16.27-26.79-20.456-30.416-7.858-6.844-21.33-11.996-25.933-13.728l-.857-.32c-.266-.13-.69-.237-1.075-.186-.833.1-1.34.726-1.65 1.476-.306.742 1.58 5.1.28 6.788-.17.196-.37.256-.7.637-.264.316-.415.7-.423 1.094-.057.802.505 1.6 1.21 1.85 4.5 1.88 9.23 3.54 12.967 6.635 4.563 3.775 16.968 14.54 21.57 36.87.898 4.818 1.805 9.62 3.272 14.34 1.44 4.7 3.383 9.295 6.093 13.445 2.037 3.103 4.555 5.954 7.537 8.19-1.146-.384-14.418-4.565-26.245-15.37-1.242-1.147-2.293-2.59-4.04-3.453-1.95-.966-2.864.665-2.97.874-1.21 2.518 2.183 6.836 2.688 7.545 4.25 5.514 9.343 10.18 14.675 14.516 2.687 2.165 5.493 4.186 8.46 5.97 2.918 1.86 6.294 3.14 9.662 3.87 6.728 1.51 13.585 2.008 20.408 2.18.81.253 3.184 1.007 3.624 2.75.05.354-1.362 6.616-3.977 9.523-.562.624-2.55 1.623-4.618 2.052-.972-.064-1.94-.032-2.943.157-.946.19-4.122.917-3.89 2.86.13.84.89 1.304 1.708 1.392 2.42.26 9.054 4.503 12.285 6.543 3.27 2.04 6.447 4.21 10.016 5.902.906.42 1.884.746 2.91.906.93.153 1.973.24 2.92.29 1.812.08 3.576 0 5.348-.166 1.308 4.118 3.97 10.128 6.85 13.42 9.013 10.316 10.544 14.86 10.737 15.444-1.725 2.358-.922 14.61-.922 14.61.088 4.852 1.307 22.14-5.108 31.96-.915 1.388-1.668 2.81-2.15 4.326-.48 1.515-1.37 7.75-1.482 9.298 0 0-1.154 6.455-6.472 6.455h-56.39c-3.983 0-9.71-8.336-9.78-8.457-.9-10.86-2.688-25.705-2.688-25.705.056-.083 10.834-8.957 14.514-16.182 1.37.762 6.728 4.062 13.48 6.724-.105 4.058-1.477 22.602-2.158 24.458-2.95 5.717-5.197 7.028-5.492 7.554-.32.573-.44 1.234-.24 1.824 1.658 4.663 7.192 7.097 8.227 7.4 3.864 1.11 5.21-1.86 5.917-2.89.698-.994 1.308-2.125 1.845-3.215 1.025-2.24 8.395-19.978 9.044-46.65.033-1.226-2.814-20.038-8.22-30.454-1.7-3.276-9.613-9.567-14.096-11.64-1.115-.51-2.285-.986-3.52-1.243-1.187-.276-2.534-.417-3.753-.104-2.374.573-4.627 1.45-6.775 2.605-2.863-2.057-9.11-6.85-18.708-6.423-3.097.132-7.955 3.407-10.618 5.805-2.63 2.36-4.955 5.024-7.056 7.83-8.7.987-32.798 3.44-43.992 6.436-2.262.602-5.564 2.947-7.25 4.395-3.407 2.915-18.21 15.144-18.643 34.27-.104 4.494-.52 15.868 2.927 17.564 1.235.598 2.95-2.594 3.096-2.778.104 1.37 1.307 7.097.97 9.446-.713 4.944-6.848 10.604-16.687 10.965h-21.035c-4.45 0-6.198-5.75-6.415-6.475-.256-2.16-3.288-24.153-3.97-32.252-1.3-15.4-9.694-30.2-9.694-30.2 11.37-8.266 21.82-27.26 24.12-29.432 2.815-2.618 14.644-9.69 19.59-11.952 9.255-4.23 20.562-3.572 22.462-3.308.793.064 2.807.297 3.407-.296.306-.285.586-1.884-2.253-6.944-1.38-2.454-3.16-4.715-5.284-6.56-11.45-9.86-9.286-12.677-9.142-13.186.546-.245 1.29-.27 1.95-.333.68-.043 22.964-.128 31.208-1.35 5.5-.807 11.05-1.765 16.206-3.926 2.582-1.142 4.98-2.52 7.44-3.836 1.22-.67 5.07-2.814 6.272-3.79.145-.108.626-.457.577-1.05-.024-.42-.65-.926-.826-1.042-.37-.213-1.868-1.067-7.93-.954-3.016.056-6.04.256-9.022.49-3 .223-6.007.476-9.006.757-1.46.136-2.926.273-4.386.385 2.84-.658 17.177-4.398 20.953-7.044.45-.36 1.564-.846 1.268-2.025-.176-.725-1.13-.945-1.282-.973-1.22-.133-2.294-.004-3.424.072-2.222.187-14.747 1.666-19.06 1.334 10.006-10.18 9.95-30.797 10.006-34.738.16-10.204-3.568-16.442-8.115-22.164-2.47-3.123-8.477-9.414-20.696-10.94-20.586-2.59-27.946 11.883-29.96 15.307-.985 1.7-8.396 17.95-11.764 19.48-1.74.794-5.613 1.175-6.398-.216-.513-.898 1.106-2.98 1.748-3.72.625-.722 2.646-1.877 3.656-2.234.37-.132.946-.216 1.508-.396 3.745-1.25 3.23-3.537 2.422-4.54-2.76-3.43-13.8-9.2-16.984-7.673-.826.56-1.194 1.702-1.106 2.52.032.95 1.106 3.853 1.22 4.61.224 1.43.023 4.787-2.43 8.476-1.75 2.654-2.687 6.026-2.142 9.31.777 4.975 4.025 7.38 4.498 7.75-2.293 2.17-5.444 3.412-8.604 3.06-1.66-.15-10.145-3.08-15.653-.74-7.016 2.984-8.7 10.582-9.253 12.162-8.764 4.72-18.636 7.674-28.644 7.63-10.096-.005-20.207-.74-30.343-.37-5.06.168-31.402.738-58.17 15.533-8.868 4.9-16.317 12.053-23.446 19.282-7.04 7.213-12.605 14.674-17.07 24.943-3.377 7.766-4.09 32.087-4.597 49.252-.128 4.29-.44 7.918-.208 11.166.103 1.552.608 1.656 1.05 1.776.425.1.938-.017 1.187-.2 2.213-1.717 5.31-8.978 6.23-11.027 1.107 4.105 2.18 8.23 3.015 12.39.2 1.114.41 2.256.45 3.342.008 1.075-.305 2.15-.85 3.104-1.067 1.927-2.808 3.475-4.716 4.653-3.985 2.266-7.875 4.788-12.133 6.44-2.07.805-4.458 1.31-6.4 2.858-.953.747-1.723 1.85-2.035 3.05-1.114 4.383 2.125 13.33 2.654 14.756H90.388l10.416 17.172c-26.96 2.967-43.96 5.59-44.11 5.605v1.194l364.255.602 364.248-.603v-1.194c-.202-.023-.394-.03-.594-.047zm-353.03-177.372c-1.388.465-12.63 5.978-26.286 6.102-11.323.096-25.083-2.17-29.958-2.927-.17-.146-1.02-.558.07-1.613.956-.922 1.99-1.05 1.99-1.05 8.476 2.02 19.156 2.314 21.586 2.398 8.814.296 32.533-2.904 32.597-2.91zM204.51 285.287h-47.495c.553-3.837 11.78-22.577 34.128-33.924 8.644 7.373 23.327 29.184 13.367 33.924zm58.946-6.548s-1.14 6.546-4.137 6.546H242.8c-2.75 0-6.775-6.44-6.775-6.44s-7.77-22.628-8.106-23.863c-.37-1.24-.482-2.37-.37-3.62.217-2.326.97-4.644 1.917-6.853 0 0 23.038.104 35.924-6.99-.68 2.22-2.67 9.508-2.798 11.04-.128 1.536.995 27.345.866 30.18zm49.524 19.914c-.023-.036-1.042-1.788-1.77-4.744-.78-3.203 2.067-7.313 1.932-10.6 0-.05-20.03-25.285-23.96-43.038-1.203-5.373-2.51-14.47-3.4-14.47-.69 0-2.71 4.194-3.585 7.518-4.58-2.518-15.1-16.178-19.094-24.758-7.265-15.524-6.735-25.592-4.32-30.22.062-.116.038-.328-.14-.456-.247-.173-.656-.153-.85 0-.72.53-2.693 3.247-4.056 8.42-1.94 7.356 3.11 23.895 3.833 26.048-1.99-3.05-3.825-6.182-5.518-9.41-.08-.165-.28-.252-.69-.088-.4.16-.473.336-.44.537.658 3.208 3.905 10.78 4.884 12.814-.498 1.075-7.98 11.074-23.673 13.804-18.443 3.213-31.755-.985-31.755-.985v.008c-.37-.806-3.536-7.5-9.582-15.496-2.013-2.654-10.473-11.63-10.473-11.63-.04-.025-.337-.273-.626-.053-.312.257-.047.634-.022.666 0 0 4.507 4.267 9.59 20.545-1.098-2.182-2.47-4.214-3.864-6.14-2.695-3.72-5.813-7.03-9.134-10.07-3.384-2.98-6.912-5.746-10.737-8.083-.08-.06-.208-.04-.272.04-.087.096-.08.24.017.32 0 0 10.48 8.793 17.112 19.77 4 6.6 5.677 16.175 5.812 18.59-2.028 3.07-5.012 6.735-9.486 10.833-6.455 5.938-25.363 20.11-25.363 20.11s-3.12 2.427-4.065 3.325c-.137.125-.337.365-.12.726.176.285.617.2.802.12.842-.356 3.047-1.647 3.047-1.647s-4.723 3.816-5.004 4.068c0 0-.473.353-.185.786.272.393.634.232.803.156 1.492-.725 5.814-3.14 5.814-3.14l-8.06 6.556s-.465.377-.096.826c.385.46.817.16.817.16l7.09-3.84c-1.63 5.275-3.08 12.65-4.7 24.304 0 0-15.355 4.354-24.963-27.288-.376-1.255 28.588-19.237 28.123-21.033-1.396-5.4-2.863-11.183-3.473-15.324-1.322-9.02-2.045-31.272-2.935-31.578-1.885-.63-4.33 8.34-4.37 6.6-.08-4.126 3.496-14.77 4.467-18.368 9.76-35.683 37.567-49.28 44.89-52.635 17.593-8.072 47.11-8.12 49.523-8.26l-10 8.163c-.03.02-.224.205-.08.48.2.293.426.225.48.21.747-.206 13.625-7.52 13.625-7.52S227.15 148.6 227.077 148.68c0 0-.232.2-.08.53.192.315.52.19.52.19.153-.05 27.09-14.53 27.09-14.53s-25.686 20.866-25.78 20.958c0 0-.266.232-.09.593.177.336.586.208.586.208.513-.245 38.098-20.953 38.098-20.953-.464 1.74-3.415 14.08 2.07 23.123 4.506 7.465 15.748 11.976 19.39 13.275 0 0-3.097 2.43-4.06 3.316-.127.11-.28.29-.04.692.218.325.49.28.756.164.793-.336 3.015-1.664 3.015-1.664s-4.73 3.82-5.003 4.078c-.145.128-.28.425.024.78.24.29.563.19.706.102 1.428-.782 5.7-3.076 5.7-3.076s-6.037 4.896-8.042 6.532c-.16.14-.393.537-.088.894.2.25.626.22.794.108.4-.26 22.372-12.092 22.372-12.092s.37-.197.37-.734c0 0 .23-19.71 2.004-23.925 1.45-3.525 4.747-3.485 5.084-3.545.265-.06.705-.385.658-.894-.033-.78-.947-.83-1.075-.845-.98-.11-4.274.072-6.263 1.864-3.81 3.45-3.593 14.95-3.713 17.312-.063 2.325-.36 4.647-1.21 6.748-.434 1.02-.907 3.62-4.933 2.506-2.213-.622-19.71-6.556-22.798-14.73-4.747-12.606 3.007-23.77 4.98-24.91 3.93-2.287 16.382-5.37 18.812-7.378 3.4-2.834 2.8-12.538 9.278-15.007 4.378-1.675 11.21.03 12.75.01 3.616-.05 8.188-2.07 8.188-2.07s-.938.71-1.123 1.03c-.15.43-.07.718.226.967.272.236.546.224.546.224.055-.007-2.11 1.765-2.11 1.765s-.448.445-.096 1c.37.572.714.5.97.404.867-.362 3.336-1.785 3.336-1.785s-4.683 3.46-5.966 4.908c-.256.276-.176.766-.032.95.498.618.93.425 1.22.273 2.085-1.155 21.073-11.616 21.073-11.616.53-.092 4.154-.653 6.76-2.077 3.665-2.004 7.04-6.343 7.04-6.343.538.225 8.59 3.336 16.632.257 2.7-1.035 5.283-2.586 7.328-4.683 2.076-2.097 3.616-4.707 4.386-7.554 1.66-5.63-.393-12.605-6.102-15.392-3.048-1.215-5.766-.08-8.524 1.993-6.046 4.52-16.134 22.37-17.714 24.093-3.19 3.524-9.142 8.484-17.777 6.335-1.14-.28-13.143-4.166-7.17-14.618 1.044-1.845 2.19-4.54 2.447-7.068.112-1.263.063-2.56-.2-3.817-.13-.618-.618-1.98-.642-2.057.56.252 7.93 4.01 9.5 4.93-.576.157-4.762.87-7.143 4.997-2.432 4.202-1.116 6.44-.627 6.952 2.053 2.16 5.726 1.576 6.872 1.488 7.298-.577 10.416-9.286 12.373-13.32 2.317-4.722 7.25-12.26 13.15-16.153 5.88-3.925 13.288-5.26 20.225-3.978 3.472.625 6.815 1.888 9.814 3.75 2.983 1.855 5.702 4.23 7.818 7.052 4.042 5.352 5.605 11.848 5.78 13.21-.487-1.143-2.044-5.008-3.68-4.233-.89.4-.44 1.54-.248 1.996.32.733 1.596 9.51-.345 17.02-.545 2.148-1.14 4.3-1.86 6.407.425-2.105.377-4.852.337-5.297 0-.08-.153-.702-.812-.734-.682-.047-.89.582-.897.622 0 0-1.74 5.096-2.356 6.56-1.228 2.943-2.67 5.793-4.596 8.26-.978 1.246-8.37 6.655-16.566 7.945-6.167.963-13.85 8.516-16.35 10.542l-2.375 1.88-.008.012s-.666.538-.217 1.243c.505.786 1.242.32 1.242.32l.016-.007.635-.337c0 .024-.144.317.153.585.456.43 1.002.13 1.002.13l.016-.005 1.05-.55c-.28.598-1.932 5.097-2.573 5.434-.36.19-2.085.48-3.85-.262-1.362-.577-8.21-7.056-11.482-8.456-1.787-.762-4.137-.738-5.66-.12-1.154.472-2.855 1.964-4.258 2.565-.225.104-1.636.336-1.187 1.496.305.785 1.034.577 2.196.345.955-.205 3.546-2.655 6.513-1.917.69.174 3.088 2.708 4.242 4.448.577.89 5.124 10.372 11.587 16.145 5.43 4.855 21.21 6.804 22.58 9.6.01.015-7.874.175-9.718.408-1.852.254-11.138.723-14.394 2.703-3.368 2.045-5.613 6.476-15.316 5.906-3.416-.205-20.456-2.174-25.9-14.202-.354-.774-1.323-2.578-1.5-2.882-.176-.24-.473-.453-.874-.337-.457.11-.633.536-.65.79-.096 1.583.17 2.926 1.052 6.242.897 3.41 3.528 11.475 4.258 12.938.946 1.873 4.146 3.13 5.565 3.6 0 0-2.67 2.082-3.48 2.868-.13.12-.185.517-.057.697.37.43.818.188.818.188l.77-.42s-3.52 2.778-4.153 3.423c-.112.113-.137.438.016.654.096.12.4.29.576.208 1.284-.573 4.98-2.678 4.98-2.678l-7.778 6.355c-.04.04-.514.393-.112.846.28.293.57.13.57.13.27-.125 10.15-5.602 10.15-5.602-.136 2.068-.905 6.82-4.876 11.8-2.79 3.52-6.583 6.17-10.6 8.186-1.492-1.503-7.547-7.197-7.547-7.197s-.52-.666-.922-.31c-.352.322.193.863.193.863s6.656 8.573 9.35 12.55c2.694 3.997 5.053 8.195 7.098 12.54 3.946 8.413 6.6 24.82 6.785 26.873-1.364-2.618-6.047-11.66-10.98-15.17-.352-.25-.81-.543-1.113-.663-.08-.032-.25-.052-.37.092-.175.208.018.485.05.514 7.328 10.023 6.75 9.795 8.708 15.713l-3.15 2.67c-.073.07-.09.083-.146.244 0 .104.016.196.12.285.008.02.13.123.297.09.138-.007 2.72-1.475 2.72-1.475s-4.547 3.697-4.66 3.793c-.07.068-.248.272-.103.465.217.29.546.056.617.008l5.518-2.986-8.003 6.55c-.113.082-.242.217-.113.43.112.193.448.048.545-.004.257-.148 9.534-5.36 9.534-5.36s3.513 17.85 4.724 28.234c.36 3.043 3.07 6.864 3.665 7.558 1.555 1.925 2.926 3.993 4.153 6.14-2.703.018-24.996.322-24.996.322zm47-204.46c2.99-4.6 12.845-18.588 14.41-20.368 1.53-1.736 3.768-2.065 5.41-1.548 1.284.41 3.088 2.217 3.112 5 .024 5.024-3.6 11.88-13.03 15.164-3.655 1.275-8.54 1.67-9.903 1.752zm133.456 149.703c-.256-2.374 1.604-4.623 1.99-5.333.93 6.283 3.31 9.094 3.198 9.053-.697-.304-4.777-3.3-5.188-3.72zm-54.014-29.766c.09-1.506 2.775-5.04 3.77-6.454 2.228-2.807 4.62-5.52 7.2-7.963 1.315-1.2 4.49-4.122 7.61-4.57 5.51-.806 15.332 2.802 21.186 6.823 0 0 .674.43 1.188-.136.393-.438.072-1.087-.112-1.247-.52-.498-1.06-.963-1.604-1.42 2.382-.413 4.932-.396 5.412-.377 5.59 1.352 14.547 5.982 17.24 8.86 1.372 1.424 2.174 3.236 2.863 5.12 3.98 10.914 5.63 25.47 5.64 26.467.007 1.006-.1 2.008-.178 3.01-.467 4.14-4.1 32.597-7.588 40.857-.4.95-3.047 5.1-3.592 5.777-.497-.28-3.722-1.612-4.844-4.92 1.884-2.108 3.44-4.59 4.042-7.2 1.41-6.227 1.395-21.398.874-25.516 3.143 1.06 5.493.935 5.958.912.61-.073 1.09-.538 1.227-.995.225-.61.056-1.174-.345-1.587-.225-.208-5.693-3.05-8.195-9.02-.417-.952-.762-4.05-.762-4.05 0-.01.057-.398-.264-.546-.137-.064-.337-.016-.4.013 0 0-3.865 1.55-5.79 6.355-2.157-1.596-11.05-6.712-13.664-9.065-2.07-1.845-3.473-4.363-3.994-7.073-.6-2.678-.32-5.55.867-8.01l.007-.013.008-.01c.128-.246.008-.583-.24-.706.024-.017-.314-.11-.4-.04-.09.01-.193.1-.242.164-7.04 5.064-6.414 8.725-6.414 8.725v.028c.207 1.982-1.445 13.717-5.174 16.72-.713.574-1.86 1.5-3.432.902-.32-.128-1.026-.938-1.17-1.3-1.87-4.782-9.28-14.43-11.22-17.32-1.894-2.895-5.678-7.83-5.47-11.19zm20.385 44.08s-.62.462-.37.9c.12.272.353.344.513.344-.04.032-.27.208-.225.558.08.224.185.304.21.316 0 0-2.695 2.13-2.848 2.44-.104.25.016.435.104.526.28.265.56.14.56.14l3.25-1.73c-.843 1.867-4.147 10.062-5.23 12.127-.785 1.485-6.423 4.81-6.984 5.19-.097.103-.177.368-.064.533.21.344.562.208.618.172 0 0 2.774-1.283 3.648-1.716-.89 1.627-1.73 3.312-2.422 5.043-.785 1.91-1.476 3.89-1.747 5.966-.192 1.03.393 5.78-.44 8.972-6.585-.024-13.16-.064-19.735-.1 2.86-4.555 7.794-6.463 8.42-6.64.16-.044.304-.08.465-.104.08-.013.562-.037.593-.185.064-.28-.697-.71-.857-.766-1.164-.37-2.366-.064-3.36.562 2.71-5.426 6.95-25.654 7.56-37.34.058-1.13.058-2.282.218-3.32.457-2.75 2.814-7.598 2.814-7.598s.057-.425-.272-.61c-.48-.268-.794.15-.794.15-.377.432-3.128 3.556-4.378 6.294 0 0-1.1-1.736-1.443-2.226-.24-.41-.546-.81-1.123-.577-.52.25-.29.986-.29.986s.16.84.186 1.125c.225 2.262.24 8.23-1.18 10.425-1.178 1.808-4.497 2.975-7.745 3.83-2.18.568-7.826.556-9.214.395-3.657-1.396-6.544-6.896-8.557-9.017-1.25-1.343-2.903-2.434-2.903-2.434s-.44-.326-.882.004c-.642.46-.265 1.142-.24 1.166 0 0 .633 1.067.922 1.544-.4-.21-2.414-1.123-3.056-1.307-.12-.023-.777-.28-1.14.273-.367.573.058 1.01.13 1.082l.77.734c3.184 2.55 4.153 7.878 4.25 8.375.112.513 4.804 15.877 5.092 17.317 2.59 13.21 2.133 17.296 2.486 17.846-3.906.016-7.818.036-11.724.047-.826-.638-1.684-1.997-1.684-1.997l-.01-.016c-1.025-3.305-2.838-17.1-2.87-17.963 0 0-.008-.79-.08-.947-.144-.26-.377-.25-.4-.252.128-.256 2.438-2.02 2.573-2.28 0 0 .2-.237.153-.52-.04-.258-.297-.306-.346-.314-.176-.06-1.065.25-1.154.32.77-.96 1.21-1.667 1.788-2.444.024-.072.272-.473-.03-.746-.274-.245-.892.265-.892.265l-4.707 3.54c-7.98-2.958-17.723-19.565-17.723-19.565l-.754-1.375c-.104-.145-.208-.252-.433-.26-.32-.008-.418.244-.45.29 0 0-1.218 2.356-1.298 2.537-1.98-21.446 14.738-35.516 16.246-36.927 1.483-1.396 3.08-2.682 4.883-3.544 4.195-.918 17.73-3.436 20.305-3.79l-1.988.65c-.232.08-.393.293-.393.54.016.31.265.555.577.546 4.106-.055 8.23-.06 12.334.005l-3.095 2.522-.018.02s-.368.416-.072.95c.16.292.458.34.514.353l-1.885 1.56s-.346.55-.065 1.026c.21.364.57.412.883.384l.016-.004 4.146-2.18-4.33 3.555c-.25.39-.128.982.104 1.163.457.365 1.042.117 1.042.117l7.9-4.354c-.09 1.088-.322 6.003.712 7.984 1.74 2.706 5.662 5.232 6.832 6.182 6.36 5.2 12.902 12.498 12.847 12.55-.562.45-4.21 3.412-4.21 3.412s-.69.425-.368 1.126c.174.414.415.46.487.486 0 0-.754.437-.498 1.215.12.445.602.545.705.57 0 0-1.82.97-1.17 2.016.474.767 1.475.173 1.475.173s12.983-5.813 16.23-10.312c1.757-2.425 2.84-7.33 3.176-9.21 1.908 3.485 5.092 6.09 5.092 6.09l-2.077 1.78c-.015-.015-.27.407-.143.788.112.35.288.4.328.445 0 0-.393.333-.313.782.048.345.217.485.37.573.007.008.015.004.015.004l-2.045 1.72c.017-.036-.408.46.032.998.298.365.754.205.754.205l1.09-.573c-3.304 3.41-11.7 10.42-11.7 10.42zm28.144-100.668c-2.422-.858-13.224-6.72-19.534-13.042-1.86-1.872-7.474-7.458-8.363-8.452-.417-.49-1.532-1.92-1.597-2.14 2.735 2.922 5.695 5.648 8.806 8.166 3.4 2.674 15.588 11.114 22.525 12.766 4.37.926 8.677.614 12.936-.072 1.69.813 3.303 1.672 4.795 2.807 1.47 1.11 2.848 2.43 3.665 4.085-5.252-.352-16.808-1.828-23.23-4.118zM645.236 277.04c-.482 2.758-2.182 7.994-7.7 8.123-.472.012-32.282.124-32.282.124-3.24 0-9.47-12.168-6.367-25.203.746-3.2 1.195-6.483 1.908-9.7 7.01 3.5 33.04 2.823 39.718 2.59.104 1.076 4.522 11.685 5.108 15.794.306 2.045-.097 6.648-.384 8.272zm55.795-62.46c-.337-.244-.785-.308-1.21-.244-.818.076-1.564.862-1.58 1.705-.063.433 1.885 6.6 2.165 7.915 0 4.178-.24 18.896-1.932 25.047-1.757 6.427-6.938 17.505-7.538 23.218l-4.676-7.662-.032-.02c0-.005-.2-.273-.577-.1-.176.08-.273.356-.24.525 0 0 2.326 10.15 2.79 15.14.386 4.23 1.09 8.495.69 12.705-.13 1.046-1.7 5.116-2.847 6.8-1.114 1.664-3.12 3.016-3.12 3.016-6.334-.245-12.653-.486-18.988-.702.2-.34 6-6.86 7.21-8.91.296-.513.544-1.082.608-1.72.04-.653 2.157-9.045 2.863-11.054l12.035 6.36s.62.364.892.076c.193-.2.256-.538-.137-.875l-12.39-10.076 4.965 2.734c.17.077.457.084.69-.184.168-.34-.08-.642-.217-.706l-4.58-3.737s.643.37 1.027.566c.393.205.6.11.737-.064.265-.292-.04-.702-.176-.758l-8.876-7.237c-.954-3.28-3.602-16.756-4.106-20.16.69-11.287 17.697-22.044 22.887-24.762v-.004l.023-.015c.24-.112.313-.465.185-.653-.032-.077-.216-.232-.33-.232-.127-.017-.255.02-.287.028l-.722.22c-.465.133-.938.3-1.42.458-.946.32-1.867.673-2.807 1.046-1.836.758-3.632 1.568-5.42 2.482-1.756.918-3.49 1.924-5.124 3.042-1.652 1.12-3.2 2.362-4.69 3.66l-.643.37c.328-.46.666-.926.962-1.42.233-.388.49-.78.69-1.193l.328-.61c.064-.1.12-.46-.145-.604-.023-.025-.03-.033-.087-.05-.064-.02-.146-.03-.21-.03-.11.012-.216.067-.305.15l-.008.017-.008.01.008-.014c-2.26 2.606-7.897 8.392-17.008 11.33-5.332 1.152-21.818 3.076-32.492-1.085-2.125-.818-7.09-5.766-7.09-5.766l3.803 2.1s.385.213.625.03c.377-.35.016-.72-.08-.774l-6.552-5.35s3.104 1.833 3.48 1.79c.082-.013.313-.13.33-.306.056-.4-.177-.537-.177-.537l-7.13-5.793c-.176-2.322-.505-11.69-.553-12.293-.047-.314-.08-1.175-.624-1.244-.458-.06-.683.473-.738.625-.32 1.104-3.665 4.335-4.604 5.024-1.804 1.31-3.704 2.486-5.653 3.573-.6-2.75-2.845-7.24-3.03-7.554-.232-.39-.92-.393-1.154.064-.12.196-.08.473-.05.582l.5 2.62c.656 4.02 3.855 13.553-5.19 27.414-.816 1.247-1.915 4.194-2.34 5.605-.217-2.25-1.147-8.18-1.604-9.62-.097-.25-.513-.345-.64-.253-.283.045-.387.465-.362.53 0 0-.185 3.608-.313 5.008-.465 5.633-1.234 11.242-2.46 16.75-1.22 5.506-2.937 10.918-5.51 15.91-2.262 4.37-6.344 7.655-6.512 7.823-.024 0-.184.292-.145.41-.008-.02.04.232.145.328l1.387 1.604s5.124 4.066 5.542 12.746l-22.31-.37c-.232-3.6 2.823-6.21 1.7-10.984-1.266-5.36 3.93-14.253 3.93-14.253l9.31 4.947s1.01.61 1.404.112c.336-.45-.13-.9-.273-.975l-4.924-4.042s.675.422 1.14.077c.45-.5-.088-1.007-.2-1.063l-1.756-1.456c.586-.284.33-.885.288-.945-.08-.116-2.854-2.37-2.854-2.37.44-2.886.697-5.825.762-8.736.13-3.008.04-6.05-.24-9.05-.633-5.982-2.382-15.96-1.644-21.07.714-4.86 6.96-17.833 6.96-17.833 0 .04.16-.545-.354-.83-.897-.35-1.05.324-1.122.42 0 0-4.507 7.847-5.757 10.232-1.757-5.337-12.365-15.245-11.452-15.642l8.277 4.366s.545.132.81-.23c.112-.167.28-.688.056-.893-.77-.697-4.595-3.808-4.595-3.808.025 0 .474-.124.562-.58.112-.41-.232-.78-.434-.863 0 0 .715-.338.33-1.136-.112-.317-3.312-2.74-3.312-2.74 6.503-2.633 10.512-13.15 11.024-14.33.13-.243 2.486-9.525-.81-17.2-1.066-2.506-2.518-4.357-2.518-4.357s-.425-.742-1.034-.445c-.674.312-.537.866-.393 1.146 0 0 3.784 6.524 2.27 13.75l-.643 1.01c-2.253 2.365-10.11 12.04-19.18 14.117-4.41.136-10.53-3.797-14.507-6.752l-3.953-3.183s7.617-3.256 8.644-4.034c3.576-2.706 4.876-5.935 7.77-12.125l.01-.003.048-.03c1.105-1.69 4.16-.42 4.77-.25l1.14.33s.616.26 1.042-.414c.385-.62-.474-1.195-.474-1.195-1.09-.782-2.317-1.416-3.576-1.86-1.3-.453-2.79-.574-4.153-.004-1.354.265-2.726.385-4.104.38-3.657-.243-7.707-3.09-9.35-4.36 0 0-8.91-7.282-9.238-7.375-.097-.033-.434.007-.394.007-.553.076-1.18.18-1.813.465-1.932-.63-9.484-5.57-11.217-7.044-16.31-13.82-17.817-30.8-19.39-35.135-.537-2.6-1.94-13.09-2.197-15.757-.04-.356-.337-.633-.713-.63l-.28-.003c-.378.004-.675.285-.715.65-.04.545-.056 1.082-.088 1.627-.297-.926-2.814-9.338-2.814-9.338-.104-.336-.44-.553-.81-.49l-.28.05c-.346.055-.61.368-.595.725.09 1.576.427 5.036.442 5.216-.978-1.856-6.432-11.334-8.965-14.2-4.25-4.8-14.09-9.45-17.04-10.794.754-1.56.585-3.673.585-3.746 4.233 1.665 8.348 3.55 12.445 5.5 9.575 4.584 17.882 16.15 20.61 20.28 2.7 4.11 11.24 21.286 13.357 25.444 5.34 10.464 15.115 18.118 19.253 20.524 4.025 2.342 9.566 4.02 13.224 4.282 4.94.35 18.468-3.548 20.513-3.89 10.36-1.723 15.718.907 17.113 1.508.576.45 3.36 1.977 4.04 2.337 4.065 2.168 30.264 10.532 30.264 10.532s.032.008.04.008c.538.68 2.75 5.82 2.237 14.51-3.504 5.846-9.1 14.21-12.317 18.183-2.99 3.688-10.27 13.11-12.86 12.99-.763-.03-1.757-1.587-2.254-2.742-.482-1.118-.746-2.393-1.075-3.583-1.018-3.657-1.122-14.56-1.114-17.17 0 0 .113-4.457-.216-5.993-.44-2.024-2.333-3.356-3.89-4.258-1.54-.837-3.27-1.395-4.995-1.68 0 0-1.38-.377-1.645.713-.176.765.626 1.094.657 1.11.402.152 4.62 1.832 5.814 3.92 0 0 .395.554.402.778.057 1.002-.65 9.59-.65 9.59-.19 3.28-.296 6.563-.07 9.87.216 3.277.593 6.657 2.044 9.792.705 1.56 1.74 3.035 3.2 4.098.713.525 1.547.95 2.396 1.2.385.127.995.17 1.38.18 5.468.12 13.63-5.534 15.845-7.022 4.298-2.895 8.403-6.03 12.397-9.322l14.634 7.726s.985.662 1.476.084c.505-.61 0-1.163-.137-1.25l-9.896-8.028 2.062 1.135s.738.338 1.1-.284c.337-.573-.225-1.038-.225-1.038l-2.197-1.792 1.49.807s.62.268.972-.473c.217-.465-.217-.854-.4-.962l-7.81-6.355c1.186-4.014 3.68-7.618 6.847-10.373 17.856.998 48.11 5.257 50.862 5.946 15.652 3.91 35.268 20.424 36.165 21.52 7.795 9.65 12.365 28.675 13.087 31.497-.634-1.673-3.474-8.18-5.093-9.342zM56.692 320.397l728.505-5.252-728.505-5.26M785.197 329.41v-12.013l-728.505 6"/><path d="M540.117 147.827c-.97-.934-2.245-1.643-3.497-2.088-1.307-.47-2.718-.655-4.138-.462-.208.036-.4.16-.505.37-.145.324-.017.71.305.865l.024.013c2.19 1.06 4.37 2.16 6.014 3.824.393.417.786.87 1.043 1.375.248.438.425 1.035.53 1.608.167.814.24 1.672.28 2.53-1.092-1.848-2.102-3.784-3.49-5.493-.777-.98-1.795-2.005-3.223-2.266-.777-.092-1.523.104-2.125.694-.49.497-.817 1.24-.938 1.916-.023.192.04.393.208.514.24.164.554.104.73-.125l.016-.028c.25-.36.57-.68.89-.882.105-.048.138-.068.266-.125.05-.004.08-.016.145-.016.12 0 .25.05.4.136.643.385 1.172 1.235 1.62 2.07.49.87.923 1.727 1.356 2.62.144.293.305.582.448.875l-.184-.077c-.683-.272-1.444-.528-1.997-.81-.52-.26-1.066-.725-1.547-1.198-.48-.485-.938-1.022-1.348-1.6l-.017-.016c-.176-.25-.496-.377-.816-.292-.417.116-.658.537-.545.95.304 1.15.84 2.266 1.578 3.204.698.998 1.885 1.684 2.814 2.153 1.027.513 1.997.978 3.048 1.42.504.215 1.034.424 1.556.604.497.17 1.074.434 1.716.377h.03c.162-.036.427-.112.58-.232.175-.116.335-.277.432-.477.097-.192.16-.377.16-.605-.016-.2-.023-.377-.144-.62l.016.02-.112-.18-.063-.09-.048-.047-.016-.016-.008-.013-.008-.016-.01-.003c.25-1.002.595-1.993.755-3.03.24-1.292.272-2.647-.072-3.938-.342-1.29-1.12-2.47-2.106-3.393zm1.444 10.38l.01.022c-.01.02.07-.017-.025.155l-.008.004c-.04-.065-.072-.1-.072-.1l.056-.053.01.012v-.018l.03-.024zM573.676 183.756h.008-.008zM560.02 152.52c1.45 6.398 11.844 11.025 11.844 11.025l4.033 2.21s.69.348 1.083-.217c.377-.51-.08-1.015-.545-1.396-.642-.542-2.39-1.977-2.39-1.977.032-.012.77-.168.674-1.127-.026-.32-1.18-1.203-1.18-1.203.12-.14.19-.305.208-.497.12-.48-.385-.894-.385-.894l-2.783-2.26c2.855-4.97 8.348-2.43 9.254-2.046 1.772.722 3.287 1.984 4.178 3.725 2.19 4.214 1.323 10.444 1.003 11.418-3.07 9.415-7.097 14.828-7.426 15.213-.338.36-.706.81-1.155.886-.57-.045-1.107-.153-1.596-.402-.25-.132-.467-.305-.62-.513-.08-.104-.15-.224-.19-.345-.017-.052-.024-.132-.057-.213-.072-.112-.168-.156-.29-.152-.19.016-.304.276-.247.39l.056.352c.032.232.088.473.168.706.146.457.354.894.642 1.295.266.4.603.75 1.01 1.04.193.143.394.276.61.384.112.04.208.148.433.108.177-.064.226-.1.354-.156 1.73-.882 7.545-5.87 13.502-19.53 1.934-4.386 1.796-8.28 1.508-10.208-.305-1.913-.842-3.94-2.373-5.453-1.63-1.31-9.495-5.89-24.747-5.89-.48 0-1.604.057-2.004.145-.145.027-2.518 1.824-2.967 2.774-.196.4.285 2.342.39 2.807zM453.064 229.143c.713.685 5.975 4.374 6.824 4.767.112.024.497.192.77-.108.305-.34-.37-1.05-.37-1.05s-2.998-4.335-4.08-5.967c-1.756-3.04-3.416-6.126-4.386-9.546-1.677-5.975 2.172-13.548 8.884-12.963 1.38.41 3.136 1.42 3.978 2.23l-2.013 1.727c-.07.057-.23.425-.19.553-.01.17.208.626.208.626s-.57.365-.57.982c0 .405.354.585.386.61 0 0-2.134 1.88-2.174 1.928-.056.084-.2.52.048.733.33.27.586.137.586.137s5.22-2.69 6.77-3.874c1.153-.87 4.097-4.066 4.097-4.066s.25-.35.232-.505c0-.165-.176-.37-.337-.522-2.782-2.422-5.934-4.48-9.52-5.65-.88-.24-1.883-.4-2.853-.24-.962.132-13.768 5.144-17.056 14.105-.186.49-.884 4.972 10.768 16.09zM483.11 222.74c.538.64 1.188.083 1.26.04.648 1.03 2.478 2.954 4.803 2.942.77-.008 1.45-.465 1.94-1.015 1.02-1.146 1.404-4.293 1.436-4.75.056-.426.143-1.657-.105-2.294-.538-.91-1.523-.982-1.813-1.03 2.134-1.56 4.09-.42 4.09-.42s.457.19.675-.14c.313-.466-.89-1.168-1.107-1.29-.85-.523-1.82-.8-2.798-.87-1.188-.075-6.865.795-8.428 5.87-.185.62-.434 2.404.046 2.956zm6.76-2.534c.2.585.41 2.01.426 2.05-.257-.04-.657 1.034-3.296-.594 1.587-.353 2.823-1.432 2.87-1.456zM328.804 136.25c4.018-1.364 11.275-7.198 14.282-10.45.722-.773 2.71-3.48 2.653-4.033.023-.453-.826-1.015-.826-1.015-.272-.232-3.993-3.476-7.09-1.307-1.9 1.347-3.158 5.248-3.512 6.158-.497-7.237 2.534-9.695 3.19-9.983.604-.257 1.35-.3 2.063-.26.36.01 1.9.328 1.9.328s.802.192 1.05-.425c.338-.818-.353-1.2-.4-1.227l-.98-.437c-.392-.153-3.68-1.492-6.454.517-.52.38-3.68 3.865-3.88 9.146-.08 1.62-.088 6.41-.13 7.188-.022.787-.15 3.818-3.31 5.358l-.25.168c-.136.072-.096.33.073.365.514.153 1.116.077 1.62-.09zm10.288-14.732c1.813-1.042 4.242-.116 4.65.057-3.84.445-5.725 2.895-5.845 3.03-.016-.473.008-2.4 1.195-3.087zM301.708 129.083c-2.445-.834-22.012 2-25.26 7.578-5.356 9.178 1.492 17.29 3.45 19.41 1.972 2.105 7.328 6.356 10.824 6.84 4.09 1.127 8.973-.857 9.037-4.277.023-.71-.105-1.464-.298-2.16-.21-.695-.617-1.737-.897-2.238-.064-.132-.17-.39-.48-.3-.113.04-.338.236-.226.457 0 0 .304.97.384 1.307.168.67.297 3.463-.176 3.804-1.508 1.123-10.104.577-13.07-4.99-3.562-6.657-1.47-15.47-.474-16.208 1.49-1.114 8.026 1.002 9.405 1.628 0 0-4.86 3.853-5.293 4.278-.17.164-.37.722-.072 1.11.12.16.41.45.657.457.457.035 1.075-.318 1.075-.318s-2.8 2.08-3.544 2.967c-.185.23-.346.704.096 1.19.28.325.68.325.873.208 2.518-1.472 20.08-10.722 21.04-13.015.25-1.27-.134-5.364-7.055-7.73zm-13.407 1.492c.033-.016 0 0-.015.008l.023-.008h-.007z"/></g></svg>