<svg xmlns="http://www.w3.org/2000/svg" width="841.89" height="595.28" viewBox="0 0 841.89 595.28"><g fill="#58595B"><path d="M361.033 95.136l23 74.416-74.435 22.975-22.982-74.415 74.417-22.976zm101.547-31.35l22.968 74.442-74.435 22.99-22.982-74.45 74.45-22.982zm54.316 175.956l-74.436 22.963-22.996-74.415 74.45-23 22.982 74.452zm-216.346-15c8.232.272 15.705 3.464 21.644 8.586l-4.234-13.722 74.426-22.992 22.978 74.468-74.44 22.966-6.665-21.603c-2.28 9.338-7.768 17.29-15.155 22.453 14.086 14.694 32.905 22.366 92.86 6.318h.038l40.017-11.813 100.31-30.97L481.284 28.35 251.19 99.395l39.07 126.598c3.283-.912 6.71-1.363 10.29-1.25M452.79 549.424c1.18 0 2.29.208 3.306.627l.15-2.856c-.606-.19-1.2-.332-1.774-.432-.612-.087-1.23-.12-1.908-.12-2.924 0-5.137.76-6.827 2.317-1.66 1.552-2.46 3.653-2.46 6.285 0 2.694.86 4.804 2.556 6.322 1.595 1.396 3.646 2.107 6.108 2.107.705 0 1.44-.057 2.19-.18.75-.133 1.438-.294 2.117-.53l-.218-2.83c-.495.236-.998.406-1.56.54-.55.138-1.214.228-1.907.228-1.543 0-2.854-.437-3.88-1.28-1.22-.99-1.865-2.46-1.865-4.426 0-1.823.575-3.256 1.667-4.244 1.13-1.016 2.536-1.528 4.306-1.528m43.05 4.42c-.47.522-1.162.755-2.097.755h-1.55v-5.176h1.55c1.006 0 1.746.266 2.222.784.422.44.62 1.006.62 1.732 0 .76-.24 1.4-.744 1.903m-2.097-7.04h-4.92v16.692h3.37v-6.268h2.186c1.86 0 3.316-.54 4.376-1.632.95-.997 1.405-2.164 1.405-3.575 0-1.26-.36-2.326-1.09-3.22-1.093-1.327-2.87-1.996-5.327-1.996m-28.082 2.962h4.82v13.73h3.375v-13.73h4.828v-2.962H465.66v2.962zm-36.625 3.765h-6.75v-6.727h-3.387v16.69h3.386v-7.23h6.75v7.23h3.38v-16.69h-3.38v6.728zm-26.202 6.67c-.764.73-1.77 1.092-2.952 1.092-1.205 0-2.17-.375-2.966-1.11-1.093-1.025-1.634-2.716-1.634-5.01 0-2.358.54-4.03 1.634-5.06.764-.746 1.76-1.1 2.967-1.1 1.183 0 2.147.378 2.953 1.134 1.093 1.005 1.667 2.7 1.667 5.025 0 2.324-.574 4.005-1.667 5.03m-2.952-13.558c-2.435 0-4.372.714-5.862 2.16-1.528 1.562-2.326 3.67-2.326 6.37 0 2.692.798 4.82 2.326 6.343 1.49 1.45 3.428 2.16 5.863 2.16 2.407 0 4.36-.71 5.826-2.183 1.552-1.55 2.354-3.656 2.354-6.32 0-2.742-.803-4.85-2.354-6.38-1.467-1.437-3.42-2.15-5.825-2.15m118.16 7.234l-.76 1.802-.712-1.762-3.318-7.112h-3.804l6.13 11.925-.47 1.147c-.2.446-.494.778-.816.936-.257.12-.608.186-1.073.186-.476 0-.95-.134-1.425-.362l-.398 2.517c.418.18.826.322 1.196.394.375.094.826.127 1.34.127.892 0 1.642-.18 2.24-.545.664-.423 1.253-1.125 1.732-2.118l6.665-14.208h-3.376l-3.15 7.07zm83.555-11.222h-3.237v3.016h3.237v-3.016zm1.47 3.016h3.22v-3.016h-3.22v3.016zm-55.012 1.134h-4.007l-6.104 7.135v-7.136h-3.38v16.69h3.38l.08-8.298 6.187 8.3h4.262l-7.34-9.126 6.92-7.566zm-166.122 0h-4.054l-6.08 7.135v-7.136h-3.386v16.69h3.385l.053-8.298 6.214 8.3h4.306l-7.387-9.126 6.95-7.566zm190.036 0h-3.385v13.748h-6.74v-13.748h-3.404v16.69h12.405v3.438h3.078v-6.38h-1.952v-13.748zm12.196 16.69h3.366v-16.69h-3.366v16.69zm16.488 0h3.365v-16.662h-3.365v16.663zm-350.417-16.69h-4.043l-6.094 7.135v-7.136h-3.385v16.69h3.386l.07-8.298 6.196 8.3h4.27l-7.376-9.126 6.977-7.566zm-28.364 16.69h3.402v-16.69h-3.403v16.69zm-15.537-3.237c-.52.418-1.268.646-2.202.646h-1.857v-4.698h1.858c.677 0 1.25.093 1.735.293.817.37 1.25 1.044 1.25 2.04 0 .713-.252 1.29-.782 1.72m-4.06-10.834h1.475c1.095 0 1.866.266 2.316.784.313.328.436.773.436 1.305 0 .494-.157.906-.46 1.282-.426.532-1.147.787-2.136.787h-1.632v-4.158zm4.92 5.34c.702-.216 1.293-.572 1.728-1.05.66-.7 1.007-1.612 1.007-2.78 0-1.662-.78-2.843-2.255-3.532-.888-.398-1.98-.598-3.316-.598h-5.485v16.69h5.262c2.48 0 4.25-.555 5.38-1.7.782-.782 1.164-1.793 1.164-3.003 0-1.077-.313-2-.982-2.7-.66-.728-1.495-1.144-2.502-1.325m63.942 5.435c-.798.73-1.778 1.092-2.95 1.092-1.2 0-2.18-.375-2.986-1.11-1.093-1.025-1.657-2.716-1.657-5.01 0-2.358.565-4.03 1.658-5.06.79-.746 1.77-1.1 2.985-1.1 1.146 0 2.153.378 2.95 1.134 1.076 1.005 1.63 2.7 1.63 5.025 0 2.324-.554 4.005-1.63 5.03m-2.95-13.558c-2.43 0-4.382.714-5.858 2.16-1.57 1.562-2.353 3.67-2.353 6.37 0 2.692.78 4.82 2.353 6.343 1.477 1.45 3.428 2.16 5.858 2.16 2.396 0 4.34-.71 5.815-2.183 1.563-1.55 2.343-3.656 2.343-6.32 0-2.742-.78-4.85-2.342-6.38-1.476-1.437-3.42-2.15-5.815-2.15m54.12 6.89h-6.77v-6.73h-3.4v16.692h3.4v-7.23h6.77v7.23h3.39v-16.69h-3.39v6.727zm-24.976 0h-6.78v-6.73h-3.374v16.692h3.375v-7.23h6.78v7.23h3.384v-16.69h-3.385v6.727zm39.797 9.963h3.39v-16.69h-3.39v16.69zm67.034-58.36c3.902 0 6.98-3.132 6.98-6.974 0-3.83-3.077-6.963-6.98-6.963h-15.073v13.938h15.073zm28.375-6.974c0 10.788-8.74 19.52-19.492 19.52h-23.955v16.675h-21.387V478.65h45.343c10.754 0 19.493 8.745 19.493 19.51m150.238-19.51v21.572h-32.24V478.65h-21.415v55.704h21.416v-21.57h32.24v21.57h21.39V478.65h-21.39zm-319.12 43.168h-43.125v-9.034h43.126V500.25h-43.125v-9.053h43.126V478.65H198.95v55.704h64.703v-12.536zm201.812-10.07l8.688-17.73h1.33l8.27 17.73h-18.288zm28.783 22.606h24.545l-32.12-55.704h-23.315l-32.63 55.704h23.662l4.933-10.073h30.255l4.67 10.074zm-137.69-55.704H329.91l-26.245 22.615V478.65H282.27v55.704h21.395V510.41l26.244 23.944h27.026l-32.183-28.312 31.803-27.392z"/><path d="M284.21 285.775c-.066-.033-.16-.078-.214-.13.053.052.148.097.214.13m171.6 28.158l-4.695-15.216-40.072 12.367h-.02c-77.45 21.672-86.29 2.095-104.79-21.254-2.312.536-4.704.886-7.21.807-4.303-.14-8.327-1.33-11.883-3.21 2.947 1.335 6.214 2.133 9.66 2.256 14.13.45 25.98-10.634 26.443-24.78.45-14.14-10.658-25.967-24.805-26.428-14.13-.45-25.97 10.642-26.42 24.78-.902 5.328-1.552 10.752-1.734 16.342-1.06 33.092 11.28 62.887 31.178 81.953l130.1-40.126v-.02l24.25-7.47zM438.957 409.1c-27.948-45.356-60.98-59.252-60.98-59.252l-78.793 25.29c-14.033 36.896-16.602 83.088-16.602 83.088h41.06c4.757-30.18 12.714-46.19 37.325-46.19 24.61 0 49.277 16.012 60.367 46.19l39.318-.052c0-.042 1.568-11.337-21.695-49.074M623.727 460.7v2.122h-5.682v11.83h-2.516v-11.83h-5.68V460.7M639.465 460.7l-4.933 10.98-4.918-10.98h-3.55v13.952h2.396v-9.228l-.176-2.65 5.165 11.48h2.25l5.085-11.48-.178 2.65v9.228h2.413V460.7"/></g></svg>