<?xml version="1.0" encoding="utf-8"?>
<!-- Generator: Adobe Illustrator 18.0.0, SVG Export Plug-In . SVG Version: 6.00 Build 0)  -->
<!DOCTYPE svg PUBLIC "-//W3C//DTD SVG 1.1//EN" "http://www.w3.org/Graphics/SVG/1.1/DTD/svg11.dtd">
<svg version="1.1" id="Layer_1" xmlns="http://www.w3.org/2000/svg" xmlns:xlink="http://www.w3.org/1999/xlink" x="0px" y="0px"
	 viewBox="0 0 112 112" enable-background="new 0 0 112 112" xml:space="preserve">
<g>
	<g class="technology-svg-orbit">
		<g opacity="0.2">
			<path fill="#ECEFF1" d="M56,1c30.3,0,55,24.7,55,55s-24.7,55-55,55S1,86.3,1,56S25.7,1,56,1 M56,0C25.1,0,0,25.1,0,56
				c0,30.9,25.1,56,56,56c30.9,0,56-25.1,56-56C112,25.1,86.9,0,56,0L56,0z"/>
		</g>
		
			<rect x="-22.8" y="55.6" transform="matrix(-0.7071 0.7071 -0.7071 -0.7071 135.1967 56.0012)" opacity="0.2" fill="#ECEFF1" width="157.6" height="0.7"/>
	</g>
	<g class="technology-svg-logo">
		<g>
			<path fill="#FFA400" d="M77.5,36.8c-0.7,0-2.8,31.6-4.1,45.4c-1.2,0.4-2.6,0.7-3.9,1.1c-5,1.4-11.5,3.3-13.5,3.9
				c-2-0.5-8.6-2.4-13.5-3.9c-1.4-0.4-2.7-0.8-3.9-1.1c-1.2-13.7-3.3-37.2-4.1-45.4H77.5 M80.5,34.1h-49c0,0,3,33.8,4.5,50.2
				c6.7,1.9,19.8,5.7,20,5.7c0.3,0,13.3-3.8,20-5.7C77.5,67.9,80.5,34.1,80.5,34.1L80.5,34.1z"/>
		</g>
		<polygon fill="#FFA400" points="71.4,44.2 70.7,50 57.2,56.6 70.3,56.6 68.7,75.7 55.7,79.2 43.3,75.6 42.4,66 48.7,66 49,70.8 
			55.7,72.7 63,70.8 63.6,62.7 42.1,62.8 41.7,56.9 56.2,50.4 41.1,50.2 40.7,44.2 		"/>
		<path fill="#FFA400" d="M70.7,20v3.3h-2.5l2.5,3.4v2.7h-7.3v-3h2.4c0,0,0.1-0.1,0.1-0.1L63,22.5V20H70.7z M59.9,20v3.3h-2.4
			l2.4,3.3v2.8h-7.3v-3H55l-2.7-3.9V20H59.9z M49.1,20v3.1h-4.4v3.3h4.4v3h-7.6V20H49.1z"/>
	</g>
</g>
</svg>
