<?xml version="1.0" encoding="utf-8"?>
<!-- Generator: Adobe Illustrator 18.0.0, SVG Export Plug-In . SVG Version: 6.00 Build 0)  -->
<!DOCTYPE svg PUBLIC "-//W3C//DTD SVG 1.1//EN" "http://www.w3.org/Graphics/SVG/1.1/DTD/svg11.dtd">
<svg version="1.1" id="Layer_1" xmlns="http://www.w3.org/2000/svg" xmlns:xlink="http://www.w3.org/1999/xlink" x="0px" y="0px"
	 viewBox="0 0 123.7 112" enable-background="new 0 0 123.7 112" xml:space="preserve">
<g>
	<g class="technology-svg-orbit">
		<g opacity="0.2">
			<path fill="#ECEFF1" d="M58.9,1c30.3,0,55,24.7,55,55s-24.7,55-55,55s-55-24.7-55-55S28.5,1,58.9,1 M58.9,0
				c-30.9,0-56,25.1-56,56c0,30.9,25.1,56,56,56s56-25.1,56-56C114.9,25.1,89.8,0,58.9,0L58.9,0z"/>
		</g>
		
			<rect x="-20" y="55.6" transform="matrix(-0.7071 0.7071 -0.7071 -0.7071 140.0686 53.9829)" opacity="0.2" fill="#ECEFF1" width="157.6" height="0.7"/>
	</g>
	<path class="technology-svg-logo" fill="#FFA400" d="M27.3,53c0.7-0.9,1.1-1.9,1.1-3c0-1.4-0.5-2.5-1.6-3.5c-1.1-1-2.4-1.5-3.9-1.5H2.1
		c-0.7,0.2-1.2,0.8-1.2,1.5V50h21.9L4.7,55.1c-1.1,0.3-2,0.9-2.8,1.8c-0.7,0.9-1.1,1.9-1.1,3c0,1.4,0.5,2.6,1.6,3.6
		c1.1,1,2.4,1.5,3.9,1.5H27c0.7-0.1,1.3-0.7,1.4-1.4V60h-22l18.1-5.2C25.6,54.4,26.6,53.8,27.3,53z M55.8,45c-0.8,0-1.4,0.7-1.5,1.4
		l0,12.1c0,0.8-0.7,1.5-1.6,1.5c0,0-10.2,0-13.4,0c-0.8,0-1.4-0.7-1.5-1.5h0V45h-4.1v0c-0.7,0-1.3,0.5-1.4,1.2V60
		c0,1.4,0.5,2.6,1.6,3.6c1.1,1,2.4,1.5,3.9,1.5h16.5c1.5,0,2.8-0.5,3.9-1.5c1.1-1,1.6-2.2,1.6-3.6V45H55.8L55.8,45z M121.3,53.6
		c-0.3-0.3-0.7-0.5-1.1-0.7c-0.5-0.2-1.1-0.3-1.7-0.4V50c0-1.4-0.5-2.5-1.6-3.5c-1.1-1-2.4-1.5-3.9-1.5H96.8v0
		c-0.8,0-1.4,0.7-1.5,1.5V65h22c1.5,0,2.8-0.5,3.9-1.5c1.1-1,1.6-2.2,1.6-3.6v-2.5C122.8,56,122.3,54.5,121.3,53.6z M100.9,50h6.8
		c0,0,0,0,0,0h4v0c0,0,0,0,0,0c0.7,0,1.3,0.6,1.3,1.3h0V52c0,0.3-0.2,0.5-0.5,0.5h-4.9c0,0,0,0,0,0h-6.8V50z M117.3,59.5
		c0,0.3-0.2,0.5-0.5,0.5h-3.6c0,0,0,0,0,0h-12.3v-2.5c0,0,15.1,0,15.1,0c0.7,0,1.3,0.5,1.3,1.2V59.5L117.3,59.5z M89.7,46.5
		c-1.1-1-2.4-1.5-3.9-1.5H65.3c-0.8,0-1.4,0.7-1.5,1.5V65H68c0.7-0.1,1.3-0.6,1.3-1.3v-6.2l15,0c0.8,0,1.5,0.6,1.5,1.4v4.8
		c0,0,0,0.1,0,0.1V65h3.9l0,0h0.1c0.8-0.1,1.4-0.7,1.5-1.4V60c0-1.5-0.6-2.7-1.9-3.7c1.2-1,1.9-2.2,1.9-3.7V50
		C91.3,48.6,90.8,47.5,89.7,46.5z M85.8,52c0,0.3-0.2,0.5-0.5,0.5h-2.1v0H69.3V50l15.1,0v0c0,0,0,0,0,0c0.7,0,1.3,0.6,1.3,1.3V52z"
		/>
</g>
</svg>
