<?xml version="1.0" encoding="utf-8"?>
<!-- Generator: Adobe Illustrator 18.0.0, SVG Export Plug-In . SVG Version: 6.00 Build 0)  -->
<!DOCTYPE svg PUBLIC "-//W3C//DTD SVG 1.1//EN" "http://www.w3.org/Graphics/SVG/1.1/DTD/svg11.dtd">
<svg version="1.1" id="Layer_1" xmlns="http://www.w3.org/2000/svg" xmlns:xlink="http://www.w3.org/1999/xlink" x="0px" y="0px"
	 viewBox="0 0 112 112" enable-background="new 0 0 112 112" xml:space="preserve">
<g>
	<g class="technology-svg-orbit">
		<g opacity="0.2">
			<path fill="#ECEFF1" d="M56,1c30.3,0,55,24.7,55,55s-24.7,55-55,55S1,86.3,1,56S25.7,1,56,1 M56,0C25.1,0,0,25.1,0,56
				c0,30.9,25.1,56,56,56c30.9,0,56-25.1,56-56C112,25.1,86.9,0,56,0L56,0z"/>
		</g>
		
			<rect x="-22.8" y="55.6" transform="matrix(-0.7071 0.7071 -0.7071 -0.7071 135.1967 56.0012)" opacity="0.2" fill="#ECEFF1" width="157.6" height="0.7"/>
	</g>
	<g class="technology-svg-logo">
		<path fill="#FFA400" d="M36.8,20H40v3.1h2.9V20H46v9.4h-3.2v-3.2H40v3.2h-3.2V20L36.8,20z"/>
		<path fill="#FFA400" d="M50.2,23.1h-2.8V20h8.7v3.1h-2.8v6.3h-3.2V23.1L50.2,23.1z"/>
		<path fill="#FFA400" d="M57.5,20h3.3l2,3.3l2-3.3h3.3v9.4H65v-4.7l-2.2,3.4h-0.1l-2.2-3.4v4.7h-3.1V20L57.5,20z"/>
		<path fill="#FFA400" d="M69.7,20h3.2v6.3h4.4v3.1h-7.6V20L69.7,20z"/>
		<polygon fill="#FFA400" points="57,44.5 41.4,44.5 41.6,46.4 43.1,63.8 64.6,63.8 63.9,71.4 57,73 50.1,70.8 49.6,65.5 43.4,65.5 
			44.3,75.5 57,79.1 69.7,75.7 71.4,56.8 48.8,56.8 48.2,49.8 72,49.8 72,49.8 72.6,44.5 		"/>
		<g>
			<path fill="#FFA400" d="M78.5,36.7c-0.7,0-2.8,31.7-4.1,45.5c-1.2,0.4-2.6,0.8-4,1.2c-5,1.4-11.5,3.3-13.5,3.9
				c-2-0.5-8.6-2.4-13.5-3.9c-1.4-0.4-2.7-0.8-4-1.2c-1.2-13.8-3.3-37.1-4.1-45.5H78.5 M81.5,33.9H32.5c0,0,3,33.9,4.5,50.3
				c6.7,1.9,19.8,5.7,20,5.7c0.3,0,13.4-3.8,20-5.7C78.5,67.8,81.5,33.9,81.5,33.9L81.5,33.9z"/>
		</g>
	</g>
</g>
</svg>
