<?xml version="1.0" encoding="utf-8"?>
<!-- Generator: Adobe Illustrator 18.0.0, SVG Export Plug-In . SVG Version: 6.00 Build 0)  -->
<!DOCTYPE svg PUBLIC "-//W3C//DTD SVG 1.1//EN" "http://www.w3.org/Graphics/SVG/1.1/DTD/svg11.dtd">
<svg version="1.1" id="Layer_1" xmlns="http://www.w3.org/2000/svg" xmlns:xlink="http://www.w3.org/1999/xlink" x="0px" y="0px"
	 viewBox="0 0 112 112" enable-background="new 0 0 112 112" xml:space="preserve">
<g>
	<g class="technology-svg-orbit">
		<g opacity="0.2">
			<path fill="#ECEFF1" d="M56,1c30.3,0,55,24.7,55,55s-24.7,55-55,55S1,86.3,1,56S25.7,1,56,1 M56,0C25.1,0,0,25.1,0,56
				c0,30.9,25.1,56,56,56s56-25.1,56-56C112,25.1,86.9,0,56,0L56,0z"/>
		</g>
		
			<rect x="-22.8" y="55.6" transform="matrix(-0.7071 0.7071 -0.7071 -0.7071 135.1967 56.001)" opacity="0.2" fill="#ECEFF1" width="157.6" height="0.7"/>
	</g>
	<g class="technology-svg-logo">
		<g>
			<path fill="#FFA400" d="M76.9,90H30.2V28.9c0-4.9,4-8.9,9-8.9h46.7v61.1c0,2.4-0.9,4.6-2.6,6.3C81.5,89.1,79.3,90,76.9,90z
				 M32.9,87.3h44c3.5,0,6.2-2.7,6.2-6.2V22.7H39.1c-3.4,0-6.2,2.8-6.2,6.2V87.3z"/>
		</g>
		<g>
			<path fill="#FFA400" d="M60,56.4l3.3,1.5l-0.3-2.3l-3-1.6L60,56.4z M35,64.3l4.3,0.5l0.9-4l-4.1-0.7L35,64.3z M50.3,36.7
				l-2.8-2.1l-1.9,2.6l3.1,1.9L50.3,36.7z M58.8,29.8l-1.8-2.3l-2.5,1.5l2.1,2.3L58.8,29.8z M68.1,28.1l-0.6-1.9l-3-0.2l0.9,2.1
				L68.1,28.1z M78.4,30.5l-2.6-1.8v1.2l2.5,1.5L78.4,30.5z M43.8,47.5L40.3,46l-1.2,3.5l3.6,1.3L43.8,47.5z M61.3,46l-0.6,2.1
				l2.3,2.1l0.6-2L61.3,46z M75.6,36.4l1.9,0.1l0-0.9l-1.9-0.4L75.6,36.4z M67.9,29.1c-9-0.4-25.1,8.1-27.4,42.3h22.1
				c-4.9-12.8-4.4-22.5-1-29c4.9-9.5,12.3-10.2,19.2-6.1c0.2-0.6,0.6-1.3,0.6-1.3C77.4,31.2,73.7,29.4,67.9,29.1z M68.5,36.2l0.8,2
				l1.5-0.8l-0.6-1.8L68.5,36.2z M63.5,40.7l1.7,2.3l1-1.5l-1.5-2.3L63.5,40.7z M66.1,67.4l-1-2.5l-3.8-0.7l1,2.9L66.1,67.4z"/>
		</g>
		<g>
			<path fill="#FFA400" d="M44.2,79.2v-1.6c0-0.9-0.9-2.4-2.4-2.4c-1.6,0-5.2,0-5.2,0v9.8h2.6V82l2.1,2.8h3.2l-2.5-3.3
				C42.1,81.6,44.2,81.1,44.2,79.2z M41.6,79.6h-2.4v-2h2.4V79.6L41.6,79.6z M51.9,75.1h-2.4c-1.2,0-2.5,1.1-2.5,2.5
				c0,1.4,0,7.2,0,7.2h2.6v-1.9h2.3v1.9h2.6c0,0,0-5.8,0-7.2C54.6,76.2,53.3,75.1,51.9,75.1z M51.9,80.3h-2.3v-2.6h2.3V80.3z
				 M76.1,78.6c-1.2,0-2.5,0-2.5,0v-1.1H78v-2.4c0,0-2.9,0-4.5,0c-1.6,0-2.6,1.2-2.6,2.5v1c0,1.5,1.4,2.6,2.6,2.6c1.3,0,2.4,0,2.4,0
				v1.2h-4.8v2.5c0,0,3.3,0,4.7,0c1.4,0,2.7-1.1,2.7-2.4v-1.3C78.5,79.6,77.2,78.6,76.1,78.6z M65.5,75.1h-2.6v9.8h6.5v-2.6h-3.9
				V75.1L65.5,75.1z M57.4,84.8H60v-9.8h-2.6V84.8L57.4,84.8z"/>
		</g>
	</g>
</g>
</svg>
