<svg xmlns="http://www.w3.org/2000/svg" width="841.89" height="595.28" viewBox="0 0 841.89 595.28"><path fill="#58595B" d="M305.933 179.56h230.044v57.513H305.933zM727.664 179.56h57.533v191.705h-57.533z"/><path fill="#9FA1A4" d="M420.965 294.587l-.01-38.364h134.197l19.166 19.193-19.166 19.17"/><path fill="#58595B" d="M305.933 313.754h230.044v57.51H305.933zM286.76 237.072v-57.51H56.693v191.703h230.07v-57.532H114.225v-76.66"/><path fill="#9FA1A4" d="M238.954 352.337l-48.046-96.095H287M628.904 179.56h-81.37l95.853 95.856-95.938 95.85h81.456l95.905-95.91"/><g fill="#58595B"><path d="M57.03 394.156h2.056v21.204H57.03v-21.204zM83.235 415.36H81.18v-21.204h12.27v1.76H83.236v19.444zM115.515 406.425v8.936h-2.056v-21.203h5.896c4.468 0 7.447 1.58 7.447 6.104 0 4.375-3.128 6.165-7.06 6.165h-4.228zm0-10.51v8.72h4.02c2.413 0 5.153-.858 5.153-4.402 0-3.22-2.77-4.317-5.064-4.317h-4.11zM162.864 396.985h-.09L149.79 415.36h-2.413v-21.204h2.055v18.463h.09l13.016-18.464h2.382v21.204h-2.055v-18.375zM228.287 405.21h-13.463v10.15h-2.055v-21.204h2.054v9.295h13.463v-9.294h2.026v21.204h-2.026v-10.15zM251.272 404.76c0-6.074 4.437-10.965 10.93-10.965 6.763 0 10.96 4.855 10.96 10.964 0 6.312-4.346 10.96-10.96 10.96-6.402 0-10.93-4.62-10.93-10.96zm2.116 0c0 4.527 3.334 9.167 8.815 9.167 5.6 0 8.847-4.495 8.847-9.168 0-4.737-3.336-9.18-8.847-9.18-5.6 0-8.815 4.442-8.815 9.18zM294.303 415.36v-21.204h6.104c4.497 0 6.732 1.902 6.732 5.064 0 2.74-1.133 4.498-3.993 5.146v.096c3.04.296 4.617 2.616 4.617 5.388 0 3.935-3.247 5.51-7.595 5.51h-5.867zm2.053-19.445v7.622h2.442c2.92 0 6.287-.182 6.287-4.02 0-2.895-2.326-3.603-4.23-3.603h-4.5zm0 9.38v8.308h3.663c2.888 0 5.628-.773 5.628-3.963 0-4.05-3.723-4.345-6.58-4.345h-2.712zM327.95 404.76c0-6.074 4.438-10.965 10.932-10.965 6.762 0 10.96 4.855 10.96 10.964 0 6.312-4.347 10.96-10.96 10.96-6.403 0-10.93-4.62-10.93-10.96zm2.117 0c0 4.527 3.332 9.167 8.814 9.167 5.603 0 8.847-4.495 8.847-9.168 0-4.737-3.335-9.18-8.846-9.18-5.6 0-8.813 4.442-8.813 9.18zM372.946 415.36h-2.056v-21.204h12.272v1.76h-10.217v19.444zM402.156 404.76c0-6.074 4.44-10.965 10.93-10.965 6.763 0 10.96 4.855 10.96 10.964 0 6.312-4.345 10.96-10.96 10.96-6.402 0-10.93-4.62-10.93-10.96zm2.115 0c0 4.527 3.34 9.167 8.816 9.167 5.602 0 8.85-4.495 8.85-9.168 0-4.737-3.34-9.18-8.85-9.18-5.596 0-8.815 4.442-8.815 9.18zM486.617 395.915h-13.44v19.445h-2.052v-21.204h17.545v21.204h-2.053v-19.445zM509.623 404.76c0-6.074 4.44-10.965 10.938-10.965 6.763 0 10.962 4.855 10.962 10.964 0 6.312-4.354 10.96-10.96 10.96-6.412 0-10.94-4.62-10.94-10.96zm2.123 0c0 4.527 3.332 9.167 8.814 9.167 5.594 0 8.842-4.495 8.842-9.168 0-4.737-3.334-9.18-8.842-9.18-5.6 0-8.814 4.442-8.814 9.18zM554.654 404.31v11.05H552.6v-21.203h2.055v9.887l10.393-9.887h2.768L557.19 404.16l11.792 11.2h-2.924l-11.404-11.05zM587.705 404.76c0-6.074 4.438-10.965 10.93-10.965 6.764 0 10.965 4.855 10.965 10.964 0 6.312-4.354 10.96-10.965 10.96-6.403 0-10.93-4.62-10.93-10.96zm2.117 0c0 4.527 3.332 9.167 8.813 9.167 5.598 0 8.846-4.495 8.846-9.168 0-4.737-3.333-9.18-8.845-9.18-5.594 0-8.813 4.442-8.813 9.18zM645.117 395.915h-8.898v6.877c0 6.073-.538 12.893-5.57 12.893-.747 0-1.46-.085-2.062-.237v-1.722c.54.116 1.107.173 1.553.173 3.45 0 3.99-4.94 3.99-12.24v-7.503h13.048v21.204h-2.06v-19.445zM669.36 394.156h2.052v21.204h-2.053v-21.204zM708.97 405.21h-13.466v10.15h-2.053v-21.204h2.054v9.295h13.465v-9.294h2.024v21.204h-2.025v-10.15zM748.27 405.21h-13.46v10.15h-2.056v-21.204h2.057v9.295h13.46v-9.294h2.025v21.204h-2.025v-10.15zM782.994 406.545h-2.98l-7.058 8.815h-2.77l7.566-9.11c-3.877-.478-5.842-3.516-5.842-5.84 0-4.767 3.396-6.254 7.625-6.254h5.512v21.204h-2.055v-8.815zm-3.812-10.63c-3.22 0-5.066 1.662-5.066 4.557 0 2.646 1.996 4.315 5.662 4.315h3.217v-8.872h-3.813z"/></g></svg>