<?xml version="1.0" encoding="utf-8"?>
<!-- Generator: Adobe Illustrator 16.0.0, SVG Export Plug-In . SVG Version: 6.00 Build 0)  -->
<!DOCTYPE svg PUBLIC "-//W3C//DTD SVG 1.1//EN" "http://www.w3.org/Graphics/SVG/1.1/DTD/svg11.dtd">
<svg version="1.1" id="Layer_1" xmlns="http://www.w3.org/2000/svg" xmlns:xlink="http://www.w3.org/1999/xlink" x="0px" y="0px"
	 width="841.89px" height="595.28px" viewBox="0 0 841.89 595.28" enable-background="new 0 0 841.89 595.28" xml:space="preserve">
<g>
	<path fill="#58595B" d="M464.149,252.868v-0.005h-37.906v0.005c-9.808-0.142-13.988,4.961-13.988,4.961
		c-2.974,3.11-4.355,7.495-4.378,12.637c0,0.421,0,53.277,0,53.277h-2.297v-0.014h-8.893v-70.898h-24.246l-16.808,43.019
		l-16.967-43.019h-35.271v18.648h11.167v52.23h-38.847l-9.661-11.155h7.908c8.587,0.238,13.096-4.414,13.096-4.414
		c3.235-3.071,5.146-7.907,5.146-14.94l-0.011-19.821v-3.329c0.233-8.333-4.282-12.717-4.282-12.717
		c-2.996-3.139-7.693-4.5-14.516-4.5h-115.86v0.005c-9.802-0.142-13.987,4.961-13.987,4.961c-2.974,3.111-4.356,7.495-4.378,12.638
		c0,0.417,0.005,53.273,0.005,53.273h-22.392l-21.606-27.948l21.237-24.282h11.566v-18.648h-18.684l-29.847,33.59v-33.595H49.585
		l0.012,18.653h11.184v70.926h18.668l0.005-37.302l29.841,37.322l85.609-0.01v0.01l0.147-0.01h0.17v-0.011
		c7.488-0.076,12.333-1.969,15.011-5.153c2.713-3.195,3.543-7.676,3.543-12.686l0.035-53.087h11.178v70.926h18.685v-70.926h27.345
		c1.029,0.088,1.575,0.429,2.046,1c0.444,0.565,0.444,1.339,0.444,2.644v18.219c-0.114,0.927-0.421,1.492-0.979,1.941
		c-0.591,0.467-1.381,0.467-2.724,0.467h-22.408v16.751l26.111,29.904h59.721v-56.14l14.909,37.464h14.96l14.926-37.282v55.958
		h18.662v0.049l66.917-0.004v0.004l0.157-0.004h0.17v-0.013c7.485-0.066,12.341-1.973,15.013-5.151
		c2.708-3.194,3.538-7.676,3.538-12.686l0.034-53.09v-1.044c-0.024-5.143-1.399-9.527-4.38-12.637
		C478.137,257.829,473.952,252.726,464.149,252.868z M195.195,275.086v44.829c0,1.274,0.028,2.042-0.455,2.759
		c-0.426,0.602-1.137,1.001-2.405,1.035h-31.847c-1.172,0.055-1.717-0.331-2.195-0.866c-0.512-0.585-0.546-1.409-0.5-2.74v-45.017
		c0-1.288,0.08-2.089,0.523-2.698c0.382-0.46,0.87-0.884,2.173-0.909h31.858c1.285,0.04,1.802,0.278,2.309,0.869
		C195.297,273.071,195.195,273.978,195.195,275.086z M463.911,275.117v44.832c0,1.27,0.011,2.042-0.467,2.759
		c-0.432,0.602-1.126,1.006-2.4,1.035h-31.852c-1.175,0.05-1.716-0.331-2.198-0.872c-0.507-0.573-0.547-1.403-0.49-2.738v-45.016
		c0-1.288,0.07-2.089,0.519-2.691c0.382-0.467,0.876-0.89,2.17-0.916h31.863c0.309,0.01,0.581,0.033,0.808,0.071
		c0.047,0.005,0.081,0.02,0.125,0.028c0.637,0.12,1.013,0.349,1.377,0.771C464,273.102,463.911,274.009,463.911,275.117z
		 M493.706,271.479h26.12v70.926h18.676l-0.014-70.926c7.358,0,89.579,0,89.579,0v-18.653l-134.361,0.017V271.479z M773.653,252.826
		v89.579h18.651v-89.579H773.653z M553.422,299.643c0,15.85,4.729,27.637,14.044,34.994c9.302,7.375,18.561,7.769,28.01,7.769
		h32.592v-18.676h-31.772c-9.838,0-19.731-8.22-20.289-18.626h52.062v-18.683h-74.646V299.643z M736.331,252.826h-18.674v70.903
		h-57.099c-1.092-0.006-1.662-0.488-2.014-0.937c-0.442-0.552-0.567-1.553-0.567-2.86v-44.866c0-1.293,0.125-2.115,0.567-2.661
		c0.352-0.452,0.922-0.944,2.014-0.952h24.813c1.023,0.025,1.547,0.5,1.888,0.952c0.408,0.545,0.535,1.367,0.535,2.661v11.354
		h18.673v-33.595h-48.73c-6.424,0-11.053,1.839-14.043,4.986c-3.015,3.116-4.413,7.532-4.413,12.708l-0.034-0.116v54.406
		l0.034-0.113c0,5.174,1.398,9.574,4.413,12.71c2.99,3.132,7.619,4.984,14.043,4.984h19.72v0.006h58.874v-37.294h29.852v-18.683
		h-29.852V252.826z"/>
</g>
</svg>
