<?xml version="1.0" encoding="utf-8"?>
<!-- Generator: Adobe Illustrator 18.0.0, SVG Export Plug-In . SVG Version: 6.00 Build 0)  -->
<!DOCTYPE svg PUBLIC "-//W3C//DTD SVG 1.1//EN" "http://www.w3.org/Graphics/SVG/1.1/DTD/svg11.dtd">
<svg version="1.1" id="Layer_1" xmlns="http://www.w3.org/2000/svg" xmlns:xlink="http://www.w3.org/1999/xlink" x="0px" y="0px"
	 viewBox="0 0 40 40" enable-background="new 0 0 40 40" xml:space="preserve">
<g>
	<path fill="#862A8F" d="M38,2v36H2V2H38 M40,0H0v40h40V0L40,0z"/>
</g>
<g>
	<path id="Behance_3_" fill="#862A8F" d="M29.3,15h-5.6v-1.4h5.6L29.3,15L29.3,15z M19.9,20.7c0.4,0.6,0.5,1.2,0.5,2.1
		c0,0.8-0.2,1.6-0.6,2.2c-0.3,0.4-0.6,0.8-1,1.1c-0.4,0.3-1,0.6-1.6,0.7c-0.6,0.1-1.3,0.2-2,0.2H9V13h6.8c1.7,0,2.9,0.5,3.6,1.5
		c0.4,0.6,0.6,1.3,0.6,2.1c0,0.9-0.2,1.5-0.6,2.1c-0.2,0.3-0.6,0.6-1.1,0.8C19,19.7,19.6,20.2,19.9,20.7z M12.2,18.5h3
		c0.6,0,1.1-0.1,1.5-0.3c0.4-0.2,0.6-0.6,0.6-1.2c0-0.7-0.3-1.1-0.8-1.3c-0.4-0.1-1-0.2-1.7-0.2h-2.6V18.5z M17.5,22.6
		c0-0.7-0.3-1.2-0.9-1.5c-0.3-0.2-0.8-0.2-1.4-0.2h-3v3.7h3c0.6,0,1.1-0.1,1.4-0.2C17.2,24,17.5,23.4,17.5,22.6z M31.4,20.3
		c0.1,0.5,0.1,1.1,0.1,2h-7.3c0,1,0.4,1.7,1,2.1c0.4,0.3,0.9,0.4,1.4,0.4c0.6,0,1.1-0.2,1.5-0.5c0.2-0.2,0.4-0.4,0.5-0.7h2.7
		c-0.1,0.6-0.4,1.2-1,1.8c-0.9,1-2.2,1.5-3.8,1.5c-1.3,0-2.5-0.4-3.5-1.2c-1-0.8-1.5-2.2-1.5-4c0-1.7,0.5-3.1,1.4-4
		c0.9-0.9,2.1-1.4,3.6-1.4c0.9,0,1.7,0.2,2.4,0.5c0.7,0.3,1.3,0.8,1.7,1.5C31,18.8,31.3,19.5,31.4,20.3z M28.8,20.6
		c0-0.7-0.3-1.2-0.7-1.6c-0.4-0.4-0.9-0.5-1.6-0.5c-0.7,0-1.2,0.2-1.6,0.6c-0.4,0.4-0.6,0.9-0.7,1.6L28.8,20.6L28.8,20.6z"/>
</g>
</svg>
