<?xml version="1.0" encoding="utf-8"?>
<!-- Generator: Adobe Illustrator 18.0.0, SVG Export Plug-In . SVG Version: 6.00 Build 0)  -->
<!DOCTYPE svg PUBLIC "-//W3C//DTD SVG 1.1//EN" "http://www.w3.org/Graphics/SVG/1.1/DTD/svg11.dtd">
<svg version="1.1" id="Layer_1" xmlns="http://www.w3.org/2000/svg" xmlns:xlink="http://www.w3.org/1999/xlink" x="0px" y="0px"
	 viewBox="0 0 40 40" enable-background="new 0 0 40 40" xml:space="preserve">
<g>
	<path fill="#862A8F" d="M38,2v36H2V2H38 M40,0H0v40h40V0L40,0z"/>
</g>
<path fill="#862A8F" d="M24.5,19c0.1,0,0.2,0.8,0.2,1.4c0,4.6-3.1,7.7-7.7,7.7c-4.4,0-8-3.6-8-8.1s3.6-8,8-8c2.2,0,3.9,0.8,5.3,2.1
	L20,16.3v0c-1-0.8-1.9-1.2-3-1.2c-2.6,0-4.8,2.2-4.8,4.9c0,2.6,2.2,5.1,4.8,5.1c2.4,0,4-1.1,4.4-3.1H17v-3H24.5z M30,19v-2h-2v2h-2
	v2h2v3h2v-3h3v-2H30z"/>
</svg>
