<?xml version="1.0" encoding="utf-8"?>
<!-- Generator: Adobe Illustrator 18.0.0, SVG Export Plug-In . SVG Version: 6.00 Build 0)  -->
<!DOCTYPE svg PUBLIC "-//W3C//DTD SVG 1.1//EN" "http://www.w3.org/Graphics/SVG/1.1/DTD/svg11.dtd">
<svg version="1.1" id="Layer_1" xmlns="http://www.w3.org/2000/svg" xmlns:xlink="http://www.w3.org/1999/xlink" x="0px" y="0px"
	 viewBox="0 0 40 40" enable-background="new 0 0 40 40" xml:space="preserve">
<g>
	<path fill="#862A8F" d="M38,2v36H2V2H38 M40,0H0v40h40V0L40,0z"/>
</g>
<g>
	<path fill="#862A8F" d="M14.1,12h11.9c1.1,0,2.1,0.8,2.1,2.1v11.9c0,1.2-0.9,2.1-2.1,2.1H14.1c-1.1,0-2.1-0.8-2.1-2.1V14.1
		C12,12.8,12.9,12,14.1,12L14.1,12z M23.7,13.8c-0.4,0-0.7,0.3-0.7,0.7v1.7c0,0.4,0.3,0.7,0.7,0.7h1.8c0.4,0,0.7-0.3,0.7-0.7v-1.7
		c0-0.4-0.3-0.7-0.7-0.7H23.7L23.7,13.8z M26.2,18.8h-1.4c0.1,0.4,0.2,0.9,0.2,1.4c0,2.7-2.2,4.8-5,4.8c-2.7,0-5-2.2-5-4.8
		c0-0.5,0.1-0.9,0.2-1.4h-1.5v6.8c0,0.3,0.3,0.6,0.6,0.6h11.1c0.3,0,0.6-0.3,0.6-0.6L26.2,18.8L26.2,18.8z M20,16.9
		c-1.8,0-3.2,1.4-3.2,3.1c0,1.7,1.4,3.1,3.2,3.1c1.8,0,3.2-1.4,3.2-3.1C23.2,18.2,21.8,16.9,20,16.9z"/>
</g>
</svg>
