<?xml version="1.0" encoding="utf-8"?>
<!-- Generator: Adobe Illustrator 18.0.0, SVG Export Plug-In . SVG Version: 6.00 Build 0)  -->
<!DOCTYPE svg PUBLIC "-//W3C//DTD SVG 1.1//EN" "http://www.w3.org/Graphics/SVG/1.1/DTD/svg11.dtd">
<svg version="1.1" id="Layer_1" xmlns="http://www.w3.org/2000/svg" xmlns:xlink="http://www.w3.org/1999/xlink" x="0px" y="0px"
	 viewBox="0 0 23.1 20" enable-background="new 0 0 23.1 20" xml:space="preserve">
<path fill="#90A4AE" d="M15.5,8.9c0.1,0,0.2,0.8,0.2,1.4c0,4.6-3.1,7.7-7.7,7.7c-4.4,0-8-3.6-8-8.1s3.6-8,8-8c2.2,0,3.9,0.8,5.3,2.1
	L11,6.2l0,0C10,5.4,9.1,5,8,5C5.4,5,3.2,7.2,3.2,9.9C3.2,12.5,5.4,15,8,15c2.4,0,4-1.1,4.4-3.1H8v-3H15.5z M21,8.9v-2h-2v2h-2v2h2
	V13h2v-2.1h2v-2H21z"/>
</svg>
