<svg xmlns="http://www.w3.org/2000/svg" width="841.89" height="595.28" viewBox="0 0 841.89 595.28"><path fill="#58595B" d="M327.793 378.363c-.905-.912-5.594-5.406-6.943-6.84-1.346-1.418-2.08-2.54-2.08-4.16v-48.35c0-12.268-10.38-22.932-17.54-25.912 0 0 17.74-8.905 17.123-41.175-.537-28.21-12.49-42.8-36.555-42.8H252.88c-.928 0-1.387.694-1.387 1.387 0 .696.505 1.002 1.62 2.085 1.53 1.482 5.022 4.803 6.94 6.706 1.915 1.903 2.08 3.702 2.08 6.48V365.98c0 2.77-.393 4.3-2.08 6.477-1.688 2.178-5.645 5.535-6.94 6.707-1.044.945-1.62 1.387-1.62 2.084 0 .69.46 1.38 1.388 1.38h36.32c.93 0 1.39-.688 1.39-1.38 0-.697-1.007-1.502-1.62-2.084-.61-.576-4.882-4.123-6.937-6.707-2.056-2.598-2.082-3.707-2.082-6.477v-65.123c7.87-1.78 14.287 1.78 17.202 8.758 2.177 5.207 3.454 17.95 3.454 25.87v32.34c0 7.87 4.512 14.804 15.157 14.804h12.026c1.523 0 2.16-.323 2.26-1.017.174-1.215-.614-1.6-2.257-3.25zM297.5 278.425c-2.93 8.527-10.71 11.39-17.45 9.84v-67.198c7.065-1.503 13.47 1.284 16.717 7.865 2.56 5.186 3.84 12.594 3.84 22.994-.002 10.986-.988 20.317-3.108 26.5zM189.316 327.78c0-18.112-7.575-30.14-17.582-34.678 0 0 18.42-8.106 17.296-41.066-.99-29.19-12.67-42.91-36.727-42.91h-28.92c-.93 0-1.387.694-1.387 1.387 0 .696 0 .696 1.618 2.085 1.62 1.39 5.025 4.803 6.94 6.706s2.08 3.702 2.08 6.48V365.98c0 2.77-.392 4.3-2.08 6.477s-5.643 5.535-6.94 6.707c-1.043.945-1.618 1.387-1.618 2.084 0 .69.458 1.38 1.388 1.38h36.32c33.678 0 29.612-51.058 29.612-54.847zm-21.41 33.286c-2.93 8.527-10.712 11.398-17.456 9.84v-70.168c7.067-1.5 13.47 1.287 16.722 7.87 2.56 5.177 3.834 12.593 3.834 22.993 0 10.986-.982 23.293-3.1 29.466zm0-82.64c-2.93 8.526-10.712 11.388-17.456 9.838v-67.197c7.067-1.503 13.47 1.284 16.722 7.865 2.56 5.186 3.834 12.594 3.834 22.994 0 10.986-.982 20.317-3.1 26.5z"/><g fill="#58595B"><path d="M483.633 458.744c-2.91 0-5.093 2.615-5.093 2.615v-2.17c0-.298-.15-.446-.364-.446h-7.187c-.732 0-.45.63-.15.895.295.265 1.612 1.204 1.845 1.38.63.46.61.643.61.86v44.32c0 .22 0 .52-.15.6l-2.305 2.62c-.233.217-.562.818.15.818h9.873c.79 0 .298-.602.082-.818l-2.322-2.62c-.083-.08-.083-.38-.083-.6v-8.68s1.95 2.84 5.014 2.84c3.3 0 6.736-1.874 6.888-22.983 0-16.69-3.59-18.633-6.81-18.633zm.274 36.315c-.962 4.563-5.367.954-5.367-4.394v-23.094c0-3.668 2.252-5.61 3.302-5.61 1.865 0 2.77 1.573 2.77 15.415 0 7.15.013 14.26-.705 17.682zM233.705 449.61c0-.905-.023-1.476-.673-2.103-.65-.623-2.004-1.932-2.248-2.17-.24-.225-.522-.45-.522-.666 0-.23.15-.452.45-.452h11.304c6.344 0 10.1 3.975 9.903 14.87-.167 9.308-2.717 16.067-12.448 15.147v20.732c0 .895.045 1.604.673 2.102.63.493 2.448 1.895 2.77 2.16.272.233.523.45.523.68 0 .228-.15.45-.447.45h-12.278c-.3 0-.45-.223-.45-.45 0-.23.3-.405.71-.812.402-.4 1.46-1.38 2.062-2.03.6-.655.673-1.206.673-2.1v-45.36zm5.767 20.88c6.084 1.19 6.26-4.17 6.287-11.746.025-7.684-.38-11.746-6.288-10.79v22.536zM282.733 495.268c0 .977.3 1.854.972 1.875.93.03 1.768-.664 2.173-1.28.353-.528.74-.267.546.472-.554 2.12-1.97 4.027-3.84 4.027-2.32 0-3.52-1.494-4.418-2.842-1.196 1.348-3.145 2.842-5.166 2.842-2.917 0-6.51-1.922-6.51-12.13 0-8.31 1.27-10.624 9.507-17.214 1.495-1.2 1.495-1.87 1.495-4.94 0-3.296-.747-4.126-3.144-4.114-2.793.01-5.948 2.44-6.563 2.982-.482.43-.935.38-.92-.064.024-.9 3.83-6.072 8.46-6.137 2.69-.043 7.407 1.64 7.407 9.352v27.17zm-5.24-22.153c-3.956 2.918-5.466 6.14-5.466 13.773 0 8.527.824 10.254 2.47 10.254 1.65 0 2.995-2.322 2.995-4.414v-19.613zM374.94 495.268c0 .977.3 1.854.972 1.875.932.03 1.766-.664 2.173-1.28.355-.528.74-.267.544.472-.552 2.12-1.97 4.027-3.838 4.027-2.322 0-3.52-1.494-4.417-2.842-1.2 1.348-3.142 2.842-5.167 2.842-2.92 0-6.512-1.922-6.512-12.13 0-8.31 1.27-10.624 9.508-17.214 1.493-1.2 1.493-1.87 1.493-4.94 0-3.296-.746-4.126-3.14-4.114-2.797.01-5.952 2.44-6.564 2.982-.485.43-.936.38-.924-.064.03-.9 3.832-6.072 8.462-6.137 2.69-.043 7.407 1.64 7.407 9.352v27.17zm-5.243-22.153c-3.955 2.918-5.46 6.14-5.46 13.773 0 8.527.82 10.254 2.467 10.254 1.65 0 2.993-2.322 2.993-4.414v-19.613zM431.153 495.268c0 .977.3 1.854.964 1.875.94.03 1.766-.664 2.173-1.28.364-.528.74-.267.552.472-.56 2.12-1.978 4.027-3.837 4.027-2.322 0-3.52-1.494-4.43-2.842-1.194 1.348-3.137 2.842-5.162 2.842-2.912 0-6.505-1.922-6.505-12.13 0-8.31 1.27-10.624 9.51-17.214 1.493-1.2 1.493-1.87 1.493-4.94 0-3.296-.747-4.126-3.15-4.114-2.785.01-5.94 2.44-6.56 2.982-.48.43-.937.38-.917-.064.024-.9 3.83-6.072 8.455-6.137 2.688-.043 7.415 1.64 7.415 9.352v27.17zm-5.242-22.153c-3.956 2.918-5.468 6.14-5.468 13.773 0 8.527.82 10.254 2.466 10.254 1.658 0 3.003-2.322 3.003-4.414v-19.613zM611.37 495.268c0 .977.302 1.854.978 1.875.927.03 1.765-.664 2.17-1.28.354-.528.74-.267.542.472-.554 2.12-1.962 4.027-3.837 4.027-2.322 0-3.52-1.494-4.413-2.842-1.2 1.348-3.15 2.842-5.17 2.842-2.916 0-6.514-1.922-6.514-12.13 0-8.31 1.278-10.624 9.51-17.214 1.493-1.2 1.493-1.87 1.493-4.94 0-3.296-.75-4.126-3.138-4.114-2.795.01-5.956 2.44-6.567 2.982-.48.43-.932.38-.917-.064.025-.9 3.83-6.072 8.453-6.137 2.7-.043 7.41 1.64 7.41 9.352v27.17zm-5.24-22.153c-3.958 2.918-5.463 6.14-5.463 13.773 0 8.527.825 10.254 2.474 10.254 1.645 0 2.99-2.322 2.99-4.414v-19.613zM314.85 473.563c0 .92-.724.695-.897-.072-.17-.776-2.182-12.02-5.69-11.526-3.82.533-1.4 10.39 2.698 16.242 3.085 4.408 4.868 9.803 4.868 14.672 0 4.643-3.293 7.484-6.438 7.484-2.1 0-3.37-.98-4.495-2.396l-1.943 2.02c-.226.154-.998 1.117-.974-.152V485.46c-.058-.626.615-.507.748.15 1.157 5.815 2.92 11.534 5.688 11.534 1.648 0 2.396-1.28 2.396-3.22 0-4.646-2.396-9.58-4.788-13.474-2.696-4.496-4.27-9.133-4.27-13.695 0-4.875 2.995-8.01 5.69-8.01 1.8 0 3.144.895 4.416 2.39 0 0 1.365-1.35 2.192-2.075.83-.725.803.05.803.43-.002-.002-.002 13.147-.002 14.073zM339.386 494.447c0 3.852 3.156 2.764 4.122 1.117.308-.523.918-.352.464 1.045-.423 1.294-1.815 3.75-4.96 3.75-3.144 0-4.863-1.427-4.863-7.567V462.48c0-1.385-1.195-1.928-2.398-3.07-.71-.666-.074-.9.676-.965 3.292-.604 3.667-6.29 3.667-9.29 0-.368.223-.67.6-.67h2.243c.3 0 .45.153.45.52v8.61c0 .375.075.682.602.682h1.72c.374 0 .52.447 0 .895-.7.604-2.322 2.12-2.322 3.29-.002 1.164-.002 31.965-.002 31.965zM508.808 462.326c0-.297-.083-.447-.23-.598l-2.24-2.09c-.15-.23-.608-.895.147-.895h7.187c.225 0 .374.148.374.447v37.053c0 .3 0 .523.15.674l2.314 2.613c.152.15.67.83-.145.83h-9.88c-.757 0-.3-.68-.15-.83l2.323-2.613c.15-.15.15-.375.15-.674v-33.917zm5.237-14.137c0 1.94-1.2 3.964-2.697 3.964-1.574 0-2.77-2.023-2.77-3.965 0-2.024 1.196-3.972 2.77-3.972 1.497 0 2.697 1.948 2.697 3.97zM532.525 459.342c0-.3.297-.598.664-.598h13.772c.573 0 .38.666.297.895l-8.98 38.177h3.97c.743 0 1.275-.297 1.49-.975 0 0 3.06-9.164 3.52-10.555.468-1.402.83-.527.83 0v13.545c0 .23-.15.53-.6.53 0 0-14.65-.007-14.966 0-.318.003-.338-.413-.234-.83.11-.407 9.66-38.25 9.66-38.25h-3.593c-.674 0-1.122.3-1.42 1.044 0 0-3.048 8.88-3.45 10.258-.39 1.393-.953.73-.963.232v-13.474zM563.795 459.342c0-.3.297-.598.68-.598h13.77c.576 0 .368.666.3.895l-8.982 38.177h3.97c.747 0 1.265-.297 1.495-.975 0 0 3.06-9.164 3.518-10.555.458-1.402.826-.527.826 0v13.545c0 .23-.153.53-.604.53 0 0-14.654-.007-14.973 0-.314.003-.328-.413-.22-.83.095-.407 9.656-38.25 9.656-38.25h-3.598c-.67 0-1.123.3-1.423 1.044 0 0-3.04 8.88-3.44 10.258-.402 1.393-.966.73-.976.232v-13.474z"/></g><path fill="#58595B" d="M455.84 209.125h-31.405c-.938 0-1.397.695-1.397 1.388 0 .696.724 1.41 1.377 2.01.637.6 5.667 5.464 6.953 6.78 1.287 1.318 1.857 3.703 1.857 6.48V357.58c0 18.162-23.625 17.46-23.625.846V225.784c0-2.778.748-4.99 1.85-6.48 1.1-1.49 6.563-6.35 7.078-6.888.635-.656 1.253-1.207 1.253-1.903 0-.692-.46-1.388-1.39-1.388h-35.393c-.93 0-1.39.695-1.39 1.388 0 .696.313 1.295 1.16 2.085.837.79 5.78 5.154 7.17 6.706 1.392 1.554 1.85 3.702 1.85 6.48v129.67c0 16.798 13.72 27.095 27.54 27.175 13.812.095 27.722-10.01 27.722-28.853V225.784c0-2.778.748-5.086 1.854-6.48 1.088-1.395 6.648-6.177 7.173-6.706.507-.53 1.16-1.39 1.16-2.085 0-.693-.464-1.388-1.398-1.388zM528.78 225.784c0-2.778-.678-4.65-2.076-6.48-1.136-1.483-4.05-4.814-5.782-6.706-.713-.78-1.625-1.39-1.625-2.317 0-.46.468-1.154 1.392-1.154h27.752c1.63 0 2.314 1.618 2.78 3.933l21.75 99.484v-86.76c0-2.777-.612-4.665-2.08-6.245-1.47-1.588-5.778-6.238-6.48-6.942-.702-.71-1.626-1.39-1.626-2.317 0-.46.473-1.154 1.396-1.154h30.533c.928 0 1.393.695 1.393 1.155 0 .93-.75 1.51-1.833 2.698-1.074 1.188-4.277 4.522-5.576 6.327-1.3 1.808-2.08 3.702-2.08 6.48V380.09c0 1.62.005 2.54-2.314 2.54h-9.71c-2.086 0-3.938-2.314-4.635-5.776l-27.526-126.087V365.98c0 2.77.56 4.332 2.47 6.537 2.05 2.355 4.954 5.523 6.094 6.646.748.742 1.616 1.387 1.616 2.307 0 .47-.458 1.158-1.39 1.158H520.69c-.924 0-1.392-.69-1.392-1.158 0-.92.864-1.605 1.956-2.69 1.494-1.503 4.038-4.55 5.45-6.323 1.412-1.77 2.076-3.707 2.076-6.477V225.784zM121.996 412.023h597.637v2.238H121.996zM719.894 291.253c0 43.727-2.67 91.375-31.063 91.375-28.387 0-30.707-47.648-30.707-91.375 0-33.313 2.294-82.128 30.708-82.128 28.418 0 31.064 48.815 31.064 82.128zm-42.797.23c0 60.155 4.008 79.58 11.734 79.58 7.73 0 12.098-19.425 12.098-79.58 0-51.355-4.592-70.79-12.097-70.79-7.5 0-11.733 19.435-11.733 70.79z"/><g fill="#58595B"><path d="M291.607 101.764l18.607-5.688 1.772 5.79-1.3.645-3.208-4.103-4.427 1.353 5.8 18.966 3.162.207.19 1.433-8.654 2.65-.646-1.297 2.5-1.942-5.798-18.964-4.424 1.356-.366 5.198-1.438.188-1.77-5.792zM342.896 100.654l-1.233-2.208c-.496-.068-.888-.09-1.687.08-.93.198-2.265.963-3.336 1.645l2.442 11.553 2.347.235-.014 1.256-6.99 1.48-.488-1.15 2.017-1.16-2.637-12.453-1.665.355-.486-1.148 3.785-1.186 1.425.99c1-.873 2.135-1.742 3.867-2.108 1.002-.21 2.035-.256 3.083-.062l.72 3.397-1.15.487zM362.422 94.132c1.598-1.036 3.143-1.59 4.864-1.783 4.198-.48 6.615 1.508 7.064 5.5l.905 8.012 2.277.463-.096 1.245-4.5.51-.71-1.154c-1.204 1.196-2.05 1.842-4.386 2.106-2.843.32-5.21-.95-5.545-3.895-.533-4.73 4.522-6.058 8.916-6.555l-.203-1.794c-.272-2.4-1.785-3.393-3.782-3.167-.88.1-1.922.287-2.828.732l-.418 2.686-1.243-.1-.315-2.806zm8.93 5.667c-4.26.482-5.785 2.13-5.507 4.594.273 2.436 1.815 3.05 3.17 2.897 1.35-.153 2.36-.92 2.933-2.216l-.597-5.275zM398.15 90.073l4.453-.252-.175 1.24-4.21.234.606 10.905c.09 1.597.995 2.468 2.006 2.41 1.226-.07 1.947-.62 2.614-1.44l.83.875c-1.052 1.252-1.995 2.088-3.928 2.196-3.128.176-4.592-1.65-4.732-4.132l-.593-10.635-1.97.108-.305-1.207 2.368-.88 1.23-3.65 1.587.288.22 3.943zM425.548 89.385l4.467.072-.263 1.224-4.223-.067-.17 10.92c-.022 1.602.816 2.535 1.837 2.55 1.22.02 1.974-.478 2.7-1.25l.764.93c-1.126 1.175-2.13 1.94-4.078 1.91-3.128-.05-4.456-1.978-4.42-4.46l.182-10.655-1.98-.03-.22-1.23 2.43-.71 1.482-3.548 1.563.398-.072 3.947zM463.792 99.135c-.39 5.225-3.198 8.116-8.595 7.714-5.367-.405-7.735-3.82-7.346-8.91.373-5.09 3.567-8.058 8.582-7.683 5.033.378 7.747 3.654 7.36 8.878zm-12.65-1.05c-.316 4.274 1.267 7.292 4.14 7.51 2.89.216 4.935-2.496 5.256-6.806.333-4.345-1.345-7.064-4.188-7.278-2.83-.21-4.893 2.3-5.208 6.572zM494.076 99.722l-.37-2.5c-.442-.238-.808-.393-1.61-.518-.947-.142-2.458.114-3.71.372l-1.757 11.674 2.122 1.042-.45 1.17-7.062-1.065-.063-1.248 2.3-.378 1.893-12.58-1.69-.25-.047-1.248 3.957.217.993 1.42c1.235-.464 2.607-.88 4.354-.613 1.007.15 1.995.467 2.905 1.02l-.51 3.43-1.256.055zM517.505 115.92l-.538 1.13-6.932-1.62.014-1.253 2.35-.188 2.898-12.392-1.688-.394.05-1.247 3.594.457 1.435.72-3.166 13.584 1.98 1.2zm2.72-20.58c-.24.994-1.256 1.595-2.25 1.362-.953-.223-1.594-1.21-1.365-2.206.236-.995 1.248-1.598 2.204-1.375.997.24 1.634 1.226 1.41 2.22zM537.372 107.02c1.884-.295 3.52-.168 5.17.355 4.026 1.274 5.42 4.076 4.21 7.904l-2.443 7.686 1.894 1.348-.597 1.097-4.313-1.365-.187-1.346c-1.577.605-2.63.846-4.86.137-2.718-.865-4.374-2.994-3.478-5.814 1.437-4.54 6.59-3.693 10.812-2.354l.55-1.722c.73-2.302-.253-3.828-2.168-4.435-.842-.266-1.867-.523-2.875-.483l-1.478 2.28-1.094-.595.854-2.694zm5.85 8.816c-4.09-1.297-6.152-.415-6.903 1.952-.744 2.338.405 3.523 1.705 3.936 1.303.41 2.54.126 3.592-.826l1.606-5.062z"/></g></svg>