<svg xmlns="http://www.w3.org/2000/svg" width="841.89" height="595.28" viewBox="0 0 841.89 595.28"><g fill="#58595B"><path d="M238.874 119.687c-1.097.018.817-6.117-.265-11.17-.885-4.12-3.818-2.874-3.818-2.874s2.21 1.91-.814 4.508c-3.475 2.985-8.925-1.505-3.638-7.274 4.037-4.406 13.207-3.733 12 7.003-.925 8.195-3.466 9.807-3.466 9.807z"/><path d="M232.892 114.335c-3.255 2.877-6.73 2.987-6.73 2.987 2.55-10.967-5.918-10.783-5.918-10.783 2.036-5.293-1.82-13.637.244-20.033 1.954-6.06 9.445-9.99 8.55-11.265-.897-1.276-26.63 7.438-30.7 26.575-2.544 11.958 3.094 22.392 3.094 22.392-1.06 1.627-2.606 8.103-2.606 8.103s2.792.61 4.968 2.116c2.385 1.652 3.68 4.022 3.68 4.022l-6.49 6.603c.162 2.606 2.36 4.113 2.36 4.113-6.27 8.51-1.994 8.51-1.994 16 0 1.792-1.955 5.946-1.955 5.946-.814 1.303 2.402 3.258 2.402 3.258.53 3.258-.162 9.446-.162 9.446s-5.538 1.26-12.826.528c-6.442-.648-11.89-1.125-14.21-.896-4.113.406-4.07 5.64 1.75 4.48 5.496-1.098 19.91 3.095 29.407-.694 0 0 1.022-9.054.56-12.703-.366-2.89-1.914-3.745-1.914-3.745s2.705-5.303.207-12.583c-1.51-4.396 4.028-8.834 4.028-8.834l-2.077-3.418 6.678-6.8c-3.46-7.33-8.957-9.69-8.957-9.69.286-1.598.974-3.277 1.693-5.063.534-1.33-4.24-5.466-3.728-16.72.736-16.225 14.142-22.56 14.142-22.56s-2.39 6.044-.137 14.088c1.58 5.64-2.384 8.457-2.085 11.46.86-.715 1.952-1.16 3.157-1.16 2.75 0 4.98 2.23 4.98 4.98 0 2.75-2.23 4.978-4.98 4.978 5.146 3.495 17.793 3.63 20.398-9.528.53-2.663-2.495 2.336-4.828 4.397z"/><path d="M223.012 125.27c-.53-3.702 3.727-4.63 4.29-.858.762 5.132 2.55 14.01-1.033 19.668-4.524 7.144-5.62 9.364-4.908 10.92 3.44 7.517 1.16 9.112 2.505 11.067 0 0 3.833.485 6.026 3.622 2.646 3.785 1.424 9.364 2.77 12.285 2.877 6.257 47.414 48.927 54.11 55.427.62.6 11.606 2.658 11.687 3.583.08.92-11.32 1.913-16.288-2.24-3.11-2.603-48.005-47.148-52.24-52.81-3.38-4.517-1.708-10.994-3.582-13.64-1.585-2.24-3.745-1.423-5.25-2.808-1.147-1.054-2.126-2.843-2.126-7.37 0-3.54-2.187-4.19-2.19-8.306-.004-4.804 7.33-12.093 7.492-17.507.1-3.38-.805-7.82-1.264-11.032z"/><path d="M245.326 192.885c-.642.128-.12-1.154-.654-1.958-.652-.975-3.124-.16-3.116-1.682.006-1.205.926-4.61.673-10.205-.38-8.415 3.274-12.107 9.237-15.582 5.963-3.475 4.606-7.98 4.606-7.98s-3.04-1.52-2.987-5.592c.047-3.543 1.398-4.493 2.987-5.573 2.316-1.575 4.525 1.344 2.865 2.93-3.734 3.565.972 6.12.972 6.12.52 1.246 1.636 9.402-4.616 12.702-7.202 3.8-8.314 6.945-9.075 12.59-.648 4.81-1.507 8.177-1.44 9.125.05.684 1.14 1.08 1.466 1.898.327.816-.103 3.047-.92 3.207zM260.335 136.86c0-3.15 4.208-2.985 4.208 0v5.97s5.047 1.032 5.537 5.482c.42 3.818-1.41 6.842-1.41 6.842s-.6 3.473 1.03 5.807c.95 1.364 7.607 4.16 10.224 9.01 2.696 5 2.642 9.89 3.077 14.987.317 3.697 1.25 4.994 1.086 5.43-.163.432-2.605.703-2.876 1.086-.27.378-2.86 21.175 6.134 26.38 6.188 3.585 21.277 3.154 21.85 2.852.57-.297-1.167 3.72-12.946 3.104-11.018-.575-17.048-3.62-19.11-14.696-2.063-11.075-.216-19.923 0-20.194.218-.27 1.666-.923 1.83-1.247.162-.326-.093-13.412-3.785-17.104-4.018-4.016-9.826-5.047-10.75-11.238-.945-6.338 1.196-6.24 1.196-9.607 0-2.986-5.294-2.66-5.294-5.81v-7.055zM260.896 197.516c0 .795.426 4.707.426 4.707s-4.08 1.193-4.523 0c0 0-.427-3.456-.427-4.707 0-1.246 1.012-2.26 2.26-2.26 1.25 0 2.263 1.014 2.263 2.26zM272.06 197.516v4.707c0 .653-4.438 1.12-4.95-.073v-4.706c0-1.247.89-2.188 2.334-2.188 1.443 0 2.615 1.014 2.615 2.26zM368.854 177.14c5.398.69 7.167-1.018 6.76-5.248-.41-4.235-7.31-4.826-11.522-5.5-5.09-.816-5.985-2.974-5.985-2.974s3.54-1.262 3.583-5.985c.024-2.85-1.995-7.29-6.15-7.613-3.937-.31-7.895 4.56-8.466 4.398-.574-.163-1.784-3.465-.726-2.73.766.53 2.56-.173 2.787-2.443 1.97-19.705 14.413-25.54 14.026-26.464-.29-.69-6.682 1.428-11.363 7.006-5.52 6.57-6.882 16.692-6.882 16.692-3.46-26.545 1.954-33.874.897-34.364-1.06-.49-6.697 4.778-11.686 10.71-6.026 7.165-6.963 15.105-6.963 15.105s-3.867-.124-5.985 5.983c-3.46 9.98 7.166 23.412 7.166 23.412s-3.706 1.753-3.624 4.847c.123 4.6 8.26 8.556 6.843 9.572-3.748 2.686-1.928 5.908-4.928 9.97-5.417 7.33-13.263 5.105-12.908 6.188 2.402 7.33 12.337 5.783 12.337 5.783-3.38 9.16.693 14.127.693 14.127-2.196 3.728-7.956 4.282-11.682 4.282-3.728 0-3.872.097-3.872 1.917v7.24c0 .974 4.07 4.233 4.07 4.233s1.02 3.3 1.548 16.45c.697 17.297-4.646 18.727-5.536 19.095-2.85 1.182-1.915 5.09 1.587 4.233 3.504-.853 6.557-4.272 7.94-14.044 1.536-10.832-1.14-28.014-1.14-28.014s-3.826-1.79-3.826-3.176c0-3.745.656-3.91 4.892-3.91 8.467 0 11.07-9.364 11.07-9.364s-3.082-2.665-2.364-6.768c1.142-6.507 7.82-16.848 4.318-13.182-5.16 5.396-10.506 2.523-10.506 2.523 4.56-1.956 8.805-4.863 9.772-13.03.734-6.19 6.19 3.584 4.805-1.22-1.743-6.055-7.246-8.634-8.55-12.296-.906-2.552 6.76-1.956 6.84-3.177.082-1.222-3.826-2.22-8.668-12.447-7.29-15.405 3.62-15.73 3.62-15.73-.813-9.607 7.887-18.446 8.376-18.06.488.388-.478 6.008.338 19.77.813 13.762 5.11 15.798 7 15.798 4.36 0 4.238-4.682 7.434-4.682 1.9 0 3.44 1.54 3.44 3.44 0 1.898-1.54 3.44-3.44 3.44-.484 0-.942-.102-1.36-.282.062 1.63.743 6.98 6.957 9.077 5.663 1.908 11.902 1.604 11.55 3.28-.27 1.28-4.953.14-8.206.302-3.25.16-7.323 2.643-6.966 3.785 2.077 6.64-2.357 17.037-3.705 23.373-2.565 12.052.69 16.245 8.143 19.83 9.85 4.736 10.667 7.572 11.43 7.115.76-.456-1.823-4.714-4.265-6.63-2.474-1.934-8.062-5.658-10.423-8.02-2.362-2.362-1.207-11.443 1.505-19.234 2.647-7.6 2.2-14.52 2.2-14.52s1.71-2.643 7.774-1.87z"/><path d="M504.11 203.36h-23.08c.467-.535.75-1.276.75-2.095 0-1.634-1.062-2.642-2.473-2.642h-5.325c-.998.428-.97 3.276-.588 4.737h-3.913c.5-2.4.23-6.127-2.826-7.423-7.068-3-13.193-14.154-14.578-14.154-1.384 0-1.79 5.21-14.605 13.122-1.94 1.2-3.55 3-3.55 4.63 0 3.258 4.48 2.85 4.48.486 0-1.42 1.625-2.522 4.814-3.87 4.536-1.915 7.804-7.69 8.945-7.69 1.136 0 3.603 6.155 12.375 10.096 1.965.884 2.546 3.107 2.92 4.804h-51.452v-10.83c0-2.036 3.972-13.68 5.1-13.68 1.13 0 5.89 12.11 6.018 13.68.128 1.57.522 8.802 1.416 8.796.893-.006 1.39-5.538 1.39-8.795s-6.92-25.182-8.318-25.182c-1.397 0-10.41 19.402-10.41 25.183v10.83h-18.376c-2.387 0-15.994 5.85-18.17 6.913-3.868 1.883-2.15 6.01 2.11 3.796 2.802-1.455 13.996-5.757 16.06-5.757H504.11c2.035 0 16.94 6.015 17.374 4.954.438-1.065-14.33-9.907-17.374-9.907zM577.457 153.2c0 3.206-2.602 5.81-5.81 5.81-3.208 0-5.806-2.604-5.806-5.81 0-1.522 2.843-4.384 4.29-.42.703 1.94 3.096 1.475 3.2 0 .11-1.48-1.32-2.078-2.035-2.134-.806-.06-1.66-.22-1.897-.944-.56-1.675 1.215-2.313 2.25-2.313 3.207 0 5.81 2.602 5.81 5.81z"/><path d="M585.873 136.914c-4.844-2.804-9.635-4.006-13.86-4.37v-8.077c3.687 2.85 12.654 6.35 14.13 3.707 1.576-2.822-2.062-4.072-2.062-4.67s6.19-7.872 5.918-8.36c-.27-.49-9.772 2.28-13.68 2.714-1.9.213-3.35.074-4.337-.12-.187-1.317-1.374-5.53-2.1-5.53-.785 0-2.355 4.944-2.355 5.812v14.425c-5.57.236-9.466 1.694-9.993 1.863-.962.31-2.006 1.394-1.612 2.77.454 1.572 1.885 1.683 1.885 1.683s-1.52 5.377 1.9 5.623v36.72s-1.49.526-1.49 2.577 1.49 2.092 1.49 2.092v5.866s-13.192-1.195-13.734.542c-1.242 3.973.675 7.275.675 7.275-17.4 8.686-19.566 29.468-19.566 32.41 0 3.04 4.382 2.876 4.615.16 1.49-17.32 9.47-26.522 21.152-31.05-.882-.957-2.507-2.96-2.59-4.777 0 0 28.013.162 28.36-2.24.12-.825-14.245-2.105-14.245-2.105v-5.97c4.235-1.466 15.53-1.032 15.53-1.032s.105 10.26.758 14.156c.652 3.894 4.992 2.55 4.58-.696-.187-1.456-1.045-10.573-1.213-17.912-.3-13.085.004-32.8.054-35.127.055-2.59-2.32-.54-3.366 6.682-1.25 8.63-.717 30.074-.717 30.074-7.985-1.52-15.625-.92-15.625-.92s-.164-22.26-2.442-34.963c-.136-.76-.348-1.407-.59-1.907 2.12-.267 6.45-.74 10.257-.74 7.76 0 14.89 0 14.855-1.454-.04-1.452-6.728-2.62-11.817-2.98-3.4-.238-14.295-.844-14.295-.844-.126-1.084 6.42-1.41 11.257-1.574s18.79 2.886 14.276.27zm-5.377-15.31s.047 2.273-2.332 2.063c-3.068-.27-3.963-1.9-3.963-1.9 3.746.706 6.296-.163 6.296-.163zM584.347 206.546c2.354 2.284 5.215 4.58 7.737 9.835h22.672c1.19 0 7.436-7.48 8.14-7.48.703 0 8.468 7.425 9.823 7.425h6.79c1.084 0 17.312 20.01 25.746 26.38 4.307 3.25 7.568 4.786 1.828-1.62-6.894-7.703-23.655-27.307-24.684-28.45-1.057-1.166-6.526-.697-8.43-.697-.764 0-10.096-9.227-11.074-9.227-.977 0-9.28 9.228-10.097 9.228H595.26c-.597 0-1.87-5.226-7.22-8.307-3.017-1.735-5.668 1.002-3.695 2.916zM431.72 228.2c1.254-1.07 5.375-1.06 7.41-1.06h6.68s1.298-2.192 2.683-2.93c1.39-.735 4.733-1.385 4.733-1.385s2.133-7.41 7.415-7.41 7.887 7.246 7.887 7.246 3.963.492 5.294 2.12c2.42 2.957 1.44 3.636 2.307 4.044.92.43 4.236-.408 5.706-.408 1.463 0 5.24.373 5.21 1.135-.028.765-5.484 1.172-8.985 2.393-3.506 1.222-5.24-.243-5.7-1.323-.386-.91-1.414-3.292-4.13-3.373-2.53-.074-2.85.652-3.2-.11-.35-.76-1.685-7.08-4.386-7.08-2.7 0-3.54 6.375-3.677 7.08-.136.708-4.02-.042-5.236.572-2.257 1.14-2.654 4.675-2.654 4.675s-6.444-.93-8.887-.77c-2.44.163-6.04.497-7.167.77-2.21.538-3.502-2.315-1.302-4.185zM544.218 241.66c-.095 2.96.614 12.912.94 20.152.998 22.2-.164 28.7 1.82 25.24.91-1.59 2.132-10.335 2.25-15.614.39-17.044.195-29.644-.73-31.443-.93-1.8-4.168-1.91-4.28 1.664zM482.443 216.253c2.963.008 10.695.98 17.926 1.55 22.148 1.75 28.686.804 25.16 2.672-1.618.857-5.634 1.925-10.902 2.185-16.543.814-32.224-1.196-33.99-2.185-1.772-.99-1.772-4.23 1.805-4.222zM220.395 194.277c2.917 2.133 13.313 11.88 25.723 25.91 12.41 14.033 30.438 34.595 28.94 35.652-1.5 1.056-20.158-19.402-27.673-27.758-7.516-8.355-27.13-27.547-30.02-29.98-2.892-2.43-.188-6.176 3.03-3.825zM183.372 194.277c2.917 2.133 13.69 15.51 23.462 33.08 9.104 16.37 23.53 39.55 22.03 40.605-1.5 1.055-17.254-19.76-24.83-36.263-6.56-14.28-20.803-31.165-23.693-33.596-2.89-2.43-.185-6.178 3.032-3.827zM554.602 237.888c3.542-.71 17.754-1.79 36.48-1.466 18.73.328 46.068.922 45.838 2.742-.236 1.822-27.924 1.76-39.16 1.66-11.236-.106-38.637 1.398-42.385 1.886-3.744.486-4.68-4.037-.773-4.822zM174.24 287.482c3.54.71 62.715.78 81.445.456 18.73-.326 46.07-1.858 45.835-3.677-.233-1.818-27.92-.82-39.16-.72-11.235.103-83.6-.388-87.348-.878-3.744-.488-4.68 4.037-.772 4.82zM174.24 296.63c3.54.71 123.948.78 142.677.456 18.73-.326 46.07-1.857 45.835-3.68-.232-1.818-27.92-.82-39.158-.72-11.238.105-144.835-.387-148.582-.877-3.744-.488-4.68 4.035-.772 4.82zM174.24 305.9c3.54.708 344.323.78 363.054.455 18.728-.322 46.07-1.856 45.836-3.676-.235-1.82-27.92-.827-39.158-.724-11.24.104-365.21-.387-368.958-.875-3.746-.486-4.683 4.035-.774 4.82zM382.71 237.888c3.542-.71 78.837-.782 97.57-.456 18.73.327 46.07 1.86 45.834 3.678-.235 1.82-27.92.82-39.16.72-11.236-.103-99.726.39-103.47.88-3.746.486-4.683-4.037-.774-4.822zM598.668 302.917c1.567-1.563 9.04-2.854 19.625-2.854 10.588 0 36.728 5.14 47.068-.815 0 0-1.19-9.853-1.3-25.65-.084-11.645 1.938-19.428 2.32-18.946 2.81 3.555.61 26.6 3.785 47.773 0 0-8.96 4.97-25.082 3.907-24.27-1.595-35.748-2.195-41.5-.434-5.95 1.823-6.125-1.775-4.915-2.98zM535.008 235.066c2.753-.28 7.507.06 7.507 2.322 0 4.02.126 7.87.04 12.554-.323 18.73-.95 44.063-2.77 43.83-1.82-.236-1.76-27.924-1.66-39.162.036-3.69-.007-8.262-.322-14.02-.06-1.056-.605-1.035-3.486-1.035-2.017 0-3.275-4.09.69-4.49zM418.737 276.436v7.48c0 2.88-5.32 1.457-5.32 1.457v-8.936c0-1.287 1.017-2.835 2.66-2.835s2.66 1.547 2.66 2.834zM430.698 276.42c0 .992.205 8.276.205 8.276s-4.572 1.49-5.07 0c0 0-.204-6.72-.204-8.275 0-1.557 1.136-2.82 2.533-2.82 1.4 0 2.535 1.263 2.535 2.82zM406.485 277.39c0 1.33-.15 7.874-.15 7.874s-4.786 2-5.306 0c0 0 .147-5.784.147-7.875 0-2.093 1.19-3.79 2.653-3.79 1.468 0 2.655 1.697 2.655 3.79zM407.168 255.395v7.48c0 2.88-5.32 1.46-5.32 1.46v-8.94c0-1.285 1.016-2.833 2.66-2.833 1.644 0 2.66 1.547 2.66 2.833zM418.403 255.38c0 .993.208 8.277.208 8.277s-4.567 1.49-5.064 0c0 0-.21-6.72-.21-8.276s1.137-2.82 2.535-2.82 2.533 1.264 2.533 2.82zM431.31 256.33v7.842c0 1.086-4.942 1.87-5.52-.12v-7.84c0-2.082.997-3.65 2.604-3.65 1.615 0 2.916 1.688 2.916 3.77zM463.207 276.436v7.48c0 2.88-5.32 1.457-5.32 1.457v-8.936c0-1.287 1.018-2.835 2.663-2.835 1.64 0 2.657 1.547 2.657 2.834zM475.17 276.42c0 .992.207 8.276.207 8.276s-4.573 1.49-5.07 0c0 0-.207-6.72-.207-8.275 0-1.557 1.14-2.82 2.534-2.82 1.396 0 2.535 1.263 2.535 2.82zM450.956 277.39c0 1.33-.148 7.874-.148 7.874s-4.79 2-5.308 0c0 0 .148-5.784.148-7.875 0-2.093 1.188-3.79 2.65-3.79 1.47 0 2.658 1.697 2.658 3.79zM451.64 255.395v7.48c0 2.88-5.32 1.46-5.32 1.46v-8.94c0-1.285 1.018-2.833 2.657-2.833 1.644 0 2.663 1.547 2.663 2.833zM462.875 255.38c0 .993.205 8.277.205 8.277s-4.566 1.49-5.063 0c0 0-.207-6.72-.207-8.276s1.132-2.82 2.53-2.82c1.404 0 2.535 1.264 2.535 2.82zM475.78 256.33v7.842c0 1.086-4.942 1.87-5.52-.12v-7.84c0-2.082.997-3.65 2.605-3.65 1.614 0 2.915 1.688 2.915 3.77zM507.508 276.436v7.48c0 2.88-5.32 1.457-5.32 1.457v-8.936c0-1.287 1.018-2.835 2.662-2.835 1.64 0 2.658 1.547 2.658 2.834zM519.47 276.42c0 .992.205 8.276.205 8.276s-4.573 1.49-5.068 0c0 0-.207-6.72-.207-8.275 0-1.557 1.137-2.82 2.532-2.82 1.398 0 2.537 1.263 2.537 2.82zM495.257 277.39c0 1.33-.15 7.874-.15 7.874s-4.788 2-5.307 0c0 0 .146-5.784.146-7.875 0-2.093 1.188-3.79 2.652-3.79 1.47 0 2.66 1.697 2.66 3.79zM495.94 255.395v7.48c0 2.88-5.32 1.46-5.32 1.46v-8.94c0-1.285 1.015-2.833 2.656-2.833 1.645 0 2.663 1.547 2.663 2.833zM507.173 255.38c0 .993.205 8.277.205 8.277s-4.566 1.49-5.063 0c0 0-.205-6.72-.205-8.276s1.13-2.82 2.53-2.82c1.402 0 2.533 1.264 2.533 2.82zM520.08 256.33v7.842c0 1.086-4.946 1.87-5.52-.12v-7.84c0-2.082.997-3.65 2.605-3.65 1.614 0 2.916 1.688 2.916 3.77zM554.72 268.56c0-2.42.336-11.356.54-13.083.25-2.08.512-5.97 5.307-5.97 3.868 0 4.467 4.942 4.467 8.01 0 3.066-.5 8.93-1.225 8.93-.73 0-2.065-12.923-3.243-12.923-1.796 0-1.286 13.777-1.286 16.007 0 3.537-4.56 2.533-4.56-.97zM568.727 268.56c0-2.42.335-11.356.543-13.083.246-2.08.512-5.97 5.303-5.97 3.864 0 4.47 4.942 4.47 8.01 0 3.066-.497 8.93-1.228 8.93s-2.063-12.923-3.242-12.923c-1.798 0-1.288 13.777-1.288 16.007 0 3.537-4.558 2.533-4.558-.97zM582.732 268.56c0-2.42.335-11.356.543-13.083.248-2.08.51-5.97 5.303-5.97 3.87 0 4.467 4.942 4.467 8.01 0 3.066-.494 8.93-1.225 8.93-.727 0-2.064-12.923-3.242-12.923-1.517 0-1.39 9.826-1.312 14.223.015.813 4.467 1.436 4.467 1.784 0 3.537-9 2.533-9-.97z"/><g><path d="M335.396 516.726h12.34v2.924H332.1v-24.41h3.297v21.486zM354.797 501.862l4.608 14.494h.064l5.014-14.494h3.262l-6.76 17.787h-3.193l-6.457-17.788h3.46zM375.88 519.65h-2.994V501.86h2.995v17.787zm.193-22.7c0 .946-.767 1.716-1.713 1.716-.946 0-1.713-.77-1.713-1.716 0-.942.767-1.712 1.713-1.712.946 0 1.713.77 1.713 1.712zM384.49 501.862l4.606 14.494h.066l5.015-14.494h3.26l-6.76 17.787h-3.195l-6.458-17.788h3.465zM418.283 505.328h12.75v-10.09h3.29v24.41h-3.29v-11.395h-12.75v11.396h-3.294v-24.412h3.293v10.09zM448.95 501.358c5.685 0 8.236 4.807 8.236 9.38 0 4.578-2.552 9.422-8.235 9.422-5.686 0-8.24-4.844-8.24-9.423 0-4.572 2.555-9.38 8.24-9.38zm0 16.21c4.27 0 5.18-4.44 5.18-6.83 0-2.38-.91-6.797-5.18-6.797s-5.178 4.418-5.178 6.797c0 2.39.91 6.83 5.18 6.83zM466.975 496.952v4.944h2.856v2.49h-2.855v11.533c0 1.312 1.173 1.412 1.778 1.412h1.046v2.316c-.874.173-1.916.274-2.223.274-2.96 0-3.6-1.68-3.6-3.838v-11.7h-2.387v-2.49h2.388v-4.943h2.997zM490.344 514.072c-.67 2.758-2.52 6.088-8.004 6.088-4.973 0-7.9-3.77-7.9-8.92 0-5.545 2.62-9.882 8.505-9.882 5.115 0 7.636 4.106 7.636 10.397h-12.948c0 3.662 1.718 5.813 5.147 5.813 2.79 0 4.57-2.183 4.57-3.496h2.994zm-2.824-4.714c-.17-2.753-1.347-5.312-5.007-5.312-2.728 0-4.882 2.56-4.882 5.312h9.89zM499.654 519.65h-2.99v-24.412h2.99v24.41z"/></g><g><path d="M658.154 360.208c-.968-1.985-.934-5.324 1.51-7.353H643c2.36 2.478 2.324 5.306 1.364 7.343-1.81 3.834-12.02 34.405-12.02 72.894v26.545h10.825v-26.545c0-.857.34-5.38.85-13.226 5.457 3.933 15.47 13.226 15.47 13.226v26.545h10.68v-26.545c0-38.488-10.518-69.813-12.016-72.884zm-6.686 13.744s6.788 29.542 7.223 45.374c-4.27-4.12-8.84-7.895-13.66-11.305.772-10.39 6.438-34.068 6.438-34.068zm-7.173 42.04c.108-1.364.226-2.763.357-4.176 5.094 3.73 9.883 7.898 14.32 12.447.068 1.338.126 2.67.176 3.987-4.618-4.498-9.588-8.592-14.853-12.257zM514.252 360.208c-.968-1.985-.936-5.324 1.507-7.353h-16.663c2.36 2.478 2.323 5.306 1.363 7.343-1.81 3.834-12.018 34.405-12.018 72.894v26.545h10.823v-26.545c0-.857.343-5.38.85-13.226 5.46 3.933 15.47 13.226 15.47 13.226v26.545h10.68v-26.545c0-38.488-10.515-69.813-12.013-72.884zm-6.69 13.744s6.79 29.542 7.226 45.374c-4.272-4.12-8.84-7.895-13.66-11.305.77-10.39 6.435-34.068 6.435-34.068zm-7.168 42.04c.105-1.364.223-2.763.354-4.176 5.096 3.73 9.885 7.898 14.32 12.447.067 1.338.126 2.67.176 3.987-4.618-4.498-9.587-8.592-14.85-12.257zM185.983 439.68v12.58c0 5.03 3.218 7.377 3.218 7.377h-17.48s3.582-2.136 3.582-7.378v-91.674c0-4.734-3.582-7.73-3.582-7.73h12.02c6.168 0 21.868-1.067 20.525 12.958-.885 9.247-2.21 21.442-4.138 33.116-4.41 26.7-14.144 26.308-14.144 40.75zm0-29.376c5.494-10.996 7.142-33.592 7.142-42.766 0-2.412.708-3.413-7.142-3.413v46.18zM319.573 459.637s3.41-2.03 3.41-7.378V424.75c0-39.945-14.365-57.698-17.184-58.805v86.312c0 4.77 3.275 7.377 3.275 7.377h-17.09s3.14-1.938 3.14-7.378v-91.674c0-4.193-2.73-7.73-2.73-7.73 6.676 0 11.21.38 14.927 1.534 8.598 2.662 11.74 8.81 15.66 16.33v-10.134c0-4.402-2.865-7.73-2.865-7.73h16.39s-2.733 3.38-2.733 7.73v91.673c0 5.555 3.276 7.377 3.276 7.377h-17.477zM579.102 378.157s5.388-21.405 13.914-24.338c3.654-1.257 5.588-.965 13.942-.965 0 0-3.275 2.012-3.275 7.73v91.673c0 5.242 3.275 7.378 3.275 7.378H590.09s2.817-2.24 2.817-7.378V371c-7.424 16.58-8.347 48.325-8.347 48.325h-10.924s-.98-31.85-8.353-48.182v81.114c0 5.137 3.276 7.378 3.276 7.378h-17.187s3.145-2.448 3.145-7.378v-91.673c0-5.512-3.145-7.73-3.145-7.73 8.197 0 10.81-.112 13.797.89 8.64 2.902 13.932 24.413 13.932 24.413zM254.86 360.208c-.967-1.985-.934-5.324 1.507-7.353h-16.66c2.36 2.478 2.322 5.306 1.363 7.343-1.81 3.834-12.018 34.405-12.018 72.894v26.545h10.823v-26.545c0-.857.343-5.38.852-13.226 5.458 3.933 15.468 13.226 15.468 13.226v26.545h10.68v-26.545c0-38.488-10.517-69.813-12.014-72.884zm-6.687 13.744s6.788 29.542 7.223 45.374c-4.272-4.12-8.84-7.895-13.66-11.305.77-10.39 6.437-34.068 6.437-34.068zm-7.17 42.04c.106-1.364.223-2.763.354-4.176 5.095 3.73 9.883 7.898 14.32 12.447.068 1.338.126 2.67.176 3.987-4.618-4.498-9.587-8.592-14.85-12.257z"/><circle cx="381.497" cy="451.878" r="7.685"/><path d="M381.47 352.855c-19.557 0-25.658 16.725-22.13 41.68s11.388 41.637 22.13 41.637c10.744 0 18.46-16.664 22.13-41.636 3.673-24.97-2.572-41.68-22.13-41.68zm11.318 41.68c-1.876 18.353-9.28 30.6-11.308 30.6-2.027 0-9.504-12.258-11.307-30.6-1.8-18.343-1.58-30.606 11.307-30.606s13.185 12.252 11.308 30.604zM460.74 452.26c0-13.108 1.358-38.39-7.13-56.596 1.646-10.65 2.817-21.462 3.622-29.85 1.342-14.026-14.358-12.92-20.526-12.92-6.17 0-12.02-.04-12.02-.04s3.58 2.444 3.58 7.73v91.674c0 5.242-3.58 7.378-3.58 7.378h17.48s-3.218-2.347-3.218-7.378v-12.58c0-10.19 4.848-13.005 9.252-23.162 1.735 11.568 1.368 29.114 1.368 35.742 0 6.77 1.59 7.378 1.59 7.378h12.98c.003 0-3.4-1.99-3.4-7.377zm-14.648-84.722c0 9.174-1.646 31.77-7.143 42.766v-46.18c7.85 0 7.142 1.002 7.142 3.414z"/></g></g></svg>