<?xml version="1.0" encoding="utf-8"?>
<!-- Generator: Adobe Illustrator 16.0.0, SVG Export Plug-In . SVG Version: 6.00 Build 0)  -->
<!DOCTYPE svg PUBLIC "-//W3C//DTD SVG 1.1//EN" "http://www.w3.org/Graphics/SVG/1.1/DTD/svg11.dtd">
<svg version="1.1" id="Layer_1" xmlns="http://www.w3.org/2000/svg" xmlns:xlink="http://www.w3.org/1999/xlink" x="0px" y="0px"
	 width="841.89px" height="595.28px" viewBox="0 0 841.89 595.28" enable-background="new 0 0 841.89 595.28" xml:space="preserve">
<g>
	<path fill="#58595B" d="M316.629,340.818c-1.604,0-2.108-0.741-1.542-2.224l11.145-32.4c0.912-2.622,1.824-5.28,2.744-7.961
		c0.907-2.686,1.768-5.145,2.572-7.376c0.797-2.229,1.424-4.138,1.875-5.742c0.463-1.591,0.694-2.737,0.694-3.431
		c0-0.568-0.115-1.111-0.35-1.63c-0.226-0.506-0.795-0.761-1.711-0.761c-1.027,0-1.971-0.603-2.828-1.808
		c-0.857-1.19-1.057-2.536-0.598-4.023c0.457-1.486,1.917-2.827,4.374-4.029c2.454-1.203,6.416-1.802,11.913-1.802
		c3.653,0,6.174,0.599,7.542,1.802c1.369,1.202,2.053,2.826,2.053,4.888c0,1.255-0.493,3.254-1.459,6
		c-0.972,2.741-2.084,5.597-3.352,8.565c-1.245,2.976-2.449,5.741-3.587,8.315c-1.145,2.571-1.886,4.312-2.231,5.226l1.716,1.206
		c1.712-2.98,3.826-6.518,6.342-10.637c2.517-4.11,5.318-8.047,8.41-11.824c3.072-3.77,6.44-6.966,10.099-9.602
		c3.663-2.625,7.543-3.94,11.652-3.94c2.858,0,5.378,0.892,7.543,2.653c2.172,1.774,3.258,3.689,3.258,5.754
		c0,1.25-0.367,3.141-1.112,5.646c-0.749,2.521-1.578,5.146-2.486,7.892c-0.912,2.739-1.883,5.339-2.909,7.798
		c-1.031,2.452-1.772,4.361-2.231,5.733l1.542,1.211c2.287-3.432,4.77-7.294,7.461-11.57c2.684-4.289,5.59-8.295,8.735-12
		c3.14-3.715,6.514-6.828,10.115-9.342c3.591-2.511,7.513-3.775,11.743-3.775c1.817,0,3.394,0.345,4.714,1.027
		c1.309,0.683,2.397,1.546,3.25,2.577c0.852,1.024,1.486,2.086,1.893,3.171c0.392,1.089,0.602,2.026,0.602,2.827
		c0,1.369-0.264,3.202-0.779,5.489c-0.511,2.287-1.195,4.794-2.053,7.541c-0.854,2.735-1.829,5.646-2.912,8.735
		c-1.095,3.088-2.147,6.167-3.17,9.255c-1.717,4.909-3.239,9.117-4.543,12.598c-1.315,3.488-1.975,5.862-1.975,7.114
		c0.229,1.599,0.916,2.399,2.057,2.399c1.03,0,1.691,0.595,1.967,1.81c0.294,1.197-0.079,2.506-1.11,3.932
		c-1.027,1.438-2.794,2.803-5.312,4.112c-2.513,1.305-6.064,2.091-10.622,2.313c-2.865,0.229-4.867-0.396-5.998-1.882
		c-1.152-1.482-1.778-2.91-1.89-4.285c-0.123-3.088,2.969-12.914,9.259-29.477c1.371-3.54,2.486-6.518,3.334-8.913
		c0.856-2.405,1.546-4.459,2.069-6.177c0.507-1.706,0.878-3.088,1.108-4.112c0.226-1.021,0.34-1.944,0.34-2.736
		c0-2.176-1.034-3.266-3.087-3.266c-0.682,0-1.879,0.832-3.596,2.492c-1.719,1.659-3.747,3.907-6.085,6.766
		c-2.35,2.857-4.889,6.147-7.627,9.861c-2.742,3.705-5.486,7.622-8.229,11.737c-0.571,0.911-1.422,2.431-2.572,4.533
		c-1.142,2.118-2.227,4.657-3.25,7.629l-5.315,15.09c-0.233,0.684-1.035,1.026-2.402,1.026h-14.566
		c-1.601,0-2.175-0.741-1.723-2.224l10.285-28.454c2.172-5.938,4.033-11.256,5.578-15.938c1.541-4.691,2.313-7.716,2.313-9.088
		c0-0.91-0.174-1.712-0.52-2.395c-0.337-0.694-1.142-1.037-2.406-1.037c-0.681,0-1.904,0.804-3.679,2.4
		c-1.764,1.604-3.77,3.715-6.004,6.35c-2.217,2.629-4.648,5.652-7.275,9.083c-2.635,3.425-5.141,7.02-7.55,10.801
		c-1.134,1.592-2.306,3.593-3.51,5.992c-1.195,2.393-2.425,5.14-3.681,8.231l-5.664,15.077c-0.218,0.801-1.015,1.2-2.394,1.2
		H316.629z"/>
	<path fill="#58595B" d="M516.513,266.772c1.261,0,1.712,0.688,1.374,2.058c-0.685,1.828-1.626,4.454-2.829,7.891
		c-1.197,3.428-2.435,6.966-3.682,10.625c-1.255,3.658-2.424,7.091-3.519,10.287c-1.084,3.196-1.795,5.475-2.147,6.849
		c-0.215,0.684-0.682,2.259-1.367,4.723c-0.676,2.446-1.432,5.049-2.229,7.783c-0.798,2.75-1.516,5.301-2.134,7.637
		c-0.628,2.337-0.94,3.86-0.94,4.545c0,1.369,0.685,2.05,2.053,2.05c0.686,0,1.461,0.425,2.309,1.29
		c0.864,0.862,1.086,1.885,0.69,3.081c-0.401,1.2-1.832,2.453-4.288,3.777c-2.464,1.309-6.662,2.362-12.595,3.164
		c-2.629,0.35-4.465-0.14-5.478-1.46c-1.038-1.306-1.553-2.649-1.553-4.014c0-0.583,0.086-1.265,0.255-2.065
		c0.174-0.794,0.49-1.994,0.949-3.593c0.447-1.606,1.112-3.72,1.967-6.354c0.857-2.617,2.027-6.057,3.514-10.277l-1.546-0.857
		c-1.716,2.625-3.679,5.574-5.906,8.821c-2.231,3.261-4.766,6.383-7.629,9.345c-2.855,2.979-6.004,5.466-9.432,7.46
		c-3.424,1.985-7.143,2.994-11.135,2.994c-1.14,0-2.393-0.369-3.765-1.114c-1.374-0.741-2.657-1.742-3.86-2.995
		c-1.204-1.256-2.2-2.685-2.999-4.287c-0.801-1.595-1.195-3.255-1.195-4.966c0-3.544,0.572-7.551,1.712-11.997
		c1.132-4.461,2.712-8.975,4.705-13.538c2.005-4.575,4.428-9.032,7.286-13.372c2.853-4.344,5.967-8.171,9.341-11.487
		c3.371-3.318,6.971-6.001,10.799-8.054c3.821-2.063,7.793-3.09,11.908-3.09c3.886,0,6.802,0.662,8.755,1.973
		c1.929,1.313,3.476,2.655,4.615,4.029l2.745-4.975c0.794-1.253,1.828-1.885,3.081-1.885H516.513z M459.78,323.503
		c0,1.948,0.342,3.283,1.031,4.032c0.692,0.748,1.704,1.117,3.084,1.117c1.14,0,2.878-1.199,5.229-3.607
		c2.336-2.396,4.736-5.226,7.196-8.472c2.454-3.263,4.767-6.553,6.937-9.859c2.182-3.322,3.668-5.828,4.47-7.541
		c1.016-2.285,1.938-4.857,2.739-7.714c0.801-2.859,1.199-5.771,1.199-8.739c0-1.947-0.839-3.717-2.49-5.318
		c-1.656-1.605-3.344-2.398-5.063-2.398c-4.221,0-8.502,3.892-12.85,11.66c-4.342,7.651-7.333,14.646-8.995,20.985
		C460.607,314.004,459.78,319.285,459.78,323.503z"/>
	<path fill="#58595B" d="M511.37,340.456c-1.488,0-1.722-1.794-0.688-5.401c1.027-3.596,2.94-8.11,5.741-13.538
		c2.799-5.429,6.281-11.313,10.46-17.654c4.169-6.332,8.68-12.223,13.548-17.649c4.842-5.429,9.761-9.938,14.727-13.546
		c4.967-3.597,9.686-5.393,14.134-5.393c1.15,0,2.265,0.31,3.345,0.942c1.087,0.626,2.065,1.369,2.918,2.229
		c0.863,0.856,1.546,1.767,2.054,2.739c0.52,0.967,0.72,1.802,0.606,2.492c0,1.818-0.199,3.706-0.606,5.652
		c-0.397,1.945-1.022,4.173-1.88,6.681c-0.861,2.517-1.938,5.348-3.255,8.479c-1.315,3.142-2.831,6.837-4.547,11.063
		c-2.283,5.715-3.988,10.368-5.136,13.965c-1.146,3.604-1.723,5.97-1.723,7.116c0,1.941,0.978,2.913,2.924,2.913
		c-0.23,0-0.054,0.06,0.511,0.172c0.572,0.113,1.11,0.313,1.626,0.599c0.519,0.29,0.854,0.666,1.026,1.115
		c0.177,0.457-0.229,1.089-1.196,1.894c-0.968,0.786-2.716,1.769-5.233,2.909c-2.502,1.146-6.101,2.452-10.793,3.938
		c-1.368,0.463-2.599,0.489-3.679,0.09c-1.091-0.406-2.006-1.03-2.756-1.889c-0.735-0.86-1.333-1.865-1.795-2.994
		c-0.446-1.146-0.681-2.23-0.681-3.265c0-1.942,0.681-5.201,2.05-9.771c1.384-4.563,3.776-11.078,7.207-19.532
		c2.171-5.263,3.909-9.715,5.222-13.373c1.321-3.66,1.975-6.277,1.975-7.882c0-0.913-0.315-1.66-0.944-2.229
		c-0.632-0.574-1.282-0.858-1.977-0.858c-0.675,0-2.045,0.995-4.106,2.994c-2.058,2.002-4.284,4.405-6.685,7.21
		c-2.399,2.792-4.743,5.65-7.031,8.563c-2.28,2.91-3.938,5.226-4.973,6.938c-1.474,2.516-2.764,5.007-3.849,7.456
		c-1.091,2.456-2.249,5.511-3.517,9.175l-5.484,16.462c-0.106,0.218-0.488,0.413-1.114,0.591c-0.624,0.172-1.372,0.285-2.223,0.338
		c-0.866,0.053-1.691,0.113-2.495,0.177C512.288,340.431,511.71,340.456,511.37,340.456z"/>
	<path fill="#58595B" d="M604.228,331.733c2.059,0,3.026,0.576,2.924,1.716c-0.124,1.143-1.009,2.381-2.669,3.689
		c-1.653,1.309-3.992,2.535-7.016,3.68c-3.039,1.144-6.495,1.712-10.374,1.712c-2.64,0-4.397-0.542-5.315-1.622
		c-0.918-1.09-1.369-2.257-1.369-3.521c0-0.793,0.195-1.91,0.602-3.337c0.4-1.429,1.001-3.4,1.798-5.916
		c0.802-2.51,1.824-5.599,3.093-9.247c1.245-3.656,2.797-8.119,4.62-13.374l4.63-13.538c0.797-2.288,1.427-4.195,1.878-5.745
		c0.455-1.546,0.692-2.827,0.692-3.852c0-1.48-0.748-2.229-2.22-2.229c-0.351,0-0.865-0.176-1.563-0.517
		c-0.667-0.34-1.242-0.832-1.705-1.458c-0.456-0.626-0.659-1.347-0.6-2.136c0.055-0.802,0.749-1.693,2.056-2.664
		c1.308-0.97,3.34-1.941,6.09-2.915c2.746-0.965,6.624-1.911,11.654-2.829c2.618-0.567,4.627-0.113,5.996,1.373
		c1.362,1.489,2.065,3.086,2.065,4.804c0,1.945-0.493,4.314-1.465,7.116c-0.973,2.8-2.316,6.708-4.024,11.73l-9.261,26.233
		c-1.137,3.201-1.881,5.512-2.22,6.937c-0.351,1.434-0.523,2.604-0.523,3.506c0,0.583,0.144,1.118,0.429,1.629
		C602.718,331.478,603.318,331.733,604.228,331.733z M613.313,229.406c4.115,0,7.174,0.943,9.183,2.832
		c1.993,1.876,2.994,4.138,2.994,6.769c0,1.37-0.315,2.713-0.941,4.021c-0.643,1.321-1.492,2.521-2.584,3.601
		c-1.087,1.087-2.331,1.971-3.766,2.66c-1.429,0.683-2.944,1.025-4.528,1.025c-3.333,0-5.986-0.909-7.983-2.741
		c-1.994-1.827-3.002-4.401-3.002-7.71c0-2.629,1.038-5.029,3.085-7.203C607.829,230.493,610.338,229.406,613.313,229.406z"/>
	<path fill="#58595B" d="M298.301,234.012c-0.963-3.472-3.235-7.13-6.82-10.979c-1.86-2.011-4.095-3.792-6.714-5.344
		c-2.605-1.554-5.493-2.765-8.654-3.652c-3.159-0.889-6.598-1.321-10.323-1.299c-3.717,0.032-7.657,0.572-11.831,1.632
		c-4.313,1.058-8.56,2.822-12.734,5.299c-3.98,2.352-8.139,5.304-12.458,8.749c-1.185-0.019-2.516-0.047-4.076-0.096
		c-0.527-0.015-1.004,0.003-1.512,0.015c-20.909-3.443-64.394-6.571-74.093,24.366c-5.034,16.051,1.082,25.188,13.221,31.004
		c-2.888,6.111-6.123,12.607-9.766,19.55c-3.814,7.237-7.906,14.296-12.25,21.187c-4.347,6.896-8.917,13.366-13.688,19.407
		c-4.785,6.05-9.613,11.038-14.517,15.003c-5.793,4.793-11.052,8.088-15.785,9.874c-4.733,1.81-9.37,2.461-13.909,1.972
		c-2.614-0.277-4.967-0.884-7.039-1.854c-2.087-0.975-3.807-2.126-5.152-3.484c-1.35-1.343-2.287-2.845-2.798-4.518
		c-0.508-1.656-0.444-3.317,0.186-4.973c1.127-2.991,1.315-5.323,0.574-7.009c-0.741-1.697-1.891-2.735-3.461-3.122
		c-2.729-0.287-4.637,0.364-5.727,1.974c-1.089,1.6-1.742,3.435-1.956,5.481c-0.341,3.18,0.073,6.306,1.241,9.348
		c1.179,3.063,3.036,5.843,5.585,8.349c2.55,2.517,5.778,4.639,9.663,6.368c3.902,1.738,8.339,2.867,13.35,3.401
		c4.426,0.47,8.602,0.564,12.546,0.29c3.94-0.267,7.802-0.979,11.605-2.13c3.798-1.146,7.612-2.814,11.466-4.984
		c3.845-2.182,7.858-4.999,12.016-8.476c3.28-2.745,6.572-6.105,9.859-10.066c3.292-3.961,6.504-8.249,9.633-12.844
		c3.139-4.619,6.145-9.416,9.024-14.389c2.883-4.98,5.545-9.837,7.999-14.577c2.461-4.732,4.626-9.187,6.513-13.373
		c1.782-3.944,3.257-7.328,4.451-10.211c4.27,0.91,8.776,1.725,13.45,2.47l-8.772,32.279c-1.372,5.264-2.569,9.149-3.596,11.659
		c-1.026,2.517-1.457,4.259-1.286,5.226c0.173,0.971,1.03,1.456,2.564,1.456c1.546,0,4.207,0.067,7.973,0.181
		c3.888,0.108,6.883-0.373,8.999-1.461c2.124-1.086,3.718-2.489,4.804-4.204c1.082-1.713,1.86-3.657,2.308-5.822
		c0.46-2.176,0.972-4.287,1.546-6.341l19.15-70.638c2.873-5.794,6.086-12.537,10.508-17.955
		c12.431-15.268,50.657-22.856,49.572,6.081c-0.049,1.167-1.045,1.789-1.542,2.248c-1.428,1.326-2.673,1.95-3.77,1.864
		c-1.082-0.076-2.061-0.337-2.94-0.775c-1.512-0.785-3.387-1.253-5.648-1.417c-2.257-0.166-4.347,0.65-6.271,2.432
		c-2.178,2.026-3.072,4.09-2.66,6.207c0.411,2.116,1.159,3.764,2.246,4.943c1.868,2.005,3.82,3.311,5.863,3.911
		c2.039,0.6,4.059,0.714,6.049,0.34c1.979-0.361,3.884-1.061,5.729-2.063c-0.452,0.243-0.844,0.471,0.049-0.024
		c0.875-0.48,0.5-0.275,0.066-0.041c1.824-1.017,3.448-2.174,4.853-3.473c1.501-1.403,3.034-3.245,4.554-5.538
		c1.55-2.284,2.603-4.898,3.15-7.831C299.473,240.678,299.265,237.48,298.301,234.012z M209.45,239.46
		c-0.352,2.172-0.808,4.287-1.375,6.339l-10.637,39.13c-22.613-4.324-34.395-13.406-25.014-31.513
		c6.813-13.136,23.743-16.868,38-17.515C209.999,237.016,209.644,238.174,209.45,239.46z"/>
	<path fill="#58595B" d="M784.485,234.012c-0.968-3.472-3.231-7.13-6.815-10.979c-1.863-2.011-4.099-3.792-6.716-5.344
		c-2.607-1.554-5.496-2.765-8.661-3.652c-3.151-0.889-6.598-1.321-10.317-1.299c-3.722,0.032-7.659,0.572-11.828,1.632
		c-4.311,1.058-8.562,2.822-12.741,5.299c-3.98,2.352-8.133,5.304-12.451,8.749c-1.186-0.019-2.527-0.047-4.076-0.096
		c-0.528-0.015-1.008,0.003-1.511,0.015c-20.908-3.443-64.396-6.571-74.097,24.366c-5.03,16.051,1.081,25.188,13.223,31.004
		c-2.882,6.111-6.133,12.607-9.77,19.55c-3.818,7.237-7.897,14.296-12.245,21.187c-4.353,6.896-8.916,13.366-13.696,19.407
		c-4.775,6.05-9.612,11.038-14.51,15.003c-5.797,4.793-11.06,8.088-15.789,9.874c-4.721,1.81-9.365,2.461-13.908,1.972
		c-2.617-0.277-4.961-0.884-7.038-1.854c-2.084-0.975-3.802-2.126-5.16-3.484c-1.344-1.343-2.272-2.845-2.796-4.518
		c-0.512-1.656-0.439-3.317,0.188-4.973c1.122-2.991,1.321-5.323,0.573-7.009c-0.737-1.697-1.886-2.735-3.458-3.122
		c-2.727-0.287-4.627,0.364-5.722,1.974c-1.098,1.6-1.742,3.435-1.968,5.481c-0.33,3.18,0.084,6.306,1.245,9.348
		c1.183,3.063,3.036,5.843,5.589,8.349c2.553,2.517,5.768,4.639,9.662,6.368c3.902,1.738,8.352,2.867,13.352,3.401
		c4.432,0.47,8.604,0.564,12.549,0.29c3.935-0.267,7.798-0.979,11.598-2.13c3.805-1.146,7.618-2.814,11.474-4.984
		c3.845-2.182,7.851-4.999,12.012-8.476c3.284-2.745,6.568-6.105,9.86-10.066c3.295-3.961,6.516-8.249,9.634-12.844
		c3.138-4.619,6.146-9.416,9.025-14.389c2.881-4.98,5.548-9.837,8.001-14.577c2.464-4.732,4.623-9.187,6.512-13.373
		c1.768-3.944,3.253-7.328,4.446-10.211c4.262,0.91,8.788,1.725,13.453,2.47l-8.773,32.279c-1.369,5.264-2.571,9.149-3.597,11.659
		c-1.03,2.517-1.463,4.259-1.286,5.226c0.173,0.971,1.033,1.456,2.573,1.456c1.539,0,4.19,0.067,7.964,0.181
		c3.89,0.108,6.884-0.373,8.998-1.461c2.111-1.086,3.721-2.489,4.804-4.204c1.084-1.713,1.848-3.657,2.314-5.822
		c0.458-2.176,0.97-4.287,1.542-6.341l19.151-70.638c2.866-5.794,6.09-12.537,10.488-17.955
		c12.448-15.268,50.676-22.856,49.591,6.081c-0.044,1.167-1.041,1.789-1.541,2.248c-1.429,1.326-2.688,1.95-3.769,1.864
		c-1.096-0.076-2.074-0.337-2.945-0.775c-1.506-0.785-3.395-1.253-5.647-1.417c-2.249-0.166-4.344,0.65-6.268,2.432
		c-2.178,2.026-3.069,4.09-2.659,6.207c0.402,2.116,1.166,3.764,2.245,4.943c1.859,2.005,3.819,3.311,5.858,3.911
		c2.039,0.6,4.055,0.714,6.056,0.34c1.972-0.361,3.878-1.061,5.723-2.063c-0.448,0.243-0.84,0.471,0.049-0.024
		c0.879-0.48,0.504-0.275,0.071-0.041c1.823-1.017,3.441-2.174,4.845-3.473c1.504-1.403,3.04-3.245,4.563-5.538
		c1.546-2.284,2.599-4.898,3.148-7.831C785.658,240.678,785.449,237.48,784.485,234.012z M695.634,239.46
		c-0.35,2.172-0.802,4.287-1.381,6.339l-10.626,39.13c-22.617-4.324-34.396-13.406-25.014-31.513
		c6.805-13.136,23.734-16.868,37.984-17.515C696.183,237.016,695.836,238.174,695.634,239.46z"/>
	<path fill="#58595B" d="M310.128,269.003c-1.375-1.486-3.376-1.94-6-1.373c-5.026,0.917-8.91,1.863-11.657,2.829
		c-2.739,0.974-4.767,1.945-6.085,2.915c-1.309,0.971-1.998,1.862-2.05,2.664c-0.058,0.79,0.145,1.51,0.598,2.136
		c0.458,0.626,1.029,1.118,1.708,1.458c0.693,0.34,1.197,0.517,1.554,0.517c1.471,0,2.223,0.749,2.223,2.229
		c0,1.025-0.229,2.306-0.686,3.852c-0.451,1.55-1.093,3.457-1.894,5.745l-0.963,2.827c-6.286,0.203-16.318,4.189-20.669,6.027
		c-3.38,1.393-6.508,2.852-9.296,4.316c-0.308,0.157-0.585,0.313-0.893,0.471c3.776-11.338,7.198-21.531,7.867-23.237
		c1.603-4.12,2.406-6.803,2.406-8.058c0-1.375-0.489-2.831-1.467-4.375c-0.963-1.535-2.758-2.315-5.393-2.315
		c-5.256,0-9.119,0.599-11.571,1.802c-2.457,1.202-4.059,2.511-4.789,3.942c-0.76,1.426-0.982,2.746-0.7,3.945
		c0.288,1.198,0.607,1.796,0.948,1.796c1.479,0,2.228,0.924,2.228,2.747c0,0.572-0.222,1.623-0.682,3.174
		c-0.462,1.536-1.03,3.424-1.719,5.656c-0.682,2.231-1.486,4.655-2.394,7.283c-0.919,2.626-1.887,5.31-2.917,8.058l-11.831,32.904
		c-0.456,1.253,0.063,1.882,1.546,1.882h14.569c0.915,0,1.516-0.09,1.797-0.252c0.289-0.177,0.541-0.433,0.778-0.774
		c0,0,3.803-11.553,8.039-24.298c0.82-0.313,1.665-0.663,2.555-1.02c1.615-0.655,3.342-1.357,5.181-2.032
		c2.928-1.089,6.041-2.201,9.14-3.262c2.742-0.921,5.974-1.952,9.039-2.72c0.7-0.127,1.387-0.304,2.064-0.467
		c0.694-0.177,1.379-0.342,2.035-0.451c0.163-0.03,0.33-0.067,0.493-0.098l-0.026,0.067c-1.823,5.255-3.373,9.718-4.625,13.374
		c-1.264,3.648-2.28,6.737-3.087,9.247c-0.793,2.516-1.394,4.487-1.798,5.916c-0.404,1.427-0.6,2.544-0.6,3.337
		c0,1.265,0.452,2.432,1.371,3.521c0.919,1.08,2.677,1.622,5.315,1.622c3.876,0,7.338-0.568,10.373-1.712
		c3.025-1.145,5.367-2.371,7.024-3.68c1.657-1.309,2.539-2.547,2.658-3.689c0.111-1.14-0.86-1.716-2.917-1.716
		c-0.908,0-1.516-0.256-1.798-0.775c-0.281-0.511-0.429-1.046-0.429-1.629c0-0.901,0.162-2.072,0.519-3.506
		c0.337-1.425,1.078-3.735,2.231-6.937l9.25-26.233c1.706-5.022,3.051-8.931,4.025-11.73c0.967-2.802,1.46-5.171,1.46-7.116
		C312.185,272.089,311.496,270.492,310.128,269.003z"/>
</g>
</svg>
