<?xml version="1.0" encoding="utf-8"?>
<!-- Generator: Adobe Illustrator 16.0.0, SVG Export Plug-In . SVG Version: 6.00 Build 0)  -->
<!DOCTYPE svg PUBLIC "-//W3C//DTD SVG 1.1//EN" "http://www.w3.org/Graphics/SVG/1.1/DTD/svg11.dtd">
<svg version="1.1" id="Layer_1" xmlns="http://www.w3.org/2000/svg" xmlns:xlink="http://www.w3.org/1999/xlink" x="0px" y="0px"
	 width="841.89px" height="595.28px" viewBox="0 0 841.89 595.28" enable-background="new 0 0 841.89 595.28" xml:space="preserve">
<g>
	<path fill="#58595B" d="M421.504,28.349L304.31,219.594h234.389L421.504,28.349z M458.41,201.573l-0.01,0.016h-21.176h-30.98
		l-21.089-0.016c0,0-1.723-0.072-1.723-1.723c0-0.281,0.234-0.842,0.234-0.842l22-35.801l12.136,19.786l-5.676,9.172h-0.028
		c-0.164,0.266-0.251,0.56-0.251,0.871c0,0.958,0.765,1.71,1.723,1.71h16.471c0.957,0,1.707-0.766,1.707-1.71
		c0-0.312-0.07-0.605-0.244-0.871v-0.014l-29.345-47.966l-0.296-0.341c-0.294-0.31-0.737-0.516-1.194-0.516
		c-1.062,0-1.474,0.84-1.474,0.84l-35.184,57.419l-24.164-0.016l59.2-96.39c0.281-0.528,0.854-0.884,1.503-0.884
		c1.031,0,1.52,0.884,1.52,0.884l57.859,93.825v0.027c0.133,0.239,0.203,0.533,0.203,0.814
		C460.133,200.807,459.383,201.573,458.41,201.573z M444.15,144.378c-0.313-0.503-0.855-0.842-1.488-0.842
		c-1.012,0-1.475,0.87-1.475,0.87l-3.404,5.604l-12.045-19.596l15.449-25.215c0,0,0.426-0.899,1.52-0.899
		c0.65,0,1.199,0.355,1.488,0.884l58.951,96.405h-23.824L444.15,144.378z"/>
	<path fill="#58595B" d="M135.405,258.121c5.839-1.18,17.5-2.198,28.722-2.198c13.567,0,21.868,1.298,29.005,5.547
		c6.857,3.64,11.678,10.338,11.678,19.388c0,8.586-5.102,16.618-16.027,20.854v0.274c11.207,2.923,19.537,11.536,19.537,24.217
		c0,9.041-4.1,16.023-10.219,20.844c-7.151,5.681-19.095,8.893-38.632,8.893c-10.928,0-19.096-0.737-24.063-1.46V258.121z
		 M157.432,295.575h7.286c11.811,0,17.93-4.808,17.93-12.094c0-7.445-5.693-11.365-15.735-11.365c-4.968,0-7.726,0.279-9.481,0.722
		V295.575z M157.432,339.163c2.184,0.438,4.807,0.438,8.598,0.438c10.041,0,18.933-3.935,18.933-14.289
		c0-9.904-8.892-13.839-19.951-13.839h-7.58V339.163z"/>
	<path fill="#58595B" d="M237.912,326.202c0.724,9.331,9.763,13.713,20.127,13.713c7.565,0,13.685-1.035,19.669-3.071l2.92,15.011
		c-7.297,3.071-16.176,4.534-25.804,4.534c-24.197,0-38.058-13.999-38.058-36.454c0-18.09,11.369-38.074,36.009-38.074
		c23.03,0,31.79,17.948,31.79,35.599c0,3.785-0.443,7.132-0.737,8.893L237.912,326.202z M263.996,311.042
		c0-5.263-2.33-14.435-12.387-14.435c-9.48,0-13.27,8.613-13.859,14.435H263.996z"/>
	<path fill="#58595B" d="M294.902,306.367c0-8.892-0.281-16.337-0.577-22.75h19.243l1.035,9.924h0.424
		c2.937-4.658,10.059-11.517,22.018-11.517c14.582,0,25.523,9.762,25.523,30.76v42.142h-22.161v-39.518
		c0-9.189-3.216-15.459-11.237-15.459c-6.12,0-9.762,4.233-11.37,8.306c-0.575,1.474-0.722,3.51-0.722,5.545v41.126h-22.177V306.367
		z"/>
	<path fill="#58595B" d="M359.942,368.779c5.679-0.45,10.339-1.749,13.11-4.686c3.212-3.331,4.379-9.022,4.379-23.179v-57.298
		h22.163v62.706c0,15.443-3.348,24.924-10.058,31.047c-6.575,5.981-16.912,8.754-27.411,8.754L359.942,368.779z M388.223,274.28
		c-7.431,0-12.253-5.231-12.253-11.795c0-6.707,4.958-11.809,12.55-11.809c7.578,0,12.223,5.102,12.385,11.809
		c0,6.563-4.807,11.795-12.532,11.795H388.223z"/>
	<path fill="#58595B" d="M473.361,337.715c0,6.71,0.279,13.254,1.182,17.211h-19.996l-1.311-7.154h-0.428
		c-4.672,5.695-11.963,8.743-20.404,8.743c-14.438,0-23.051-10.496-23.051-21.87c0-18.5,16.629-27.254,41.848-27.254v-0.875
		c0-3.792-2.051-9.186-12.975-9.186c-7.299,0-15.014,2.479-19.688,5.252l-4.083-14.145c4.953-2.786,14.739-6.413,27.704-6.413
		c23.771,0,31.201,13.99,31.201,30.76V337.715z M451.922,321.244c-11.648,0-20.705,2.758-20.705,11.227
		c0,5.687,3.797,8.444,8.766,8.444c5.396,0,10.053-3.64,11.516-8.154c0.291-1.177,0.424-2.49,0.424-3.801V321.244z"/>
	<path fill="#58595B" d="M485.188,306.367c0-8.892-0.324-16.337-0.604-22.75h18.811l0.873,9.774h0.439
		c3.07-4.673,9.488-11.367,21.59-11.367c9.32,0,16.457,4.807,19.523,12.253h0.297c2.773-3.804,5.836-6.726,9.318-8.76
		c3.947-2.181,8.332-3.493,13.566-3.493c13.711,0,24.049,9.612,24.049,30.901v42h-21.563v-38.653
		c0-10.33-3.346-16.323-10.508-16.323c-5.238,0-8.744,3.512-10.338,7.732c-0.441,1.607-0.725,3.792-0.725,5.542v41.702h-21.6
		v-39.949c0-8.907-3.201-15.027-10.336-15.027c-5.695,0-9.055,4.382-10.365,7.881c-0.727,1.734-0.875,3.785-0.875,5.691v41.404
		h-21.555V306.367z"/>
	<path fill="#58595B" d="M615.652,274.28c-7.43,0-12.236-5.231-12.236-11.795c0-6.707,4.939-11.809,12.531-11.809
		c7.584,0,12.24,5.102,12.387,11.809c0,6.563-4.803,11.795-12.535,11.795H615.652z M604.727,283.617h22.15v71.309h-22.15V283.617z"
		/>
	<path fill="#58595B" d="M638.832,306.367c0-8.892-0.291-16.337-0.578-22.75h19.248l1.016,9.924h0.443
		c2.918-4.658,10.057-11.517,22.012-11.517c14.568,0,25.512,9.762,25.512,30.76v42.142h-22.16v-39.518
		c0-9.189-3.203-15.459-11.238-15.459c-6.104,0-9.744,4.233-11.369,8.306c-0.576,1.474-0.721,3.51-0.721,5.545v41.126h-22.164
		V306.367z"/>
	<path fill="#58595B" d="M308.615,436.979c-0.441-11.811-0.884-25.936-0.884-40.374h-0.282
		c-3.213,12.536-7.284,26.528-11.073,38.046l-11.957,38.335h-17.357l-10.498-37.891c-3.201-11.68-6.415-25.53-8.891-38.49h-0.282
		c-0.442,13.259-1.032,28.432-1.621,40.669l-1.889,37.34h-20.569l6.282-98.268h29.579l9.643,32.944
		c3.2,11.218,6.12,23.472,8.301,34.987h0.589c2.626-11.382,5.975-24.193,9.334-35.301l10.351-32.631h29.153l5.248,98.268h-21.558
		L308.615,436.979z"/>
	<path fill="#58595B" d="M375.825,476.2c-20.852,0-36.894-13.694-36.894-36.729c0-23.046,15.156-37.76,38.206-37.76
		c21.705,0,36.314,15.013,36.314,36.581c0,25.95-18.533,37.907-37.482,37.907H375.825z M376.264,460.31
		c8.761,0,14.144-8.6,14.144-21.428c0-10.493-4.07-21.291-14.144-21.291c-10.499,0-14.597,10.798-14.597,21.439
		c0,12.09,5.103,21.279,14.451,21.279H376.264z"/>
	<path fill="#58595B" d="M460.092,476.2c-20.832,0-36.879-13.694-36.879-36.729c0-23.046,15.162-37.76,38.189-37.76
		c21.719,0,36.307,15.013,36.307,36.581c0,25.95-18.521,37.907-37.467,37.907H460.092z M460.518,460.31
		c8.764,0,14.162-8.6,14.162-21.428c0-10.493-4.072-21.291-14.162-21.291c-10.482,0-14.564,10.798-14.564,21.439
		c0,12.09,5.1,21.279,14.438,21.279H460.518z"/>
	<path fill="#58595B" d="M505.73,426.777c0-10.5-0.15-17.358-0.59-23.476h18.977l0.869,13.283h0.574
		c3.645-10.512,12.254-14.873,19.229-14.873c2.064,0,3.066,0.135,4.674,0.439v20.838c-1.887-0.295-3.643-0.578-6.117-0.578
		c-8.168,0-13.713,4.231-15.16,11.223c-0.281,1.462-0.459,3.066-0.459,4.972v36.009H505.58L505.73,426.777z"/>
	<path fill="#58595B" d="M574.246,445.887c0.727,9.316,9.781,13.7,20.117,13.7c7.592,0,13.713-1.023,19.699-3.07l2.906,15.026
		c-7.273,3.071-16.195,4.53-25.807,4.53c-24.197,0-38.047-14-38.047-36.47c0-18.074,11.375-38.04,36.01-38.04
		c23.035,0,31.781,17.919,31.781,35.564c0,3.79-0.434,7.15-0.727,8.893L574.246,445.887z M600.348,430.711
		c0-5.232-2.332-14.434-12.387-14.434c-9.479,0-13.283,8.613-13.861,14.434H600.348z"/>
	<path fill="#58595B" d="M307.42,496.995c4.349-0.826,10.042-1.446,17.281-1.446c8.893,0,15.409,2.067,19.553,5.797
		c3.835,3.316,6.206,8.386,6.206,14.579c0,6.313-1.858,11.268-5.484,14.896c-4.761,5.055-12.52,7.651-21.306,7.651
		c-2.699,0-5.176-0.089-7.256-0.619v27.941h-8.994V496.995z M316.415,530.523c1.977,0.502,4.557,0.707,7.448,0.707
		c10.984,0,17.486-5.378,17.486-14.788c0-9.306-6.502-13.757-16.454-13.757c-3.923,0-6.917,0.41-8.48,0.736V530.523z"/>
	<path fill="#58595B" d="M392.662,553.79c0,4.352,0.192,8.572,0.724,12.005h-8.168l-0.841-6.329h-0.312
		c-2.683,3.939-8.17,7.466-15.288,7.466c-10.148,0-15.322-7.138-15.322-14.378c0-12.107,10.748-18.725,30.095-18.636v-1.021
		c0-4.141-1.133-11.69-11.369-11.59c-4.763,0-9.626,1.344-13.136,3.729l-2.083-6.119c4.145-2.574,10.236-4.336,16.562-4.336
		c15.422,0,19.137,10.455,19.137,20.484V553.79z M383.786,540.241c-9.955-0.204-21.231,1.563-21.231,11.281
		c0,5.986,3.92,8.685,8.476,8.685c6.619,0,10.881-4.144,12.327-8.375c0.294-0.945,0.428-1.979,0.428-2.905V540.241z"/>
	<path fill="#58595B" d="M407.453,506.509c-3.42,0-5.68-2.688-5.68-5.89c0-3.213,2.362-5.791,5.872-5.791
		c3.525,0,5.806,2.578,5.806,5.791c0,3.201-2.281,5.89-5.909,5.89H407.453z M403.104,515.721h9.112v50.074h-9.112V515.721z"/>
	<path fill="#58595B" d="M423.17,529.271c0-5.279-0.107-9.404-0.424-13.55h8.076l0.518,8.17h0.205
		c2.475-4.647,8.289-9.31,16.555-9.31c6.939,0,17.689,4.146,17.689,21.295v29.919h-9.113v-28.856c0-8.083-2.979-14.907-11.58-14.907
		c-5.889,0-10.545,4.245-12.197,9.318c-0.424,1.14-0.617,2.772-0.617,4.246v30.199h-9.111V529.271z"/>
	<path fill="#58595B" d="M487.004,503.719v12.002h13.016v6.931h-13.016v26.996c0,6.21,1.734,9.733,6.811,9.733
		c2.49,0,3.939-0.22,5.279-0.621l0.395,6.932c-1.734,0.62-4.537,1.24-8.033,1.24c-4.262,0-7.678-1.462-9.848-3.834
		c-2.477-2.805-3.51-7.24-3.51-13.123v-27.323h-7.758v-6.931h7.758v-9.212L487.004,503.719z"/>
	<path fill="#58595B" d="M506.953,556.577c2.789,1.668,7.545,3.525,12.105,3.525c6.518,0,9.617-3.2,9.617-7.444
		c0-4.351-2.582-6.726-9.205-9.216c-9.096-3.305-13.344-8.17-13.344-14.172c0-8.063,6.623-14.689,17.264-14.689
		c5.074,0,9.529,1.344,12.227,3.102l-2.184,6.527c-1.975-1.146-5.576-2.902-10.248-2.902c-5.367,0-8.271,3.111-8.271,6.826
		c0,4.246,2.904,6.104,9.422,8.598c8.584,3.201,13.125,7.55,13.125,15.101c0,8.892-6.912,15.1-18.607,15.1
		c-5.486,0-10.559-1.462-14.055-3.526L506.953,556.577z"/>
	<path fill="#58595B" d="M631.826,405.114c4.25,0,7.627,3.455,7.627,7.771c0,4.396-3.377,7.803-7.654,7.803
		c-4.26,0-7.695-3.406-7.695-7.803c0-4.316,3.436-7.771,7.695-7.771H631.826z M631.799,406.328c-3.434,0-6.236,2.937-6.236,6.558
		c0,3.699,2.803,6.597,6.264,6.597c3.436,0.025,6.209-2.897,6.209-6.566c0-3.651-2.773-6.588-6.209-6.588H631.799z M630.326,417.413
		h-1.373v-8.669c0.723-0.104,1.402-0.205,2.445-0.205c1.316,0,2.201,0.264,2.701,0.659c0.516,0.367,0.793,0.944,0.793,1.801
		c0,1.121-0.762,1.831-1.693,2.092v0.078c0.768,0.127,1.285,0.809,1.447,2.093c0.236,1.354,0.412,1.871,0.561,2.151h-1.459
		c-0.18-0.28-0.416-1.072-0.574-2.227c-0.209-1.087-0.752-1.507-1.873-1.507h-0.975V417.413z M630.326,412.611h1.016
		c1.121,0,2.094-0.402,2.094-1.479c0-0.765-0.564-1.535-2.094-1.535c-0.457,0-0.766,0.047-1.016,0.091V412.611z"/>
</g>
</svg>
