<?xml version="1.0" encoding="utf-8"?>
<!-- Generator: Adobe Illustrator 16.0.0, SVG Export Plug-In . SVG Version: 6.00 Build 0)  -->
<!DOCTYPE svg PUBLIC "-//W3C//DTD SVG 1.1//EN" "http://www.w3.org/Graphics/SVG/1.1/DTD/svg11.dtd">
<svg version="1.1" id="Layer_1" xmlns="http://www.w3.org/2000/svg" xmlns:xlink="http://www.w3.org/1999/xlink" x="0px" y="0px"
	 width="841.89px" height="595.28px" viewBox="0 0 841.89 595.28" enable-background="new 0 0 841.89 595.28" xml:space="preserve">
<g>
	<path fill-rule="evenodd" clip-rule="evenodd" fill="#A7A9AC" d="M692.95,517.362h-8.383l-5.025,28.17
		c-0.396,2.568-0.814,3.968-0.814,4.375c0,2.318,1.048,3.486,3.903,3.486c1.28,0,3.1-0.533,5.808-1.168l-2.354,13.435
		c-2.673,0.769-5.271,1.271-8.234,1.271c-10.078,0-14.971-3.324-14.971-11.197c0-1.709,0.118-3.249,0.384-4.813l5.794-33.56h-8.137
		l1.807-11.213h8.27l3.101-17.422h15.364l-3.098,17.422h8.395L692.95,517.362"/>
	<rect x="538.27" y="28.349" fill="#BCBEC0" width="156.489" height="156.453"/>
	<rect x="147.131" y="28.349" fill="#A7A9AC" width="156.484" height="156.453"/>
	<rect x="342.715" y="28.349" fill="#B1B3B6" width="156.475" height="156.453"/>
	<rect x="342.715" y="223.94" fill="#D1D3D4" width="156.475" height="156.477"/>
	<rect x="147.131" y="223.94" fill="#C7C8CA" width="156.484" height="156.477"/>
	<rect x="538.27" y="223.94" fill="#DCDDDE" width="156.489" height="156.477"/>
	<g>
		<path fill-rule="evenodd" clip-rule="evenodd" fill="#58595B" d="M201.351,524.339l-5.433,31.097
			c-0.235,1.432-0.385,2.46-0.385,3.636c0,1.798,0.385,2.973,1.582,4.105v1.563l-16.146-0.107v-5.817
			c-5.049,5.026-9.957,7.229-16.289,7.229c-11.218,0-17.549-7.229-17.549-16.906c0-14.469,8.792-19.612,24.778-21.293
			c10.202-1.18,14.213-0.654,14.213-6.601c0-3.087-3.359-5.29-8.897-5.29c-5.315,0-8.277,2.042-9.016,6.19h-14.991
			c1.901-12.157,9.935-17.827,24.884-17.827c15.249,0,23.483,6.589,23.483,16.542C201.585,522.004,201.585,523.056,201.351,524.339
			 M162.489,547.727c0,3.336,2.438,5.783,6.832,5.783c6.599,0,12.268-4.125,13.293-10.354l1.305-6.693
			C171.772,540.23,162.616,538.141,162.489,547.727z"/>
		<path fill-rule="evenodd" clip-rule="evenodd" fill="#58595B" d="M221.357,564.74h-15.496l10.333-58.863h15.495L221.357,564.74
			 M232.974,499.152h-15.476l2.469-13.803h15.369L232.974,499.152z"/>
		<path fill-rule="evenodd" clip-rule="evenodd" fill="#58595B" d="M272.475,520.721c-2.073-0.529-3.85-0.77-5.293-0.77
			c-7.614,0-12.266,5.561-14.168,16.908l-5.06,27.881h-15.367l10.469-58.863h14.063l-2.32,11.485
			c4.769-9.406,10.191-13.175,18.211-13.175c0.782,0,1.521,0,2.417,0.131L272.475,520.721"/>
		<path fill-rule="evenodd" clip-rule="evenodd" fill="#58595B" d="M304.631,566.58c-8.756,0-14.073-4.303-16.905-12.952
			l-1.809,11.112H271.31l13.955-79.391H300.9l-4.781,27.632c3.871-5.409,8.512-8.663,16.147-8.663
			c12.759,0,20.63,9.572,20.63,24.811C332.896,550.668,320.546,566.58,304.631,566.58 M306.43,516.726
			c-8.771,0-15.109,9.535-15.109,22.605c0,8.898,3.645,13.279,10.734,13.279c9.004,0,15.099-10.587,15.099-22.981
			C317.153,521.619,313.316,516.726,306.43,516.726z"/>
		<path fill-rule="evenodd" clip-rule="evenodd" fill="#58595B" d="M351.236,564.74h-15.507l10.342-58.712h15.516L351.236,564.74
			 M362.861,499.324l-15.646-0.172l2.481-13.665h15.496L362.861,499.324z"/>
		<path fill-rule="evenodd" clip-rule="evenodd" fill="#58595B" d="M391.501,517.1h-8.377l-4.919,28.146
			c-0.511,2.702-0.748,4.139-0.748,4.392c0,2.355,0.89,3.479,3.862,3.479c1.176,0,3.078-0.364,5.667-1.123l-2.331,13.407
			c-2.558,0.88-5.282,1.285-8.119,1.285c-10.19,0-14.949-3.368-14.949-11.103c0-1.688,0-3.205,0.237-4.755l10.854-62.231h15.344
			l-3.099,17.432h8.392L391.501,517.1"/>
		<path fill-rule="evenodd" clip-rule="evenodd" fill="#58595B" d="M448.058,540.615l-39.889-0.15v0.396
			c0,8.383,3.989,13.034,11.082,13.034c4.803,0,8.13-1.793,10.466-5.946h16.933c-3.242,11.615-13.818,18.632-28.278,18.632
			c-16.264,0-25.556-10.33-25.439-27.781c0-19.85,12.266-34.328,30.323-34.328c16.26,0,25.824,9.92,25.824,25.814
			C449.079,533.247,448.563,536.614,448.058,540.615 M423.255,516.563c-6.946,0-11.981,4.682-13.533,13.065h23.625
			c0-0.629,0.09-1.281,0.09-1.933C433.437,520.355,429.988,516.563,423.255,516.563z"/>
		<path fill-rule="evenodd" clip-rule="evenodd" fill="#58595B" d="M489.757,524.219c-0.658-5.27-4.126-8.264-9.687-8.264
			c-4.905,0-7.907,2.203-7.907,5.412c0,3.633,3.903,4.789,10.748,6.864c12.148,3.722,18.726,7.614,18.726,18.574
			c0,11.881-8.917,19.88-23.902,19.88c-16.138,0-25.177-7.999-25.177-21.568v-0.271H467.3c0.242,6.482,4.247,10.076,10.691,10.076
			c5.709,0,8.682-2.062,8.682-6.299c0-4.011-3.125-4.932-9.043-6.853c-12.525-4.004-19.896-7.766-19.896-19.1
			c0-11.357,8.514-18.089,23.266-18.089c14.954,0,23.354,7.241,23.458,19.637H489.757"/>
	</g>
	<polyline fill-rule="evenodd" clip-rule="evenodd" fill="#A7A9AC" points="526.426,548.764 509.645,548.764 506.683,564.901 
		523.589,564.901 526.426,548.764 	"/>
	<path fill-rule="evenodd" clip-rule="evenodd" fill="#A7A9AC" d="M594.194,527.191l-6.717,37.814h-15.619
		c0.112,0,6.593-37.31,6.593-37.31c0.364-1.82,0.364-3.083,0.364-3.862c0.141-4.277-2.438-6.605-7.361-6.605
		c-7.472,0-13.801,5.57-15.601,16.019l-5.665,31.759l-15.377-0.104l10.455-58.752h14.064l-1.678,9.011
		c6.197-7.484,12.144-10.973,20.006-10.973c10.726,0,17.313,6.603,17.313,16.168C594.973,522.146,594.853,524.339,594.194,527.191"
		/>
	<path fill-rule="evenodd" clip-rule="evenodd" fill="#A7A9AC" d="M655.93,540.72h-39.925v0.29c0,8.375,4.014,13.016,10.976,13.016
		c4.808,0,8.265-1.8,10.479-5.925h16.906c-3.25,11.589-13.815,18.726-28.284,18.726c-16.128,0-25.439-10.428-25.439-27.88
		c0-19.903,12.379-34.364,30.346-34.364c16.398,0,25.825,9.939,25.825,25.831C656.813,533.386,656.429,536.722,655.93,540.72
		 M630.988,516.726c-6.97,0-11.89,4.642-13.569,13.063h23.762c0-0.66,0.118-1.324,0.118-1.943
		C641.299,520.486,637.692,516.726,630.988,516.726z"/>
</g>
</svg>
