<?xml version="1.0" encoding="utf-8"?>
<!-- Generator: Adobe Illustrator 16.0.0, SVG Export Plug-In . SVG Version: 6.00 Build 0)  -->
<!DOCTYPE svg PUBLIC "-//W3C//DTD SVG 1.1//EN" "http://www.w3.org/Graphics/SVG/1.1/DTD/svg11.dtd">
<svg version="1.1" id="Layer_1" xmlns="http://www.w3.org/2000/svg" xmlns:xlink="http://www.w3.org/1999/xlink" x="0px" y="0px"
	 width="841.89px" height="595.28px" viewBox="0 0 841.89 595.28" enable-background="new 0 0 841.89 595.28" xml:space="preserve">
<g>
	<g>
		<g>
			<polygon fill="#58595B" points="365.909,241.095 370.25,241.095 383.184,213.861 392.235,213.861 377.396,245.26 
				394.313,281.457 385.27,281.457 370.25,249.334 365.909,249.334 365.909,281.457 357.667,281.457 357.667,224.812 
				361.112,222.726 361.112,222.094 352.782,222.094 352.782,213.861 365.909,213.861 			"/>
			<path fill="#58595B" d="M422.025,222.094h-1.717l-4.978,33.659h11.76L422.025,222.094z M407.91,213.861h21.262l10.047,67.779
				h-8.325l-2.621-17.646h-14.118l-2.619,17.646H403.2l8.335-56.829l3.435-2.083v-0.634h-7.06V213.861z"/>
			<path fill="#58595B" d="M472.447,251.142l5.612-5.974v-17.555l-5.528-5.52h-9.682v29.048H472.447z M486.382,224.169v24.261
				l-10.407,10.945H462.85v22.265h-8.228v-57.098l3.436-2.087v-0.63h-8.319v-7.964h26.138L486.382,224.169z"/>
			<polygon fill="#58595B" points="497.893,221.454 497.893,213.861 534.449,213.861 534.449,281.542 526.21,281.542 
				526.21,221.724 510.922,221.724 510.922,281.542 502.687,281.542 502.687,224.073 506.032,222.086 506.032,221.454 			"/>
			<path fill="#58595B" d="M567.86,222.094h-1.723l-4.98,33.659h11.763L567.86,222.094z M553.742,213.861h21.262l10.042,67.779
				h-8.33l-2.616-17.646h-14.117l-2.625,17.646h-8.317l8.317-56.829l3.442-2.083v-0.634h-7.058V213.861z"/>
			<polygon fill="#58595B" points="605.604,221.287 598.273,221.287 597.91,228.435 591.216,228.435 591.216,213.861 
				628.406,213.861 628.406,228.435 621.623,228.435 621.346,221.287 613.836,221.287 613.836,281.733 605.604,281.733 			"/>
			<polygon fill="#58595B" points="663.438,227.429 658.275,222.094 652.389,222.094 647.326,227.429 647.326,268.693 
				652.482,274.487 658.188,274.487 663.438,268.693 663.438,261.181 671.667,261.09 671.667,271.768 661.801,282.724 
				648.867,282.724 639.086,271.768 639.086,224.169 648.96,213.861 661.801,213.861 671.667,224.169 671.667,234.397 
				663.438,234.397 			"/>
			<path fill="#58595B" d="M691.851,244.358v29.039h9.677l5.521-5.516v-17.555l-5.611-5.969H691.851z M704.88,281.64h-21.27v-67.779
				h8.24v22.264h13.114l10.413,10.942v24.25L704.88,281.64z"/>
			<polygon fill="#58595B" points="739.814,241.095 744.155,241.095 757.101,213.861 766.154,213.861 751.314,245.26 
				768.225,281.457 759.186,281.457 744.155,249.334 739.814,249.334 739.814,281.457 731.585,281.457 731.585,224.812 
				735.024,222.726 735.024,222.094 726.701,222.094 726.701,213.861 739.814,213.861 			"/>
			<polygon fill="#58595B" points="777.205,213.861 777.205,221.371 787.249,221.371 787.249,222.01 783.814,224.084 
				783.814,274.222 776.483,274.222 776.483,281.733 799.37,281.733 799.37,274.222 792.04,274.222 792.04,221.371 798.38,221.371 
				798.38,213.861 			"/>
		</g>
		<g>
			<path fill="#58595B" d="M365.904,351.282h9.411l5.794,5.703v10.855l-5.253,5.253h-9.952V351.282z M365.904,322.151h8.142
				l5.249,5.236v9.871l-4.803,5.706h-8.587V322.151z M352.782,313.73v8.421h8.237v0.636l-3.446,2.075v56.557h21.721l10.139-10.138
				V353.19l-6.782-6.701l4.974-5.977v-16.562l-10.145-10.221H352.782z"/>
			<polygon fill="#58595B" points="401.297,313.551 401.297,321.057 411.339,321.057 411.339,321.692 407.902,323.775 
				407.902,373.903 400.573,373.903 400.573,381.419 423.465,381.419 423.465,373.903 416.136,373.903 416.136,321.057 
				422.477,321.057 422.477,313.551 			"/>
			<polygon fill="#58595B" points="465.676,313.815 452.744,341.057 448.402,341.057 448.402,313.815 435.278,313.815 
				435.278,322.056 443.608,322.056 443.608,322.689 440.159,324.772 440.159,381.419 448.402,381.419 448.402,349.291 
				452.744,349.291 467.756,381.419 476.801,381.419 459.892,345.224 474.736,313.815 			"/>
			<polygon fill="#58595B" points="514.537,313.815 514.537,343.678 499.244,343.678 499.244,313.815 486.213,313.815 
				486.213,322.056 494.36,322.056 494.36,322.689 491.016,324.68 491.016,381.419 499.244,381.419 499.244,351.555 
				514.537,351.555 514.537,381.419 522.771,381.419 522.771,313.815 			"/>
			<path fill="#58595B" d="M552.525,321.875h1.726l5.07,33.663h-11.769L552.525,321.875z M540.133,313.641v8.234h7.057v0.634
				l-3.434,2.083l-8.329,56.827h8.329l2.626-17.648h14.11l2.629,17.648h8.314l-10.037-67.778H540.133z"/>
		</g>
	</g>
	<g>
		<polygon fill="#58595B" points="178.98,221.95 50.416,381.056 76.132,381.056 178.988,253.771 281.849,381.056 307.568,381.056 		
			"/>
		<polygon fill="#58595B" points="178.988,272.835 91.533,381.056 128.358,381.056 178.988,318.398 229.625,381.056 
			266.451,381.056 		"/>
		<polygon fill="#58595B" points="178.988,336.487 142.98,381.056 215.004,381.056 		"/>
		<polygon fill="#58595B" points="42.52,213.861 42.52,214.319 42.52,222.088 42.52,381.056 50.746,381.056 50.746,222.088 
			307.24,222.088 307.24,381.056 315.464,381.056 315.464,222.088 315.464,214.319 315.464,213.861 		"/>
	</g>
</g>
</svg>
