<?xml version="1.0" encoding="utf-8"?>
<!-- Generator: Adobe Illustrator 16.0.0, SVG Export Plug-In . SVG Version: 6.00 Build 0)  -->
<!DOCTYPE svg PUBLIC "-//W3C//DTD SVG 1.1//EN" "http://www.w3.org/Graphics/SVG/1.1/DTD/svg11.dtd">
<svg version="1.1" id="Layer_1" xmlns="http://www.w3.org/2000/svg" xmlns:xlink="http://www.w3.org/1999/xlink" x="0px" y="0px"
	 width="841.89px" height="595.28px" viewBox="0 0 841.89 595.28" enable-background="new 0 0 841.89 595.28" xml:space="preserve">
<g>
	<path fill-rule="evenodd" clip-rule="evenodd" fill="#58595B" d="M758.136,246.844h6.264c0.752,0,1.453,0.104,2.087,0.288
		c0.613,0.16,1.173,0.435,1.604,0.83c0.456,0.344,0.874,0.794,1.042,1.394c0.271,0.664,0.482,1.295,0.482,1.897
		c0,1.036-0.318,1.822-0.798,2.512c-0.439,0.711-1.158,1.262-1.951,1.543l2.942,6.917h-3.06l-2.604-6.313h-3.269v6.313h-2.741
		V246.844z M763.635,242.063c3.465,0,6.54,1.386,8.714,3.627c2.283,2.272,3.63,5.338,3.63,8.644c0,3.399-1.347,6.458-3.63,8.628
		c-2.174,2.316-5.249,3.658-8.714,3.658c-3.267,0-6.376-1.342-8.622-3.658c-2.189-2.17-3.601-5.229-3.601-8.628
		c0-3.306,1.411-6.372,3.601-8.644C757.259,243.449,760.368,242.063,763.635,242.063L763.635,242.063z M771.117,246.949
		c-1.836-1.925-4.528-3.073-7.482-3.073c-2.83,0-5.472,1.148-7.344,3.073c-1.981,1.893-3.113,4.49-3.113,7.385
		c0,2.927,1.132,5.563,3.113,7.444c1.872,1.854,4.514,3.156,7.344,3.156c2.954,0,5.646-1.301,7.482-3.156
		c1.951-1.881,3.103-4.518,3.103-7.444C774.22,251.438,773.068,248.842,771.117,246.949L771.117,246.949z M760.877,249.026v4.608
		h3.522c0.305,0,0.752-0.043,1.104-0.112c0.279-0.203,0.559-0.311,0.728-0.694c0.168-0.189,0.326-0.421,0.358-0.639
		c0.16-0.274,0.16-0.544,0.16-0.936c0-0.678-0.192-1.193-0.656-1.606c-0.496-0.349-1.23-0.621-2.114-0.621H760.877z"/>
	<path fill="#58595B" d="M223.225,246.39c0.226,17.45-3.989,35.13-12.55,53.152c-9.105,19.115-21.496,34.563-37.089,46.131
		c-17.814,13.12-37.851,19.717-59.962,19.717c-37.416,0-56.388-18.611-56.921-55.952c-0.294-20.809,5.805-40.726,18.535-59.765
		c13.46-19.704,30.469-32.613,51.011-38.857c2.472-0.786,5.221-0.065,8.007,2.013c1.344,0.855,2.035,1.688,2.035,2.417
		c0,0.456-0.796,1.525-2.6,3.276c-8.134,8.159-15.335,20.93-21.458,38.417c-6.15,17.463-9.162,33.486-9.123,48.072
		c0.022,13.054,1.718,22.644,4.912,29.031c3.919,8.1,10.603,11.902,19.849,11.458c14.398-0.556,26.851-10.801,37.687-30.743
		c10.508-19.195,15.569-39.949,15.226-62.568c-0.24-12.821-1.669-22.955-4.229-30.279c-2.516-6.932-5.55-10.293-9.072-9.987
		c-3.06,0.307-5.625,2.749-7.708,7.189c-2.109,4.51-3.063,10.006-3.025,16.46c0.181,11.492,3.664,21.889,10.229,31.191
		c1.838,2.485,1.463,4.162-1.015,4.85c-3.958,1.364-7.713,2.005-11.242,2.005c-7.271,0-12.963-2.768-17.236-8.341
		c-4.003-5.214-6.016-11.958-6.016-20.199c-0.098-11.815,4.745-22.867,14.231-33.268c9.486-10.386,20.571-15.629,33.249-15.629
		C207.925,196.182,222.675,213.026,223.225,246.39L223.225,246.39z"/>
	<path fill="#58595B" d="M288.021,216.948c-5.4,5.76-11.392,20.262-18.069,43.549c-4.985,17.219-8.718,32.944-11.033,46.928
		c-0.472,2.237-0.639,3.995-0.561,5.45c0.089,2.409,1.014,3.754,2.589,3.754c1.519,0,3.539-1.049,6.063-3.259
		c5.88-5.068,11.791-12.24,17.687-21.363c0.646-1.111,1.351-1.701,1.877-1.701c0.895,0,1.447,0.854,1.526,2.684
		c0.464,5.888,0.472,9.93,0.247,12.021c-0.326,2.127-1.309,4.148-2.946,6.279c-5.664,7.367-12.333,13.741-19.858,18.679
		c-7.998,5.183-15.291,7.859-21.747,7.859c-7.271,0-12.5-1.454-15.872-4.305c-3.409-2.949-5.249-7.58-5.52-14.229
		c-0.271-4.313,0.098-9.763,1.142-16.238c4.506-28.807,10.8-53.167,18.86-73.168c2.461-6.228,6.231-10.56,11.376-13.192
		c5.137-2.644,12.634-4.015,22.464-4.015c8.764,0,13.228,0.655,13.257,1.835C289.637,214.978,289.044,215.864,288.021,216.948
		L288.021,216.948z"/>
	<path fill="#58595B" d="M500.877,283.898c0.838,3.212,1.31,5.76,1.357,7.71c0.168,2.884-0.566,5.784-2.238,8.414
		c-4.722,7.945-11.28,14.554-19.293,19.929c-8.426,5.575-16.313,8.354-23.582,8.438c-11.783,0.03-17.909-5.271-18.481-15.877
		c-0.029-1.191-0.029-2.41,0-3.648c0.317-4.059,1.254-9.491,2.681-16.442c2.166-8.618,3.322-13.813,3.637-15.601
		c0.947-4.993-0.13-7.533-2.895-7.533c-3.452,0-7.171,6.79-11.071,20.323c-2.355,8.229-4.962,17.924-7.749,29.046
		c-0.926,3.417-2.245,5.721-4.073,7.07c-2.237,1.494-5.768,2.34-10.584,2.34c-4.795,0-12.167-0.744-22.033-2.254
		c3.658-13.163,7.661-29.308,12.055-48.145c0.678-5.416-0.175-8.18-2.589-8.18c-3.795,0.12-7.5,5.87-11.057,17.621
		c-3.108,10.282-6.326,21.417-9.682,33.128c-1.653,5.705-6.334,8.61-14.013,8.61c-4.521,0.051-12.43-0.72-23.893-2.41
		c6.678-21.011,10.769-38.906,12.55-53.635c0.782-6.566-0.151-11.865-2.764-15.865c9.771-6.003,19.029-8.976,27.768-8.976
		c7.702-0.092,11.416,3.683,11.067,11.216c-0.043,1.993-0.474,4.981-1.409,9.104c12.797-13.657,24.255-20.49,34.288-20.586
		c8.115-0.032,12.75,3.449,14.044,10.357c0.373,2.011,0.55,3.846,0.526,5.541c13.883-10.653,25.021-16.11,33.439-16.11
		c9.195-0.094,13.92,4.806,14.036,14.567c0.138,4.714-1.047,11.879-3.555,21.522c-2.579,9.706-3.707,16.615-3.49,21.074
		c0.141,1.918,0.702,2.826,1.866,2.826c1.369,0,3.358-1.17,5.784-3.671c6.673-6.696,12.215-13.494,16.372-20.293
		C499.222,281.295,500.221,281.486,500.877,283.898L500.877,283.898z"/>
	<path fill="#58595B" d="M100.323,398.997c122.292-30.509,249.937-28.383,363.702-23.72c-0.602-6.604,1.627-15.159,4.234-26.346
		c-124.561-3.259-265.486,1.68-366.892,47.717c-0.978,0.463-1.474,1.127-1.578,1.685C99.79,398.997,100.165,399.261,100.323,398.997
		L100.323,398.997z M525.624,377.9c66.111,2.665,125.809,4.251,174.35-2.329c25.93-3.521,44.847-9.624,58.314-16.413
		c51.95-25.993,20.155-64.891-23.573-43.952c-0.669,0.374-1.334,0.703-2.069,1.006c-0.688,0.417-1.387,0.642-1.941,0.642
		c-1.565,0-2.277-1.368-2.395-4.133c0-1.671,0.232-3.569,0.744-5.704c2.091-9.296,4.792-18.388,7.85-27.295
		c3.182-9.33,5.992-15.474,8.379-18.55c0.322-0.555,0.494-1.108,0.322-1.793c-0.129-0.562-0.479-1.01-1.067-1.326
		c-4.452-2.472-9.894-3.771-16.46-3.771c-5.784,0-9.825,1.451-12.339,4.227c-3.014-2.776-8.486-4.227-16.516-4.227
		c-14.197,0-27.158,5.841-38.641,17.667c-3.923,3.882-7.168,7.997-9.6,12.328c-1.834,2.986-7.991,13.716-7.313,28.599
		c0.733,14.779,7.802,22.222,21.552,22.222c11.009,0,21.195-4.715,31.028-14.194c3.322,9.479,10.065,14.194,20.224,14.194
		c7.008,0,13.773-1.982,20.104-6.017c1.389-0.774,2.73-1.757,4.051-2.642c39.167-24.711,52.668,24.173-41.103,29.319
		c-40.87,2.217-103.705-1.903-175.938-4.875C519.234,370.383,521.701,373.914,525.624,377.9L525.624,377.9z M704.255,266.052
		c3.292,0.328,3.013,3.196-0.86,14.931c-3.599,10.49-11.634,26.713-13.494,29.591c-1.871,2.891-6.121,9.81-9.629,8.386
		c-2.897-1.214-0.957-10.909,0-14.252c1.827-6.054,6.704-21.047,12.2-29.444C698.172,266.556,701.204,265.75,704.255,266.052
		L704.255,266.052z"/>
	<path fill="#58595B" d="M586.567,273.194c-0.51,15.619-6.341,28.99-17.496,40.007c-11.668,11.271-25.792,16.894-42.552,16.894
		c-4.482,0-7.392,0-8.662,0c-0.943,4.195-4.584,22.32-6.085,30.078c-1.703,8.5-0.774,14.739,2.865,18.829
		c-10.23,3.652-18.805,5.574-25.819,5.72c-9.022,0.139-13.542-4.25-13.667-13.037c-0.086-2.556,0.279-5.56,0.968-8.918
		c1.989-10.352,7.549-35.376,11.992-50.981c6.428-22.774,9.719-34.437,9.935-34.779c1.03-4.25,1.502-8.54,1.479-12.863
		c-0.11-5.187-0.937-8.834-2.664-10.932c10.838-5.42,20.112-7.961,28.043-7.568c7.014,0.354,10.621,3.713,10.714,9.984
		c0,1.586-0.208,3.329-0.703,5.449c-0.472,2.037-0.774,3.338-0.83,3.969c8.386-9.625,18.707-14.394,30.787-14.394
		c6.561,0,11.742,1.72,15.705,5.204C584.897,259.813,586.87,265.638,586.567,273.194L586.567,273.194z M547.959,265.486
		c-3.235,0-7.317,4.201-12.196,12.677c-5.347,9.643-9.869,21.806-13.438,36.593c-0.665,2.639,0.2,3.957,2.579,3.957
		c0.602,0,1.322-0.057,2.036-0.088c6.952-1.277,13.981-12.286,20.934-32.96c2.204-6.417,3.259-11.416,3.183-15.019
		C550.986,267.187,549.987,265.486,547.959,265.486L547.959,265.486z"/>
	<path fill="#58595B" d="M349.189,291.64c-0.176,4.227-0.566,7.181-1.047,8.755c-0.448,1.635-1.566,3.595-3.387,5.907
		c-13.038,16.816-26.458,25.24-40.255,25.348c-7.564,0.18-13.293-1.735-17.207-5.706c-3.688-3.598-5.543-8.484-5.616-14.422
		c0-3.22,0.375-6.605,1.343-10.041c2.764-7.979,6.112-18.315,10.117-31.019c1.713-5.943,1.449-10.909-0.787-14.978
		c8.199-3.077,16.477-4.598,25.002-4.598c8.494,0,12.752,3.643,12.841,11.065c0.063,2.393-0.313,4.996-1.184,7.937
		c-2.483,7.309-6.095,18.741-10.894,34.102c-0.737,2.646-1.065,4.809-1.02,6.36c0,1.899,0.625,2.852,1.735,2.852
		c1.297,0,3.235-1.132,5.798-3.477c9.133-8.434,16.115-16.284,21.236-23.461c0.71-0.999,1.367-1.557,1.828-1.557
		C348.926,284.707,349.316,287.022,349.189,291.64L349.189,291.64z"/>
	<path fill="#58595B" d="M342.367,221.661c0.071,5.859-2.996,10.64-9.092,14.363c-5.253,3.209-10.968,4.861-17.397,4.861
		c-4.714,0-8.667-1.142-12.031-3.274c-3.934-2.601-5.826-6.012-5.927-10.188c-0.147-5.978,2.954-10.727,9.187-14.494
		c5.355-3.271,11.191-4.789,17.51-4.789c4.435,0,8.349,1.042,11.818,3.284C340.318,213.886,342.224,217.346,342.367,221.661
		L342.367,221.661z M649.197,224.293c0.05,5.975-2.923,10.716-8.946,14.455c-5.248,3.223-11.119,4.848-17.534,4.848
		c-4.632,0-8.66-1.054-11.961-3.299c-3.904-2.566-5.885-5.98-5.94-10.177c-0.083-5.927,3.005-10.708,9.208-14.419
		c5.347-3.204,11.146-4.885,17.395-4.885c4.567,0,8.594,1.107,11.868,3.264C647.164,216.696,649.189,220.134,649.197,224.293
		L649.197,224.293z"/>
	<path fill="#58595B" d="M656.062,294.419c-0.162,4.235-0.449,7.159-0.944,8.748c-0.559,1.58-1.703,3.538-3.468,5.839
		c-13.046,16.808-26.48,25.284-40.214,25.401c-7.627,0.154-13.293-1.812-17.279-5.731c-3.641-3.645-5.466-8.438-5.669-14.493
		c0-3.22,0.404-6.525,1.411-9.938c2.779-8.051,6.101-18.292,10.203-31.05c1.669-5.838,1.431-10.863-0.851-15.005
		c8.183-3.03,16.467-4.598,24.951-4.598c8.571,0,12.806,3.67,13.014,11.176c0,2.253-0.479,4.92-1.376,7.87
		c-2.409,7.309-6,18.685-10.769,34.069c-0.775,2.732-1.086,4.816-1.086,6.343c0,1.934,0.608,2.861,1.789,2.861
		c1.323,0,3.188-1.152,5.714-3.396c9.098-8.523,16.272-16.367,21.273-23.501c0.736-1.069,1.31-1.541,1.962-1.541
		C655.821,287.47,656.309,289.778,656.062,294.419L656.062,294.419z"/>
</g>
</svg>
