<svg xmlns="http://www.w3.org/2000/svg" width="841.89" height="595.28" viewBox="0 0 841.89 595.28"><path fill="#58595B" d="M123.838 250.096c-4.837 0-8.99 1.72-12.47 5.215-3.47 3.47-5.216 7.624-5.216 12.45v47.62c0 4.815 1.745 8.985 5.215 12.448 3.48 3.5 7.634 5.215 12.47 5.215 4.84 0 8.99-1.715 12.478-5.215 3.463-3.463 5.214-7.633 5.214-12.45v-47.617c0-4.826-1.752-8.98-5.215-12.45-3.487-3.494-7.637-5.214-12.477-5.214z"/><path fill="#58595B" d="M92.724 184.68L42.52 235.128V410.6h301.202V184.68H92.724zm87.337 129.312c0 15.588-5.478 28.87-16.437 39.826-10.96 10.95-24.215 16.43-39.784 16.43-15.555 0-28.83-5.48-39.782-16.43-10.95-10.955-16.43-24.238-16.43-39.826v-44.848c0-15.58 5.478-28.824 16.43-39.794 10.95-10.946 24.228-16.427 39.78-16.427 15.57 0 28.825 5.48 39.785 16.427 10.96 10.97 16.438 24.215 16.438 39.794v44.848zm20.47 51.56c0 5.28-1.41 9.54-4.25 12.716-2.82 3.166-6.392 4.75-10.715 4.75h-4.986v-8.527h2.616c1.488 0 2.697-.435 3.622-1.37.913-.902 1.37-2.35 1.37-4.357v-3.21h-7.61v-19.007h19.95v19.007zm102.896-11.077c-11.567 10.527-25.722 15.773-42.5 15.773-13.448 0-25.726-4.287-36.838-12.8-11.116-8.577-18.026-18.974-20.744-31.222h38.544c1.664 2.455 4.153 4.47 7.466 6.164 3.334 1.62 6.73 2.457 10.212 2.457 5.75 0 10.578-2.023 14.505-6.076 3.938-4.132 5.894-8.812 5.894-14.058 0-5.18-1.956-9.387-5.893-12.736-3.926-3.31-8.755-4.963-14.504-4.963-4.234 0-8.247 1.214-12.013 3.62-3.78 2.405-6.2 5.378-7.255 8.864l-31.96-7.738 13.145-86.13h86.126v31.747h-55.063l-2.726 18.12c1.35-1.042 4.044-1.95 8.042-2.73 3.995-.74 8.42-1.123 13.26-1.123 14.354 0 26.22 5.063 35.578 15.202 9.374 10.123 14.066 22.89 14.066 38.313 0 15.72-5.77 28.795-17.34 39.315z"/><g><path fill="#58595B" d="M381.38 184.68h49.704v22.68H420.52v15.52H450.8v-15.52h-10.55v-22.68h49.682v22.68H479.41v58.704h10.524v22.675h-49.682v-22.676h10.55V248.04H420.52v18.024h10.564v22.675H381.38v-22.676h10.56V207.36h-10.56v-22.68zM511.55 184.68h48.32v22.68h-10.723v41.783l25.783-41.784h-6.532v-22.68h46.644v22.68h-9.048l-56.847 81.38h-40.504v-22.676h13.497V207.36h-10.59v-22.68zM693.323 288.738h-49.848v-22.675h10.7v-41.77l-25.796 41.77h6.53v22.675h-46.59v-22.675h9.01l56.845-81.383h39.147v22.678h-10.546v58.705h10.546v22.675zM711.108 184.68h49.707v22.68h-10.553v11.033h12.104c10.054 0 18.73 3.39 26.03 10.172 7.302 6.783 10.95 15.037 10.95 24.775 0 9.725-3.666 18.053-11.033 24.994-7.357 6.953-16.002 10.404-25.947 10.404h-51.258v-22.675h10.576v-58.705h-10.576V184.68zM750.263 242v23.13h8.394c3.292 0 6.04-1.038 8.216-3.105 2.188-2.063 3.275-4.902 3.275-8.524 0-3.225-1.12-5.947-3.362-8.174-2.22-2.225-4.94-3.324-8.13-3.324h-8.393zM489.982 410.6H440.28v-22.686h10.527V330.71h-30.27v57.204h10.567V410.6H381.38v-22.686h10.56v-58.752h-10.56v-22.686h108.603v22.686h-10.53v58.752h10.53V410.6zM561.093 375.182l-24.25 35.418h-29.2v-22.686h8.24l13.825-14.28c-6.143-2.392-10.982-6.204-14.597-11.378-3.955-5.564-5.903-12.154-5.903-19.715 0-10.087 3.992-18.583 12.01-25.556 8.06-6.984 18.194-10.508 30.405-10.508h48.596v22.686h-10.53v58.752h10.53V410.6h-46.266v-21.79h7.14v-13.628zm0-18.684v-25.79h-8.865c-3.915 0-7.24 1.173-9.89 3.425-2.626 2.268-3.932 5.107-3.932 8.53 0 3.862 1.3 7.116 3.894 9.835 2.6 2.645 5.828 4 9.774 4h9.02zM614.15 306.477h85.442V344.7H678.45v-13.99h-8.377v57.205h10.574V410.6H633.08v-22.686h10.606V330.71h-8.408v13.99h-21.13v-38.223zM711.108 306.477h49.73v22.686h-10.56v11.06h12.104c10.063 0 18.733 3.394 26.038 10.18 7.303 6.784 10.95 15.028 10.95 24.78 0 9.693-3.67 18.03-11.026 25.01-7.37 6.916-16.018 10.408-25.962 10.408h-51.274v-22.685h10.578v-58.752h-10.578v-22.686zm39.17 57.326v23.148h8.393c3.3 0 6.037-1.04 8.218-3.112 2.2-2.066 3.273-4.908 3.273-8.53 0-3.224-1.106-5.913-3.355-8.173-2.218-2.19-4.94-3.332-8.134-3.332h-8.392zM499.028 310.105v-12.288h12.957v12.288c0 3.48-.956 6.2-2.773 8.26-1.836 2.086-4.17 3.117-6.977 3.117h-3.207v-5.51h1.68c.953 0 1.728-.313 2.34-.93.622-.584.932-1.53.932-2.834v-2.104h-4.952z"/></g></svg>