<?xml version="1.0" encoding="utf-8"?>
<!-- Generator: Adobe Illustrator 16.0.0, SVG Export Plug-In . SVG Version: 6.00 Build 0)  -->
<!DOCTYPE svg PUBLIC "-//W3C//DTD SVG 1.1//EN" "http://www.w3.org/Graphics/SVG/1.1/DTD/svg11.dtd">
<svg version="1.1" id="Layer_1" xmlns="http://www.w3.org/2000/svg" xmlns:xlink="http://www.w3.org/1999/xlink" x="0px" y="0px"
	 width="841.89px" height="595.28px" viewBox="0 0 841.89 595.28" enable-background="new 0 0 841.89 595.28" xml:space="preserve">
<g>
	<g>
		<polygon fill-rule="evenodd" clip-rule="evenodd" fill="#58595B" points="760.885,323.098 787.607,267.001 752.631,261.089 
			734.885,309.073 717.139,261.094 682.326,267.001 708.873,323.111 677.139,384.985 715.07,391.414 734.885,336.922 
			754.693,391.414 792.629,384.985 		"/>
		<path fill-rule="evenodd" clip-rule="evenodd" fill="#58595B" d="M772.627,322.924l30.479-63.979l-57.324-9.69l-10.896,29.468
			l-10.898-29.468l-57.119,9.69l30.271,63.979l-35.926,70.039l60.752,10.296l12.92-35.528l12.916,35.528l60.754-10.296
			L772.627,322.924z M734.885,356.527l-15.426,42.425l-52.455-8.89l34.402-67.069l-28.918-60.376l49.008-9.057l13.389,36.201
			l13.387-36.203l49.199,8.316l-29.113,61.113l34.406,67.075l-52.457,8.89L734.885,356.527z"/>
	</g>
	<g>
		<path fill-rule="evenodd" clip-rule="evenodd" fill="#58595B" d="M477.651,294.269v-45.051l-90.823,7.656v146.384l59.535-6.468
			V349.97h26.449v-36.126h-26.449v-19.575H477.651z M446.363,317.672h22.621v28.47h-22.621h-3.828v3.828v43.405l-51.878,5.577
			v-138.25l83.167-7.143v36.881h-27.46h-3.828v3.828v19.575v3.828H446.363z"/>
		<polygon fill-rule="evenodd" clip-rule="evenodd" fill="#58595B" points="467.124,283.742 467.124,260.338 397.356,265.966 
			397.356,391.473 435.836,387.367 435.836,339.442 462.285,339.442 462.285,324.371 435.836,324.371 435.836,283.742 		"/>
	</g>
	<g>
		<path fill-rule="evenodd" clip-rule="evenodd" fill="#58595B" d="M631.041,280.185c-12.492-12.421-30-18.985-50.632-18.985
			c-20.829,0-38.369,6.553-50.722,18.952c-11.523,11.565-17.871,27.833-17.871,45.803c0,17.806,6.496,34.059,18.285,45.762
			c12.518,12.425,29.914,18.993,50.308,18.993c21.284,0,39.005-6.545,51.249-18.924c11.314-11.441,17.547-27.719,17.547-45.831
			C649.205,308.088,642.752,291.833,631.041,280.185z M600.621,352.919c-4.789,9.314-11.967,14.443-20.212,14.443
			c-8.247,0-15.427-5.129-20.214-14.443c-3.646-7.093-5.656-16.313-5.656-25.956c0-9.641,2.01-18.859,5.656-25.953
			c4.789-9.314,11.967-14.444,20.214-14.444c8.245,0,15.423,5.129,20.21,14.444c3.646,7.096,5.656,16.313,5.656,25.953
			C606.275,336.604,604.266,345.822,600.621,352.919z"/>
		<path fill-rule="evenodd" clip-rule="evenodd" fill="#58595B" d="M580.409,293.265c-5.61,0-10.673,3.837-14.255,10.806
			c-3.17,6.165-4.916,14.296-4.916,22.892c0,8.599,1.746,16.73,4.916,22.895c3.582,6.969,8.645,10.806,14.255,10.806
			c5.607,0,10.669-3.837,14.253-10.806c3.168-6.166,4.914-14.296,4.914-22.895c0-8.596-1.746-16.725-4.916-22.892
			C591.078,297.103,586.017,293.265,580.409,293.265z M580.409,356.835c-8.479,0-15.343-13.319-15.343-29.872
			c0-16.551,6.863-29.87,15.343-29.87c8.476,0,15.339,13.319,15.339,29.87C595.748,343.516,588.885,356.835,580.409,356.835z"/>
		<path fill-rule="evenodd" clip-rule="evenodd" fill="#58595B" d="M580.409,250.672c-49.651,0-79.12,33.702-79.12,75.282
			c0,41.577,30.682,75.282,79.12,75.282c50.86,0,79.323-33.705,79.323-75.282C659.732,284.374,629.451,250.672,580.409,250.672z
			 M636.422,376.496c-13.531,13.68-32.9,20.912-56.013,20.912c-22.198,0-41.228-7.24-55.028-20.939
			c-13.066-12.97-20.264-30.908-20.264-50.515c0-19.756,7.041-37.702,19.825-50.532c13.638-13.688,32.817-20.922,55.467-20.922
			c22.439,0,41.581,7.239,55.353,20.935c12.988,12.914,20.143,30.857,20.143,50.519
			C655.904,345.842,648.986,363.793,636.422,376.496z"/>
	</g>
	<path fill-rule="evenodd" clip-rule="evenodd" fill="#58595B" d="M413.133,200.775v5.815h-9.471v27.008h-6.658V206.59h-9.473
		v-5.815H413.133z"/>
	<path fill-rule="evenodd" clip-rule="evenodd" fill="#58595B" d="M481.486,200.775c8.771,0,11.021,4.501,11.021,8.908
		c0,5.393-4.033,7.081-6.331,7.644v0.095c1.595,0.374,2.626,1.594,3.425,3.469l5.344,12.707h-7.457l-4.219-10.41
		c-0.797-1.968-2.016-3.096-4.221-3.096h-2.532v13.505h-6.656v-32.823H481.486z M476.517,214.937h3.565
		c4.221,0,5.578-2.626,5.578-4.548c0-1.079-0.326-4.455-5.578-4.455h-3.565V214.937z"/>
	<path fill-rule="evenodd" clip-rule="evenodd" fill="#58595B" d="M552.141,200.775h6.658v32.823h-6.658V200.775z"/>
	<path fill-rule="evenodd" clip-rule="evenodd" fill="#58595B" d="M642.486,232.566c-2.906,0.985-5.861,1.408-8.486,1.408
		c-8.158,0-17.068-4.643-17.068-16.599c0-11.301,7.973-16.976,18.287-16.976c2.578,0,4.785,0.329,7.268,1.125l-0.279,5.628
		c-1.924-0.751-4.033-1.219-6.518-1.219c-7.363,0-11.725,4.641-11.725,11.346c0,7.925,5.346,11.161,11.254,11.161
		c2.908,0,5.205-0.703,6.846-1.455L642.486,232.566z"/>
	<path fill-rule="evenodd" clip-rule="evenodd" fill="#58595B" d="M707.045,200.775v14.021h0.141l11.863-14.021h7.924
		l-13.691,14.864l14.535,17.959h-8.439l-12.191-16.318h-0.141v16.318h-6.658v-32.823H707.045z"/>
	<path fill-rule="evenodd" clip-rule="evenodd" fill="#58595B" d="M785.904,200.775l6.752,11.535l1.031,2.25h0.143l1.125-2.25
		l6.797-11.535h7.035l-11.818,19.507v13.316h-6.658v-13.41l-12.096-19.414H785.904z"/>
	<g>
		<path fill-rule="evenodd" clip-rule="evenodd" fill="#58595B" d="M365.092,270.168c0,0-1.467-0.298-4.542-0.718
			c-10.551-2.877-38.07-10.09-66.734-11.373l0,0c8.653-21.686,17.839-49.967,6.405-88.118c0,0-40.867,5.133-65.817,38.204
			c-1.419,1.879-2.527,3.727-3.363,5.553c-10.077-2.877-20.709-4.436-31.703-4.467c-11.066-0.035-21.771,1.485-31.92,4.336
			c-0.828-1.778-1.916-3.587-3.3-5.422c-24.95-33.071-65.817-38.204-65.817-38.204c-11.353,37.88-2.378,66.029,6.223,87.649
			c-0.119,0.162-0.23,0.329-0.346,0.491c-27.615,1.112-54.155,7.725-65.414,10.689c-3.845,0.556-5.66,0.98-5.66,0.98h0.009
			c0.493,0,20.331,0.105,43.571,16.527c-4.979,0.889-14.147,2.829-20.933,6.582l13.994,3.275c0,0,22.095,6.398,43.625,29.494
			c-3.512-0.832-12.704-2.453-20.847,0.732l18.979,10.15c0,0,16.893,8.768,48.951,43.625c9.485,10.309,18.868,23.775,24.013,31.197
			c0.061,0.088,0.12,0.166,0.18,0.254c1.127,6.875,14.451,12.582,14.451,12.582s13.593-5.816,14.488-12.783
			c5.247-7.615,14.452-21.283,23.521-31.031c32.262-34.67,49.205-43.346,49.205-43.346l19.037-10.041
			c-8.752-3.48-18.342-1.383-21.031-0.67c21.638-23.139,43.566-29.524,43.566-29.524l13.877-2.799
			c-6.77-3.797-15.699-5.907-20.51-6.914C344.952,270.357,365.092,270.168,365.092,270.168z M287.949,248.132
			c-7.666-8.767-16.457-16.264-26.234-22.386c1.498-2.348,5.84-6.709,17.725-7.817c0,0-12.796-7.589-21.437-2.509
			c2.683-5.054,5.533-9.586,8.432-13.637c5.971-7.559,11.947-13.226,16.775-17.206c6.5-5.355,11.964-8.548,14.674-9.989
			C303.495,199.944,300.239,224.051,287.949,248.132z M100.638,174.584c2.691,1.432,8.095,4.589,14.572,9.91
			c4.854,3.989,10.867,9.678,16.866,17.275c2.904,4.056,5.759,8.592,8.443,13.65c-8.638-5.08-21.434,2.509-21.434,2.509
			c11.883,1.108,16.225,5.47,17.72,7.817c-9.776,6.122-18.565,13.619-26.231,22.386C98.282,224.051,95.028,199.944,100.638,174.584z
			 M309.636,303.254c-9.387,5.617-23.227,15.83-35.852,32.572l-2.35,3.113l3.902,0.014l4.246,0.012
			c-7.53,5.217-22.268,16.826-43.903,40.08c-8.452,9.086-17.134,21.693-22.387,29.344c-1.43-4.805-7.241-8.404-14.195-8.404
			c-7.009,0-12.862,3.658-14.23,8.523c-5.021-7.217-13.994-19.908-22.978-29.674c-21.5-23.381-36.17-35.078-43.671-40.332
			l4.248,0.008l3.902,0.014l-2.332-3.131c-12.531-16.816-26.431-27.082-35.885-32.73c-3.166-1.896-6.047-3.406-8.524-4.598
			l9.041-0.039l4.913-0.022l-3.589-3.354c-16.575-15.506-32.813-22.049-43.678-24.813c8.239-0.854,20.659-1.682,37.823-1.682
			c0.512,0,1.036,0,1.557,0c13.109,0.04,45.85,4.932,62.872,11.378c4.642,2.167,8.876,4.677,12.415,7.575
			c37.968,31.137,37.95,109.497,37.95,109.497s0.471-79.643,37.893-109.497c2.921-2.329,6.317-4.396,10.024-6.235
			c0.791-0.315,1.583-0.626,2.38-0.924c16.816-6.359,49.883-11.141,63.121-11.141h0.158c17.804,0.052,30.679,0.836,39.187,1.624
			c-1.381,0.368-2.851,0.793-4.395,1.292c-9.654,3.118-24.293,9.735-39.239,23.552l-3.637,3.363l4.953,0.021l8.677,0.039
			C315.607,299.881,312.763,301.379,309.636,303.254z"/>
		<path fill="#58595B" d="M269.637,284.585c-8.294,2.692-15.279,5.929-21.288,9.546c-2.056,1.239-5.824,3.652-7.593,5.101
			c-7.642,6.264-14.2,14.859-17.39,19.693c-7.007,10.625-11.009,25.076-11.009,25.076s7.302-2.475,20.446-4.52
			c15.618-2.43,25.833-6.455,32.354-10.379c3.008-1.813,5.231-3.604,6.836-5.211c9.859-9.867,14.876-22.828,16.229-28.658
			c0.53-2.277,0.915-4.384,1.195-6.284c35.575-15.835,45.511-17.731,47.282-17.959c-22.399,2.103-42.318,6.792-46.557,7.83
			C290.143,278.822,287.325,278.831,269.637,284.585z M252.026,305.584c0.361-0.596,1.139-0.789,1.734-0.426
			c0.6,0.359,0.791,1.139,0.427,1.738c-0.361,0.596-1.138,0.789-1.734,0.426C251.853,306.963,251.665,306.184,252.026,305.584z
			 M248.231,318.025c6.444,0.021,11.802-4.643,12.857-10.787c-0.975,1.311-2.809,1.691-4.237,0.828
			c-1.518-0.92-2.003-2.895-1.086-4.414c0.917-1.516,2.892-2.002,4.414-1.086c0.42,0.258,0.76,0.596,1.014,0.98
			c-0.499-4.436-3.234-8.185-7.055-10.121c0.061-0.035,0.118-0.065,0.179-0.096c5.045,1.804,8.653,6.617,8.638,12.275
			c-0.02,7.189-5.861,12.996-13.05,12.975c-1.739-0.004-3.4-0.35-4.914-0.971C246.029,317.875,247.115,318.025,248.231,318.025z
			 M286.037,294.736c-1.358,5.842-6.33,18.274-15.634,27.584c-1.69,1.691-3.847,3.332-6.407,4.875
			c-7.694,4.633-18.305,8.025-31.539,10.084c-7.51,1.166-13.12,2.467-16.614,3.391c2.122-6.004,6.544-17.338,11.71-23.775
			c4.125,8.145,12.562,13.742,22.32,13.773c13.86,0.039,25.128-11.164,25.169-25.027c0.02-7.051-2.877-13.427-7.55-17.999
			c0.938-0.324,1.898-0.645,2.893-0.955c8.671-2.732,17.004-5.308,17.004-5.308C287.57,285.286,287.395,288.89,286.037,294.736z"/>
		<path fill-rule="evenodd" clip-rule="evenodd" fill="#58595B" d="M174.232,318.77c-3.175-4.836-9.7-13.432-17.302-19.693
			c-1.761-1.45-5.509-3.863-7.554-5.098c-5.98-3.621-12.969-6.739-21.185-9.551c-17.25-5.912-20.267-6.131-20.267-6.131
			c-4.449-1.06-24.791-5.701-47.475-7.733c0,0,10.593,1.143,48.204,17.963c0.289,2.006,0.688,4.23,1.237,6.613
			c1.346,5.824,6.146,18.73,15.958,28.595c1.596,1.607,3.808,3.398,6.801,5.211c6.49,3.93,16.652,7.953,32.194,10.379
			c13.076,2.045,20.343,4.52,20.343,4.52S181.206,329.396,174.232,318.77z M150.109,304.988c0.361-0.596,1.139-0.789,1.739-0.426
			c0.598,0.359,0.788,1.139,0.427,1.734c-0.361,0.6-1.141,0.789-1.739,0.43C149.938,306.363,149.748,305.588,150.109,304.988z
			 M146.328,317.73c6.571,0.021,12.007-4.844,12.901-11.17c-0.959,1.375-2.835,1.791-4.292,0.91
			c-1.52-0.924-2.003-2.895-1.086-4.414c0.503-0.832,1.327-1.354,2.213-1.506c0,0,1.355,1.023,2.632,2.219
			c1.104,1.039,2.133,2.248,2.314,2.436c-0.477,6.77-6.124,12.104-13.013,12.082c-1.732-0.004-3.383-0.35-4.894-0.967
			C144.134,317.586,145.213,317.727,146.328,317.73z M133.806,327.037c-2.549-1.541-4.694-3.18-6.376-4.875
			c-9.26-9.309-14.016-21.686-15.364-27.523c-1.354-5.851-1.548-9.774-1.36-13.54c0,0,8.115,2.702,16.744,5.43
			c0.999,0.315,1.964,0.64,2.906,0.969c-4.806,4.488-7.395,10.496-7.414,17.709c-0.04,13.859,11.165,25.127,25.025,25.166
			c9.665,0.027,18.064-5.416,22.279-13.418c5.063,6.482,9.387,17.623,11.476,23.557c-3.479-0.92-9.061-2.221-16.534-3.391
			C152.019,335.064,141.46,331.67,133.806,327.037z"/>
	</g>
	<path fill-rule="evenodd" clip-rule="evenodd" fill="#58595B" d="M761.418,323.09l26.895-56.455l-35.941-6.079l-17.486,47.137
		l-17.434-47.137l-35.828,6.079l26.719,56.467l-31.928,62.246l38.971,6.604l19.5-53.629l19.496,53.629l38.973-6.604L761.418,323.09z
		 M734.885,335.522l-20.127,55.353l-36.896-6.252l31.547-61.505l-26.379-55.752l33.801-5.733l18.055,48.82l18.055-48.826
		l33.963,5.741l-26.553,55.738l31.557,61.518l-36.898,6.252L734.885,335.522z"/>
	<path fill-rule="evenodd" clip-rule="evenodd" fill="#58595B" d="M436.314,284.22h31.288v-24.753l-70.725,6.06v126.424
		l39.437-4.248v-47.782h26.449v-16.028h-26.449V284.22z M461.807,324.85v14.114h-26.449v47.891l-37.523,4.021V266.351l68.811-5.845
		v22.757h-31.288v41.586H461.807z"/>
	<path fill-rule="evenodd" clip-rule="evenodd" fill="#58595B" d="M580.409,366.884L580.409,366.884
		c-8.034-0.003-15.044-4.974-19.788-14.184c-3.605-7.007-5.604-16.159-5.604-25.737c0-9.576,1.998-18.727,5.604-25.734
		c4.744-9.208,11.754-14.18,19.788-14.184c8.032,0.004,15.042,4.976,19.784,14.184c3.605,7.01,5.604,16.16,5.604,25.734
		c0,9.576-1.998,18.727-5.602,25.737C595.451,361.91,588.439,366.881,580.409,366.884 M580.418,286.087h-0.009H580.4
		c-8.457,0-15.799,5.288-20.629,14.704c-3.691,7.18-5.709,16.464-5.711,26.172c0.002,9.711,2.02,18.995,5.711,26.175
		c4.828,9.417,12.172,14.703,20.629,14.703h0.009l0,0h0.009c8.455,0,15.797-5.286,20.627-14.703
		c3.689-7.183,5.707-16.466,5.709-26.175c-0.002-9.707-2.02-18.99-5.711-26.172C596.215,291.375,588.873,286.089,580.418,286.087
		 M580.409,390.23c-20.292-0.002-37.551-6.529-49.97-18.855c-11.695-11.607-18.143-27.73-18.145-45.421
		c0.002-17.858,6.305-33.997,17.731-45.467c12.251-12.293,29.651-18.808,50.383-18.81l0,0c20.533,0.002,37.901,6.527,50.292,18.847
		c11.617,11.553,18.023,27.677,18.025,45.429c-0.002,18.004-6.193,34.152-17.408,45.495
		C619.18,383.722,601.597,390.229,580.409,390.23 M580.418,260.721h-0.009l0,0c-20.928-0.002-38.604,6.591-51.062,19.092
		c-11.621,11.664-18.01,28.061-18.01,46.142c0,17.922,6.539,34.304,18.427,46.101c12.615,12.523,30.146,19.133,50.636,19.133h0.009
		c21.378,0.002,39.239-6.578,51.591-19.066c11.412-11.542,17.684-27.946,17.684-46.167c0-17.979-6.496-34.364-18.307-46.108
		C618.787,267.326,601.145,260.721,580.418,260.721"/>
</g>
</svg>
