<?xml version="1.0" encoding="utf-8"?>
<!-- Generator: Adobe Illustrator 16.0.0, SVG Export Plug-In . SVG Version: 6.00 Build 0)  -->
<!DOCTYPE svg PUBLIC "-//W3C//DTD SVG 1.1//EN" "http://www.w3.org/Graphics/SVG/1.1/DTD/svg11.dtd">
<svg version="1.1" id="Layer_1" xmlns="http://www.w3.org/2000/svg" xmlns:xlink="http://www.w3.org/1999/xlink" x="0px" y="0px"
	 width="841.89px" height="595.28px" viewBox="0 0 841.89 595.28" enable-background="new 0 0 841.89 595.28" xml:space="preserve">
<g>
	<path fill="#58595B" d="M187.94,174.984c-46.86,0-82.905,0-111.74,46.86c-14.279,25.981-12.822,63.083,5.117,84.408l0,0
		c-4.527-25.383,8.097-62.78,56.153-62.78h57.676c21.628,0,61.281,0,93.725-68.488C288.872,174.984,205.959,174.984,187.94,174.984z
		"/>
	<path fill="#58595B" d="M161.873,287.165c11.122,0,31.519,0,48.209-35.224H155.49c-5.125,0-20.063,0-27.187,10.085
		c-6.841,9.682-5.127,25.23,2.048,33.761c-0.957-7.641,5.994-8.475,12.407-8.622H161.873z"/>
	<g>
		<g>
			<path fill="#58595B" d="M102.393,332.818c15.94-8.982,22.487-17.082,23.693-27.471c-1.23-2.398-2.576-4.574-3.995-6.425
				c-12.957-16.92-12.536-34.383-0.083-46.961c-30.917,8.177-40.106,36.309-37.446,57.656
				C91.278,316.295,99.931,323.885,102.393,332.818z"/>
		</g>
	</g>
	<path fill="#58595B" d="M81.676,349.098c-14.244,6.604-38.869,18.15-39.157,71.199c0,0,21.85-10.207,33.281-15.543
		c29.717-13.883,52.586-24.557,56.998-62.82c0.712-10.846-0.782-22.645-4.892-32.615c-0.813,11.193-7.402,19.664-24.565,29.189
		C103.342,338.508,91.334,344.625,81.676,349.098z"/>
	<path fill="#58595B" d="M305.333,301.42c0,0.033,0.007,0.068,0.007,0.105v-0.225C305.341,301.344,305.333,301.377,305.333,301.42z"
		/>
	<polygon fill="#58595B" points="314.824,273.934 314.832,273.934 314.824,273.934 	"/>
	<g>
		<g>
			<path fill="#58595B" d="M273.186,290.374c4.036,0,11.434,0,17.487-12.78h-28.946c-1.864,0-7.283,0-9.863,3.661
				c-2.486,3.511-1.864,9.153,0.737,12.248c-0.341-2.771,2.176-3.077,4.505-3.129H273.186z"/>
			<path fill="#58595B" d="M281.516,317.904c-7.812-16.484-17.352-16.484-22.556-16.484c-4.112,0-10.652,0-15.606,0
				c-3.032,0-4.593-2.452-3.504-5.473l8.688-23.867c0.74-2.013,2.972-3.647,4.989-3.647h29.255c5.201,0,0,0,0,0
				c5.201,0,14.747-0.011,22.552-16.493h-54.964h-0.003c-9.108,0-19.173,7.384-22.49,16.489v0.003l-11.34,31.15v0.004
				c-3.682,10.115,1.533,18.316,11.649,18.316l0,0H281.516z"/>
		</g>
	</g>
	<g>
		<g>
			<path fill="#58595B" d="M669.059,290.374c4.032,0,11.438,0,17.489-12.78h-28.949c-1.852,0-7.279,0-9.862,3.661
				c-2.482,3.511-1.86,9.153,0.745,12.248c-0.345-2.771,2.175-3.077,4.494-3.129H669.059z"/>
			<path fill="#58595B" d="M677.385,317.904c-7.804-16.484-17.354-16.484-22.553-16.484c-4.116,0-10.648,0-15.605,0
				c-3.028,0-4.585-2.452-3.506-5.473l8.686-23.867c0.743-2.013,2.97-3.647,4.992-3.647h29.259c5.197,0,0,0,0,0
				c5.197,0,14.74-0.011,22.552-16.493h-54.968h-0.003c-9.108,0-19.181,7.384-22.49,16.489v0.003l-11.336,31.15v0.004
				c-3.686,10.115,1.532,18.316,11.648,18.316h0.004H677.385z"/>
		</g>
	</g>
	<path fill="#58595B" d="M347.563,312.836c1.825,4.203,6.004,6.904,11.799,6.904c9.668,0,20.675-4.934,24.986-18.32l19.148-52.72
		c-16.534,1.551-20.724,9.123-22.677,14.157l-12.175,33.476l-16.852-37.662c-2.151-4.526-6.678-6.724-11.737-6.724
		c-10.197,0-20.584,5.208-24.989,18.318l0,0l-17.004,46.721c-0.188,0.508,0.08,0.918,0.584,0.918h16.489
		c0.508,0,1.067-0.41,1.248-0.914l14.821-40.713L347.563,312.836z"/>
	<path fill="#58595B" d="M743.433,312.836c1.828,4.203,6.003,6.904,11.803,6.904c9.668,0,20.675-4.934,24.986-18.32l19.148-52.72
		c-16.531,1.551-20.721,9.123-22.685,14.157l-12.168,33.476l-16.852-37.662c-2.158-4.526-6.681-6.724-11.732-6.724
		c-10.2,0-20.581,5.208-24.993,18.318h0.003l-17.01,46.721c-0.182,0.508,0.083,0.918,0.588,0.918h16.488
		c0.505,0,1.068-0.41,1.248-0.914l14.824-40.713L743.433,312.836z"/>
	<path fill="#58595B" d="M714.636,301.42c0,0.033,0.008,0.068,0.008,0.105v-0.225C714.644,301.344,714.636,301.377,714.636,301.42z"
		/>
	<polygon fill="#58595B" points="716.37,273.934 716.381,273.934 716.363,273.934 	"/>
	<path fill="#58595B" d="M466.771,317.904c9.109,0,19.178-7.375,22.49-16.484l11.345-31.158
		c3.677-10.117-1.537-18.321-11.657-18.321h-53.772c-9.111,0-19.176,7.384-22.49,16.489l-11.344,31.158
		c-3.681,10.115,1.538,18.316,11.657,18.316H466.771z M431.039,301.42c-2.172,0.09-4.328,0.527-4.008,3.104
		c-2.076-2.469-2.872-6.706-1.771-10.179l8.088-22.264c0.74-2.013,2.969-3.647,4.985-3.647h35.446c3.029,0,4.59,2.447,3.513,5.472
		l-8.692,23.863c-0.743,2.017-2.969,3.651-4.992,3.651H431.039z"/>
	<g>
		<g>
			<path fill="#58595B" d="M206.505,327.348h5.117h10.399l-1.777,4.809h-10.398l-2.531,6.811h9.567l-1.738,4.803h-9.571
				l-4.12,11.154h-5.114L206.505,327.348z"/>
			<path fill="#58595B" d="M303.411,327.348h5.117l-10.168,27.576h-5.115L303.411,327.348z"/>
			<path fill="#58595B" d="M402.316,332.156h-7.639l-8.427,22.768h-5.125l8.393-22.768h-7.638l1.773-4.809h20.404L402.316,332.156z"
				/>
			<path fill="#58595B" d="M481.191,340.502l-0.608-4.408h-0.194l-1.043,4.408l-5.309,14.422h-4.885l10.277-27.768h3.549
				l4.453,14.729l0.547,4.291h0.24l0.948-4.291l5.403-14.537h4.884l-10.287,27.771h-3.539L481.191,340.502z"/>
			<path fill="#58595B" d="M573.339,327.348h5.114h10.401l-1.78,4.809h-10.402l-2.388,6.42h9.491l-1.818,4.805h-9.407l-2.525,6.734
				h10.594l-1.742,4.809h-10.589h-5.121L573.339,327.348z"/>
			<path fill="#58595B" d="M677.621,332.902c-0.452-0.318-1.141-0.65-2.065-0.986c-0.925-0.338-1.984-0.508-3.174-0.508
				c-0.611,0-1.213,0.055-1.808,0.18c-0.595,0.119-1.144,0.307-1.642,0.574c-0.486,0.262-0.9,0.605-1.219,1.027
				c-0.339,0.424-0.547,0.924-0.638,1.508c-0.121,0.766,0.015,1.404,0.404,1.936c0.389,0.529,0.924,1.023,1.578,1.484
				c0.653,0.467,1.352,0.932,2.114,1.404c0.764,0.475,1.46,1.021,2.084,1.656c0.634,0.633,1.113,1.383,1.454,2.266
				c0.335,0.877,0.403,1.961,0.202,3.248c-0.251,1.547-0.721,2.877-1.439,3.99c-0.713,1.119-1.617,2.031-2.708,2.74
				c-1.104,0.709-2.364,1.23-3.793,1.557c-1.43,0.328-2.99,0.494-4.665,0.494c-0.925,0-1.791-0.053-2.603-0.16
				c-0.798-0.104-1.55-0.236-2.238-0.389c-0.681-0.168-1.275-0.342-1.783-0.535c-0.508-0.195-0.9-0.391-1.186-0.57l3.368-4.568
				c0.241,0.156,0.55,0.334,0.943,0.521c0.392,0.188,0.855,0.369,1.37,0.525c0.515,0.162,1.077,0.299,1.696,0.406
				c0.615,0.104,1.237,0.16,1.866,0.16c0.748,0,1.456-0.057,2.139-0.182c0.671-0.115,1.272-0.313,1.805-0.59
				c0.543-0.279,0.974-0.627,1.324-1.051c0.333-0.424,0.563-0.949,0.663-1.586c0.115-0.707-0.027-1.32-0.438-1.82
				c-0.394-0.498-0.918-0.975-1.57-1.428c-0.664-0.447-1.36-0.916-2.122-1.396c-0.765-0.486-1.448-1.057-2.071-1.717
				c-0.63-0.65-1.109-1.447-1.434-2.379c-0.332-0.938-0.389-2.068-0.176-3.406c0.235-1.529,0.705-2.824,1.411-3.9
				c0.713-1.078,1.586-1.957,2.607-2.639c1.016-0.682,2.176-1.182,3.462-1.498c1.283-0.313,2.636-0.473,4.054-0.473
				c0.758,0,1.517,0.041,2.264,0.117c0.755,0.08,1.45,0.188,2.12,0.334c0.651,0.146,1.252,0.316,1.799,0.512
				c0.555,0.201,1,0.42,1.362,0.652L677.621,332.902z"/>
			<path fill="#58595B" d="M769.325,332.902c-0.447-0.318-1.137-0.65-2.054-0.986c-0.936-0.338-1.981-0.508-3.171-0.508
				c-0.609,0-1.217,0.055-1.814,0.18c-0.599,0.119-1.141,0.307-1.638,0.574c-0.486,0.262-0.9,0.605-1.234,1.027
				c-0.327,0.424-0.535,0.924-0.63,1.508c-0.121,0.766,0.021,1.404,0.407,1.936c0.386,0.529,0.925,1.023,1.575,1.484
				c0.653,0.467,1.362,0.932,2.121,1.404c0.761,0.475,1.456,1.021,2.078,1.656c0.64,0.633,1.117,1.383,1.453,2.266
				c0.338,0.877,0.411,1.961,0.197,3.248c-0.239,1.547-0.712,2.877-1.431,3.99c-0.713,1.119-1.621,2.031-2.712,2.74
				c-1.095,0.709-2.357,1.23-3.793,1.557c-1.426,0.328-2.986,0.494-4.666,0.494c-0.918,0-1.786-0.053-2.59-0.16
				c-0.813-0.104-1.561-0.236-2.246-0.389c-0.682-0.168-1.279-0.342-1.779-0.535c-0.512-0.195-0.911-0.391-1.199-0.57l3.379-4.568
				c0.236,0.156,0.55,0.334,0.941,0.521c0.394,0.188,0.849,0.369,1.363,0.525c0.515,0.162,1.085,0.299,1.699,0.406
				c0.623,0.104,1.246,0.16,1.878,0.16c0.737,0,1.454-0.057,2.124-0.182c0.676-0.115,1.283-0.313,1.821-0.59
				c0.529-0.279,0.963-0.627,1.314-1.051c0.338-0.424,0.567-0.949,0.661-1.586c0.111-0.707-0.034-1.32-0.432-1.82
				c-0.396-0.498-0.924-0.975-1.571-1.428c-0.667-0.447-1.372-0.916-2.124-1.396c-0.765-0.486-1.45-1.057-2.075-1.717
				c-0.629-0.65-1.108-1.447-1.439-2.379c-0.323-0.938-0.382-2.068-0.167-3.406c0.241-1.529,0.71-2.824,1.415-3.9
				c0.706-1.078,1.572-1.957,2.601-2.639c1.029-0.682,2.177-1.182,3.467-1.498c1.286-0.313,2.642-0.473,4.05-0.473
				c0.768,0,1.515,0.041,2.271,0.117c0.751,0.08,1.453,0.188,2.113,0.334c0.657,0.146,1.251,0.316,1.808,0.512
				c0.542,0.201,0.995,0.42,1.352,0.652L769.325,332.902z"/>
		</g>
	</g>
	<path fill="#58595B" d="M607.592,267.704c3.073-8.435-1.278-15.273-9.712-15.273c-6.582,0-13.698,4.168-17.965,10.002
		l-15.209,20.818l-11.004-24.586c-1.874-4.099-6.011-6.717-11.736-6.717c-10.117,0-20.543,5.18-24.986,18.314l-17.007,46.724
		c-0.181,0.508,0.08,0.918,0.584,0.918h16.493c0.501,0,1.063-0.41,1.244-0.918l14.865-40.738l7.815,16.764
		c0.035,0.063,0.065,0.126,0.09,0.188l0.119,0.254l0.021-0.004c1.956,3.866,5.997,6.321,11.524,6.321
		c8.368,0,17.467-5.622,22.448-13.294l10.728-14.713c0.495-0.806,1.892-0.357,1.662,0.612l-16.222,44.61
		c-0.188,0.508,0.08,0.918,0.581,0.918h16.5c0.504,0,1.057-0.41,1.241-0.918L607.592,267.704
		C610.665,259.269,607.592,267.704,607.592,267.704z"/>
</g>
</svg>
