<?xml version="1.0" encoding="utf-8"?>
<!-- Generator: Adobe Illustrator 16.0.0, SVG Export Plug-In . SVG Version: 6.00 Build 0)  -->
<!DOCTYPE svg PUBLIC "-//W3C//DTD SVG 1.1//EN" "http://www.w3.org/Graphics/SVG/1.1/DTD/svg11.dtd">
<svg version="1.1" id="Layer_1" xmlns="http://www.w3.org/2000/svg" xmlns:xlink="http://www.w3.org/1999/xlink" x="0px" y="0px"
	 width="841.89px" height="595.28px" viewBox="0 0 841.89 595.28" enable-background="new 0 0 841.89 595.28" xml:space="preserve">
<g>
	<g>
		<path fill="#58595B" d="M692.129,375.66c0,6.783,2.688,8.198,5.2,8.198c1.546,0,2.776-0.366,3.635-0.821l0.604,2.549
			c-1.239,0.641-3.105,1.054-4.889,1.054c-5.278,0-8.008-4.331-8.008-11.07c0-7.114,3.055-11.571,7.47-11.571
			c4.466,0,6.281,4.743,6.281,9.652c0,0.868-0.042,1.457-0.089,2.01H692.129z M699.056,373.056c0.047-4.368-1.597-6.323-3.282-6.323
			c-2.321,0-3.458,3.32-3.593,6.323H699.056z"/>
		<path fill="#58595B" d="M709.627,364.316v9.563h0.501l5.784-9.563h3.872l-6.885,9.924c3.06,0.51,4.563,3.198,5.381,6.248
			c0.497,1.82,1.096,4.188,1.819,5.873h-3.593c-0.548-1.363-1.05-3.236-1.593-5.146c-0.821-3.008-2.052-4.784-4.926-4.784h-0.361
			v9.931h-3.412v-22.045H709.627z"/>
		<path fill="#58595B" d="M733.549,385.813c-0.784,0.459-2.103,0.826-3.653,0.826c-4.819,0-8.06-3.874-8.06-11.165
			c0-6.323,3.185-11.477,8.7-11.477c1.188,0,2.456,0.318,3.097,0.683l-0.678,2.869c-0.46-0.231-1.37-0.592-2.507-0.592
			c-3.552,0-5.103,4.189-5.103,8.517c0,5.142,1.955,8.245,5.19,8.245c0.91,0,1.731-0.182,2.512-0.595L733.549,385.813z"/>
		<path fill="#58595B" d="M749.176,364.316v2.918h-5.01v19.127h-3.514v-19.127h-5.015v-2.918H749.176z"/>
		<path fill="#58595B" d="M751.724,371.189c0-3.361-0.139-5.324-0.181-6.873h3.097l0.177,2.83h0.097
			c1.23-2.331,2.962-3.148,4.694-3.148c3.862,0,6.373,4.063,6.373,11.296c0,8.198-3.375,11.43-6.838,11.43
			c-2.089,0-3.272-1.314-3.867-2.549h-0.088v10.928h-3.464V371.189z M755.188,378.302c0,0.636,0.051,1.272,0.181,1.827
			c0.683,3.136,2.271,3.679,3.231,3.679c2.91,0,3.876-4.006,3.876-8.421c0-4.555-1.096-8.385-3.918-8.385
			c-1.593,0-3.06,1.964-3.231,3.965c-0.088,0.497-0.139,1.094-0.139,1.689V378.302z"/>
		<path fill="#58595B" d="M781.565,381.352c0,1.686,0.042,3.603,0.228,5.01h-3.147l-0.228-2.321h-0.13
			c-0.966,1.685-2.517,2.684-4.42,2.684c-2.91,0-5.199-2.452-5.199-6.281c0-5.562,4.415-7.972,9.382-8.016v-0.68
			c0-2.969-0.771-4.968-3.505-4.968c-1.364,0-2.595,0.411-3.644,1.138l-0.771-2.461c0.952-0.687,2.953-1.458,5.145-1.458
			c4.424,0,6.29,2.862,6.29,7.79V381.352z M778.148,374.932c-1.819,0-6.063,0.362-6.063,5.144c0,2.915,1.462,3.918,2.692,3.918
			c1.551,0,2.813-1.137,3.231-3.333c0.093-0.404,0.139-0.858,0.139-1.268V374.932z"/>
	</g>
	<g>
		<path fill="#58595B" d="M506.567,236.112c-35.478,0-58.81,22.662-58.81,58.362c0,35.471,24.692,56.563,56.79,56.563
			c29.414,0,57.896-18.407,57.896-58.59C562.443,259.233,540.021,236.112,506.567,236.112z M505.124,326.936
			c-15.938,0-28.835-12.908-28.835-28.836c0-0.165,0.005-0.307,0.028-0.474c-0.023-0.042-0.023-0.074-0.028-0.111
			c-0.176-2.084,0.274-4.531,1.087-7.168c0.455-1.604,1.026-3.147,1.731-4.624c6.792-15.668,23.658-35.626,25.97-38.56v-0.054
			c0,0.019,0.019,0.021,0.019,0.021c0.019,0,0.019-0.002,0.028-0.021v0.054c2.279,2.887,18.653,22.274,25.653,37.813
			c0.957,1.848,1.686,3.811,2.22,5.861c0.111,0.364,0.186,0.699,0.273,1.051c0.061,0.255,0.111,0.52,0.167,0.773
			c0.344,1.571,0.524,3.047,0.469,4.394c0,0.353,0.056,0.697,0.056,1.045C533.962,314.027,521.057,326.936,505.124,326.936z"/>
		<path fill="#58595B" d="M192.897,243.82c0-1.857-1.506-3.37-3.383-3.37h-32.679c-1.094,0-2.068,0.529-2.682,1.341
			c-0.398,0.539-0.648,1.175-0.674,1.883l-20.461,56.575l-5.851,18.583h-1.816l-5.855-18.583l-20.625-57.051
			c-0.06-0.334-0.188-0.654-0.345-0.952c-0.569-1.059-1.678-1.796-2.963-1.796H62.863c-1.858,0-3.375,1.513-3.375,3.37v97.899
			c0,1.866,1.517,3.373,3.375,3.373h20.723c1.865,0,3.378-1.507,3.378-3.373v-56.215l-0.603-18.788h1.008l5.251,16.963
			l19.861,59.203l0.06,0.169c0.518,1.207,1.705,2.041,3.09,2.041h21.236c1.394,0,2.596-0.843,3.102-2.05l0.015-0.052l19.914-59.311
			l5.244-16.963h1.004l-0.599,18.788c0,0,0.007,54.46,0.007,56.215c0,1.866,1.506,3.373,3.365,3.373h20.729
			c1.866,0,3.364-1.507,3.364-3.373C193.013,341.72,192.897,241.963,192.897,243.82z"/>
		<path fill="#58595B" d="M261.305,238.839c-13.107,0-24.128,1.558-35.635,5.806c-0.353,0.072-0.674,0.213-0.974,0.374
			c-1.042,0.562-1.754,1.657-1.754,2.938v13.763c0,1.859,1.514,3.373,3.372,3.373c0.248,0,0.491-0.028,0.727-0.088
			c0.083-0.014,0.146-0.033,0.222-0.067c0.153-0.035,0.31-0.086,0.446-0.153c0.029-0.007,0.052-0.016,0.074-0.021
			c-0.007,0-0.015,0-0.03,0c0.154-0.077,0.308-0.148,0.442-0.241c-0.128,0.093-0.273,0.165-0.412,0.241
			c11.891-5.933,20.513-6.736,28.672-6.736c12.526,0,23.637,6.464,23.637,17.984v4.429h-2.42c-5.057,0-10.302-0.198-15.347-0.198
			c-44.446,0-51.927,20.206-51.927,34.556c0,16.355,10.714,31.907,37.171,31.907c22.828,0,30.507-12.516,32.736-16.958h0.39v11.843
			c0,0.053-0.012,0.09-0.012,0.13c0,0.042,0.012,0.079,0.012,0.125c0.079,1.813,1.539,3.248,3.363,3.248H304.2
			c1.865,0,3.379-1.507,3.379-3.373v-62.682C307.579,263.286,303.736,238.839,261.305,238.839z M279.473,298.208
			c-0.857,1.941-6.297,15.557-12.328,23.349c-0.689,0.993-1.495,1.895-2.391,2.721c-0.153,0.155-0.314,0.29-0.471,0.44
			c-0.105,0.089-0.232,0.186-0.338,0.283c-0.711,0.615-1.416,1.099-2.116,1.444c-0.183,0.093-0.353,0.213-0.524,0.311
			c-8.129,4.313-18.224,1.235-22.543-6.889c-4.33-8.134-1.248-18.222,6.881-22.549c0.083-0.044,0.165-0.074,0.248-0.118
			c0.023-0.007,0.034-0.03,0.045-0.053c1.034-0.646,2.39-1.073,3.955-1.379c0.941-0.218,1.888-0.325,2.84-0.367
			c9.844-0.794,24.604,2.396,26.728,2.783l0.022-0.017v0.017c0,0,0.011,0,0.019,0L279.473,298.208z"/>
		<path fill="#58595B" d="M427.261,240.45h-25.441c-1.228,0-2.3,0.666-2.888,1.652c-0.011,0-0.019,0-0.019,0l-44.031,72.088h-0.404
			l0.802-18.779v-51.524c0-0.021,0.007-0.044,0.007-0.067c0-0.014-0.007-0.037-0.007-0.061c-0.03-1.827-1.521-3.31-3.364-3.31
			h-20.738c-1.865,0-3.364,1.513-3.364,3.37v97.904c0,1.848,1.49,3.35,3.327,3.368c0.015,0,0.022,0,0.037,0h24.042
			c0.015,0,0.03,0,0.037,0c1.217-0.012,2.27-0.667,2.847-1.65l0.03-0.01l45.229-72.064h0.599l-0.806,19.582v50.686
			c0,0.025-0.003,0.056-0.003,0.089c0,0.032,0.003,0.06,0.003,0.09c0.057,1.807,1.509,3.26,3.338,3.278c0.01,0,0.023,0,0.033,0
			h20.734c0.015,0,0.015,0,0.037,0c1.853-0.019,3.324-1.521,3.324-3.368V243.82C430.622,241.963,429.118,240.45,427.261,240.45z"/>
		<path fill="#58595B" d="M733.962,238.839c-13.101,0-24.131,1.558-35.635,5.806c-0.349,0.072-0.659,0.213-0.961,0.374
			c-1.04,0.562-1.769,1.657-1.769,2.938v13.763c0,1.859,1.513,3.373,3.379,3.373c0.256,0,0.497-0.028,0.725-0.088
			c0.084-0.014,0.153-0.033,0.218-0.067c0.163-0.035,0.316-0.086,0.446-0.153c0.027-0.007,0.046-0.016,0.079-0.021
			c-0.019,0-0.023,0-0.033,0c0.153-0.077,0.312-0.148,0.441-0.241c-0.121,0.093-0.274,0.165-0.408,0.241
			c11.889-5.933,20.523-6.736,28.676-6.736c12.521,0,23.64,6.464,23.64,17.984v4.429h-2.424c-5.061,0-10.311-0.198-15.353-0.198
			c-44.465,0-51.921,20.206-51.921,34.556c0,16.355,10.706,31.907,37.177,31.907c22.822,0,30.491-12.516,32.715-16.958h0.409v11.843
			c0,0.053-0.02,0.09-0.02,0.13c0,0.042,0.02,0.079,0.02,0.125c0.064,1.813,1.541,3.248,3.355,3.248h20.135
			c1.871,0,3.375-1.507,3.375-3.373v-62.682C780.229,263.286,776.389,238.839,733.962,238.839z M752.133,298.208
			c-0.85,1.941-6.295,15.557-12.33,23.349c-0.683,0.993-1.495,1.895-2.377,2.721c-0.163,0.155-0.32,0.29-0.474,0.44
			c-0.116,0.089-0.232,0.186-0.349,0.283c-0.715,0.615-1.42,1.099-2.117,1.444c-0.176,0.093-0.343,0.213-0.524,0.311
			c-8.129,4.313-18.226,1.235-22.548-6.889c-4.322-8.134-1.244-18.222,6.885-22.549c0.088-0.044,0.167-0.074,0.255-0.118
			c0.015-0.007,0.028-0.03,0.052-0.053c1.012-0.646,2.381-1.073,3.955-1.379c0.929-0.218,1.88-0.325,2.832-0.367
			c9.832-0.794,24.596,2.396,26.727,2.783l0.027-0.017c-0.005,0.009-0.005,0.017-0.005,0.017h0.005L752.133,298.208z"/>
		<path fill="#58595B" d="M665.139,240.487c-0.145-0.014-0.265-0.037-0.399-0.037h-71.048c-0.139,0-0.255,0.023-0.395,0.037
			c-1.634,0.186-2.938,1.562-2.976,3.266c0,0.023-0.005,0.044-0.005,0.067c0,0.03,0.005,0.051,0.005,0.083v40.006
			c0,22.416-1.23,40.992-16.982,40.992c-0.157,0-0.334-0.016-0.501-0.023v0.008l-0.014-0.008c-0.627-0.012-0.998-0.275-1.908-0.152
			c-1.347,0.275-2.409,1.374-2.628,2.778l-0.826,14.363l-0.028,0.568c-0.092,1.593,0.938,2.974,2.396,3.42
			c0.069,0.019,0.139,0.037,0.213,0.053c0.014,0,0.019,0,0.028,0.007c2.864,0.674,5.552,0.789,8.918,0.789
			c27.664,0,35.77-10.891,35.77-62.795v-23.222h25.896v80.873c0,0.059-0.019,0.107-0.019,0.163s0.019,0.106,0.019,0.167
			c0.088,1.785,1.541,3.201,3.348,3.201h20.737c1.871,0,3.37-1.507,3.37-3.368V243.82
			C668.109,242.086,666.814,240.682,665.139,240.487z M570.604,345.995L570.604,345.995L570.604,345.995L570.604,345.995z"/>
		<path fill="#58595B" d="M378.733,229.392c0.161,0,0.322-0.014,0.484-0.014c0.165,0,0.314,0.014,0.494,0.014
			c18.044,0,27.413-9.949,29.458-25.821c0.07-0.281,0.132-0.557,0.132-0.864c0-0.019-0.023-0.04-0.023-0.069
			c-0.039-1.832-1.529-3.301-3.358-3.301h-12.015c-1.843,0-3.333,1.476-3.372,3.314c0,0.016-0.034,0.952-0.034,1.012
			c0,6.235-5.042,11.281-11.282,11.281c-6.219,0-11.284-5.046-11.284-11.281c0-0.061-0.029-0.996-0.037-1.012
			c-0.03-1.838-1.52-3.314-3.356-3.314h-12.024c-1.836,0-3.319,1.469-3.364,3.301c0,0.03,0,0.051,0,0.069
			c0,0.307,0.045,0.583,0.112,0.864C351.309,219.443,360.682,229.392,378.733,229.392z"/>
	</g>
</g>
</svg>
