<?xml version="1.0" encoding="utf-8"?>
<!-- Generator: Adobe Illustrator 16.0.0, SVG Export Plug-In . SVG Version: 6.00 Build 0)  -->
<!DOCTYPE svg PUBLIC "-//W3C//DTD SVG 1.1//EN" "http://www.w3.org/Graphics/SVG/1.1/DTD/svg11.dtd">
<svg version="1.1" id="Layer_1" xmlns="http://www.w3.org/2000/svg" xmlns:xlink="http://www.w3.org/1999/xlink" x="0px" y="0px"
	 width="841.89px" height="595.28px" viewBox="0 0 841.89 595.28" enable-background="new 0 0 841.89 595.28" xml:space="preserve">
<g>
	<g id="_x30__1_" transform="matrix(1, 0, 0, 1, 40.35, 2.25)">
		<path fill="#58595B" d="M650.963,194.792l98.137,162.378H51.067l26.651-44.372L12.09,204.651h18.795l56.23,92.588l55.771-92.588
			h31.581v98.903h22.645v-23.879l0.309-1.078v-1.849l1.539-3.234l1.233-1.232l0.771-0.616l0.309-0.31l0.616-0.308h0.616l0.617-0.306
			l1.23-0.311h3.237l0.614,0.311h0.616l0.616,0.306l1.387,1.233l0.618,0.308l1.54,2.617l0.307,0.927v1.231l0.31,1.387v40.361h-55.46
			V211.12L79.414,341.763h641.031l-69.482-115.39l-55.921,92.74h-19.104l74.411-123.089L650.963,194.792 M685.012,319.113h-19.104
			l-14.945-24.802l-14.788,24.802h-19.411l34.199-56.383L685.012,319.113 M583.334,232.381l4.467,9.244l1.54,4.159l1.696,8.318
			v1.541l0.309,1.388v9.243l-0.309,1.54v1.541L587.8,282.14l-2.927,6.474l-3.237,4.774l-0.615,1.233l-8.627,9.857l-6.934,5.392
			l-1.539,0.616l-1.078,0.772l-1.233,0.615l-2.464,1.543l-9.704,4.156l-3.082,0.616l-1.08,0.618l-9.242,1.386h-1.541l-1.849,0.308
			h-6.163l-1.54-0.308h-1.541l-9.243-1.386l-1.389-0.618l-3.077-0.616l-13.404-6.314l-1.08-0.772l-1.229-0.616l-11.093-9.551
			l-7.704-10.478l-5.083-11.86l-0.615-3.081l-0.618-1.386v-1.542l-0.768-4.158v-2.927l-0.309-1.542v-3.234l0.309-1.54v-2.928
			l0.768-4.157v-1.543l0.618-1.539l0.615-2.928l0.615-1.234l4.468-10.784l0.923-1.077l0.616-1.232l3.545-4.775l0.925-0.926
			l0.77-1.079l4.007-4.312l1.079-0.769l4.466-4.007l1.233-0.462l3.543-2.773l1.544-0.616l1.229-0.771l9.553-4.312l1.079-0.155
			l1.54-0.616l2.926-0.616l1.542-0.616l2.926-0.616h1.542l1.849-0.309l5.854-0.308l1.849-0.308l2.927,0.308h1.849l9.243,1.232
			l1.232,0.616l2.929,0.616l1.541,0.616l1.382,0.155l9.555,4.312l2.465,1.388l3.852,2.773l1.234,0.462l2.31,1.848l2.925,2.928
			l1.233,0.925l0.924,1.231l3.852,4.16L583.334,232.381 M525.562,237.157h1.54l1.076-0.307h5.087v15.095l-3.236,0.312h-1.231
			l-0.925,0.307h-0.463l-0.925,0.307l-1.232,0.616l-1.849,1.234l-1.691,2.001l-0.312,0.31l-0.308,0.615v0.308l-0.309,0.307
			l-0.308,0.618l-0.307,0.924v1.079l-0.31,0.616v0.614l0.31,0.618v0.923l0.307,0.927v0.308l0.308,0.307v0.462l0.309,0.309
			l0.619,0.927l1.076,1.229l0.615,0.925l0.924,0.31l0.617,0.459l0.617,0.312h0.308l0.615,0.307h0.617l0.308,0.311h0.154l1.85,0.306
			h0.615l3.236,0.308v15.252h-6.163l-7.548-1.847l-4.469-2.312l-2.927-2.157l-1.85-1.695l-3.544-4.774l-0.307-0.926l-1.232-2.465
			l-1.388-5.853v-5.085l1.388-6.009l2.156-4.467l2.313-3.235l2.774-2.771l2.616-1.697l0.924-0.924l1.232-0.308l2.003-1.233
			l1.232-0.306l1.235-0.617L525.562,237.157 M529.721,218.361c-12.733,0-23.47,4.263-32.198,12.787
			c-8.935,8.319-13.402,18.435-13.402,30.35c0,12.121,4.468,22.388,13.402,30.811c8.729,8.521,19.465,12.788,32.198,12.788
			c12.528,0,23.261-4.267,32.199-12.788c8.931-8.423,13.4-18.689,13.4-30.811c0-11.915-4.47-22.03-13.4-30.35
			C552.982,222.624,542.25,218.361,529.721,218.361 M420.647,237.466v81.647h-55.458V204.651h94.436v114.462h-16.021v-99.364
			h-61.929v83.806h22.644v-66.089H420.647 M349.167,220.057l4.158,6.316l0.31,0.923l0.616,0.617l2.31,6.78l1.234,6.009v9.55
			l-0.308,2.005l-2.62,8.625l-0.616,1.23l-0.308,0.929l-1.234,1.847l-0.922,2.004l-1.542,1.847l-0.463,0.926l-3.079,3.233
			l-0.617,0.926l-0.771,0.461l-0.924,0.923l-3.082,2.469l-1.694,0.922l-2.466,1.695l-6.777,3.081l-6.625,1.694h-1.078l-2.465,0.616
			h-1.231l-1.078,0.306l-13.712,0.311v-15.558h9.86l1.693-0.311h1.539l5.855-1.077l1.543-0.617l1.23-0.307l3.544-1.85l3.852-2.619
			l2.157-2.157l1.692-2.311l0.617-1.234l1.541-2.153l0.614-1.387l0.31-1.234l0.617-1.229l0.461-2.313v-1.231l0.31-1.235v-4.774
			l-0.31-0.771v-1.229l-0.155-0.928v-0.924l-0.615-2l-0.617-0.928l-1.538-3.234l-1.542-2.157l-3.234-3.235l-4.159-2.77l-0.925-0.158
			l-0.924-0.613l-8.937-2.773h-1.077l-2.465-0.616h-1.388l-1.231-0.309l-47.141-0.308v-15.098l50.067,0.308l9.245,1.388l1.539,0.615
			l1.693,0.308l3.082,1.233l1.388,0.308l6.315,2.927l5.394,3.544L349.167,220.057 M315.736,237.928l0.617,0.307h0.922l0.619,0.616
			l1.078,0.617l0.308,0.307l0.614,0.31l0.617,0.925l0.31,0.307v0.616l0.308,0.31v0.155l0.308,0.923l0.309,0.616v2.771l-0.616,1.387
			v0.618l-0.617,0.616l-0.308,0.924l-0.617,0.307l-1.076,1.079l-1.235,0.619l-0.922,0.307h-0.617l-0.925,0.307h-0.769l-0.924,0.309
			h-31.582v65.935h-16.176v-81.341h49.45L315.736,237.928 M257.348,204.651l-32.506,36.974l7.241,2.311l4.16,2.156l5.236,3.852
			l5.085,6.164l1.85,3.695l2.31,7.089l1.541,9.242v3.542l0.307,1.85v37.588h-16.328v-39.744l-1.541-8.013l-0.617-1.23l-0.308-1.08
			l-1.694-3.852l-0.924-0.925l-0.617-1.229l-1.541-1.543l-0.309-0.616l-0.615-0.309l-0.771-0.771l-1.231-0.924l-0.617-0.308
			l-0.924-0.311l-0.616-0.614l-2.002-0.925l-0.926-0.307l-5.084-1.077h-7.394l-2.465,0.613h-0.617l-1.079,0.464l-1.23,0.307
			l-1.233,0.616l-0.925,0.309l-15.097,7.703l50.377-60.698H257.348 M102.06,204.651h19.102l-34.046,56.23l-33.893-56.23h19.103
			l14.79,24.648L102.06,204.651"/>
		<path fill="#58595B" d="M713.513,369.183l9.549,25.576H716.9l-1.849-4.781h-8.934l-1.696,4.781h-6.315l9.55-25.576H713.513
			 M710.584,375.961l-3.234,9.86h6.471L710.584,375.961 M695.332,369.183v25.576h-5.855v-18.182l-6.316,18.182h-4.157l-6.315-18.182
			v18.182h-6.163v-25.576h8.627l6.009,17.563l5.852-17.563H695.332 M660.515,371.187c1.644,1.645,2.465,3.749,2.465,6.316
			c0,2.979-0.924,5.134-2.774,6.471c-1.743,1.438-4.107,2.154-7.087,2.154h-5.697v8.631h-6.01v-25.576h12.017
			C656.201,369.183,658.563,369.85,660.515,371.187 M647.422,381.047h4.775l3.236-0.925l0.92-2.619l-0.92-2.464
			c-0.62-0.618-1.696-0.926-3.236-0.926h-4.775V381.047 M636.174,394.759h-6.009v-25.576h6.009V394.759 M510.617,369.183v6.162
			c0,1.642,0.414,2.725,1.234,3.238c0.822,0.819,1.898,1.229,3.234,1.229l2.156-0.307h2.003v-10.323h6.008v25.576h-6.008v-10.478
			l-5.546,0.307c-2.976,0-5.289-0.565-6.934-1.694c-1.434-0.82-2.156-2.826-2.156-6.009v-7.702H510.617 M482.888,377.503
			c-0.926-0.821-2.723-1.233-5.395-1.233h-0.461v11.092h0.461c2.466,0,4.163-0.408,5.087-1.233c1.231-0.817,1.845-2.309,1.845-4.466
			C484.425,380.226,483.914,378.838,482.888,377.503 M490.744,381.662c0,3.185-1.026,5.752-3.082,7.704
			c-1.948,1.849-5.029,2.771-9.243,2.771h-0.925v3.852h-5.853v-3.852h-0.925c-3.798,0.105-6.88-0.82-9.243-2.771
			c-1.95-2.366-2.925-4.931-2.925-7.704c0-2.567,0.975-5.085,2.925-7.549c2.363-1.953,5.445-2.927,9.243-2.927h0.925v-3.545h5.853
			v3.545h0.925c3.803,0,6.886,0.974,9.243,2.927C489.717,376.169,490.744,378.686,490.744,381.662 M500.451,369.183v25.576h-6.163
			v-25.576H500.451 M466.555,377.503c-1.23,1.128-1.845,2.518-1.845,4.159c0,1.746,0.614,3.235,1.845,4.466
			c0.824,0.825,2.519,1.233,5.086,1.233h0.616V376.27h-0.616C469.074,376.27,467.379,376.682,466.555,377.503 M451.306,394.759
			l-1.388-4.781h-9.244l-1.539,4.781h-6.624l9.551-25.576h6.316l9.244,25.576H451.306 M429.587,371.187
			c1.642,1.438,2.463,3.547,2.463,6.316c0,2.979-0.821,5.134-2.463,6.471c-1.951,1.438-4.318,2.154-7.089,2.154h-5.701v8.631h-6.006
			v-25.576h11.707C425.474,369.183,427.839,369.85,429.587,371.187 M425.733,377.503l-0.924-2.464
			c-0.617-0.618-1.796-0.926-3.545-0.926h-4.468v6.934h4.468c1.54,0,2.618-0.31,3.235-0.925L425.733,377.503 M441.754,385.821h6.624
			l-3.236-9.86L441.754,385.821 M407.553,374.113h-11.091v20.646h-5.856v-25.576h16.947V374.113 M607.52,371.187v-3.545h6.009v3.545
			h0.77c3.801,0,6.883,0.974,9.244,2.927c2.054,2.464,3.08,4.981,3.08,7.549c0,2.773-1.026,5.338-3.08,7.704
			c-1.953,1.849-5.035,2.771-9.244,2.771h-0.77v3.852h-6.009v-3.852h-1.233c-3.594,0.105-6.572-0.82-8.934-2.771
			c-1.953-1.952-2.928-4.52-2.928-7.704c0-2.977,0.975-5.493,2.928-7.549c2.361-1.953,5.34-2.927,8.934-2.927H607.52
			 M612.912,376.27v11.092h0.617c2.36,0,4.006-0.408,4.927-1.233c1.235-0.817,1.851-2.309,1.851-4.466
			c0-1.642-0.615-3.031-1.851-4.159c-0.718-0.821-2.361-1.233-4.927-1.233H612.912 M607.52,376.27c-2.573,0-4.363,0.412-5.391,1.233
			c-1.03,1.335-1.546,2.723-1.546,4.159c0,1.543,0.516,3.028,1.546,4.466c1.027,0.825,2.817,1.233,5.391,1.233h0.617V376.27H607.52
			 M573.164,394.759l-1.385-4.781h-9.243l-1.85,4.781h-6.162l9.397-25.576h6.009l9.553,25.576H573.164 M570.239,385.821l-3.239-9.86
			l-3.388,9.86H570.239 M552.059,369.183v25.576h-6.009v-11.097h-9.244v11.097h-5.853v-25.576h5.853v9.707h9.244v-9.707H552.059
			 M360.719,374.113l-0.307,9.092c0,4.105-0.976,7.341-2.926,9.704c-1.952,1.85-4.829,2.463-8.629,1.85v-4.781
			c1.951,0.206,3.439-0.305,4.467-1.537c1.028-1.337,1.542-3.594,1.542-6.778v-12.479h18.64v25.576h-5.854v-20.646H360.719
			 M385.214,369.183v25.576h-6.008v-25.576H385.214 M333.607,368.568c4.416,0,7.601,1.18,9.552,3.541
			c2.156,2.362,3.233,5.648,3.233,9.861c0,4.314-1.077,7.601-3.233,9.86c-1.951,2.565-5.136,3.852-9.552,3.852
			c-4.007,0-7.189-1.286-9.551-3.852c-2.158-2.669-3.235-5.959-3.235-9.86c0-3.802,1.077-7.088,3.235-9.861
			C326.418,369.748,329.6,368.568,333.607,368.568 M333.607,373.345c-1.951,0-3.441,0.664-4.469,2
			c-1.129,1.642-1.692,3.852-1.692,6.626c0,2.978,0.563,5.133,1.692,6.47c1.027,1.642,2.518,2.365,4.469,2.156
			c2.361,0,3.954-0.718,4.776-2.156c1.027-1.337,1.538-3.492,1.538-6.47c0-2.98-0.511-5.086-1.538-6.316
			C337.356,374.113,335.762,373.345,333.607,373.345 M316.661,394.759h-6.317v-20.646H301.1v20.646h-6.162v-25.576h21.723V394.759"
			/>
	</g>
	<g>
		<path fill="#58595B" d="M787.109,215.909c0,5.211-1.847,9.662-5.539,13.353c-3.691,3.69-8.141,5.535-13.35,5.535
			c-5.215,0-9.662-1.845-13.354-5.535c-3.69-3.69-5.536-8.142-5.536-13.353c0-5.212,1.846-9.66,5.536-13.342
			c3.692-3.684,8.14-5.525,13.354-5.525c5.209,0,9.658,1.842,13.35,5.525C785.263,206.249,787.109,210.697,787.109,215.909z
			 M784.596,215.909c0-4.557-1.596-8.441-4.794-11.65c-3.195-3.21-7.049-4.815-11.56-4.815c-4.514,0-8.369,1.605-11.564,4.815
			c-3.195,3.209-4.791,7.094-4.791,11.65c0,4.556,1.596,8.443,4.791,11.659c3.195,3.219,7.051,4.827,11.564,4.827
			c4.511,0,8.364-1.608,11.56-4.827C783,224.353,784.596,220.465,784.596,215.909z M779.073,225.518h-4.958l-6.181-7.753h-2.684
			v7.753h-3.604v-19.981h6.094c1.369,0,2.446,0.051,3.24,0.152c0.794,0.103,1.596,0.387,2.414,0.853
			c0.872,0.494,1.507,1.091,1.897,1.79c0.394,0.698,0.589,1.594,0.589,2.687c0,1.456-0.401,2.649-1.209,3.58
			c-0.81,0.933-1.859,1.66-3.156,2.185L779.073,225.518z M771.91,211.258c0-0.538-0.086-1.005-0.261-1.398
			c-0.174-0.393-0.483-0.727-0.919-1.005c-0.362-0.231-0.771-0.389-1.223-0.469c-0.451-0.08-1.034-0.12-1.746-0.12h-2.511v6.748
			h2.139c0.7,0,1.354-0.069,1.966-0.207c0.609-0.139,1.106-0.376,1.484-0.71c0.379-0.335,0.651-0.722,0.819-1.157
			C771.827,212.502,771.91,211.942,771.91,211.258z"/>
	</g>
</g>
</svg>
