<?xml version="1.0" encoding="utf-8"?>
<!-- Generator: Adobe Illustrator 16.0.0, SVG Export Plug-In . SVG Version: 6.00 Build 0)  -->
<!DOCTYPE svg PUBLIC "-//W3C//DTD SVG 1.1//EN" "http://www.w3.org/Graphics/SVG/1.1/DTD/svg11.dtd">
<svg version="1.1" id="Layer_1" xmlns="http://www.w3.org/2000/svg" xmlns:xlink="http://www.w3.org/1999/xlink" x="0px" y="0px"
	 width="841.89px" height="595.28px" viewBox="0 0 841.89 595.28" enable-background="new 0 0 841.89 595.28" xml:space="preserve">
<g>
	<g>
		<path fill="#58595B" d="M361.647,334.695c3.838-3.289,6.031-8.057,6.031-13.152c0-11.875-8.86-18.965-23.702-18.965H311.71v70.176
			h35.727c13.634,0,23.156-8.961,23.156-21.791C370.593,343.727,367.42,337.967,361.647,334.695z M340.97,329.629h-12.822V317.1
			h13.186c7.544,0,9.726,1.406,9.726,6.266C351.06,326.666,350.288,329.629,340.97,329.629z M328.148,343.15h14.188
			c8.634,0,11.547,1.902,11.547,7.541c0,4.469-1.933,7.445-11.366,7.445h-14.369V343.15z"/>
		<path fill="#58595B" d="M419.264,302.486h-15.767l-26.943,69.85l-0.161,0.418h17.484l6.377-17.217h21.961l6.193,17.217h17.958
			l-27.026-70.072L419.264,302.486z M417.316,341.652h-12.178l6.229-16.836L417.316,341.652z"/>
		<polygon fill="#58595B" points="447.287,317.738 467.962,317.738 467.962,372.754 484.674,372.754 484.674,317.738 
			505.352,317.738 505.352,302.578 447.287,302.578 		"/>
		<polygon fill="#58595B" points="509.958,317.738 530.634,317.738 530.634,372.754 547.343,372.754 547.343,317.738 
			568.021,317.738 568.021,302.578 509.958,302.578 		"/>
		<polygon fill="#58595B" points="597.872,343.879 630.753,343.879 630.753,329.357 597.872,329.357 597.872,317.467 
			633.306,317.467 633.306,302.578 581.253,302.578 581.253,372.754 633.852,372.754 633.852,357.682 597.872,357.682 		"/>
		<path fill="#58595B" d="M707.763,355.889l-0.171-2.139c-0.388-4.721-0.915-11.146-6.138-14.795
			c4.675-3.496,7.241-9.045,7.241-15.68c0-13.154-8.938-20.697-24.524-20.697h-33.358v70.176h16.618v-26.779h12.46
			c9.493,0,10.993,2.418,11.55,11.342l0.103,1.744c0.325,5.625,0.56,9.689,2.434,12.504l0.79,1.189h19.644l-4.039-4.451
			C708.59,366.338,708.244,361.963,707.763,355.889z M667.431,317.193h13.823c7.989,0,10.821,1.9,10.821,7.264
			c0,5.703-3.213,7.723-12.276,7.723h-12.368V317.193z"/>
		<polygon fill="#58595B" points="764.767,302.578 749.235,328.738 733.54,302.578 714.104,302.578 740.755,345.08 740.755,372.754 
			757.284,372.754 757.284,345.076 783.837,302.578 		"/>
		<polygon fill="#58595B" points="321.543,254.743 336.818,296.04 336.892,296.24 345.292,296.24 360.241,254.784 360.241,296.24 
			370.157,296.24 370.157,239.986 356.034,239.986 341.242,282.895 325.985,240.189 325.912,239.986 311.71,239.986 311.71,296.24 
			321.543,296.24 		"/>
		<path fill="#58595B" d="M408.307,297.569c7.876,0,14.632-2.824,19.537-8.168c4.904-5.342,7.495-12.703,7.495-21.288
			c0-17.344-11.052-29.457-26.877-29.457c-16.265,0-27.192,11.838-27.192,29.457C381.27,285.732,392.135,297.569,408.307,297.569z
			 M408.307,247.477c10.067,0,16.572,8.069,16.572,20.558c0,12.583-6.444,20.714-16.417,20.714c-10.319,0-16.729-7.966-16.729-20.79
			C391.732,255.517,398.238,247.477,408.307,247.477z"/>
		<path fill="#58595B" d="M492.179,279.522c0-6.698-3.668-11.718-9.862-13.587c4.5-2.151,7.36-6.635,7.36-11.653
			c0-8.952-6.863-14.296-18.359-14.296h-25.705v56.254h28.676C484.989,296.24,492.179,289.522,492.179,279.522z M468.739,263.196
			h-12.979v-14.703h13.29c5.224,0,10.323,0.568,10.323,7.351C479.374,260.997,476.193,263.196,468.739,263.196z M469.909,270.843
			c6.173,0,11.886,1.023,11.886,8.447c0,5.787-3.617,8.367-11.729,8.367h-14.306v-16.814H469.909z"/>
		<rect x="507.063" y="239.986" fill="#58595B" width="10.461" height="56.254"/>
		<polygon fill="#58595B" points="544.762,239.986 534.301,239.986 534.301,296.24 573.055,296.24 573.055,287.188 544.762,287.188 
					"/>
		<polygon fill="#58595B" points="622.429,287.264 591.558,287.264 591.558,271.467 619.771,271.467 619.771,262.96 591.558,262.96 
			591.558,248.804 621.957,248.804 621.957,239.986 581.253,239.986 581.253,296.24 622.429,296.24 		"/>
	</g>
	<g>
		<g>
			<path fill="#58595B" d="M255.125,327.623c30.761-30.759,29.453-81.942-2.926-114.32c-32.381-32.377-83.567-33.687-114.326-2.929
				c-1.236,1.235-56.591,60.709-56.591,60.709l-0.001,0.001c-30.759,30.757-31.482,79.856,0.896,112.233
				c32.379,32.375,80.874,31.057,111.631,0.297l0.002-0.002l0-0.002C193.811,383.611,253.503,329.246,255.125,327.623z
				 M243.306,222.197c27.423,27.421,28.735,70.728,2.929,96.534c-25.806,25.805-69.112,24.49-96.535-2.932
				c-27.424-27.422-28.737-70.725-2.932-96.529C172.576,193.461,215.884,194.775,243.306,222.197z M185.018,374.82
				c-25.803,25.801-66.525,27.027-93.947-0.396c-27.423-27.42-26.761-68.707-0.957-94.509c0.001-0.002,26.692-28.711,26.692-28.711
				c-4.402,25.437,3.68,53.167,24.002,73.488c20.106,20.105,47.461,28.227,72.677,24.135L185.018,374.82z"/>
			<path fill="#58595B" d="M214.63,289l5.861-5.863c9.716-9.714,9.3-25.878-0.924-36.102c-10.167-10.169-26.21-10.63-35.941-1.079
				l-6.026,6.018c-9.711,9.711-9.296,25.874,0.929,36.099C188.754,298.297,204.918,298.71,214.63,289z M216.761,249.842
				c8.658,8.661,9.071,22.336,0.924,30.485c-8.15,8.15-21.825,7.731-30.486-0.926c-8.659-8.661-9.075-22.334-0.924-30.482
				C194.422,240.769,208.1,241.184,216.761,249.842z"/>
		</g>
	</g>
</g>
</svg>
