<svg xmlns="http://www.w3.org/2000/svg" width="841.89" height="595.28" viewBox="0 0 841.89 595.28"><g fill="#58595B"><path d="M148.208 432.672h-5.46v14.417h-5.975v-36.662h10.874c7.912 0 13.12 2.988 13.12 11.123.002 7.723-5.41 11.122-12.56 11.122zm-.56-17.403h-4.952v12.562h4.798c3.165 0 7.198-1.39 7.198-6.334 0-4.427-3.624-6.23-7.045-6.23zM197.255 447.09l-3.472-9.01h-16.95l-3.472 9.01h-6.178l14.96-36.662h6.74l14.856 36.66h-6.483zM185.46 415.68h-.102l-6.79 17.66h13.478l-6.585-17.66zM216.57 447.09v-36.662h6.023v36.66h-6.024zM262.93 447.09l-19.044-29.246h-.153v29.245h-5.973v-36.662h7.914l18.787 28.887h.154v-28.887h6.024v36.66h-7.708zM301.874 415.37v31.72h-5.922v-31.72h-12.51v-4.942h30.94v4.942h-12.508zM337.766 447.09h-10.468v-36.662h11.08c7.147 0 12.304 2.525 12.304 9.168 0 4.89-2.603 7.41-7.147 8.65v.153c4.9.617 8.117 3.706 8.117 8.597 0 8.085-6.688 10.092-13.886 10.092zm.46-31.977h-4.95v10.813h3.215c3.318 0 8.22-.463 8.22-5.612 0-4.222-3.422-5.2-6.484-5.2zm-1.583 15.345h-3.368v11.945H337c4.392 0 8.526-.927 8.526-5.716 0-5.458-4.545-6.23-8.883-6.23zM393.326 447.09l-3.472-9.01h-16.95l-3.472 9.01h-6.178l14.96-36.662h6.74l14.855 36.66h-6.484zm-11.793-31.408h-.103l-6.79 17.66h13.48l-6.587-17.66zM412.675 447.09v-36.662h5.975v31.718h16.388v4.943h-22.363zM447.9 447.09v-36.662h5.977v31.718h16.39v4.943H447.9z"/><g><path d="M566.557 447.09v-6.18h6.28v6.18h-6.28zM596.14 447.705c-11.028 0-20.168-6.847-20.168-18.947 0-11.636 8.832-18.947 20.116-18.947 2.91 0 6.535.515 9.293 1.547v5.715c-2.5-1.44-6.177-2.368-8.986-2.368-8.168 0-14.244 6.024-14.244 14.055 0 8.445 6.485 14.056 14.244 14.056 2.706 0 6.894-.977 9.037-2.108v5.507c-2.655 1.028-6.482 1.49-9.29 1.49zM637.354 447.705c-11.233 0-19.094-7.722-19.094-18.947 0-10.864 7.606-18.947 19.042-18.947 11.692 0 19.096 8.138 19.096 18.948 0 11.124-7.454 18.947-19.044 18.947zm0-33.002c-8.168 0-12.865 6.746-12.865 14.055 0 7.104 4.746 14.057 12.812 14.057 6.333 0 12.868-4.685 12.868-14.057 0-7.26-4.545-14.055-12.816-14.055zM699.145 447.09V417.38h-.152l-11.845 13.95-11.795-13.95h-.153v29.707h-5.97v-36.662h6.99l10.98 13.233 10.926-13.232h6.993v36.66h-5.975z"/></g></g><path fill="#58595B" d="M719.79 258.566c8.623-11.622 13.73-26.052 13.73-41.684 0-38.466-30.92-69.65-69.063-69.65h-184.81v158.39l-157.34-158.39H177.434c-38.142 0-69.063 31.184-69.063 69.65 0 15.632 5.107 30.062 13.73 41.684-12.226 13.576-19.677 31.598-19.677 51.38 0 42.214 33.935 76.438 75.796 76.438h257.7l-52.95-53.323H178.75c-12.658 0-22.92-10.348-22.92-23.115 0-12.765 10.59-23.113 22.92-23.113h104.95v29.21l53.283.44v-29.65l-53.136-53.37H177.072s-15.58-7.544-15.58-16.58c0-9.038 8.03-16.566 15.58-16.566s110.005-.02 110.005-.02L532.595 446.83V200.298h132.222c7.72 0 15.644 7.334 15.644 16.373 0 9.036-7.338 16.793-15.643 16.793h-104.72v53.37h103.34c12.657 0 22.916 10.347 22.916 23.112 0 12.768-10.26 23.116-22.917 23.116h-103.34v53.324H663.67c41.862 0 75.796-34.225 75.796-76.44 0-19.78-7.45-37.802-19.675-51.378z"/></svg>