<svg xmlns="http://www.w3.org/2000/svg" width="841.89" height="595.28" viewBox="0 0 841.89 595.28"><path fill="#58595B" d="M168.397 485.5c-.39-9.105-.59-18.336-.59-27.647.094-94.348 15.187-189.615 66.2-270.883 6.054-9.613 18.762-12.497 28.375-6.448 9.613 6.066 12.514 18.76 6.444 28.387-45.305 71.67-59.968 160.478-59.875 248.943 0 8.722.202 17.357.57 25.87v.015c.482 11.348-8.326 20.947-19.674 21.443-.295.014-.59.02-.884.02-10.965 0-20.096-8.64-20.565-19.7z"/><path fill="#58595B" d="M214.097 137.72c-9.773-5.8-22.4-2.574-28.188 7.2-42.365 71.424-68.625 153.834-76.998 244.054-7.242-36.683-11.073-75.04-11.053-113.178-.014-67.233 11.735-133.686 35.925-188.865 4.555-10.41-.182-22.547-10.59-27.1-10.424-4.555-22.55.185-27.105 10.608-27.003 61.757-39.363 133.388-39.396 205.357.06 88.533 18.73 177.663 54.22 249.896.008.015.02.028.02.04.122.23.27.437.39.664.442.804.91 1.58 1.44 2.304.214.295.44.563.67.838.53.65 1.078 1.26 1.667 1.83.242.227.477.46.725.682.737.645 1.507 1.233 2.318 1.756.147.094.268.207.415.294.938.584 1.93 1.065 2.94 1.487.35.147.704.255 1.066.375.723.263 1.473.477 2.224.65.39.094.777.18 1.173.248 1.066.18 2.15.295 3.236.308.054 0 .094.014.147.014h.054c.007 0 .02-.007.026-.007.576 0 1.152-.02 1.73-.073.535-.047 1.03-.208 1.553-.295.616-.1 1.233-.188 1.85-.348.99-.262 1.928-.624 2.853-1.02.347-.14.702-.2 1.044-.368.094-.048.167-.114.254-.16.697-.356 1.313-.792 1.956-1.22.497-.33 1.032-.624 1.5-.992.51-.402.94-.878 1.408-1.326.495-.482 1.025-.925 1.466-1.447.422-.488.744-1.052 1.12-1.58.374-.543.803-1.06 1.124-1.63.388-.682.657-1.42.964-2.136.2-.49.462-.952.63-1.448.24-.71.36-1.453.522-2.19.12-.568.295-1.132.375-1.715.074-.603.047-1.226.067-1.842.033-.757.094-1.508.04-2.264-.014-.1.014-.193 0-.295l-.014-.014c-1.822-20.993-2.733-41.61-2.72-61.83.014-108.863 26.033-205.896 74.144-287.07 5.803-9.79 2.58-22.403-7.193-28.19zM755.795 248.52v-23.487h10.396c2.085 0 3.687.21 4.757.633 1.094.43 1.957 1.166 2.607 2.234.648 1.075.977 2.248.977 3.537 0 1.668-.54 3.078-1.612 4.217-1.072 1.142-2.732 1.865-4.984 2.177.824.4 1.453.782 1.875 1.163.91.84 1.755 1.875 2.565 3.128l4.053 6.398h-3.87l-3.11-4.887c-.89-1.413-1.648-2.484-2.23-3.234s-1.105-1.273-1.58-1.58c-.455-.302-.932-.513-1.4-.634-.36-.074-.924-.114-1.73-.114h-3.597v10.45h-3.115zm3.115-13.134h6.666c1.414 0 2.518-.145 3.31-.44.796-.284 1.405-.756 1.82-1.41.403-.642.616-1.345.616-2.1 0-1.108-.408-2.02-1.205-2.735-.797-.72-2.07-1.078-3.79-1.078h-7.417v7.764z"/><path fill="#58595B" d="M744.488 236.83c0-11.245 9.11-20.352 20.352-20.352 11.24 0 20.357 9.107 20.357 20.35 0 11.242-9.117 20.35-20.357 20.35-11.242 0-20.352-9.108-20.352-20.35zm3.276 0c.014 9.435 7.65 17.054 17.076 17.07 9.432-.016 17.068-7.645 17.074-17.07-.006-9.437-7.643-17.07-17.074-17.077-9.434.007-17.063 7.64-17.076 17.076zM286.404 461.37c36.107-.19 77.862-10.304 80.58-59.246-.053-29.46-17.677-43.696-35.992-53.33-18.114-9.954-37.112-12.754-38.225-24.518 0-.268.014-.495.027-.475.563-8.687 10.557-10.08 21.034-10.162 14.858.014 33.622 3.698 40.354 5.132v-49.475c-5.145-1.038-21.932-4.133-41.32-4.133-32.228.08-70.056 8.367-75.114 46.91-.49 3.91-.723 7.568-.723 11.025.066 30.105 17.215 44.133 35.028 53.51 17.604 9.647 36.228 12.247 37.272 24.272v.166c-.884 9.238-12.788 10.136-25.603 10.39-16.788 0-37.22-3.194-44.186-4.374v49.05c5.51 1.24 24.802 5.257 46.868 5.257z"/><path fill="#58595B" d="M433.766 264.844c-37.644.04-60.958 13.874-75.415 31.696v27.45l-2.55-.598c-.022 0-4.804-1.103-11.655-2.328-3.663 9.107-5.903 18.16-7.27 26.155 17.472 9.894 34.334 25.708 34.29 55.018-.713 12.864-4.01 23.238-9.113 31.57 14.79 16.097 37.068 29.02 70.824 29.048 84.172.067 98.508-70.298 99.064-86.36.02-1.368.06-3.31.06-5.742-.2-26.032-5.508-105.91-98.234-105.91zM432.44 410.56c-21.78-.148-42.183-22.214-42.284-46.304.013-23.93 18.35-46.478 42.718-46.544 21.738.04 43.992 15.983 44.047 46.812-.053 30.936-23.272 45.988-44.48 46.035z"/><path fill="#58595B" d="M572.648 321.235h49.746l-13.084-52.633h-89.906v34.628c15.04 24.873 16.73 53.968 16.78 67.523 0 2.498-.052 4.488-.085 5.835-.16 8.132-3.755 28.755-16.696 48.26v37.513l53.244-4.06v-63.163l33.56-.02v-47.41h-33.56v-26.472zM622.582 268.602v36.073l3.97 15.958h23.428V461.27l55.89-4.334V320.633h33.566v-52.03"/></svg>