<svg xmlns="http://www.w3.org/2000/svg" width="841.89" height="595.28" viewBox="0 0 841.89 595.28"><g fill="#58595B"><path d="M161.872 334.904H147.75l-18.355-21.063h-11.43v21.064h-11.884V271.81c9.98 0 19.986.096 29.96.096 14.853.087 22.687 9.99 22.687 20.872 0 8.642-3.96 17.374-15.932 19.806l19.076 21.504v.816zm-43.906-51.926v20.16h18.073c7.572 0 10.807-5.044 10.807-10.087s-3.33-10.07-10.808-10.07h-18.074zM225.694 334.904h-47.146v-62.998h47.146v11.518h-35.36v14.492h34.105v11.068h-34.105v14.213h35.36v11.707zM281.652 287.112c-2.17-3.6-8.12-7.018-14.94-7.018-8.828 0-13.063 3.688-13.063 8.37 0 5.492 6.49 7.02 14.044 7.924 13.14 1.61 25.374 5.032 25.374 20.06 0 14.044-12.418 20.065-26.454 20.065-12.868 0-22.766-3.953-27.447-15.467l9.896-5.135c2.805 6.93 10.076 9.987 17.726 9.987 7.476 0 14.48-2.61 14.48-9.45 0-5.937-6.206-8.372-14.56-9.276-12.876-1.53-24.75-4.942-24.75-19.077 0-12.944 12.77-18.26 24.382-18.356 9.812 0 19.98 2.807 24.76 12.507l-9.45 4.868zM354.173 334.982V309.53h-30.96v25.452h-11.875v-62.988h11.875v26.556h30.96v-26.556h11.788v62.988h-11.787zM424.508 271.81h11.89v63.095h-7.383v.078l-33.127-42.556v42.478h-11.872v-62.998h9.625l30.868 39.052v-39.15zM501.008 323.02h-32.943l-5.395 11.884h-12.884l28.275-62.998h12.947l28.264 62.998h-12.964l-5.298-11.883zm-16.472-37.885L472.82 311.95h23.404l-11.688-26.815zM568.563 287.112c-2.165-3.6-8.1-7.018-14.954-7.018-8.816 0-13.03 3.688-13.03 8.37 0 5.492 6.475 7.02 14.035 7.924 13.138 1.61 25.374 5.032 25.374 20.06 0 14.044-12.413 20.065-26.475 20.065-12.855 0-22.753-3.953-27.428-15.467l9.892-5.135c2.79 6.93 10.087 9.987 17.728 9.987 7.455 0 14.49-2.61 14.49-9.45 0-5.937-6.21-8.372-14.59-9.276-12.858-1.53-24.74-4.942-24.74-19.077 0-12.944 12.787-18.26 24.39-18.356 9.802 0 19.964 2.807 24.752 12.507l-9.447 4.868zM611.444 282.702h-19.976v-10.795h51.83v10.795h-19.98v52.203h-11.874v-52.203zM659.584 334.904v-62.998h11.79v62.998h-11.79zM703.416 271.907v52.003h32.393v10.994h-44.28v-62.998h11.886z"/></g><g fill="#9FA1A4"><path d="M314.444 375.293l16.035-16.033h-32.07M513.73 359.26h-31.827l15.91 15.916M516.894 394.25l16.46 16.46v-33.458l-16.46-16.457M440.763 359.26h-32.07l16.038 16.033M461.217 411.777l16.73-16.73-17.76-17.758-.006-.005-16.642-16.64v33.46M367.56 359.26h-32.065l16.032 16.027M370.188 393.953l17.937 17.938 16.73-16.728-34.667-34.67M406.866 397.178v33.457l17.75 17.742 16.727-16.73-28.632-28.63M443.538 467.305L460 483.768v-33.463l-4.155-4.157-12.307-12.308M296.403 359.908l-.976-.648h-33.134l160.9 160.9v-33.465l-7.062-7.056-11.387-11.388M549.85 359.26h-31.84l3.014 3.01 12.91 12.908M476.88 359.26h-32.07l16.032 16.03M497.808 377.836l-17.207 17.21 16.73 16.733 17.683-17.682v-33.463l-17.2 17.203M403.68 359.26h-32.073l16.038 16.033M409.194 396.852l15.052 15.04 17.414-17.415v-33.46l-16.93 16.934-17.218 17.216M496.68 447.244l-.01-33.47-8.834-8.833-7.618-7.62v33.455M450.124 437.773l10.605 10.606 17.605-17.61v-33.456L444 431.648M351.04 411.89l17.268-17.265v-33.463L351.53 377.95l-.003-.003-17.215 17.215M370.912 431.764l15.735 15.734.998.994 17.343-17.342v-33.462l-16.86 16.86M424.61 451.04l-17.21 17.21 16.733 16.732 17.527-17.533v-33.462l-17.05 17.053"/><g><path d="M460.755 155.585l10.39-10.397v-33.45l-27.127 27.12 5.068 5.063M507.933 181.794v-33.45L480.72 175.55l16.728 16.733M534.05 228.88l10.486-10.49v-33.45l-27.215 27.21M581.173 247.817v-26.27l-26.277 26.27M404.988 138.334v-33.457l-34.076 34.074 16.733 16.73M424.244 192.28l17.416-17.418v-33.458l-16.93 16.93-17.218 17.217M461.336 194.934l-17.218 17.22 16.73 16.728 17.487-17.487v-33.457M497.938 231.54l-.002-.003-16.28 16.28h33.357V214.46M368.308 175.01v-33.457l-33.996 33.998.558.56 16.168 16.17M397.223 185.842l-26.31 26.312 16.756 16.698 17.318-17.317V178.08M424.73 231.54l-16.28 16.277h33.21v-33.204M297.707 212.155l16.73 16.728 17.587-17.588v-33.46M351.523 231.537l-16.28 16.28h33.065v-33.064M262.044 247.817h33.373v-33.37M424.244 119.062l10.488-10.488V75.12l-27.22 27.21M424.73 155.675l16.636-16.634.006-.004-.003-.002.076-.098-34.58-34.575v33.456M443.538 174.49l17.794 17.794 16.73-16.73-17.31-17.313-.755-.57-16.46-16.455M497.933 228.882l16.132-16.132.593-.595-34.44-34.447v33.456M550.324 247.817l-33.43-33.435v33.435M404.854 175.552v-.003l-34.666-34.67v33.46l17.937 17.94M406.866 211.02l17.865 17.863 16.732-16.726-28.81-28.81-5.786-5.784M443.665 247.817h33.453l-33.58-33.585v33.458M368.252 212.152l-17.214-17.216v.002L333.904 177.8v33.457l17.62 17.623M297.296 247.817h33.415l-25.48-25.483-7.934-7.935M370.188 214.084l.06 33.514.216.22h33.453"/></g></g></svg>