<svg xmlns="http://www.w3.org/2000/svg" width="841.89" height="595.28" viewBox="0 0 841.89 595.28"><g fill="#58595B"><path d="M250.468 258.77l.313-.225h-30.953l.326.226c2.112 1.507 2.112 3.152 2.112 4.605v23.537c0 1.45 0 3.096-2.112 4.6l-.326.23h9.92l-.317-.23c-2.112-1.503-2.112-3.15-2.112-4.6v-24.35h15.984v24.35c0 1.45 0 3.096-2.112 4.6l-.318.23h9.908l-.313-.23c-2.118-1.503-2.118-3.15-2.118-4.6v-23.537c0-1.453 0-3.098 2.118-4.604zM284.19 286.723l-11.343-28.1-.026-.077h-8.373l.518.24c1.54.715 1.408 2.026 1.016 2.996l-9.41 23.813c-.916 2.323-1.872 4.37-4.236 5.917l-.358.232h9.722l-.326-.232c-2.11-1.482-1.773-3.27-1.082-4.98l2.935-7.31h12.485l3.54 8.77c.452 1.153.71 2.594-1.34 3.512l-.54.24h11.218l-.452-.235c-2.332-1.244-3.228-3.05-3.946-4.787zm-9.8-10.905h-9.843l4.894-12.52 4.95 12.52zM307.72 272.45c1.672-.724 4.615-2.568 4.615-6.626 0-4.494-3.746-7.516-9.317-7.516h-.266l-12.664.237-.385.006.32.225c2.11 1.466 2.11 3.28 2.11 4.6v23.536c0 1.32 0 3.134-2.11 4.6l-.333.232h11.84c12.558 0 13.906-7.267 13.906-10.388 0-4.663-3.075-8.19-7.717-8.904zm-2.644-2.325c-1.215 1.047-3.002 1.6-5.173 1.6h-.252l-2.47-.046v-9.37c1.05-.13 2.61-.266 3.6-.266 3.712 0 5.937 1.697 5.937 4.533 0 1.375-.578 2.635-1.64 3.548zm-3.12 17.883c-1.33 0-2.89-.133-4.776-.41v-12.432c2.503-.18 3.427-.18 3.785-.18 8.182 0 8.813 5.13 8.813 6.696 0 2.364-1.023 6.326-7.823 6.326zM346.303 258.77l.313-.225H321.54l.697.247c3.114 1.1 3.347 4.412 3.347 9.337 0 5.89-.518 19.59-5.333 19.59-.995 0-1.95-.444-2.828-1.322l-.26-.257.66 5.77v.082l.08.023c.822.297 1.573.43 2.35.43 8.487 0 9.63-12.55 9.63-24.835v-5.05h9.21v24.352c0 1.318 0 3.133-2.112 4.6l-.332.23h9.935l-.332-.23c-2.11-1.467-2.11-3.282-2.11-4.6v-23.537c-.002-1.43-.002-3.052 2.163-4.604zM365.7 287.722c-.644 0-2.948-.02-5.99-.315v-11.572h4.77c1.653 0 2.63.332 3.486 1.187l.212.214v-5.585l-.146.03c-.512.09-1.076.14-1.674.14h-6.647v-9.17l6.23-.135h.252c2.79 0 3.885.833 4.59 1.652l.225.255v-5.877h-18.794l.332.23c2.112 1.466 2.112 3.355 2.112 4.6v23.536c0 1.246 0 3.134-2.112 4.6l-.332.232h21.012l2.43-6.72.167-.466-.365.33c-2.278 2.012-5.1 2.836-9.756 2.836zM411.324 258.77l.325-.225h-9.93l.326.226c2.112 1.507 2.112 3.152 2.112 4.605v8.163h-17.87v-8.163c0-1.453 0-3.098 2.117-4.604l.32-.225h-9.922l.325.226c2.112 1.507 2.112 3.152 2.112 4.605v23.537c0 1.45 0 3.096-2.112 4.6l-.325.23h9.92l-.318-.23c-2.118-1.503-2.118-3.15-2.118-4.6v-11.358h17.87v11.358c0 1.45 0 3.096-2.11 4.6l-.326.23h9.93l-.326-.23c-2.12-1.503-2.12-3.15-2.12-4.6v-23.537c.002-1.453.002-3.098 2.12-4.604zM424.732 286.912v-23.537c0-1.318 0-3.133 2.11-4.6l.326-.23h-9.935l.332.23c2.112 1.467 2.112 3.282 2.112 4.6v23.537c0 1.318 0 3.133-2.112 4.6l-.332.23h9.935l-.325-.23c-2.11-1.467-2.11-3.282-2.11-4.6z"/><path d="M436.234 280.577l-5.353-7.078 11.377-14.752.152-.203h-9.856l.512.24c.783.37 1.627 1.137 1.627 2.19 0 .896-.645 1.915-1.906 3.6l-7.352 9.883-.053.073 8.44 11.463.325.465c2.146 2.965 3.998 5.528 7.392 5.528.112 0 .225-.003.345-.008l5.46-.257-.373-.213c-4.01-2.304-6.355-5.107-10.738-10.93zM465.262 257.838c-12.512 0-18.203 8.97-18.203 17.307 0 8.33 5.69 17.3 18.202 17.3 12.505 0 18.19-8.97 18.19-17.3 0-8.337-5.685-17.307-18.19-17.307zm12.524 18.058c0 8.547-6.54 12.44-12.624 12.44-7.325 0-12.438-5.736-12.438-13.946 0-8.547 6.548-12.437 12.624-12.437 7.325 0 12.438 5.734 12.438 13.943zM511.9 258.776l.332-.23h-9.928l.325.23c2.11 1.466 2.11 3.28 2.11 4.6v23.536c0 1.318 0 3.133-2.11 4.6l-.326.23h9.928l-.332-.23c-2.11-1.467-2.11-3.282-2.11-4.6v-23.537c0-1.318 0-3.133 2.11-4.6zM561.78 258.77l.326-.225h-30.96l.318.226c2.11 1.507 2.11 3.152 2.11 4.605v23.537c0 1.45 0 3.096-2.11 4.6l-.318.23h9.92l-.317-.23c-2.12-1.503-2.12-3.15-2.12-4.6v-24.35h15.985v24.35c0 1.45 0 3.096-2.112 4.6l-.318.23h9.922l-.326-.23c-2.11-1.503-2.11-3.15-2.11-4.6v-23.537c0-1.453 0-3.098 2.11-4.604zM595.51 286.723l-11.343-28.1-.033-.077h-8.367l.51.24c1.55.715 1.41 2.026 1.018 2.996l-9.41 23.813c-.956 2.404-1.873 4.37-4.23 5.917l-.358.232h9.716l-.325-.232c-2.112-1.482-1.773-3.27-1.083-4.98l2.936-7.31h12.485l3.54 8.77c.458 1.153.71 2.594-1.342 3.512l-.538.24h11.217l-.444-.235c-2.34-1.244-3.237-3.05-3.948-4.787zm-9.81-10.905h-9.848l4.9-12.52 4.95 12.52zM613.075 258.545h-12.073l.332.23c2.11 1.466 2.11 3.28 2.11 4.6v23.536c0 1.45 0 3.097-2.11 4.602l-.325.23h10.844l-.505-.24c-1.92-.91-2.856-2.66-2.856-5.35v-23.43c1.36-.294 2.643-.44 3.83-.44 4.338 0 6.928 2.254 6.928 6.037 0 7.035-7.577 7.672-9.098 7.732l-.804.03.77.217c1.01.28 2.53.615 4.045.615 5.34 0 10.76-3.277 10.76-9.538-.002-5.86-3.987-8.832-11.85-8.832zM649.772 258.545h-18.21c-1.208 0-1.872 0-2.987-.188l-.106-.017-2.08 6.496.372-.383c1.25-1.287 2.87-1.94 4.802-1.94l5.472.048v24.352c0 1.318 0 3.133-2.104 4.6l-.326.23h9.93l-.333-.23c-2.112-1.467-2.112-3.282-2.112-4.6v-24.35l5.148-.048c1.182 0 2.795 0 3.658 1.536l.14.262 1.787-5.977-.187.022c-.725.082-1.808.188-2.864.188zM687.726 258.77l.325-.225h-9.927l.325.226c2.118 1.507 2.118 3.152 2.118 4.605v8.163h-17.87v-8.163c0-1.453 0-3.098 2.11-4.604l.32-.225h-9.915l.326.226c2.105 1.507 2.105 3.152 2.105 4.605v23.537c0 1.45 0 3.096-2.104 4.6l-.325.23h9.916l-.32-.23c-2.11-1.503-2.11-3.15-2.11-4.6v-11.358h17.87v11.358c0 1.45 0 3.096-2.118 4.6l-.325.23h9.928l-.324-.23c-2.105-1.503-2.105-3.15-2.105-4.6v-23.537c0-1.453 0-3.098 2.106-4.604zM707.124 287.722c-.638 0-2.95-.02-5.99-.315v-11.572h4.774c1.654 0 2.63.332 3.486 1.187l.206.214v-5.585l-.146.03c-.505.09-1.07.14-1.674.14h-6.647v-9.17l6.23-.135h.26c2.78 0 3.877.833 4.58 1.652l.227.255v-5.877h-18.787l.332.23c2.11 1.466 2.11 3.355 2.11 4.6v23.536c0 1.246 0 3.134-2.11 4.6l-.332.232h21.012l2.424-6.72.172-.467-.378.33c-2.267 2.013-5.095 2.837-9.75 2.837zM732.3 258.545h-12.08l.34.23c2.103 1.466 2.103 3.28 2.103 4.6v23.536c0 1.45 0 3.097-2.11 4.602l-.32.23h10.838l-.503-.24c-1.913-.91-2.85-2.66-2.85-5.35v-23.43c1.355-.294 2.644-.44 3.832-.44 4.343 0 6.933 2.254 6.933 6.037 0 7.035-7.59 7.672-9.11 7.732l-.805.03.783.217c1.004.28 2.512.615 4.032.615 5.346 0 10.76-3.277 10.76-9.538 0-5.86-3.987-8.832-11.843-8.832zM779.337 286.912v-23.537c0-1.453 0-3.098 2.105-4.604l.325-.225h-7.12l-.032.025c-.717.53-1.103 1.003-1.674 1.868l-16.52 24.6v-21.663c0-1.453 0-3.104 2.104-4.604l.325-.225h-9.923l.32.226c2.117 1.507 2.117 3.152 2.117 4.605v23.537c0 1.45 0 3.096-2.118 4.6l-.32.23h7.12l.033-.025c.724-.525 1.102-1 1.68-1.866l16.522-24.6v21.662c0 1.45 0 3.1-2.11 4.6l-.327.23h9.922l-.325-.23c-2.105-1.504-2.105-3.15-2.105-4.6z"/></g><path fill="#58595B" d="M224.336 332.464l-1.647 7.55h-2.81l5.758-25.205h3.18l5.613 25.205h-2.84l-1.648-7.55h-5.606zm5.2-2.324l-1.315-6.398c-.37-1.794-.71-3.886-1.008-5.758h-.113c-.3 1.905-.672 4.077-1.044 5.758l-1.314 6.398h4.794zM250.508 314.81v22.74l1.68.027-.153 7.637h-2.278l-.146-5.2h-11.15l-.15 5.2h-2.28l-.152-7.637 1.687-.026c.937-2.29 1.614-4.528 2.06-6.812.597-3.25.75-6.578.75-10.244v-5.685h10.133zm-7.485 6.274c0 3.52-.186 6.924-.71 10.064-.372 2.212-1.01 4.337-1.793 6.362h7.146v-20.198h-4.642v3.772zM255.396 315.174c1.195-.3 2.583-.478 4.19-.478 2.284 0 4.23.478 5.572 1.753 1.09 1.015 1.647 2.503 1.647 4.302 0 2.577-1.42 4.603-3.892 5.572v.106c2.922.797 4.682 3.15 4.682 6.438 0 2.098-.677 3.778-1.8 5.014-1.414 1.607-3.778 2.284-6.654 2.284-1.832 0-2.955-.12-3.745-.266v-24.726zm2.842 10.327h1.308c2.364 0 4.376-1.792 4.376-4.45 0-2.316-1.083-4.116-4.144-4.116-.677 0-1.202.087-1.54.187v8.38zm0 12.236c.34.073.824.146 1.46.146 2.957 0 4.902-1.754 4.902-5.014 0-3.474-2.397-5.127-5.093-5.16h-1.27v10.028zM284.15 327.228c0 9.453-3.214 13.086-7.292 13.086-4.19 0-6.993-4.45-6.993-12.94 0-8.334 3.028-12.87 7.404-12.87 4.304 0 6.88 4.682 6.88 12.724zm-11.296.185c0 5.196 1.016 10.356 4.224 10.356 3.22 0 4.084-5.5 4.084-10.443 0-4.71-.863-10.28-4.117-10.28-3.174 0-4.19 5.24-4.19 10.366zM290.426 314.81v11.44h.525l5.354-11.44h3.14l-6.168 11.78c3.1.67 4.11 3.324 4.74 6.392.533 2.397.898 4.868 1.688 7.033h-2.916c-.598-1.64-1.01-4.15-1.46-6.282-.638-3.068-1.455-5.347-4.45-5.347h-.452v11.63h-2.802v-25.207h2.802zM305.46 332.464l-1.653 7.55h-2.802l5.757-25.205h3.188l5.61 25.205h-2.848l-1.647-7.55h-5.604zm5.2-2.324l-1.314-6.398c-.372-1.794-.71-3.886-1.01-5.758h-.105c-.298 1.905-.676 4.077-1.048 5.758l-1.315 6.398h4.794zM319.553 317.393h-4.602v-2.584h12.08v2.583h-4.595v22.622h-2.882v-22.622zM339.556 339.57c-.783.41-2.06.67-3.626.67-4.9 0-8.454-3.965-8.454-12.53 0-9.952 4.94-13.134 8.938-13.134 1.494 0 2.617.3 3.108.638l-.638 2.438c-.598-.26-1.202-.53-2.503-.53-2.702 0-5.876 2.622-5.876 10.325 0 7.714 2.85 10.25 5.943 10.25 1.09 0 2.025-.26 2.624-.518l.486 2.39zM345.347 314.81v10.02c.524-.08 1.155-.113 1.906-.113 4.563 0 7.518 2.883 7.518 7.48 0 2.285-.63 4.038-1.792 5.354-1.46 1.675-3.74 2.617-6.774 2.617-1.833 0-2.915-.12-3.7-.266V314.81h2.843zm0 22.926c.485.073.896.113 1.38.113 3.222 0 5.055-2.365 5.055-5.507 0-3.062-1.906-5.236-5.014-5.236-.524 0-1.01.04-1.42.12v10.51zM360.9 314.81v11.44h.518l5.353-11.44h3.142l-6.17 11.78c3.102.67 4.11 3.324 4.75 6.392.523 2.397.895 4.868 1.686 7.033h-2.922c-.598-1.64-1.01-4.15-1.46-6.282-.632-3.068-1.455-5.347-4.45-5.347h-.445v11.63h-2.808v-25.207h2.807zM381.872 328.048h-6.322v9.463h7.185v2.505h-10.06V314.81h9.608v2.503h-6.733v8.3h6.322v2.435zM405.01 327.228c0 9.453-3.21 13.086-7.286 13.086-4.19 0-6.993-4.45-6.993-12.94 0-8.334 3.03-12.87 7.406-12.87 4.296 0 6.873 4.682 6.873 12.724zm-11.29.185c0 5.196 1.008 10.356 4.23 10.356 3.213 0 4.077-5.5 4.077-10.443 0-4.71-.863-10.28-4.117-10.28-3.18 0-4.19 5.24-4.19 10.366zM419.107 314.81v2.503h-7.776v7.55c.678-.112 1.276-.145 1.913-.145 2.198 0 4.07.71 5.38 1.98 1.347 1.277 2.13 3.144 2.13 5.5 0 2.285-.637 4.11-1.832 5.46-1.42 1.646-3.698 2.51-6.693 2.51-1.84 0-2.956-.12-3.74-.266V314.81h10.62zm-7.776 22.886c.485.113.937.153 1.455.153 1.727 0 2.995-.672 3.858-1.768.71-.923 1.116-2.238 1.116-3.692 0-1.54-.486-2.81-1.303-3.752-.903-.97-2.138-1.53-3.706-1.53-.444 0-.895.04-1.42.12v10.468zM427.668 314.43c-.824 3.035-2.398 6.92-3.367 8.6l-1.72.267c.784-2.172 1.793-5.903 2.172-8.487l2.916-.38zM441.09 317.725c-.56-.332-1.535-.604-2.358-.604-4.67 0-6.097 5.393-6.17 8.793h7.63v2.507h-7.59c.106 3.626 1.42 9.277 6.057 9.277 1.16 0 2.283-.3 2.994-.598l.484 2.357c-.75.37-2.06.823-3.665.823-6.17 0-8.826-5.917-8.826-12.907 0-5.725 2.165-12.83 8.972-12.83 1.533 0 2.356.372 3.107.71l-.638 2.472zM458.508 314.81v22.74l1.687.027-.152 7.637h-2.278l-.152-5.2H446.47l-.147 5.2h-2.285l-.152-7.637 1.687-.026c.937-2.29 1.607-4.528 2.06-6.812.597-3.25.743-6.578.743-10.244v-5.685h10.132zm-7.478 6.274c0 3.52-.192 6.924-.71 10.064-.38 2.212-1.01 4.337-1.794 6.362h7.14v-20.198h-4.636v3.772zM466.244 314.81v10.804h7.073V314.81h2.875v25.205h-2.875v-11.78h-7.073v11.78h-2.875V314.81h2.874zM483.703 332.464l-1.646 7.55h-2.803l5.765-25.205h3.173l5.612 25.205h-2.843l-1.646-7.55h-5.613zm5.207-2.324l-1.315-6.398c-.378-1.794-.704-3.886-1.01-5.758h-.112c-.3 1.905-.678 4.077-1.05 5.758l-1.3 6.398h4.787zM499.82 314.81v10.804h7.066V314.81h2.883v25.205h-2.884v-11.78h-7.065v11.78h-2.882V314.81h2.883zM517.127 314.81v10.804h7.066V314.81h2.882v25.205h-2.882v-11.78h-7.066v11.78h-2.882V314.81h2.882zM529.725 340.015c.372-.79.63-1.688.857-2.577.637-2.656.75-6.21 2.43-8.194.485-.63 1.195-1.083 1.913-1.235v-.074c-2.43-.747-4.264-2.726-4.264-6.173 0-2.504.97-4.416 2.465-5.57 1.27-.978 2.995-1.495 5.014-1.495 1.38 0 2.882.112 4.077.444v24.874h-2.843v-10.958h-1.05c-1.16 0-2.13.26-2.875 1.123-1.315 1.607-1.535 5.347-2.06 7.63-.152.752-.34 1.495-.678 2.206h-2.987zm9.65-22.855c-.38-.073-.824-.14-1.495-.14-2.955 0-4.304 2.092-4.304 4.814 0 3.102 2.02 4.974 4.75 4.974.41 0 .67 0 1.048-.033v-9.615zM172.092 297.272c0-27.168-21.198-50.275-48.26-52.598-1.467-.12-7.06-.234-7.583-.234-.526 0-6.064.108-7.525.23-27.095 2.295-48.326 25.4-48.326 52.602 0 27.212 21.23 50.313 48.325 52.604 1.46.126 7 .232 7.524.232.523 0 6.115-.106 7.583-.232 27.06-2.324 48.26-25.432 48.26-52.604zm-55.843 44.476c-13.82 0-26.352-5.725-33.518-15.317-5.592-7.47-8.54-17.55-8.54-29.158 0-11.605 2.948-21.686 8.54-29.152 7.166-9.59 19.697-15.314 33.517-15.314 14.03 0 26.715 5.893 33.92 15.757 5.413 7.405 8.27 17.334 8.27 28.71 0 11.38-2.857 21.308-8.27 28.712-7.205 9.872-19.89 15.763-33.92 15.763z"/><path fill="#58595B" d="M140.8 312.61c2.862-4.92 4.297-9.833 4.297-14.75 0-4.858-1.408-9.507-4.217-13.934-3.99-6.212-11.43-13.242-22.287-21.066-5.725-4.167-9.802-8.134-12.232-11.916-1.454-2.27-2.184-5.138-2.184-8.588 0-3.953 1.36-7.298 4.09-10.056 2.73-2.75 6.064-4.13 10.002-4.13 2.762 0 4.92.733 6.48 2.19 1.575 1.46 2.358 3.293 2.358 5.51 0 1.085-.14 2.242-.405 3.482-.437 2.05-.656 3.486-.656 4.29 0 1.68.598 3.138 1.786 4.38 1.195 1.246 2.703 1.867 4.542 1.867 1.833 0 3.267-.567 4.297-1.706 1.4-1.617 2.104-3.48 2.104-5.585 0-4.65-1.933-8.784-5.797-12.403-3.858-3.618-8.76-5.433-14.71-5.433-6.474 0-11.933 2.228-16.362 6.686-4.43 4.458-6.647 9.85-6.647 16.17 0 3.4.77 6.75 2.31 10.052 1.542 3.29 4.12 6.938 7.738 10.933-6.103 3.68-10.612 7.933-13.527 12.767-2.917 4.838-4.377 9.735-4.377 14.703 0 4.918 1.38 9.562 4.13 13.944 3.673 5.776 10.586 12.444 20.747 20.005 6.807 5.134 11.51 9.73 14.1 13.786 1.672 2.638 2.51 5.64 2.51 9 0 3.287-1.475 6.335-4.418 9.145-2.942 2.815-6.23 4.217-9.842 4.217-3.028 0-5.592-.804-7.703-2.43-1.348-1.023-2.02-2.325-2.02-3.893 0-.917.213-2.252.645-4.02.432-1.746.65-3.353.65-4.813 0-2.165-.597-3.88-1.78-5.146-1.194-1.274-2.63-1.898-4.295-1.898-1.68 0-3.155.684-4.423 2.065-1.262 1.374-1.906 3.067-1.906 5.066 0 4.748 1.94 8.98 5.797 12.685 3.865 3.692 8.713 5.552 14.544 5.552 6.48 0 11.94-2.218 16.37-6.647 4.43-4.43 6.647-9.948 6.647-16.536 0-3.507-.717-6.773-2.146-9.802-1.433-3.02-4.043-6.62-7.822-10.78 6.208-3.727 10.743-8.044 13.612-12.965zm-17.326 8.19c-1.016-.572-2.025-1.15-3.02-1.76-.267-.167-.52-.333-.785-.5-1.674-1.048-6.755-4.82-7.565-5.465-1.195-.956-2.397-1.905-3.54-2.915-4.576-3.932-7.896-7.473-9.902-10.598-2-3.188-3-6.674-3-10.45 0-1.617.238-3.166.67-4.668 0 0 .006 0 .006.005 1.64-5.744 6.46-10.135 12.47-11.08.984.547 1.96 1.103 2.923 1.69 1.156.698 2.285 1.432 3.394 2.192 1.123.896 2.298 1.816 3.546 2.782 7.405 5.78 12.292 10.57 14.67 14.376 2.377 3.817 3.566 7.476 3.566 10.98 0 3.175-.924 6.137-2.684 8.912-2.464 3.49-6.296 5.952-10.752 6.497z"/></svg>