<?xml version="1.0" encoding="utf-8"?>
<!-- Generator: Adobe Illustrator 16.0.0, SVG Export Plug-In . SVG Version: 6.00 Build 0)  -->
<!DOCTYPE svg PUBLIC "-//W3C//DTD SVG 1.1//EN" "http://www.w3.org/Graphics/SVG/1.1/DTD/svg11.dtd">
<svg version="1.1" id="Layer_1" xmlns="http://www.w3.org/2000/svg" xmlns:xlink="http://www.w3.org/1999/xlink" x="0px" y="0px"
	 width="841.89px" height="595.28px" viewBox="0 0 841.89 595.28" enable-background="new 0 0 841.89 595.28" xml:space="preserve">
<g>
	<g>
		<path fill="#58595B" d="M238.874,119.687c-1.097,0.018,0.817-6.117-0.265-11.171c-0.884-4.12-3.817-2.873-3.817-2.873
			s2.21,1.909-0.814,4.508c-3.475,2.984-8.925-1.506-3.638-7.275c4.037-4.406,13.207-3.733,11.999,7.003
			C241.415,118.075,238.874,119.687,238.874,119.687z"/>
		<path fill="#58595B" d="M232.892,114.335c-3.255,2.877-6.731,2.987-6.731,2.987c2.551-10.967-5.917-10.783-5.917-10.783
			c2.036-5.292-1.82-13.636,0.244-20.032c1.954-6.059,9.445-9.99,8.549-11.265c-0.896-1.276-26.628,7.438-30.698,26.575
			c-2.545,11.958,3.093,22.392,3.093,22.392c-1.059,1.628-2.606,8.104-2.606,8.104s2.792,0.609,4.968,2.116
			c2.385,1.653,3.68,4.023,3.68,4.023l-6.491,6.603c0.163,2.606,2.362,4.113,2.362,4.113c-6.271,8.51-1.995,8.51-1.995,16
			c0,1.792-1.955,5.946-1.955,5.946c-0.814,1.303,2.402,3.258,2.402,3.258c0.529,3.258-0.162,9.446-0.162,9.446
			s-5.538,1.261-12.826,0.528c-6.441-0.648-11.888-1.125-14.21-0.896c-4.112,0.406-4.07,5.641,1.75,4.48
			c5.497-1.098,19.91,3.095,29.408-0.694c0,0,1.022-9.054,0.56-12.703c-0.366-2.891-1.914-3.745-1.914-3.745
			s2.705-5.303,0.207-12.583c-1.511-4.396,4.028-8.834,4.028-8.834l-2.077-3.419l6.677-6.801c-3.461-7.328-8.957-9.689-8.957-9.689
			c0.285-1.598,0.973-3.277,1.692-5.063c0.534-1.33-4.239-5.465-3.728-16.719c0.736-16.225,14.142-22.559,14.142-22.559
			s-2.389,6.043-0.137,14.087c1.58,5.641-2.384,8.457-2.085,11.459c0.861-0.714,1.952-1.159,3.157-1.159
			c2.75,0,4.98,2.229,4.98,4.98c0,2.75-2.23,4.978-4.98,4.978c5.146,3.495,17.793,3.63,20.398-9.528
			C238.25,107.275,235.225,112.274,232.892,114.335z"/>
		<path fill="#58595B" d="M223.012,125.271c-0.53-3.703,3.727-4.631,4.289-0.859c0.763,5.132,2.551,14.009-1.032,19.668
			c-4.523,7.144-5.619,9.364-4.907,10.92c3.439,7.517,1.161,9.112,2.505,11.067c0,0,3.833,0.485,6.026,3.622
			c2.646,3.786,1.424,9.365,2.769,12.286c2.878,6.257,47.415,48.927,54.111,55.427c0.62,0.601,11.606,2.658,11.687,3.583
			c0.081,0.921-11.321,1.913-16.288-2.241c-3.111-2.602-48.005-47.147-52.239-52.809c-3.38-4.517-1.709-10.994-3.583-13.641
			c-1.585-2.239-3.745-1.422-5.251-2.807c-1.146-1.054-2.125-2.843-2.125-7.369c0-3.542-2.187-4.19-2.191-8.307
			c-0.003-4.805,7.33-12.094,7.493-17.508C224.375,132.924,223.471,128.484,223.012,125.271z"/>
		<path fill="#58595B" d="M245.326,192.885c-0.642,0.128-0.12-1.154-0.654-1.958c-0.652-0.975-3.124-0.159-3.116-1.682
			c0.006-1.205,0.926-4.609,0.673-10.205c-0.38-8.415,3.275-12.107,9.238-15.582c5.963-3.475,4.606-7.979,4.606-7.979
			s-3.041-1.521-2.987-5.593c0.047-3.543,1.398-4.493,2.987-5.573c2.316-1.575,4.525,1.344,2.865,2.93
			c-3.734,3.565,0.972,6.119,0.972,6.119c0.521,1.247,1.636,9.403-4.616,12.703c-7.202,3.799-8.314,6.945-9.075,12.59
			c-0.647,4.81-1.506,8.177-1.438,9.125c0.05,0.684,1.139,1.081,1.465,1.898C246.573,190.494,246.143,192.725,245.326,192.885z"/>
		<path fill="#58595B" d="M260.335,136.86c0-3.15,4.208-2.985,4.208,0c0,2.983,0,5.969,0,5.969s5.047,1.033,5.537,5.483
			c0.419,3.818-1.411,6.842-1.411,6.842s-0.598,3.473,1.031,5.807c0.951,1.363,7.607,4.159,10.224,9.008
			c2.696,5,2.642,9.892,3.077,14.988c0.316,3.697,1.248,4.994,1.085,5.429c-0.163,0.433-2.605,0.704-2.876,1.087
			c-0.271,0.378-2.859,21.175,6.134,26.381c6.188,3.584,21.277,3.153,21.849,2.851c0.572-0.297-1.166,3.72-12.945,3.104
			c-11.018-0.574-17.048-3.62-19.11-14.695c-2.063-11.075-0.216-19.923,0.001-20.194c0.217-0.271,1.665-0.923,1.828-1.247
			c0.163-0.326-0.092-13.412-3.784-17.104c-4.018-4.015-9.826-5.046-10.75-11.237c-0.945-6.338,1.196-6.241,1.196-9.607
			c0-2.986-5.293-2.66-5.293-5.809C260.335,142.667,260.335,140.007,260.335,136.86z"/>
		<path fill="#58595B" d="M260.896,197.516c0,0.795,0.426,4.707,0.426,4.707s-4.08,1.193-4.523,0c0,0-0.426-3.456-0.426-4.707
			c0-1.246,1.012-2.261,2.26-2.261C259.883,195.255,260.896,196.27,260.896,197.516z"/>
		<path fill="#58595B" d="M272.059,197.516c0,0.795,0,4.053,0,4.707c0,0.653-4.437,1.121-4.95-0.073c0,0,0-3.456,0-4.706
			c0-1.247,0.892-2.188,2.335-2.188C270.887,195.255,272.059,196.27,272.059,197.516z"/>
		<path fill="#58595B" d="M368.854,177.141c5.398,0.688,7.167-1.019,6.759-5.249c-0.409-4.235-7.308-4.826-11.521-5.499
			c-5.089-0.817-5.985-2.975-5.985-2.975s3.541-1.262,3.583-5.985c0.024-2.851-1.995-7.289-6.149-7.613
			c-3.938-0.309-7.896,4.561-8.467,4.398c-0.574-0.163-1.784-3.465-0.726-2.73c0.766,0.529,2.559-0.173,2.787-2.443
			c1.97-19.705,14.413-25.541,14.026-26.464c-0.29-0.691-6.683,1.427-11.364,7.005c-5.519,6.571-6.882,16.692-6.882,16.692
			c-3.461-26.545,1.954-33.874,0.897-34.364c-1.059-0.489-6.697,4.778-11.686,10.709c-6.026,7.166-6.963,15.106-6.963,15.106
			s-3.867-0.123-5.985,5.984c-3.459,9.981,7.166,23.412,7.166,23.412s-3.706,1.753-3.624,4.847c0.123,4.599,8.259,8.556,6.843,9.572
			c-3.748,2.686-1.928,5.908-4.928,9.97c-5.417,7.329-13.263,5.105-12.908,6.188c2.402,7.331,12.337,5.783,12.337,5.783
			c-3.38,9.159,0.693,14.127,0.693,14.127c-2.196,3.728-7.956,4.282-11.682,4.282c-3.728,0-3.872,0.097-3.872,1.917
			c0,1.043,0,6.261,0,7.238c0,0.975,4.071,4.234,4.071,4.234s1.018,3.299,1.547,16.451c0.696,17.296-4.647,18.726-5.537,19.094
			c-2.85,1.182-1.915,5.09,1.587,4.233c3.503-0.854,6.556-4.273,7.94-14.045c1.535-10.832-1.14-28.014-1.14-28.014
			s-3.827-1.791-3.827-3.176c0-3.745,0.656-3.909,4.892-3.909c8.467,0,11.069-9.365,11.069-9.365s-3.081-2.665-2.363-6.768
			c1.142-6.507,7.819-16.848,4.318-13.182c-5.16,5.396-10.506,2.523-10.506,2.523c4.56-1.956,8.805-4.863,9.772-13.03
			c0.734-6.189,6.189,3.584,4.805-1.221c-1.744-6.054-7.247-8.633-8.551-12.295c-0.906-2.551,6.759-1.955,6.841-3.176
			c0.081-1.222-3.827-2.221-8.669-12.447c-7.291-15.405,3.62-15.729,3.62-15.729c-0.813-9.608,7.887-18.447,8.376-18.062
			c0.488,0.389-0.478,6.009,0.338,19.771c0.813,13.762,5.111,15.798,6.999,15.798c4.36,0,4.239-4.682,7.435-4.682
			c1.899,0,3.439,1.541,3.439,3.44c0,1.898-1.54,3.439-3.439,3.439c-0.484,0-0.942-0.101-1.361-0.281
			c0.063,1.629,0.744,6.98,6.958,9.077c5.663,1.908,11.902,1.604,11.549,3.279c-0.27,1.282-4.952,0.14-8.205,0.303
			c-3.252,0.162-7.324,2.644-6.967,3.786c2.077,6.639-2.357,17.037-3.705,23.373c-2.564,12.052,0.692,16.245,8.144,19.829
			c9.849,4.737,10.667,7.573,11.429,7.116c0.76-0.456-1.822-4.714-4.264-6.629c-2.474-1.935-8.062-5.659-10.423-8.02
			c-2.362-2.363-1.207-11.444,1.505-19.235c2.647-7.598,2.2-14.518,2.2-14.518S362.79,176.367,368.854,177.141z"/>
		<path fill="#58595B" d="M504.11,203.36c-0.871,0-10.183,0-23.08,0c0.467-0.535,0.75-1.276,0.75-2.095
			c0-1.634-1.062-2.642-2.473-2.642c-1.413,0-5.325,0-5.325,0c-0.998,0.428-0.97,3.276-0.588,4.737c-1.283,0-2.591,0-3.913,0
			c0.499-2.401,0.229-6.127-2.827-7.423c-7.068-2.999-13.193-14.154-14.578-14.154c-1.384,0-1.79,5.211-14.605,13.122
			c-1.94,1.199-3.55,3.001-3.55,4.63c0,3.258,4.479,2.851,4.479,0.486c0-1.421,1.625-2.523,4.814-3.87
			c4.536-1.916,7.804-7.691,8.945-7.691c1.137,0,3.604,6.155,12.376,10.096c1.965,0.884,2.546,3.107,2.92,4.804
			c-16.962,0-36.576,0-51.452,0c0-3.307,0-9.296,0-10.829c0-2.037,3.972-13.68,5.1-13.68c1.129,0,5.89,12.108,6.018,13.68
			c0.127,1.57,0.521,8.801,1.415,8.795c0.893-0.006,1.39-5.538,1.39-8.795s-6.92-25.183-8.318-25.183
			c-1.397,0-10.409,19.402-10.409,25.183c0,1.407,0,7.745,0,10.829c-10.526,0-17.772,0-18.377,0c-2.387,0-15.994,5.85-18.171,6.913
			c-3.867,1.883-2.148,6.01,2.11,3.796c2.803-1.454,13.997-5.756,16.061-5.756c2.063,0,109.258,0,111.287,0
			c2.036,0,16.94,6.015,17.375,4.954C521.922,212.202,507.153,203.36,504.11,203.36z"/>
		<path fill="#58595B" d="M577.457,153.2c0,3.206-2.602,5.809-5.809,5.809c-3.209,0-5.807-2.603-5.807-5.809
			c0-1.522,2.842-4.384,4.289-0.419c0.703,1.938,3.096,1.474,3.201,0c0.108-1.481-1.32-2.079-2.036-2.135
			c-0.806-0.06-1.659-0.219-1.897-0.944c-0.56-1.675,1.215-2.313,2.25-2.313C574.855,147.389,577.457,149.992,577.457,153.2z"/>
		<path fill="#58595B" d="M585.873,136.914c-4.844-2.804-9.635-4.006-13.861-4.371c0-1.456,0-4.9,0-8.076
			c3.688,2.85,12.655,6.351,14.131,3.707c1.576-2.822-2.062-4.072-2.062-4.67s6.188-7.872,5.917-8.359
			c-0.27-0.49-9.772,2.279-13.68,2.713c-1.901,0.213-3.35,0.074-4.337-0.12c-0.188-1.317-1.375-5.53-2.101-5.53
			c-0.785,0-2.355,4.944-2.355,5.812c0,0.766,0,11.391,0,14.425c-5.569,0.236-9.466,1.694-9.993,1.863
			c-0.962,0.309-2.006,1.394-1.612,2.769c0.454,1.573,1.885,1.684,1.885,1.684s-1.521,5.376,1.899,5.622c0,2.904,0,36.721,0,36.721
			s-1.489,0.525-1.489,2.576s1.489,2.092,1.489,2.092v5.866c0,0-13.191-1.195-13.733,0.542c-1.243,3.973,0.674,7.275,0.674,7.275
			c-17.4,8.686-19.566,29.468-19.566,32.409c0,3.042,4.383,2.877,4.616,0.162c1.491-17.321,9.47-26.523,21.152-31.05
			c-0.882-0.958-2.507-2.96-2.589-4.778c0,0,28.012,0.162,28.358-2.241c0.12-0.824-14.244-2.104-14.244-2.104v-5.97
			c4.235-1.466,15.529-1.032,15.529-1.032s0.106,10.26,0.759,14.155c0.652,3.894,4.992,2.549,4.579-0.696
			c-0.186-1.456-1.044-10.573-1.212-17.912c-0.301-13.085,0.004-32.799,0.054-35.127c0.054-2.59-2.321-0.542-3.367,6.681
			c-1.249,8.631-0.717,30.074-0.717,30.074c-7.985-1.52-15.625-0.921-15.625-0.921s-0.164-22.258-2.442-34.962
			c-0.136-0.761-0.348-1.407-0.59-1.907c2.12-0.267,6.451-0.74,10.257-0.74c7.761,0,14.89,0,14.855-1.454
			c-0.039-1.452-6.728-2.62-11.817-2.98c-3.401-0.238-14.295-0.844-14.295-0.844c-0.126-1.084,6.42-1.411,11.257-1.574
			S590.387,139.53,585.873,136.914z M580.496,121.604c0,0,0.047,2.273-2.332,2.063c-3.068-0.271-3.963-1.899-3.963-1.899
			C577.946,122.473,580.496,121.604,580.496,121.604z"/>
		<path fill="#58595B" d="M584.347,206.546c2.354,2.284,5.215,4.58,7.737,9.835c0,0,21.477,0,22.672,0c1.19,0,7.436-7.48,8.141-7.48
			c0.702,0,8.467,7.424,9.822,7.424c1.359,0,5.705,0,6.792,0c1.083,0,17.311,20.01,25.745,26.38c4.307,3.25,7.568,4.786,1.828-1.619
			c-6.894-7.704-23.655-27.308-24.684-28.45c-1.057-1.167-6.526-0.698-8.429-0.698c-0.765,0-10.097-9.227-11.075-9.227
			c-0.977,0-9.279,9.227-10.097,9.227s-16.937,0-17.537,0c-0.597,0-1.869-5.226-7.22-8.307
			C585.025,201.895,582.374,204.632,584.347,206.546z"/>
		<path fill="#58595B" d="M431.721,228.2c1.253-1.071,5.374-1.061,7.41-1.061c2.038,0,6.678,0,6.678,0s1.299-2.191,2.684-2.928
			c1.39-0.736,4.733-1.386,4.733-1.386s2.133-7.41,7.415-7.41c5.281,0,7.886,7.246,7.886,7.246s3.963,0.491,5.294,2.118
			c2.419,2.958,1.439,3.637,2.306,4.045c0.919,0.429,4.236-0.408,5.706-0.408c1.463,0,5.24,0.373,5.21,1.135
			c-0.028,0.764-5.484,1.171-8.985,2.392c-3.506,1.222-5.241-0.243-5.701-1.323c-0.385-0.91-1.413-3.292-4.128-3.373
			c-2.53-0.074-2.851,0.652-3.2-0.109c-0.351-0.76-1.686-7.082-4.387-7.082c-2.699,0-3.54,6.376-3.677,7.082
			c-0.136,0.707-4.02-0.043-5.236,0.571c-2.256,1.14-2.653,4.676-2.653,4.676s-6.444-0.93-8.887-0.77
			c-2.439,0.163-6.038,0.497-7.166,0.77C430.813,232.923,429.521,230.07,431.721,228.2z"/>
		<path fill="#58595B" d="M544.218,241.659c-0.095,2.961,0.614,12.913,0.94,20.153c0.998,22.199-0.164,28.699,1.821,25.24
			c0.91-1.589,2.131-10.335,2.25-15.614c0.389-17.044,0.194-29.644-0.73-31.443C547.567,238.195,544.33,238.085,544.218,241.659z"/>
		<path fill="#58595B" d="M482.443,216.253c2.963,0.008,10.695,0.98,17.926,1.55c22.149,1.75,28.687,0.804,25.16,2.672
			c-1.617,0.857-5.633,1.925-10.901,2.185c-16.543,0.814-32.224-1.196-33.989-2.185
			C478.866,219.485,478.866,216.245,482.443,216.253z"/>
		<path fill="#58595B" d="M220.395,194.277c2.917,2.133,13.313,11.88,25.723,25.91c12.411,14.033,30.438,34.595,28.939,35.652
			c-1.5,1.057-20.157-19.401-27.672-27.757c-7.516-8.355-27.131-27.547-30.021-29.979
			C214.473,195.673,217.177,191.926,220.395,194.277z"/>
		<path fill="#58595B" d="M183.372,194.277c2.917,2.133,13.69,15.509,23.462,33.08c9.104,16.371,23.529,39.549,22.029,40.605
			c-1.5,1.055-17.253-19.759-24.83-36.263c-6.558-14.279-20.802-31.164-23.692-33.595
			C177.451,195.673,180.155,191.926,183.372,194.277z"/>
		<path fill="#58595B" d="M554.602,237.888c3.542-0.71,17.754-1.791,36.481-1.466c18.73,0.328,46.067,0.922,45.837,2.742
			c-0.236,1.822-27.924,1.76-39.159,1.66c-11.237-0.106-38.638,1.398-42.386,1.886C551.631,243.196,550.694,238.673,554.602,237.888
			z"/>
		<path fill="#58595B" d="M174.24,287.482c3.541,0.711,62.715,0.781,81.445,0.456c18.729-0.326,46.07-1.858,45.835-3.677
			c-0.233-1.819-27.921-0.822-39.159-0.721c-11.236,0.103-83.602-0.388-87.349-0.878
			C171.268,282.174,170.331,286.699,174.24,287.482z"/>
		<path fill="#58595B" d="M174.24,296.63c3.541,0.709,123.948,0.779,142.677,0.456c18.73-0.326,46.071-1.857,45.835-3.68
			c-0.232-1.818-27.92-0.821-39.158-0.719c-11.238,0.104-144.835-0.388-148.582-0.878
			C171.268,291.322,170.331,295.845,174.24,296.63z"/>
		<path fill="#58595B" d="M174.24,305.899c3.541,0.709,344.323,0.78,363.054,0.456c18.728-0.322,46.069-1.856,45.836-3.676
			c-0.235-1.818-27.921-0.826-39.158-0.723c-11.24,0.104-365.211-0.387-368.958-0.875
			C171.268,300.594,170.331,305.115,174.24,305.899z"/>
		<path fill="#58595B" d="M382.71,237.888c3.542-0.71,78.837-0.782,97.57-0.456c18.729,0.327,46.069,1.86,45.834,3.678
			c-0.235,1.819-27.921,0.821-39.161,0.72c-11.235-0.103-99.725,0.391-103.469,0.879
			C379.738,243.196,378.801,238.673,382.71,237.888z"/>
		<path fill="#58595B" d="M598.668,302.917c1.567-1.563,9.04-2.854,19.625-2.854c10.588,0,36.728,5.139,47.068-0.815
			c0,0-1.19-9.853-1.301-25.65c-0.084-11.645,1.938-19.428,2.319-18.946c2.81,3.555,0.611,26.601,3.786,47.773
			c0,0-8.96,4.971-25.082,3.907c-24.271-1.595-35.748-2.195-41.501-0.434C597.633,307.721,597.458,304.123,598.668,302.917z"/>
		<path fill="#58595B" d="M535.008,235.066c2.753-0.279,7.507,0.06,7.507,2.322c0,4.02,0.126,7.869,0.041,12.554
			c-0.324,18.729-0.95,44.063-2.772,43.83c-1.819-0.236-1.759-27.924-1.66-39.162c0.037-3.689-0.006-8.262-0.321-14.021
			c-0.061-1.055-0.605-1.034-3.486-1.034C532.3,239.555,531.042,235.464,535.008,235.066z"/>
		<g>
			<path fill="#58595B" d="M418.737,276.436c0,1.34,0,4.598,0,7.479c0,2.88-5.32,1.458-5.32,1.458s0-5.95,0-8.936
				c0-1.287,1.017-2.835,2.661-2.835S418.737,275.149,418.737,276.436z"/>
			<path fill="#58595B" d="M430.698,276.421c0,0.991,0.205,8.275,0.205,8.275s-4.572,1.489-5.069,0c0,0-0.205-6.719-0.205-8.275
				c0-1.558,1.137-2.82,2.534-2.82C429.562,273.601,430.698,274.863,430.698,276.421z"/>
			<path fill="#58595B" d="M406.485,277.389c0,1.33-0.15,7.875-0.15,7.875s-4.786,2.001-5.306,0c0,0,0.148-5.784,0.148-7.875
				c0-2.092,1.189-3.789,2.653-3.789C405.298,273.601,406.485,275.297,406.485,277.389z"/>
			<path fill="#58595B" d="M407.168,255.395c0,1.341,0,4.6,0,7.479c0,2.881-5.319,1.46-5.319,1.46s0-5.953,0-8.938
				c0-1.286,1.015-2.834,2.659-2.834C406.152,252.561,407.168,254.109,407.168,255.395z"/>
			<path fill="#58595B" d="M418.403,255.381c0,0.992,0.208,8.276,0.208,8.276s-4.568,1.489-5.065,0c0,0-0.21-6.72-0.21-8.276
				c0-1.557,1.137-2.82,2.535-2.82S418.403,253.824,418.403,255.381z"/>
			<path fill="#58595B" d="M431.31,256.331c0,1.327,0,6.758,0,7.841c0,1.086-4.942,1.87-5.52-0.121c0,0,0-5.758,0-7.84
				c0-2.081,0.997-3.65,2.604-3.65C430.009,252.561,431.31,254.25,431.31,256.331z"/>
			<path fill="#58595B" d="M463.207,276.436c0,1.34,0,4.598,0,7.479c0,2.88-5.32,1.458-5.32,1.458s0-5.95,0-8.936
				c0-1.287,1.018-2.835,2.663-2.835C462.189,273.601,463.207,275.149,463.207,276.436z"/>
			<path fill="#58595B" d="M475.169,276.421c0,0.991,0.208,8.275,0.208,8.275s-4.573,1.489-5.07,0c0,0-0.207-6.719-0.207-8.275
				c0-1.558,1.139-2.82,2.534-2.82C474.03,273.601,475.169,274.863,475.169,276.421z"/>
			<path fill="#58595B" d="M450.956,277.389c0,1.33-0.148,7.875-0.148,7.875s-4.789,2.001-5.308,0c0,0,0.148-5.784,0.148-7.875
				c0-2.092,1.188-3.789,2.649-3.789C449.768,273.601,450.956,275.297,450.956,277.389z"/>
			<path fill="#58595B" d="M451.64,255.395c0,1.341,0,4.6,0,7.479c0,2.881-5.321,1.46-5.321,1.46s0-5.953,0-8.938
				c0-1.286,1.019-2.834,2.658-2.834C450.621,252.561,451.64,254.109,451.64,255.395z"/>
			<path fill="#58595B" d="M462.875,255.381c0,0.992,0.205,8.276,0.205,8.276s-4.566,1.489-5.063,0c0,0-0.207-6.72-0.207-8.276
				c0-1.557,1.132-2.82,2.53-2.82C461.744,252.561,462.875,253.824,462.875,255.381z"/>
			<path fill="#58595B" d="M475.78,256.331c0,1.327,0,6.758,0,7.841c0,1.086-4.942,1.87-5.519-0.121c0,0,0-5.758,0-7.84
				c0-2.081,0.996-3.65,2.604-3.65C474.479,252.561,475.78,254.25,475.78,256.331z"/>
			<path fill="#58595B" d="M507.508,276.436c0,1.34,0,4.598,0,7.479c0,2.88-5.321,1.458-5.321,1.458s0-5.95,0-8.936
				c0-1.287,1.019-2.835,2.663-2.835C506.489,273.601,507.508,275.149,507.508,276.436z"/>
			<path fill="#58595B" d="M519.469,276.421c0,0.991,0.206,8.275,0.206,8.275s-4.573,1.489-5.068,0c0,0-0.207-6.719-0.207-8.275
				c0-1.558,1.137-2.82,2.532-2.82C518.33,273.601,519.469,274.863,519.469,276.421z"/>
			<path fill="#58595B" d="M495.257,277.389c0,1.33-0.151,7.875-0.151,7.875s-4.787,2.001-5.306,0c0,0,0.146-5.784,0.146-7.875
				c0-2.092,1.188-3.789,2.652-3.789C494.067,273.601,495.257,275.297,495.257,277.389z"/>
			<path fill="#58595B" d="M495.939,255.395c0,1.341,0,4.6,0,7.479c0,2.881-5.32,1.46-5.32,1.46s0-5.953,0-8.938
				c0-1.286,1.016-2.834,2.657-2.834C494.921,252.561,495.939,254.109,495.939,255.395z"/>
			<path fill="#58595B" d="M507.173,255.381c0,0.992,0.205,8.276,0.205,8.276s-4.566,1.489-5.063,0c0,0-0.205-6.72-0.205-8.276
				c0-1.557,1.13-2.82,2.53-2.82C506.042,252.561,507.173,253.824,507.173,255.381z"/>
			<path fill="#58595B" d="M520.081,256.331c0,1.327,0,6.758,0,7.841c0,1.086-4.947,1.87-5.52-0.121c0,0,0-5.758,0-7.84
				c0-2.081,0.996-3.65,2.604-3.65C518.779,252.561,520.081,254.25,520.081,256.331z"/>
		</g>
		<path fill="#58595B" d="M554.719,268.56c0-2.419,0.337-11.356,0.54-13.083c0.251-2.08,0.513-5.969,5.308-5.969
			c3.868,0,4.467,4.941,4.467,8.008c0,3.067-0.499,8.932-1.225,8.932c-0.729,0-2.064-12.924-3.242-12.924
			c-1.796,0-1.286,13.777-1.286,16.007C559.28,273.067,554.719,272.063,554.719,268.56z"/>
		<path fill="#58595B" d="M568.727,268.56c0-2.419,0.335-11.356,0.543-13.083c0.246-2.08,0.512-5.969,5.303-5.969
			c3.864,0,4.469,4.941,4.469,8.008c0,3.067-0.496,8.932-1.227,8.932s-2.063-12.924-3.242-12.924
			c-1.798,0-1.288,13.777-1.288,16.007C573.284,273.067,568.727,272.063,568.727,268.56z"/>
		<path fill="#58595B" d="M582.732,268.56c0-2.419,0.335-11.356,0.543-13.083c0.248-2.08,0.51-5.969,5.303-5.969
			c3.869,0,4.467,4.941,4.467,8.008c0,3.067-0.494,8.932-1.225,8.932c-0.727,0-2.064-12.924-3.242-12.924
			c-1.517,0-1.39,9.826-1.312,14.223c0.015,0.813,4.467,1.436,4.467,1.784C591.733,273.067,582.732,272.063,582.732,268.56z"/>
	</g>
	<g>
		<path fill="#58595B" d="M335.396,516.726h12.341v2.924h-15.639v-24.411h3.297V516.726z"/>
		<path fill="#58595B" d="M354.797,501.862l4.608,14.494h0.064l5.015-14.494h3.262l-6.761,17.787h-3.192l-6.457-17.787H354.797z"/>
		<path fill="#58595B" d="M375.881,519.649h-2.995v-17.787h2.995V519.649z M376.073,496.95c0,0.946-0.767,1.716-1.713,1.716
			c-0.946,0-1.713-0.77-1.713-1.716c0-0.942,0.767-1.712,1.713-1.712C375.306,495.238,376.073,496.008,376.073,496.95z"/>
		<path fill="#58595B" d="M384.489,501.862l4.607,14.494h0.066l5.015-14.494h3.261l-6.762,17.787h-3.194l-6.458-17.787H384.489z"/>
		<path fill="#58595B" d="M418.283,505.328h12.75v-10.09h3.291v24.411h-3.291v-11.396h-12.75v11.396h-3.294v-24.411h3.294V505.328z"
			/>
		<path fill="#58595B" d="M448.951,501.358c5.684,0,8.235,4.807,8.235,9.379c0,4.579-2.552,9.423-8.235,9.423
			c-5.687,0-8.24-4.844-8.24-9.423C440.711,506.165,443.265,501.358,448.951,501.358z M448.951,517.568
			c4.27,0,5.178-4.44,5.178-6.831c0-2.379-0.908-6.796-5.178-6.796c-4.271,0-5.179,4.417-5.179,6.796
			C443.772,513.128,444.681,517.568,448.951,517.568z"/>
		<path fill="#58595B" d="M466.975,496.952v4.944h2.856v2.489h-2.856v11.534c0,1.313,1.173,1.413,1.778,1.413h1.046v2.316
			c-0.873,0.173-1.915,0.274-2.222,0.274c-2.961,0-3.599-1.681-3.599-3.838v-11.7h-2.388v-2.489h2.388v-4.944H466.975z"/>
		<path fill="#58595B" d="M490.344,514.072c-0.67,2.758-2.521,6.088-8.004,6.088c-4.973,0-7.901-3.771-7.901-8.921
			c0-5.544,2.621-9.881,8.506-9.881c5.115,0,7.636,4.106,7.636,10.397h-12.949c0,3.662,1.718,5.813,5.147,5.813
			c2.79,0,4.57-2.183,4.57-3.496H490.344z M487.52,509.358c-0.171-2.753-1.347-5.312-5.007-5.312c-2.728,0-4.882,2.559-4.882,5.312
			H487.52z"/>
		<path fill="#58595B" d="M499.654,519.649h-2.989v-24.411h2.989V519.649z"/>
	</g>
	<g>
		<path fill="#58595B" d="M658.154,360.208c-0.968-1.985-0.934-5.324,1.509-7.353h-16.662c2.36,2.478,2.323,5.306,1.363,7.343
			c-1.809,3.834-12.02,34.405-12.02,72.894v26.545h10.825v-26.545c0-0.857,0.341-5.381,0.852-13.226
			c5.456,3.933,15.469,13.226,15.469,13.226v26.545h10.68v-26.545C670.17,394.604,659.652,363.279,658.154,360.208z
			 M651.468,373.952c0,0,6.788,29.542,7.223,45.374c-4.272-4.121-8.841-7.895-13.66-11.305
			C645.802,397.631,651.468,373.952,651.468,373.952z M644.295,415.993c0.108-1.365,0.226-2.764,0.357-4.177
			c5.094,3.731,9.883,7.898,14.321,12.447c0.067,1.338,0.125,2.671,0.175,3.987C654.53,423.752,649.56,419.658,644.295,415.993z"/>
		<path fill="#58595B" d="M514.252,360.208c-0.968-1.985-0.936-5.324,1.507-7.353h-16.662c2.359,2.478,2.323,5.306,1.363,7.343
			c-1.809,3.834-12.018,34.405-12.018,72.894v26.545h10.823v-26.545c0-0.857,0.343-5.381,0.851-13.226
			c5.459,3.933,15.47,13.226,15.47,13.226v26.545h10.68v-26.545C526.266,394.604,515.75,363.279,514.252,360.208z M507.563,373.952
			c0,0,6.788,29.542,7.225,45.374c-4.272-4.121-8.841-7.895-13.66-11.305C501.897,397.631,507.563,373.952,507.563,373.952z
			 M500.394,415.993c0.105-1.365,0.223-2.764,0.354-4.177c5.096,3.731,9.885,7.898,14.321,12.447
			c0.066,1.338,0.125,2.671,0.175,3.987C510.626,423.752,505.657,419.658,500.394,415.993z"/>
		<path fill="#58595B" d="M185.983,439.679v12.58c0,5.031,3.218,7.378,3.218,7.378H171.72c0,0,3.582-2.136,3.582-7.378v-91.673
			c0-4.734-3.582-7.73-3.582-7.73s5.851,0,12.02,0c6.168,0,21.868-1.067,20.525,12.958c-0.885,9.247-2.21,21.442-4.138,33.116
			C195.716,425.63,185.983,425.238,185.983,439.679z M185.983,410.304c5.494-10.996,7.142-33.592,7.142-42.766
			c0-2.412,0.708-3.413-7.142-3.413V410.304z"/>
		<path fill="#58595B" d="M319.573,459.637c0,0,3.409-2.029,3.409-7.378v-27.507c0-39.945-14.364-57.698-17.183-58.805v86.312
			c0,4.771,3.276,7.378,3.276,7.378h-17.091c0,0,3.142-1.938,3.142-7.378v-91.673c0-4.193-2.732-7.73-2.732-7.73
			c6.677,0,11.211,0.38,14.928,1.534c8.598,2.662,11.739,8.809,15.66,16.329v-10.133c0-4.402-2.865-7.73-2.865-7.73h16.389
			c0,0-2.732,3.38-2.732,7.73c0,15.722,0,76.242,0,91.673c0,5.556,3.276,7.378,3.276,7.378H319.573z"/>
		<path fill="#58595B" d="M579.102,378.157c0,0,5.388-21.405,13.914-24.338c3.654-1.256,5.588-0.964,13.942-0.964
			c0,0-3.275,2.012-3.275,7.73v91.673c0,5.242,3.275,7.378,3.275,7.378h-16.867c0,0,2.816-2.241,2.816-7.378v-81.257
			c-7.424,16.58-8.347,48.324-8.347,48.324h-10.924c0,0-0.979-31.851-8.353-48.182v81.114c0,5.137,3.276,7.378,3.276,7.378h-17.186
			c0,0,3.145-2.448,3.145-7.378v-91.673c0-5.512-3.145-7.73-3.145-7.73c8.197,0,10.811-0.112,13.797,0.891
			C573.81,356.646,579.102,378.157,579.102,378.157z"/>
		<path fill="#58595B" d="M254.861,360.208c-0.968-1.985-0.935-5.324,1.506-7.353h-16.661c2.36,2.478,2.323,5.306,1.364,7.343
			c-1.809,3.834-12.018,34.405-12.018,72.894v26.545h10.823v-26.545c0-0.857,0.343-5.381,0.852-13.226
			c5.458,3.933,15.468,13.226,15.468,13.226v26.545h10.68v-26.545C266.874,394.604,256.358,363.279,254.861,360.208z
			 M248.173,373.952c0,0,6.788,29.542,7.223,45.374c-4.272-4.121-8.841-7.895-13.66-11.305
			C242.507,397.631,248.173,373.952,248.173,373.952z M241.002,415.993c0.107-1.365,0.224-2.764,0.355-4.177
			c5.095,3.731,9.883,7.898,14.321,12.447c0.067,1.338,0.125,2.671,0.175,3.987C251.235,423.752,246.266,419.658,241.002,415.993z"
			/>
		<g>
			<circle fill="#58595B" cx="381.497" cy="451.878" r="7.685"/>
			<path fill="#58595B" d="M381.47,352.855c-19.557,0-25.658,16.725-22.13,41.681s11.388,41.636,22.13,41.636
				c10.744,0,18.459-16.664,22.131-41.636C407.273,369.567,401.028,352.855,381.47,352.855z M392.788,394.534
				c-1.876,18.354-9.28,30.601-11.308,30.601c-2.027,0-9.504-12.258-11.307-30.601c-1.801-18.342-1.58-30.605,11.307-30.605
				C394.367,363.929,394.665,376.182,392.788,394.534z"/>
		</g>
		<path fill="#58595B" d="M460.739,452.259c0-13.107,1.359-38.39-7.129-56.595c1.646-10.649,2.817-21.462,3.622-29.851
			c1.342-14.025-14.358-12.919-20.526-12.919c-6.17,0-12.02-0.039-12.02-0.039s3.581,2.443,3.581,7.73v91.673
			c0,5.242-3.581,7.378-3.581,7.378h17.48c0,0-3.218-2.347-3.218-7.378v-12.58c0-10.191,4.848-13.005,9.252-23.162
			c1.735,11.568,1.368,29.114,1.368,35.742c0,6.771,1.59,7.378,1.59,7.378h12.981C464.141,459.637,460.739,457.647,460.739,452.259z
			 M446.092,367.538c0,9.174-1.646,31.77-7.143,42.766v-46.179C446.799,364.125,446.092,365.126,446.092,367.538z"/>
	</g>
</g>
</svg>
