<svg xmlns="http://www.w3.org/2000/svg" width="841.89" height="595.28" viewBox="0 0 841.89 595.28"><g fill="#58595B"><path fill-rule="evenodd" clip-rule="evenodd" d="M306.278 383.492l10.36-23.074h66.52l9.655 23.074h47.8l-63.34-128.095h-47.684l-66.285 128.095h42.973zm65.343-51.096h-42.148l21.663-46.623 20.486 46.623zM563.293 283.3H496.42v100.192H452.62V255.397h110.67M574.83 255.397h43.798v128.095H574.83zM630.637 383.492h43.092v-65.106l51.565 65.106h54.276l-59.22-73.113 50.98-54.983h-52.627l-44.974 48.036v-48.036h-43.093M56.917 390.557h197.558v6.946H56.917zM261.42 390.557h518.622v6.946h-518.62z"/><path fill-rule="evenodd" clip-rule="evenodd" d="M777.57 248.688H227.632l-33.673 83.474-34.615-83.474H84.23v134.805H57.86v-141.87h726.187l-6.475 7.065zM254.004 383.492v-108.55l-45.21 108.55h45.21zm-79.706 0l-46.623-108.55v108.55h46.623z"/><path d="M65.377 205.12h14.238c1.938 0 2.906 1.138 2.906 2.906 0 1.94-.967 3.413-2.864 3.413h-14.28v-6.32zm-6.993 23.716H80.88c6.613 0 9.772-2.317 9.772-8.594 0-4.59-1.854-5.855-4.76-6.824 2.36-.758 3.623-1.77 3.623-6.487 0-5.39-3.58-7.33-10.067-7.33H58.384v29.236zm6.993-12.216h14.28c3.624 0 4.002 1.053 4.002 3.285 0 2.57-.507 3.413-4.256 3.413H65.377v-6.698zm98.255-17.018h-6.993v29.235h12.004l17.566-23.42h.968v23.42h6.993v-29.235h-11.75l-17.82 23.42h-.968v-23.42zm103.267 20.6h13.015c7.204 0 10.194-2.95 10.194-10.364 0-7.372-2.907-10.236-10.28-10.236h-19.924v29.235h6.993V220.2zm0-14.787h11.667c3.665 0 4.55 1.56 4.55 4.423 0 3.16-1.012 4.55-4.55 4.55H266.9v-8.973zm94.42 12.722v-7.793c0-4.17 1.222-5.265 5.603-5.265h9.015c4.17 0 5.603.968 5.603 5.223v7.792c0 3.96-1.01 4.928-5.475 4.928h-9.268c-4.255 0-5.477-1.053-5.477-4.886zm27.213.715v-9.183c0-8.215-3.33-10.405-10.573-10.405h-12.848c-7.962 0-10.785 2.4-10.785 10.404v9.182c0 7.077 2.95 9.984 10.785 9.984h12.848c8.172 0 10.573-2.695 10.573-9.984zm65.48-19.25v29.235h19.928c6.95 0 10.406-1.77 10.406-9.14 0-7.458-3.667-9.185-10.575-9.185h-12.763v-5.392h20.43v-5.518h-27.423zm6.994 16.723h12.343c3.623 0 4.003 1.053 4.003 3.285 0 2.57-.506 3.412-4.256 3.412h-12.09v-6.697zm95.77-16.723h-6.994v29.235h6.993V216.62h18.072v12.216h6.992V199.6h-6.992v11.206h-18.072v-11.204zm97.664 0h-6.992v29.235h12.006l17.565-23.42h.97v23.42h6.99v-29.235H673.23l-17.818 23.42h-.97v-23.42zm103.522 0h-6.992v29.235h6.992v-12.51h4.254l13.522 12.51h10.28l-17.905-15.545 17.23-13.69h-10.49l-12.764 10.91h-4.13v-10.91z"/></g></svg>