<?xml version="1.0" encoding="utf-8"?>
<!-- Generator: Adobe Illustrator 16.0.0, SVG Export Plug-In . SVG Version: 6.00 Build 0)  -->
<!DOCTYPE svg PUBLIC "-//W3C//DTD SVG 1.1//EN" "http://www.w3.org/Graphics/SVG/1.1/DTD/svg11.dtd">
<svg version="1.1" id="Layer_1" xmlns="http://www.w3.org/2000/svg" xmlns:xlink="http://www.w3.org/1999/xlink" x="0px" y="0px"
	 width="841.89px" height="595.28px" viewBox="0 0 841.89 595.28" enable-background="new 0 0 841.89 595.28" xml:space="preserve">
<g>
	<polygon fill-rule="evenodd" clip-rule="evenodd" fill="#58595B" points="348.889,363.256 384.602,385.001 357.97,453.058 
		614.538,317.745 613.807,322.983 284.534,534.333 	"/>
	<path fill-rule="evenodd" clip-rule="evenodd" fill="#58595B" d="M716.008,252.797l-183.62,8.958l100.309,270.873L318.785,332.001
		V300.44l312.512,230.538L500.938,262.912l-70.935,2.559l-7.375,24.308h81.725l17.796,38.019l-155.89,0.485l21.025-61.288
		l-161.07,5.847l-37.482-23.209l204.524-0.123L457.98,60.947l69.835,188.562L716.008,252.797z M434.819,249.509h59.602
		l-36.688-75.362L434.819,249.509z"/>
	<polygon fill-rule="evenodd" clip-rule="evenodd" fill="#58595B" points="285.205,266.142 311.836,266.142 311.836,411.261 
		285.205,498.083 	"/>
	<path fill="#58595B" d="M713.753,308.056c0,10.785-3.045,19.677-9.143,26.747c-8.289,9.504-27.605,14.314-44.976,14.314h-37.11
		v125.509l-24.619-75.304V289.475l-32.547-22.848h94.276c18.469,0,38.213,5.301,46.255,15.965
		C711.13,289.658,713.753,298.126,713.753,308.056L713.753,308.056z M682.61,307.874c0-7.064-2.682-11.941-8.046-14.681
		c-3.473-1.77-7.801-2.684-12.979-2.684h-39.061v34.789h39.061c7.313,0,12.675-1.522,16.03-4.51
		C680.966,317.803,682.61,313.482,682.61,307.874L682.61,307.874z"/>
	<path fill="#58595B" d="M275.211,357.833v-47.526c-45.769,46.916-126.762,20.844-128.163-36.245
		c-1.464-57.087,84.101-81.641,128.163-33.998v-47.519l-16.699,10.965c-35.042-19.679-94.157-15.718-124.079,11.639
		c-38.455,35.153-37.784,83.892,0.304,118.981c29.923,27.602,85.747,34.119,123.775,12.736L275.211,357.833z"/>
	<path fill="#58595B" d="M633.671,193.521l-15.111-23.275l-9.324-6.763h28.826L632.696,170l7.622,11.212l5.85-9.992l-7.497-7.737
		h24.499l-8.288,8.225l-13.224,23.518c-1.096,1.949-2.316,3.715-3.597,5.3c-1.34,1.647-2.742,2.985-4.206,4.082
		c-1.465,1.096-2.864,1.768-4.265,2.012l-1.647,0.305l-1.827,0.304h-1.402c-0.669,0-1.521-0.121-2.496-0.365
		c-0.854,0-2.438-0.852-4.691-2.438c-0.367-0.242-0.675-0.852-0.916-1.764c-0.243-0.977-0.364-2.013-0.364-3.231
		c0-1.705,0.245-3.472,0.669-5.423c0.485-1.948,1.153-3.776,2.071-5.604c0.916-1.768,2.075-3.231,3.472-4.388l-0.119,0.609
		l-0.063,0.61c0,0.424,0.125,1.341,0.367,2.619c0.063,0.669,0.186,1.217,0.241,1.584c0.064,0.429,0.064,0.792,0.064,1.158
		c0.854,2.193,1.83,3.839,2.86,4.934c0.552,0.671,1.101,1.097,1.712,1.462c0.669,0.306,1.276,0.489,1.945,0.489l0.186,0.06
		l0.183,0.062c0.854,0,1.522-0.244,2.192-0.67c0.244-0.244,0.487-0.428,0.669-0.731c0.185-0.243,0.368-0.487,0.613-0.852
		c0.241-0.61,0.361-1.098,0.361-1.463V193.521z"/>
	<path fill="#58595B" d="M701.99,198.393h4.875v15.353l-8.104-7.735h-39.915l-8.048,7.735v-15.353h7.069L670.663,170l-5.787-6.518
		h27.304L687.789,170L701.99,198.393z M665.487,198.393h23.035l-12.006-24.676L665.487,198.393z"/>
	<path fill-rule="evenodd" clip-rule="evenodd" fill="#58595B" d="M608.322,193.701c0.673-2.436,0.913-4.996,0.913-7.614v-1.28
		c0-2.5-0.24-4.995-0.852-7.313c-0.61-2.069-1.403-4.018-2.561-5.604c-2.195-3.229-4.816-5.604-7.918-6.823l0,0h-0.064
		c-1.768-0.791-3.594-1.584-5.364-2.131c-1.28-0.428-2.619-0.548-3.961-0.548h-0.121l-9.019-1.342H560.06v-24.554h31.137
		l12.678,11.089v-20.287h-71.182l11.151,14.499l0.124,49.533l-11.337,15.292h57.409l2.861-0.367l3.109-0.609l3.539-0.669
		c1.095-0.244,2.188-0.792,3.164-1.522c1.16-1.035,2.197-2.315,3.109-3.718c0.55-0.912,0.975-1.889,1.4-2.924
		C607.652,195.834,608.021,194.737,608.322,193.701L608.322,193.701z M560.06,197.66v-26.378h21.387
		c2.377,0,4.512,1.156,6.157,3.472c1.948,2.618,2.559,6.335,2.559,9.992c0,4.203-1.16,7.799-3.782,10.051
		c-2.131,1.89-4.505,2.863-7.004,2.863H560.06z"/>
</g>
</svg>
