<svg xmlns="http://www.w3.org/2000/svg" width="841.89" height="595.28" viewBox="0 0 841.89 595.28"><path fill="#58595B" d="M119.795 494.89h602.3v1.394h-602.3zM260.87 564.98h320.15v1.95H260.87z"/><g fill="#58595B"><path d="M229.235 539.016c-1.61-.093-3.19-.127-4.765-.127-.578 0-1.146 0-1.707.012-.566.02-1.14.05-1.754.062-.082 0-.146-.04-.15-.15-.018-.096.017-.144.11-.185.948-.25 1.55-.592 1.81-1.016.267-.414.418-1.075.418-1.96v-8.765h-13.944v8.846c0 1.747.98 2.725 2.946 2.893.1 0 .15.063.15.16 0 .127-.052.174-.15.174h-1.4c-.43 0-.893.013-1.366.053-.335 0-.724.006-1.156.006-.447.03-.828.03-1.153.03h-1.135c-.388 0-.792-.014-1.187-.036-.127 0-.266-.013-.428-.04-.167-.013-.3-.013-.435-.013-.098 0-.145-.04-.15-.15-.018-.096.018-.144.1-.185.485-.088.873-.174 1.187-.273.312-.1.53-.23.677-.416.156-.18.248-.423.3-.694.04-.283.06-.648.06-1.088v-17.95c0-.63-.255-1.08-.782-1.393-.527-.302-1.105-.475-1.714-.492v-.343c1.274.076 2.536.11 3.78.11.51 0 1.023 0 1.534-.004.526-.03 1.035-.03 1.55-.03h.95c.087 0 .145.063.145.168 0 .116-.058.162-.144.162-.54 0-1.037.162-1.47.463-.44.324-.667.75-.667 1.308v7.34H223.2v-7.167c0-.665-.198-1.1-.58-1.284-.365-.174-.822-.347-1.378-.485-.115-.028-.23-.046-.335-.086-.11-.017-.22-.058-.336-.087-.092-.023-.138-.088-.12-.186.01-.087.063-.144.156-.144 1.45.08 2.864.127 4.213.127.618 0 1.227 0 1.85-.018.627-.006 1.234-.04 1.837-.074.104 0 .145.07.168.158.012.092-.035.16-.122.185-.66.115-1.192.27-1.59.485-.4.22-.592.66-.592 1.38v17.253c0 .966.227 1.68.69 2.147.444.492 1.19.812 2.216.974l-.04.346zM258.465 532.625c-.72 1.384-1.662 2.588-2.843 3.595-1.186 1.024-2.552 1.806-4.11 2.368-1.567.56-3.205.845-4.93.845-1.424 0-2.906-.33-4.434-.973-1.523-.648-2.93-1.48-4.197-2.535-1.267-1.03-2.313-2.21-3.16-3.53-.82-1.32-1.23-2.664-1.23-4 0-2.05.195-3.808.602-5.283.41-1.48 1.07-2.734 1.973-3.752.904-1.03 2.113-1.87 3.596-2.517 1.482-.66 3.293-1.212 5.436-1.627l.602-.036c1.934-.15 3.732.11 5.405.77 1.656.66 3.126 1.582 4.358 2.772 1.234 1.205 2.218 2.612 2.937 4.24.705 1.637 1.06 3.35 1.06 5.132-.004 1.63-.357 3.125-1.062 4.53zm-2.64-8.692c-.44-1.377-1.088-2.61-1.95-3.71-.863-1.09-1.928-1.974-3.185-2.65-1.262-.673-2.703-1.014-4.335-1.014-1.54 0-2.922.254-4.12.78-1.182.515-2.19 1.237-3.017 2.142-.81.913-1.44 1.98-1.875 3.16-.445 1.198-.66 2.46-.66 3.814 0 1.418.232 2.803.678 4.172.458 1.373 1.135 2.61 2.026 3.717.892 1.123 1.968 2.025 3.24 2.705 1.27.687 2.733 1.034 4.365 1.034 1.553 0 2.9-.278 4.094-.822 1.163-.557 2.164-1.273 2.963-2.188.805-.903 1.413-1.974 1.823-3.184.4-1.198.607-2.487.607-3.832.002-1.377-.218-2.748-.652-4.125zM282.27 517.825c-.022.74-.132 1.4-.317 2.015-.028.087-.093.135-.174.135-.06 0-.11-.048-.14-.135-.243-.972-.718-1.626-1.424-1.95-.718-.323-1.568-.492-2.523-.492h-4.006v18.07c0 .817.278 1.51.816 2.07.55.552 1.25.917 2.107 1.05.075.034.116.088.11.196-.03.092-.075.14-.163.14-.787-.052-1.57-.11-2.32-.14-.753-.058-1.534-.067-2.32-.067-.598 0-1.19.01-1.766.044-.573.03-1.17.064-1.765.13-.093.026-.163-.018-.175-.13 0-.126.035-.19.122-.22.52-.103.902-.235 1.198-.353.295-.128.503-.283.672-.492.14-.186.226-.44.26-.77s.052-.724.052-1.19v-18.292h-5.452c-.718 0-1.354.23-1.904.68-.55.442-.95.97-1.174 1.55-.04.093-.1.11-.186.093-.104-.03-.14-.094-.14-.168l-.098-.55c0-.46.063-.892.185-1.28.127-.416.243-.805.364-1.21.063-.196.12-.376.185-.562.06-.18.128-.382.186-.58.053-.13.14-.154.267-.072.464.27.92.45 1.384.52.475.075.974.115 1.523.115h14.517c.342 0 .77-.076 1.285-.215.12-.022.23-.057.323-.092.08-.024.186-.06.308-.093l.236.185c0 .643-.022 1.33-.05 2.06zM301.03 536.758c-.094.604-.18 1.227-.278 1.87 0 .09-.06.133-.18.133l-.046.03c-.237.1-.435.133-.597.133-.69 0-1.4 0-2.107-.02-.712-.014-1.413-.014-2.113-.014-.607 0-1.186-.014-1.76-.035-.585-.006-1.168-.02-1.776-.02-.81 0-1.638.014-2.483.02-.82.02-1.648.04-2.47.068v-.335c.457 0 .82-.098 1.122-.283.283-.174.498-.4.654-.69.15-.266.25-.588.29-.942.052-.358.07-.708.07-1.07V518.08c0-.562-.147-.926-.43-1.093-.284-.174-.602-.308-.927-.43-.197-.046-.39-.12-.62-.19-.23-.07-.463-.186-.7-.313-.057-.053-.08-.116-.074-.19.018-.07.074-.1.167-.1h12.937c.116-.057.25-.11.382-.15.145-.04.267-.098.395-.145.15-.07.23 0 .23.16-.104.73-.214 1.413-.335 2.044-.146.643-.29 1.272-.452 1.923-.018.074-.086.115-.19.11-.11-.02-.157-.064-.157-.157-.075-.985-.428-1.632-1.105-1.945-.653-.295-1.476-.45-2.453-.45h-3.578v8.63h5.268c.157 0 .347-.036.585-.123l.73-.248c.34-.175.67-.313 1.006-.39.146-.05.22 0 .22.17-.04.342-.067.707-.108 1.1-.053.387-.104.752-.156 1.1-.07.33-.11.677-.145 1.053-.023.365-.064.713-.134 1.036 0 .088-.04.156-.116.18-.068.028-.138.023-.196-.05-.155-.136-.248-.27-.3-.425-.053-.138-.104-.288-.157-.47-.068-.15-.12-.323-.18-.485-.068-.174-.173-.33-.323-.456-.157-.164-.43-.256-.845-.337-.417-.045-.834-.115-1.32-.168-.457-.04-.92-.05-1.383-.05h-2.396v8.67c.446.623 1.1 1.087 1.928 1.41.834.318 1.638.488 2.42.488 1.076 0 1.967-.257 2.708-.776.747-.52 1.232-1.268 1.482-2.21l.364.085c-.17.636-.282 1.266-.368 1.868zM321.3 534.842c-.02.07-.02.157-.02.255-.056.608-.126 1.217-.207 1.79-.063.584-.266 1.14-.562 1.7.018.035.042.082.042.174 0 .076-.1.163-.26.256-1.222-.12-2.432-.202-3.624-.23-1.192-.06-2.414-.068-3.652-.068-1.007 0-1.997.01-3.004.044-.984.03-1.99.053-3 .075-.137 0-.3.013-.467.02-.174.02-.324.033-.48.033-.087 0-.133-.064-.133-.172 0-.1.046-.176.132-.176.33-.027.632-.133.92-.33.263-.203.492-.434.678-.74.174-.313.313-.62.4-.956.087-.33.144-.624.144-.86V518.5c0-.673-.248-1.193-.73-1.6-.473-.387-1.086-.602-1.82-.63v-.348c.584.04 1.134.058 1.684.058h1.69c1.562 0 3.17-.058 4.798-.138.093 0 .15.06.168.155.006.094-.03.162-.104.186-.648.115-1.228.37-1.748.78-.51.396-.77.898-.77 1.5v15.663c0 1.174.41 2.09 1.215 2.716.8.63 1.794.95 2.97.95 1.15 0 2.21-.31 3.177-.905.978-.6 1.707-1.4 2.223-2.38l.365.082c-.002.066-.01.16-.026.252zM368.554 539.356c-.325.047-.7.076-1.09.1-.398 0-.792.01-1.19.01h-1.262c-.88 0-1.673-.074-2.345-.194-.67-.146-1.308-.35-1.892-.633-.615-.26-1.177-.597-1.754-1.003-.577-.402-1.18-.855-1.812-1.358-1.267.86-2.656 1.666-4.098 2.39-1.46.723-2.992 1.105-4.63 1.105-1.176 0-2.333-.18-3.473-.563-1.14-.363-2.153-.866-3.04-1.527-.902-.658-1.625-1.47-2.192-2.396-.557-.955-.834-2.004-.834-3.19 0-.92.15-1.76.458-2.528.302-.76.695-1.46 1.18-2.13.487-.65 1.037-1.262 1.68-1.854.636-.573 1.308-1.134 2.003-1.654-.607-.568-1.116-1.198-1.526-1.915-.4-.725-.603-1.524-.603-2.375 0-1.014.226-1.95.72-2.8.485-.865 1.122-1.61 1.92-2.246.8-.634 1.714-1.112 2.704-1.474 1.006-.34 2.02-.52 3.05-.52.782 0 1.58.063 2.384.156.8.116 1.574.308 2.34.603.092 0 .126.04.126.123.226.762.318 1.584.318 2.492 0 1.116-.196 2.17-.584 3.154-.053.09-.134.122-.232.1-.087-.006-.12-.07-.12-.14l.033-.683c.035-.6-.093-1.18-.36-1.706-.282-.52-.642-.96-1.11-1.35-.475-.37-1.02-.66-1.667-.873-.624-.22-1.268-.312-1.898-.312-1.273 0-2.332.358-3.148 1.123-.84.765-1.262 1.73-1.262 2.917 0 1.015.376 2.103 1.1 3.307.747 1.186 1.685 2.396 2.784 3.587 1.104 1.224 2.29 2.386 3.564 3.526 1.268 1.135 2.437 2.16 3.508 3.05.33.29.63.552.95.806.288.248.57.48.81.68.485-.75.92-1.543 1.325-2.444.393-.87.584-1.715.584-2.52 0-.85-.294-1.487-.866-1.903-.567-.43-1.28-.694-2.13-.8-.087-.04-.128-.074-.128-.137 0-.078.04-.123.127-.163.567-.17 1.216-.256 1.91-.256.666 0 1.314.07 1.968.197.65.132 1.292.323 1.894.647.047.058.087.117.087.174-.16.583-.335 1.245-.55 1.962-.212.747-.463 1.47-.746 2.206-.283.73-.59 1.417-.92 2.102-.34.67-.712 1.267-1.105 1.73 1.33 1.232 2.807 2.31 4.41 3.2 1.613.932 3.34 1.51 5.22 1.73l.094.323c-.113.066-.35.118-.68.146zm-18.464-8.83c-1.802-1.704-3.52-3.48-5.152-5.332-.816.81-1.504 1.734-2.044 2.767-.543 1.055-.815 2.13-.815 3.253 0 .97.214 1.864.602 2.703.416.834.972 1.575 1.667 2.24.7.637 1.492 1.146 2.412 1.528.91.375 1.87.572 2.895.572 1.22 0 2.355-.282 3.426-.82 1.09-.55 2.026-1.252 2.86-2.09-2.098-1.504-4.054-3.13-5.853-4.82zM410.124 539.328c-.563.13-1.118.19-1.657.19-.926 0-1.73-.162-2.447-.468-.73-.308-1.384-.705-1.957-1.177-.573-.478-1.117-1.027-1.62-1.654-.492-.597-.973-1.24-1.43-1.887-.43-.59-.87-1.172-1.332-1.748-.48-.58-.994-1.09-1.544-1.552-.562-.47-1.17-.84-1.83-1.124-.642-.272-1.377-.43-2.193-.43h-.734c-.21 0-.43.035-.68.09v5.978c0 .825.274 1.516.807 2.087.52.574 1.22.904 2.112.99v.336c-.707-.046-1.385-.107-2.063-.148-.688-.03-1.377-.053-2.077-.053-.695 0-1.372.028-2.025.074-.65.06-1.303.127-2.003.215-.093.034-.162 0-.215-.1-.045-.104-.012-.18.064-.235.644-.28 1.17-.71 1.592-1.26.423-.57.638-1.172.638-1.804v-16.82c0-.63-.25-1.227-.747-1.695-.498-.49-1.095-.815-1.8-1-.088-.02-.123-.082-.11-.187.017-.092.063-.157.15-.157h8.948c.944 0 1.87.11 2.785.326.897.22 1.702.55 2.4.983.696.458 1.246 1.047 1.68 1.777.417.734.637 1.59.637 2.6 0 1.347-.398 2.626-1.204 3.842-.798 1.22-1.713 2.246-2.708 3.124.336.318.688.765 1.1 1.278.388.51.81 1.06 1.262 1.628.672.834 1.377 1.694 2.107 2.58.75.887 1.52 1.69 2.35 2.402.814.715 1.665 1.278 2.546 1.673.874.41 1.76.563 2.668.452l.133.33c-.504.234-1.048.408-1.603.54zm-10.223-18.47c-.22-.733-.56-1.39-1.018-1.98-.45-.583-1.013-1.07-1.686-1.453-.66-.382-1.436-.578-2.303-.578-.376 0-.746.035-1.094.07-.365.045-.72.137-1.05.277v10.48c.51.1 1.02.14 1.5.17.475.033.984.058 1.505.058 1.684 0 2.865-.435 3.514-1.298.647-.856.97-2.036.97-3.564.002-.73-.108-1.445-.34-2.182zM430.453 536.758c-.094.604-.196 1.227-.28 1.87 0 .09-.055.133-.185.133l-.046.03c-.242.1-.438.133-.588.133-.697 0-1.4 0-2.11-.02-.707-.014-1.405-.014-2.126-.014-.582 0-1.186-.014-1.76-.035-.577-.006-1.17-.02-1.77-.02-.816 0-1.644.014-2.478.02-.82.02-1.66.04-2.472.068v-.335c.446 0 .81-.098 1.11-.283.284-.174.5-.4.648-.69.163-.266.256-.588.313-.942.04-.358.052-.708.052-1.07V518.08c0-.562-.133-.926-.424-1.093-.283-.174-.596-.308-.926-.43-.185-.046-.4-.12-.618-.19-.232-.07-.463-.186-.695-.313-.07-.053-.1-.116-.082-.19.03-.07.08-.1.156-.1h12.934c.14-.057.256-.11.394-.15.15-.04.275-.098.405-.145.14-.07.21 0 .21.16-.083.73-.197 1.413-.327 2.044-.14.643-.288 1.272-.438 1.923-.035.074-.105.115-.21.11-.105-.02-.148-.064-.148-.157-.07-.985-.43-1.632-1.11-1.945-.654-.295-1.47-.45-2.447-.45h-3.578v8.63h5.262c.162 0 .355-.036.59-.123.25-.086.494-.167.727-.248.334-.175.67-.313.994-.39.148-.05.23 0 .23.17-.035.342-.058.707-.1 1.1-.062.387-.108.752-.166 1.1-.068.33-.116.677-.127 1.053-.034.365-.09.713-.16 1.036 0 .088-.014.156-.104.18-.083.028-.142.023-.197-.05-.154-.136-.245-.27-.304-.425-.048-.138-.092-.288-.162-.47-.048-.15-.114-.323-.174-.485-.047-.174-.173-.33-.323-.456-.137-.164-.43-.256-.826-.337-.417-.045-.848-.115-1.336-.168-.462-.04-.92-.05-1.37-.05h-2.407v8.67c.448.623 1.105 1.087 1.93 1.41.824.318 1.636.488 2.433.488 1.058 0 1.96-.257 2.702-.776.74-.52 1.226-1.268 1.48-2.21l.36.085c-.173.636-.28 1.266-.36 1.868zM447.207 535.515c-.543.81-1.267 1.512-2.12 2.09-.864.56-1.818 1.023-2.856 1.348-1.045.32-2.042.48-2.986.48-.443 0-.926-.047-1.422-.15-.503-.1-.95-.26-1.362-.492-.414-.22-.74-.51-1.01-.85-.244-.36-.377-.8-.377-1.332 0-.33.042-.683.108-1.007.07-.335.146-.665.21-.96l.238-1.02c0-.087.048-.12.174-.12.108 0 .178.033.178.12v.633c0 .59.145 1.11.406 1.563.27.434.63.833 1.054 1.146.416.336.913.572 1.458.724.578.15 1.135.226 1.72.226.537 0 1.105-.08 1.672-.256.58-.172 1.1-.398 1.558-.728.48-.33.862-.713 1.168-1.18.31-.46.453-.98.453-1.54 0-.533-.13-1.05-.418-1.582-.266-.515-.632-1.042-1.07-1.585-.453-.52-.985-1.058-1.56-1.59-.56-.533-1.16-1.073-1.764-1.604-.632-.562-1.284-1.123-1.927-1.707-.615-.575-1.164-1.16-1.66-1.76-.486-.614-.874-1.218-1.178-1.848-.305-.597-.46-1.237-.46-1.887 0-.956.294-1.765.872-2.46.574-.694 1.272-1.244 2.132-1.678.843-.452 1.77-.765 2.76-.973 1-.208 1.922-.318 2.785-.318 1.197 0 2.303.14 3.31.415.09.055.134.117.134.163-.12 1.396-.3 2.796-.544 4.266-.035.082-.085.12-.18.12-.084 0-.155-.038-.19-.12-.242-.98-.694-1.835-1.382-2.528-.686-.695-1.582-1.06-2.705-1.06-1.153 0-2.11.342-2.893 1.036-.758.693-1.136 1.572-1.136 2.634 0 .562.12 1.082.378 1.563.26.48.596.938 1.01 1.384.395.45.876.883 1.414 1.33.55.435 1.118.867 1.69 1.33.642.476 1.26.973 1.877 1.482.622.527 1.178 1.077 1.667 1.656.472.562.873 1.174 1.166 1.822.304.647.465 1.344.465 2.117 0 .98-.273 1.865-.853 2.688zM473.028 517.825c-.022.74-.126 1.4-.312 2.015-.035.087-.1.135-.18.135-.076 0-.11-.048-.144-.135-.238-.972-.723-1.626-1.426-1.95-.71-.323-1.55-.492-2.522-.492h-3.988v18.07c0 .817.278 1.51.805 2.07.55.552 1.256.917 2.092 1.05.103.034.125.088.12.196-.007.092-.08.14-.16.14-.79-.052-1.574-.11-2.31-.14-.765-.058-1.528-.067-2.323-.067-.608 0-1.198.01-1.774.044-.568.03-1.16.064-1.762.13-.104.026-.15-.018-.162-.13-.023-.126.012-.19.114-.22.505-.103.908-.235 1.205-.353.278-.128.504-.283.66-.492.145-.186.238-.44.267-.77.018-.33.048-.724.048-1.19v-18.292h-5.46c-.717 0-1.354.23-1.91.68-.526.442-.932.97-1.16 1.55-.03.093-.09.11-.192.093-.1-.03-.136-.094-.136-.168l-.084-.55c0-.46.056-.892.178-1.28.122-.416.234-.805.366-1.21.054-.196.11-.376.18-.562.054-.18.12-.382.173-.58.063-.13.16-.154.276-.072.464.27.905.45 1.377.52.47.075.98.115 1.53.115h14.528c.343 0 .758-.076 1.273-.215.115-.022.22-.057.324-.092l.306-.093.244.185c0 .643-.023 1.33-.06 2.06zM498.485 538.836c-.37-.022-.795-.046-1.193-.075-.258-.033-.502-.056-.762-.067-.25-.017-.518-.023-.794-.023-.7 0-1.4.035-2.09.092-.706.053-1.394.11-2.08.162-.102 0-.167-.034-.19-.133-.02-.072 0-.155.09-.2l1.77-.8c-.516-1.32-1.054-2.628-1.615-3.906-.555-1.27-1.087-2.588-1.6-3.932h-7.032c-.17.36-.39.91-.657 1.632-.3.707-.57 1.452-.848 2.224-.286.764-.51 1.505-.724 2.188-.227.69-.327 1.188-.327 1.488 0 .428.204.705.588.822.4.144.78.226 1.14.283v.334c-.574-.05-1.164-.11-1.77-.14-.608-.057-1.205-.066-1.82-.066-.6 0-1.202.01-1.822.067-.59.03-1.202.088-1.81.14-.09.033-.14-.008-.15-.134-.03-.097.028-.167.108-.2 1.655-.187 2.83-1.01 3.5-2.433v.028c.883-2.048 1.715-4.098 2.544-6.146.82-2.043 1.613-4.12 2.413-6.2.55-1.395 1.06-2.795 1.586-4.185.51-1.382 1.048-2.777 1.632-4.185.022-.08.087-.126.185-.126.082 0 .15.045.18.126.146.39.297.777.482 1.158.15.383.324.764.473 1.157 1.235 3.144 2.525 6.303 3.866 9.475 1.35 3.178 2.896 6.273 4.608 9.308.382.644.828 1.1 1.406 1.396.563.276 1.197.445 1.91.497v.33c-.41.06-.823.082-1.193.046zm-11.958-19.03c-.54 1.488-1.013 2.958-1.482 4.357-.462 1.413-1 2.883-1.568 4.405h5.856l-2.806-8.763zM522.343 517.212c-.408.463-.63.995-.63 1.58v11.28c0 1.298-.226 2.526-.683 3.67-.458 1.15-1.083 2.165-1.903 3.016-.818.855-1.812 1.522-2.97 2.026-1.17.487-2.48.735-3.942.735-1.053 0-2.102-.164-3.096-.5-1.026-.316-1.976-.764-2.85-1.366-.873-.59-1.667-1.272-2.344-2.054-.673-.78-1.18-1.644-1.517-2.58-.1-.187-.157-.493-.198-.904-.065-.405-.082-.862-.094-1.4-.017-.51-.027-1.07-.056-1.673-.006-.638-.006-1.25-.006-1.875 0-.73 0-1.43.006-2.143.028-.706.028-1.354.028-1.938v-4.255c0-.812-.23-1.39-.707-1.73-.47-.33-1.11-.59-1.92-.78-.09-.036-.135-.11-.117-.204.005-.1.075-.14.157-.14 1.73.076 3.438.11 5.128.11h1.412c.46 0 .92-.004 1.408-.034.098 0 .15.035.19.127.034.09 0 .158-.093.204-.492.238-.983.562-1.47.996-.51.434-.766.915-.766 1.41l-.09 12.885c0 .95.18 1.825.532 2.598.335.766.832 1.426 1.475 1.976.632.556 1.384.978 2.236 1.29.883.294 1.793.45 2.8.45 1.023 0 1.986-.156 2.864-.45.87-.312 1.633-.747 2.26-1.32.636-.556 1.133-1.23 1.474-2.014.36-.782.52-1.68.52-2.663l-.084-12.71c0-.812-.22-1.407-.676-1.79-.458-.376-1.105-.635-1.957-.773-.087-.035-.127-.088-.093-.185.006-.106.045-.164.134-.164.855.088 1.69.135 2.504.135.256 0 .5 0 .747-.023.256-.012.507-.023.753-.023.51 0 1.05 0 1.594-.013.55-.018 1.094-.012 1.624.012l.048.33c-.66.132-1.208.415-1.63.872zM551.52 539.328c-.556.13-1.103.19-1.66.19-.902 0-1.707-.162-2.447-.468-.725-.308-1.372-.705-1.95-1.177-.574-.478-1.112-1.027-1.614-1.654-.49-.597-.975-1.24-1.432-1.887-.423-.59-.863-1.172-1.33-1.748-.477-.58-1.003-1.09-1.552-1.552-.567-.47-1.16-.84-1.812-1.124-.656-.272-1.384-.43-2.207-.43h-.73c-.213 0-.438.035-.67.09v5.978c0 .825.262 1.516.793 2.087.525.574 1.22.904 2.1.99v.336c-.706-.046-1.382-.107-2.064-.148-.673-.03-1.36-.053-2.065-.053-.696 0-1.366.028-2.02.074-.657.06-1.332.127-2.017.215-.098.034-.146 0-.212-.1-.04-.104-.016-.18.074-.235.633-.28 1.16-.71 1.587-1.26.423-.57.636-1.172.636-1.804v-16.82c0-.63-.253-1.227-.74-1.695-.496-.49-1.11-.815-1.805-1-.092-.02-.13-.082-.11-.187.02-.092.076-.157.152-.157h8.947c.943 0 1.863.11 2.77.326.923.22 1.713.55 2.422.983.676.458 1.244 1.047 1.672 1.777.41.734.63 1.59.63 2.6 0 1.347-.388 2.626-1.197 3.842-.8 1.22-1.7 2.246-2.715 3.124.346.318.712.765 1.117 1.278.37.51.804 1.06 1.26 1.628.668.834 1.373 1.694 2.114 2.58.733.887 1.518 1.69 2.332 2.402.822.715 1.66 1.278 2.548 1.673.867.41 1.77.563 2.673.452l.133.33c-.51.234-1.036.408-1.61.54zm-10.222-18.47c-.212-.733-.55-1.39-1.01-1.98-.46-.583-1.02-1.07-1.674-1.453-.67-.382-1.458-.578-2.328-.578-.364 0-.724.035-1.088.07-.376.045-.723.137-1.053.277v10.48c.51.1 1.013.14 1.512.17.474.033.97.058 1.488.058 1.706 0 2.862-.435 3.518-1.298.646-.856.978-2.036.978-3.564 0-.73-.104-1.445-.342-2.182zM581.128 538.836c-.376-.022-.787-.046-1.205-.075-.226-.033-.485-.056-.747-.067-.255-.017-.525-.023-.798-.023-.69 0-1.39.035-2.095.092-.696.053-1.385.11-2.084.162-.1 0-.145-.034-.175-.133-.04-.072 0-.155.075-.2l1.776-.8c-.502-1.32-1.046-2.628-1.608-3.906-.556-1.27-1.09-2.588-1.61-3.932h-7.03c-.17.36-.372.91-.673 1.632-.272.707-.56 1.452-.822 2.224-.276.764-.526 1.505-.74 2.188-.22.69-.313 1.188-.313 1.488 0 .428.19.705.596.822.39.144.765.226 1.125.283v.334c-.578-.05-1.165-.11-1.767-.14-.596-.057-1.208-.066-1.812-.066-.613 0-1.214.01-1.815.067-.614.03-1.223.088-1.824.14-.086.033-.145-.008-.16-.134-.007-.097.02-.167.127-.2 1.667-.187 2.823-1.01 3.49-2.433v.028c.867-2.048 1.72-4.098 2.54-6.146.817-2.043 1.615-4.12 2.414-6.2.54-1.395 1.077-2.795 1.582-4.185.52-1.382 1.07-2.777 1.644-4.185.023-.08.097-.126.18-.126.08 0 .143.045.174.126.143.39.304.777.474 1.158.18.383.337.764.48 1.157 1.25 3.144 2.528 6.303 3.88 9.475 1.354 3.178 2.886 6.273 4.623 9.308.346.644.816 1.1 1.377 1.396.56.276 1.2.445 1.922.497v.33c-.412.06-.81.082-1.198.046zm-11.958-19.03c-.527 1.488-1.015 2.958-1.482 4.357-.474 1.413-1.002 2.883-1.563 4.405h5.853l-2.808-8.763zM613.147 516.297c-.02-.027-.06-.01-.12.024-.43.094-.865.238-1.333.41-.47.17-.706.465-.706.875l.033 10.17v1.707c0 1.628-.026 3.247-.08 4.832-.057 1.593-.173 3.168-.312 4.783 0 .05-.046.098-.115.156-.086.028-.156.022-.207-.042-1.454-1.134-2.9-2.395-4.36-3.727-1.463-1.313-2.882-2.69-4.294-4.08-1.406-1.384-2.79-2.796-4.155-4.2-1.36-1.432-2.662-2.81-3.902-4.163-.416-.418-.81-.82-1.146-1.2-.33-.373-.695-.767-1.13-1.196-.093.765-.14 1.493-.14 2.182 0 1.083.023 2.148.047 3.213.035 1.058.076 2.128.146 3.195.058 1.07.1 2.135.14 3.204.022 1.06.045 2.147.045 3.23 0 .485.028.873.134 1.17.08.3.21.52.342.698.132.156.3.283.497.36.192.063.4.108.608.138.25.053.497.116.73.196.237.06.53.222.867.436.06.058.075.12.064.186-.02.073-.065.108-.15.108-.32-.01-.604-.047-.893-.074-.29-.04-.58-.064-.886-.1-.422-.046-.855-.085-1.3-.12-.43-.035-.857-.04-1.304-.04-.527 0-1.105.04-1.667.098-.58.074-1.147.162-1.73.236-.09.034-.152 0-.21-.074-.04-.1-.022-.162.03-.22.236-.196.462-.354.646-.458.215-.12.383-.22.58-.3.37-.175.688-.4.984-.69.28-.295.41-.764.41-1.406V516.09l.382-.673c.036-.063.076-.09.13-.126.056-.017.12-.005.136.054 3.293 3.16 6.49 6.286 9.573 9.375 3.1 3.062 6.235 6.245 9.402 9.533v-.128c0-1.29 0-2.582-.012-3.844-.013-1.237-.036-2.55-.07-3.86-.034-1.198-.068-2.487-.103-3.858-.018-1.367-.03-2.64-.03-3.85 0-.487-.063-.863-.167-1.15-.11-.304-.25-.54-.424-.68-.186-.155-.382-.26-.597-.323-.21-.048-.416-.088-.63-.128-.257-.023-.465-.064-.668-.093-.186-.043-.354-.158-.51-.285-.068-.053-.074-.134-.028-.214.048-.075.1-.098.15-.075.713.076 1.355.11 1.958.11h1.91c.388 0 .798 0 1.19-.012.43-.005.836-.005 1.257.013.16 0 .33.023.51.027.186.018.342.018.49.018l.094.35c-.06.027-.102.027-.107.027zM638.232 517.825c-.03.74-.135 1.4-.313 2.015-.034.087-.105.135-.187.135-.068 0-.1-.048-.145-.135-.248-.972-.718-1.626-1.424-1.95-.705-.323-1.545-.492-2.518-.492h-3.988v18.07c0 .817.256 1.51.806 2.07.55.552 1.23.917 2.09 1.05.085.034.133.088.12.196-.017.092-.08.14-.167.14-.787-.052-1.57-.11-2.31-.14-.754-.058-1.54-.067-2.31-.067-.618 0-1.21.01-1.784.044-.577.03-1.174.064-1.77.13-.082.026-.145-.018-.155-.13-.018-.126.016-.19.11-.22.513-.103.92-.235 1.203-.353.284-.128.505-.283.66-.492.144-.186.248-.44.26-.77.035-.33.058-.724.058-1.19v-18.292h-5.45c-.72 0-1.36.23-1.905.68-.538.442-.937.97-1.176 1.55-.04.093-.09.11-.186.093-.084-.03-.13-.094-.13-.168l-.1-.55c0-.46.058-.892.19-1.28.117-.416.23-.805.354-1.21.057-.196.12-.376.19-.562.052-.18.103-.382.174-.58.058-.13.162-.154.276-.072.448.27.92.45 1.39.52.463.075.974.115 1.516.115h14.534c.32 0 .753-.076 1.268-.215.13-.022.22-.057.318-.092.08-.024.186-.06.314-.093l.226.185c.003.643 0 1.33-.038 2.06z"/></g><g fill="#58595B"><path d="M210.753 409.717c-2.754 0-5.255 1.68-7.494 5.024-.736 1.147-2.104 3.92-4.13 8.353l-24.076 52.72-3.948-.007-13.648-30.39-13.63 30.396h-4.047l-24.823-54.76c-3.26-7.162-7.548-10.936-12.878-11.335v-2.043c8.692.342 14.445.484 17.247.424 1.354 0 5.365-.142 12.04-.424v2.043c-2.525.174-4.26.456-5.217.854-1.233.57-1.852 1.455-1.852 2.648 0 .967.353 2.245 1.07 3.83l19.646 45.38 10.43-24.27v-5.32c0-2.736-.95-4.595-2.86-5.568-1.296-.622-3.542-.942-6.736-.942v-2.47l14.816.85c-.393 0 4.55-.283 14.818-.85v2.47c-3.762 0-6.31.708-7.617 2.13-1.325 1.418-1.985 4.093-1.985 8.012v1.614l10.366 24.368 16.49-37.745c2.136-4.885 3.2-8.09 3.2-9.626 0-3.234-2.812-5.017-8.42-5.363v-2.043c2.134.282 6.934.424 14.394.424 2.976 0 5.92-.142 8.844-.424v2.043zM276.494 475.812c-5.95-.573-10.662-.852-14.146-.852-2.976 0-7.71.278-14.227.852v-2.474c4.943-.284 7.408-1.643 7.408-4.09 0-1.13-.445-2.635-1.343-4.51l-5.21-15.16h-25.548l-4.526 11.837c-1 2.668-1.503 4.793-1.503 6.386 0 3.692 3.333 5.538 10.02 5.538v2.474c-7.577-.573-12.294-.852-14.14-.852-2.195 0-6.264.278-12.214.852v-2.474c3.368 0 6.008-1.024 7.912-3.067 1.407-1.525 2.842-4.2 4.3-8.003l17.846-47.607c-.896-2.61-3.878-4.12-8.924-4.514v-2.472c4.04.573 9.566.85 16.582.85 8.138 0 13.556-.276 16.247-.85v2.472c-5.33 0-8.444 1.788-9.35 5.366l19.872 50.42c1.065 2.667 2.472 4.542 4.207 5.62 1.518.965 3.763 1.56 6.738 1.786v2.474zm-29.542-30.406L235.098 415.8l-10.465 29.606h22.32zM357.643 475.812c-5.938-.573-8.485-.852-7.65-.852-.222 0-1.234.08-3.028.254-2.402.22-4.648.43-6.72.598-5.55-4.77-13.927-15.443-25.132-32.02-1.228 0-2.952-.08-5.17-.215-2.21-.146-3.85-.214-4.912-.214v18.482c0 4.313.497 7.205 1.517 8.687 1.284 1.87 4.04 2.807 8.247 2.807v2.473c-1.52 0-3.837-.146-6.963-.423-3.124-.285-5.416-.43-6.88-.43-1.8 0-4.533.145-8.19.43-3.658.277-6.355.423-8.104.423v-2.474c3.37 0 5.695-.39 6.992-1.192 1.846-1.077 2.778-3.265 2.778-6.552v-48.47c0-2.945-.984-4.88-2.952-5.788-1.007-.51-3.28-.908-6.818-1.19v-2.473c2.808.688 8.364.822 16.67.424 5.95-.275 8.64-.425 8.08-.425 21.097 0 31.648 5.74 31.648 17.207 0 7.896-5.128 13.51-15.402 16.866 3.763 5.22 8.364 11.38 13.805 18.477 7.467 8.75 13.526 13.114 18.187 13.114v2.472zm-27.53-50.078c0-9.828-6.598-14.738-19.8-14.738-2.182 0-3.94.115-5.283.34v28.367c2.176.562 4.05.847 5.625.847 5.308 0 9.724-1.134 13.254-3.41 4.133-2.662 6.204-6.47 6.204-11.406zM411.593 456.902c0 6.477-2.888 11.614-8.665 15.41-4.938 3.243-10.77 4.858-17.508 4.858-6.286 0-11.9-1.244-16.838-3.75l-2.442-14.47H369c2.927 9.647 8.646 14.47 17.178 14.47 4.207 0 7.71-1.05 10.522-3.15 3.08-2.326 4.63-5.566 4.63-9.7 0-3.357-2.083-6.648-6.227-9.887-2.027-1.532-5.534-3.6-10.53-6.214-4.987-2.612-8.642-5.055-10.944-7.33-3.364-3.404-5.048-7.32-5.048-11.75 0-6.354 2.466-11.24 7.408-14.65 4.324-2.952 9.77-4.428 16.334-4.428 3.312 0 7.826.424 13.55 1.28l1.598 12.427h-2.44c-1.234-7.208-5.865-10.807-13.888-10.807-3.537 0-6.62.987-9.26 2.976-2.86 2.216-4.296 5.08-4.296 8.6 0 4.144 1.934 7.722 5.806 10.736 1.8 1.418 5.613 3.513 11.454 6.303 5.222 2.5 9.006 4.85 11.362 7.06 3.59 3.357 5.383 7.36 5.383 12.012zM492.743 407.592L437.94 472.06h26.6c6.737 0 11.673-.712 14.815-2.124 4.208-1.875 7.438-5.568 9.685-11.073l2.448.856-4.893 16.092h-65.383l55.532-64.56H445.27c-5.222 0-9.04.623-11.448 1.875-3.094 1.59-5.396 4.68-6.903 9.277h-2.438l3.192-16.092h2.857c.396.685 1.577 1.104 3.544 1.28H492.743zM575.907 475.812c-5.945-.573-10.658-.852-14.14-.852-2.977 0-7.716.278-14.228.852v-2.474c4.935-.284 7.407-1.643 7.407-4.09 0-1.13-.452-2.635-1.343-4.51l-5.21-15.16h-25.542l-4.527 11.837c-1 2.668-1.51 4.793-1.51 6.386 0 3.692 3.34 5.538 10.013 5.538v2.474c-7.57-.573-12.282-.852-14.134-.852-2.194 0-6.257.278-12.208.852v-2.474c3.362 0 6.003-1.024 7.913-3.067 1.4-1.525 2.83-4.2 4.294-8.003l17.844-47.607c-.897-2.61-3.872-4.12-8.924-4.514v-2.472c4.04.573 9.567.85 16.588.85 8.13 0 13.545-.276 16.246-.85v2.472c-5.342 0-8.455 1.788-9.346 5.366l19.863 50.42c1.06 2.667 2.466 4.542 4.208 5.62 1.518.965 3.763 1.56 6.732 1.786v2.474zm-29.544-30.406l-11.84-29.606-10.468 29.606h22.308zM674.066 409.717c-2.756 0-5.25 1.68-7.496 5.024-.73 1.147-2.102 3.92-4.127 8.353l-24.072 52.72-3.953-.007-13.642-30.39-13.637 30.396h-4.035l-24.836-54.76c-3.252-7.162-7.547-10.936-12.885-11.335v-2.043c8.7.342 14.455.484 17.267.424 1.335 0 5.353-.142 12.033-.424v2.043c-2.524.174-4.26.456-5.215.854-1.24.57-1.864 1.455-1.864 2.648 0 .967.358 2.245 1.076 3.83l19.65 45.38 10.425-24.27v-5.32c0-2.736-.955-4.595-2.855-5.568-1.296-.622-3.537-.942-6.735-.942v-2.47l14.818.85c-.396 0 4.542-.283 14.805-.85v2.47c-3.757 0-6.29.708-7.617 2.13-1.32 1.418-1.972 4.093-1.972 8.012v1.614l10.354 24.368 16.5-37.745c2.13-4.885 3.195-8.09 3.195-9.626 0-3.234-2.807-5.017-8.422-5.363v-2.043c2.142.282 6.93.424 14.4.424 2.977 0 5.922-.142 8.84-.424v2.043zM739.812 475.812c-5.95-.573-10.66-.852-14.146-.852-2.975 0-7.716.278-14.228.852v-2.474c4.933-.284 7.403-1.643 7.403-4.09 0-1.13-.438-2.635-1.342-4.51l-5.208-15.16h-25.544l-4.52 11.837c-1.014 2.668-1.512 4.793-1.512 6.386 0 3.692 3.335 5.538 10.02 5.538v2.474c-7.58-.573-12.294-.852-14.147-.852-2.188 0-6.263.278-12.207.852v-2.474c3.37 0 6.008-1.024 7.918-3.067 1.396-1.525 2.83-4.2 4.29-8.003l17.845-47.607c-.897-2.61-3.866-4.12-8.92-4.514v-2.472c4.04.573 9.567.85 16.576.85 8.14 0 13.555-.276 16.246-.85v2.472c-5.324 0-8.444 1.788-9.336 5.366l19.858 50.42c1.072 2.667 2.467 4.542 4.216 5.62 1.51.965 3.755 1.56 6.735 1.786v2.474zm-29.547-30.406l-11.85-29.606-10.464 29.606h22.315z"/></g><path fill="#58595B" d="M570.44 238.334l.072.426 9.416-6.63c6.326.576 30.134.656 37.813-29.03l.07-.063c-.01-.006-.022 0-.06 0 0-.012.014-.018 0-.024l-.02.03c-28.356-1.22-36.35 18.232-38.422 26.058l-6.903 4.238c1.613-4.4 3.042-8.867 4.23-13.405 1.242-4.717 2.228-9.492 2.998-14.3l8-8.334c6.202-.687 27.498-5.1 29.215-33.28l.06-.068c-.012 0-.023.012-.047.012 0-.012.013-.024 0-.024l-.022.036c-26.427 3.967-30.085 23.505-30.536 30.885l-5.943 5.45c1.235-9.984 1.486-20.076.813-30.104l.23.484 6.524-8.098c5.243-1.054 23.11-6.407 22.485-30.62l.037-.062c-.013 0-.013.01-.038.017v-.02l-.022.028c-22.29 5.36-23.95 22.333-23.79 28.665l-5.653 6.174c-.23-2.613-.52-5.218-.874-7.81-.625-4.652-1.466-9.282-2.483-13.875l4.347-9.914c4.7-2.327 19.673-11.65 13.255-33.747l.012-.068c-.012 0-.012.01-.035.024v-.015l-.025.027c-19.373 10.417-16.704 26.583-15.014 32.363l-3.62 6.877c-2.292-9.074-5.38-17.95-9.367-26.4l.476.362 1.817-8.897c3.697-3.04 13.972-13.573 4.62-30.613v-.063c0 .005-.014.017-.024.03v.016c-14.594 12.596-8.856 25.907-6.426 30.183l-1.742 6.43c-1.744-3.502-3.596-6.945-5.655-10.276-1.39-2.284-2.858-4.518-4.376-6.71l-1.123-9.563c2.138-3.302 8-14.817-4.362-26.35l-.022-.05s0 .018-.012.032c-.01-.01 0-.015-.01-.015l.01.026c-8.41 14.032-.44 23.3 2.767 26.25l.342 6.367c-5.12-6.955-10.836-13.46-17.068-19.427l-1.905-6.992c1.277-2.813 4.484-12.438-6.466-19.95l-.024-.036v.033c-4.894 11.865 2.373 18.128 5.205 20.05l1.008 4.893c-4.88-4.5-10.008-8.718-15.38-12.593l.302.01-2.462-5.636c.68-2.31 2.206-10.368-7.46-15.106l-.02-.03v.024c-2.508 10.033 4.003 14.15 6.47 15.337l1.567 4.324c-7.83-5.5-16.037-10.475-24.6-14.743-1.648-3.485-9.676-17.515-29.56-11.895l-.058-.03c0 .012 0 .024.01.042h-.01l.01.006c10.21 18.646 26.615 13.668 29.58 12.58 7.876 4.063 15.407 8.758 22.63 13.866l-5.567-.74c-1.985-2.12-9.175-8.472-19.737-1.674l-.046-.006c0 .006.012.012.023.012l-.012.005.012.006c8.51 8.562 16.604 4.6 19.325 2.82l9.498 2.006c10.44 7.785 19.99 16.797 28.2 26.88l-6.216-2.73c-1.8-3.555-8.884-14.705-25.456-9.77l-.06-.023c.012.01.012.022.024.028l-.013.007.013.006c7.97 14.574 20.175 12.447 24.472 11.136l10.68 5.69c3.02 4.018 5.833 8.194 8.396 12.52 2.67 4.434 5.04 9.022 7.15 13.728l-6.675-5.068c-.996-4.167-5.597-17.575-24.112-16.568l-.06-.04c.013.01.013.028.013.034l-.012.006.024.01c4.757 17.568 18.493 18.063 23.03 17.724l9.163 7.18c3.81 9.148 6.623 18.7 8.524 28.44l-4.235-4.815c-.18-5.546-2.563-23.742-26.306-27.252l-.07-.06c.01.016.01.033.01.045 0-.005-.01 0-.01 0l.023.023c1.464 23.108 18.202 27.548 24.34 28.4l7.286 9.468c.3 1.907.595 3.817.83 5.734 1.36 10.863 1.582 21.86.674 32.753l-4.59-8.623c1.11-5.825 3.004-26.078-21.745-35.457l-.06-.076v.052c0-.005-.012 0-.012 0l.012.024c-3.843 25.112 13.068 33.77 19.412 36.105l6.438 13.6c-.874 7.243-2.258 14.42-4.202 21.447-.927 3.374-2.016 6.7-3.185 9.996l-3.727-9.476c1.776-5.137 6.956-25.525-16.844-38.305l-.058-.082v.052c0-.006-.01 0-.01 0l.01.023c-6.946 23.943 8.022 34.792 14.244 38.16l4.578 14.296.094.005c-4.006 10.163-9.187 19.837-15.334 28.85l-1.638-10.935c3.12-5.2 11.727-23.393-8.067-40.713l-.022-.093c-.012.017-.012.035-.023.045 0 0-.012 0-.012-.005v.028c-12.242 21.978.238 35.957 5.46 40.5l.88 16.003c-1.2 1.62-2.41 3.228-3.676 4.794-4.17 5.17-8.788 9.943-13.58 14.528l-2.472-10.697c2.963-5.955 10.807-26.58-12.334-43.82l-.034-.098c0 .023-.012.045-.012.057-.012-.006-.023 0-.023 0l.013.024c-11.61 25.316 3.618 39.535 9.602 43.913l2.21 13.442c-8.895 8.08-18.59 15.292-28.99 21.306-.798.457-1.645.833-2.447 1.28l.688-10.948c4.74-5.075 18.742-23.383.718-47.52v-.103c-.024.017-.024.035-.035.046 0-.012-.023-.012-.023-.012v.036c-19.152 21.87-8.15 40.64-3.468 46.815l-1.753 13.712c-12.017 6.32-24.63 11.46-37.77 15.057l3.88-11.005c6.223-3.758 25.56-18.214 14.29-47.69l.022-.103c-.012.01-.023.022-.047.04 0-.01-.01-.018-.01-.018l-.01.034c-25.56 16.57-19.834 38.625-16.87 46.183l-5.82 13.67c-2.468.6-4.91 1.31-7.41 1.804-7.93 1.943-15.915 4.153-23.606 7.42-7.69-3.267-15.67-5.477-23.61-7.42-2.497-.494-4.93-1.205-7.4-1.805l-5.82-13.67c2.962-7.563 8.678-29.613-16.864-46.182l-.023-.034s-.012.006-.012.017c-.013-.016-.023-.027-.046-.038l.022.104c-11.26 29.478 8.073 43.93 14.306 47.695l3.877 11c-13.145-3.597-25.76-8.736-37.78-15.063l-1.744-13.717c4.69-6.184 15.676-24.946-3.477-46.804v-.035s-.012 0-.012.013c-.024-.012-.024-.03-.034-.046l-.013.104c-18.023 24.15-4.005 42.465.727 47.532l.682 10.936c-.8-.447-1.64-.823-2.438-1.28-10.407-6.014-20.1-13.223-29-21.3l2.207-13.446c5.993-4.378 21.213-18.597 9.613-43.913l.012-.025s-.012-.006-.023 0c-.012-.012-.012-.034-.012-.057l-.046.098c-23.118 17.228-15.293 37.84-12.326 43.81l-2.47 10.71c-4.797-4.587-9.41-9.36-13.578-14.53-1.27-1.57-2.483-3.185-3.687-4.806l.89-15.997c5.23-4.55 17.694-18.525 5.447-40.494l.012-.03c0 .006-.013.006-.024.006 0-.01-.012-.028-.012-.046l-.034.093c-19.77 17.31-11.188 35.487-8.06 40.702l-1.636 10.945c-6.15-9.01-11.336-18.688-15.342-28.848l.09-.005 4.59-14.3c6.217-3.365 21.182-14.217 14.244-38.157l.012-.023s-.012-.006-.022 0v-.052l-.047.082c-23.8 12.777-18.62 33.162-16.855 38.305l-3.725 9.472c-1.17-3.297-2.264-6.62-3.187-9.993-1.942-7.032-3.322-14.212-4.195-21.458l6.43-13.588c6.343-2.335 23.268-10.993 19.425-36.105l.012-.025s-.012-.005-.023 0c0-.01.012-.034.012-.052l-.058.076c-24.744 9.378-22.857 29.622-21.755 35.453l-4.587 8.614c-.902-10.888-.686-21.883.666-32.74.234-1.917.532-3.827.836-5.734l7.28-9.467c6.12-.85 22.88-5.28 24.355-28.4l.013-.024s-.012-.005-.012 0c0-.012 0-.03.013-.046l-.07.06c-23.748 3.51-26.13 21.715-26.31 27.26l-4.23 4.82c1.9-9.743 4.715-19.294 8.525-28.444l9.162-7.187c4.527.342 18.278-.147 23.04-17.723l.012-.01-.012-.007c0-.005.012-.023.012-.035l-.047.04c-18.527-1.006-23.132 12.407-24.124 16.572l-6.674 5.067c2.108-4.703 4.48-9.294 7.148-13.73 2.57-4.326 5.38-8.505 8.405-12.523l10.672-5.69c4.3 1.31 16.51 3.44 24.473-11.135l.022-.006-.012-.006c0-.006.012-.017.023-.028l-.07.022c-16.564-4.937-23.65 6.228-25.455 9.78l-6.214 2.728c8.207-10.083 17.75-19.098 28.192-26.883l9.504-2.01c2.728 1.78 10.82 5.742 19.324-2.82l.023-.007-.012-.005s.013-.006.013-.012l-.035.006c-10.57-6.795-17.76-.446-19.74 1.673l-5.573.74c7.226-5.106 14.76-9.804 22.637-13.865 2.95 1.085 19.363 6.072 29.567-12.58l.022-.006h-.01c0-.018 0-.03.01-.04l-.058.028c-19.902-5.623-27.92 8.418-29.575 11.897-8.558 4.268-16.765 9.242-24.6 14.738l1.572-4.324c2.468-1.187 8.985-5.305 6.47-15.337v-.006c0-.01.013-.01.013-.017l-.035.03c-9.646 4.73-8.14 12.773-7.452 15.097l-2.456 5.646.29-.01c-5.367 3.87-10.497 8.088-15.37 12.585l1-4.888c2.836-1.918 10.095-8.184 5.2-20.05l.013-.017c-.003-.006 0-.012 0-.017l-.035.035c-10.942 7.513-7.736 17.14-6.457 19.95l-1.897 6.98c-6.237 5.975-11.953 12.482-17.078 19.442l.338-6.373c3.207-2.955 11.172-12.218 2.765-26.246l.013-.026s0 .005-.012.014v-.03l-.02.048c-12.38 11.536-6.508 23.056-4.375 26.355l-1.11 9.556c-1.523 2.193-2.987 4.428-4.38 6.71-2.063 3.332-3.916 6.78-5.664 10.287l-1.74-6.44c2.43-4.275 8.164-17.587-6.428-30.183v-.017c-.012-.012-.022-.023-.022-.03v.064c-9.354 17.04.923 27.575 4.615 30.613l1.82 8.896.483-.37c-3.994 8.457-7.08 17.33-9.373 26.408l-3.618-6.885c1.69-5.784 4.34-21.942-15.02-32.354l-.012-.025c-.013-.006 0 0-.013.015-.022-.015-.022-.024-.033-.024l.02.067c-6.42 22.082 8.518 31.407 13.244 33.74l4.35 9.92c-1.02 4.595-1.863 9.223-2.486 13.874-.355 2.593-.643 5.198-.874 7.81l-5.65-6.17c.167-6.328-1.5-23.307-23.793-28.667l-.01-.028c-.013 0 0 .003-.013.02-.022-.006-.022-.017-.035-.017l.035.063c-.628 24.232 17.27 29.577 22.502 30.622l6.52 8.095.216-.46c-.67 10.02-.417 20.1.822 30.074l-5.947-5.45c-.447-7.38-4.103-26.915-30.525-30.88l-.023-.035c-.012 0 0 .012-.012.024-.022 0-.022-.013-.035-.013l.047.07c1.728 28.184 23.025 32.595 29.22 33.277l8.004 8.327c.77 4.81 1.757 9.59 3.003 14.31 1.184 4.537 2.62 9.008 4.234 13.413l-6.912-4.24c-2.074-7.823-10.057-27.285-38.418-26.063l-.034-.03c-.012.006 0 .012.01.024-.033 0-.057-.006-.068 0l.07.063c7.69 29.683 31.495 29.606 37.81 29.03l9.42 6.63.073-.443c3.34 8.178 7.37 16.077 12.1 23.55l-8.896-1.935c-5.117-7.404-20.152-23.772-48.272-12.566l-.035-.023c0 .013.012.013.012.024-.035.012-.046.012-.07.018l.104.04c18.854 28.214 43.81 18.57 49.305 15.976l10.763 3.062-.058-.327c1.985 2.91 4.03 5.776 6.216 8.54 3.636 4.62 7.595 8.96 11.718 13.143l-10.397.523c-7.174-6.23-28.14-20.213-55.3.15l-.046-.006c0 .006.014.006.024.012-.023.028-.035.034-.07.04l.117.018c28.03 24.448 51.683 7.247 56.88 2.83l12.733.166c9.345 8.86 19.606 16.758 30.67 23.328.047.03.097.048.143.077l-12.155 1.834c-9.15-6.083-32.032-16.732-57.64 6.78l-.058-.004c0 .01.023.01.035.023-.023.02-.046.027-.058.04l.114.01c33.594 23.876 57.51.557 61.33-3.582l.544-.03-.072-.062 14.416-1.25-.24-.4c11.054 6.002 22.668 10.98 34.632 14.8l-11.578 3.682c-9.94-4.954-38.335-14.904-63.41 16.75h-.047c0 .013.01.013.034.025-.023.025-.047.038-.07.055l.14-.017c39.624 19.628 61.546-7.505 66.03-13.97l16.933-4.228c2.66.742 5.3 1.56 7.978 2.197 5.76 1.548 11.354 3.602 16.73 6.01-3.883 2.17-7.672 4.654-11.01 7.84-2.04 1.868-3.926 3.946-5.535 6.308-.81 1.176-1.574 2.407-2.245 3.727-.337.66-.648 1.345-.938 2.063-.336.67-.127 1.78 2.558 3.22.162.09.348.148.545.16l.358.026c2.975.21 3.636.13 3.786-.376.197-.45.44-.914.694-1.376.522-.926 1.123-1.835 1.795-2.72 1.354-1.76 2.906-3.44 4.583-5.035 3.427-3.128 7.246-6.02 11.426-8.477.73-.43 1.51-.81 2.255-1.226.75.417 1.53.795 2.26 1.226 4.163 2.455 7.997 5.35 11.41 8.477 1.678 1.597 3.23 3.274 4.586 5.034.67.887 1.285 1.796 1.794 2.722.266.462.497.926.706 1.376.138.506.8.585 3.773.376l.37-.027c.186-.01.36-.063.533-.158 2.684-1.44 2.893-2.552 2.557-3.222-.29-.718-.603-1.403-.938-2.063-.672-1.32-1.423-2.55-2.248-3.727-1.608-2.36-3.495-4.44-5.52-6.31-3.34-3.184-7.138-5.667-11.02-7.838 5.37-2.408 10.968-4.462 16.726-6.01 2.675-.64 5.322-1.456 7.977-2.198l16.937 4.228c4.497 6.465 26.405 33.598 66.028 13.97l.14.018c-.022-.017-.034-.03-.057-.055.013-.013.022-.013.034-.024h-.057c-25.08-31.656-53.466-21.706-63.403-16.752l-11.588-3.68c11.968-3.822 23.592-8.807 34.645-14.812l-.242.41 14.413 1.25-.07.063.544.028c3.82 4.14 27.726 27.458 61.32 3.583l.125-.01-.07-.04c.024-.014.035-.014.035-.024l-.044.005c-25.618-23.51-48.494-12.87-57.646-6.78l-12.16-1.835c.048-.03.093-.047.14-.077 11.067-6.57 21.33-14.467 30.67-23.328l12.733-.167c5.21 4.417 28.85 21.62 56.88-2.83l.116-.017c-.024-.006-.037-.012-.07-.04.022-.006.033-.006.033-.012l-.045.006c-27.157-20.363-48.132-6.38-55.312-.15l-10.395-.524c4.12-4.182 8.082-8.523 11.716-13.142 2.183-2.765 4.23-5.63 6.217-8.538l-.06.324 10.772-3.064c5.487 2.596 30.44 12.25 49.31-15.973l.093-.04c-.024-.006-.036-.006-.06-.018 0-.012.012-.012.012-.023l-.033.023c-28.12-11.203-43.155 5.156-48.273 12.563l-8.907 1.935c4.722-7.463 8.755-15.36 12.094-23.53z"/><path fill="#58595B" d="M467.035 64.696c-3.14.816-4.39 1.93-7.03 4.008-.946.747-6.656 6.22-9.226 6.955-2.026-3.763-3.195-8.156-3.207-12.858-2.256 4.09-5.533 7.408-9.43 9.523-6.446-3.815-11.076-9.585-12.605-16.265v-.43c-.024.075-.035.145-.056.215-.012-.07-.035-.14-.048-.215v.43c-1.54 6.68-6.158 12.45-12.617 16.266-3.9-2.115-7.165-5.434-9.436-9.523-.01 4.702-1.18 9.096-3.205 12.857-2.57-.735-8.277-6.208-9.227-6.955-2.64-2.078-3.89-3.192-7.026-4.008-2.432-.636-7.13-.393-7.13-.393 9.585 5.936 16.635 18.944 20.594 28.62 8.693-1.796 18.23-3.246 28.163-3.246 9.934 0 19.326 1.45 28.02 3.247 3.948-9.677 11.01-22.686 20.605-28.62 0 0-4.71-.245-7.14.39zM451.06 101.54c.438-1.345.97-2.908 1.62-4.618-8.21-2.067-17.44-3.233-27.197-3.233-9.76 0-18.985 1.165-27.205 3.232.647 1.71 1.182 3.272 1.61 4.62 7.003-1.804 15.905-2.884 25.595-2.884 9.698 0 18.58 1.08 25.577 2.883z"/><path fill="#58595B" d="M425.482 99.57c9.584 0 18.364 1.054 25.32 2.816.084-.272.175-.556.257-.845-6.996-1.802-15.88-2.882-25.578-2.882-9.69 0-18.592 1.08-25.596 2.883.104.29.185.574.266.846 6.958-1.762 15.755-2.816 25.33-2.816z"/><path fill="#58595B" d="M400.152 104.17c.186.6.336 1.15.463 1.636 6.402-1.603 15.178-2.593 24.867-2.593 9.687 0 18.468.99 24.858 2.593.127-.485.29-1.035.463-1.637-6.957-1.764-15.737-2.817-25.32-2.817-9.576 0-18.385 1.053-25.33 2.816zM389.724 65.58c0 1.977-1.61 3.58-3.578 3.58-1.98 0-3.588-1.603-3.588-3.58 0-1.98 1.608-3.58 3.588-3.58 1.968 0 3.578 1.6 3.578 3.58zM406.96 61.013c0 1.98-1.6 3.583-3.578 3.583-1.98 0-3.576-1.602-3.576-3.583 0-1.974 1.598-3.576 3.576-3.576 1.98 0 3.578 1.602 3.578 3.576zM451.89 61.013c0 1.98-1.607 3.583-3.585 3.583-1.98 0-3.577-1.602-3.577-3.583 0-1.974 1.596-3.576 3.577-3.576 1.977 0 3.586 1.602 3.586 3.576zM429.057 53.288c0 1.978-1.596 3.58-3.574 3.58-1.98 0-3.578-1.602-3.578-3.58 0-1.977 1.597-3.58 3.578-3.58 1.978 0 3.574 1.604 3.574 3.58zM468.63 65.58c0 1.977-1.607 3.58-3.577 3.58-1.978 0-3.576-1.603-3.576-3.58 0-1.98 1.6-3.58 3.576-3.58 1.97 0 3.578 1.6 3.578 3.58zM523.686 130.15c-5.266 0-10.06 3.213-14.364 9.633-1.39 2.178-4.03 7.51-7.896 15.994l-46.142 101.03-7.582-.005-26.146-58.233-26.114 58.238h-7.745l-47.59-104.946c-6.238-13.71-14.458-20.947-24.68-21.71v-3.914c16.66.654 27.69.923 33.073.813 2.58 0 10.268-.265 23.06-.812v3.913c-4.828.325-8.173.876-10 1.64-2.363 1.087-3.544 2.777-3.544 5.07 0 1.845.684 4.296 2.05 7.35l37.656 86.963 19.98-46.525v-10.182c0-5.26-1.83-8.815-5.487-10.68-2.477-1.203-6.772-1.805-12.907-1.805v-4.734l28.397 1.627c-.753 0 8.71-.54 28.39-1.627v4.735c-7.214 0-12.073 1.355-14.6 4.076-2.533 2.72-3.795 7.843-3.795 15.356v3.097l19.854 46.696 31.612-72.332c4.086-9.357 6.124-15.5 6.124-18.44 0-6.203-5.383-9.63-16.138-10.284v-3.913c4.086.547 13.293.813 27.588.813 5.707 0 11.354-.266 16.945-.813v3.914z"/></svg>