<?xml version="1.0" encoding="utf-8"?>
<!-- Generator: Adobe Illustrator 16.0.0, SVG Export Plug-In . SVG Version: 6.00 Build 0)  -->
<!DOCTYPE svg PUBLIC "-//W3C//DTD SVG 1.1//EN" "http://www.w3.org/Graphics/SVG/1.1/DTD/svg11.dtd">
<svg version="1.1" id="Layer_1" xmlns="http://www.w3.org/2000/svg" xmlns:xlink="http://www.w3.org/1999/xlink" x="0px" y="0px"
	 width="841.89px" height="595.28px" viewBox="0 0 841.89 595.28" enable-background="new 0 0 841.89 595.28" xml:space="preserve">
<g>
	<g>
		<g>
			<g>
				<path fill="#58595B" d="M407.849,333.613c0,3.955-3.207,7.16-7.163,7.16H298.125c-3.956,0-7.163-3.205-7.163-7.16v-40.11
					c0-3.955,3.207-7.162,7.163-7.162h102.561c3.956,0,7.163,3.207,7.163,7.162V333.613z"/>
				<path fill="#58595B" d="M407.849,271.156c0,3.957-3.207,7.163-7.163,7.163H298.125c-3.956,0-7.163-3.206-7.163-7.163V231.05
					c0-3.955,3.207-7.162,7.163-7.162h102.561c3.956,0,7.163,3.207,7.163,7.162V271.156z"/>
			</g>
			<g>
				<path fill="#58595B" d="M298.125,215.865c-3.956,0-7.163-3.206-7.163-7.161V106.142c0-3.956,3.207-7.163,7.163-7.163
					l40.106,0.001c3.956,0,7.163,3.207,7.163,7.163v102.562c0,3.955-3.207,7.162-7.163,7.162L298.125,215.865z"/>
				<path fill="#58595B" d="M360.58,215.866c-3.956,0-7.163-3.207-7.163-7.162V106.143c0-3.956,3.207-7.163,7.163-7.163h40.106
					c3.956,0,7.163,3.207,7.163,7.163v102.562c0,3.955-3.207,7.162-7.163,7.162H360.58z"/>
			</g>
			<g>
				<path fill="#58595B" d="M532.758,208.703c0,3.956-3.207,7.163-7.16,7.163H423.035c-3.956,0-7.163-3.207-7.163-7.163v-40.107
					c0-3.956,3.207-7.162,7.163-7.162h102.563c3.953,0,7.16,3.206,7.16,7.162V208.703z"/>
				<path fill="#58595B" d="M532.758,146.249c0,3.956-3.207,7.162-7.16,7.162H423.035c-3.956,0-7.163-3.206-7.163-7.162v-40.107
					c0-3.956,3.207-7.163,7.163-7.163h102.563c3.953,0,7.16,3.207,7.16,7.163V146.249z"/>
			</g>
			<g>
				<g>
					<path fill="#58595B" d="M423.033,226.888L423.033,226.888l40.109,0.001c2.294,0,4.16,1.867,4.16,4.161v102.563
						c0,2.294-1.866,4.16-4.16,4.16h-40.109c-2.294,0-4.161-1.866-4.161-4.16V231.05
						C418.872,228.755,420.739,226.888,423.033,226.888 M423.033,223.888c-3.956,0-7.161,3.207-7.161,7.162v102.563
						c0,3.954,3.205,7.16,7.161,7.16h40.109c3.955,0,7.16-3.205,7.16-7.16V231.05c0-3.955-3.205-7.161-7.16-7.161L423.033,223.888
						L423.033,223.888z"/>
				</g>
				<g>
					<path fill="#58595B" d="M525.596,226.889c2.295,0,4.162,1.867,4.162,4.161v102.563c0,2.294-1.867,4.16-4.162,4.16h-40.107
						c-2.295,0-4.162-1.866-4.162-4.16V231.05c0-2.294,1.867-4.161,4.162-4.161H525.596 M525.596,223.889h-40.107
						c-3.955,0-7.162,3.206-7.162,7.161v102.563c0,3.955,3.207,7.16,7.162,7.16h40.107c3.955,0,7.162-3.205,7.162-7.16V231.05
						C532.758,227.095,529.551,223.889,525.596,223.889L525.596,223.889z"/>
				</g>
			</g>
		</g>
	</g>
	<rect x="616.118" y="443.799" fill-rule="evenodd" clip-rule="evenodd" fill="#58595B" width="42.52" height="19.967"/>
	<path fill-rule="evenodd" clip-rule="evenodd" fill="#58595B" d="M276.789,479.553V449.41v-38.146h-24.375v32.511h-44.793v-32.511
		h-24.375v26.576v8.516c0,10.27,6.888,17.41,17.064,17.41h52.104v12.569h-69.168v19.939h75.876
		C269.614,496.274,276.789,490.051,276.789,479.553L276.789,479.553z"/>
	<path fill-rule="evenodd" clip-rule="evenodd" fill="#58595B" d="M169.033,426.9c0-9.725-7.519-15.637-17.182-15.637H75.53v31.273
		v35.632v18.133h24.042h0.314v-32.536h52.365c8.52,0,16.781-6.686,16.781-16.468C168.976,439.867,169.147,434.333,169.033,426.9z
		 M144.666,439.064v2.811c-0.058,1.293-0.601,1.836-1.572,1.893H99.887v-12.506h43.207c0.943,0,1.544,0.688,1.572,1.578V439.064z"/>
	<path fill-rule="evenodd" clip-rule="evenodd" fill="#58595B" d="M290.963,477.718c0,11.157,6.089,18.584,17.267,18.584
		l59.295-0.027c9.663,0,16.981-6.34,16.981-16.032v-16.477h-24.328v12.569h-44.84V431.23h44.84v12.568h24.328v-16.56
		c0-10.525-7.747-15.976-18.268-15.976H309.23c-11.835,0-18.268,6.684-18.268,18.499V477.718z"/>
	<path fill-rule="evenodd" clip-rule="evenodd" fill="#58595B" d="M766.33,470.997v-28.46V426.9l0.029-0.229
		c0-9.353-8.148-15.407-17.611-15.407H690.05c-10.32,0-17.238,6.686-17.238,16.986v50.55v0.202c0,10.501,6.775,17.3,17.268,17.3
		h0.229h57.927h0.229c9.662,0,17.896-5.91,17.896-15.437l-0.029-0.2V470.997z M741.984,476.335h-44.798V431.23h44.798V476.335z"/>
	<polygon fill-rule="evenodd" clip-rule="evenodd" fill="#58595B" points="508.397,496.274 532.772,496.274 532.772,463.766 
		577.57,463.766 577.57,496.274 601.945,496.274 601.945,411.264 577.57,411.264 577.57,443.799 532.772,443.799 532.772,411.264 
		508.397,411.264 	"/>
	<polygon fill-rule="evenodd" clip-rule="evenodd" fill="#58595B" points="398.993,496.302 417.367,496.302 467.749,446.582 
		467.749,496.302 492.225,496.302 492.225,411.264 473.38,411.264 422.999,460.669 422.999,411.264 398.679,411.264 
		398.679,496.302 	"/>
</g>
</svg>
