<?xml version="1.0" encoding="utf-8"?>
<!-- Generator: Adobe Illustrator 16.0.0, SVG Export Plug-In . SVG Version: 6.00 Build 0)  -->
<!DOCTYPE svg PUBLIC "-//W3C//DTD SVG 1.1//EN" "http://www.w3.org/Graphics/SVG/1.1/DTD/svg11.dtd">
<svg version="1.1" id="Layer_1" xmlns="http://www.w3.org/2000/svg" xmlns:xlink="http://www.w3.org/1999/xlink" x="0px" y="0px"
	 width="841.89px" height="595.28px" viewBox="0 0 841.89 595.28" enable-background="new 0 0 841.89 595.28" xml:space="preserve">
<g>
	<g>
		<g>
			<path fill="#58595B" d="M381.054,248.313c1.22,0,1.922,0.61,1.922,1.909v47.011c3.127,2.863,5.353,6.396,6.573,10.471
				c0.584-1.254,1.205-2.44,1.855-3.494v-21.288c0-2.265-0.177-3.826-0.177-3.826h0.177c0,0,3.734,7.032,13.478,7.032
				c11.475,0,19.984-9.045,19.984-23.043c0-13.644-7.556-23.033-19.385-23.033c-10.95,0-14.602,7.825-14.602,7.825h-0.178
				c0,0,0.081-1.046,0.081-2.354c0-2.769-1.464-4.427-5.382-4.427h-18.735c-4.088,0-5.397,0.702-7.652,4.427l-5.309,8.526
				c-0.695,1.129-1.486,2.782-1.486,2.782h-0.17c0,0-0.776-1.653-1.383-2.782l-5.39-8.526c-2.351-3.645-3.563-4.427-7.659-4.427
				h-5.382v7.218h2.432c1.826,0,2.78,0.263,3.726,1.656l8.443,12.515l-14.868,22.608h9.567l9.13-14.354
				c0.68-1.037,1.383-2.346,1.383-2.346h0.17c0,0,0.709,1.309,1.323,2.346l9.293,14.354h9.478l-14.868-22.608l8.428-12.609
				c0.88-1.299,1.996-1.562,3.749-1.562H381.054C382.274,248.313,381.054,248.313,381.054,248.313z M403.574,278.908
				c-8.177,0-12.428-7.826-12.428-15.641c0-11.22,6.159-15.827,12.687-15.827c7.305,0,12.428,6.17,12.428,15.734
				C416.261,273.173,410.539,278.908,403.574,278.908z"/>
			<g>
				<g>
					<path fill="#58595B" d="M737.691,309.987c1.795-0.762,3.629-1.058,6.764-1.058c7.631,0,12.377,2.285,12.895,2.544l2.32,1.183
						l5.502-16.631l-2.041-0.743c-3.313-1.215-8.887-2.83-18.934-2.83c-7.793,0-14.27,1.41-19.252,4.194
						c-6.898,3.824-10.543,10.117-10.543,18.198c0,4.266,1.219,7.812,3.623,10.558c2.076,2.277,6.652,5.057,9.625,6.225l3.127,1.228
						c3.527,1.383,5.494,2.377,6.203,3.157c0.563,0.613,0.961,1.615,0.961,2.388c0,1.516-0.621,2.64-1.848,3.342
						c-1.508,0.799-4.82,1.634-8.842,1.634c-4.828,0-9.139-1.02-13.988-3.271l-2.33-1.087l-5.248,16.883l2.076,0.702
						c8.4,2.832,15.867,3.246,19.578,3.246c3.305,0,14.697-0.373,22.313-5.216c6.115-3.849,9.479-10.296,9.479-18.144
						c0-3.663-0.842-6.953-2.389-9.481c-2.586-4.373-6.875-6.536-10.705-8.229l-5.441-2.329c-1.707-0.739-3.039-1.316-4.074-2.182
						c-0.797-0.69-0.938-1.064-0.938-1.674C735.584,311.762,735.813,310.723,737.691,309.987z"/>
				</g>
				<polygon fill="#58595B" points="298.827,293.477 277.519,293.477 263.612,358.827 310.256,358.827 313.85,341.778 
					288.505,341.778 				"/>
				<path fill="#58595B" d="M358.062,292.452c-7.349,0-16.901,0.983-25.699,8.619c-8.576,7.452-13.692,19.208-13.692,31.439
					c0,8.743,2.529,15.593,7.497,20.343c4.879,4.721,11.592,7.009,20.531,7.009c11.297,0,20.302-3.475,27.518-10.613
					c7.645-7.448,11.704-18.021,11.704-30.567c0-7.094-1.856-12.757-5.686-17.316C373.543,293.378,364.375,292.452,358.062,292.452z
					 M358.889,337.564c-3.253,4.34-7.201,5.241-9.937,5.241c-2.868,0-5.071-0.953-6.543-2.854c-1.648-2.129-1.855-5.005-1.855-7.268
					c0-7.481,1.915-13.951,5.412-18.194c2.75-3.35,5.929-4.977,9.773-4.977c3.253,0,5.094,1.272,6.07,2.337
					c2.003,2.195,2.232,5.634,2.232,8.032C364.042,326.001,361.825,333.616,358.889,337.564z"/>
				<path fill="#58595B" d="M433.436,309.514c7.467,0,12.621,1.73,15.645,3.172l2.787,1.339l4.932-17.55l-2.33-0.795
					c-6.586-2.231-13.285-3.228-21.705-3.228c-7.83,0-19.26,0.772-28.117,7.392c-4.029,3.023-13.419,11.97-13.419,29.662
					c0,9.012,2.92,16.143,8.879,21.803c4.059,3.903,11.541,8.554,24.139,8.554c7.305,0,13.936-0.843,21.506-2.743l1.568-0.396
					l8.162-38.149h-30.52l-3.394,16.535h9.478l-1.633,7.275c-0.881,0.226-2.182,0.421-4.133,0.421c-5.25,0-8.192-2.313-9.73-4.258
					c-1.715-2.182-2.625-5.216-2.625-8.776c0-5.131,1.893-10.771,4.695-14.021C421.208,311.61,426.537,309.514,433.436,309.514z"/>
				<polygon fill="#58595B" points="474.402,293.477 460.488,358.827 481.779,358.827 495.688,293.477 				"/>
				<path fill="#58595B" d="M528.113,310.513c1.715-0.732,3.482-0.999,6.559-0.999c7.135,0,11.74,2.063,12.598,2.478l2.676,1.301
					l5.686-17.163l-2.387-0.863c-3.328-1.209-8.91-2.813-18.838-2.813c-7.771,0-14.24,1.41-19.223,4.194
					c-6.951,3.855-10.625,10.199-10.625,18.343c0,4.307,1.234,7.889,3.689,10.668c2.129,2.354,6.668,5.091,9.662,6.273l3.084,1.197
					c3.387,1.331,5.346,2.314,5.988,3.039c0.502,0.536,0.881,1.441,0.881,2.1c0,1.36-0.578,2.351-1.664,2.965
					c-1.383,0.762-4.643,1.574-8.547,1.574c-4.717,0-8.939-0.986-13.686-3.201l-2.705-1.257l-5.404,17.478l2.395,0.807
					c8.326,2.813,15.785,3.23,19.482,3.23c3.305,0,14.652-0.377,22.268-5.208c6.15-3.893,9.545-10.377,9.545-18.276
					c0-3.737-0.828-6.972-2.418-9.571c-2.639-4.458-6.92-6.609-10.758-8.272l-5.381-2.329c-1.648-0.71-2.957-1.279-3.926-2.077
					c-0.77-0.651-0.799-0.925-0.799-1.372C526.266,311.977,526.486,311.163,528.113,310.513z"/>
				<polygon fill="#58595B" points="612.914,293.477 561.449,293.477 557.746,310.542 572.629,310.542 562.404,358.827 
					583.963,358.827 594.188,310.542 609.219,310.542 				"/>
				<polygon fill="#58595B" points="609.484,358.827 630.777,358.827 644.684,293.477 623.398,293.477 				"/>
				<path fill="#58595B" d="M707.238,295.792c-6.1-2.273-12.605-3.34-20.502-3.34c-13.271,0-23.178,3.451-30.275,10.56
					c-3.201,3.197-10.646,12.254-10.646,27.093c0,10.957,4.836,17.744,8.902,21.499c8.014,7.453,20.316,8.259,25.225,8.259
					c2.352,0,8.6-0.236,15.799-2.429l1.598-0.488l2.58-19.307l-4.324,2.069c-4.355,2.093-8.74,3.098-13.412,3.098
					c-1.781,0-7.223,0-10.809-3.201c-2.506-2.24-3.777-5.57-3.777-9.929c0-6.75,2.58-11.338,4.73-13.974
					c3.498-4.229,8.326-6.188,15.186-6.188c1.102,0,3.971,0.067,6.781,0.633c2.689,0.558,4.938,1.431,6.859,2.65l2.877,1.834
					l5.492-17.978L707.238,295.792z"/>
			</g>
		</g>
		<polygon fill="#58595B" points="95.194,215.838 76.718,302.779 140.463,302.779 144.847,282.149 110.572,282.149 113.389,268.881 
			147.671,268.881 152.048,248.252 117.788,248.252 120.279,236.465 141.261,236.465 138.704,240.883 153.372,240.883 
			161.859,226.193 153.372,211.453 138.704,211.453 141.239,215.838 		"/>
		<g>
			<path fill="#58595B" d="M212.2,352.551l-5.027-10.07c-8.828,9.663-20.575,16.587-33.869,19.355l14.432-67.901h-29.477
				l-18.66,87.202c6.661,1.704,13.611,2.69,20.812,2.69c26.047,0,49.335-11.854,64.736-30.475L212.2,352.551z"/>
		</g>
	</g>
	<g>
		<path fill="#58595B" d="M307.063,240.051c12.354,0,18.964,9.216,18.964,20.608c0,1.126-0.259,3.48-0.259,3.48h-32.086
			c0.517,9.382,7.312,14.68,15.126,14.68c7.578,0,12.864-5.129,12.864-5.129l3.652,6.001c0,0-6.521,6.436-16.945,6.436
			c-13.921,0-23.392-9.988-23.392-23.043C284.986,249.083,294.561,240.051,307.063,240.051z M317.325,257.957
			c-0.267-7.299-4.857-11.206-10.343-11.206c-6.432,0-11.652,3.907-12.953,11.206H317.325z"/>
		<path fill="#58595B" d="M434.271,250.222c0-1.299-0.688-1.909-1.916-1.909h-3.57v-7.218h8.008c3.836,0,5.641,1.563,5.641,5.127
			v2.782c0,1.745-0.162,3.044-0.162,3.044h0.162c2.1-6.434,7.135-11.481,13.928-11.481c1.125,0,2.256,0.174,2.256,0.174v8.343
			c0,0-1.131-0.253-2.529-0.253c-5.381,0-10.342,3.837-12.346,10.345c-0.783,2.518-1.035,5.22-1.035,7.917v18h-8.436V250.222z"/>
		<path fill="#58595B" d="M485.092,240.051c12.355,0,18.957,9.216,18.957,20.608c0,1.126-0.252,3.48-0.252,3.48h-32.094
			c0.525,9.382,7.305,14.68,15.141,14.68c7.557,0,12.857-5.129,12.857-5.129l3.66,6.001c0,0-6.521,6.436-16.961,6.436
			c-13.906,0-23.393-9.988-23.393-23.043C463.008,249.083,472.568,240.051,485.092,240.051z M495.354,257.957
			c-0.266-7.299-4.863-11.206-10.35-11.206c-6.432,0-11.652,3.907-12.945,11.206H495.354z"/>
		<path fill="#58595B" d="M515.566,272.747c0,0,5.213,6.508,13.309,6.508c4.082,0,7.645-1.816,7.645-5.645
			c0-7.916-23.99-7.044-23.99-21.215c0-8.436,7.377-12.345,16.346-12.345c5.309,0,14.432,1.826,14.432,8.524v4.177h-7.57v-2.173
			c0-2.621-3.912-3.749-6.609-3.749c-4.961,0-8.17,1.745-8.17,5.218c0,8.348,23.998,6.526,23.998,21.206
			c0,7.827-6.957,12.873-16.176,12.873c-11.732,0-17.559-7.735-17.559-7.735L515.566,272.747z"/>
		<path fill="#58595B" d="M556.57,272.747c0,0,5.213,6.508,13.293,6.508c4.088,0,7.652-1.816,7.652-5.645
			c0-7.916-23.992-7.044-23.992-21.215c0-8.436,7.387-12.345,16.34-12.345c5.309,0,14.432,1.826,14.432,8.524v4.177h-7.557v-2.173
			c0-2.621-3.91-3.749-6.609-3.749c-4.945,0-8.176,1.745-8.176,5.218c0,8.348,23.998,6.526,23.998,21.206
			c0,7.827-6.949,12.873-16.17,12.873c-11.732,0-17.566-7.735-17.566-7.735L556.57,272.747z"/>
		<path fill="#58595B" d="M176.601,226.193l-6.41,11.105c30.334,4.711,53.579,30.87,53.579,62.524
			c0,6.161-0.954,12.079-2.603,17.698l-2.225-3.882l-7.349,12.687l8.451,14.713l13.463,0.089
			c6.913-12.214,10.905-26.272,10.905-41.305c0-42.77-31.998-77.995-73.341-83.244L176.601,226.193z"/>
		<path fill="#58595B" d="M78.566,318.453c5.708,25.521,23.015,46.725,47.324,57.874l4.421-20.805
			c-12.25-6.64-22.017-17.227-27.717-30.024l4.769,0.688l-5.449-13.604l-16.805-2.436L78.566,318.453z"/>
	</g>
</g>
</svg>
