<svg xmlns="http://www.w3.org/2000/svg" width="841.89" height="595.28" viewBox="0 0 841.89 595.28"><g fill="#58595B"><path d="M146.43 211.74c.064.092.133.184.206.27l-.207-.27z"/><path d="M148.934 207.05c-1.666 0-3.018 1.343-3.018 3.013 0 .747.276 1.42.72 1.95l4.875 6.37c.342.552.943.916 1.636.916.69 0 1.29-.365 1.628-.916l4.878-6.372c.444-.528.712-1.202.712-1.95 0-1.668-1.344-3.013-3.006-3.013 0 0-1.34-.077-4.212-.077-2.88 0-4.212.076-4.212.076zM104.706 226.517c.1.054.203.096.31.13l-.31-.13z"/><path d="M104.53 221.202c-1.444.83-1.938 2.68-1.107 4.116.372.644.942 1.1 1.593 1.33l7.41 3.085c.566.303 1.274.32 1.868-.023.605-.35.942-.97.965-1.608l1.03-7.96c.122-.68.022-1.406-.353-2.045-.83-1.444-2.673-1.934-4.113-1.107 0 0-1.2.6-3.684 2.04-2.492 1.44-3.61 2.172-3.61 2.172zM75.964 260.176c.107-.012.223-.02.333-.042l-.333.042z"/><path d="M73.15 255.665c-.828 1.443-.338 3.285 1.102 4.116.647.372 1.36.476 2.044.35l7.958-1.03c.647-.02 1.264-.36 1.616-.96.345-.595.318-1.3.023-1.874L82.8 248.86c-.227-.646-.68-1.22-1.326-1.592-1.44-.83-3.286-.337-4.113 1.103 0 0-.734 1.12-2.17 3.612-1.44 2.484-2.04 3.683-2.04 3.683zM67.9 303.702c.09-.07.183-.138.268-.21l-.27.21z"/><path d="M63.205 301.198c0 1.66 1.348 3.014 3.018 3.014.743 0 1.42-.272 1.945-.72l6.375-4.875c.543-.34.912-.938.92-1.63-.008-.694-.376-1.292-.92-1.628l-6.375-4.88c-.525-.447-1.206-.72-1.945-.72-1.67 0-3.018 1.353-3.018 3.015 0 0-.076 1.337-.076 4.212s.075 4.21.075 4.21zM82.677 345.422c.05-.1.088-.207.123-.307l-.123.307z"/><path d="M77.362 345.605c.827 1.44 2.672 1.93 4.113 1.103.646-.375 1.1-.95 1.325-1.593l3.094-7.413c.294-.567.32-1.27-.023-1.87-.35-.596-.968-.94-1.615-.964l-7.958-1.026c-.685-.122-1.397-.022-2.044.353-1.44.827-1.93 2.665-1.103 4.112 0 0 .602 1.203 2.04 3.684 1.436 2.497 2.172 3.615 2.172 3.615zM116.332 374.172c-.003-.123-.02-.23-.042-.338l.042.338z"/><path d="M111.825 376.982c1.44.826 3.282.336 4.113-1.11.375-.636.475-1.364.352-2.038l-1.03-7.965c-.023-.644-.36-1.257-.965-1.608-.593-.345-1.302-.322-1.87-.03l-7.408 3.093c-.65.23-1.222.69-1.593 1.333-.83 1.433-.337 3.278 1.107 4.112 0 0 1.12.735 3.61 2.168 2.482 1.44 3.685 2.044 3.685 2.044z"/><g><path d="M159.854 382.23c-.062-.094-.126-.186-.203-.27l.204.27z"/><path d="M157.358 386.923c1.662 0 3.006-1.34 3.006-3.01 0-.75-.268-1.425-.712-1.953l-4.878-6.372c-.337-.55-.938-.91-1.636-.91-.685 0-1.286.36-1.627.91l-4.874 6.372c-.444.528-.716 1.202-.72 1.953 0 1.67 1.352 3.01 3.018 3.01 0 0 1.333.068 4.212.068 2.872.01 4.212-.067 4.212-.067z"/></g><g><path d="M201.578 367.447c-.1-.046-.203-.084-.306-.123l.306.123z"/><path d="M201.762 372.77c1.44-.834 1.934-2.68 1.1-4.112-.365-.644-.947-1.103-1.594-1.333l-7.414-3.094c-.563-.29-1.267-.312-1.87.032-.593.352-.937.965-.956 1.607l-1.03 7.964c-.126.674-.02 1.402.353 2.037.828 1.448 2.674 1.94 4.117 1.112 0 0 1.19-.605 3.684-2.045 2.49-1.432 3.612-2.167 3.612-2.167z"/></g><g><path d="M230.323 333.796c-.114.016-.222.016-.337.046l.337-.046z"/><path d="M233.138 338.307c.827-1.447.333-3.285-1.106-4.112-.64-.375-1.363-.475-2.045-.353l-7.96 1.026c-.637.023-1.265.368-1.605.965-.344.598-.325 1.302-.03 1.87l3.094 7.412c.23.644.678 1.218 1.333 1.593 1.427.827 3.272.337 4.11-1.103 0 0 .73-1.118 2.165-3.615 1.442-2.48 2.043-3.683 2.043-3.683z"/></g><g><path d="M238.392 290.27c-.1.07-.188.134-.27.21l.27-.21z"/><path d="M243.08 292.773c0-1.662-1.35-3.014-3.01-3.014-.75 0-1.42.27-1.95.72l-6.376 4.877c-.544.337-.915.935-.915 1.627s.363 1.29.914 1.635l6.376 4.87c.528.447 1.198.72 1.95.72 1.66 0 3.01-1.353 3.01-3.014 0 0 .076-1.337.076-4.212s-.077-4.21-.077-4.21z"/></g><g><path d="M223.61 248.55c-.05.1-.09.207-.125.31l.126-.31z"/><path d="M228.93 248.37c-.84-1.44-2.685-1.934-4.112-1.103-.655.37-1.103.945-1.333 1.593l-3.094 7.405c-.294.575-.313 1.275.03 1.873.342.6.97.942 1.605.96l7.96 1.035c.683.122 1.406.02 2.046-.353 1.44-.83 1.935-2.673 1.107-4.116 0 0-.6-1.2-2.044-3.684-1.432-2.492-2.163-3.61-2.163-3.61z"/></g><g><path d="M189.952 219.808c.008.11.027.218.046.33l-.046-.33z"/><path d="M194.467 216.99c-1.443-.827-3.29-.337-4.116 1.107-.37.64-.478 1.367-.352 2.044l1.03 7.962c.02.64.363 1.26.957 1.608.602.344 1.306.326 1.87.023l7.413-3.086c.647-.23 1.218-.685 1.593-1.33.836-1.435.342-3.285-1.098-4.115 0 0-1.122-.73-3.61-2.17-2.494-1.44-3.685-2.042-3.685-2.042z"/></g></g><path fill="#58595B" d="M171.66 341.685l-63.217-63.217c-17.46 17.46-17.46 45.763 0 63.217 17.458 17.46 45.756 17.46 63.217 0zM203.642 321.298l-1.873-72.94-72.94-1.872M201.612 337.978l-89.455-89.462c-2.704 2.278-5.204 4.787-7.482 7.482l89.458 89.454c2.692-2.274 5.193-4.778 7.48-7.474z"/><g fill="#58595B"><path d="M311.288 257.334l8.15 32.483 8.515-32.483h30.35v14.07c-1.11.68-1.837 1.542-2.174 2.587-.34 1.05-.51 2.318-.51 3.8v37.012c0 2.283.107 3.937.322 4.955.218 1.02 1 1.96 2.363 2.818v14.068h-28.972v-14.068c1.114-.674 1.83-1.54 2.18-2.58.336-1.058.504-2.32.504-3.8v-22.674l-10.92 43.123h-7.77l-11.292-43.124-.184 21.28c0 2.284.108 3.938.33 4.956.21 1.02 1 1.96 2.36 2.818v14.068h-24.43v-14.068c1.105-.674 1.83-1.54 2.17-2.58.337-1.058.51-2.32.51-3.8V278.068c0-1.67-.154-3.01-.464-4.028-.31-1.02-1.045-1.897-2.217-2.64v-14.068h31.178zM394.677 278.345v37.577c0 2.28.07 3.706.188 4.258.364 1.478 1.237 2.62 2.592 3.415v13.05h-27.302v-13.05c1.294-.796 2.063-1.708 2.313-2.726.245-1.027.37-2.544.37-4.58V297.965c0-1.665-.156-2.994-.458-3.98-.31-.987-1.053-1.856-2.225-2.59v-13.05h24.522zm-11.572-3.52c-3.263 0-5.98-.704-8.14-2.128-2.585-1.724-3.884-4.132-3.884-7.218 0-2.9 1.223-5.1 3.658-6.618 2.432-1.513 5.166-2.263 8.19-2.263 3.084 0 5.74.734 7.962 2.216 2.523 1.727 3.787 4.074 3.787 7.034 0 2.837-1.225 5.09-3.7 6.76-2.212 1.473-4.84 2.216-7.872 2.216zM432.272 257.334v58.588c0 2.28.107 3.967.32 5.04.216 1.078 1.005 1.96 2.36 2.633v13.05h-27.207v-13.05c1.294-.796 2.068-1.708 2.313-2.726.245-1.027.375-2.544.375-4.58v-39.335c0-1.666-.153-2.99-.463-3.98-.314-.987-1.053-1.853-2.225-2.59v-13.05h24.527zM469.753 257.334v58.588c0 2.28.114 3.967.337 5.04.207 1.078.996 1.96 2.358 2.633v13.05h-27.21v-13.05c1.294-.796 2.06-1.708 2.313-2.726.238-1.027.376-2.544.376-4.58v-39.335c0-1.666-.168-2.99-.46-3.98-.32-.987-1.056-1.853-2.228-2.59v-13.05h24.515z"/></g><path fill="#58595B" d="M545.188 271.403v-14.07h26.743v14.07c-1.17.927-2.036 2.313-2.588 4.167-.26.8-.628 2.47-1.11 4.997l-10.46 56.078h-23.78l-6.947-37.852-7.864 37.852H495.87l-10.47-56.078c-.497-2.466-.896-4.136-1.202-4.997-.674-1.854-1.64-3.24-2.864-4.167v-14.07h30.91v14.07c-1.73.743-2.597 2.16-2.597 4.258l3.056 24.99 8.518-43.316h15.18l8.684 43.225 2.696-24.898c0-2.1-.86-3.516-2.59-4.26zM642.22 280.352v33.372c0 9.243-2.718 15.776-8.147 19.598-4.626 3.263-11.748 4.9-21.383 4.9-9.558 0-16.65-1.638-21.275-4.9-5.498-3.883-8.24-10.415-8.24-19.598v-33.372c0-9.244 2.71-15.776 8.148-19.598 4.626-3.263 11.748-4.897 21.367-4.897 9.565 0 16.665 1.635 21.29 4.897 5.49 3.883 8.24 10.42 8.24 19.598zm-34.34-1.28v35.838c0 1.363.16 2.436.46 3.232.75 1.968 2.205 2.956 4.35 2.956 1.67 0 2.896-.567 3.66-1.708.774-1.14 1.157-2.627 1.157-4.48v-35.837c0-1.355-.146-2.435-.467-3.236-.735-1.907-2.19-2.86-4.35-2.86-1.67 0-2.88.552-3.647 1.666-.78 1.106-1.163 2.58-1.163 4.43zM714.095 280.352v33.372c0 9.243-2.72 15.776-8.148 19.598-4.618 3.263-11.748 4.9-21.374 4.9-9.566 0-16.658-1.638-21.29-4.9-5.484-3.883-8.226-10.415-8.226-19.598v-33.372c0-9.244 2.71-15.776 8.148-19.598 4.617-3.263 11.748-4.897 21.367-4.897 9.557 0 16.656 1.635 21.29 4.897 5.484 3.883 8.233 10.42 8.233 19.598zm-34.333-1.28v35.838c0 1.363.153 2.436.46 3.232.743 1.968 2.19 2.956 4.35 2.956 1.67 0 2.88-.567 3.66-1.708.774-1.14 1.15-2.627 1.15-4.48v-35.837c0-1.355-.153-2.435-.46-3.236-.743-1.907-2.19-2.86-4.35-2.86-1.662 0-2.88.552-3.66 1.666-.766 1.106-1.15 2.58-1.15 4.43zM726.448 257.334h34.248c4.61 0 8.103.188 10.446.56 3.95.616 7.2 1.915 9.727 3.883 2.955 2.347 4.962 5.342 6.01 8.98.743 2.59 1.11 6.233 1.11 10.916v29.71c0 4.63-.306 8.115-.934 10.46-.857 3.392-2.68 6.378-5.453 8.974-1.976 1.846-4.396 3.286-7.26 4.305-2.872 1.02-7.184 1.523-12.92 1.523h-34.976v-14.068c1.226-.543 2.067-1.355 2.496-2.396.444-1.056.644-2.35.644-3.89v-38.595c0-1.666-.184-2.99-.55-3.98-.37-.987-1.227-1.757-2.59-2.312v-14.07zm27.862 17.312v45.258h1.938c2.71 0 4.564-.567 5.552-1.67.98-1.11 1.486-3.125 1.486-6.02V282.32c0-2.896-.506-4.902-1.486-6.012-.987-1.11-2.84-1.662-5.552-1.662h-1.938z"/><g fill="#58595B"><path d="M217.07 254.535l3.765-14.034 4.1-15.323-15.315 4.108-14.042 3.76c8.516 5.66 15.833 12.978 21.492 21.49zM235.906 266.593l-14.034-3.764c4.45 8.94 7.207 18.87 7.857 29.365l10.277-10.285 11.22-11.208-15.32-4.11zM240.008 312.046l-10.278-10.29c-.65 10.5-3.396 20.43-7.85 29.367l14.026-3.76 15.32-4.105-11.218-11.212zM217.078 339.418c-5.66 8.516-12.97 15.837-21.485 21.496l14.038 3.76 15.318 4.113-4.105-15.324-3.765-14.045zM157.932 373.574l10.278 10.277 11.22 11.213 4.104-15.317 3.76-14.03c-8.937 4.458-18.862 7.207-29.362 7.858zM119 365.73l3.768 14.016 4.097 15.325 11.22-11.22 10.282-10.276c-10.5-.643-20.43-3.4-29.367-7.843zM89.206 339.433l-3.752 14.038-4.11 15.325 15.322-4.104 14.042-3.768c-8.518-5.65-15.835-12.973-21.502-21.49zM76.558 301.776l-10.28 10.285-11.217 11.213 15.325 4.105 14.026 3.768c-4.448-8.945-7.202-18.87-7.852-29.37zM84.407 262.85l-14.034 3.76-15.317 4.104 11.22 11.212 10.28 10.285c.64-10.495 3.402-20.424 7.85-29.36zM89.202 254.555c5.664-8.52 12.98-15.838 21.494-21.498l-14.038-3.764-15.325-4.108 4.105 15.324 3.764 14.045zM148.352 220.4l-10.282-10.28-11.22-11.216-4.1 15.324-3.757 14.027c8.934-4.453 18.862-7.206 29.36-7.854zM187.275 228.248l-3.75-14.022-4.107-15.325-11.216 11.22-10.285 10.282c10.496.643 20.425 3.396 29.358 7.846z"/></g></svg>