<?xml version="1.0" encoding="utf-8"?>
<!-- Generator: Adobe Illustrator 16.0.0, SVG Export Plug-In . SVG Version: 6.00 Build 0)  -->
<!DOCTYPE svg PUBLIC "-//W3C//DTD SVG 1.1//EN" "http://www.w3.org/Graphics/SVG/1.1/DTD/svg11.dtd">
<svg version="1.1" id="Layer_1" xmlns="http://www.w3.org/2000/svg" xmlns:xlink="http://www.w3.org/1999/xlink" x="0px" y="0px"
	 width="841.89px" height="595.28px" viewBox="0 0 841.89 595.28" enable-background="new 0 0 841.89 595.28" xml:space="preserve">
<g>
	<g>
		<path fill="#58595B" d="M255.348,317.335c-2.176-4.693-6.914-7.812-12.175-7.812c-5.262,0-9.998,3.127-12.169,7.812
			c-33.63,5.273-55.243,31.496-55.243,67.333c0,36.1,21.873,62.383,55.887,67.414c2.41,4.006,6.752,6.504,11.526,6.504
			c4.774,0,9.115-2.498,11.529-6.504c34.012-5.031,55.884-31.316,55.884-67.414C310.586,348.836,288.973,322.608,255.348,317.335z
			 M250.856,434.113c-2.254-1.588-4.924-2.442-7.684-2.442c-2.755,0-5.423,0.854-7.678,2.442
			c-13.548-4.211-20.184-28.876-19.737-51.851c0.421-21.451,7.11-44.086,21.107-47.392c1.933,1.031,4.086,1.567,6.307,1.567
			c2.219,0,4.373-0.536,6.314-1.567c14.63,3.403,21.732,26.932,22.14,47.837C272.075,405.401,265.078,429.852,250.856,434.113z"/>
		<path fill="#58595B" d="M115.595,330.982l0.455,0.025l0.219-0.025c0.995,0.017,4.3,1.952,7.68,10.494
			c2.101,5.322,3.672,16.91,3.689,17.027l0.377,2.804h40.917l-1.106-4.082c-0.122-0.436-12.358-43.988-49.014-43.988
			c-26.226,0-61.365,31.815-61.365,64.356c0,23.587,13.282,34.366,23.95,43.025c2.822,2.288,5.551,4.51,7.921,6.835
			c-6.386,1.216-11.233,6.844-11.233,13.58c0,7.627,6.203,13.83,13.824,13.83l8.097,0.005c1.715,0,3.158,0,3.648-0.005
			c54.735-0.642,63.276-50.971,63.354-51.482l0.585-3.733l-40.376-0.019l0.362,3.563c0.023,0.26,2.197,23.443-11.52,32.957
			c0.75-5.632,0.393-14.35-4.463-25.976c-2.571-6.161-4.934-10.904-6.829-14.723c-4.102-8.256-6.364-12.8-6.364-21.656
			C98.402,344.878,112.895,331.499,115.595,330.982z"/>
		<path fill="#58595B" d="M497.686,410.297c-6.76-29.857-21.78-77.613-29.399-91.774l-0.918-1.698h-45.477l3.315,5.013
			c6.895,10.418,37.215,92.864,38.104,110.132l0.16,3.06h27.715c-1.254,5.028-3.559,14.01-6.014,22.29
			c-2.129,7.191-6.396,20.319-11.062,27.425c-3.792,5.789-11.336,10.501-16.804,10.501c-2.252,0-5.295-0.659-5.802-6.358
			c-0.39-4.416,1.66-11.157,2.481-13.382l2.67-7.204l-38.516,17.166v2.1c0,15.093,8.889,26.353,23.788,30.122
			c3.01,0.767,6.082,1.152,9.128,1.152c10.914,0,21.898-5.001,30.95-14.087c8.105-8.145,12.607-19.476,15.948-29.485
			c6.411-19.247,39.738-148.871,41.152-154.379l1.041-4.04H522.53L497.686,410.297z"/>
		<path fill="#58595B" d="M376.922,334.577c-1.599-0.637-3.325-0.979-5.094-0.979c-7.645,0-13.855,6.214-13.855,13.854
			c0,4.4,2.091,8.42,5.444,10.977c-21.27,18.894-49.762,53.104-49.762,79.072c0,6.701,1.642,11.215,5.012,13.793l0.871,0.665h47.315
			l-2.34-4.684c-6.056-12.093-7.835-20.285-7.322-33.681c0.891-19.333,10.916-37.048,19.731-47.41v85.774h40.328V316.824h-40.328
			V334.577z"/>
		<path fill="#58595B" d="M622.591,390.637c-9.313-6.735-18.202-13.16-23.981-19.625c5.206-1.988,8.915-7.04,8.915-12.938
			c0-6.438-4.419-11.869-10.383-13.412c5.964-6.878,15.86-10.494,21.987-10.494c1.664,0,2.111,0,2.111,5.67
			c0,3.367-0.766,8.906-2.484,13.7l-2.548,7.126l38.41-17.117v-2.104c0-17.233-7.742-27.116-21.231-27.116
			c-19.137,0-33.055,7.511-41.323,15.969v-13.471h-40.325v135.135h40.325v-65.757c1.946,2.871,4.208,5.987,6.578,9.271
			c7.448,10.302,16.714,23.117,16.714,29.374c0,8.592-1.641,18.009-3.918,22.393l-2.438,4.719h48.41l0.918-1.697
			c1.391-2.577,2.883-7.67,2.883-12.761C661.21,418.591,641.58,404.379,622.591,390.637z"/>
		<path fill="#58595B" d="M730.625,316.824l-0.461,2.683c-2.038,11.831-9.127,25.414-18.353,35.69v-38.373h-40.324v135.135h40.324
			v-74.893c5.441-4.378,12.615-12.021,18.308-19.854v94.746h40.325V316.824H730.625z"/>
	</g>
	<g>
		<path fill="#FFFFFF" d="M243.173,312.756c4.697,0,8.62,3.188,9.816,7.506c31.106,4.081,54.366,27.518,54.366,64.406
			c0,37.036-23.476,60.506-54.761,64.44c-1.549,3.673-5.185,6.25-9.421,6.25c-4.237,0-7.869-2.577-9.418-6.25
			c-31.283-3.931-54.761-27.399-54.761-64.44c0-36.893,23.259-60.329,54.369-64.406
			C234.558,315.944,238.475,312.756,243.173,312.756 M243.173,333.207c-2.117,0-4.082-0.642-5.713-1.747
			c-33.43,5.327-32.722,99.882-1.199,106.179c1.824-1.688,4.235-2.736,6.912-2.736c2.675,0,5.087,1.049,6.911,2.736
			c33.295-6.65,33.229-100.693-1.195-106.179C247.253,332.565,245.291,333.207,243.173,333.207 M243.173,311.683
			c-4.795,0-9.067,3.096-10.633,7.607c-33.205,4.66-54.619,30.25-54.619,65.378c0,35.331,21.607,60.954,55.103,65.431
			c1.891,3.862,5.807,6.333,10.149,6.333c4.343,0,8.262-2.471,10.151-6.333c33.499-4.485,55.106-30.1,55.106-65.431
			c0-35.128-21.416-60.714-54.619-65.374C252.246,314.778,247.969,311.683,243.173,311.683L243.173,311.683z M243.173,334.281
			c2.113,0,4.159-0.584,5.949-1.694c16.416,2.986,24.22,27.221,24.668,50.074c0.456,23.34-6.68,49.97-23.403,53.816
			c-2.044-1.709-4.583-2.648-7.214-2.648c-2.63,0-5.172,0.939-7.216,2.648c-15.31-3.596-22.836-29.874-22.358-54.256
			c0.445-22.715,7.925-46.747,23.629-49.635C239.011,333.697,241.056,334.281,243.173,334.281L243.173,334.281z"/>
		<path fill="#FFFFFF" d="M118.811,316.473c34.606,0,45.892,41.601,45.892,41.601h-33.861c0,0-1.61-12.029-3.89-17.787
			c-4.628-11.706-9.383-12.54-10.679-12.54c-0.212,0-0.333,0.025-0.341,0.025l0,0c-0.06-0.009-0.126-0.013-0.19-0.013
			c-4.514,0.004-20.57,14.958-20.57,46.037c0,14.09,5.472,18.542,13.441,37.628c8.478,20.291,2.449,30.678,2.449,30.678
			c23.082-7.077,19.735-39.24,19.735-39.24l33.017,0.021c0,0-7.558,48.132-60.195,48.751c-0.488,0.008-1.915,0.008-3.613,0.008
			c-3.4,0-7.883-0.008-8.097-0.008c-5.846,0-10.59-4.741-10.59-10.599c0-5.847,4.744-10.592,10.59-10.592
			c1.851,0,3.574,0.516,5.087,1.354c-9.556-15.849-36.315-21.228-36.315-54.203C60.68,347.859,93.442,316.473,118.811,316.473
			 M118.811,315.399c-25.302,0-59.204,30.745-59.204,62.194c0,22.561,12.299,32.543,23.152,41.35
			c4.284,3.478,8.378,6.8,11.41,10.657c-0.744-0.156-1.496-0.23-2.261-0.23c-6.431,0-11.661,5.23-11.661,11.664
			c0,6.432,5.23,11.672,11.661,11.672h0.597l7.5,0.009c1.704,0,3.137,0,3.625-0.009c52.933-0.624,61.164-49.17,61.242-49.66
			l0.194-1.24h-1.254l-33.017-0.017h-1.19l0.122,1.187c0.032,0.301,2.774,29.224-16.754,37.304
			c1.367-4.213,3.004-14.012-3.373-29.271c-2.542-6.09-4.787-10.606-6.768-14.593c-4.109-8.269-6.591-13.256-6.591-22.62
			c0-30.501,15.64-44.961,19.499-44.965l0.133,0.014l0.221-0.018c0.011,0,0.02,0,0.027,0c1.059,0,5.408,0.658,9.832,11.853
			c2.202,5.574,3.808,17.418,3.826,17.532l0.122,0.929h0.938h33.861h1.402l-0.367-1.346
			C165.622,357.369,153.831,315.399,118.811,315.399L118.811,315.399z"/>
		<path fill="#FFFFFF" d="M465.438,320.052c8.942,16.617,27.924,79.42,31.774,104.606l27.804-104.573h10.964
			c0,0-34.639,134.799-41.098,154.163c-3.248,9.742-7.582,20.603-15.173,28.227c-7.688,7.719-17.68,13.134-28.647,13.134
			c-2.726,0-5.517-0.336-8.341-1.053c-13.307-3.368-21.349-13.097-21.349-26.99l29.584-13.189c0,0-3.219,8.663-2.674,14.796
			c0.59,6.65,4.32,9.302,9.024,9.302c6.591,0,15.087-5.217,19.508-11.955c5.201-7.93,9.777-22.61,11.459-28.281
			c3.707-12.518,7.04-26.437,7.04-26.437h-28.777c-0.886-17.284-31.321-100.693-38.631-111.749H465.438 M466.081,318.979h-0.644
			h-37.532h-1.997l1.101,1.668c6.957,10.52,37.561,93.769,38.456,111.208l0.056,1.02h1.016h27.411
			c-0.922,3.768-3.704,14.936-6.701,25.062c-2.167,7.308-6.521,20.661-11.328,27.997c-4.221,6.428-12.397,11.469-18.611,11.469
			c-4.721,0-7.474-2.878-7.956-8.326c-0.516-5.816,2.583-14.241,2.612-14.325l0.889-2.39l-2.331,1.036l-29.584,13.188l-0.638,0.287
			v0.694c0,14.248,8.076,24.467,22.158,28.029c2.837,0.722,5.734,1.086,8.604,1.086c10.326,0,20.771-4.777,29.406-13.448
			c7.791-7.829,12.177-18.875,15.434-28.647c6.395-19.174,40.768-152.882,41.117-154.232l0.344-1.341h-1.383h-10.964h-0.826
			l-0.209,0.795l-26.546,99.835c-5.276-27.966-22.678-84.532-31.052-100.097L466.081,318.979L466.081,318.979z"/>
		<path fill="#FFFFFF" d="M414.015,320.052v128.677h-33.859v-90.531c-11.232,9.979-25.127,32.078-26.199,55.247
			c-0.534,14.077,1.423,22.812,7.664,35.284h-40.99c-3.027-2.317-3.743-6.948-3.743-11.228c0-24.983,29.409-60.611,52.314-79.793
			c-4.589-1.179-7.996-5.303-7.996-10.256c0-5.867,4.756-10.62,10.622-10.62c3.397,0,6.38,1.618,8.328,4.099v-20.879H414.015
			 M415.088,318.979h-1.073h-33.859h-1.073v1.073v18.272c-2.049-1.651-4.587-2.565-7.254-2.565c-6.447,0-11.696,5.248-11.696,11.693
			c0,4.656,2.777,8.798,6.947,10.65c-20.421,17.546-51.265,53.431-51.265,79.398c0,5.984,1.363,9.932,4.165,12.078l0.289,0.222
			h0.363h40.99h1.737l-0.778-1.554c-6.242-12.477-8.076-20.922-7.55-34.762c0.947-20.522,12.527-41.57,24.052-52.822v88.065v1.072
			h1.073h33.859h1.073v-1.072V320.052V318.979L415.088,318.979z"/>
		<path fill="#FFFFFF" d="M633.387,317.562c13.716,0,17.994,11.229,17.994,23.881l-29.578,13.185
			c1.781-4.986,2.668-10.866,2.668-14.79c0-4.631,0-8.906-5.342-8.906c-8.066,0-22.364,5.63-27.946,16.845
			c0.801-0.197,1.626-0.323,2.483-0.323c5.869,0,10.623,4.752,10.623,10.621c0,5.858-4.754,10.623-10.623,10.623
			c-0.357,0-0.702-0.072-1.058-0.104c14.4,21.65,65.37,40.745,65.37,68.909c0,4.279-1.247,8.91-2.496,11.228h-41.168
			c2.672-5.175,4.274-15.322,4.274-23.881c0-12.654-27.443-41.345-29.758-51.327v75.208h-33.857V320.052h33.857v19.785
			C593.817,330.931,608.258,317.562,633.387,317.562 M633.387,316.49c-21.778,0-36.482,9.998-43.482,19.688v-16.127v-1.073h-1.073
			h-33.857h-1.074v1.073v128.677v1.072h1.074h33.857h1.073v-1.072v-70.011c2.335,4.216,6.212,9.573,10.491,15.488
			c8.024,11.107,17.119,23.685,17.119,30.642c0,9.04-1.709,18.654-4.153,23.388l-0.816,1.565h1.77h41.168h0.64l0.303-0.565
			c1.308-2.423,2.628-7.229,2.628-11.734c0-17.813-19.184-31.688-37.734-45.112c-10.685-7.737-20.825-15.073-26.59-22.667
			c5.953-0.541,10.631-5.556,10.631-11.648c0-6.446-5.247-11.693-11.693-11.693c-0.156,0-0.315,0-0.479,0.009
			c5.876-9.397,18.499-14.385,25.942-14.385c4.082,0,4.271,2.688,4.271,7.833c0,3.549-0.805,9.385-2.606,14.43l-0.844,2.363
			l2.288-1.023l29.581-13.184l0.637-0.285v-0.695C652.455,325.349,645.684,316.49,633.387,316.49L633.387,316.49z"/>
		<path fill="#FFFFFF" d="M767.215,320.052v128.677h-33.861V346.077c-5.885,11.224-17.825,24.241-24.771,29.404v73.247h-33.861
			V320.052h33.861v42.953c11.757-10.515,22.095-27.443,24.771-42.953H767.215 M768.284,318.979h-1.069h-33.861h-0.904l-0.152,0.893
			c-2.379,13.776-11.364,29.82-22.643,40.674v-40.493v-1.073h-1.072h-33.861h-1.074v1.073v128.677v1.072h1.074h33.861h1.072v-1.072
			v-72.712c6.701-5.128,16.589-16.012,22.626-25.89v98.602v1.072h1.073h33.861h1.069v-1.072V320.052V318.979L768.284,318.979z"/>
	</g>
	<g>
		<g>
			<path fill="#58595B" d="M87.195,554.087c-0.14-2.144-0.264-5.06-0.239-7.473h-0.059c-0.407,2.413-1.01,5.192-1.445,6.939
				l-1.977,8.08h-3.088l-1.878-7.945c-0.44-1.807-1.038-4.632-1.405-7.074H77.03c-0.063,2.442-0.233,5.299-0.336,7.551l-0.393,7.838
				h-3.763l1.613-22.602h4.66l1.813,8.181c0.602,2.852,1.173,5.364,1.574,7.915h0.101c0.34-2.513,0.838-5.063,1.405-7.915
				l1.815-8.181h4.626l1.373,22.602h-3.925L87.195,554.087z"/>
			<path fill="#58595B" d="M133.349,539.401v22.602h-4.391v-22.602H133.349z"/>
			<path fill="#58595B" d="M175.875,539.401v9.047h4.594v-9.047h4.39v22.602h-4.39v-9.45h-4.594v9.45h-4.396v-22.602H175.875z"/>
			<path fill="#58595B" d="M232.491,552.071h-5.126v6.113h5.798v3.818h-10.199v-22.602h9.826v3.821h-5.425v5.2h5.126V552.071z"/>
			<path fill="#58595B" d="M270.391,539.735c1.24-0.267,2.917-0.441,4.588-0.441c2.617,0,4.697,0.373,6.145,1.75
				c1.339,1.173,1.938,3.051,1.938,4.957c0,2.447-0.735,4.195-1.911,5.437c-1.404,1.509-3.65,2.178-5.493,2.178
				c-0.304,0-0.579,0-0.876-0.035v8.423h-4.392V539.735z M274.783,550.028c0.231,0.031,0.467,0.031,0.742,0.031
				c2.213,0,3.181-1.576,3.181-3.686c0-1.978-0.797-3.521-2.845-3.521c-0.406,0-0.81,0.068-1.078,0.168V550.028z"/>
			<path fill="#58595B" d="M322.047,556.835l-1.008,5.168h-4.261l4.898-22.602h5.266l4.389,22.602h-4.255l-0.978-5.168H322.047z
				 M325.702,553.414l-0.744-4.727c-0.231-1.374-0.536-3.656-0.735-5.131h-0.103c-0.229,1.515-0.562,3.828-0.797,5.131l-0.846,4.727
				H325.702z"/>
			<path fill="#58595B" d="M381.238,539.401v22.602h-4.394v-18.78h-3.319v5.972c0,5.193-0.337,9.858-3.185,12.066
				c-0.843,0.672-1.904,1.111-3.047,1.111l-0.94-3.725c0.536-0.136,1.102-0.4,1.506-0.773c1.343-1.374,1.612-3.885,1.612-8.276
				v-10.196H381.238z"/>
			<path fill="#58595B" d="M423.702,539.401v8.456c0.369-0.07,0.866-0.142,1.785-0.142c4.283,0,7.032,2.619,7.032,6.911
				c0,2.25-0.704,3.885-1.874,5.101c-1.541,1.601-3.985,2.445-7.212,2.445c-1.673,0-3.088-0.103-4.088-0.275v-22.496H423.702z
				 M423.731,558.577c0.31,0.07,0.582,0.07,0.837,0.07c2.256,0,3.393-1.709,3.393-3.759c0-2.036-1.103-3.615-3.22-3.615
				c-0.368,0-0.737,0.034-1.01,0.091V558.577z"/>
			<path fill="#58595B" d="M473.876,539.401v9.047h4.599v-9.047h4.385v22.602h-4.385v-9.45h-4.599v9.45h-4.396v-22.602H473.876z"/>
			<path fill="#58595B" d="M525.361,539.401v22.602h-4.39v-22.602H525.361z"/>
			<path fill="#58595B" d="M603.035,539.735c1.344-0.297,3.127-0.441,4.996-0.441c2.114,0,4.158,0.274,5.741,1.619
				c1.201,1.001,1.702,2.513,1.702,4.087c0,2.02-1.032,3.955-3.25,4.927v0.133c2.626,0.742,3.992,2.887,3.992,5.408
				c0,1.836-0.6,3.316-1.673,4.421c-1.345,1.477-3.626,2.284-7.41,2.284c-1.68,0-3.093-0.103-4.099-0.275V539.735z M607.437,548.688
				h0.938c1.572,0,2.778-1.341,2.778-3.185c0-1.639-0.771-2.913-2.544-2.913c-0.506,0-0.91,0.028-1.173,0.131V548.688z
				 M607.437,558.717c0.263,0.067,0.595,0.067,0.972,0.067c1.811,0,3.246-1.104,3.246-3.387c0-2.279-1.54-3.454-3.279-3.454h-0.938
				V558.717z"/>
			<path fill="#58595B" d="M666.6,550.3c0,8.521-3.019,11.971-7.313,11.971c-5.136,0-7.145-5.436-7.145-11.639
				c0-6.17,2.451-11.506,7.479-11.506C665.062,539.126,666.6,545.134,666.6,550.3z M656.697,550.7c0,5.133,0.972,7.748,2.754,7.748
				c1.88,0,2.585-3.353,2.585-7.945c0-3.957-0.604-7.544-2.61-7.544C657.669,542.959,656.697,545.841,656.697,550.7z"/>
			<path fill="#58595B" d="M716.599,539.401v18.846l1.78,0.068l-0.205,8.616h-3.313l-0.209-4.929h-9.784l-0.172,4.929h-3.311
				l-0.177-8.616l1.574-0.068c0.71-1.712,1.176-3.423,1.545-5.263c0.438-2.587,0.642-5.235,0.642-7.88v-5.703H716.599z
				 M708.993,545.841c0,2.582-0.21,5.197-0.571,7.611c-0.238,1.644-0.641,3.354-1.102,4.732h4.889v-14.962h-3.216V545.841z"/>
			<path fill="#58595B" d="M758.929,539.401v4.995c0,4.155-0.265,8.048-0.432,10.406h0.064c0.638-1.95,1.778-4.939,2.449-6.651
				l3.317-8.75h3.997v22.602h-3.856V556.9c0-4.521,0.168-7.873,0.294-10.153h-0.061c-0.54,2.007-1.541,4.724-2.283,6.637
				l-3.321,8.619h-4.057v-22.602H758.929z"/>
		</g>
	</g>
	<g>
		<rect x="72.538" y="492.381" fill="#58595B" width="322.053" height="5.15"/>
		<rect x="507.274" y="492.381" fill="#58595B" width="259.94" height="5.15"/>
	</g>
	<g>
		<path fill="#58595B" d="M398.809,256.44c-4.203,0-7.606,3.396-7.606,7.596v6.807h15.212v-6.807
			C406.415,259.837,402.998,256.44,398.809,256.44z"/>
		<path fill="#58595B" d="M356.608,256.44c-4.197,0-7.611,3.4-7.611,7.596v6.807h15.209v-6.807
			C364.206,259.841,360.803,256.44,356.608,256.44z"/>
		<path fill="#58595B" d="M314.405,256.44c-4.209,0-7.607,3.396-7.607,7.596v6.807h15.201v-6.807
			C321.999,259.837,318.604,256.44,314.405,256.44z"/>
		<path fill="#58595B" d="M272.199,256.44c-4.203,0-7.601,3.396-7.601,7.596v6.807h15.192v-6.807
			C279.791,259.837,276.397,256.44,272.199,256.44z"/>
		<path fill="#58595B" d="M229.998,256.44c-4.204,0-7.608,3.4-7.608,7.596v6.807h15.209v-6.807
			C237.599,259.841,234.187,256.44,229.998,256.44z"/>
		<path fill="#58595B" d="M187.79,256.44c-4.205,0-7.603,3.396-7.603,7.596v6.807h15.204v-6.807
			C195.391,259.837,191.988,256.44,187.79,256.44z"/>
		<path fill="#58595B" d="M145.575,256.44c-4.185,0-7.594,3.396-7.594,7.596v6.807h15.213v-6.807
			C153.193,259.837,149.787,256.44,145.575,256.44z"/>
		<path fill="#58595B" d="M103.385,256.44c-4.201,0-7.594,3.396-7.594,7.596v6.807h15.194v-6.807
			C110.986,259.837,107.583,256.44,103.385,256.44z"/>
		<path fill="#58595B" d="M441.007,256.44c-4.195,0-7.599,3.396-7.599,7.596v6.807h15.209v-6.807
			C448.617,259.837,445.205,256.44,441.007,256.44z"/>
		<path fill="#58595B" d="M483.214,256.44c-4.186,0-7.603,3.396-7.603,7.596v6.807h15.209v-6.807
			C490.82,259.837,487.418,256.44,483.214,256.44z"/>
		<path fill="#58595B" d="M525.414,256.44c-4.188,0-7.59,3.396-7.59,7.596v6.807h15.213v-6.807
			C533.037,259.837,529.624,256.44,525.414,256.44z"/>
		<path fill="#58595B" d="M567.626,256.44c-4.187,0-7.594,3.396-7.594,7.596v6.807h15.203v-6.807
			C575.235,259.837,571.825,256.44,567.626,256.44z"/>
		<path fill="#58595B" d="M609.826,256.44c-4.192,0-7.595,3.396-7.595,7.596v6.807h15.2v-6.807
			C617.432,259.837,614.029,256.44,609.826,256.44z"/>
		<path fill="#58595B" d="M652.036,256.44c-4.199,0-7.606,3.396-7.606,7.596v6.807h15.218v-6.807
			C659.647,259.837,656.236,256.44,652.036,256.44z"/>
		<path fill="#58595B" d="M694.235,256.44c-4.186,0-7.585,3.396-7.585,7.596v6.807h15.198v-6.807
			C701.849,259.837,698.44,256.44,694.235,256.44z"/>
		<path fill="#58595B" d="M736.451,256.44c-4.187,0-7.597,3.396-7.597,7.596v6.807h15.204v-6.807
			C744.059,259.837,740.645,256.44,736.451,256.44z"/>
		<path fill="#58595B" d="M401.628,218.001c0-1.644-1.337-2.977-2.978-2.977c-1.636,0-2.971,1.333-2.971,2.977v2.672h5.949V218.001z
			"/>
		<path fill="#58595B" d="M420.346,215.024c-1.627,0-2.969,1.333-2.969,2.977v2.672h5.965v-2.672
			C423.342,216.357,421.991,215.024,420.346,215.024z"/>
		<path fill="#58595B" d="M445.043,218.001c0-1.644-1.342-2.977-2.984-2.977c-1.631,0-2.978,1.333-2.978,2.977v2.672h5.962V218.001z
			"/>
		<path fill="#58595B" d="M420.346,171.66c-2.815,0-5.104,2.285-5.104,5.108v4.563h10.22v-4.563
			C425.462,173.945,423.174,171.66,420.346,171.66z"/>
		<path fill="#58595B" d="M394.89,176.769c0-2.823-2.293-5.108-5.109-5.108c-2.84,0-5.114,2.285-5.114,5.108v4.563h10.224V176.769z"
			/>
		<path fill="#58595B" d="M450.938,171.66c-2.833,0-5.116,2.285-5.116,5.108v4.563h10.229v-4.563
			C456.052,173.945,453.765,171.66,450.938,171.66z"/>
		<path fill="#58595B" d="M461.51,213.533v21.782l-2.234,8.731h308.894l-12.824-30.514H469.561v-60.316h26.288l-1.947-1.905
			c-12.66-12.41-31.835-26.359-34.127-28.015c-1.148-2.296-10.414-20.47-36.861-65.045l-0.317-0.547h-0.389v-2.818l0.899-3.396
			l5.7,6.031l-2.201-8.01l7.972,2.374l-5.909-5.844l8.077-1.932l-8.035-2.111l6.044-5.708l-8.018,2.205l2.36-7.977l-5.839,5.909
			l-1.911-8.08l-2.118,8.037l-5.711-6.036l2.188,8.018l-7.958-2.382l5.905,5.857l-8.074,1.928l8.03,2.104l-6.036,5.704l8.019-2.194
			l-2.375,7.969l5.847-5.902l1.144,4.789v1.466h-0.482l-0.323,0.547c-26.426,44.583-35.709,62.749-36.864,65.045
			c-2.284,1.649-21.443,15.604-34.123,28.015l-1.941,1.905h24.245v60.316H85.367l-12.829,30.514h308.898l-2.237-8.731v-21.782
			h-6.467v-60.316h94.811v60.316H461.51z M377.504,236.711c-0.455,0.352-0.953,0.581-1.488,0.581c-1.908,0-3.468-2.446-3.468-5.446
			v-3.076c0.84,1.406,2.072,2.313,3.468,2.313c0.411,0,0.794-0.121,1.169-0.277v4.633L377.504,236.711z M377.186,229.592
			c-0.369,0.21-0.758,0.366-1.169,0.366c-1.908,0-3.468-2.439-3.468-5.442v-3.074c0.84,1.397,2.072,2.316,3.468,2.316
			c0.411,0,0.794-0.123,1.169-0.278V229.592z M371.134,216.875v3.063c-0.84-1.393-2.075-2.305-3.466-2.305
			c-1.406,0-2.624,0.912-3.466,2.305v-3.063c0-0.465,0.059-0.901,0.13-1.327h6.666C371.073,215.974,371.134,216.41,371.134,216.875z
			 M356.809,242.038c-0.415-0.897-0.674-1.985-0.674-3.17v-3.092c0.854,1.403,2.072,2.312,3.472,2.312
			c1.387,0,2.616-0.908,3.459-2.312v3.092c0,1.185-0.255,2.272-0.672,3.17H356.809z M340.697,242.038
			c-0.417-0.897-0.671-1.985-0.671-3.17v-3.092c0.84,1.403,2.069,2.312,3.467,2.312c1.388,0,2.62-0.908,3.458-2.312v3.092
			c0,1.185-0.26,2.272-0.674,3.17H340.697z M324.573,242.038c-0.418-0.897-0.676-1.985-0.676-3.17v-3.092
			c0.839,1.403,2.076,2.312,3.475,2.312c1.379,0,2.624-0.908,3.462-2.312v3.092c0,1.185-0.26,2.272-0.675,3.17H324.573z
			 M308.449,242.038c-0.417-0.897-0.674-1.985-0.674-3.17v-3.092c0.844,1.403,2.072,2.312,3.459,2.312
			c1.397,0,2.641-0.908,3.472-2.312v3.092c0,1.185-0.255,2.272-0.672,3.17H308.449z M292.333,242.038
			c-0.417-0.897-0.677-1.985-0.677-3.17v-3.092c0.849,1.403,2.083,2.312,3.468,2.312c1.391,0,2.624-0.908,3.47-2.312v3.092
			c0,1.185-0.26,2.272-0.676,3.17H292.333z M276.212,242.038c-0.42-0.897-0.68-1.985-0.68-3.17v-3.092
			c0.851,1.403,2.086,2.312,3.479,2.312c1.383,0,2.619-0.908,3.456-2.312v3.092c0,1.185-0.261,2.272-0.675,3.17H276.212z
			 M260.096,242.038c-0.421-0.897-0.677-1.985-0.677-3.17v-3.092c0.838,1.403,2.074,2.312,3.464,2.312
			c1.385,0,2.629-0.908,3.468-2.312v3.092c0,1.185-0.253,2.272-0.67,3.17H260.096z M243.973,242.038
			c-0.152-0.329-0.293-0.68-0.399-1.064c-0.174-0.648-0.277-1.357-0.277-2.105v-3.092c0.845,1.403,2.082,2.312,3.474,2.312
			c1.385,0,2.611-0.9,3.458-2.294v3.074c0,1.185-0.255,2.272-0.675,3.17H243.973z M227.859,242.038
			c-0.415-0.897-0.673-1.985-0.673-3.17v-3.092c0.836,1.403,2.079,2.312,3.467,2.312c1.391,0,2.625-0.908,3.463-2.312v3.092
			c0,1.185-0.257,2.272-0.675,3.17H227.859z M211.742,242.038c-0.42-0.897-0.676-1.985-0.676-3.17v-3.092
			c0.838,1.403,2.074,2.312,3.466,2.312c1.394,0,2.618-0.908,3.462-2.312v3.092c0,1.185-0.256,2.272-0.675,3.17H211.742z
			 M195.617,242.038c-0.417-0.897-0.677-1.985-0.677-3.17v-3.092c0.847,1.403,2.073,2.312,3.464,2.312s2.625-0.908,3.475-2.312
			v3.092c0,1.185-0.26,2.272-0.678,3.17H195.617z M179.493,242.038c-0.419-0.897-0.679-1.985-0.679-3.17v-3.092
			c0.851,1.403,2.085,2.312,3.48,2.312c1.392,0,2.618-0.908,3.462-2.312v3.092c0,1.185-0.26,2.272-0.678,3.17H179.493z
			 M163.383,242.038c-0.422-0.897-0.681-1.985-0.681-3.17v-3.092c0.844,1.403,2.078,2.312,3.47,2.312
			c1.393,0,2.63-0.908,3.466-2.312v3.092c0,1.185-0.256,2.272-0.675,3.17H163.383z M147.259,242.038
			c-0.416-0.897-0.677-1.985-0.677-3.17v-3.092c0.833,1.403,2.077,2.312,3.458,2.312c1.402,0,2.64-0.908,3.476-2.312v3.092
			c0,1.185-0.259,2.272-0.675,3.17H147.259z M131.156,242.038c-0.42-0.897-0.68-1.985-0.68-3.17v-3.064
			c0.851,1.389,2.066,2.284,3.462,2.284h0.005h0.005c1.377,0,2.604-0.896,3.448-2.284v3.064c0,1.185-0.259,2.272-0.675,3.17H131.156
			z M115.037,242.038c-0.417-0.897-0.674-1.985-0.674-3.17v-3.092c0.845,1.403,2.076,2.312,3.462,2.312
			c1.397,0,2.635-0.908,3.471-2.312v3.092c0,1.185-0.26,2.272-0.679,3.17H115.037z M98.917,242.038
			c-0.416-0.897-0.675-1.985-0.675-3.17v-3.092c0.838,1.403,2.066,2.312,3.466,2.312c1.385,0,2.622-0.908,3.463-2.312v3.092
			c0,1.185-0.257,2.272-0.676,3.17H98.917z M82.8,242.038c-0.416-0.897-0.682-1.985-0.682-3.17v-3.092
			c0.849,1.403,2.072,2.312,3.464,2.312c1.394,0,2.632-0.908,3.476-2.312v3.092c0,1.185-0.262,2.272-0.679,3.17H82.8z
			 M85.582,229.633c-1.509,0-2.782-1.534-3.251-3.667l1.353-3.215c0.578,0.404,1.208,0.689,1.898,0.689
			c1.394,0,2.632-0.931,3.476-2.318v3.07C89.058,227.192,87.498,229.633,85.582,229.633z M89.058,228.459v3.068
			c0,3.003-1.561,5.441-3.476,5.441c-1.896,0-3.464-2.438-3.464-5.441v-3.068c0.849,1.403,2.072,2.301,3.464,2.301
			C86.976,230.76,88.214,229.862,89.058,228.459z M81.468,233.126l-0.15-0.252v2.902V236c-0.438-1.259-1.166-2.199-2.041-2.777
			l2.041-4.854v0.09v3.068C81.318,232.091,81.378,232.618,81.468,233.126z M80.995,238.868v3.063
			c-0.838-1.394-2.075-2.306-3.472-2.306c-0.36,0-0.7,0.095-1.031,0.222l2.467-5.863C80.146,234.851,80.995,236.676,80.995,238.868z
			 M367.668,232.29c-1.406,0-2.624,0.915-3.466,2.313v-3.076c0-2.995,1.551-5.437,3.466-5.437c1.913,0,3.466,2.441,3.466,5.437
			v3.076C370.294,233.205,369.06,232.29,367.668,232.29z M371.134,238.868v3.063c-0.84-1.394-2.075-2.306-3.466-2.306
			c-1.406,0-2.624,0.912-3.466,2.306v-3.063c0-3.008,1.551-5.457,3.466-5.457C369.581,233.411,371.134,235.86,371.134,238.868z
			 M367.668,224.956c-1.406,0-2.624,0.909-3.466,2.317v-3.081c0-2.996,1.551-5.436,3.466-5.436c1.913,0,3.466,2.439,3.466,5.436
			v3.081C370.294,225.865,369.06,224.956,367.668,224.956z M359.607,229.633c-1.914,0-3.472-2.44-3.472-5.44v-3.07
			c0.854,1.388,2.072,2.318,3.472,2.318c1.387,0,2.616-0.931,3.459-2.318v3.07C363.066,227.192,361.52,229.633,359.607,229.633z
			 M363.066,228.459v3.068c0,3.003-1.546,5.441-3.459,5.441c-1.914,0-3.472-2.438-3.472-5.441v-3.068
			c0.854,1.403,2.072,2.301,3.472,2.301C360.994,230.76,362.223,229.862,363.066,228.459z M359.607,222.309
			c-1.914,0-3.472-2.443-3.472-5.434v-1.327h6.932v1.327C363.066,219.865,361.52,222.309,359.607,222.309z M355.014,216.875v3.063
			c-0.828-1.393-2.068-2.305-3.459-2.305c-1.397,0-2.635,0.912-3.483,2.305v-3.063c0-0.465,0.066-0.901,0.138-1.327h6.668
			C354.951,215.974,355.014,216.41,355.014,216.875z M351.554,232.29c-1.397,0-2.635,0.915-3.483,2.313v-3.076
			c0-2.995,1.563-5.437,3.483-5.437c1.9,0,3.459,2.441,3.459,5.437v3.076C354.186,233.205,352.945,232.29,351.554,232.29z
			 M355.014,238.868v3.063c-0.828-1.394-2.068-2.306-3.459-2.306c-1.397,0-2.635,0.912-3.483,2.306v-3.063
			c0-3.008,1.563-5.457,3.483-5.457C353.454,233.411,355.014,235.86,355.014,238.868z M351.554,224.956
			c-1.397,0-2.635,0.909-3.483,2.317v-3.081c0-2.996,1.563-5.436,3.483-5.436c1.9,0,3.459,2.439,3.459,5.436v3.081
			C354.186,225.865,352.945,224.956,351.554,224.956z M343.494,229.633c-1.931,0-3.467-2.44-3.467-5.44v-3.07
			c0.84,1.388,2.069,2.318,3.467,2.318c1.388,0,2.62-0.931,3.458-2.318v3.07C346.952,227.192,345.399,229.633,343.494,229.633z
			 M346.952,228.459v3.068c0,3.003-1.553,5.441-3.458,5.441c-1.931,0-3.467-2.438-3.467-5.441v-3.068
			c0.84,1.403,2.069,2.301,3.467,2.301C344.882,230.76,346.114,229.862,346.952,228.459z M343.494,222.309
			c-1.931,0-3.467-2.443-3.467-5.434v-1.327h6.926v1.327C346.952,219.865,345.399,222.309,343.494,222.309z M338.897,216.875v3.063
			c-0.845-1.393-2.077-2.305-3.467-2.305c-1.392,0-2.631,0.912-3.476,2.305v-3.063c0-0.465,0.06-0.901,0.141-1.327h6.667
			C338.831,215.974,338.897,216.41,338.897,216.875z M335.43,232.29c-1.392,0-2.631,0.915-3.476,2.313v-3.076
			c0-2.995,1.551-5.437,3.476-5.437c1.91,0,3.467,2.441,3.467,5.437v3.076C338.052,233.205,336.82,232.29,335.43,232.29z
			 M338.897,238.868v3.063c-0.845-1.394-2.077-2.306-3.467-2.306c-1.392,0-2.631,0.912-3.476,2.306v-3.063
			c0-3.008,1.551-5.457,3.476-5.457C337.34,233.411,338.897,235.86,338.897,238.868z M335.43,224.956
			c-1.392,0-2.631,0.909-3.476,2.317v-3.081c0-2.996,1.551-5.436,3.476-5.436c1.91,0,3.467,2.439,3.467,5.436v3.081
			C338.052,225.865,336.82,224.956,335.43,224.956z M327.372,229.633c-1.915,0-3.475-2.44-3.475-5.44v-3.07
			c0.839,1.388,2.076,2.318,3.475,2.318c1.379,0,2.624-0.931,3.462-2.318v3.07C330.833,227.192,329.278,229.633,327.372,229.633z
			 M330.833,228.459v3.068c0,3.003-1.556,5.441-3.462,5.441c-1.915,0-3.475-2.438-3.475-5.441v-3.068
			c0.839,1.403,2.076,2.301,3.475,2.301C328.751,230.76,329.995,229.862,330.833,228.459z M327.372,222.309
			c-1.915,0-3.475-2.443-3.475-5.434v-1.327h6.937v1.327C330.833,219.865,329.278,222.309,327.372,222.309z M322.778,216.875v3.063
			c-0.855-1.393-2.083-2.305-3.474-2.305c-1.396,0-2.623,0.912-3.468,2.305v-3.063c0-0.465,0.063-0.901,0.13-1.327h6.679
			C322.716,215.974,322.778,216.41,322.778,216.875z M319.304,232.29c-1.396,0-2.623,0.915-3.468,2.313v-3.076
			c0-2.995,1.558-5.437,3.468-5.437c1.917,0,3.474,2.441,3.474,5.437v3.076C321.923,233.205,320.695,232.29,319.304,232.29z
			 M322.778,238.868v3.063c-0.855-1.394-2.083-2.306-3.474-2.306c-1.396,0-2.623,0.912-3.468,2.306v-3.063
			c0-3.008,1.558-5.457,3.468-5.457C321.222,233.411,322.778,235.86,322.778,238.868z M319.304,224.956
			c-1.396,0-2.623,0.909-3.468,2.317v-3.081c0-2.996,1.558-5.436,3.468-5.436c1.917,0,3.474,2.439,3.474,5.436v3.081
			C321.923,225.865,320.695,224.956,319.304,224.956z M311.234,229.633c-1.894,0-3.459-2.44-3.459-5.44v-3.07
			c0.844,1.388,2.072,2.318,3.459,2.318c1.397,0,2.641-0.931,3.472-2.318v3.07C314.706,227.192,313.157,229.633,311.234,229.633z
			 M314.706,228.459v3.068c0,3.003-1.549,5.441-3.472,5.441c-1.894,0-3.459-2.438-3.459-5.441v-3.068
			c0.844,1.403,2.072,2.301,3.459,2.301C312.632,230.76,313.875,229.862,314.706,228.459z M311.234,222.309
			c-1.894,0-3.459-2.443-3.459-5.434v-1.327h6.931v1.327C314.706,219.865,313.157,222.309,311.234,222.309z M306.656,216.875v3.063
			c-0.845-1.393-2.082-2.305-3.475-2.305c-1.392,0-2.615,0.912-3.456,2.305v-3.063c0-0.465,0.061-0.901,0.129-1.327h6.668
			C306.591,215.974,306.656,216.41,306.656,216.875z M303.181,232.29c-1.392,0-2.615,0.915-3.456,2.313v-3.076
			c0-2.995,1.552-5.437,3.456-5.437c1.914,0,3.475,2.441,3.475,5.437v3.076C305.811,233.205,304.575,232.29,303.181,232.29z
			 M306.656,238.868v3.063c-0.845-1.394-2.082-2.306-3.475-2.306c-1.392,0-2.615,0.912-3.456,2.306v-3.063
			c0-3.008,1.552-5.457,3.456-5.457C305.095,233.411,306.656,235.86,306.656,238.868z M303.181,224.956
			c-1.392,0-2.615,0.909-3.456,2.317v-3.081c0-2.996,1.552-5.436,3.456-5.436c1.914,0,3.475,2.439,3.475,5.436v3.081
			C305.811,225.865,304.575,224.956,303.181,224.956z M295.124,229.633c-1.911,0-3.468-2.44-3.468-5.44v-3.07
			c0.849,1.388,2.083,2.318,3.468,2.318c1.391,0,2.624-0.931,3.47-2.318v3.07C298.594,227.192,297.033,229.633,295.124,229.633z
			 M298.594,228.459v3.068c0,3.003-1.561,5.441-3.47,5.441c-1.911,0-3.468-2.438-3.468-5.441v-3.068
			c0.849,1.403,2.083,2.301,3.468,2.301C296.515,230.76,297.748,229.862,298.594,228.459z M295.124,222.309
			c-1.911,0-3.468-2.443-3.468-5.434v-1.327h6.938v1.327C298.594,219.865,297.033,222.309,295.124,222.309z M290.534,216.875v3.063
			c-0.84-1.393-2.075-2.305-3.466-2.305c-1.39,0-2.629,0.912-3.473,2.305v-3.063c0-0.465,0.064-0.901,0.141-1.327h6.667
			C290.472,215.974,290.534,216.41,290.534,216.875z M287.067,232.29c-1.39,0-2.629,0.915-3.473,2.313v-3.076
			c0-2.995,1.561-5.437,3.473-5.437c1.906,0,3.466,2.441,3.466,5.437v3.076C289.694,233.205,288.458,232.29,287.067,232.29z
			 M290.534,238.868v3.063c-0.84-1.394-2.075-2.306-3.466-2.306c-1.39,0-2.629,0.912-3.473,2.306v-3.063
			c0-3.008,1.561-5.457,3.473-5.457C288.973,233.411,290.534,235.86,290.534,238.868z M287.067,224.956
			c-1.39,0-2.629,0.909-3.473,2.317v-3.081c0-2.996,1.561-5.436,3.473-5.436c1.906,0,3.466,2.439,3.466,5.436v3.081
			C289.694,225.865,288.458,224.956,287.067,224.956z M279.012,229.633c-1.921,0-3.479-2.44-3.479-5.44v-3.07
			c0.851,1.388,2.086,2.318,3.479,2.318c1.383,0,2.619-0.931,3.456-2.318v3.07C282.468,227.192,280.918,229.633,279.012,229.633z
			 M282.468,228.459v3.068c0,3.003-1.549,5.441-3.456,5.441c-1.921,0-3.479-2.438-3.479-5.441v-3.068
			c0.851,1.403,2.086,2.301,3.479,2.301C280.396,230.76,281.631,229.862,282.468,228.459z M279.012,222.309
			c-1.921,0-3.479-2.443-3.479-5.434v-1.327h6.935v1.327C282.468,219.865,280.918,222.309,279.012,222.309z M274.412,216.875v3.063
			c-0.843-1.393-2.078-2.305-3.468-2.305c-1.396,0-2.617,0.912-3.464,2.305v-3.063c0-0.465,0.061-0.901,0.132-1.327h6.666
			C274.35,215.974,274.412,216.41,274.412,216.875z M270.944,232.29c-1.396,0-2.617,0.915-3.464,2.313v-3.076
			c0-2.995,1.548-5.437,3.464-5.437c1.91,0,3.468,2.441,3.468,5.437v3.076C273.569,233.205,272.334,232.29,270.944,232.29z
			 M274.412,238.868v3.063c-0.843-1.394-2.078-2.306-3.468-2.306c-1.396,0-2.617,0.912-3.464,2.306v-3.063
			c0-3.008,1.548-5.457,3.464-5.457C272.854,233.411,274.412,235.86,274.412,238.868z M270.944,224.956
			c-1.396,0-2.617,0.909-3.464,2.317v-3.081c0-2.996,1.548-5.436,3.464-5.436c1.91,0,3.468,2.439,3.468,5.436v3.081
			C273.569,225.865,272.334,224.956,270.944,224.956z M262.883,229.633c-1.905,0-3.464-2.44-3.464-5.44v-3.07
			c0.838,1.388,2.074,2.318,3.464,2.318c1.385,0,2.629-0.931,3.468-2.318v3.07C266.351,227.192,264.798,229.633,262.883,229.633z
			 M266.351,228.459v3.068c0,3.003-1.553,5.441-3.468,5.441c-1.905,0-3.464-2.438-3.464-5.441v-3.068
			c0.838,1.403,2.074,2.301,3.464,2.301C264.268,230.76,265.512,229.862,266.351,228.459z M262.883,222.309
			c-1.905,0-3.464-2.443-3.464-5.434v-1.327h6.932v1.327C266.351,219.865,264.798,222.309,262.883,222.309z M258.298,216.875v3.059
			c-0.854-1.395-2.078-2.301-3.47-2.301c-1.398,0-2.619,0.912-3.468,2.305v-3.063c0-0.465,0.063-0.901,0.136-1.327h6.67
			C258.231,215.974,258.298,216.41,258.298,216.875z M254.828,232.29c-1.398,0-2.619,0.915-3.468,2.313v-3.076
			c0-2.995,1.559-5.437,3.468-5.437c1.915,0,3.47,2.441,3.47,5.437v3.063C257.444,233.199,256.221,232.29,254.828,232.29z
			 M258.298,238.868v3.053c-0.854-1.387-2.078-2.295-3.47-2.295c-1.398,0-2.619,0.912-3.468,2.306v-3.063
			c0-3.008,1.559-5.457,3.468-5.457C256.743,233.411,258.298,235.86,258.298,238.868z M254.828,224.956
			c-1.398,0-2.619,0.909-3.468,2.317v-3.081c0-2.996,1.559-5.436,3.468-5.436c1.915,0,3.47,2.439,3.47,5.436v3.068
			C257.444,225.865,256.221,224.956,254.828,224.956z M246.77,229.633c-1.439,0-2.672-1.375-3.197-3.324
			c-0.174-0.651-0.277-1.364-0.277-2.116v-3.07c0.845,1.388,2.082,2.318,3.474,2.318c1.385,0,2.611-0.925,3.458-2.305v3.057
			C250.228,227.192,248.686,229.633,246.77,229.633z M250.228,228.471v3.057c0,3.003-1.542,5.441-3.458,5.441
			c-1.439,0-2.672-1.37-3.197-3.326c-0.174-0.651-0.277-1.369-0.277-2.115v-3.068c0.845,1.403,2.082,2.301,3.474,2.301
			C248.155,230.76,249.381,229.862,250.228,228.471z M246.77,222.309c-1.439,0-2.672-1.375-3.197-3.323
			c-0.174-0.658-0.277-1.364-0.277-2.11v-1.327h6.932v1.327C250.228,219.865,248.686,222.309,246.77,222.309z M242.18,216.875v3.063
			c-0.832-1.393-2.072-2.305-3.471-2.305c-1.389,0-2.623,0.912-3.461,2.305v-3.063c0-0.465,0.058-0.901,0.13-1.327h6.665
			C242.118,215.974,242.18,216.41,242.18,216.875z M238.708,232.29c-1.389,0-2.623,0.915-3.461,2.313v-3.076
			c0-2.995,1.553-5.437,3.461-5.437c1.913,0,3.471,2.441,3.471,5.437v3.076C241.348,233.205,240.107,232.29,238.708,232.29z
			 M242.18,238.868v3.063c-0.832-1.394-2.072-2.306-3.471-2.306c-1.389,0-2.623,0.912-3.461,2.306v-3.063
			c0-3.008,1.553-5.457,3.461-5.457C240.621,233.411,242.18,235.86,242.18,238.868z M238.708,224.956
			c-1.389,0-2.623,0.909-3.461,2.317v-3.081c0-2.996,1.553-5.436,3.461-5.436c1.913,0,3.471,2.439,3.471,5.436v3.081
			C241.348,225.865,240.107,224.956,238.708,224.956z M230.653,229.633c-1.922,0-3.467-2.44-3.467-5.44v-3.07
			c0.836,1.388,2.079,2.318,3.467,2.318c1.391,0,2.625-0.931,3.463-2.318v3.07C234.116,227.192,232.564,229.633,230.653,229.633z
			 M234.116,228.459v3.068c0,3.003-1.552,5.441-3.463,5.441c-1.922,0-3.467-2.438-3.467-5.441v-3.068
			c0.836,1.403,2.079,2.301,3.467,2.301C232.044,230.76,233.278,229.862,234.116,228.459z M230.653,222.309
			c-1.922,0-3.467-2.443-3.467-5.434v-1.327h6.931v1.327C234.116,219.865,232.564,222.309,230.653,222.309z M226.065,216.875v3.063
			c-0.843-1.393-2.085-2.305-3.475-2.305c-1.383,0-2.626,0.912-3.462,2.305v-3.063c0-0.465,0.06-0.901,0.131-1.327h6.671
			C226.004,215.974,226.065,216.41,226.065,216.875z M222.59,232.29c-1.383,0-2.626,0.915-3.462,2.313v-3.076
			c0-2.995,1.546-5.437,3.462-5.437c1.911,0,3.475,2.441,3.475,5.437v3.076C225.222,233.205,223.979,232.29,222.59,232.29z
			 M226.065,238.868v3.063c-0.843-1.394-2.085-2.306-3.475-2.306c-1.383,0-2.626,0.912-3.462,2.306v-3.063
			c0-3.008,1.546-5.457,3.462-5.457C224.501,233.411,226.065,235.86,226.065,238.868z M222.59,224.956
			c-1.383,0-2.626,0.909-3.462,2.317v-3.081c0-2.996,1.546-5.436,3.462-5.436c1.911,0,3.475,2.439,3.475,5.436v3.081
			C225.222,225.865,223.979,224.956,222.59,224.956z M214.531,229.633c-1.913,0-3.466-2.44-3.466-5.44v-3.07
			c0.838,1.388,2.074,2.318,3.466,2.318c1.394,0,2.618-0.931,3.462-2.318v3.07C217.994,227.192,216.438,229.633,214.531,229.633z
			 M217.994,228.459v3.068c0,3.003-1.556,5.441-3.462,5.441c-1.913,0-3.466-2.438-3.466-5.441v-3.068
			c0.838,1.403,2.074,2.301,3.466,2.301C215.925,230.76,217.149,229.862,217.994,228.459z M214.531,222.309
			c-1.913,0-3.466-2.443-3.466-5.434v-1.327h6.928v1.327C217.994,219.865,216.438,222.309,214.531,222.309z M209.942,216.875v3.063
			c-0.848-1.393-2.079-2.305-3.468-2.305c-1.403,0-2.629,0.912-3.473,2.305v-3.063c0-0.465,0.063-0.901,0.133-1.327h6.674
			C209.879,215.974,209.942,216.41,209.942,216.875z M206.474,232.29c-1.403,0-2.629,0.915-3.473,2.313v-3.076
			c0-2.995,1.556-5.437,3.473-5.437c1.912,0,3.468,2.441,3.468,5.437v3.076C209.094,233.205,207.863,232.29,206.474,232.29z
			 M209.942,238.868v3.063c-0.848-1.394-2.079-2.306-3.468-2.306c-1.403,0-2.629,0.912-3.473,2.306v-3.063
			c0-3.008,1.556-5.457,3.473-5.457C208.385,233.411,209.942,235.86,209.942,238.868z M206.474,224.956
			c-1.403,0-2.629,0.909-3.473,2.317v-3.081c0-2.996,1.556-5.436,3.473-5.436c1.912,0,3.468,2.439,3.468,5.436v3.081
			C209.094,225.865,207.863,224.956,206.474,224.956z M198.404,229.633c-1.902,0-3.464-2.44-3.464-5.44v-3.07
			c0.847,1.388,2.073,2.318,3.464,2.318s2.625-0.931,3.475-2.318v3.07C201.879,227.192,200.321,229.633,198.404,229.633z
			 M201.879,228.459v3.068c0,3.003-1.558,5.441-3.475,5.441c-1.902,0-3.464-2.438-3.464-5.441v-3.068
			c0.847,1.403,2.073,2.301,3.464,2.301S201.03,229.862,201.879,228.459z M198.404,222.309c-1.902,0-3.464-2.443-3.464-5.434v-1.327
			h6.939v1.327C201.879,219.865,200.321,222.309,198.404,222.309z M193.818,216.875v3.063c-0.846-1.393-2.067-2.305-3.463-2.305
			c-1.398,0-2.625,0.912-3.464,2.305v-3.063c0-0.465,0.06-0.901,0.13-1.327h6.663C193.758,215.974,193.818,216.41,193.818,216.875z
			 M190.355,232.29c-1.398,0-2.625,0.915-3.464,2.313v-3.076c0-2.995,1.546-5.437,3.464-5.437c1.904,0,3.463,2.441,3.463,5.437
			v3.076C192.973,233.205,191.751,232.29,190.355,232.29z M193.818,238.868v3.063c-0.846-1.394-2.067-2.306-3.463-2.306
			c-1.398,0-2.625,0.912-3.464,2.306v-3.063c0-3.008,1.546-5.457,3.464-5.457C192.26,233.411,193.818,235.86,193.818,238.868z
			 M190.355,224.956c-1.398,0-2.625,0.909-3.464,2.317v-3.081c0-2.996,1.546-5.436,3.464-5.436c1.904,0,3.463,2.439,3.463,5.436
			v3.081C192.973,225.865,191.751,224.956,190.355,224.956z M182.294,229.633c-1.917,0-3.48-2.44-3.48-5.44v-3.07
			c0.851,1.388,2.085,2.318,3.48,2.318c1.392,0,2.618-0.931,3.462-2.318v3.07C185.756,227.192,184.197,229.633,182.294,229.633z
			 M185.756,228.459v3.068c0,3.003-1.559,5.441-3.462,5.441c-1.917,0-3.48-2.438-3.48-5.441v-3.068
			c0.851,1.403,2.085,2.301,3.48,2.301C183.686,230.76,184.912,229.862,185.756,228.459z M182.294,222.309
			c-1.917,0-3.48-2.443-3.48-5.434v-1.327h6.942v1.327C185.756,219.865,184.197,222.309,182.294,222.309z M177.703,216.875v3.063
			c-0.843-1.393-2.077-2.305-3.465-2.305c-1.39,0-2.632,0.912-3.47,2.305v-3.063c0-0.465,0.06-0.901,0.13-1.327h6.672
			C177.64,215.974,177.703,216.41,177.703,216.875z M174.238,232.29c-1.39,0-2.632,0.915-3.47,2.313v-3.076
			c0-2.995,1.552-5.437,3.47-5.437c1.904,0,3.465,2.441,3.465,5.437v3.076C176.86,233.205,175.626,232.29,174.238,232.29z
			 M177.703,238.868v3.063c-0.843-1.394-2.077-2.306-3.465-2.306c-1.39,0-2.632,0.912-3.47,2.306v-3.063
			c0-3.008,1.552-5.457,3.47-5.457C176.142,233.411,177.703,235.86,177.703,238.868z M174.238,224.956
			c-1.39,0-2.632,0.909-3.47,2.317v-3.081c0-2.996,1.552-5.436,3.47-5.436c1.904,0,3.465,2.439,3.465,5.436v3.081
			C176.86,225.865,175.626,224.956,174.238,224.956z M166.171,229.633c-1.919,0-3.47-2.44-3.47-5.44v-3.07
			c0.844,1.388,2.078,2.318,3.47,2.318c1.393,0,2.63-0.931,3.466-2.318v3.07C169.637,227.192,168.082,229.633,166.171,229.633z
			 M169.637,228.459v3.068c0,3.003-1.556,5.441-3.466,5.441c-1.919,0-3.47-2.438-3.47-5.441v-3.068
			c0.844,1.403,2.078,2.301,3.47,2.301C167.564,230.76,168.801,229.862,169.637,228.459z M166.171,222.309
			c-1.919,0-3.47-2.443-3.47-5.434v-1.327h6.936v1.327C169.637,219.865,168.082,222.309,166.171,222.309z M161.571,216.875v3.063
			c-0.832-1.393-2.068-2.305-3.464-2.305c-1.392,0-2.623,0.912-3.461,2.305v-3.063c0-0.465,0.062-0.901,0.135-1.327h6.66
			C161.511,215.974,161.571,216.41,161.571,216.875z M158.107,232.29c-1.392,0-2.623,0.915-3.461,2.313v-3.076
			c0-2.995,1.546-5.437,3.461-5.437c1.916,0,3.464,2.441,3.464,5.437v3.076C160.739,233.205,159.503,232.29,158.107,232.29z
			 M161.571,238.868v3.063c-0.832-1.394-2.068-2.306-3.464-2.306c-1.392,0-2.623,0.912-3.461,2.306v-3.063
			c0-3.008,1.546-5.457,3.461-5.457C160.023,233.411,161.571,235.86,161.571,238.868z M158.107,224.956
			c-1.392,0-2.623,0.909-3.461,2.317v-3.081c0-2.996,1.546-5.436,3.461-5.436c1.916,0,3.464,2.439,3.464,5.436v3.081
			C160.739,225.865,159.503,224.956,158.107,224.956z M150.04,229.633c-1.896,0-3.458-2.44-3.458-5.44v-3.07
			c0.833,1.388,2.077,2.318,3.458,2.318c1.402,0,2.64-0.931,3.476-2.318v3.07C153.515,227.192,151.971,229.633,150.04,229.633z
			 M153.515,228.459v3.068c0,3.003-1.544,5.441-3.476,5.441c-1.896,0-3.458-2.438-3.458-5.441v-3.068
			c0.833,1.403,2.077,2.301,3.458,2.301C151.441,230.76,152.679,229.862,153.515,228.459z M150.04,222.309
			c-1.896,0-3.458-2.443-3.458-5.434v-1.327h6.933v1.327C153.515,219.865,151.971,222.309,150.04,222.309z M145.46,216.875v3.045
			c-0.844-1.385-2.069-2.287-3.459-2.287h-0.004h-0.006c-1.382,0-2.606,0.902-3.449,2.287v-3.045c0-0.465,0.063-0.901,0.137-1.327
			h6.648C145.398,215.974,145.46,216.41,145.46,216.875z M142.001,232.29h-0.004h-0.006c-1.382,0-2.606,0.909-3.449,2.296v-3.059
			c0-2.995,1.551-5.424,3.455-5.437c1.901,0.013,3.463,2.441,3.463,5.437v3.059C144.616,233.199,143.391,232.29,142.001,232.29z
			 M145.46,238.868v3.046c-0.844-1.38-2.069-2.288-3.459-2.288h-0.004h-0.006c-1.382,0-2.606,0.908-3.449,2.288v-3.046
			c0-3.002,1.551-5.447,3.455-5.457C143.898,233.421,145.46,235.866,145.46,238.868z M142.001,224.956h-0.004h-0.006
			c-1.382,0-2.606,0.909-3.449,2.301v-3.064c0-2.996,1.551-5.425,3.455-5.436c1.901,0.011,3.463,2.439,3.463,5.436v3.064
			C144.616,225.865,143.391,224.956,142.001,224.956z M133.943,229.633c-1.915-0.011-3.467-2.443-3.467-5.44v-3.045
			c0.851,1.375,2.066,2.293,3.462,2.293h0.005h0.005c1.377,0,2.604-0.918,3.448-2.293v3.045
			C137.396,227.189,135.845,229.622,133.943,229.633z M137.396,228.48v3.047c0,2.996-1.551,5.438-3.453,5.441
			c-1.915-0.004-3.467-2.445-3.467-5.441v-3.047c0.851,1.39,2.066,2.279,3.462,2.279h0.005h0.005
			C135.325,230.76,136.553,229.87,137.396,228.48z M133.943,222.309c-1.915-0.004-3.467-2.448-3.467-5.434v-1.327h6.92v1.327
			C137.396,219.86,135.845,222.305,133.943,222.309z M129.353,216.875v3.063c-0.83-1.393-2.065-2.305-3.467-2.305
			c-1.384,0-2.625,0.912-3.469,2.305v-3.063c0-0.465,0.062-0.901,0.13-1.327h6.67C129.295,215.974,129.353,216.41,129.353,216.875z
			 M125.886,232.29c-1.384,0-2.625,0.915-3.469,2.313v-3.076c0-2.995,1.556-5.437,3.469-5.437c1.91,0,3.467,2.441,3.467,5.437v3.076
			C128.523,233.205,127.288,232.29,125.886,232.29z M129.353,238.868v3.063c-0.83-1.394-2.065-2.306-3.467-2.306
			c-1.384,0-2.625,0.912-3.469,2.306v-3.063c0-3.008,1.556-5.457,3.469-5.457C127.796,233.411,129.353,235.86,129.353,238.868z
			 M125.886,224.956c-1.384,0-2.625,0.909-3.469,2.317v-3.081c0-2.996,1.556-5.436,3.469-5.436c1.91,0,3.467,2.439,3.467,5.436
			v3.081C128.523,225.865,127.288,224.956,125.886,224.956z M117.825,229.633c-1.915,0-3.462-2.44-3.462-5.44v-3.07
			c0.845,1.388,2.076,2.318,3.462,2.318c1.397,0,2.635-0.931,3.471-2.318v3.07C121.296,227.192,119.749,229.633,117.825,229.633z
			 M121.296,228.459v3.068c0,3.003-1.547,5.441-3.471,5.441c-1.915,0-3.462-2.438-3.462-5.441v-3.068
			c0.845,1.403,2.076,2.301,3.462,2.301C119.222,230.76,120.46,229.862,121.296,228.459z M117.825,222.309
			c-1.915,0-3.462-2.443-3.462-5.434v-1.327h6.933v1.327C121.296,219.865,119.749,222.309,117.825,222.309z M113.237,216.875v3.063
			c-0.854-1.393-2.073-2.305-3.471-2.305c-1.385,0-2.616,0.912-3.459,2.305v-3.063c0-0.465,0.061-0.901,0.128-1.327h6.67
			C113.172,215.974,113.237,216.41,113.237,216.875z M109.766,232.29c-1.385,0-2.616,0.915-3.459,2.313v-3.076
			c0-2.995,1.545-5.437,3.459-5.437c1.919,0,3.471,2.441,3.471,5.437v3.076C112.383,233.205,111.164,232.29,109.766,232.29z
			 M113.237,238.868v3.063c-0.854-1.394-2.073-2.306-3.471-2.306c-1.385,0-2.616,0.912-3.459,2.306v-3.063
			c0-3.008,1.545-5.457,3.459-5.457C111.686,233.411,113.237,235.86,113.237,238.868z M109.766,224.956
			c-1.385,0-2.616,0.909-3.459,2.317v-3.081c0-2.996,1.545-5.436,3.459-5.436c1.919,0,3.471,2.439,3.471,5.436v3.081
			C112.383,225.865,111.164,224.956,109.766,224.956z M101.709,229.633c-1.908,0-3.466-2.44-3.466-5.44v-3.07
			c0.838,1.388,2.066,2.318,3.466,2.318c1.385,0,2.622-0.931,3.463-2.318v3.07C105.172,227.192,103.618,229.633,101.709,229.633z
			 M105.172,228.459v3.068c0,3.003-1.555,5.441-3.463,5.441c-1.908,0-3.466-2.438-3.466-5.441v-3.068
			c0.838,1.403,2.066,2.301,3.466,2.301C103.094,230.76,104.331,229.862,105.172,228.459z M101.709,222.309
			c-1.908,0-3.466-2.443-3.466-5.434v-1.327h6.93v1.327C105.172,219.865,103.618,222.309,101.709,222.309z M97.122,216.875v3.063
			c-0.846-1.393-2.085-2.305-3.474-2.305c-1.394,0-2.631,0.912-3.46,2.305v-3.063c0-0.465,0.065-0.901,0.13-1.327h6.67
			C97.059,215.974,97.122,216.41,97.122,216.875z M93.648,224.956c-1.394,0-2.631,0.909-3.46,2.317v-3.081
			c0-2.996,1.548-5.436,3.46-5.436c1.915,0,3.474,2.439,3.474,5.436v3.081C96.276,225.865,95.037,224.956,93.648,224.956z
			 M97.122,231.527v3.076c-0.846-1.398-2.085-2.313-3.474-2.313c-1.394,0-2.631,0.915-3.46,2.313v-3.076
			c0-2.995,1.548-5.437,3.46-5.437C95.563,226.091,97.122,228.532,97.122,231.527z M90.188,238.868c0-3.008,1.548-5.457,3.46-5.457
			c1.915,0,3.474,2.449,3.474,5.457v3.063c-0.846-1.394-2.085-2.306-3.474-2.306c-1.394,0-2.631,0.912-3.46,2.306V238.868z
			 M93.648,240.745c0.838,0,1.586,0.509,2.181,1.293h-4.354C92.065,241.254,92.809,240.745,93.648,240.745z M109.766,240.745
			c0.845,0,1.584,0.509,2.181,1.293h-4.355C108.188,241.254,108.928,240.745,109.766,240.745z M125.886,240.745
			c0.838,0,1.584,0.509,2.18,1.293h-4.356C124.307,241.254,125.052,240.745,125.886,240.745z M141.997,240.745
			c0.836,0.002,1.578,0.513,2.174,1.293h-4.339C140.426,241.258,141.165,240.747,141.997,240.745z M158.107,240.745
			c0.838,0,1.584,0.509,2.183,1.293h-4.359C156.524,241.254,157.269,240.745,158.107,240.745z M174.238,240.745
			c0.833,0,1.573,0.509,2.17,1.293h-4.353C172.653,241.254,173.401,240.745,174.238,240.745z M190.355,240.745
			c0.833,0,1.58,0.509,2.177,1.293h-4.354C188.772,241.254,189.518,240.745,190.355,240.745z M206.474,240.745
			c0.836,0,1.582,0.509,2.178,1.293h-4.359C204.89,241.254,205.636,240.745,206.474,240.745z M222.59,240.745
			c0.834,0,1.58,0.509,2.182,1.293h-4.359C221.011,241.254,221.752,240.745,222.59,240.745z M238.708,240.745
			c0.838,0,1.585,0.509,2.182,1.293h-4.355C237.131,241.254,237.873,240.745,238.708,240.745z M254.828,240.745
			c0.836,0,1.582,0.509,2.177,1.293h-4.355C253.249,241.254,253.994,240.745,254.828,240.745z M270.944,240.745
			c0.839,0,1.581,0.509,2.177,1.293h-4.353C269.364,241.254,270.106,240.745,270.944,240.745z M287.067,240.745
			c0.833,0,1.58,0.509,2.177,1.293h-4.357C285.486,241.254,286.229,240.745,287.067,240.745z M303.181,240.745
			c0.838,0,1.584,0.509,2.184,1.293h-4.361C301.601,241.254,302.343,240.745,303.181,240.745z M319.304,240.745
			c0.842,0,1.586,0.509,2.188,1.293h-4.366C317.72,241.254,318.466,240.745,319.304,240.745z M335.43,240.745
			c0.836,0,1.579,0.509,2.177,1.293h-4.361C333.843,241.254,334.589,240.745,335.43,240.745z M351.554,240.745
			c0.831,0,1.572,0.509,2.168,1.293h-4.358C349.961,241.254,350.707,240.745,351.554,240.745z M367.668,240.745
			c0.838,0,1.582,0.509,2.178,1.293h-4.357C366.084,241.254,366.828,240.745,367.668,240.745z M86.709,215.548h2.349v1.327
			c0,2.99-1.561,5.434-3.476,5.434c-0.528,0-1.02-0.238-1.469-0.586L86.709,215.548z M75.786,241.533
			c0.509-0.482,1.096-0.788,1.737-0.788c0.834,0,1.58,0.509,2.18,1.293H75.57L75.786,241.533z M373.09,242.038
			c-0.34-0.832-0.541-1.807-0.541-2.868v-3.074c0.84,1.407,2.072,2.312,3.468,2.312c0.631,0,1.224-0.206,1.774-0.548l1.049,4.179
			H373.09z M377.186,222.261c-0.369,0.214-0.758,0.367-1.169,0.367c-1.908,0-3.468-2.44-3.468-5.437v-1.644h4.637V222.261z
			 M464.995,149.534c-1.139,0-2.175,0.556-3.021,1.469h-0.813v-2.305c0-3.31,1.722-6.008,3.833-6.008
			c2.107,0,3.823,2.698,3.823,6.008v2.305h-0.806C467.172,150.09,466.136,149.534,464.995,149.534z M466.63,151.003h-3.27
			c0.517-0.364,1.069-0.585,1.635-0.585C465.562,150.418,466.11,150.639,466.63,151.003z M450.23,151.003
			c-0.837-0.913-1.878-1.469-3.021-1.469c-1.127,0-2.166,0.556-3.01,1.469h-0.812v-2.305c0-3.31,1.722-6.008,3.821-6.008
			c2.112,0,3.831,2.698,3.831,6.008v2.305H450.23z M448.848,151.003h-3.256c0.516-0.364,1.06-0.585,1.617-0.585
			C447.783,150.418,448.332,150.639,448.848,151.003z M432.448,151.003c-0.838-0.913-1.877-1.469-3.018-1.469
			c-1.132,0-2.17,0.556-3.009,1.469h-0.8v-2.305c0-3.31,1.705-6.008,3.809-6.008c2.112,0,3.823,2.698,3.823,6.008v2.305H432.448z
			 M431.069,151.003h-3.265c0.513-0.364,1.064-0.585,1.626-0.585C430.002,150.418,430.548,150.639,431.069,151.003z
			 M414.679,151.003c-0.849-0.913-1.89-1.469-3.016-1.469c-1.148,0-2.189,0.556-3.028,1.469h-0.804v-2.305
			c0-3.31,1.722-6.008,3.832-6.008c2.106,0,3.826,2.698,3.826,6.008v2.305H414.679z M413.287,151.003h-3.267
			c0.516-0.364,1.071-0.585,1.643-0.585C412.222,150.418,412.774,150.639,413.287,151.003z M396.89,151.003
			c-0.836-0.913-1.871-1.469-3.013-1.469c-1.139,0-2.184,0.556-3.026,1.469h-0.811v-2.305c0-3.31,1.731-6.008,3.837-6.008
			c2.104,0,3.816,2.698,3.816,6.008v2.305H396.89z M395.502,151.003h-3.267c0.518-0.364,1.071-0.585,1.641-0.585
			C394.44,150.418,394.987,150.639,395.502,151.003z M379.117,151.003c-0.838-0.913-1.882-1.469-3.018-1.469
			c-1.145,0-2.183,0.556-3.023,1.469h-0.806v-2.305c0-3.31,1.714-6.008,3.829-6.008c2.108,0,3.824,2.698,3.824,6.008v2.305H379.117z
			 M377.729,151.003h-3.27c0.519-0.364,1.071-0.585,1.639-0.585C376.662,150.418,377.215,150.639,377.729,151.003z M361.332,151.003
			c-0.84-0.913-1.886-1.469-3.022-1.469c-1.142,0-2.177,0.556-3.02,1.469h-0.807v-2.305c0-0.015,0.004-0.024,0.004-0.038
			c1.873-1.705,3.822-3.409,5.785-5.077c1.113,1.044,1.865,2.933,1.865,5.115v2.305H361.332z M359.948,151.003h-3.265
			c0.513-0.364,1.064-0.585,1.626-0.585C358.883,150.418,359.433,150.639,359.948,151.003z M378.992,128.678
			c0.568,1.043,0.931,2.372,0.931,3.848v3.393c-0.929-1.55-2.292-2.547-3.824-2.547c-1.541,0-2.904,0.997-3.829,2.547v-2.089
			C374.81,131.846,377.111,130.09,378.992,128.678z M384.983,138.534c-2.117,0-3.829-2.694-3.829-6.009v-3.392
			c0.937,1.554,2.301,2.548,3.829,2.548c1.539,0,2.896-0.994,3.822-2.548v3.392C388.806,135.84,387.089,138.534,384.983,138.534z
			 M388.806,137.221v3.397c0,3.306-1.716,5.992-3.822,5.992c-2.117,0-3.829-2.687-3.829-5.992v-3.397
			c0.937,1.542,2.301,2.551,3.829,2.551C386.522,139.771,387.879,138.763,388.806,137.221z M379.923,140.618v3.386
			c-0.929-1.543-2.292-2.546-3.824-2.546c-1.541,0-2.904,1.003-3.829,2.546v-3.386c0-3.318,1.714-5.999,3.829-5.999
			C378.207,134.619,379.923,137.3,379.923,140.618z M367.201,139.771c1.54,0,2.897-1.009,3.826-2.551v3.397
			c0,3.306-1.72,5.992-3.826,5.992c-2.031,0-3.682-2.51-3.798-5.662c0.681-0.562,1.363-1.123,2.031-1.672
			C365.983,139.587,366.581,139.771,367.201,139.771z M366.547,138.38c1.397-1.134,2.775-2.238,4.099-3.282
			c-0.611,2.029-1.921,3.437-3.444,3.437C366.971,138.534,366.763,138.442,366.547,138.38z M361.188,142.808
			c0.315-0.267,0.629-0.535,0.948-0.801v1.997C361.863,143.541,361.537,143.151,361.188,142.808z M363.385,148.698v-3.397
			c0.922,1.56,2.287,2.545,3.816,2.545c1.54,0,2.897-0.985,3.826-2.545v3.397c0,0.827-0.141,1.591-0.331,2.305h-6.979
			C363.521,150.289,363.385,149.525,363.385,148.698z M381.155,148.698v-3.397c0.937,1.56,2.301,2.545,3.829,2.545
			c1.539,0,2.896-0.985,3.822-2.545v3.397c0,0.827-0.138,1.591-0.332,2.305h-6.986C381.293,150.289,381.155,149.525,381.155,148.698
			z M399.283,97.271c0.909,1.253,2.119,2.082,3.482,2.082c1.532,0,2.898-1.021,3.82-2.55v3.384c0,3.314-1.716,5.999-3.82,5.999
			c-2.112,0-3.833-2.685-3.833-5.999v-2.299C399.048,97.686,399.166,97.476,399.283,97.271z M414.165,71.489
			c0.799,1.095,1.324,2.663,1.324,4.455v3.386c-0.934-1.553-2.307-2.543-3.826-2.543c-0.226,0-0.439,0.063-0.656,0.104
			C412.024,75.145,413.076,73.344,414.165,71.489z M424.172,64.723c0.062,0.111,0.125,0.219,0.192,0.329v2.807
			c0,3.296-1.71,5.989-3.822,5.989c-2.106,0-3.818-2.693-3.818-5.989v-0.726c0.294-0.501,0.593-1.006,0.892-1.513
			c0.826,0.864,1.832,1.391,2.927,1.391C421.979,67.011,423.254,66.116,424.172,64.723z M456.744,122.248
			c-0.213,0.064-0.424,0.108-0.65,0.108c-2.104,0-3.809-2.691-3.809-5.995v-2.476C454.413,117.796,455.851,120.534,456.744,122.248z
			 M480.499,142.276c-0.598,0.414-1.115,0.983-1.548,1.678v-2.97C479.467,141.409,479.979,141.84,480.499,142.276z M486.491,148.771
			v2.231h-0.721c-0.833-0.907-1.869-1.469-2.991-1.469c-0.806,0-1.551,0.283-2.223,0.763c-0.295,0.194-0.564,0.438-0.82,0.706
			h-0.785v-2.305c0-2.429,0.927-4.522,2.256-5.462c0.092-0.063,0.201-0.068,0.293-0.112c1.644,1.391,3.273,2.808,4.87,4.232
			C486.445,147.807,486.491,148.279,486.491,148.771z M484.208,151.003h-3.114c0.504-0.318,1.043-0.505,1.578-0.505
			C483.201,150.498,483.722,150.685,484.208,151.003z M468.818,144.004c-0.926-1.543-2.289-2.546-3.823-2.546
			c-1.537,0-2.897,1.003-3.833,2.546v-3.386c0-3.318,1.722-5.999,3.833-5.999c2.107,0,3.823,2.681,3.823,5.999V144.004z
			 M470.063,148.698v-3.186c0.922,1.465,2.235,2.423,3.715,2.423c0.799,0,1.546-0.284,2.216-0.76
			c0.612-0.414,1.156-1.004,1.609-1.724v3.319c0,0.802-0.13,1.535-0.314,2.231h-6.894
			C470.201,150.289,470.063,149.525,470.063,148.698z M477.603,140.69c0,2.427-0.923,4.51-2.246,5.453
			c-0.452,0.301-0.951,0.467-1.471,0.467c-2.108,0-3.823-2.687-3.823-5.992v-3.182c0.922,1.465,2.235,2.411,3.715,2.411
			c0.813,0,1.559-0.282,2.219-0.756c0.11-0.08,0.209-0.188,0.315-0.276c0.429,0.349,0.856,0.698,1.291,1.053V140.69z
			 M475.348,138.071c-0.455,0.296-0.946,0.463-1.462,0.463c-1.803,0-3.283-1.967-3.688-4.593c1.647,1.285,3.377,2.664,5.172,4.108
			C475.36,138.055,475.353,138.065,475.348,138.071z M468.818,135.918c-0.926-1.55-2.289-2.547-3.823-2.547
			c-1.537,0-2.897,0.997-3.833,2.547v-3.393c0-1.799,0.535-3.372,1.337-4.465c1.729,1.292,3.889,2.924,6.319,4.813V135.918z
			 M461.162,127.837v-0.767c0.134,0.095,0.238,0.173,0.367,0.272C461.413,127.508,461.279,127.655,461.162,127.837z
			 M456.094,138.534c-2.104,0-3.809-2.694-3.809-6.009v-3.392c0.926,1.554,2.279,2.548,3.809,2.548c1.542,0,2.901-0.994,3.836-2.548
			v3.392C459.93,135.84,458.211,138.534,456.094,138.534z M459.93,137.221v3.397c0,3.306-1.719,5.992-3.836,5.992
			c-2.104,0-3.809-2.687-3.809-5.992v-3.397c0.926,1.542,2.279,2.551,3.809,2.551C457.636,139.771,458.995,138.763,459.93,137.221z
			 M447.209,133.371c-1.525,0-2.883,0.997-3.821,2.547v-3.393c0-3.309,1.722-5.993,3.821-5.993c2.112,0,3.831,2.685,3.831,5.993
			v3.393C450.114,134.368,448.756,133.371,447.209,133.371z M451.04,140.618v3.386c-0.926-1.543-2.284-2.546-3.831-2.546
			c-1.525,0-2.883,1.003-3.821,2.546v-3.386c0-3.318,1.722-5.999,3.821-5.999C449.321,134.619,451.04,137.3,451.04,140.618z
			 M447.209,125.278c-1.525,0-2.883,1.014-3.821,2.559v-3.388c0-3.313,1.722-6.004,3.821-6.004c2.112,0,3.831,2.69,3.831,6.004
			v3.388C450.114,126.292,448.756,125.278,447.209,125.278z M447.209,117.217c-1.525,0-2.883,0.989-3.821,2.532v-3.388
			c0-3.308,1.722-6.002,3.821-6.002c2.112,0,3.831,2.694,3.831,6.002v3.388C450.114,118.206,448.756,117.217,447.209,117.217z
			 M447.209,109.116c-1.525,0-2.883,0.998-3.821,2.546v-3.391c0-2.654,1.119-4.89,2.652-5.671c1.924,3.438,3.592,6.439,5,9.012v0.05
			C450.114,110.114,448.756,109.116,447.209,109.116z M443.388,103.586v-3.398c0-0.667,0.1-1.286,0.23-1.884
			c0.645,1.136,1.257,2.225,1.853,3.282C444.674,102.021,443.944,102.666,443.388,103.586z M438.319,138.534
			c-2.111,0-3.829-2.694-3.829-6.009v-3.392c0.942,1.554,2.301,2.548,3.829,2.548c1.539,0,2.894-0.994,3.823-2.548v3.392
			C442.143,135.84,440.428,138.534,438.319,138.534z M442.143,137.221v3.397c0,3.306-1.715,5.992-3.823,5.992
			c-2.111,0-3.829-2.687-3.829-5.992v-3.397c0.942,1.542,2.301,2.551,3.829,2.551C439.858,139.771,441.213,138.763,442.143,137.221z
			 M438.319,130.448c-2.111,0-3.829-2.69-3.829-5.999v-3.403c0.942,1.556,2.301,2.552,3.829,2.552c1.539,0,2.894-0.996,3.823-2.552
			v3.403C442.143,127.758,440.428,130.448,438.319,130.448z M438.319,122.356c-2.111,0-3.829-2.691-3.829-5.995v-3.392
			c0.942,1.542,2.301,2.559,3.829,2.559c1.539,0,2.894-1.017,3.823-2.559v3.392C442.143,119.665,440.428,122.356,438.319,122.356z
			 M438.319,114.279c-2.111,0-3.829-2.696-3.829-6.008v-3.388c0.942,1.544,2.301,2.547,3.829,2.547c1.539,0,2.894-1.003,3.823-2.547
			v3.388C442.143,111.583,440.428,114.279,438.319,114.279z M438.319,106.187c-2.111,0-3.829-2.685-3.829-5.999v-3.384
			c0.942,1.529,2.301,2.55,3.829,2.55c1.539,0,2.894-1.021,3.823-2.55v3.384C442.143,103.502,440.428,106.187,438.319,106.187z
			 M438.319,98.107c-2.111,0-3.829-2.697-3.829-6V88.71c0.942,1.549,2.301,2.562,3.829,2.562c0.407,0,0.79-0.107,1.153-0.254
			c0.754,1.321,1.484,2.599,2.184,3.83C441.02,96.757,439.791,98.107,438.319,98.107z M438.319,90.024
			c-2.111,0-3.829-2.695-3.829-5.998v-1.657c1.546,2.661,3.005,5.199,4.371,7.579C438.688,89.995,438.504,90.024,438.319,90.024z
			 M429.431,133.371c-1.529,0-2.892,0.997-3.809,2.547v-3.393c0-3.309,1.705-5.993,3.809-5.993c2.112,0,3.823,2.685,3.823,5.993
			v3.393C432.327,134.368,430.97,133.371,429.431,133.371z M433.254,140.618v3.386c-0.927-1.543-2.284-2.546-3.823-2.546
			c-1.529,0-2.892,1.003-3.809,2.546v-3.386c0-3.318,1.705-5.999,3.809-5.999C431.543,134.619,433.254,137.3,433.254,140.618z
			 M429.431,125.278c-1.529,0-2.892,1.014-3.809,2.559v-3.388c0-3.313,1.705-6.004,3.809-6.004c2.112,0,3.823,2.69,3.823,6.004
			v3.388C432.327,126.292,430.97,125.278,429.431,125.278z M429.431,117.217c-1.529,0-2.892,0.989-3.809,2.532v-3.388
			c0-3.308,1.705-6.002,3.809-6.002c2.112,0,3.823,2.694,3.823,6.002v3.388C432.327,118.206,430.97,117.217,429.431,117.217z
			 M429.431,109.116c-1.529,0-2.892,0.998-3.809,2.546v-3.391c0-3.297,1.705-5.992,3.809-5.992c2.112,0,3.823,2.695,3.823,5.992
			v3.391C432.327,110.114,430.97,109.116,429.431,109.116z M429.431,101.03c-1.529,0-2.892,1.001-3.809,2.556v-3.398
			c0-3.301,1.705-5.987,3.809-5.987c2.112,0,3.823,2.687,3.823,5.987v3.398C432.327,102.031,430.97,101.03,429.431,101.03z
			 M429.431,92.947c-1.529,0-2.892,1.011-3.809,2.546v-3.386c0-3.31,1.705-6.01,3.809-6.01c2.112,0,3.823,2.7,3.823,6.01v3.386
			C432.327,93.958,430.97,92.947,429.431,92.947z M429.431,84.867c-1.529,0-2.892,1.001-3.809,2.546v-3.387
			c0-3.313,1.705-6.01,3.809-6.01c2.112,0,3.823,2.696,3.823,6.01v3.387C432.327,85.868,430.97,84.867,429.431,84.867z
			 M429.431,76.787c-1.529,0-2.892,0.99-3.809,2.543v-3.386c0-2.308,0.84-4.247,2.065-5.248c1.404,2.396,2.75,4.699,4.036,6.914
			C431.04,77.1,430.266,76.787,429.431,76.787z M425.622,71.244v-3.386c0-0.206,0.037-0.391,0.049-0.585
			c0.475,0.798,0.935,1.588,1.393,2.367C426.519,70.059,426.02,70.573,425.622,71.244z M416.724,137.221
			c0.927,1.542,2.293,2.551,3.818,2.551c1.534,0,2.892-1.009,3.822-2.551v3.397c0,3.306-1.71,5.992-3.822,5.992
			c-2.106,0-3.818-2.687-3.818-5.992V137.221z M420.542,138.534c-2.106,0-3.818-2.694-3.818-6.009v-3.392
			c0.927,1.554,2.293,2.548,3.818,2.548c1.534,0,2.892-0.994,3.822-2.548v3.392C424.364,135.84,422.654,138.534,420.542,138.534z
			 M420.542,130.448c-2.106,0-3.818-2.69-3.818-5.999v-3.403c0.927,1.556,2.293,2.552,3.818,2.552c1.534,0,2.892-0.996,3.822-2.552
			v3.403C424.364,127.758,422.654,130.448,420.542,130.448z M420.542,122.356c-2.106,0-3.818-2.691-3.818-5.995v-3.392
			c0.927,1.542,2.293,2.559,3.818,2.559c1.534,0,2.892-1.017,3.822-2.559v3.392C424.364,119.665,422.654,122.356,420.542,122.356z
			 M420.542,114.279c-2.106,0-3.818-2.696-3.818-6.008v-3.388c0.927,1.544,2.293,2.547,3.818,2.547c1.534,0,2.892-1.003,3.822-2.547
			v3.388C424.364,111.583,422.654,114.279,420.542,114.279z M420.542,106.187c-2.106,0-3.818-2.685-3.818-5.999v-3.384
			c0.927,1.529,2.293,2.55,3.818,2.55c1.534,0,2.892-1.021,3.822-2.55v3.384C424.364,103.502,422.654,106.187,420.542,106.187z
			 M420.542,98.107c-2.106,0-3.818-2.697-3.818-6V88.71c0.927,1.549,2.293,2.562,3.818,2.562c1.534,0,2.892-1.013,3.822-2.562v3.397
			C424.364,95.41,422.654,98.107,420.542,98.107z M420.542,90.024c-2.106,0-3.818-2.695-3.818-5.998V80.63
			c0.927,1.54,2.293,2.55,3.818,2.55c1.534,0,2.892-1.01,3.822-2.55v3.396C424.364,87.329,422.654,90.024,420.542,90.024z
			 M420.542,81.938c-2.106,0-3.818-2.685-3.818-5.993v-3.403c0.927,1.548,2.293,2.551,3.818,2.551c1.534,0,2.892-1.003,3.822-2.551
			v3.403C424.364,79.253,422.654,81.938,420.542,81.938z M414.816,70.375c0.225-0.379,0.447-0.754,0.673-1.141v2.01
			C415.29,70.916,415.054,70.646,414.816,70.375z M409.98,78.654c0.509-0.396,1.075-0.638,1.683-0.638
			c2.106,0,3.826,2.696,3.826,6.01v3.387c-0.934-1.545-2.307-2.546-3.826-2.546c-1.55,0-2.908,1.001-3.832,2.546v-3.387
			c0-0.746,0.096-1.451,0.259-2.112C408.707,80.853,409.337,79.765,409.98,78.654z M411.663,133.371
			c-1.55,0-2.908,0.997-3.832,2.547v-3.393c0-3.309,1.722-5.993,3.832-5.993c2.106,0,3.826,2.685,3.826,5.993v3.393
			C414.555,134.368,413.183,133.371,411.663,133.371z M415.489,140.618v3.386c-0.934-1.543-2.307-2.546-3.826-2.546
			c-1.55,0-2.908,1.003-3.832,2.546v-3.386c0-3.318,1.722-5.999,3.832-5.999C413.77,134.619,415.489,137.3,415.489,140.618z
			 M411.663,125.278c-1.55,0-2.908,1.014-3.832,2.559v-3.388c0-3.313,1.722-6.004,3.832-6.004c2.106,0,3.826,2.69,3.826,6.004v3.388
			C414.555,126.292,413.183,125.278,411.663,125.278z M411.663,117.217c-1.55,0-2.908,0.989-3.832,2.532v-3.388
			c0-3.308,1.722-6.002,3.832-6.002c2.106,0,3.826,2.694,3.826,6.002v3.388C414.555,118.206,413.183,117.217,411.663,117.217z
			 M411.663,109.116c-1.55,0-2.908,0.998-3.832,2.546v-3.391c0-3.297,1.722-5.992,3.832-5.992c2.106,0,3.826,2.695,3.826,5.992
			v3.391C414.555,110.114,413.183,109.116,411.663,109.116z M411.663,101.03c-1.55,0-2.908,1.001-3.832,2.556v-3.398
			c0-3.301,1.722-5.987,3.832-5.987c2.106,0,3.826,2.687,3.826,5.987v3.398C414.555,102.031,413.183,101.03,411.663,101.03z
			 M411.663,92.947c-1.55,0-2.908,1.011-3.832,2.546v-3.386c0-3.31,1.722-6.01,3.832-6.01c2.106,0,3.826,2.7,3.826,6.01v3.386
			C414.555,93.958,413.183,92.947,411.663,92.947z M402.766,91.271c1.532,0,2.898-1.013,3.82-2.562v3.397c0,3.303-1.716,6-3.82,6
			c-1.125,0-2.108-0.808-2.808-2.029c0.87-1.529,1.789-3.144,2.748-4.813C402.726,91.265,402.743,91.271,402.766,91.271z
			 M403.478,89.911c0.975-1.702,2.004-3.492,3.074-5.34C406.392,87.243,405.129,89.417,403.478,89.911z M402.766,138.534
			c-2.112,0-3.833-2.694-3.833-6.009v-3.392c0.935,1.554,2.297,2.548,3.833,2.548c1.532,0,2.898-0.994,3.82-2.548v3.392
			C406.586,135.84,404.87,138.534,402.766,138.534z M406.586,137.221v3.397c0,3.306-1.716,5.992-3.82,5.992
			c-2.112,0-3.833-2.687-3.833-5.992v-3.397c0.935,1.542,2.297,2.551,3.833,2.551C404.297,139.771,405.664,138.763,406.586,137.221z
			 M402.766,130.448c-2.112,0-3.833-2.69-3.833-5.999v-3.403c0.935,1.556,2.297,2.552,3.833,2.552c1.532,0,2.898-0.996,3.82-2.552
			v3.403C406.586,127.758,404.87,130.448,402.766,130.448z M402.766,122.356c-2.112,0-3.833-2.691-3.833-5.995v-3.392
			c0.935,1.542,2.297,2.559,3.833,2.559c1.532,0,2.898-1.017,3.82-2.559v3.392C406.586,119.665,404.87,122.356,402.766,122.356z
			 M402.766,114.279c-2.112,0-3.833-2.696-3.833-6.008v-3.388c0.935,1.544,2.297,2.547,3.833,2.547c1.532,0,2.898-1.003,3.82-2.547
			v3.388C406.586,111.583,404.87,114.279,402.766,114.279z M397.693,100.188v3.398c-0.332-0.563-0.725-1.048-1.159-1.438
			c0.371-0.668,0.753-1.354,1.151-2.056C397.685,100.128,397.693,100.156,397.693,100.188z M395.916,103.247
			c1.062,1.06,1.777,2.903,1.777,5.024v3.391c-0.926-1.548-2.274-2.546-3.816-2.546c-0.493,0-0.96,0.134-1.404,0.324
			C393.501,107.568,394.646,105.509,395.916,103.247z M393.877,133.371c-1.534,0-2.905,0.997-3.837,2.547v-3.393
			c0-3.309,1.731-5.993,3.837-5.993c2.104,0,3.816,2.685,3.816,5.993v3.393C396.767,134.368,395.418,133.371,393.877,133.371z
			 M397.693,140.618v3.386c-0.926-1.543-2.274-2.546-3.816-2.546c-1.534,0-2.905,1.003-3.837,2.546v-3.386
			c0-3.318,1.731-5.999,3.837-5.999C395.98,134.619,397.693,137.3,397.693,140.618z M393.877,125.278
			c-1.534,0-2.905,1.014-3.837,2.559v-3.388c0-3.313,1.731-6.004,3.837-6.004c2.104,0,3.816,2.69,3.816,6.004v3.388
			C396.767,126.292,395.418,125.278,393.877,125.278z M393.877,117.217c-1.534,0-2.905,0.989-3.837,2.532v-3.388
			c0-3.308,1.731-6.002,3.837-6.002c2.104,0,3.816,2.694,3.816,6.002v3.388C396.767,118.206,395.418,117.217,393.877,117.217z
			 M388.806,116.361c0,2.994-1.412,5.462-3.244,5.902c0.708-1.365,1.769-3.375,3.244-6.116V116.361z M398.933,148.698v-3.397
			c0.935,1.56,2.297,2.545,3.833,2.545c1.532,0,2.898-0.985,3.82-2.545v3.397c0,0.827-0.138,1.591-0.333,2.305h-6.984
			C399.074,150.289,398.933,149.525,398.933,148.698z M416.724,148.698v-3.397c0.927,1.56,2.293,2.545,3.818,2.545
			c1.534,0,2.892-0.985,3.822-2.545v3.397c0,0.827-0.139,1.591-0.336,2.305h-6.972C416.862,150.289,416.724,149.525,416.724,148.698
			z M434.49,148.698v-3.397c0.942,1.56,2.301,2.545,3.829,2.545c1.539,0,2.894-0.985,3.823-2.545v3.397
			c0,0.827-0.143,1.591-0.336,2.305h-6.979C434.628,150.289,434.49,149.525,434.49,148.698z M452.285,148.698v-3.397
			c0.926,1.56,2.279,2.545,3.809,2.545c1.542,0,2.901-0.985,3.836-2.545v3.397c0,0.827-0.14,1.591-0.336,2.305h-6.979
			C452.423,150.289,452.285,149.525,452.285,148.698z M488.046,151.003c-0.181-0.696-0.309-1.43-0.309-2.231v-0.194
			c0.892,0.808,1.768,1.62,2.623,2.426H488.046z M458.253,124.939c0.033,0.024,0.599,0.429,1.517,1.098
			c-0.455,2.534-1.91,4.411-3.676,4.411c-2.104,0-3.809-2.69-3.809-5.999v-3.403c0.926,1.556,2.279,2.552,3.809,2.552
			c0.429,0,0.822-0.115,1.213-0.264c0.393,0.77,0.59,1.164,0.599,1.186L458.253,124.939z M426.301,41.916
			c1.124,2.835-0.272,6.043-3.109,7.167c-0.328,0.13-0.654,0.212-0.984,0.279v-1.94c1.386-0.472,2.404-1.832,2.404-3.484
			c0-1.658-1.019-3.011-2.404-3.483v-1.931C424.004,38.875,425.584,40.092,426.301,41.916z M416.012,45.965
			c-1.117-2.836,0.276-6.049,3.115-7.17c0.359-0.139,0.72-0.239,1.08-0.301v1.96c-1.388,0.471-2.403,1.823-2.403,3.483
			c0,1.654,1.016,3.017,2.403,3.489v1.944C418.375,49.044,416.747,47.819,416.012,45.965z M420.986,59.916h0.344
			c0.729,1.23,1.434,2.427,2.137,3.621c-0.694,1.338-1.73,2.231-2.925,2.231c-0.862,0-1.639-0.493-2.276-1.254
			C419.15,63.013,420.056,61.483,420.986,59.916z M384.055,124.939l0.35-0.42c0.012-0.02,0.163-0.326,0.476-0.938
			c0.034,0.002,0.071,0.017,0.103,0.017c1.539,0,2.896-0.996,3.822-2.552v3.403c0,3.309-1.716,5.999-3.822,5.999
			c-1.571,0-2.898-1.513-3.483-3.64C383.054,125.66,384.016,124.967,384.055,124.939z M353.137,149.907
			c-0.052,0.384-0.123,0.747-0.219,1.096h-0.968C352.34,150.639,352.742,150.276,353.137,149.907z M752.334,242.038
			c-0.418-0.897-0.682-1.985-0.682-3.17v-3.092c0.851,1.403,2.085,2.312,3.479,2.312c1.391,0,2.619-0.908,3.457-2.312v3.092
			c0,1.185-0.255,2.272-0.674,3.17H752.334z M736.217,242.038c-0.421-0.897-0.681-1.985-0.681-3.17v-3.092
			c0.843,1.403,2.084,2.312,3.473,2.312c1.394,0,2.627-0.908,3.461-2.312v3.092c0,1.185-0.258,2.272-0.674,3.17H736.217z
			 M720.09,242.038c-0.422-0.897-0.672-1.985-0.672-3.17v-3.092c0.836,1.403,2.066,2.312,3.468,2.312
			c1.387,0,2.627-0.908,3.459-2.312v3.092c0,1.185-0.257,2.272-0.668,3.17H720.09z M703.988,242.038
			c-0.415-0.897-0.676-1.985-0.676-3.17v-3.064c0.848,1.389,2.074,2.284,3.45,2.284h0.007l0,0c1.4,0,2.615-0.896,3.463-2.284v3.064
			c0,1.185-0.256,2.272-0.673,3.17H703.988z M687.865,242.038c-0.414-0.897-0.676-1.985-0.676-3.17v-3.092
			c0.844,1.403,2.093,2.312,3.482,2.312c1.385,0,2.625-0.908,3.459-2.312v3.092c0,1.185-0.262,2.272-0.682,3.17H687.865z
			 M671.754,242.038c-0.413-0.897-0.674-1.985-0.674-3.17v-3.092c0.828,1.403,2.079,2.312,3.456,2.312
			c1.397,0,2.636-0.908,3.479-2.312v3.092c0,1.185-0.26,2.272-0.679,3.17H671.754z M655.636,242.038
			c-0.421-0.897-0.679-1.985-0.679-3.17v-3.092c0.842,1.403,2.063,2.312,3.461,2.312c1.396,0,2.629-0.908,3.475-2.312v3.092
			c0,1.185-0.259,2.272-0.68,3.17H655.636z M639.514,242.038c-0.425-0.897-0.684-1.985-0.684-3.17v-3.092
			c0.851,1.403,2.079,2.312,3.475,2.312c1.395,0,2.62-0.908,3.464-2.312v3.092c0,1.185-0.253,2.272-0.677,3.17H639.514z
			 M623.396,242.038c-0.42-0.897-0.676-1.985-0.676-3.17v-3.092c0.847,1.403,2.069,2.312,3.458,2.312
			c1.394,0,2.633-0.908,3.478-2.312v3.092c0,1.185-0.263,2.272-0.682,3.17H623.396z M607.272,242.038
			c-0.413-0.897-0.675-1.985-0.675-3.17v-3.092c0.843,1.403,2.067,2.312,3.466,2.312c1.384,0,2.624-0.908,3.468-2.312v3.092
			c0,1.185-0.258,2.272-0.677,3.17H607.272z M591.157,242.038c-0.413-0.897-0.676-1.985-0.676-3.17v-3.074
			c0.849,1.394,2.069,2.294,3.459,2.294h0.009c1.385,0,2.624-0.908,3.466-2.312v3.092c0,0.748-0.097,1.457-0.273,2.105
			c-0.103,0.385-0.246,0.735-0.401,1.064H591.157z M575.03,242.038c-0.418-0.897-0.678-1.985-0.678-3.17v-3.092
			c0.846,1.403,2.091,2.312,3.474,2.312c1.4,0,2.626-0.908,3.466-2.312v3.092c0,1.185-0.26,2.272-0.679,3.17H575.03z
			 M558.917,242.038c-0.415-0.897-0.675-1.985-0.675-3.17v-3.092c0.838,1.403,2.078,2.312,3.461,2.312
			c1.392,0,2.626-0.908,3.475-2.312v3.092c0,1.185-0.26,2.272-0.677,3.17H558.917z M542.793,242.038
			c-0.41-0.897-0.674-1.985-0.674-3.17v-3.092c0.843,1.403,2.078,2.312,3.468,2.312s2.632-0.908,3.468-2.312v3.092
			c0,1.185-0.26,2.272-0.675,3.17H542.793z M526.678,242.038c-0.418-0.897-0.677-1.985-0.677-3.17v-3.092
			c0.833,1.403,2.078,2.312,3.478,2.312c1.375,0,2.616-0.908,3.453-2.312v3.092c0,1.185-0.259,2.272-0.674,3.17H526.678z
			 M510.557,242.038c-0.418-0.897-0.675-1.985-0.675-3.17v-3.092c0.843,1.403,2.079,2.312,3.466,2.312
			c1.395,0,2.628-0.908,3.469-2.312v3.092c0,1.185-0.254,2.272-0.678,3.17H510.557z M494.438,242.038
			c-0.416-0.897-0.674-1.985-0.674-3.17v-3.092c0.838,1.403,2.069,2.312,3.457,2.312c1.395,0,2.628-0.908,3.477-2.312v3.092
			c0,1.185-0.258,2.272-0.673,3.17H494.438z M478.314,242.038c-0.414-0.897-0.674-1.985-0.674-3.17v-3.092
			c0.846,1.403,2.074,2.312,3.47,2.312c1.389,0,2.615-0.908,3.462-2.312v3.092c0,1.185-0.26,2.272-0.675,3.17H478.314z
			 M463.528,230.805c0.374,0.156,0.759,0.277,1.167,0.277c1.391,0,2.627-0.906,3.469-2.313v3.076c0,3-1.559,5.446-3.469,5.446
			c-0.533,0-1.036-0.229-1.491-0.581l0.324-1.273V230.805z M463.528,229.587v-6.107c0.374,0.155,0.759,0.278,1.167,0.278
			c1.391,0,2.627-0.919,3.469-2.316v3.074c0,3.003-1.559,5.442-3.469,5.442C464.283,229.958,463.894,229.802,463.528,229.587z
			 M473.049,226.091c1.913,0,3.464,2.441,3.464,5.437v3.076c-0.838-1.398-2.07-2.313-3.464-2.313s-2.625,0.915-3.468,2.313v-3.076
			C469.581,228.532,471.136,226.091,473.049,226.091z M469.581,227.273v-3.081c0-2.996,1.555-5.436,3.468-5.436
			s3.464,2.439,3.464,5.436v3.081c-0.838-1.408-2.07-2.317-3.464-2.317S470.424,225.865,469.581,227.273z M473.049,233.411
			c1.913,0,3.464,2.449,3.464,5.457v3.063c-0.838-1.394-2.07-2.306-3.464-2.306s-2.625,0.912-3.468,2.306v-3.063
			C469.581,235.86,471.136,233.411,473.049,233.411z M473.049,240.745c0.837,0,1.578,0.509,2.173,1.293h-4.354
			C471.463,241.254,472.208,240.745,473.049,240.745z M481.11,230.76c1.389,0,2.615-0.897,3.462-2.301v3.068
			c0,3.003-1.559,5.441-3.462,5.441c-1.919,0-3.47-2.438-3.47-5.441v-3.068C478.486,229.862,479.715,230.76,481.11,230.76z
			 M477.641,224.192v-3.07c0.846,1.388,2.074,2.318,3.47,2.318c1.389,0,2.615-0.931,3.462-2.318v3.07c0,3-1.559,5.44-3.462,5.44
			C479.191,229.633,477.641,227.192,477.641,224.192z M489.166,226.091c1.915,0,3.47,2.441,3.47,5.437v3.076
			c-0.843-1.398-2.078-2.313-3.47-2.313s-2.632,0.915-3.466,2.313v-3.076C485.7,228.532,487.267,226.091,489.166,226.091z
			 M485.7,227.273v-3.081c0-2.996,1.566-5.436,3.466-5.436c1.915,0,3.47,2.439,3.47,5.436v3.081
			c-0.843-1.408-2.078-2.317-3.47-2.317S486.534,225.865,485.7,227.273z M489.166,233.411c1.915,0,3.47,2.449,3.47,5.457v3.063
			c-0.843-1.394-2.078-2.306-3.47-2.306s-2.632,0.912-3.466,2.306v-3.063C485.7,235.86,487.267,233.411,489.166,233.411z
			 M489.166,240.745c0.838,0,1.584,0.509,2.183,1.293h-4.354C487.586,241.254,488.335,240.745,489.166,240.745z M497.221,230.76
			c1.395,0,2.628-0.897,3.477-2.301v3.068c0,3.003-1.549,5.441-3.477,5.441c-1.907,0-3.457-2.438-3.457-5.441v-3.068
			C494.602,229.862,495.833,230.76,497.221,230.76z M493.764,224.192v-3.07c0.838,1.388,2.069,2.318,3.457,2.318
			c1.395,0,2.628-0.931,3.477-2.318v3.07c0,3-1.549,5.44-3.477,5.44C495.313,229.633,493.764,227.192,493.764,224.192z
			 M505.288,226.091c1.915,0,3.471,2.441,3.471,5.437v3.076c-0.853-1.398-2.078-2.313-3.471-2.313c-1.396,0-2.632,0.915-3.47,2.313
			v-3.076C501.818,228.532,503.373,226.091,505.288,226.091z M501.818,227.273v-3.081c0-2.996,1.555-5.436,3.47-5.436
			s3.471,2.439,3.471,5.436v3.081c-0.853-1.408-2.078-2.317-3.471-2.317C503.893,224.956,502.656,225.865,501.818,227.273z
			 M505.288,233.411c1.915,0,3.471,2.449,3.471,5.457v3.063c-0.853-1.394-2.078-2.306-3.471-2.306c-1.396,0-2.632,0.912-3.47,2.306
			v-3.063C501.818,235.86,503.373,233.411,505.288,233.411z M505.288,240.745c0.838,0,1.585,0.509,2.184,1.293h-4.363
			C503.704,241.254,504.45,240.745,505.288,240.745z M513.348,230.76c1.395,0,2.628-0.897,3.469-2.301v3.068
			c0,3.003-1.558,5.441-3.469,5.441c-1.909,0-3.466-2.438-3.466-5.441v-3.068C510.725,229.862,511.961,230.76,513.348,230.76z
			 M509.882,224.192v-3.07c0.843,1.388,2.079,2.318,3.466,2.318c1.395,0,2.628-0.931,3.469-2.318v3.07c0,3-1.558,5.44-3.469,5.44
			C511.438,229.633,509.882,227.192,509.882,224.192z M521.411,226.091c1.908,0,3.471,2.441,3.471,5.437v3.076
			c-0.848-1.398-2.074-2.313-3.471-2.313c-1.387,0-2.623,0.915-3.479,2.313v-3.076C517.932,228.532,519.496,226.091,521.411,226.091
			z M517.932,227.273v-3.081c0-2.996,1.564-5.436,3.479-5.436c1.908,0,3.471,2.439,3.471,5.436v3.081
			c-0.848-1.408-2.074-2.317-3.471-2.317C520.024,224.956,518.788,225.865,517.932,227.273z M521.411,233.411
			c1.908,0,3.471,2.449,3.471,5.457v3.063c-0.848-1.394-2.074-2.306-3.471-2.306c-1.387,0-2.623,0.912-3.479,2.306v-3.063
			C517.932,235.86,519.496,233.411,521.411,233.411z M521.411,240.745c0.839,0,1.581,0.509,2.175,1.293h-4.358
			C519.826,241.254,520.568,240.745,521.411,240.745z M529.479,230.76c1.375,0,2.616-0.897,3.453-2.301v3.068
			c0,3.003-1.558,5.441-3.453,5.441c-1.924,0-3.478-2.438-3.478-5.441v-3.068C526.834,229.862,528.079,230.76,529.479,230.76z
			 M526.001,224.192v-3.07c0.833,1.388,2.078,2.318,3.478,2.318c1.375,0,2.616-0.931,3.453-2.318v3.07c0,3-1.558,5.44-3.453,5.44
			C527.555,229.633,526.001,227.192,526.001,224.192z M537.53,226.091c1.909,0,3.458,2.441,3.458,5.437v3.076
			c-0.835-1.398-2.07-2.313-3.458-2.313c-1.394,0-2.628,0.915-3.471,2.313v-3.076C534.06,228.532,535.615,226.091,537.53,226.091z
			 M534.06,227.273v-3.081c0-2.996,1.556-5.436,3.471-5.436c1.909,0,3.458,2.439,3.458,5.436v3.081
			c-0.835-1.408-2.07-2.317-3.458-2.317C536.137,224.956,534.902,225.865,534.06,227.273z M537.53,233.411
			c1.909,0,3.458,2.449,3.458,5.457v3.063c-0.835-1.394-2.07-2.306-3.458-2.306c-1.394,0-2.628,0.912-3.471,2.306v-3.063
			C534.06,235.86,535.615,233.411,537.53,233.411z M537.53,240.745c0.835,0,1.577,0.509,2.175,1.293h-4.354
			C535.944,241.254,536.689,240.745,537.53,240.745z M545.587,230.76c1.39,0,2.632-0.897,3.468-2.301v3.068
			c0,3.003-1.558,5.441-3.468,5.441c-1.909,0-3.468-2.438-3.468-5.441v-3.068C542.962,229.862,544.197,230.76,545.587,230.76z
			 M542.119,224.192v-3.07c0.843,1.388,2.078,2.318,3.468,2.318s2.632-0.931,3.468-2.318v3.07c0,3-1.558,5.44-3.468,5.44
			C543.678,229.633,542.119,227.192,542.119,224.192z M553.648,226.091c1.911,0,3.471,2.441,3.471,5.437v3.076
			c-0.843-1.398-2.088-2.313-3.471-2.313c-1.396,0-2.631,0.915-3.475,2.313v-3.076C550.174,228.532,551.732,226.091,553.648,226.091
			z M550.174,227.273v-3.081c0-2.996,1.559-5.436,3.475-5.436c1.911,0,3.471,2.439,3.471,5.436v3.081
			c-0.843-1.408-2.088-2.317-3.471-2.317C552.253,224.956,551.018,225.865,550.174,227.273z M553.648,233.411
			c1.911,0,3.471,2.449,3.471,5.457v3.063c-0.843-1.394-2.088-2.306-3.471-2.306c-1.396,0-2.631,0.912-3.475,2.306v-3.063
			C550.174,235.86,551.732,233.411,553.648,233.411z M553.648,240.745c0.831,0,1.579,0.509,2.176,1.293h-4.354
			C552.063,241.254,552.807,240.745,553.648,240.745z M561.703,230.76c1.392,0,2.626-0.897,3.475-2.301v3.068
			c0,3.003-1.555,5.441-3.475,5.441c-1.911,0-3.461-2.438-3.461-5.441v-3.068C559.08,229.862,560.32,230.76,561.703,230.76z
			 M558.242,224.192v-3.07c0.838,1.388,2.078,2.318,3.461,2.318c1.392,0,2.626-0.931,3.475-2.318v3.07c0,3-1.555,5.44-3.475,5.44
			C559.792,229.633,558.242,227.192,558.242,224.192z M569.768,226.091c1.915,0,3.459,2.441,3.459,5.437v3.076
			c-0.836-1.398-2.063-2.313-3.459-2.313c-1.391,0-2.623,0.915-3.458,2.313v-3.076C566.31,228.532,567.855,226.091,569.768,226.091z
			 M566.31,227.273v-3.081c0-2.996,1.546-5.436,3.458-5.436c1.915,0,3.459,2.439,3.459,5.436v3.081
			c-0.836-1.408-2.063-2.317-3.459-2.317C568.377,224.956,567.145,225.865,566.31,227.273z M569.768,233.411
			c1.915,0,3.459,2.449,3.459,5.457v3.063c-0.836-1.394-2.063-2.306-3.459-2.306c-1.391,0-2.623,0.912-3.458,2.306v-3.063
			C566.31,235.86,567.855,233.411,569.768,233.411z M569.768,240.745c0.836,0,1.58,0.509,2.175,1.293h-4.346
			C568.187,241.254,568.929,240.745,569.768,240.745z M577.826,230.76c1.4,0,2.626-0.897,3.466-2.301v3.068
			c0,3.003-1.559,5.441-3.466,5.441c-1.911,0-3.474-2.438-3.474-5.441v-3.068C575.198,229.862,576.443,230.76,577.826,230.76z
			 M574.353,224.192v-3.07c0.846,1.388,2.091,2.318,3.474,2.318c1.4,0,2.626-0.931,3.466-2.318v3.07c0,3-1.559,5.44-3.466,5.44
			C575.915,229.633,574.353,227.192,574.353,224.192z M585.885,226.091c1.908,0,3.466,2.441,3.466,5.437v3.076
			c-0.841-1.398-2.069-2.313-3.466-2.313c-1.395,0-2.618,0.909-3.465,2.301v-3.063C582.42,228.532,583.973,226.091,585.885,226.091z
			 M582.42,227.261v-3.068c0-2.996,1.553-5.436,3.465-5.436c1.908,0,3.466,2.439,3.466,5.436v3.081
			c-0.841-1.408-2.069-2.317-3.466-2.317C584.49,224.956,583.267,225.865,582.42,227.261z M585.885,233.411
			c1.908,0,3.466,2.449,3.466,5.457v3.063c-0.841-1.394-2.069-2.306-3.466-2.306c-1.395,0-2.618,0.908-3.465,2.295v-3.053
			C582.42,235.86,583.973,233.411,585.885,233.411z M585.885,240.745c0.834,0,1.581,0.509,2.172,1.293h-4.351
			C584.306,241.254,585.047,240.745,585.885,240.745z M593.94,230.76h0.009c1.385,0,2.624-0.897,3.466-2.301v3.068
			c0,0.746-0.097,1.464-0.273,2.115c-0.529,1.956-1.763,3.326-3.192,3.326c-1.919,0-3.468-2.438-3.468-5.441v-3.057
			C591.33,229.862,592.551,230.76,593.94,230.76z M590.481,224.192v-3.057c0.849,1.38,2.069,2.305,3.459,2.305h0.009
			c1.385,0,2.624-0.931,3.466-2.318v3.07c0,0.752-0.097,1.465-0.273,2.116c-0.529,1.949-1.763,3.324-3.192,3.324
			C592.03,229.633,590.481,227.192,590.481,224.192z M602,226.091c1.916,0,3.467,2.441,3.467,5.437v3.076
			c-0.842-1.398-2.075-2.313-3.467-2.313c-1.396,0-2.634,0.915-3.466,2.313v-3.076C598.534,228.532,600.094,226.091,602,226.091z
			 M598.534,227.273v-3.081c0-2.996,1.56-5.436,3.466-5.436c1.916,0,3.467,2.439,3.467,5.436v3.081
			c-0.842-1.408-2.075-2.317-3.467-2.317C600.604,224.956,599.366,225.865,598.534,227.273z M602,233.411
			c1.916,0,3.467,2.449,3.467,5.457v3.063c-0.842-1.394-2.075-2.306-3.467-2.306c-1.396,0-2.634,0.912-3.466,2.306v-3.063
			C598.534,235.86,600.094,233.411,602,233.411z M602,240.745c0.834,0,1.585,0.509,2.179,1.293h-4.353
			C600.42,241.254,601.162,240.745,602,240.745z M610.063,230.76c1.384,0,2.624-0.897,3.468-2.301v3.068
			c0,3.003-1.55,5.441-3.468,5.441c-1.915,0-3.466-2.438-3.466-5.441v-3.068C607.44,229.862,608.665,230.76,610.063,230.76z
			 M606.598,224.192v-3.07c0.843,1.388,2.067,2.318,3.466,2.318c1.384,0,2.624-0.931,3.468-2.318v3.07c0,3-1.55,5.44-3.468,5.44
			C608.148,229.633,606.598,227.192,606.598,224.192z M618.121,226.091c1.916,0,3.464,2.441,3.464,5.437v3.076
			c-0.836-1.398-2.078-2.313-3.464-2.313c-1.385,0-2.626,0.915-3.471,2.313v-3.076C614.65,228.532,616.208,226.091,618.121,226.091z
			 M614.65,227.273v-3.081c0-2.996,1.558-5.436,3.471-5.436c1.916,0,3.464,2.439,3.464,5.436v3.081
			c-0.836-1.408-2.078-2.317-3.464-2.317C616.736,224.956,615.495,225.865,614.65,227.273z M618.121,233.411
			c1.916,0,3.464,2.449,3.464,5.457v3.063c-0.836-1.394-2.078-2.306-3.464-2.306c-1.385,0-2.626,0.912-3.471,2.306v-3.063
			C614.65,235.86,616.208,233.411,618.121,233.411z M618.121,240.745c0.844,0,1.587,0.509,2.181,1.293h-4.358
			C616.539,241.254,617.285,240.745,618.121,240.745z M626.178,230.76c1.394,0,2.633-0.897,3.478-2.301v3.068
			c0,3.003-1.558,5.441-3.478,5.441c-1.907,0-3.458-2.438-3.458-5.441v-3.068C623.566,229.862,624.789,230.76,626.178,230.76z
			 M622.72,224.192v-3.07c0.847,1.388,2.069,2.318,3.458,2.318c1.394,0,2.633-0.931,3.478-2.318v3.07c0,3-1.558,5.44-3.478,5.44
			C624.271,229.633,622.72,227.192,622.72,224.192z M634.239,226.091c1.917,0,3.469,2.441,3.469,5.437v3.076
			c-0.839-1.398-2.07-2.313-3.469-2.313c-1.397,0-2.625,0.915-3.469,2.313v-3.076C630.771,228.532,632.327,226.091,634.239,226.091z
			 M630.771,227.273v-3.081c0-2.996,1.557-5.436,3.469-5.436c1.917,0,3.469,2.439,3.469,5.436v3.081
			c-0.839-1.408-2.07-2.317-3.469-2.317C632.842,224.956,631.614,225.865,630.771,227.273z M634.239,233.411
			c1.917,0,3.469,2.449,3.469,5.457v3.063c-0.839-1.394-2.07-2.306-3.469-2.306c-1.397,0-2.625,0.912-3.469,2.306v-3.063
			C630.771,235.86,632.327,233.411,634.239,233.411z M634.239,240.745c0.835,0,1.587,0.509,2.182,1.293h-4.359
			C632.652,241.254,633.402,240.745,634.239,240.745z M642.305,230.76c1.395,0,2.62-0.897,3.464-2.301v3.068
			c0,3.003-1.562,5.441-3.464,5.441c-1.918,0-3.475-2.438-3.475-5.441v-3.068C639.681,229.862,640.909,230.76,642.305,230.76z
			 M638.83,224.192v-3.07c0.851,1.388,2.079,2.318,3.475,2.318c1.395,0,2.62-0.931,3.464-2.318v3.07c0,3-1.562,5.44-3.464,5.44
			C640.387,229.633,638.83,227.192,638.83,224.192z M650.36,226.091c1.91,0,3.467,2.441,3.467,5.437v3.076
			c-0.841-1.398-2.079-2.313-3.467-2.313c-1.394,0-2.619,0.915-3.468,2.313v-3.076C646.893,228.532,648.449,226.091,650.36,226.091z
			 M646.893,227.273v-3.081c0-2.996,1.557-5.436,3.468-5.436c1.91,0,3.467,2.439,3.467,5.436v3.081
			c-0.841-1.408-2.079-2.317-3.467-2.317C648.967,224.956,647.741,225.865,646.893,227.273z M650.36,233.411
			c1.91,0,3.467,2.449,3.467,5.457v3.063c-0.841-1.394-2.079-2.306-3.467-2.306c-1.394,0-2.619,0.912-3.468,2.306v-3.063
			C646.893,235.86,648.449,233.411,650.36,233.411z M650.36,240.745c0.831,0,1.579,0.509,2.18,1.293h-4.356
			C648.777,241.254,649.52,240.745,650.36,240.745z M658.418,230.76c1.396,0,2.629-0.897,3.475-2.301v3.068
			c0,3.003-1.559,5.441-3.475,5.441c-1.903,0-3.461-2.438-3.461-5.441v-3.068C655.799,229.862,657.02,230.76,658.418,230.76z
			 M654.957,224.192v-3.07c0.842,1.388,2.063,2.318,3.461,2.318c1.396,0,2.629-0.931,3.475-2.318v3.07c0,3-1.559,5.44-3.475,5.44
			C656.515,229.633,654.957,227.192,654.957,224.192z M666.479,226.091c1.918,0,3.47,2.441,3.47,5.437v3.076
			c-0.84-1.398-2.079-2.313-3.47-2.313c-1.388,0-2.623,0.915-3.47,2.313v-3.076C663.01,228.532,664.576,226.091,666.479,226.091z
			 M663.01,227.273v-3.081c0-2.996,1.566-5.436,3.47-5.436c1.918,0,3.47,2.439,3.47,5.436v3.081c-0.84-1.408-2.079-2.317-3.47-2.317
			C665.092,224.956,663.856,225.865,663.01,227.273z M666.479,233.411c1.918,0,3.47,2.449,3.47,5.457v3.063
			c-0.84-1.394-2.079-2.306-3.47-2.306c-1.388,0-2.623,0.912-3.47,2.306v-3.063C663.01,235.86,664.576,233.411,666.479,233.411z
			 M666.479,240.745c0.837,0,1.584,0.509,2.183,1.293H664.3C664.902,241.254,665.645,240.745,666.479,240.745z M674.536,230.76
			c1.397,0,2.636-0.897,3.479-2.301v3.068c0,3.003-1.555,5.441-3.479,5.441c-1.905,0-3.456-2.438-3.456-5.441v-3.068
			C671.908,229.862,673.159,230.76,674.536,230.76z M671.08,224.192v-3.07c0.828,1.388,2.079,2.318,3.456,2.318
			c1.397,0,2.636-0.931,3.479-2.318v3.07c0,3-1.555,5.44-3.479,5.44C672.631,229.633,671.08,227.192,671.08,224.192z
			 M682.61,226.091c1.911,0,3.453,2.441,3.453,5.437v3.076c-0.842-1.398-2.076-2.313-3.453-2.313c-1.396,0-2.64,0.915-3.475,2.313
			v-3.076C679.136,228.532,680.689,226.091,682.61,226.091z M679.136,227.273v-3.081c0-2.996,1.554-5.436,3.475-5.436
			c1.911,0,3.453,2.439,3.453,5.436v3.081c-0.842-1.408-2.076-2.317-3.453-2.317C681.214,224.956,679.971,225.865,679.136,227.273z
			 M682.61,233.411c1.911,0,3.453,2.449,3.453,5.457v3.063c-0.842-1.394-2.076-2.306-3.453-2.306c-1.396,0-2.64,0.912-3.475,2.306
			v-3.063C679.136,235.86,680.689,233.411,682.61,233.411z M682.61,240.745c0.832,0,1.574,0.509,2.167,1.293h-4.352
			C681.021,241.254,681.766,240.745,682.61,240.745z M690.672,230.76c1.385,0,2.625-0.897,3.459-2.301v3.068
			c0,3.003-1.562,5.441-3.459,5.441c-1.927,0-3.482-2.438-3.482-5.441v-3.068C688.033,229.862,689.282,230.76,690.672,230.76z
			 M687.189,224.192v-3.07c0.844,1.388,2.093,2.318,3.482,2.318c1.385,0,2.625-0.931,3.459-2.318v3.07c0,3-1.562,5.44-3.459,5.44
			C688.745,229.633,687.189,227.192,687.189,224.192z M698.717,226.091c1.902,0.013,3.45,2.441,3.45,5.437v3.059
			c-0.841-1.387-2.067-2.296-3.438-2.296h-0.012h-0.012c-1.384,0-2.61,0.909-3.455,2.296v-3.059
			C695.25,228.532,696.813,226.104,698.717,226.091z M695.25,227.257v-3.064c0-2.996,1.563-5.425,3.467-5.436
			c1.902,0.011,3.45,2.439,3.45,5.436v3.064c-0.841-1.392-2.067-2.301-3.438-2.301h-0.012h-0.012
			C697.321,224.956,696.095,225.865,695.25,227.257z M698.717,233.411c1.902,0.01,3.45,2.455,3.45,5.457v3.046
			c-0.841-1.38-2.067-2.288-3.438-2.288h-0.012h-0.012c-1.384,0-2.61,0.908-3.455,2.288v-3.046
			C695.25,235.866,696.813,233.421,698.717,233.411z M698.717,240.745c0.827,0.002,1.569,0.513,2.16,1.293h-4.332
			C697.139,241.258,697.883,240.747,698.717,240.745z M706.763,230.76h0.007l0,0c1.4,0,2.615-0.89,3.463-2.279v3.047
			c0,2.996-1.548,5.438-3.463,5.441c-1.901-0.004-3.457-2.445-3.457-5.441v-3.047C704.16,229.87,705.387,230.76,706.763,230.76z
			 M703.313,224.192v-3.045c0.848,1.375,2.074,2.293,3.45,2.293h0.007l0,0c1.4,0,2.615-0.918,3.463-2.293v3.045
			c0,2.997-1.548,5.43-3.463,5.44C704.868,229.622,703.313,227.189,703.313,224.192z M714.822,226.091
			c1.92,0,3.471,2.441,3.471,5.437v3.076c-0.848-1.398-2.079-2.313-3.471-2.313c-1.399,0-2.644,0.915-3.462,2.313v-3.076
			C711.36,228.532,712.917,226.091,714.822,226.091z M711.36,227.273v-3.081c0-2.996,1.557-5.436,3.462-5.436
			c1.92,0,3.471,2.439,3.471,5.436v3.081c-0.848-1.408-2.079-2.317-3.471-2.317C713.423,224.956,712.179,225.865,711.36,227.273z
			 M714.822,233.411c1.92,0,3.471,2.449,3.471,5.457v3.063c-0.848-1.394-2.079-2.306-3.471-2.306c-1.399,0-2.644,0.912-3.462,2.306
			v-3.063C711.36,235.86,712.917,233.411,714.822,233.411z M714.822,240.745c0.842,0,1.588,0.509,2.183,1.293h-4.354
			C713.246,241.254,713.988,240.745,714.822,240.745z M722.886,230.76c1.387,0,2.627-0.897,3.459-2.301v3.068
			c0,3.003-1.547,5.441-3.459,5.441c-1.922,0-3.468-2.438-3.468-5.441v-3.068C720.254,229.862,721.484,230.76,722.886,230.76z
			 M719.418,224.192v-3.07c0.836,1.388,2.066,2.318,3.468,2.318c1.387,0,2.627-0.931,3.459-2.318v3.07c0,3-1.547,5.44-3.459,5.44
			C720.964,229.633,719.418,227.192,719.418,224.192z M730.944,226.091c1.915,0,3.463,2.441,3.463,5.437v3.076
			c-0.84-1.398-2.078-2.313-3.463-2.313c-1.391,0-2.62,0.915-3.468,2.313v-3.076C727.477,228.532,729.021,226.091,730.944,226.091z
			 M727.477,227.273v-3.081c0-2.996,1.544-5.436,3.468-5.436c1.915,0,3.463,2.439,3.463,5.436v3.081
			c-0.84-1.408-2.078-2.317-3.463-2.317C729.554,224.956,728.324,225.865,727.477,227.273z M730.944,233.411
			c1.915,0,3.463,2.449,3.463,5.457v3.063c-0.84-1.394-2.078-2.306-3.463-2.306c-1.391,0-2.62,0.912-3.468,2.306v-3.063
			C727.477,235.86,729.021,233.411,730.944,233.411z M730.944,240.745c0.839,0,1.585,0.509,2.179,1.293h-4.359
			C729.361,241.254,730.106,240.745,730.944,240.745z M739.009,230.76c1.394,0,2.627-0.897,3.461-2.301v3.068
			c0,3.003-1.56,5.441-3.461,5.441c-1.916,0-3.473-2.438-3.473-5.441v-3.068C736.379,229.862,737.62,230.76,739.009,230.76z
			 M735.536,224.192v-3.07c0.843,1.388,2.084,2.318,3.473,2.318c1.394,0,2.627-0.931,3.461-2.318v3.07c0,3-1.56,5.44-3.461,5.44
			C737.093,229.633,735.536,227.192,735.536,224.192z M747.065,226.091c1.909,0,3.46,2.441,3.46,5.437v3.076
			c-0.826-1.398-2.066-2.313-3.46-2.313c-1.386,0-2.629,0.915-3.477,2.313v-3.076C743.589,228.532,745.153,226.091,747.065,226.091z
			 M743.589,227.273v-3.081c0-2.996,1.564-5.436,3.477-5.436c1.909,0,3.46,2.439,3.46,5.436v3.081
			c-0.826-1.408-2.066-2.317-3.46-2.317C745.68,224.956,744.437,225.865,743.589,227.273z M747.065,233.411
			c1.909,0,3.46,2.449,3.46,5.457v3.063c-0.826-1.394-2.066-2.306-3.46-2.306c-1.386,0-2.629,0.912-3.477,2.306v-3.063
			C743.589,235.86,745.153,233.411,747.065,233.411z M747.065,240.745c0.841,0,1.581,0.509,2.173,1.293h-4.358
			C745.484,241.254,746.229,240.745,747.065,240.745z M751.652,231.527v-3.068c0.851,1.403,2.085,2.301,3.479,2.301
			c1.391,0,2.619-0.897,3.457-2.301v3.068c0,3.003-1.554,5.441-3.457,5.441C753.216,236.969,751.652,234.53,751.652,231.527z
			 M759.72,241.932v-3.063c0-2.195,0.856-4.022,2.037-4.888l2.47,5.867c-0.336-0.127-0.676-0.222-1.041-0.222
			C761.792,239.626,760.563,240.538,759.72,241.932z M759.395,236v-0.224v-2.902l-0.144,0.252c0.075-0.508,0.144-1.035,0.144-1.599
			v-3.068v-0.09l2.045,4.854C760.563,233.801,759.832,234.741,759.395,236z M755.131,229.633c-1.915,0-3.479-2.44-3.479-5.44v-3.07
			c0.851,1.388,2.085,2.318,3.479,2.318c0.695,0,1.32-0.283,1.903-0.688l1.351,3.217C757.914,228.1,756.637,229.633,755.131,229.633
			z M750.525,216.875v3.063c-0.826-1.393-2.066-2.305-3.46-2.305c-1.386,0-2.629,0.912-3.477,2.305v-3.063
			c0-0.465,0.063-0.901,0.133-1.327h6.666C750.465,215.974,750.525,216.41,750.525,216.875z M742.47,216.875
			c0,2.99-1.56,5.434-3.461,5.434c-1.916,0-3.473-2.443-3.473-5.434v-1.327h6.934V216.875z M734.407,216.875v3.063
			c-0.84-1.393-2.078-2.305-3.463-2.305c-1.391,0-2.62,0.912-3.468,2.305v-3.063c0-0.465,0.061-0.901,0.136-1.327h6.662
			C734.348,215.974,734.407,216.41,734.407,216.875z M726.345,216.875c0,2.99-1.547,5.434-3.459,5.434
			c-1.922,0-3.468-2.443-3.468-5.434v-1.327h6.927V216.875z M718.293,216.875v3.063c-0.848-1.393-2.079-2.305-3.471-2.305
			c-1.399,0-2.644,0.912-3.462,2.305v-3.063c0-0.465,0.057-0.901,0.134-1.327h6.672C718.229,215.974,718.293,216.41,718.293,216.875
			z M710.232,216.875c0,2.985-1.548,5.43-3.463,5.434c-1.901-0.004-3.457-2.448-3.457-5.434v-1.327h6.92V216.875z M702.167,216.875
			v3.045c-0.841-1.385-2.067-2.287-3.438-2.287h-0.012h-0.012c-1.384,0-2.61,0.902-3.455,2.287v-3.045
			c0-0.465,0.065-0.901,0.133-1.327h6.65C702.106,215.974,702.167,216.41,702.167,216.875z M694.131,216.875
			c0,2.99-1.562,5.434-3.459,5.434c-1.927,0-3.482-2.443-3.482-5.434v-1.327h6.941V216.875z M686.063,216.875v3.063
			c-0.842-1.393-2.076-2.305-3.453-2.305c-1.396,0-2.64,0.912-3.475,2.305v-3.063c0-0.465,0.062-0.901,0.134-1.327h6.664
			C686,215.974,686.063,216.41,686.063,216.875z M678.016,216.875c0,2.99-1.555,5.434-3.479,5.434c-1.905,0-3.456-2.443-3.456-5.434
			v-1.327h6.936V216.875z M669.949,216.875v3.063c-0.84-1.393-2.079-2.305-3.47-2.305c-1.388,0-2.623,0.912-3.47,2.305v-3.063
			c0-0.465,0.064-0.901,0.138-1.327h6.672C669.888,215.974,669.949,216.41,669.949,216.875z M661.893,216.875
			c0,2.99-1.559,5.434-3.475,5.434c-1.903,0-3.461-2.443-3.461-5.434v-1.327h6.936V216.875z M653.827,216.875v3.063
			c-0.841-1.393-2.079-2.305-3.467-2.305c-1.394,0-2.619,0.912-3.468,2.305v-3.063c0-0.465,0.064-0.901,0.135-1.327h6.66
			C653.763,215.974,653.827,216.41,653.827,216.875z M645.769,216.875c0,2.99-1.562,5.434-3.464,5.434
			c-1.918,0-3.475-2.443-3.475-5.434v-1.327h6.938V216.875z M637.708,216.875v3.063c-0.839-1.393-2.07-2.305-3.469-2.305
			c-1.397,0-2.625,0.912-3.469,2.305v-3.063c0-0.465,0.063-0.901,0.133-1.327h6.674C637.648,215.974,637.708,216.41,637.708,216.875
			z M629.655,216.875c0,2.99-1.558,5.434-3.478,5.434c-1.907,0-3.458-2.443-3.458-5.434v-1.327h6.936V216.875z M621.585,216.875
			v3.063c-0.836-1.393-2.078-2.305-3.464-2.305c-1.385,0-2.626,0.912-3.471,2.305v-3.063c0-0.465,0.061-0.901,0.123-1.327h6.678
			C621.525,215.974,621.585,216.41,621.585,216.875z M613.531,216.875c0,2.99-1.55,5.434-3.468,5.434
			c-1.915,0-3.466-2.443-3.466-5.434v-1.327h6.934V216.875z M605.467,216.875v3.063c-0.842-1.393-2.075-2.305-3.467-2.305
			c-1.396,0-2.634,0.912-3.466,2.305v-3.063c0-0.465,0.059-0.901,0.134-1.327h6.668C605.403,215.974,605.467,216.41,605.467,216.875
			z M597.415,216.875c0,0.746-0.097,1.452-0.273,2.11c-0.529,1.948-1.763,3.323-3.192,3.323c-1.919,0-3.468-2.443-3.468-5.434
			v-1.327h6.934V216.875z M589.351,216.875v3.063c-0.841-1.393-2.069-2.305-3.466-2.305c-1.395,0-2.618,0.906-3.465,2.301v-3.059
			c0-0.465,0.057-0.901,0.131-1.327h6.67C589.288,215.974,589.351,216.41,589.351,216.875z M581.292,216.875
			c0,2.99-1.559,5.434-3.466,5.434c-1.911,0-3.474-2.443-3.474-5.434v-1.327h6.939V216.875z M573.227,216.875v3.063
			c-0.836-1.393-2.063-2.305-3.459-2.305c-1.391,0-2.623,0.912-3.458,2.305v-3.063c0-0.465,0.058-0.901,0.131-1.327h6.658
			C573.17,215.974,573.227,216.41,573.227,216.875z M565.178,216.875c0,2.99-1.555,5.434-3.475,5.434
			c-1.911,0-3.461-2.443-3.461-5.434v-1.327h6.936V216.875z M557.119,216.875v3.063c-0.843-1.393-2.088-2.305-3.471-2.305
			c-1.396,0-2.631,0.912-3.475,2.305v-3.063c0-0.465,0.062-0.901,0.139-1.327h6.668C557.055,215.974,557.119,216.41,557.119,216.875
			z M549.055,216.875c0,2.99-1.558,5.434-3.468,5.434c-1.909,0-3.468-2.443-3.468-5.434v-1.327h6.936V216.875z M540.988,216.875
			v3.063c-0.835-1.393-2.07-2.305-3.458-2.305c-1.394,0-2.628,0.912-3.471,2.305v-3.063c0-0.465,0.063-0.901,0.131-1.327h6.663
			C540.928,215.974,540.988,216.41,540.988,216.875z M532.932,216.875c0,2.99-1.558,5.434-3.453,5.434
			c-1.924,0-3.478-2.443-3.478-5.434v-1.327h6.931V216.875z M524.882,216.875v3.063c-0.848-1.393-2.074-2.305-3.471-2.305
			c-1.387,0-2.623,0.912-3.479,2.305v-3.063c0-0.465,0.063-0.901,0.136-1.327h6.676C524.814,215.974,524.882,216.41,524.882,216.875
			z M516.816,216.875c0,2.99-1.558,5.434-3.469,5.434c-1.909,0-3.466-2.443-3.466-5.434v-1.327h6.935V216.875z M508.759,216.875
			v3.063c-0.853-1.393-2.078-2.305-3.471-2.305c-1.396,0-2.632,0.912-3.47,2.305v-3.063c0-0.465,0.059-0.901,0.138-1.327h6.664
			C508.695,215.974,508.759,216.41,508.759,216.875z M500.697,216.875c0,2.99-1.549,5.434-3.477,5.434
			c-1.907,0-3.457-2.443-3.457-5.434v-1.327h6.934V216.875z M492.636,216.875v3.063c-0.843-1.393-2.078-2.305-3.47-2.305
			s-2.632,0.912-3.466,2.305v-3.063c0-0.465,0.066-0.901,0.137-1.327h6.664C492.578,215.974,492.636,216.41,492.636,216.875z
			 M484.572,216.875c0,2.99-1.559,5.434-3.462,5.434c-1.919,0-3.47-2.443-3.47-5.434v-1.327h6.932V216.875z M476.513,216.875v3.063
			c-0.838-1.393-2.07-2.305-3.464-2.305s-2.625,0.912-3.468,2.305v-3.063c0-0.465,0.063-0.901,0.128-1.327h6.666
			C476.454,215.974,476.513,216.41,476.513,216.875z M468.164,215.548v1.644c0,2.996-1.559,5.437-3.469,5.437
			c-0.412,0-0.802-0.153-1.167-0.371v-6.709H468.164z M462.922,237.859c0.545,0.342,1.145,0.548,1.773,0.548
			c1.391,0,2.627-0.904,3.469-2.312v3.074c0,1.062-0.205,2.036-0.54,2.868h-5.755L462.922,237.859z M761.011,242.038
			c0.594-0.784,1.339-1.293,2.175-1.293c0.64,0,1.232,0.304,1.742,0.785l0.213,0.508H761.011z M756.595,221.721
			c-0.442,0.348-0.934,0.588-1.464,0.588c-1.915,0-3.479-2.443-3.479-5.434v-1.327h2.35L756.595,221.721z"/>
	</g>
</g>
</svg>
