<?xml version="1.0" encoding="utf-8"?>
<!-- Generator: Adobe Illustrator 16.0.0, SVG Export Plug-In . SVG Version: 6.00 Build 0)  -->
<!DOCTYPE svg PUBLIC "-//W3C//DTD SVG 1.1//EN" "http://www.w3.org/Graphics/SVG/1.1/DTD/svg11.dtd">
<svg version="1.1" id="Layer_1" xmlns="http://www.w3.org/2000/svg" xmlns:xlink="http://www.w3.org/1999/xlink" x="0px" y="0px"
	 width="841.89px" height="595.28px" viewBox="0 0 841.89 595.28" enable-background="new 0 0 841.89 595.28" xml:space="preserve">
<g>
	<g>
		<path fill="#58595B" d="M217.435,410.527c0,0,0,19.008,0,26.752c0,7.155,6.268,8.586,8.12,8.586c1.848,0,25.563,0,25.563,0
			v-35.338h28.071v89.824h-28.071v-35.084c-15.937,0-25.695,0-39.709,0s-22.045-13.249-22.045-20.644c0-7.396,0-34.097,0-34.097
			H217.435z"/>
		<path fill="#58595B" d="M298.837,410.527c0,0,46.204,0,64.008,0c13.024,0,21.743,11.1,21.743,22.663
			c0,19.511-19.016,22.055-19.016,22.055c6.15,0,23.092,4.792,23.092,22.623c0,9.793-7.432,22.483-21.978,22.483
			c-13.403,0-67.85,0-67.85,0v-19.646c0,0,50.517,0,53.821,0c3.303,0,8.03-2.413,8.03-7.804c0-5.385-4.774-7.634-8.03-7.634
			c-3.259,0-25.748,0-25.748,0v-19.651c0,0,17.258,0,21.008,0c3.752,0,8.664-2.219,8.664-7.45c0-7.669-7.522-7.988-9.013-7.988
			c-9.953,0-48.732,0-48.732,0V410.527z"/>
		<path fill="#58595B" d="M513.989,426.573l-30.467,73.778h-17.048l-31.086-73.778v73.778h-28.065v-89.824h39.295l28.198,67.784
			l28.473-67.784h38.769v89.824h-28.068V426.573z"/>
		<path fill="#58595B" d="M590.77,410.527v35.089l36.177-35.089h23.421l-41.521,40.395l43.681,49.43h-27.142l-31.479-35.074
			l-3.137,2.732v32.342h-28.068v-89.824H590.77z"/>
	</g>
	<g>
		<polygon fill="#58595B" points="652.526,223.907 652.526,94.5 539.442,94.5 		"/>
		<polygon fill="#58595B" points="302.445,94.5 189.363,94.5 189.363,223.907 		"/>
		<polygon fill="#58595B" points="437.726,94.5 437.538,94.5 437.538,310.675 463.617,340.558 652.526,340.558 652.526,340.304 		
			"/>
		<polygon fill="#58595B" points="404.349,310.675 404.349,94.5 404.157,94.5 189.363,340.304 189.363,340.558 378.41,340.558 		"/>
	</g>
</g>
</svg>
