<svg xmlns="http://www.w3.org/2000/svg" width="841.89" height="595.28" viewBox="0 0 841.89 595.28"><path fill-rule="evenodd" clip-rule="evenodd" fill="#58595B" d="M90.1 336c5.443 5.838 14.28 5.575 14.817 5.575 451.606-.07 17.46-5.526 2.56-5.48-9.683.05-12.1-.643-17.377-10.088-22.083-39.473-5.04-128.983 37.447-138.678 9.112-2.074 141.463-1.812 138.307-4.277-1.81-1.417-142.488-7.205-147.514-4.74-42.426 20.75-56.885 111.342-28.24 157.688zm624.1 8.053c.284 5.36-10.745 11.792-22.513 6.48-8.504-3.836-18.27-6.647-28.824-3.24-12.578 4.073-20.2 9.67-31.23 3.24-21.415-12.53-47.833 1.93-44.117-.787 30.396-22.226 46.595 2.24 73.014-6.885 8.956-3.096 20.105-4.882 28.037.097 11.387 7.146 21.63-.715 21.32-9.695-.523-15.258-16.65-123.874-23.416-130.758-9.17-9.314-75.347-18.354-84.185-6.837-3.168 4.133-5.79 38.257.07 62.008 1.025 4.145 83.233 2.096 80.375 6.432-2.668 4.038-81.637-1.94-82.732 4.92-5.765 36.578 5.026 67.522-34.922 68.452-330.654 7.74-50.98-4.766-24.513-7.78 16.175-1.845 41.568-87.4 2.645-127.517-28.968-29.86-242.658-14.007-258.25-19.63-4.454-1.606 223.208-7.585 256.034 4.086 34.398 12.23 35.542 107.422 18.295 134.89-3.192 5.098 27.657 2.43 30.468 1.44 6.956-2.44 1.5-87.52.715-126.683-.238-11.458-27.37-21.7-25.656-21.724 36.59-.44 115.416 7.99 128.827 24.178 9.482 11.434 18.653 111.033 20.56 145.313z"/><path fill-rule="evenodd" clip-rule="evenodd" fill="#58595B" d="M234.172 363.515c-15.842-13.792-38.733-25.155-58.374-6.24-17.688 16.96-2.3-26.86 38.542-11.626 9.303 3.477 25.096 22.44 19.832 17.865zM421.646 360.87c15.877-12.935 38.805-23.583 58.482-5.645 17.7 16.103 2.31-25.335-38.614-11.125-9.326 3.24-25.143 21.083-19.868 16.77z"/><path fill-rule="evenodd" clip-rule="evenodd" fill="#58595B" d="M111.766 409.157v-81.315H93.554v-17.807h55.075v17.807h-18.522v81.315h-18.342zM359.4 381.19h19.2c.263 3.883 1.61 6.956 4.027 9.22 2.418 2.238 5.622 3.382 9.577 3.382 3.812 0 6.944-1.215 9.42-3.62 2.466-2.383 3.693-5.432 3.693-9.124 0-4.288-1.513-7.72-4.514-10.314-2.62-2.192-6.86-4.288-12.71-6.194-2.155-.715-3.465-1.144-3.99-1.286-3.453-1.286-6.192-2.572-8.182-3.812-3.93-2.5-7.062-5.813-9.373-9.98-2.31-4.193-3.454-8.624-3.454-13.34 0-5.027 1.298-9.696 3.883-14.008 2.608-4.312 6.134-7.72 10.588-10.208 4.48-2.5 9.267-3.752 14.448-3.752 5.372 0 10.244 1.203 14.603 3.586 4.347 2.37 7.813 5.717 10.386 9.993 2.56 4.312 3.966 9.147 4.252 14.53h-18.9c-.287-3.168-1.43-5.67-3.443-7.527-2.026-1.87-4.586-2.787-7.707-2.787-2.906 0-5.265.976-7.075 2.87-1.81 1.94-2.704 4.42-2.704 7.444 0 2.953.917 5.312 2.75 7.122 1.812 1.834 5.075 3.573 9.732 5.193l4.23 1.404c6.633 2.335 11.66 4.884 15.102 7.623 6.92 5.693 10.42 13.102 10.42 22.178 0 5.836-1.416 11.196-4.262 16.056-2.823 4.86-6.73 8.696-11.673 11.53-4.93 2.787-10.314 4.217-16.127 4.217-9.35 0-17.21-3.24-23.583-9.767-2.882-2.883-4.967-6.074-6.336-9.624-1.287-2.787-2.05-6.456-2.276-11.006zm389.58 27.967V327.45h-12.46v-16.89h30.158v98.597h-17.7zM142.936 409.157V360.3h10.637v4.406c1.56-2.24 3.108-3.812 4.67-4.67 1.57-.88 3.56-1.333 5.966-1.333h.952v11.387c-2.37.096-4.347.596-5.932 1.5-1.524.763-2.75 2.025-3.668 3.788-.63 1.382-.953 3.86-.953 7.41v26.37h-11.674zm89.092 0V360.3h10.827v4.454c1.62-1.882 3.312-3.264 5.086-4.17 2.598-1.237 5.36-1.88 8.303-1.88 5.753 0 10.66 2.262 14.686 6.788.38.405.582.644.654.667 1.465 2.023 2.465 4.287 3.013 6.836.56 2.55.834 6.17.834 10.84v25.32h-11.767v-23.06c0-5.787-.655-9.742-1.977-11.838-.774-1.215-1.87-2.168-3.31-2.93-1.442-.74-2.955-1.12-4.503-1.12-1.68 0-3.264.38-4.752 1.167-1.488.81-2.63 1.858-3.44 3.17-.75 1.166-1.263 2.62-1.56 4.382-.275 1.74-.406 4.454-.406 8.123v22.106h-11.686zm85.15-35.446H305.72c-.5-2.334-2.037-3.5-4.622-3.5-1.37 0-2.477.38-3.3 1.118-.82.74-1.226 1.716-1.226 2.906 0 1.144.43 2.025 1.286 2.716.858.69 2.37 1.31 4.55 1.906l.583.19h.168c5.49 1.5 9.398 3.406 11.78 5.693 2.394 2.286 3.585 5.312 3.585 9.075 0 3.097-.798 5.932-2.382 8.552-1.595 2.597-3.75 4.646-6.502 6.17-2.74 1.477-5.753 2.24-8.993 2.24-2.334 0-4.574-.43-6.73-1.264-2.143-.834-4.06-2.025-5.704-3.55-1.405-1.405-2.607-3.145-3.596-5.193-.774-1.667-1.25-4.002-1.49-6.98h11.97c.906 3.67 2.99 5.48 6.195 5.48 1.595 0 2.93-.43 3.94-1.263 1.025-.857 1.525-1.978 1.525-3.36 0-1.38-.524-2.5-1.62-3.38-1.072-.883-2.978-1.788-5.74-2.717-.072 0-.168-.024-.263-.048-.107-.023-.178-.048-.19-.048l-.488-.19-2.072-.644c-3.692-1.167-6.54-2.953-8.54-5.336-2.037-2.358-3.05-5.17-3.05-8.433 0-2.738.728-5.287 2.18-7.622 1.454-2.334 3.43-4.17 5.944-5.503s5.24-2.024 8.183-2.024c2.965 0 5.633.645 8.003 1.883 2.358 1.263 4.252 3.025 5.67 5.336 1.428 2.264 2.238 4.885 2.405 7.79zm9.064 12.27v-10.554h24.75v10.553h-24.75zm164.654 23.177V360.3h10.624v4.406c1.572-2.24 3.12-3.812 4.67-4.67 1.57-.88 3.572-1.333 5.98-1.333h.952v11.387c-2.382.096-4.36.596-5.932 1.5-1.524.763-2.764 2.025-3.692 3.788-.62 1.382-.93 3.86-.93 7.41v26.37h-11.672zm44.593 0L515.717 360.3h13.078l11.315 32.087 11.27-32.088h13.005l-19.748 48.857h-9.148zm35.637 0V360.3H582.8v48.857h-11.673zm0-54.504v-10.768H582.8v10.768h-11.673zm138.95 31.326v-10.554h24.75v10.553h-24.75z"/><g fill="#58595B"><path d="M456.807 370.21c-4.454 0-8.17 1.643-11.1 4.954-1.05 1.167-1.92 2.62-2.55 4.335H470.1c-.763-2.073-1.716-3.67-2.835-4.79-2.716-3-6.218-4.5-10.458-4.5zM203.99 372.067c-2.143-1.24-4.584-1.858-7.324-1.858-2.75 0-5.265.618-7.492 1.904-2.227 1.263-3.978 3.025-5.23 5.265-1.226 2.238-1.87 4.764-1.87 7.6 0 2.667.644 5.097 1.895 7.288 1.238 2.19 3 3.907 5.192 5.146 2.203 1.24 4.67 1.858 7.408 1.858 2.704 0 5.146-.62 7.3-1.882 2.157-1.24 3.87-2.954 5.086-5.146 1.227-2.19 1.834-4.67 1.834-7.36 0-2.836-.596-5.36-1.787-7.6-1.178-2.24-2.857-3.978-5.012-5.217z"/><path d="M199.905 349.056c-19.748 0-35.85 16.08-35.85 35.827s16.102 35.852 35.85 35.852c19.735 0 35.85-16.104 35.85-35.852s-16.114-35.827-35.85-35.827zm21.987 60.1H211.16v-6.598c-1.346 1.572-2.454 2.74-3.335 3.478-.916.74-2.167 1.5-3.715 2.264-3.085 1.644-6.444 2.478-10.076 2.478-4.49 0-8.54-1.144-12.15-3.383-3.608-2.264-6.442-5.384-8.503-9.386-2.048-4.003-3.072-8.458-3.072-13.413 0-4.788 1.06-9.147 3.228-13.102 2.144-3.978 5.074-7.1 8.802-9.36 3.692-2.288 7.79-3.432 12.245-3.432 3.61 0 6.74.715 9.433 2.168 1.44.716 2.645 1.525 3.62 2.36.988.88 2.144 2.19 3.525 3.953v-6.885h10.732v48.86zM455.663 347.983c-19.735 0-35.84 16.104-35.84 35.852s16.105 35.827 35.84 35.827c19.748 0 35.852-16.08 35.852-35.827s-16.104-35.852-35.852-35.852zm25.8 40.854l-.168 1.144h-37.947c.81 2.098 1.727 3.693 2.74 4.766 2.644 3.025 6.098 4.526 10.338 4.526 2.453 0 4.692-.477 6.79-1.43 1.404-.62 2.715-1.572 3.953-2.787h13.006c-1.286 3.073-2.74 5.432-4.36 7.146-2.5 2.693-5.478 4.814-8.86 6.314-3.383 1.5-6.86 2.264-10.41 2.264-4.598 0-8.86-1.168-12.805-3.48-3.94-2.31-7.073-5.454-9.35-9.433-2.31-3.954-3.465-8.266-3.465-12.91 0-4.74 1.167-9.1 3.466-13.15 2.323-4.025 5.456-7.218 9.398-9.576 3.967-2.335 8.278-3.526 12.947-3.526 4.48 0 8.647 1.167 12.53 3.478 3.86 2.312 6.956 5.408 9.242 9.314 2.312 3.907 3.43 8.123 3.43 12.626 0 .88-.14 2.476-.475 4.715zM674.25 349.056c-15.627 0-23.226 6.48-33.397 6.48-6.504 0-14.722-6.48-24.728-6.48-19.748 0-35.852 16.08-35.852 35.827s16.104 35.852 35.852 35.852c11.936 0 22.535-5.884 29.063-14.912 6.527 9.028 17.128 14.912 29.063 14.912 19.75 0 35.853-16.104 35.853-35.852s-16.105-35.827-35.853-35.827zm-66.915 46.022c2.74 2.787 6.17 4.193 10.268 4.193 4.62 0 8.313-2 11.053-6.026h13.174c-.81 2.19-1.55 3.883-2.19 5.026-.62 1.144-1.502 2.382-2.598 3.645-2.525 2.835-5.48 5.026-8.838 6.552-3.406 1.548-6.908 2.31-10.6 2.31-4.718 0-9.077-1.167-13.104-3.5-4.025-2.336-7.193-5.527-9.552-9.554-2.335-4.025-3.502-8.41-3.502-13.126 0-4.716 1.167-9.052 3.478-13.03 2.335-3.978 5.455-7.122 9.434-9.41 4.002-2.31 8.338-3.453 12.982-3.453 2.525 0 4.98.357 7.385 1.072 2.383.738 4.646 1.763 6.766 3.145 2.146 1.335 4.05 3.002 5.718 4.932 1.12 1.286 1.978 2.525 2.62 3.716.644 1.24 1.31 2.883 2.002 4.98h-13.174c-1.43-2.287-3-3.884-4.74-4.86s-3.883-1.477-6.48-1.477c-2.763 0-5.24.62-7.384 1.812-2.144 1.238-3.812 2.93-5.026 5.12-1.19 2.193-1.786 4.67-1.786 7.457-.002 4.213 1.356 7.69 4.095 10.478zm92.285-5.098h-37.948c.81 2.097 1.716 3.692 2.716 4.765 2.668 3.025 6.122 4.526 10.387 4.526 2.43 0 4.692-.476 6.765-1.43 1.406-.618 2.716-1.57 3.955-2.786H698.5c-1.286 3.073-2.74 5.432-4.36 7.146-2.5 2.692-5.478 4.813-8.86 6.313-3.383 1.5-6.86 2.264-10.434 2.264-4.574 0-8.838-1.168-12.792-3.48-3.93-2.31-7.052-5.454-9.34-9.433-2.31-3.954-3.452-8.266-3.452-12.91 0-4.74 1.143-9.1 3.453-13.15 2.335-4.025 5.456-7.218 9.41-9.576 3.954-2.334 8.266-3.525 12.91-3.525 4.503 0 8.672 1.167 12.555 3.478 3.86 2.313 6.956 5.41 9.243 9.315 2.31 3.907 3.454 8.123 3.454 12.626 0 .882-.143 2.478-.477 4.717l-.19 1.143z"/><path d="M675.132 370.21c-4.455 0-8.147 1.643-11.102 4.954-1.048 1.167-1.905 2.62-2.55 4.335h26.943c-.762-2.073-1.715-3.67-2.835-4.79-2.715-3-6.216-4.5-10.456-4.5z"/></g></svg>