<svg xmlns="http://www.w3.org/2000/svg" width="841.89" height="595.28" viewBox="0 0 841.89 595.28"><path fill="#58595B" d="M381.054 248.313c1.22 0 1.922.61 1.922 1.91v47.01c3.127 2.863 5.353 6.396 6.573 10.47.583-1.253 1.204-2.44 1.854-3.493v-21.288c0-2.265-.177-3.826-.177-3.826h.177s3.734 7.032 13.478 7.032c11.475 0 19.984-9.045 19.984-23.043 0-13.644-7.556-23.033-19.385-23.033-10.95 0-14.6 7.825-14.6 7.825h-.18s.082-1.046.082-2.354c0-2.77-1.464-4.427-5.382-4.427h-18.735c-4.088 0-5.397.702-7.652 4.427l-5.31 8.526c-.694 1.128-1.485 2.78-1.485 2.78h-.17s-.776-1.652-1.383-2.78l-5.39-8.527c-2.35-3.645-3.563-4.427-7.66-4.427h-5.38v7.218h2.43c1.827 0 2.78.263 3.727 1.656l8.443 12.515-14.868 22.608h9.567l9.13-14.354c.68-1.038 1.383-2.347 1.383-2.347h.17s.71 1.31 1.323 2.346l9.293 14.353h9.478l-14.867-22.608 8.428-12.61c.88-1.298 1.997-1.56 3.75-1.56h11.434c1.22-.002 0-.002 0-.002zm22.52 30.595c-8.177 0-12.428-7.826-12.428-15.64 0-11.22 6.16-15.828 12.687-15.828 7.305 0 12.428 6.17 12.428 15.734 0 10-5.72 15.734-12.686 15.734zM737.69 309.987c1.796-.762 3.63-1.058 6.765-1.058 7.63 0 12.377 2.284 12.895 2.543l2.32 1.183 5.502-16.63-2.04-.744c-3.314-1.215-8.888-2.83-18.935-2.83-7.793 0-14.27 1.41-19.252 4.194-6.898 3.824-10.543 10.117-10.543 18.198 0 4.266 1.22 7.812 3.623 10.558 2.076 2.277 6.652 5.057 9.625 6.225l3.127 1.228c3.527 1.383 5.494 2.377 6.203 3.157.563.613.96 1.615.96 2.388 0 1.516-.62 2.64-1.847 3.342-1.508.8-4.82 1.634-8.842 1.634-4.827 0-9.138-1.02-13.987-3.27l-2.33-1.088-5.248 16.883 2.076.703c8.4 2.832 15.868 3.246 19.58 3.246 3.304 0 14.696-.374 22.312-5.217 6.115-3.85 9.48-10.296 9.48-18.144 0-3.664-.843-6.954-2.39-9.482-2.586-4.373-6.875-6.536-10.705-8.23l-5.44-2.328c-1.708-.74-3.04-1.316-4.075-2.182-.797-.69-.938-1.064-.938-1.674 0-.832.23-1.87 2.107-2.607zM298.827 293.477H277.52l-13.908 65.35h46.644l3.594-17.05h-25.345"/><path fill="#58595B" d="M358.062 292.452c-7.35 0-16.9.983-25.7 8.62-8.575 7.45-13.69 19.207-13.69 31.438 0 8.743 2.528 15.593 7.496 20.343 4.88 4.72 11.592 7.01 20.53 7.01 11.298 0 20.303-3.476 27.52-10.614 7.644-7.45 11.703-18.022 11.703-30.568 0-7.094-1.855-12.757-5.685-17.316-6.692-7.988-15.86-8.914-22.173-8.914zm.827 45.112c-3.254 4.34-7.202 5.24-9.938 5.24-2.868 0-5.07-.952-6.543-2.853-1.65-2.128-1.856-5.004-1.856-7.267 0-7.48 1.915-13.95 5.412-18.194 2.75-3.35 5.93-4.978 9.773-4.978 3.252 0 5.093 1.272 6.07 2.337 2.002 2.194 2.23 5.633 2.23 8.03.002 6.12-2.215 13.736-5.15 17.684zM433.436 309.514c7.467 0 12.62 1.73 15.645 3.172l2.788 1.34 4.932-17.55-2.33-.796c-6.586-2.23-13.285-3.228-21.705-3.228-7.83 0-19.26.772-28.117 7.392-4.03 3.023-13.42 11.97-13.42 29.662 0 9.012 2.92 16.143 8.88 21.803 4.06 3.902 11.54 8.553 24.14 8.553 7.304 0 13.935-.843 21.505-2.743l1.568-.396 8.163-38.15h-30.52l-3.394 16.536h9.477l-1.633 7.275c-.88.226-2.182.42-4.133.42-5.25 0-8.19-2.312-9.73-4.257-1.714-2.182-2.624-5.216-2.624-8.776 0-5.13 1.893-10.77 4.695-14.02 3.588-4.142 8.917-6.238 15.816-6.238zM474.402 293.477l-13.914 65.35h21.29l13.91-65.35M528.113 310.513c1.715-.732 3.482-1 6.56-1 7.134 0 11.74 2.064 12.597 2.48l2.676 1.3 5.686-17.163-2.387-.863c-3.328-1.21-8.91-2.813-18.838-2.813-7.77 0-14.24 1.41-19.223 4.194-6.95 3.855-10.625 10.2-10.625 18.343 0 4.308 1.233 7.89 3.688 10.67 2.13 2.353 6.668 5.09 9.662 6.272l3.084 1.197c3.387 1.33 5.346 2.313 5.988 3.038.502.536.88 1.44.88 2.1 0 1.36-.577 2.35-1.663 2.965-1.384.762-4.644 1.574-8.548 1.574-4.717 0-8.94-.986-13.686-3.2l-2.705-1.258-5.403 17.477 2.395.807c8.326 2.813 15.785 3.23 19.482 3.23 3.305 0 14.652-.377 22.268-5.208 6.15-3.893 9.545-10.377 9.545-18.276 0-3.737-.828-6.972-2.418-9.57-2.64-4.46-6.92-6.61-10.76-8.273l-5.38-2.33c-1.648-.71-2.957-1.278-3.926-2.076-.77-.65-.8-.924-.8-1.37.002-.783.222-1.597 1.85-2.247zM612.914 293.477H561.45l-3.704 17.065h14.883l-10.226 48.285h21.56l10.224-48.285h15.03M609.484 358.827h21.293l13.907-65.35h-21.286M707.238 295.792c-6.1-2.273-12.605-3.34-20.502-3.34-13.27 0-23.178 3.45-30.275 10.56-3.2 3.197-10.645 12.254-10.645 27.093 0 10.957 4.836 17.744 8.902 21.5 8.014 7.452 20.316 8.258 25.225 8.258 2.352 0 8.6-.236 15.8-2.43l1.597-.487 2.58-19.307-4.325 2.068c-4.355 2.093-8.74 3.098-13.412 3.098-1.78 0-7.223 0-10.81-3.2-2.505-2.24-3.776-5.57-3.776-9.93 0-6.75 2.58-11.338 4.73-13.974 3.498-4.23 8.326-6.188 15.186-6.188 1.102 0 3.97.067 6.78.633 2.69.558 4.94 1.43 6.86 2.65l2.877 1.834 5.492-17.977-2.284-.86zM95.194 215.838l-18.476 86.94h63.745l4.384-20.63h-34.275l2.817-13.267h34.28l4.378-20.628h-34.26l2.49-11.787h20.983l-2.556 4.418h14.668l8.487-14.69-8.488-14.74h-14.668l2.535 4.385"/><g><path fill="#58595B" d="M212.2 352.55l-5.027-10.07c-8.828 9.664-20.575 16.588-33.87 19.356l14.433-67.9H158.26l-18.66 87.2c6.66 1.705 13.61 2.69 20.81 2.69 26.048 0 49.336-11.853 64.737-30.474l-12.947-.8z"/></g><g fill="#58595B"><path d="M307.063 240.05c12.354 0 18.964 9.217 18.964 20.61 0 1.125-.26 3.48-.26 3.48h-32.085c.517 9.38 7.312 14.68 15.126 14.68 7.578 0 12.864-5.13 12.864-5.13l3.652 6s-6.52 6.437-16.945 6.437c-13.922 0-23.393-9.988-23.393-23.043 0-14 9.574-23.033 22.076-23.033zm10.262 17.907c-.267-7.3-4.857-11.206-10.343-11.206-6.432 0-11.652 3.908-12.953 11.207h23.295zM434.27 250.222c0-1.3-.687-1.91-1.915-1.91h-3.57v-7.217h8.008c3.836 0 5.64 1.563 5.64 5.127v2.782c0 1.745-.16 3.044-.16 3.044h.16c2.1-6.434 7.136-11.48 13.93-11.48 1.124 0 2.255.173 2.255.173v8.344s-1.13-.253-2.53-.253c-5.38 0-10.34 3.838-12.345 10.346-.783 2.518-1.035 5.22-1.035 7.917v18h-8.436v-34.87zM485.092 240.05c12.355 0 18.957 9.217 18.957 20.61 0 1.125-.253 3.48-.253 3.48h-32.094c.525 9.38 7.305 14.68 15.14 14.68 7.558 0 12.858-5.13 12.858-5.13l3.66 6s-6.52 6.437-16.96 6.437c-13.906 0-23.393-9.988-23.393-23.043 0-14 9.56-23.033 22.085-23.033zm10.262 17.907c-.266-7.3-4.863-11.206-10.35-11.206-6.432 0-11.652 3.908-12.945 11.207h23.294zM515.566 272.747s5.213 6.508 13.31 6.508c4.08 0 7.644-1.816 7.644-5.645 0-7.916-23.99-7.044-23.99-21.215 0-8.436 7.377-12.345 16.346-12.345 5.31 0 14.432 1.826 14.432 8.524v4.177h-7.57v-2.172c0-2.62-3.912-3.75-6.61-3.75-4.96 0-8.17 1.746-8.17 5.22 0 8.347 24 6.525 24 21.205 0 7.827-6.958 12.873-16.177 12.873-11.73 0-17.558-7.735-17.558-7.735l4.344-5.643zM556.57 272.747s5.213 6.508 13.293 6.508c4.088 0 7.652-1.816 7.652-5.645 0-7.916-23.992-7.044-23.992-21.215 0-8.436 7.387-12.345 16.34-12.345 5.31 0 14.432 1.826 14.432 8.524v4.177h-7.557v-2.172c0-2.62-3.91-3.75-6.61-3.75-4.944 0-8.175 1.746-8.175 5.22 0 8.347 23.998 6.525 23.998 21.205 0 7.827-6.948 12.873-16.17 12.873-11.73 0-17.565-7.735-17.565-7.735l4.355-5.643zM176.6 226.193l-6.41 11.105c30.335 4.71 53.58 30.87 53.58 62.524 0 6.16-.954 12.08-2.603 17.698l-2.225-3.882-7.35 12.687 8.452 14.713 13.463.09c6.913-12.215 10.905-26.273 10.905-41.306 0-42.77-31.998-77.995-73.34-83.244l5.53 9.615zM78.566 318.453c5.708 25.52 23.015 46.725 47.324 57.874l4.42-20.805c-12.25-6.64-22.016-17.227-27.716-30.024l4.77.688-5.45-13.604-16.805-2.436-6.544 8.307z"/></g></svg>