<?xml version="1.0" encoding="utf-8"?>
<!-- Generator: Adobe Illustrator 18.0.0, SVG Export Plug-In . SVG Version: 6.00 Build 0)  -->
<!DOCTYPE svg PUBLIC "-//W3C//DTD SVG 1.1//EN" "http://www.w3.org/Graphics/SVG/1.1/DTD/svg11.dtd">
<svg version="1.1" id="Icons" xmlns="http://www.w3.org/2000/svg" xmlns:xlink="http://www.w3.org/1999/xlink" x="0px" y="0px"
	 viewBox="10 50 36 36" enable-background="new 10 50 36 36" xml:space="preserve">
<g id="Ux">
	<g>
		<g>
			<polygon points="46,62 44,62 44,52 34,52 34,50 46,50 			"/>
		</g>
		<g>
			<polygon points="12,62 10,62 10,50 22,50 22,52 12,52 			"/>
		</g>
		<g>
			<polygon points="22,86 10,86 10,74 12,74 12,84 22,84 			"/>
		</g>
		<g>
			<polygon points="46,86 34,86 34,84 44,84 44,74 46,74 			"/>
		</g>
		<g>
			<path d="M31,71h-6v-6h6V71z M27,69h2v-2h-2V69z"/>
		</g>
	</g>
</g>
</svg>
