<?xml version="1.0" encoding="utf-8"?>
<!-- Generator: Adobe Illustrator 16.0.0, SVG Export Plug-In . SVG Version: 6.00 Build 0)  -->
<!DOCTYPE svg PUBLIC "-//W3C//DTD SVG 1.1//EN" "http://www.w3.org/Graphics/SVG/1.1/DTD/svg11.dtd">
<svg version="1.1" id="Layer_1" xmlns="http://www.w3.org/2000/svg" xmlns:xlink="http://www.w3.org/1999/xlink" x="0px" y="0px"
	 width="841.89px" height="595.28px" viewBox="0 0 841.89 595.28" enable-background="new 0 0 841.89 595.28" xml:space="preserve">
<g>
	<g>
		<path fill="#58595B" d="M559.41,366.65c-26.423,0-47.849,23.174-47.849,51.753s21.426,51.745,47.849,51.745
			c26.422,0,47.849-23.166,47.849-51.745S585.832,366.65,559.41,366.65z M559.41,446.902c-13.624,0-24.65-13.776-24.65-28.499
			c0-14.738,11.026-28.154,24.65-28.154c13.625,0,24.666,13.416,24.666,28.154C584.076,433.126,573.035,446.902,559.41,446.902z"/>
		<path fill="#58595B" d="M124.893,368.799H63.749c-2.959,0-4.435,2.357-4.435,5.164v12.694c0,2.365,1.323,5.172,4.435,5.172h17.657
			v71.183c0,2.511,2.366,4.436,5.156,4.436h15.493c2.814,0,5.172-1.925,5.172-4.436v-71.183h17.665c3.087,0,4.427-2.807,4.427-5.172
			v-12.694C129.319,371.156,127.836,368.799,124.893,368.799z"/>
		<path fill="#58595B" d="M499.63,368.277h-56.661c-3.393,0-5.172,1.917-5.172,4.418l-1.483,55.523
			c-0.265,10.617-3.16,16.005-9.688,16.615c-0.457,0.048-29.068-0.032-29.068-0.032c-12.35-1.13-22.108-13.865-22.108-27.488
			c0-14.258,10.689-27.257,23.88-27.257c0.915,0,3.305-0.216,3.305-0.216c2.518,0,4.442-2.366,4.442-5.173v-12.309
			c0-2.278-1.292-4.25-3.127-4.908c-0.41-0.159-0.843-0.256-1.315-0.256h-3.305c-12.958,0-24.674,5.774-33.085,15.043
			c-8.195,9.045-13.263,21.419-13.263,35.075c0,13.672,5.067,26.045,13.263,35.073c8.411,9.286,20.127,15.061,33.085,15.061
			l29.759,0.031c21.129,0,28.491-13.095,31.137-39.854l1.034-36.324h19.799v71.743c0,2.511,2.366,4.435,5.181,4.435h13.543
			c2.815,0,5.021-1.924,5.021-4.435v-90.349C504.802,370.194,503.021,368.277,499.63,368.277z"/>
		<path fill="#58595B" d="M686.525,368.799h-13.521c-3.392,0-5.172,1.925-5.172,4.435v30.118h-30.36v-30.118
			c0-2.51-1.778-4.435-5.172-4.435H619.03c-3.399,0-5.164,1.925-5.164,4.435v90.348c0,2.494,2.357,4.411,5.164,4.411h13.271
			c2.814,0,5.172-1.917,5.172-4.411v-37.207h30.36v37.207c0,2.494,2.357,4.411,5.172,4.411h13.672c2.814,0,5.021-1.917,5.021-4.411
			v-90.348C691.697,370.724,689.917,368.799,686.525,368.799z"/>
		<path fill="#58595B" d="M777.402,368.277h-10.89c-3.544,0-5.309,1.772-6.495,3.689l-31.586,47.688v-46.96
			c0-2.501-2.357-4.418-5.172-4.418h-13.352c-2.807,0-5.172,1.917-5.172,4.418v90.349c0,2.511,1.779,4.435,5.172,4.435h10.993
			c3.536,0,5.324-1.764,6.495-3.697l31.45-48.713v47.976c0,2.511,2.214,4.435,5.004,4.435h13.552c2.823,0,5.181-1.924,5.181-4.435
			v-90.349C782.583,370.194,780.803,368.277,777.402,368.277z"/>
		<path fill="#58595B" d="M301.42,368.277h-10.89c-3.561,0-5.317,1.772-6.495,3.689l-31.595,47.688v-46.96
			c0-2.501-2.357-4.418-5.155-4.418h-13.368c-2.799,0-5.155,1.917-5.155,4.418v90.349c0,2.511,1.764,4.435,5.155,4.435h11.01
			c3.536,0,5.309-1.764,6.479-3.697l31.441-48.713v47.976c0,2.511,2.214,4.435,5.028,4.435h13.544c2.807,0,5.172-1.924,5.172-4.435
			v-90.349C306.592,370.194,304.812,368.277,301.42,368.277z"/>
		<path fill="#58595B" d="M217.879,404.555c-0.216-12.677-2.734-22.043-12.124-28.908c-7.049-5.155-19.55-7.257-32.509-7.257
			h-24.979c-3.392,0-5.172,1.933-5.172,4.435v90.349c0,2.51,2.213,4.418,5.027,4.418h13.544c2.815,0,5.172-1.908,5.172-4.418V442.5
			c1.26,0.072,6.407,0.104,6.407,0.104c12.959,0,25.46-2.085,32.509-7.25c9.39-6.863,11.908-16.229,12.124-28.898
			C217.888,406.456,217.888,404.555,217.879,404.555z M174.457,421.779h-7.618v-32.557h7.618
			c12.116,1.114,21.715,3.264,22.068,16.206C196.036,419.719,186.646,420.665,174.457,421.779z"/>
	</g>
	<g>
		<g>
			<path fill="#58595B" d="M433.033,523.13c0.537-1.139,1.154-2.373,1.836-3.721c0.69-1.348,1.403-2.695,2.142-4.05
				c0.745-1.354,1.483-2.679,2.237-3.953c0.737-1.268,1.435-2.39,2.102-3.352h7.104c-0.338,1.899-0.706,3.913-1.107,6.045
				l-2.028,9.944c-0.081,0.313-0.12,0.593-0.153,0.85c-0.023,0.256-0.047,0.457-0.047,0.602c0,0.4,0.096,0.69,0.304,0.891
				c0.218,0.2,0.546,0.288,0.995,0.288c0.448,0,1.002-0.04,1.684-0.128l-0.962,4.499c-0.434,0.087-0.898,0.167-1.396,0.224
				c-0.505,0.056-0.945,0.089-1.362,0.089c-1.619,0-2.847-0.313-3.641-0.915c-0.811-0.609-1.219-1.556-1.219-2.838
				c0-0.338,0.064-0.787,0.145-1.38c0.104-0.593,0.24-1.275,0.4-2.037c0.161-0.77,0.354-1.604,0.562-2.501
				c0.208-0.898,0.449-1.82,0.666-2.743c0.224-0.93,0.457-1.845,0.697-2.767c0.225-0.938,0.474-1.795,0.689-2.598h-0.208
				c-0.65,1.123-1.355,2.381-2.117,3.761c-0.754,1.396-1.54,2.855-2.365,4.362c-0.811,1.523-1.629,3.079-2.494,4.659
				c-0.858,1.587-1.7,3.144-2.534,4.658h-3.673c-0.048-1.411-0.104-2.854-0.176-4.354c-0.072-1.491-0.161-2.983-0.257-4.482
				c-0.112-1.508-0.24-2.991-0.385-4.475c-0.161-1.476-0.354-2.887-0.602-4.226h-0.209c-0.265,1.645-0.513,3.23-0.785,4.763
				c-0.249,1.531-0.554,2.959-0.906,4.29c-0.345,1.331-0.762,2.534-1.219,3.624c-0.481,1.091-1.059,2.021-1.724,2.791
				c-0.667,0.778-1.437,1.388-2.318,1.812c-0.906,0.426-1.933,0.634-3.104,0.634c-0.321,0-0.697-0.016-1.146-0.056
				c-0.433-0.048-0.794-0.104-1.099-0.184l1.019-4.925c0.385,0.104,0.786,0.169,1.179,0.169c0.577,0,1.13-0.241,1.628-0.706
				c0.497-0.464,0.946-1.123,1.379-1.964c0.409-0.843,0.786-1.853,1.163-2.991c0.353-1.155,0.682-2.422,0.986-3.77
				c0.305-1.363,0.602-2.798,0.883-4.313c0.264-1.516,0.537-3.056,0.785-4.603h6.664c0.488,2.405,0.882,4.898,1.194,7.489
				c0.306,2.599,0.514,5.115,0.626,7.586H433.033z"/>
			<path fill="#58595B" d="M473.007,513.764c0,1.282-0.313,2.438-0.93,3.448c-0.625,1.026-1.556,1.893-2.768,2.614
				c-1.218,0.713-2.717,1.267-4.498,1.636c-1.788,0.385-3.832,0.577-6.167,0.577c-0.271,0-0.608-0.009-1.009-0.024v0.136
				c0,0.844,0.119,1.572,0.36,2.19c0.256,0.634,0.609,1.146,1.059,1.531c0.473,0.4,1.042,0.689,1.691,0.866
				c0.666,0.185,1.419,0.272,2.245,0.272c1.228,0,2.526-0.145,3.881-0.449c1.355-0.305,2.543-0.705,3.553-1.211l-1.01,4.933
				c-0.986,0.4-2.109,0.721-3.36,0.962c-1.268,0.24-2.605,0.369-4.018,0.369c-1.691,0-3.159-0.233-4.401-0.69
				c-1.26-0.466-2.294-1.099-3.088-1.924c-0.818-0.834-1.427-1.821-1.82-2.952c-0.409-1.146-0.602-2.405-0.602-3.768
				c0-1.22,0.136-2.431,0.401-3.633c0.24-1.195,0.609-2.35,1.099-3.44c0.488-1.107,1.106-2.116,1.819-3.063
				c0.723-0.946,1.572-1.749,2.526-2.438c0.955-0.69,2.029-1.236,3.216-1.629c1.179-0.393,2.478-0.593,3.857-0.593
				c1.219,0,2.317,0.151,3.311,0.456c0.962,0.289,1.798,0.722,2.479,1.268c0.689,0.537,1.227,1.203,1.611,1.973
				C472.814,511.952,473.007,512.817,473.007,513.764z M467.378,513.764c0-0.514-0.224-0.971-0.626-1.348
				c-0.416-0.385-1.034-0.569-1.868-0.569c-0.642,0-1.282,0.129-1.94,0.377c-0.649,0.257-1.267,0.626-1.852,1.131
				c-0.562,0.506-1.083,1.099-1.549,1.82c-0.457,0.723-0.826,1.547-1.083,2.485c1.677,0,3.081-0.112,4.22-0.336
				c1.146-0.226,2.053-0.513,2.741-0.882c0.697-0.369,1.195-0.786,1.5-1.235C467.218,514.726,467.378,514.261,467.378,513.764z"/>
			<path fill="#58595B" d="M489.935,503.388c-0.85,0.192-1.611,0.465-2.269,0.826c-0.658,0.368-1.243,0.857-1.765,1.475
				c-0.514,0.609-0.986,1.379-1.403,2.294c-0.409,0.922-0.794,2.028-1.187,3.344h0.104c0.401-0.337,0.866-0.649,1.38-0.946
				c0.514-0.306,1.075-0.562,1.668-0.802c0.593-0.225,1.211-0.401,1.86-0.53c0.657-0.144,1.347-0.208,2.053-0.208
				c1.026,0,1.988,0.161,2.903,0.506c0.897,0.336,1.684,0.85,2.357,1.531c0.673,0.682,1.202,1.523,1.579,2.534
				c0.385,1.01,0.569,2.181,0.569,3.504c0,1.9-0.28,3.729-0.882,5.51c-0.594,1.763-1.443,3.327-2.566,4.683
				c-1.122,1.354-2.493,2.445-4.121,3.271c-1.604,0.818-3.448,1.236-5.493,1.236c-1.011,0-2.021-0.146-3.039-0.426
				c-1.011-0.297-1.933-0.795-2.742-1.508c-0.802-0.722-1.468-1.691-1.966-2.942c-0.505-1.235-0.77-2.807-0.77-4.699
				c0-1.411,0.104-2.888,0.289-4.442c0.185-1.556,0.473-3.112,0.842-4.651s0.834-3.015,1.372-4.442
				c0.537-1.41,1.171-2.693,1.884-3.832c0.497-0.811,1.075-1.557,1.692-2.245c0.625-0.69,1.323-1.3,2.109-1.845
				c0.777-0.546,1.668-1.019,2.646-1.429c0.97-0.393,2.085-0.729,3.313-1.009l8.748-1.885l-1.082,5.3L489.935,503.388z
				 M481.707,521.927c0,1.05,0.089,1.908,0.266,2.574c0.192,0.666,0.432,1.179,0.753,1.556c0.32,0.368,0.698,0.617,1.139,0.761
				c0.441,0.129,0.923,0.193,1.444,0.193c1.09,0,2.053-0.28,2.919-0.858c0.857-0.585,1.563-1.323,2.141-2.245
				c0.585-0.913,1.01-1.933,1.323-3.056c0.313-1.122,0.465-2.221,0.465-3.312c0-0.634-0.049-1.211-0.177-1.724
				c-0.12-0.514-0.313-0.946-0.602-1.299c-0.264-0.361-0.617-0.634-1.059-0.818c-0.441-0.192-0.978-0.288-1.627-0.288
				c-0.506,0-1.026,0.064-1.572,0.192c-0.537,0.12-1.091,0.304-1.635,0.529c-0.546,0.231-1.075,0.505-1.597,0.834
				c-0.521,0.32-1.002,0.682-1.451,1.074c-0.112,0.401-0.208,0.85-0.313,1.348c-0.08,0.489-0.169,1.01-0.226,1.539
				c-0.072,0.546-0.119,1.067-0.144,1.58C481.724,521.028,481.707,521.494,481.707,521.927z"/>
			<path fill="#58595B" d="M517.632,512.608c-0.441-0.079-0.803-0.112-1.066-0.112c-1.194,0-2.189,0.418-2.967,1.268
				c-0.433,0.497-0.834,1.09-1.171,1.788c-0.345,0.698-0.666,1.476-0.963,2.285c-0.288,0.834-0.593,1.691-0.897,2.599
				c-0.305,0.914-0.609,1.813-0.945,2.702c-0.354,0.898-0.738,1.756-1.156,2.606c-0.433,0.85-0.93,1.619-1.499,2.341
				c-0.811,1.011-1.78,1.813-2.911,2.422c-1.138,0.594-2.51,0.89-4.129,0.89c-0.289,0-0.658-0.016-1.115-0.056
				c-0.449-0.048-0.842-0.104-1.13-0.184l1.019-4.925c0.432,0.104,0.897,0.169,1.371,0.169c0.521,0,1.002-0.145,1.418-0.434
				c0.434-0.28,0.818-0.689,1.188-1.234c0.385-0.562,0.737-1.234,1.058-2.004c0.321-0.779,0.634-1.604,0.938-2.486
				c0.313-0.898,0.634-1.805,0.955-2.742c0.32-0.938,0.689-1.861,1.074-2.768c0.4-0.89,0.834-1.748,1.314-2.558
				c0.49-0.802,1.044-1.507,1.677-2.102c0.994-0.97,2.156-1.635,3.473-2.02c1.331-0.369,2.798-0.569,4.466-0.569
				c2.045,0,4.226,0.248,6.535,0.737l-3.295,15.821c-0.057,0.313-0.104,0.593-0.129,0.85c-0.048,0.256-0.063,0.457-0.063,0.602
				c0,0.408,0.119,0.714,0.328,0.906c0.225,0.185,0.537,0.272,0.979,0.272c0.417,0,0.979-0.04,1.684-0.128l-0.971,4.499
				c-0.416,0.087-0.881,0.167-1.387,0.224c-0.497,0.056-0.954,0.089-1.355,0.089c-1.636,0-2.902-0.32-3.849-0.938
				c-0.922-0.634-1.388-1.645-1.388-3.056c0-0.208,0.008-0.448,0.032-0.714c0.016-0.264,0.057-0.521,0.137-0.793L517.632,512.608z"
				/>
			<path fill="#58595B" d="M548.722,513.764c0,1.282-0.313,2.438-0.938,3.448c-0.618,1.026-1.54,1.893-2.751,2.614
				c-1.219,0.713-2.719,1.267-4.507,1.636c-1.779,0.385-3.849,0.577-6.158,0.577c-0.272,0-0.609-0.009-1.011-0.024v0.136
				c0,0.844,0.104,1.572,0.361,2.19c0.233,0.634,0.586,1.146,1.058,1.531c0.475,0.4,1.036,0.689,1.692,0.866
				c0.666,0.185,1.404,0.272,2.229,0.272c1.243,0,2.526-0.145,3.882-0.449c1.362-0.305,2.541-0.705,3.552-1.211l-1.019,4.933
				c-0.962,0.4-2.084,0.721-3.336,0.962c-1.267,0.24-2.605,0.369-4.025,0.369c-1.684,0-3.159-0.233-4.395-0.69
				c-1.267-0.466-2.293-1.099-3.103-1.924c-0.818-0.834-1.42-1.821-1.82-2.952c-0.394-1.146-0.586-2.405-0.586-3.768
				c0-1.22,0.121-2.431,0.377-3.633c0.257-1.195,0.626-2.35,1.122-3.44c0.49-1.107,1.091-2.116,1.829-3.063
				c0.722-0.946,1.555-1.749,2.518-2.438c0.946-0.69,2.021-1.236,3.208-1.629c1.187-0.393,2.462-0.593,3.864-0.593
				c1.22,0,2.302,0.151,3.289,0.456c0.978,0.289,1.812,0.722,2.501,1.268c0.683,0.537,1.22,1.203,1.597,1.973
				C548.537,511.952,548.722,512.817,548.722,513.764z M543.075,513.764c0-0.514-0.2-0.971-0.601-1.348
				c-0.426-0.385-1.034-0.569-1.868-0.569c-0.642,0-1.283,0.129-1.941,0.377c-0.657,0.257-1.267,0.626-1.853,1.131
				c-0.569,0.506-1.082,1.099-1.547,1.82c-0.465,0.723-0.826,1.547-1.099,2.485c1.676,0,3.095-0.112,4.218-0.336
				c1.139-0.226,2.061-0.513,2.758-0.882c0.698-0.369,1.195-0.786,1.5-1.235C542.924,514.726,543.075,514.261,543.075,513.764z"/>
			<path fill="#58595B" d="M568.623,519.336c1.131,0.265,1.99,0.762,2.575,1.468c0.601,0.706,0.89,1.588,0.89,2.631
				c0,1.091-0.256,2.133-0.777,3.127s-1.292,1.861-2.311,2.614c-1.01,0.738-2.253,1.331-3.744,1.771
				c-1.5,0.441-3.216,0.667-5.18,0.667c-1.549,0-3.072-0.169-4.563-0.514c-1.499-0.338-2.854-0.81-4.065-1.412
				c0.112-1.026,0.225-2.053,0.353-3.103c0.137-1.034,0.273-2.045,0.417-3.048c0.145-0.985,0.305-1.932,0.466-2.846
				c0.168-0.923,0.329-1.765,0.489-2.534c0.393-1.78,0.865-3.328,1.467-4.651c0.586-1.331,1.355-2.438,2.293-3.336
				c0.923-0.882,2.045-1.556,3.337-2.013c1.307-0.441,2.854-0.673,4.667-0.673c1.282,0,2.414,0.151,3.416,0.456
				c1.002,0.289,1.844,0.706,2.533,1.235c0.706,0.538,1.22,1.162,1.589,1.893c0.359,0.722,0.544,1.516,0.544,2.365
				c0,1.388-0.359,2.582-1.066,3.577c-0.714,0.993-1.82,1.739-3.328,2.229V519.336z M563.476,521.687
				c-0.705,0-1.547,0.023-2.526,0.079c-0.97,0.064-1.98,0.153-3.007,0.273c-0.128,0.714-0.256,1.476-0.385,2.277
				c-0.112,0.802-0.216,1.587-0.272,2.357c0.401,0.152,0.882,0.257,1.435,0.337c0.546,0.08,1.195,0.129,1.949,0.129
				c0.778,0,1.54-0.081,2.237-0.258c0.698-0.16,1.314-0.4,1.837-0.713c0.521-0.297,0.946-0.682,1.234-1.114
				c0.313-0.449,0.465-0.938,0.465-1.476c0-0.603-0.225-1.06-0.705-1.396C565.264,521.847,564.518,521.687,563.476,521.687z
				 M564.623,511.903c-0.754,0-1.452,0.104-2.094,0.336c-0.642,0.226-1.219,0.594-1.716,1.091c-0.514,0.498-0.946,1.139-1.315,1.941
				c-0.368,0.802-0.657,1.764-0.842,2.887c1.732-0.137,3.168-0.337,4.282-0.61c1.123-0.28,2.013-0.601,2.678-0.985
				c0.666-0.377,1.131-0.786,1.388-1.234c0.265-0.441,0.4-0.891,0.4-1.372c0-0.609-0.248-1.106-0.705-1.491
				C566.218,512.088,565.528,511.903,564.623,511.903z"/>
			<path fill="#58595B" d="M577.276,524.901c0-0.376,0.023-0.802,0.064-1.275c0.04-0.48,0.151-1.106,0.328-1.907l2.863-13.664h5.589
				l-2.943,14.145c-0.137,0.642-0.208,1.235-0.208,1.804c0,0.963,0.232,1.66,0.674,2.109c0.449,0.449,1.05,0.658,1.812,0.658
				c0.49,0,1.003-0.064,1.516-0.209c0.521-0.145,1.035-0.385,1.54-0.722s0.994-0.785,1.476-1.331
				c0.473-0.545,0.897-1.219,1.298-2.028c0.266-0.546,0.521-1.179,0.738-1.9s0.449-1.588,0.666-2.599l2.053-9.927h5.589
				l-3.304,15.989c-0.072,0.313-0.112,0.593-0.145,0.85c-0.032,0.256-0.048,0.457-0.048,0.602c0,0.408,0.104,0.714,0.32,0.906
				c0.233,0.185,0.554,0.272,0.979,0.272c0.458,0,1.019-0.04,1.677-0.128l-0.97,4.499c-1.012,0.2-1.926,0.313-2.743,0.313
				c-1.315,0-2.311-0.32-2.983-0.964c-0.674-0.624-1.051-1.531-1.139-2.717h-0.096c-0.866,1.323-1.965,2.316-3.265,2.958
				c-1.314,0.658-2.814,0.979-4.482,0.979c-1.011,0-1.939-0.146-2.767-0.457c-0.841-0.297-1.571-0.73-2.156-1.3
				c-0.609-0.569-1.083-1.268-1.428-2.094C577.445,526.931,577.276,525.985,577.276,524.901z"/>
			<path fill="#58595B" d="M604.612,524.901c0-0.376,0.008-0.802,0.049-1.275c0.031-0.48,0.151-1.106,0.32-1.907l2.871-13.664h5.589
				l-2.936,14.145c-0.145,0.642-0.224,1.235-0.224,1.804c0,0.963,0.239,1.66,0.681,2.109c0.449,0.449,1.059,0.658,1.813,0.658
				c0.489,0,0.994-0.064,1.516-0.209s1.027-0.385,1.54-0.722c0.505-0.337,0.994-0.785,1.476-1.331
				c0.473-0.545,0.897-1.219,1.307-2.028c0.257-0.546,0.513-1.179,0.721-1.9c0.241-0.722,0.449-1.588,0.675-2.599l2.053-9.927h5.598
				l-3.313,15.989c-0.056,0.313-0.12,0.593-0.145,0.85c-0.032,0.256-0.048,0.457-0.048,0.602c0,0.408,0.104,0.714,0.337,0.906
				c0.217,0.185,0.538,0.272,0.954,0.272c0.465,0,1.026-0.04,1.684-0.128l-0.962,4.499c-1.002,0.2-1.933,0.313-2.759,0.313
				c-1.291,0-2.285-0.32-2.959-0.964c-0.674-0.624-1.066-1.531-1.154-2.717h-0.104c-0.865,1.323-1.948,2.316-3.264,2.958
				c-1.307,0.658-2.807,0.979-4.482,0.979c-1.011,0-1.924-0.146-2.767-0.457c-0.834-0.297-1.548-0.73-2.156-1.3
				c-0.61-0.569-1.067-1.268-1.404-2.094C604.772,526.931,604.612,525.985,604.612,524.901z M616.304,496.964
				c-0.169,0.746-0.248,1.372-0.248,1.876c0,1.629,0.705,2.447,2.116,2.447c1.043,0,1.973-0.386,2.775-1.123
				c0.785-0.746,1.427-1.805,1.9-3.2h5.34c-0.897,2.734-2.196,4.836-3.953,6.278c-1.74,1.46-3.89,2.183-6.432,2.183
				c-0.97,0-1.86-0.129-2.678-0.394c-0.825-0.266-1.531-0.65-2.142-1.179c-0.593-0.529-1.059-1.188-1.395-1.973
				c-0.329-0.803-0.498-1.716-0.498-2.759c0-0.674,0.081-1.396,0.209-2.157H616.304z"/>
			<path fill="#58595B" d="M659.077,530.78c-0.706-0.21-1.268-0.554-1.701-1.035c-0.416-0.489-0.682-1.179-0.754-2.068h-0.096
				c-0.866,1.323-1.973,2.316-3.271,2.958c-1.308,0.658-2.807,0.979-4.476,0.979c-1.018,0-1.948-0.146-2.789-0.457
				c-0.818-0.297-1.548-0.73-2.143-1.3c-0.601-0.569-1.082-1.268-1.418-2.094c-0.337-0.833-0.506-1.778-0.506-2.862
				c0-0.376,0.008-0.802,0.064-1.275c0.04-0.48,0.152-1.106,0.328-1.907l2.855-13.664h5.597l-2.95,14.145
				c-0.145,0.642-0.209,1.188-0.209,1.668c0,1.034,0.225,1.78,0.674,2.229c0.457,0.457,1.05,0.674,1.82,0.674
				c0.729,0,1.516-0.161,2.316-0.489c0.787-0.329,1.549-0.931,2.254-1.78c0.545-0.666,1.051-1.507,1.499-2.535
				c0.449-1.025,0.818-2.309,1.139-3.864l2.078-10.047h5.588l-3.343,16.142c-0.057,0.329-0.097,0.568-0.104,0.722
				c-0.016,0.152-0.032,0.28-0.032,0.368c0,0.538,0.137,0.899,0.417,1.1c0.281,0.2,0.722,0.288,1.339,0.288
				c0.177,0,0.465-0.008,0.85-0.04c0.394-0.032,0.818-0.08,1.251-0.169l-2.622,12.614h-5.421L659.077,530.78z"/>
			<path fill="#58595B" d="M690.382,513.764c0,1.282-0.313,2.438-0.931,3.448c-0.624,1.026-1.555,1.893-2.767,2.614
				c-1.21,0.713-2.709,1.267-4.507,1.636c-1.771,0.385-3.823,0.577-6.149,0.577c-0.272,0-0.618-0.009-1.019-0.024v0.136
				c0,0.844,0.112,1.572,0.361,2.19c0.24,0.634,0.593,1.146,1.066,1.531c0.465,0.4,1.026,0.689,1.691,0.866
				c0.666,0.185,1.419,0.272,2.229,0.272c1.234,0,2.534-0.145,3.896-0.449c1.355-0.305,2.543-0.705,3.553-1.211l-1.018,4.933
				c-0.987,0.4-2.102,0.721-3.353,0.962c-1.268,0.24-2.606,0.369-4.025,0.369c-1.684,0-3.159-0.233-4.402-0.69
				c-1.26-0.466-2.286-1.099-3.104-1.924c-0.802-0.834-1.41-1.821-1.795-2.952c-0.41-1.146-0.603-2.405-0.603-3.768
				c0-1.22,0.128-2.431,0.377-3.633c0.257-1.195,0.626-2.35,1.114-3.44c0.489-1.107,1.09-2.116,1.828-3.063
				c0.722-0.946,1.564-1.749,2.527-2.438c0.945-0.69,2.02-1.236,3.207-1.629c1.186-0.393,2.469-0.593,3.864-0.593
				c1.211,0,2.31,0.151,3.288,0.456c0.979,0.289,1.813,0.722,2.502,1.268c0.682,0.537,1.211,1.203,1.604,1.973
				C690.197,511.952,690.382,512.817,690.382,513.764z M684.753,513.764c0-0.514-0.217-0.971-0.626-1.348
				c-0.416-0.385-1.026-0.569-1.86-0.569c-0.642,0-1.29,0.129-1.949,0.377c-0.648,0.257-1.258,0.626-1.843,1.131
				c-0.57,0.506-1.092,1.099-1.549,1.82c-0.465,0.723-0.825,1.547-1.091,2.485c1.668,0,3.089-0.112,4.227-0.336
				c1.123-0.226,2.045-0.513,2.742-0.882c0.689-0.369,1.188-0.786,1.492-1.235C684.6,514.726,684.753,514.261,684.753,513.764z"/>
			<path fill="#58595B" d="M706.732,531.02l1.973-9.478h-8.974l-1.973,9.478h-5.589l4.755-22.965h5.59l-1.829,8.724h8.997
				l1.813-8.724h5.604l-4.778,22.965H706.732z"/>
			<path fill="#58595B" d="M740.7,511.494c0.978-1.299,2.141-2.285,3.448-2.975c1.331-0.69,2.75-1.034,4.218-1.034
				c0.938,0,1.788,0.136,2.559,0.393c0.746,0.265,1.402,0.642,1.947,1.154c0.546,0.498,0.987,1.123,1.284,1.845
				c0.296,0.722,0.44,1.563,0.44,2.51c0,0.585-0.048,1.235-0.16,1.941c-0.104,0.713-0.233,1.419-0.377,2.14l-2.822,13.552h-5.59
				l2.799-13.454c0.161-0.763,0.257-1.372,0.32-1.829c0.057-0.457,0.072-0.85,0.072-1.17c0-0.329-0.031-0.626-0.128-0.915
				c-0.08-0.289-0.216-0.537-0.408-0.745c-0.185-0.218-0.45-0.385-0.746-0.506c-0.321-0.128-0.722-0.2-1.163-0.2
				c-0.954,0-1.845,0.272-2.679,0.81c-0.842,0.529-1.571,1.267-2.165,2.205c-0.32,0.474-0.601,1.003-0.826,1.604
				c-0.24,0.601-0.456,1.323-0.625,2.156l-2.485,12.044h-5.598l2.807-13.454c0.16-0.763,0.272-1.372,0.321-1.829
				c0.048-0.457,0.072-0.85,0.072-1.17c0-0.329-0.041-0.626-0.121-0.915c-0.088-0.289-0.232-0.537-0.417-0.745
				c-0.184-0.218-0.449-0.385-0.753-0.506c-0.313-0.128-0.714-0.2-1.163-0.2c-0.874,0-1.692,0.231-2.478,0.682
				c-0.795,0.465-1.476,1.09-2.07,1.908c-0.393,0.513-0.729,1.115-1.001,1.78c-0.289,0.674-0.514,1.467-0.715,2.357l-2.501,12.092
				h-5.604l4.77-22.965h4.765v2.887h0.095c0.377-0.449,0.811-0.891,1.315-1.308c0.506-0.417,1.067-0.794,1.652-1.099
				c0.602-0.32,1.219-0.577,1.909-0.762c0.689-0.192,1.387-0.288,2.108-0.288c1.403,0,2.59,0.344,3.577,1.034
				c0.978,0.689,1.65,1.676,2.012,2.975H740.7z"/>
			<path fill="#58595B" d="M773.232,507.485c0.994,0,1.9,0.2,2.727,0.608c0.818,0.393,1.523,0.954,2.125,1.66
				c0.585,0.723,1.051,1.588,1.371,2.614c0.321,1.026,0.489,2.173,0.489,3.432c0,1.204-0.129,2.438-0.353,3.705
				c-0.249,1.268-0.602,2.47-1.051,3.641c-0.473,1.171-1.059,2.278-1.732,3.304c-0.682,1.027-1.46,1.925-2.357,2.679
				c-0.89,0.77-1.892,1.379-3.015,1.819c-1.106,0.441-2.294,0.667-3.561,0.667c-1.011,0-1.925-0.146-2.751-0.457
				c-0.818-0.297-1.516-0.699-2.076-1.18h-0.097l-2.518,12.061h-5.59l7.04-33.983h4.805v2.887h0.104
				c0.328-0.434,0.707-0.867,1.156-1.283c0.416-0.418,0.905-0.786,1.442-1.107c0.536-0.32,1.123-0.568,1.765-0.77
				C771.772,507.589,772.479,507.485,773.232,507.485z M763.818,525.688c0.441,0.377,0.947,0.698,1.516,0.946
				c0.602,0.257,1.259,0.377,1.972,0.377c0.715,0,1.389-0.16,2.021-0.465c0.634-0.321,1.203-0.754,1.716-1.314
				c0.514-0.546,0.971-1.188,1.371-1.926c0.402-0.737,0.754-1.515,1.027-2.349c0.288-0.826,0.497-1.685,0.641-2.559
				c0.145-0.874,0.209-1.731,0.209-2.565c0-1.139-0.209-2.054-0.626-2.727c-0.433-0.675-1.098-1.019-1.996-1.019
				c-0.794,0-1.62,0.265-2.478,0.818c-0.857,0.537-1.645,1.331-2.334,2.381c-0.408,0.61-0.777,1.323-1.083,2.125
				c-0.32,0.81-0.593,1.739-0.809,2.783L763.818,525.688z"/>
		</g>
	</g>
	<g>
		<path fill="#58595B" d="M784.604,308.016c-3.448-0.433-51.305-5.945-51.81-6.021l10.12-16.708h-33.047
			c-5.404-9.639-7.016-20.789-7.489-26.189c1.974-6.415,3.015-13.103,3.112-19.819c0.568,3.484,2.469,19.414,2.469,19.414
			c0.032,0.469,0.104,1.095,0.585,1.411c0.418,0.329,1.06,0.341,1.516,0.036c0.506-0.297,0.569-0.906,0.698-1.359
			c0.12-0.481,1.868-8.196,1.099-22.429c-0.722-13.287-2.317-26.743-7.369-39.1c-3.865-9.446-27.97-29.345-47.368-35.099
			c-1.604-0.477-3.176-1.002-4.811-1.396c-1.636-0.368-45.475-7.493-54.176-8.271c-0.232-0.821-1.034-3.776-2.838-5.196
			c-1.188-0.93-11.523-3.576-14.98-4.639c-3.431-1.054-6.863-2.141-10.296-3.284c-1.708-0.573-3.407-1.138-5.1-1.744
			c-1.708-0.581-3.352-1.19-4.755-2.301c-1.034-1.34-3.697-4.25-8.726-4.916c-3.535-0.473-8.459,0.718-10.104,1.138
			c-6.552,1.58-12.854,4.01-19.021,6.704c-21.441-7.45-34.313-32.821-35.379-35.03c-6.207-12.915-16.27-26.791-20.456-30.416
			c-7.858-6.844-21.33-11.996-25.933-13.728l-0.857-0.321c-0.266-0.128-0.69-0.236-1.075-0.185c-0.833,0.1-1.339,0.726-1.651,1.476
			c-0.305,0.742,1.58,5.1,0.28,6.788c-0.168,0.196-0.369,0.256-0.698,0.637c-0.265,0.317-0.416,0.702-0.424,1.095
			c-0.057,0.802,0.505,1.6,1.21,1.849c4.499,1.88,9.229,3.54,12.967,6.636c4.563,3.776,16.968,14.542,21.57,36.871
			c0.898,4.818,1.805,9.619,3.272,14.341c1.442,4.699,3.384,9.294,6.094,13.444c2.037,3.103,4.555,5.954,7.537,8.191
			c-1.146-0.385-14.418-4.566-26.245-15.372c-1.242-1.146-2.293-2.59-4.041-3.452c-1.949-0.966-2.863,0.665-2.968,0.874
			c-1.211,2.518,2.182,6.836,2.687,7.545c4.25,5.513,9.343,10.18,14.675,14.515c2.687,2.165,5.493,4.186,8.46,5.97
			c2.918,1.86,6.294,3.14,9.662,3.869c6.728,1.512,13.585,2.009,20.408,2.181c0.81,0.253,3.184,1.007,3.624,2.75
			c0.049,0.354-1.362,6.616-3.977,9.523c-0.562,0.625-2.55,1.624-4.618,2.053c-0.972-0.064-1.941-0.032-2.943,0.157
			c-0.946,0.192-4.122,0.918-3.89,2.862c0.129,0.838,0.891,1.303,1.708,1.391c2.421,0.261,9.054,4.503,12.285,6.543
			c3.271,2.041,6.447,4.21,10.016,5.902c0.906,0.421,1.884,0.746,2.91,0.906c0.931,0.153,1.973,0.241,2.92,0.289
			c1.812,0.081,3.576,0,5.348-0.165c1.307,4.118,3.97,10.128,6.849,13.42c9.013,10.316,10.544,14.859,10.737,15.444
			c-1.725,2.357-0.922,14.61-0.922,14.61c0.088,4.851,1.307,22.14-5.108,31.959c-0.915,1.388-1.668,2.811-2.149,4.326
			c-0.481,1.515-1.372,7.75-1.483,9.298l0,0c0,0-1.154,6.455-6.472,6.455h-56.389c-3.984,0-9.71-8.335-9.782-8.456
			c-0.898-10.861-2.687-25.705-2.687-25.705c0.056-0.083,10.834-8.957,14.514-16.182c1.372,0.762,6.729,4.062,13.48,6.724
			c-0.104,4.058-1.476,22.602-2.157,24.458c-2.951,5.717-5.197,7.028-5.492,7.554c-0.321,0.573-0.441,1.234-0.241,1.824
			c1.659,4.663,7.193,7.097,8.228,7.401c3.864,1.11,5.211-1.861,5.917-2.891c0.698-0.994,1.308-2.125,1.845-3.215
			c1.026-2.241,8.396-19.979,9.045-46.65c0.033-1.227-2.814-20.039-8.219-30.455c-1.7-3.276-9.614-9.567-14.097-11.64
			c-1.115-0.509-2.285-0.986-3.521-1.243c-1.186-0.276-2.533-0.417-3.752-0.104c-2.374,0.574-4.627,1.451-6.775,2.606
			c-2.863-2.057-9.11-6.849-18.708-6.423c-3.097,0.132-7.955,3.407-10.618,5.805c-2.63,2.361-4.955,5.024-7.056,7.831
			c-8.7,0.986-32.798,3.439-43.992,6.435c-2.262,0.602-5.564,2.947-7.249,4.395c-3.408,2.915-18.211,15.144-18.644,34.269
			c-0.104,4.495-0.521,15.869,2.927,17.565c1.235,0.598,2.951-2.594,3.096-2.778c0.104,1.371,1.307,7.097,0.97,9.446
			c-0.713,4.944-6.848,10.604-16.687,10.965h-21.034c-4.45,0-6.198-5.75-6.415-6.475c-0.256-2.161-3.288-24.153-3.969-32.252
			c-1.3-15.4-9.695-30.199-9.695-30.199c11.371-8.267,21.819-27.26,24.121-29.433c2.814-2.618,14.643-9.691,19.59-11.952
			c9.254-4.23,20.561-3.572,22.461-3.308c0.793,0.064,2.807,0.297,3.407-0.296c0.306-0.285,0.586-1.884-2.253-6.944
			c-1.379-2.454-3.159-4.715-5.284-6.559c-11.451-9.86-9.286-12.678-9.142-13.187c0.546-0.245,1.291-0.269,1.949-0.333
			c0.681-0.043,22.965-0.128,31.209-1.351c5.5-0.806,11.05-1.764,16.206-3.925c2.582-1.143,4.979-2.522,7.441-3.837
			c1.219-0.67,5.068-2.814,6.271-3.79c0.145-0.108,0.626-0.457,0.577-1.05c-0.023-0.421-0.648-0.926-0.825-1.042
			c-0.369-0.213-1.868-1.067-7.931-0.954c-3.015,0.056-6.039,0.256-9.021,0.489c-2.999,0.224-6.007,0.477-9.006,0.758
			c-1.459,0.136-2.926,0.273-4.386,0.385c2.839-0.658,17.177-4.398,20.953-7.044c0.449-0.361,1.564-0.846,1.268-2.025
			c-0.177-0.726-1.131-0.946-1.283-0.974c-1.219-0.133-2.294-0.004-3.424,0.072c-2.222,0.188-14.747,1.667-19.061,1.335
			c10.007-10.18,9.95-30.797,10.007-34.738c0.16-10.204-3.568-16.442-8.115-22.164c-2.47-3.123-8.477-9.414-20.696-10.941
			c-20.585-2.59-27.945,11.884-29.959,15.308c-0.985,1.7-8.396,17.95-11.764,19.481c-1.739,0.794-5.613,1.175-6.398-0.216
			c-0.513-0.898,1.106-2.979,1.748-3.721c0.625-0.721,2.646-1.876,3.656-2.233c0.369-0.132,0.946-0.216,1.508-0.396
			c3.745-1.25,3.231-3.537,2.422-4.539c-2.759-3.432-13.801-9.202-16.984-7.674c-0.826,0.558-1.194,1.701-1.106,2.518
			c0.032,0.951,1.106,3.854,1.219,4.611c0.225,1.431,0.024,4.787-2.43,8.476c-1.748,2.654-2.686,6.026-2.141,9.31
			c0.777,4.975,4.025,7.381,4.498,7.75c-2.293,2.169-5.444,3.412-8.604,3.059c-1.66-0.148-10.145-3.079-15.653-0.738
			c-7.017,2.983-8.7,10.581-9.254,12.161c-8.764,4.719-18.636,7.674-28.644,7.629c-10.096-0.004-20.207-0.738-30.343-0.369
			c-5.06,0.168-31.402,0.738-58.169,15.533c-8.869,4.9-16.318,12.052-23.447,19.281c-7.04,7.213-12.605,14.674-17.071,24.943
			c-3.376,7.766-4.09,32.087-4.596,49.252c-0.128,4.29-0.44,7.918-0.208,11.166c0.104,1.552,0.609,1.656,1.051,1.776
			c0.425,0.1,0.938-0.016,1.187-0.2c2.213-1.716,5.309-8.977,6.23-11.026c1.107,4.105,2.181,8.231,3.015,12.389
			c0.201,1.115,0.409,2.257,0.449,3.343c0.009,1.075-0.304,2.149-0.85,3.104c-1.066,1.928-2.807,3.476-4.715,4.654
			c-3.985,2.266-7.875,4.788-12.133,6.439c-2.069,0.806-4.458,1.311-6.399,2.859c-0.954,0.746-1.724,1.848-2.036,3.05
			c-1.114,4.382,2.125,13.328,2.654,14.755H90.388l10.416,17.172c-26.959,2.967-43.959,5.59-44.111,5.605v1.194l364.256,0.602
			l364.249-0.602v-1.194C784.996,308.04,784.804,308.032,784.604,308.016z M431.573,130.644c-1.387,0.465-12.63,5.978-26.285,6.102
			c-11.323,0.096-25.083-2.169-29.958-2.927c-0.169-0.145-1.019-0.557,0.071-1.612c0.955-0.922,1.989-1.05,1.989-1.05
			c8.476,2.021,19.156,2.314,21.586,2.398C407.79,133.851,431.509,130.651,431.573,130.644z M204.512,285.287h-47.495
			c0.553-3.837,11.779-22.577,34.128-33.924C199.789,258.736,214.472,280.547,204.512,285.287z M263.458,278.739
			c0,0-1.139,6.547-4.137,6.547h-16.52c-2.751,0-6.776-6.439-6.776-6.439s-7.77-22.629-8.106-23.864
			c-0.368-1.239-0.481-2.369-0.368-3.621c0.216-2.325,0.97-4.643,1.916-6.852c0,0,23.038,0.104,35.924-6.989
			c-0.682,2.218-2.67,9.507-2.799,11.038C262.464,250.096,263.587,275.905,263.458,278.739z M312.982,298.654
			c-0.023-0.036-1.042-1.788-1.771-4.744c-0.778-3.203,2.068-7.313,1.933-10.601c0-0.048-20.031-25.284-23.96-43.037
			c-1.203-5.373-2.511-14.47-3.401-14.47c-0.688,0-2.71,4.194-3.584,7.518c-4.578-2.518-15.1-16.178-19.093-24.758
			c-7.265-15.524-6.735-25.592-4.321-30.219c0.063-0.117,0.039-0.329-0.138-0.457c-0.248-0.173-0.657-0.153-0.85,0
			c-0.722,0.529-2.694,3.247-4.057,8.419c-1.941,7.357,3.11,23.896,3.833,26.049c-1.989-3.05-3.825-6.182-5.518-9.41
			c-0.08-0.165-0.28-0.252-0.69-0.088c-0.4,0.16-0.473,0.336-0.44,0.537c0.658,3.208,3.905,10.781,4.884,12.814
			c-0.497,1.075-7.979,11.074-23.672,13.804c-18.443,3.212-31.755-0.986-31.755-0.986v0.008c-0.369-0.806-3.536-7.501-9.582-15.496
			c-2.013-2.654-10.473-11.631-10.473-11.631c-0.04-0.024-0.337-0.272-0.626-0.052c-0.313,0.257-0.048,0.634-0.023,0.666
			c0,0,4.507,4.267,9.591,20.545c-1.099-2.182-2.471-4.214-3.865-6.139c-2.695-3.721-5.813-7.032-9.134-10.071
			c-3.384-2.979-6.912-5.746-10.737-8.083c-0.08-0.06-0.208-0.04-0.272,0.04c-0.088,0.096-0.08,0.241,0.016,0.321
			c0,0,10.481,8.792,17.112,19.77c4.002,6.6,5.678,16.174,5.813,18.588c-2.028,3.071-5.012,6.736-9.486,10.834
			c-6.455,5.938-25.363,20.111-25.363,20.111s-3.119,2.426-4.065,3.324c-0.137,0.125-0.337,0.365-0.12,0.726
			c0.176,0.285,0.617,0.2,0.802,0.121c0.842-0.357,3.047-1.648,3.047-1.648s-4.723,3.817-5.004,4.069c0,0-0.473,0.353-0.185,0.786
			c0.272,0.393,0.634,0.232,0.803,0.156c1.491-0.725,5.813-3.139,5.813-3.139l-8.059,6.555c0,0-0.466,0.377-0.097,0.826
			c0.385,0.461,0.817,0.16,0.817,0.16l7.089-3.841c-1.628,5.276-3.079,12.65-4.699,24.305c0,0-15.355,4.354-24.963-27.288
			c-0.376-1.255,28.588-19.237,28.123-21.033c-1.396-5.401-2.863-11.183-3.473-15.324c-1.322-9.022-2.045-31.273-2.935-31.579
			c-1.885-0.629-4.33,8.339-4.37,6.6c-0.08-4.126,3.496-14.771,4.467-18.368c9.759-35.683,37.567-49.279,44.889-52.635
			c17.594-8.071,47.111-8.119,49.524-8.26l-9.999,8.164c-0.032,0.021-0.225,0.205-0.08,0.481c0.2,0.292,0.425,0.224,0.48,0.208
			c0.746-0.205,13.624-7.518,13.624-7.518s-17.633,14.314-17.705,14.394c0,0-0.232,0.2-0.08,0.529
			c0.192,0.316,0.521,0.192,0.521,0.192c0.152-0.052,27.088-14.53,27.088-14.53s-25.685,20.865-25.78,20.957
			c0,0-0.265,0.232-0.088,0.593c0.176,0.337,0.585,0.209,0.585,0.209c0.513-0.245,38.098-20.953,38.098-20.953
			c-0.465,1.74-3.416,14.081,2.068,23.123c4.507,7.465,15.749,11.976,19.39,13.275c0,0-3.096,2.43-4.058,3.316
			c-0.128,0.112-0.28,0.292-0.04,0.693c0.217,0.325,0.489,0.281,0.755,0.164c0.793-0.336,3.015-1.664,3.015-1.664
			s-4.731,3.821-5.004,4.078c-0.145,0.128-0.281,0.425,0.024,0.781c0.239,0.289,0.562,0.189,0.705,0.101
			c1.428-0.782,5.701-3.076,5.701-3.076s-6.038,4.896-8.043,6.532c-0.16,0.14-0.393,0.537-0.088,0.894
			c0.2,0.249,0.626,0.22,0.794,0.108c0.4-0.261,22.372-12.092,22.372-12.092s0.369-0.197,0.369-0.734c0,0,0.232-19.711,2.005-23.925
			c1.451-3.524,4.747-3.484,5.084-3.544c0.265-0.06,0.705-0.385,0.658-0.894c-0.033-0.782-0.947-0.83-1.075-0.846
			c-0.979-0.109-4.274,0.072-6.263,1.864c-3.809,3.452-3.593,14.951-3.713,17.313c-0.063,2.325-0.36,4.647-1.211,6.748
			c-0.433,1.019-0.906,3.62-4.932,2.506c-2.213-0.622-19.71-6.556-22.798-14.731c-4.747-12.605,3.007-23.768,4.979-24.91
			c3.93-2.286,16.383-5.369,18.813-7.377c3.4-2.834,2.799-12.538,9.278-15.007c4.378-1.676,11.21,0.028,12.75,0.008
			c3.616-0.048,8.188-2.069,8.188-2.069s-0.938,0.709-1.123,1.03c-0.152,0.429-0.072,0.718,0.225,0.967
			c0.272,0.236,0.546,0.224,0.546,0.224c0.055-0.008-2.11,1.764-2.11,1.764s-0.448,0.445-0.096,0.999
			c0.369,0.573,0.714,0.501,0.971,0.405c0.866-0.361,3.335-1.784,3.335-1.784s-4.683,3.46-5.966,4.908
			c-0.256,0.276-0.176,0.766-0.032,0.951c0.498,0.617,0.931,0.424,1.22,0.272c2.085-1.155,21.073-11.616,21.073-11.616
			c0.529-0.092,4.154-0.653,6.76-2.077c3.665-2.004,7.041-6.343,7.041-6.343c0.537,0.225,8.588,3.336,16.631,0.257
			c2.702-1.035,5.284-2.586,7.329-4.683c2.076-2.097,3.616-4.707,4.386-7.554c1.66-5.629-0.393-12.605-6.102-15.392
			c-3.048-1.215-5.766-0.08-8.524,1.993c-6.046,4.518-16.134,22.368-17.714,24.092c-3.191,3.524-9.142,8.484-17.777,6.335
			c-1.139-0.281-13.143-4.166-7.169-14.618c1.043-1.845,2.189-4.539,2.446-7.068c0.112-1.263,0.063-2.559-0.201-3.817
			c-0.128-0.618-0.617-1.981-0.641-2.057c0.561,0.252,7.93,4.009,9.501,4.931c-0.577,0.156-4.763,0.87-7.144,4.996
			c-2.431,4.202-1.115,6.439-0.626,6.952c2.053,2.161,5.726,1.576,6.872,1.488c7.298-0.577,10.416-9.286,12.373-13.319
			c2.317-4.723,7.249-12.261,13.15-16.154c5.879-3.925,13.288-5.26,20.225-3.978c3.472,0.625,6.815,1.888,9.814,3.749
			c2.983,1.856,5.702,4.23,7.818,7.053c4.042,5.352,5.605,11.848,5.781,13.21c-0.488-1.143-2.045-5.008-3.68-4.233
			c-0.891,0.4-0.441,1.539-0.249,1.996c0.32,0.734,1.596,9.511-0.345,17.02c-0.545,2.149-1.139,4.302-1.86,6.408
			c0.425-2.105,0.377-4.852,0.337-5.297c0-0.081-0.152-0.702-0.811-0.734c-0.682-0.047-0.89,0.582-0.897,0.622
			c0,0-1.74,5.096-2.357,6.56c-1.228,2.943-2.671,5.793-4.596,8.259c-0.978,1.247-8.371,6.656-16.566,7.946
			c-6.167,0.963-13.849,8.516-16.351,10.542l-2.374,1.88l-0.008,0.012c0,0-0.665,0.538-0.216,1.243
			c0.505,0.786,1.242,0.321,1.242,0.321l0.016-0.008l0.634-0.337c0,0.024-0.144,0.317,0.153,0.585
			c0.456,0.429,1.002,0.128,1.002,0.128l0.016-0.004l1.051-0.549c-0.28,0.597-1.933,5.096-2.574,5.433
			c-0.36,0.192-2.085,0.481-3.849-0.261c-1.363-0.577-8.211-7.056-11.483-8.456c-1.788-0.762-4.138-0.738-5.661-0.121
			c-1.154,0.473-2.855,1.965-4.258,2.566c-0.225,0.104-1.636,0.336-1.187,1.496c0.305,0.785,1.034,0.577,2.196,0.345
			c0.954-0.205,3.545-2.655,6.512-1.917c0.689,0.173,3.088,2.707,4.242,4.447c0.577,0.889,5.124,10.372,11.587,16.145
			c5.429,4.855,21.21,6.804,22.581,9.599c0.008,0.016-7.875,0.176-9.719,0.409c-1.852,0.253-11.138,0.722-14.394,2.702
			c-3.368,2.045-5.613,6.476-15.316,5.906c-3.416-0.204-20.456-2.173-25.9-14.201c-0.354-0.774-1.323-2.578-1.5-2.882
			c-0.176-0.241-0.473-0.453-0.874-0.337c-0.457,0.112-0.633,0.537-0.649,0.79c-0.097,1.584,0.169,2.927,1.051,6.243
			c0.897,3.409,3.528,11.475,4.258,12.938c0.946,1.873,4.146,3.131,5.565,3.601c0,0-2.671,2.081-3.48,2.867
			c-0.129,0.12-0.185,0.517-0.057,0.697c0.369,0.43,0.818,0.188,0.818,0.188l0.77-0.42c0,0-3.52,2.778-4.153,3.423
			c-0.112,0.113-0.137,0.438,0.016,0.654c0.097,0.121,0.401,0.289,0.577,0.208c1.284-0.573,4.979-2.678,4.979-2.678l-7.777,6.355
			c-0.04,0.04-0.514,0.393-0.112,0.846c0.28,0.292,0.569,0.128,0.569,0.128c0.272-0.124,10.151-5.601,10.151-5.601
			c-0.136,2.068-0.905,6.819-4.876,11.799c-2.79,3.52-6.583,6.17-10.601,8.187c-1.491-1.503-7.546-7.197-7.546-7.197
			s-0.521-0.666-0.922-0.309c-0.353,0.321,0.192,0.862,0.192,0.862s6.656,8.573,9.351,12.549c2.693,3.998,5.052,8.196,7.097,12.542
			c3.945,8.412,6.6,24.819,6.784,26.872c-1.364-2.618-6.047-11.659-10.979-15.171c-0.353-0.249-0.81-0.542-1.114-0.662
			c-0.08-0.032-0.249-0.052-0.369,0.092c-0.176,0.208,0.017,0.485,0.048,0.514c7.329,10.023,6.752,9.795,8.709,15.713l-3.151,2.67
			c-0.072,0.072-0.088,0.084-0.145,0.245c0,0.104,0.016,0.196,0.12,0.285c0.008,0.02,0.129,0.124,0.297,0.092
			c0.137-0.008,2.719-1.476,2.719-1.476s-4.547,3.697-4.659,3.793c-0.072,0.068-0.249,0.272-0.104,0.465
			c0.217,0.289,0.546,0.056,0.617,0.008l5.518-2.987l-8.003,6.551c-0.112,0.081-0.241,0.216-0.112,0.429
			c0.112,0.193,0.448,0.048,0.545-0.004c0.257-0.148,9.534-5.361,9.534-5.361s3.513,17.85,4.724,28.235
			c0.36,3.043,3.071,6.864,3.665,7.558c1.555,1.925,2.926,3.993,4.153,6.139C335.275,298.35,312.982,298.654,312.982,298.654z
			 M359.981,94.194c2.991-4.599,12.846-18.588,14.41-20.368c1.531-1.736,3.769-2.065,5.412-1.548c1.283,0.409,3.087,2.217,3.111,5
			c0.024,5.024-3.601,11.88-13.03,15.164C366.229,93.717,361.345,94.113,359.981,94.194z M493.438,243.897
			c-0.256-2.374,1.604-4.623,1.989-5.333c0.931,6.283,3.312,9.094,3.199,9.053C497.929,247.313,493.849,244.318,493.438,243.897z
			 M439.424,214.131c0.089-1.507,2.775-5.04,3.769-6.455c2.229-2.807,4.62-5.521,7.201-7.963c1.315-1.199,4.49-4.122,7.61-4.571
			c5.509-0.805,15.332,2.803,21.186,6.824c0,0,0.674,0.429,1.188-0.136c0.393-0.438,0.072-1.087-0.112-1.247
			c-0.521-0.498-1.06-0.963-1.604-1.42c2.382-0.413,4.932-0.396,5.412-0.377c5.59,1.352,14.547,5.982,17.241,8.861
			c1.371,1.423,2.173,3.235,2.862,5.12c3.979,10.913,5.63,25.468,5.639,26.466c0.008,1.006-0.098,2.008-0.177,3.011
			c-0.466,4.138-4.098,32.596-7.587,40.856c-0.4,0.95-3.047,5.099-3.592,5.777c-0.497-0.281-3.722-1.612-4.844-4.919
			c1.884-2.109,3.44-4.591,4.042-7.201c1.411-6.227,1.395-21.398,0.874-25.516c3.143,1.058,5.493,0.934,5.958,0.911
			c0.609-0.073,1.09-0.538,1.227-0.995c0.225-0.609,0.056-1.174-0.345-1.587c-0.225-0.208-5.693-3.051-8.195-9.021
			c-0.417-0.951-0.762-4.05-0.762-4.05c0-0.008,0.057-0.397-0.264-0.545c-0.138-0.064-0.338-0.016-0.402,0.013
			c0,0-3.864,1.551-5.789,6.355c-2.157-1.596-11.05-6.712-13.664-9.065c-2.069-1.845-3.473-4.363-3.994-7.073
			c-0.601-2.678-0.32-5.549,0.867-8.011l0,0l0.008-0.012l0.008-0.012c0.128-0.245,0.008-0.582-0.241-0.705
			c0.025-0.017-0.313-0.109-0.4-0.041c-0.088,0.012-0.192,0.1-0.241,0.165c-7.04,5.064-6.414,8.725-6.414,8.725
			c0,0.008,0,0.02,0,0.028c0.208,1.981-1.444,13.716-5.173,16.719c-0.713,0.574-1.859,1.5-3.432,0.902
			c-0.321-0.128-1.026-0.938-1.17-1.299c-1.869-4.783-9.279-14.43-11.219-17.321C443,222.427,439.216,217.491,439.424,214.131z
			 M459.809,258.211c0,0-0.618,0.461-0.369,0.898c0.12,0.273,0.353,0.345,0.513,0.345c-0.04,0.032-0.271,0.208-0.225,0.558
			c0.081,0.224,0.185,0.304,0.209,0.316c0,0-2.694,2.129-2.847,2.441c-0.104,0.249,0.016,0.434,0.104,0.525
			c0.28,0.265,0.561,0.141,0.561,0.141l3.248-1.732c-0.842,1.868-4.146,10.063-5.229,12.128c-0.785,1.484-6.423,4.808-6.984,5.188
			c-0.097,0.104-0.177,0.369-0.064,0.534c0.209,0.344,0.562,0.208,0.618,0.172c0,0,2.774-1.283,3.648-1.716
			c-0.891,1.628-1.731,3.313-2.422,5.044c-0.785,1.909-1.476,3.89-1.747,5.966c-0.192,1.03,0.393,5.782-0.441,8.973
			c-6.584-0.024-13.159-0.064-19.734-0.1c2.861-4.555,7.794-6.463,8.419-6.64c0.161-0.044,0.305-0.081,0.466-0.104
			c0.08-0.013,0.562-0.037,0.593-0.185c0.064-0.281-0.697-0.71-0.857-0.766c-1.163-0.369-2.365-0.064-3.36,0.562
			c2.71-5.425,6.952-25.653,7.562-37.34c0.057-1.13,0.057-2.281,0.217-3.319c0.457-2.75,2.814-7.598,2.814-7.598
			s0.057-0.425-0.272-0.609c-0.481-0.269-0.794,0.149-0.794,0.149c-0.377,0.432-3.128,3.556-4.378,6.294c0,0-1.1-1.736-1.443-2.226
			c-0.241-0.409-0.546-0.81-1.123-0.577c-0.521,0.249-0.289,0.986-0.289,0.986s0.16,0.842,0.185,1.126
			c0.225,2.262,0.241,8.231-1.179,10.425c-1.179,1.808-4.498,2.975-7.746,3.829c-2.181,0.569-7.826,0.557-9.214,0.396
			c-3.656-1.396-6.543-6.896-8.556-9.017c-1.251-1.343-2.903-2.434-2.903-2.434s-0.441-0.326-0.882,0.004
			c-0.642,0.461-0.265,1.142-0.24,1.166c0,0,0.633,1.067,0.922,1.544c-0.401-0.209-2.414-1.123-3.056-1.307
			c-0.12-0.024-0.777-0.281-1.139,0.272c-0.368,0.573,0.057,1.01,0.129,1.082l0.77,0.734c3.184,2.55,4.153,7.879,4.25,8.376
			c0.112,0.513,4.804,15.877,5.092,17.317c2.59,13.21,2.133,17.296,2.486,17.846c-3.906,0.016-7.818,0.036-11.724,0.047
			c-0.826-0.638-1.684-1.997-1.684-1.997l-0.009-0.016c-1.026-3.305-2.839-17.101-2.87-17.963c0,0-0.009-0.79-0.081-0.946
			c-0.144-0.26-0.377-0.249-0.4-0.252c0.128-0.257,2.438-2.021,2.573-2.281c0,0,0.201-0.237,0.153-0.521
			c-0.04-0.257-0.297-0.305-0.346-0.313c-0.176-0.06-1.065,0.249-1.154,0.321c0.77-0.962,1.211-1.668,1.788-2.445
			c0.024-0.072,0.272-0.473-0.031-0.746c-0.273-0.245-0.891,0.265-0.891,0.265l-4.707,3.54
			c-7.979-2.959-17.722-19.566-17.722-19.566l-0.754-1.375c-0.104-0.145-0.208-0.252-0.433-0.26
			c-0.321-0.008-0.418,0.244-0.449,0.289c0,0-1.219,2.357-1.299,2.538c-1.98-21.446,14.738-35.516,16.246-36.927
			c1.483-1.396,3.079-2.682,4.883-3.544c4.194-0.918,17.73-3.436,20.304-3.789l-1.988,0.649c-0.232,0.08-0.393,0.293-0.393,0.541
			c0.016,0.309,0.265,0.554,0.577,0.545c4.105-0.055,8.228-0.059,12.333,0.005l-3.095,2.522l-0.017,0.02
			c0,0-0.368,0.417-0.072,0.951c0.16,0.292,0.458,0.341,0.514,0.353l-1.885,1.56c0,0-0.345,0.549-0.064,1.026
			c0.209,0.365,0.569,0.413,0.883,0.385l0,0l0.016-0.004l4.146-2.181l-4.33,3.556c-0.249,0.389-0.128,0.982,0.104,1.163
			c0.457,0.365,1.042,0.117,1.042,0.117l7.899-4.354c-0.089,1.087-0.321,6.002,0.713,7.983c1.74,2.706,5.662,5.232,6.832,6.182
			c6.359,5.2,12.902,12.498,12.847,12.55c-0.562,0.449-4.211,3.412-4.211,3.412s-0.688,0.425-0.367,1.126
			c0.175,0.414,0.416,0.461,0.488,0.486c0,0-0.754,0.437-0.498,1.215c0.121,0.445,0.603,0.545,0.706,0.569
			c0,0-1.819,0.97-1.17,2.017c0.474,0.766,1.475,0.172,1.475,0.172s12.983-5.813,16.23-10.312c1.757-2.426,2.839-7.33,3.176-9.21
			c1.908,3.484,5.092,6.09,5.092,6.09l-2.077,1.78c-0.016-0.016-0.272,0.406-0.144,0.787c0.112,0.349,0.288,0.4,0.328,0.445
			c0,0-0.393,0.333-0.313,0.782c0.048,0.345,0.217,0.485,0.369,0.573c0.008,0.008,0.016,0.004,0.016,0.004l-2.045,1.72
			c0.017-0.036-0.408,0.461,0.032,0.998c0.298,0.365,0.754,0.205,0.754,0.205l1.091-0.573
			C468.204,251.203,459.809,258.211,459.809,258.211z M487.954,157.542c-2.422-0.858-13.224-6.72-19.534-13.042
			c-1.86-1.872-7.474-7.458-8.363-8.452c-0.417-0.489-1.532-1.92-1.597-2.141c2.735,2.923,5.695,5.649,8.806,8.167
			c3.4,2.674,15.588,11.114,22.525,12.766c4.369,0.926,8.676,0.614,12.935-0.072c1.691,0.813,3.303,1.672,4.795,2.807
			c1.468,1.11,2.847,2.43,3.664,4.085C505.933,161.308,494.377,159.832,487.954,157.542z M645.236,277.04
			c-0.482,2.758-2.182,7.994-7.699,8.123c-0.473,0.012-32.283,0.124-32.283,0.124c-3.24,0-9.47-12.168-6.367-25.203
			c0.746-3.2,1.195-6.483,1.908-9.699c7.009,3.5,33.039,2.822,39.718,2.59c0.104,1.075,4.522,11.684,5.108,15.793
			C645.926,270.813,645.523,275.416,645.236,277.04z M701.031,214.581c-0.338-0.245-0.786-0.309-1.211-0.245
			c-0.818,0.076-1.564,0.862-1.58,1.705c-0.063,0.432,1.885,6.599,2.165,7.914c0,4.178-0.24,18.896-1.932,25.047
			c-1.757,6.427-6.938,17.505-7.538,23.218l-4.676-7.662l-0.031-0.021c0-0.004-0.2-0.272-0.577-0.1
			c-0.177,0.081-0.274,0.357-0.241,0.526c0,0,2.326,10.151,2.791,15.139c0.385,4.23,1.09,8.496,0.689,12.706
			c-0.129,1.046-1.7,5.116-2.847,6.8c-1.114,1.664-3.12,3.016-3.12,3.016c-6.334-0.245-12.653-0.486-18.988-0.702
			c0.201-0.341,5.999-6.86,7.209-8.909c0.297-0.514,0.545-1.083,0.609-1.721c0.041-0.653,2.157-9.045,2.863-11.054l12.035,6.359
			c0,0,0.618,0.365,0.891,0.077c0.193-0.201,0.256-0.538-0.137-0.875l-12.389-10.075l4.964,2.734
			c0.169,0.077,0.457,0.084,0.689-0.184c0.169-0.341-0.079-0.642-0.216-0.706l-4.579-3.737c0,0,0.642,0.369,1.026,0.565
			c0.393,0.205,0.601,0.109,0.737-0.064c0.265-0.292-0.039-0.702-0.176-0.758l-8.877-7.237c-0.954-3.28-3.602-16.756-4.106-20.16
			c0.689-11.287,17.697-22.044,22.887-24.762v-0.004l0.023-0.016c0.241-0.112,0.313-0.465,0.185-0.653
			c-0.032-0.077-0.216-0.232-0.329-0.232c-0.128-0.017-0.256,0.02-0.288,0.028l-0.722,0.22c-0.465,0.133-0.938,0.301-1.42,0.458
			c-0.946,0.321-1.867,0.673-2.807,1.046c-1.836,0.758-3.632,1.568-5.42,2.482c-1.756,0.918-3.489,1.924-5.124,3.042
			c-1.652,1.119-3.199,2.362-4.691,3.661l-0.642,0.369c0.328-0.461,0.666-0.926,0.962-1.419c0.233-0.389,0.489-0.781,0.689-1.194
			l0.329-0.609c0.064-0.1,0.12-0.461-0.145-0.605c-0.023-0.024-0.031-0.032-0.087-0.048c-0.064-0.02-0.146-0.032-0.21-0.032
			c-0.111,0.013-0.216,0.068-0.305,0.152l-0.008,0.016l-0.008,0.009l0.008-0.013c-2.261,2.606-7.897,8.392-17.008,11.331
			c-5.332,1.151-21.818,3.075-32.492-1.086c-2.125-0.818-7.089-5.766-7.089-5.766l3.802,2.101c0,0,0.385,0.212,0.625,0.028
			c0.377-0.349,0.016-0.718-0.08-0.773l-6.552-5.349c0,0,3.103,1.832,3.479,1.788c0.082-0.012,0.313-0.128,0.33-0.305
			c0.056-0.401-0.177-0.537-0.177-0.537l-7.129-5.793c-0.177-2.322-0.506-11.691-0.554-12.293c-0.047-0.313-0.08-1.174-0.624-1.243
			c-0.458-0.061-0.683,0.473-0.738,0.625c-0.321,1.103-3.665,4.334-4.604,5.023c-1.804,1.311-3.704,2.486-5.653,3.573
			c-0.601-2.75-2.846-7.241-3.03-7.554c-0.233-0.389-0.922-0.393-1.155,0.064c-0.12,0.196-0.08,0.473-0.049,0.582l0.498,2.622
			c0.657,4.018,3.856,13.552-5.188,27.413c-0.817,1.247-1.916,4.194-2.341,5.605c-0.217-2.249-1.147-8.18-1.604-9.619
			c-0.097-0.249-0.513-0.345-0.641-0.253c-0.282,0.045-0.386,0.465-0.361,0.53c0,0-0.185,3.608-0.313,5.008
			c-0.465,5.633-1.234,11.242-2.461,16.751c-1.219,5.505-2.936,10.917-5.51,15.91c-2.261,4.37-6.343,7.654-6.511,7.822
			c-0.024,0-0.184,0.292-0.145,0.409c-0.008-0.02,0.04,0.233,0.145,0.329l1.387,1.604c0,0,5.124,4.066,5.542,12.746l-22.309-0.369
			c-0.233-3.6,2.822-6.21,1.699-10.985c-1.266-5.36,3.93-14.253,3.93-14.253l9.311,4.948c0,0,1.01,0.609,1.403,0.112
			c0.336-0.449-0.129-0.898-0.273-0.974l-4.924-4.042c0,0,0.674,0.422,1.139,0.077c0.449-0.501-0.088-1.007-0.2-1.063l-1.756-1.456
			c0.586-0.285,0.329-0.886,0.288-0.946c-0.079-0.116-2.854-2.369-2.854-2.369c0.44-2.887,0.697-5.826,0.762-8.737
			c0.129-3.007,0.04-6.05-0.24-9.049c-0.633-5.982-2.382-15.961-1.644-21.07c0.714-4.859,6.96-17.833,6.96-17.833
			c0,0.04,0.16-0.545-0.354-0.83c-0.897-0.349-1.05,0.324-1.122,0.42c0,0-4.507,7.847-5.757,10.232
			c-1.757-5.336-12.365-15.244-11.452-15.641l8.276,4.366c0,0,0.545,0.132,0.81-0.229c0.112-0.168,0.281-0.689,0.056-0.894
			c-0.77-0.698-4.595-3.809-4.595-3.809c0.025,0,0.474-0.124,0.562-0.581c0.112-0.409-0.232-0.778-0.434-0.862l0,0
			c0,0,0.715-0.337,0.33-1.135c-0.112-0.317-3.312-2.739-3.312-2.739c6.503-2.634,10.512-13.15,11.024-14.33
			c0.129-0.244,2.486-9.526-0.809-17.201c-1.067-2.506-2.519-4.357-2.519-4.357s-0.425-0.742-1.034-0.445
			c-0.674,0.312-0.537,0.866-0.393,1.146c0,0,3.784,6.524,2.269,13.749l-0.642,1.011c-2.253,2.365-10.111,12.041-19.181,14.117
			c-4.41,0.136-10.528-3.797-14.506-6.752l-3.953-3.183c0,0,7.617-3.256,8.644-4.034c3.576-2.706,4.876-5.935,7.771-12.125
			l0.008-0.004l0.049-0.031c1.105-1.688,4.161-0.418,4.771-0.249l1.138,0.329c0,0,0.617,0.26,1.043-0.413
			c0.385-0.621-0.474-1.195-0.474-1.195c-1.091-0.782-2.317-1.416-3.576-1.86c-1.299-0.453-2.79-0.574-4.153-0.004
			c-1.355,0.265-2.727,0.385-4.105,0.381c-3.657-0.244-7.707-3.091-9.35-4.362c0,0-8.91-7.281-9.238-7.374
			c-0.097-0.032-0.434,0.008-0.394,0.008c-0.553,0.076-1.179,0.181-1.813,0.465c-1.933-0.629-9.485-5.569-11.218-7.044
			c-16.311-13.821-17.817-30.801-19.39-35.135c-0.537-2.599-1.94-13.091-2.197-15.757c-0.04-0.356-0.337-0.633-0.713-0.629
			l-0.281-0.004c-0.377,0.004-0.674,0.285-0.714,0.65c-0.04,0.545-0.056,1.082-0.088,1.627c-0.297-0.926-2.814-9.338-2.814-9.338
			c-0.104-0.336-0.441-0.553-0.811-0.489l-0.28,0.048c-0.345,0.056-0.609,0.369-0.594,0.726c0.089,1.576,0.426,5.036,0.441,5.216
			c-0.978-1.856-6.432-11.334-8.965-14.201c-4.251-4.799-14.09-9.45-17.04-10.793c0.754-1.56,0.585-3.672,0.585-3.745
			c4.233,1.665,8.348,3.549,12.445,5.501c9.575,4.583,17.882,16.149,20.609,20.279c2.701,4.109,11.242,21.286,13.358,25.444
			c5.341,10.464,15.115,18.118,19.253,20.524c4.025,2.342,9.566,4.021,13.224,4.282c4.939,0.349,18.467-3.548,20.512-3.889
			c10.361-1.724,15.718,0.906,17.113,1.507c0.576,0.449,3.359,1.977,4.041,2.337c4.064,2.169,30.263,10.533,30.263,10.533
			s0.032,0.008,0.04,0.008c0.538,0.681,2.75,5.821,2.237,14.51c-3.504,5.846-9.101,14.209-12.317,18.183
			c-2.99,3.688-10.271,13.111-12.861,12.991c-0.762-0.032-1.756-1.588-2.253-2.743c-0.482-1.119-0.746-2.394-1.075-3.584
			c-1.019-3.657-1.123-14.559-1.115-17.169c0,0,0.113-4.458-0.216-5.994c-0.441-2.024-2.333-3.356-3.89-4.258
			c-1.539-0.837-3.271-1.395-4.995-1.68c0,0-1.38-0.377-1.645,0.713c-0.176,0.766,0.626,1.095,0.657,1.11
			c0.402,0.153,4.62,1.833,5.814,3.921c0,0,0.394,0.554,0.401,0.778c0.057,1.002-0.649,9.59-0.649,9.59
			c-0.192,3.28-0.297,6.563-0.072,9.871c0.217,3.276,0.594,6.656,2.045,9.791c0.705,1.56,1.74,3.035,3.199,4.098
			c0.714,0.525,1.548,0.95,2.397,1.199c0.385,0.128,0.995,0.172,1.38,0.18c5.468,0.12,13.631-5.533,15.845-7.021
			c4.298-2.895,8.403-6.03,12.397-9.322l14.634,7.726c0,0,0.985,0.662,1.476,0.084c0.505-0.609,0-1.163-0.137-1.251l-9.896-8.027
			l2.061,1.135c0,0,0.738,0.337,1.1-0.285c0.337-0.573-0.225-1.038-0.225-1.038l-2.197-1.792l1.491,0.807
			c0,0,0.618,0.268,0.971-0.473c0.217-0.465-0.217-0.854-0.401-0.962l-7.81-6.355c1.187-4.014,3.68-7.618,6.848-10.373
			c17.857,0.998,48.112,5.257,50.863,5.946c15.652,3.91,35.268,20.424,36.165,21.519c7.795,9.65,12.365,28.676,13.087,31.498
			C705.49,222.25,702.65,215.743,701.031,214.581z"/>
		<polygon fill="#58595B" points="56.692,320.397 785.197,315.145 56.692,309.885 		"/>
		<polygon fill="#58595B" points="785.197,329.41 785.197,317.397 56.692,323.396 		"/>
		<path fill="#58595B" d="M540.117,147.827c-0.971-0.934-2.245-1.643-3.497-2.088c-1.307-0.469-2.718-0.654-4.138-0.461
			c-0.208,0.036-0.4,0.161-0.505,0.369c-0.145,0.325-0.017,0.71,0.305,0.866l0.024,0.013c2.189,1.059,4.37,2.161,6.014,3.824
			c0.393,0.417,0.786,0.871,1.043,1.375c0.248,0.438,0.425,1.035,0.529,1.608c0.168,0.814,0.24,1.672,0.28,2.53
			c-1.091-1.848-2.101-3.784-3.488-5.493c-0.778-0.979-1.796-2.005-3.224-2.266c-0.777-0.092-1.523,0.104-2.125,0.694
			c-0.489,0.497-0.817,1.239-0.938,1.916c-0.023,0.192,0.039,0.393,0.208,0.514c0.24,0.164,0.554,0.104,0.729-0.125l0.017-0.028
			c0.248-0.361,0.569-0.681,0.89-0.882c0.104-0.048,0.137-0.068,0.265-0.125c0.049-0.004,0.08-0.016,0.145-0.016
			c0.12,0,0.248,0.049,0.4,0.136c0.642,0.385,1.171,1.235,1.62,2.069c0.488,0.87,0.922,1.728,1.355,2.622
			c0.144,0.292,0.305,0.581,0.448,0.874l-0.184-0.077c-0.683-0.272-1.444-0.528-1.997-0.809c-0.521-0.261-1.066-0.726-1.547-1.199
			c-0.481-0.485-0.938-1.022-1.348-1.6l-0.017-0.016c-0.177-0.249-0.497-0.377-0.817-0.292c-0.417,0.116-0.658,0.537-0.545,0.95
			c0.305,1.151,0.841,2.266,1.579,3.204c0.698,0.998,1.885,1.684,2.814,2.153c1.027,0.513,1.997,0.978,3.048,1.419
			c0.504,0.216,1.034,0.425,1.556,0.605c0.497,0.168,1.074,0.433,1.716,0.376h0.031c0.161-0.036,0.426-0.112,0.578-0.232
			c0.176-0.116,0.336-0.277,0.433-0.477c0.097-0.192,0.161-0.377,0.161-0.605c-0.017-0.201-0.024-0.377-0.145-0.621l0.016,0.02
			l-0.112-0.18l-0.063-0.088l-0.049-0.048l-0.016-0.016l-0.008-0.013l-0.008-0.016l-0.009-0.004
			c0.249-1.002,0.594-1.993,0.754-3.031c0.241-1.291,0.272-2.646-0.072-3.937C541.881,149.929,541.104,148.75,540.117,147.827z
			 M541.561,158.208l0.008,0.021c-0.008,0.021,0.072-0.016-0.024,0.156l-0.008,0.004c-0.04-0.064-0.072-0.1-0.072-0.1l0.056-0.052
			l0.009,0.012c0,0,0-0.012,0-0.017L541.561,158.208z"/>
		<path fill="#58595B" d="M573.676,183.756c0,0,0,0,0.008,0l0,0H573.676z"/>
		<path fill="#58595B" d="M560.02,152.519c1.451,6.399,11.844,11.026,11.844,11.026l4.033,2.209c0,0,0.69,0.349,1.083-0.216
			c0.377-0.51-0.08-1.015-0.545-1.396c-0.642-0.542-2.391-1.977-2.391-1.977c0.033-0.012,0.77-0.168,0.675-1.127
			c-0.025-0.321-1.18-1.203-1.18-1.203c0.12-0.141,0.192-0.305,0.209-0.497c0.119-0.481-0.385-0.894-0.385-0.894l-2.783-2.261
			c2.855-4.968,8.348-2.43,9.254-2.045c1.772,0.722,3.287,1.984,4.178,3.725c2.189,4.214,1.323,10.444,1.003,11.418
			c-3.071,9.414-7.097,14.827-7.426,15.212c-0.337,0.36-0.705,0.81-1.154,0.886c-0.569-0.044-1.107-0.152-1.596-0.401
			c-0.249-0.132-0.466-0.305-0.618-0.513c-0.08-0.104-0.152-0.224-0.192-0.345c-0.016-0.052-0.023-0.132-0.056-0.213
			c-0.072-0.112-0.168-0.156-0.289-0.152c-0.192,0.016-0.305,0.276-0.248,0.389l0.056,0.353c0.032,0.232,0.088,0.473,0.168,0.706
			c0.146,0.457,0.354,0.894,0.642,1.295c0.266,0.401,0.603,0.75,1.011,1.039c0.192,0.144,0.393,0.277,0.609,0.385
			c0.112,0.04,0.208,0.148,0.433,0.108c0.177-0.064,0.226-0.1,0.354-0.156c1.731-0.882,7.546-5.87,13.503-19.53
			c1.934-4.386,1.796-8.28,1.508-10.208c-0.305-1.913-0.842-3.941-2.373-5.453c-1.629-1.311-9.495-5.89-24.747-5.89
			c-0.48,0-1.604,0.057-2.004,0.145c-0.145,0.027-2.518,1.824-2.967,2.774C559.434,150.113,559.915,152.054,560.02,152.519z"/>
		<path fill="#58595B" d="M453.064,229.143c0.713,0.685,5.975,4.374,6.824,4.767c0.112,0.024,0.497,0.192,0.77-0.108
			c0.305-0.341-0.369-1.051-0.369-1.051s-2.999-4.334-4.082-5.966c-1.755-3.039-3.415-6.126-4.385-9.546
			c-1.677-5.974,2.172-13.547,8.884-12.962c1.379,0.409,3.136,1.419,3.978,2.229l-2.013,1.728c-0.072,0.057-0.232,0.425-0.192,0.553
			c-0.008,0.169,0.209,0.626,0.209,0.626s-0.569,0.365-0.569,0.982c0,0.405,0.353,0.585,0.385,0.61c0,0-2.134,1.88-2.174,1.928
			c-0.056,0.084-0.2,0.521,0.048,0.733c0.329,0.269,0.586,0.137,0.586,0.137s5.22-2.69,6.769-3.874
			c1.154-0.87,4.098-4.065,4.098-4.065s0.248-0.349,0.231-0.505c0-0.164-0.176-0.369-0.337-0.521
			c-2.782-2.422-5.934-4.479-9.519-5.649c-0.882-0.241-1.884-0.401-2.854-0.241c-0.962,0.132-13.768,5.144-17.056,14.105
			C442.11,213.542,441.412,218.025,453.064,229.143z"/>
		<path fill="#58595B" d="M483.11,222.739c0.538,0.642,1.188,0.084,1.26,0.041c0.648,1.03,2.478,2.954,4.803,2.942
			c0.77-0.008,1.451-0.465,1.941-1.015c1.018-1.146,1.403-4.293,1.435-4.751c0.057-0.425,0.144-1.656-0.104-2.293
			c-0.538-0.91-1.523-0.982-1.813-1.03c2.134-1.56,4.09-0.421,4.09-0.421s0.457,0.192,0.675-0.14
			c0.313-0.465-0.891-1.167-1.107-1.288c-0.851-0.524-1.82-0.801-2.798-0.87c-1.188-0.076-6.865,0.794-8.428,5.87
			C482.879,220.402,482.63,222.187,483.11,222.739z M489.87,220.206c0.2,0.585,0.41,2.009,0.426,2.049
			c-0.257-0.04-0.657,1.035-3.296-0.593C488.587,221.309,489.823,220.23,489.87,220.206z"/>
		<path fill="#58595B" d="M328.804,136.249c4.018-1.363,11.275-7.197,14.282-10.448c0.722-0.774,2.71-3.48,2.653-4.034
			c0.024-0.453-0.825-1.015-0.825-1.015c-0.272-0.232-3.993-3.476-7.089-1.307c-1.9,1.347-3.159,5.248-3.513,6.158
			c-0.497-7.237,2.534-9.695,3.191-9.983c0.603-0.257,1.348-0.301,2.062-0.261c0.36,0.012,1.9,0.329,1.9,0.329
			s0.802,0.192,1.051-0.425c0.337-0.818-0.354-1.199-0.401-1.227l-0.979-0.437c-0.393-0.152-3.68-1.491-6.455,0.518
			c-0.521,0.381-3.681,3.865-3.881,9.146c-0.08,1.62-0.088,6.411-0.129,7.188c-0.023,0.786-0.152,3.817-3.312,5.357l-0.248,0.168
			c-0.137,0.072-0.097,0.329,0.072,0.365C327.697,136.493,328.299,136.417,328.804,136.249z M339.092,121.518
			c1.813-1.042,4.242-0.116,4.651,0.057c-3.841,0.445-5.726,2.895-5.846,3.031C337.881,124.132,337.905,122.204,339.092,121.518z"/>
		<path fill="#58595B" d="M301.708,129.083c-2.445-0.834-22.012,2-25.259,7.578c-5.357,9.177,1.491,17.289,3.448,19.41
			c1.973,2.104,7.329,6.355,10.825,6.84c4.09,1.126,8.973-0.858,9.037-4.278c0.024-0.71-0.104-1.464-0.297-2.161
			c-0.209-0.694-0.617-1.736-0.897-2.237c-0.064-0.132-0.169-0.389-0.481-0.3c-0.112,0.04-0.337,0.236-0.225,0.457
			c0,0,0.305,0.97,0.385,1.307c0.168,0.67,0.297,3.464-0.176,3.805c-1.508,1.123-10.104,0.577-13.071-4.991
			c-3.561-6.656-1.468-15.469-0.473-16.207c1.491-1.114,8.026,1.002,9.405,1.628c0,0-4.859,3.853-5.292,4.278
			c-0.169,0.164-0.369,0.722-0.072,1.11c0.12,0.16,0.409,0.449,0.657,0.457c0.457,0.036,1.075-0.317,1.075-0.317
			s-2.799,2.081-3.544,2.967c-0.185,0.232-0.346,0.705,0.096,1.191c0.28,0.325,0.682,0.325,0.874,0.208
			c2.518-1.472,20.079-10.722,21.041-13.015C309.014,135.543,308.629,131.449,301.708,129.083z M288.301,130.575
			c0.032-0.016,0,0-0.016,0.008l0.023-0.008H288.301z"/>
	</g>
</g>
</svg>
