<?xml version="1.0" encoding="utf-8"?>
<!-- Generator: Adobe Illustrator 16.0.0, SVG Export Plug-In . SVG Version: 6.00 Build 0)  -->
<!DOCTYPE svg PUBLIC "-//W3C//DTD SVG 1.1//EN" "http://www.w3.org/Graphics/SVG/1.1/DTD/svg11.dtd">
<svg version="1.1" id="Layer_1" xmlns="http://www.w3.org/2000/svg" xmlns:xlink="http://www.w3.org/1999/xlink" x="0px" y="0px"
	 width="841.89px" height="595.28px" viewBox="0 0 841.89 595.28" enable-background="new 0 0 841.89 595.28" xml:space="preserve">
<g>
	<path fill-rule="evenodd" clip-rule="evenodd" fill="#58595B" d="M238.505,566.932h-23.454V553.42h-27.226v13.512h-23.458v-29.818
		h4.729c3.617-3.59,6.04-7.89,7.27-12.885c0.754-3.097,1.132-7.196,1.132-12.306v-19.537h54.533v44.728h6.474V566.932
		L238.505,566.932z M208.571,537.113v-29.013h-10.415v7.406c0,4.693-0.35,8.469-1.053,11.335c-0.874,3.652-2.538,7.08-4.987,10.271
		H208.571L208.571,537.113z M304.957,553.42h-54.084v-61.034h53.486v14.401h-30.024v8.797h28.708v13.944h-28.708v9.511h30.623
		V553.42L304.957,553.42z M369.504,552.024c-3.155,0.865-6.195,1.506-9.102,1.88c-2.929,0.382-5.611,0.573-8.058,0.573
		c-11.609,0-20.684-2.967-27.22-8.89c-6.248-5.658-9.36-13.197-9.36-22.674c0-8.849,2.768-16.056,8.304-21.629
		c6.592-6.629,16.223-9.936,28.892-9.936c3.09,0,6.092,0.209,9.02,0.619c0.858,0.104,2.855,0.452,5.948,1.034l1.393,0.273V509.4
		c-1.756-0.71-3.692-1.276-5.821-1.698c-2.128-0.451-4.295-0.663-6.517-0.663c-4.91,0-8.892,1.452-11.955,4.311
		c-3.063,2.891-4.583,6.569-4.583,11.041c0,4.005,0.984,7.348,2.976,10.023c2.855,3.834,7.525,5.757,14.008,5.757
		c1.624,0,3.26-0.157,4.895-0.445c1.624-0.291,4.025-0.93,7.18-1.918V552.024L369.504,552.024z M444.973,553.42h-23.452v-21.271
		h-5.261c-2.392,0-4.171,0.533-5.382,1.608c-1.2,1.077-1.94,2.551-2.227,4.413l-2.277,15.249h-24.511l4.037-17.688
		c0.811-3.671,2.53-6.462,5.153-8.371c1.997-1.446,4.297-2.381,6.93-2.793c-4.207-0.758-7.601-2.486-10.164-5.141
		c-2.806-2.918-4.21-6.483-4.21-10.737c0-6.726,3.052-11.38,9.106-13.931c3.741-1.581,8.933-2.374,15.578-2.374h36.679V553.42
		L444.973,553.42z M422.557,519.073v-13.077h-6.113c-2.406,0-4.235,0.268-5.519,0.791c-2.458,0.978-3.664,2.831-3.664,5.582
		c0,2.207,0.792,3.878,2.405,5.017c1.586,1.125,3.977,1.688,7.132,1.688H422.557L422.557,519.073z M518.348,510.437H497.68v42.983
		h-23.43v-42.983h-20.676v-18.051h64.773V510.437L518.348,510.437z M596.725,553.42h-28.008l-15.055-25.894h-0.352v25.894h-23.467
		v-61.034h23.467v23.976h0.352l14.43-23.976h26.693l-20.662,28.598L596.725,553.42L596.725,553.42z M677.521,553.42H652.84
		l-4.188-13.17h-18.379l-4.125,13.17h-23.461l21.459-61.034h31.588L677.521,553.42L677.521,553.42z M646.025,525.952l-6.396-19.094
		h-0.355l-6.305,19.094H646.025z"/>
	<g>
		<path fill="#58595B" d="M463.848,241.221c-7.232,0-13.313,3.017-18.262,9.11c-5.844,7.187-8.779,17.46-8.779,30.786
			c0,15.891,3.168,27.57,9.545,35.042c4.748,5.57,10.607,8.348,17.496,8.348c8.494,0,15.084-4.314,19.771-12.943
			c4.271-7.873,6.375-17.987,6.375-30.446c0-13.951-2.715-24.344-8.117-31.208C477.326,244.124,471.318,241.221,463.848,241.221z"/>
		<path fill="#58595B" d="M528.607,150.611L420.155,55.754l-108.44,94.857l-80.695,70.59h10.103c3.502,0,6.342,2.833,6.342,6.347
			v14.282v186.515h345.381V241.83v-14.282c0-3.514,2.84-6.347,6.346-6.347h10.105L528.607,150.611z M367.833,264.945
			c-0.037,21.24-0.107,39.672-0.185,55.304c-0.036,15.578-0.085,28.318-0.085,38.149h-41.219c0-16.59,0.029-29.288,0.146-38.03
			c0.129-8.805,0.237-19.544,0.386-32.239c0.147-12.651,0.23-24.498,0.23-35.475c-3.28,1.369-6.672,3.008-10.101,4.91
			c-4.426,2.595-7.704,4.499-9.908,5.714c-3.087-9.292-6.142-18.586-9.108-27.896c7.696-4.407,14.972-8.458,21.874-12.187
			c7.395-4.034,14.775-8.074,22.179-12.105c9.906-5.427,17.339-9.582,22.321-12.431l3.505,2.849
			C367.87,222.549,367.87,243.697,367.833,264.945z M513.973,338.367c-12.584,16.396-29.271,24.651-50.125,24.651
			c-22.377,0-39.496-7.629-51.442-22.893c-11.191-14.282-16.814-33.987-16.814-59.009c0-16.431,3.518-30.91,10.561-43.44
			c6.294-11.209,14.87-19.96,25.72-26.256c10.123-5.866,20.762-8.801,31.977-8.801c19.852,0,35.771,6.292,47.822,18.795
			c13.264,13.855,19.902,33.758,19.902,59.702C531.572,303.984,525.68,323.067,513.973,338.367z"/>
	</g>
	<path fill="#58595B" d="M420.155,47.321l112.609,98.512l93.426,81.715h-12.723h-14.275v14.282v192.852H241.122V241.83v-14.282
		h-14.281h-12.709l93.407-81.715L420.155,47.321 M420.155,28.349L298.14,135.083L176.125,241.83h50.716v207.135h386.625V241.83
		h50.717l-122-106.747L420.155,28.349L420.155,28.349z"/>
</g>
</svg>
