<svg xmlns="http://www.w3.org/2000/svg" width="841.89" height="595.28" viewBox="0 0 841.89 595.28"><g fill="#58595B"><path d="M345.468 242.26c-5.15.014-17.54 6.645-19.854 12.06 2.213 2.824 6.213 8.376 6.213 11.652v15.38c-2.286-.88-4.845-1.39-7.697-1.39-11.953 0-26.495 2.202-38.62 16.106v-60.36c-4.486-1.68-8.808-.857-12.01-.158l.028-5.496c3.525-2.337 9.083-1.092 11.98.088v-5.517c-4.585-1.877-8.876-.99-12.157-.307l.074-5.487c3.643-2.38 9.275-1.017 12.084.226v-5.51c-4.67-2.11-8.98-1.135-12.327-.466l.127-5.486c3.773-2.423 9.51-.91 12.2.38v-5.512c0-6.41-.39-9.97-4.642-9.95-5.155.008-17.527 6.638-19.843 12.045 2.2 2.816 6.216 8.38 6.216 11.654V337.38c0 .612-2.256 8.387-2.825 15.13h21.095v-23.714c1.515-8.024 3.958-16.6 7.394-21.226 11.11-15.007 23.713-15.313 29.874-15.313 6.215 0 8.37 3.312 9.05 7.86v37.263c0 .612-2.227 8.387-2.822 15.13h21.094V252.224c0-6.406-.394-9.973-4.63-9.966zM128.646 270.835c-2.938-1.145-7.003-3.648-8.05-7.374l3.553-4.19c1.906 2.548 4.278 5.808 8.53 7.49 1.308-1.37 2.647-2.892 4.032-4.522-3.06-.67-7.95-2.665-9.505-6.434l2.995-4.548c2.285 2.38 5.286 5.45 10.046 6.5 1.294-1.777 2.533-3.654 3.667-5.59-3.144-.25-8.645-1.645-10.712-5.32l2.445-4.906c2.53 2.073 6.01 4.75 10.8 5.27 1.717-3.94 2.795-8.058 2.795-12.216 0-5.248-2.81-13.545-27.513-13.545H90.245c-13.45 0-22.563 6.216-22.563 13.953 0 10.8 11.27 18.886 15.285 21.653 4.66-2.408 9.143-6.238 11.398-9.592-4.643-2.702-7.673-4.972-9.287-7.285-1.85-2.716-.99-4.565 2.62-4.565h32.26c10.684-.03 10.77.537 10.77 3.74 0 7.628-18.515 28.27-37.497 42.003-.218 5.046 7.42 10.193 21.166 2.23 15.212 13.486 21.98 37.78 21.98 47.054 0 4.79-3.38 7.76-15.212 7.76-11.193 0-23.93-.046-34.37 0-8.85-.22-11.235-4.808-11.235-7.774 0-10.774 5.822-14.848 14.962-20.817-2.576-6.46-8.763-10.932-15.283-10.8-13.64 10.193-18.546 27.878-18.546 33.89 0 15.02 14.876 20.172 32.197 20.172 10.615.352 24.444-.156 36.015.148 14.18.347 32.202-.755 32.49-19.826.266-17.746-9.49-38.226-31.094-60.302.643-.613 1.428-1.378 2.346-2.257zM432.606 270.98c-2.958-1.084-7.325-3.634-8.432-7.52l3.54-4.192c1.978 2.62 4.437 5.99 8.935 7.626 1.31-1.38 2.68-2.912 4.077-4.563-3.015-.572-8.285-2.574-9.942-6.527l2.997-4.548c2.373 2.445 5.474 5.67 10.48 6.593 1.325-1.796 2.578-3.688 3.727-5.655-3.013-.13-9.01-1.47-11.208-5.348l2.445-4.906c2.635 2.137 6.246 4.94 11.28 5.318 1.744-3.944 2.824-8.092 2.824-12.265 0-5.248-2.794-13.545-27.51-13.545h-31.486c-13.438 0-22.55 6.217-22.55 13.954 0 10.8 11.267 18.886 15.284 21.653 4.66-2.408 9.144-6.238 11.412-9.592-4.657-2.702-7.7-4.972-9.3-7.285-1.85-2.715-.99-4.564 2.62-4.564h32.26c10.668-.03 10.754.537 10.754 3.74 0 7.628-18.514 28.27-37.496 42.003-.207 5.046 7.42 10.193 21.178 2.23 15.212 13.486 21.967 37.78 21.967 47.054 0 4.79-3.36 7.76-15.196 7.76-11.194 0-23.92-.045-34.37 0-8.862-.22-11.253-4.807-11.253-7.773 0-10.774 5.826-14.848 14.98-20.817-2.575-6.462-8.76-10.933-15.297-10.8-13.644 10.192-18.546 27.877-18.546 33.888 0 15.02 14.86 20.173 32.2 20.173 10.627.353 24.453-.155 36.026.15 14.164.346 32.188-.756 32.475-19.827.278-17.746-9.487-38.226-31.092-60.302.614-.58 1.373-1.302 2.218-2.11zM193.353 291.402c-18.78 11.915-25.594 27.333-25.594 39.72 0 15.183 14.862 21.79 30.773 21.79h20.35c8.737 0 22.49-.976 31.297-2.055V281.54c-18.95-2.925-38.228-1.92-56.827 9.862zm13.418 46.938c-9.285 0-20.13.234-20.13-8.457 0-5.692 1.835-17.366 16.782-27.673 8.313-5.73 20.702-8.998 28.284-8.998l.045 44.62c-7.043.508-17.86.508-24.98.508zM626.5 291.402c-18.82 11.915-25.622 27.333-25.622 39.72 0 15.183 14.865 21.79 30.77 21.79h20.353c8.75 0 22.507-.976 31.3-2.055V281.54c-18.952-2.925-38.227-1.92-56.8 9.862zm13.377 46.938c-9.3 0-20.104.234-20.104-8.457 0-5.692 1.833-17.366 16.77-27.673 8.298-5.73 20.698-8.998 28.3-8.998l.014 44.62c-7.05.508-17.864.508-24.98.508zM759.604 291.402c-16.71-10.596-32.535-13.108-49.29-11.018-8.528 1.07-11.003 2.88-12.547 5.17 2.198 2.81 5.197 8.373 5.197 11.65v90.424c0 .614-2.243 8.398-2.825 15.14 6.886 0 15.08 0 21.092-2.446v-9.195l-.176.258c-2.616 1.308-8.485 2.884-12.328.438l-.158-5.5c3.45.68 7.83 1.7 12.634-.556l.028.038v-5.6c-2.66 1.282-8.602 2.853-12.387.38l-.072-5.505c3.333.717 7.772 1.634 12.46-.407v-5.544c-2.793 1.22-8.617 2.646-12.272.216l-.044-5.487c3.29.71 7.718 1.558 12.315-.278v-11.34c4.542.392 8.998.672 12.87.672h20.35c15.914 0 30.745-6.608 30.745-21.792 0-12.388-6.782-27.806-25.59-39.72zM746.2 338.34c-7.12 0-17.937 0-24.968-.508l.028-44.62c7.6 0 19.974 3.268 28.3 8.998 14.936 10.307 16.77 21.98 16.77 27.673 0 8.69-10.83 8.457-20.13 8.457zM566.85 291.402c-13.135-8.317-25.64-11.246-38.52-11.238v-23.1c12.75-.008 28.98-.24 28.98-.24 6.42 0 9.973-.403 9.958-4.646 0-5.153-6.975-13.66-12.387-15.968-2.823 2.19-8.387 6.2-11.647 6.2l-14.904.3v-7.125c-4.396-1.53-8.562-.728-11.706-.036l.045-5.497c3.394-2.25 8.675-1.18 11.66-.037v-5.518c-4.485-1.71-8.646-.857-11.852-.182l.073-5.487c3.513-2.293 8.87-1.106 11.778.086v-5.502c-4.56-1.914-8.732-.998-12.023-.336l.13-5.486c3.655-2.33 9.068-1.026 11.894.226v-5.358c0-6.41-.41-9.97-4.66-9.95-5.153.008-17.528 6.638-19.84 12.045 2.183 2.816 6.216 8.38 6.216 11.654v121.166c0 .612-2.24 8.387-2.854 15.13h21.137v-.104c4.568.303 9.095.51 12.997.51h20.335c15.927 0 30.792-6.608 30.792-21.792 0-12.386-6.814-27.804-25.605-39.718zm-13.396 46.938c-7.148 0-17.95 0-24.98-.508l.016-44.62c7.613 0 20 3.268 28.284 8.998 14.962 10.307 16.796 21.98 16.796 27.673 0 8.69-10.832 8.457-20.116 8.457zM484.133 241.05c-6.228 0-11.28 5.06-11.28 11.297 0 6.223 5.053 11.275 11.28 11.275 6.26 0 11.3-5.052 11.3-11.275 0-6.236-5.04-11.296-11.3-11.296zM488.75 280.156c-5.167 0-17.544 6.648-19.843 12.053 2.185 2.824 6.2 8.372 6.2 11.646v33.52c0 .613-2.24 8.388-2.824 15.13h21.108v-62.398c.002-6.416-.404-9.972-4.64-9.952z"/></g></svg>