<?xml version="1.0" encoding="utf-8"?>
<!-- Generator: Adobe Illustrator 16.0.0, SVG Export Plug-In . SVG Version: 6.00 Build 0)  -->
<!DOCTYPE svg PUBLIC "-//W3C//DTD SVG 1.1//EN" "http://www.w3.org/Graphics/SVG/1.1/DTD/svg11.dtd">
<svg version="1.1" id="Layer_1" xmlns="http://www.w3.org/2000/svg" xmlns:xlink="http://www.w3.org/1999/xlink" x="0px" y="0px"
	 width="841.89px" height="595.28px" viewBox="0 0 841.89 595.28" enable-background="new 0 0 841.89 595.28" xml:space="preserve">
<g>
	<g>
		<g>
			<path fill="#58595B" d="M148.208,432.672h-5.461v14.417h-5.974v-36.661h10.874c7.912,0,13.121,2.988,13.121,11.123
				C160.769,429.273,155.356,432.672,148.208,432.672z M147.647,415.269h-4.951v12.563h4.798c3.165,0,7.198-1.39,7.198-6.334
				C154.692,417.071,151.068,415.269,147.647,415.269z"/>
			<path fill="#58595B" d="M197.255,447.089l-3.472-9.01h-16.95l-3.472,9.01h-6.179l14.959-36.661h6.74l14.857,36.661H197.255z
				 M185.461,415.682h-0.103l-6.789,17.66h13.477L185.461,415.682z"/>
			<path fill="#58595B" d="M216.569,447.089v-36.661h6.024v36.661H216.569z"/>
			<path fill="#58595B" d="M262.93,447.089l-19.044-29.245h-0.153v29.245h-5.973v-36.661h7.914l18.787,28.887h0.153v-28.887h6.024
				v36.661H262.93z"/>
			<path fill="#58595B" d="M301.874,415.37v31.719h-5.922V415.37h-12.509v-4.942h30.938v4.942H301.874z"/>
			<path fill="#58595B" d="M337.766,447.089h-10.468v-36.661h11.08c7.147,0,12.304,2.525,12.304,9.168
				c0,4.889-2.603,7.411-7.147,8.649v0.154c4.901,0.618,8.117,3.707,8.117,8.598C351.651,445.082,344.964,447.089,337.766,447.089z
				 M338.226,415.113h-4.951v10.813h3.216c3.317,0,8.22-0.463,8.22-5.612C344.71,416.092,341.288,415.113,338.226,415.113z
				 M336.643,430.458h-3.368v11.945h3.725c4.392,0,8.526-0.927,8.526-5.716C345.525,431.229,340.981,430.458,336.643,430.458z"/>
			<path fill="#58595B" d="M393.326,447.089l-3.472-9.01h-16.949l-3.473,9.01h-6.178l14.96-36.661h6.739l14.856,36.661H393.326z
				 M381.533,415.682h-0.103l-6.79,17.66h13.479L381.533,415.682z"/>
			<path fill="#58595B" d="M412.675,447.089v-36.661h5.975v31.718h16.388v4.943H412.675z"/>
			<path fill="#58595B" d="M447.901,447.089v-36.661h5.976v31.718h16.39v4.943H447.901z"/>
		</g>
		<g>
			<path fill="#58595B" d="M566.557,447.089v-6.179h6.28v6.179H566.557z"/>
			<g>
				<path fill="#58595B" d="M596.14,447.705c-11.028,0-20.168-6.847-20.168-18.947c0-11.636,8.832-18.947,20.116-18.947
					c2.91,0,6.535,0.514,9.293,1.546v5.715c-2.502-1.441-6.178-2.368-8.987-2.368c-8.168,0-14.244,6.024-14.244,14.055
					c0,8.446,6.485,14.057,14.244,14.057c2.706,0,6.894-0.977,9.037-2.108v5.507C602.775,447.243,598.948,447.705,596.14,447.705z"
					/>
				<path fill="#58595B" d="M637.354,447.705c-11.233,0-19.094-7.722-19.094-18.947c0-10.864,7.606-18.947,19.042-18.947
					c11.692,0,19.096,8.137,19.096,18.947C656.398,439.882,648.944,447.705,637.354,447.705z M637.354,414.703
					c-8.168,0-12.865,6.746-12.865,14.055c0,7.104,4.747,14.057,12.813,14.057c6.333,0,12.868-4.685,12.868-14.057
					C650.171,421.498,645.625,414.703,637.354,414.703z"/>
				<path fill="#58595B" d="M699.145,447.089v-29.707h-0.152l-11.845,13.951l-11.795-13.951h-0.153v29.707h-5.971v-36.661h6.992
					l10.978,13.233l10.927-13.233h6.993v36.661H699.145z"/>
			</g>
		</g>
	</g>
	<g>
		<path fill="#58595B" d="M719.791,258.566c8.622-11.622,13.729-26.052,13.729-41.684c0-38.466-30.919-69.649-69.063-69.649
			c-12.984,0-184.809,0-184.809,0v158.388L322.308,147.233c0,0-131.889,0-144.875,0c-38.142,0-69.063,31.183-69.063,69.649
			c0,15.632,5.107,30.062,13.73,41.684c-12.226,13.576-19.677,31.598-19.677,51.379c0,42.215,33.935,76.439,75.796,76.439
			c24.846,0,257.701,0,257.701,0l-52.951-53.323c0,0-198.052,0-204.217,0c-12.658,0-22.919-10.349-22.919-23.116
			c0-12.765,10.589-23.113,22.919-23.113c3.929,0,104.951,0,104.951,0v29.21l53.282,0.441v-29.651l-53.136-53.369
			c0,0-99.061,0-106.776,0s-15.581-7.545-15.581-16.581c0-9.038,8.031-16.566,15.581-16.566s110.005-0.019,110.005-0.019
			L532.595,446.83V200.298c0,0,125.384,0,132.222,0c7.72,0,15.644,7.334,15.644,16.373c0,9.035-7.339,16.792-15.644,16.792
			c-7.253,0-104.72,0-104.72,0v53.369c0,0,97.133,0,103.339,0c12.658,0,22.917,10.348,22.917,23.113
			c0,12.768-10.259,23.116-22.917,23.116c-6.168,0-103.339,0-103.339,0v53.323c0,0,78.729,0,103.573,0
			c41.862,0,75.796-34.225,75.796-76.439C739.466,290.165,732.016,272.142,719.791,258.566z"/>
	</g>
</g>
</svg>
