<svg xmlns="http://www.w3.org/2000/svg" width="841.89" height="595.28" viewBox="0 0 841.89 595.28"><g fill="#58595B"><path d="M358.355 275.918c-1.718-.227-3.21-.676-4.408-1.373-1.296-.7-2.316-1.896-3.065-3.59-.34-.74-.57-2.25-.702-4.488v-23.701c25.59-12.45 36.21-32.617 36.21-32.617 15.85-27.496-18.047-25.823-18.047-25.823-4.238-.227-8.07-.11-11.522.275h-39.35v2.958c1.602.222 2.97.625 4.068 1.266 1.67.97 2.78 2.11 3.326 3.402.422.994.68 3.165.78 6.448v66.13c-.1 3.284-.357 5.45-.78 6.448-.544 1.297-1.657 2.43-3.326 3.403-1.097.64-2.466 1.047-4.07 1.262v2.96h40.887v-2.962zm-8.174-77.93s31.003-7.718 28.644 5.842c-2.363 13.556-28.643 27.745-28.643 27.745v-33.587zM318.34 318.597c1.603.214 2.98.625 4.077 1.257 1.665.98 2.777 2.11 3.326 3.406.165.392.303.963.418 1.712-12.88 6.893-28.342 21.06-37.168 33.384-12.17 17.004-19.306 37.08-11.558 48.75 7.445 11.216 31.796.755 49.007-16.878v5.948c-.095 3.315-.352 5.5-.778 6.5-.544 1.296-1.657 2.427-3.326 3.4-1.093.638-2.466 1.045-4.066 1.263v2.96h40.883v-2.96c-1.718-.23-3.207-.676-4.408-1.375-1.296-.7-2.317-1.897-3.064-3.59-.34-.743-.57-2.26-.7-4.503v-67.96c.09-3.288.348-5.42.778-6.353.744-1.692 1.768-2.89 3.065-3.588 1.204-.706 2.685-1.15 4.4-1.38v-2.958H318.34v2.963zm-12.498 66.597c-7.768-5.15-6.042-20.963 3.863-35.31 4.937-7.15 10.963-12.57 16.736-15.58v46.375c-7.62 5.83-15.516 7.89-20.598 4.514zM504.494 318.43c1.596.224 2.978.627 4.07 1.268 1.673.97 2.777 2.105 3.33 3.402.43 1.017.686 3.252.778 6.65h-.08v3.314l-22.756 26.76V329.75c.097-3.283.354-5.423.775-6.355.75-1.696 1.773-2.89 3.07-3.586 1.2-.703 2.685-1.148 4.402-1.38v-2.956h-40.878v2.957c1.595.224 2.97.627 4.07 1.268 1.668.97 2.772 2.105 3.32 3.402.434 1.017.687 3.252.783 6.65h-.08v66.27c-.096 3.307-.357 5.493-.772 6.494-.553 1.292-1.665 2.428-3.333 3.398-1.094.64-2.47 1.043-4.074 1.262v2.966h40.894v-2.958c-1.726-.23-3.21-.675-4.41-1.38-1.297-.7-2.317-1.897-3.065-3.59-.337-.738-.575-2.25-.702-4.486V372.93l22.755-26.76v49.85c-.1 3.307-.353 5.493-.775 6.494-.548 1.292-1.66 2.428-3.325 3.398-1.097.64-2.467 1.043-4.07 1.262v2.966h40.887v-2.958c-1.726-.23-3.21-.675-4.41-1.38-1.297-.7-2.317-1.897-3.066-3.59-.34-.738-.57-2.25-.696-4.486V329.75h-.004c.092-3.283.35-5.423.778-6.355.745-1.696 1.77-2.89 3.065-3.586 1.204-.703 2.685-1.148 4.403-1.38v-2.956h-40.883v2.957zM406.626 318.597c1.595.214 2.97.625 4.07 1.257 1.665.98 2.773 2.11 3.33 3.406.133.338.26.826.368 1.436-15.244 11.922-51.19 44.653-47.454 85.65h30.146c-8.278-48.957 11.047-67.75 17.633-76v61.83c-.097 3.315-.354 5.5-.776 6.5-.548 1.296-1.657 2.427-3.326 3.4-1.097.638-2.47 1.045-4.07 1.263v2.96h8.492v.046h4.23v-.046h28.16v-2.96c-1.723-.23-3.203-.676-4.407-1.375-1.297-.7-2.313-1.897-3.062-3.59-.344-.743-.574-2.26-.697-4.503v-67.96h-.004c.092-3.288.35-5.42.774-6.353.744-1.692 1.77-2.89 3.065-3.588 1.2-.706 2.684-1.15 4.405-1.38v-2.958h-40.882v2.963zM271.69 278.88h37.48v-2.942s-13.106-4.956-11.722-33.726h-3.088s-6.736 30.99-24.277 29.43c-.12-.228-.246-.44-.353-.688-.345-.744-.575-2.252-.702-4.487V233.39c4.714.046 11.772.104 11.976.188.356.146.663.453.936.913.176.308.288 11.72.353 12.165h3.966v-30.22h-3.967c-.07.476-.188 7.196-.38 7.53-.195.353-.525.637-.993.844-.18.083-7.196.14-11.89.18v-26.16c.094-3.258.348-5.38.773-6.304.11-.25.238-.464.36-.697 17.484-1.46 24.197 29.443 24.197 29.443h3.092c-1.39-28.773 11.72-33.618 11.72-33.618V184.6H236.39v2.96c1.603.22 2.977.624 4.073 1.265 1.665.97 2.777 2.106 3.326 3.398.417.98.666 3.092.766 6.268h-.073v66.313c-.096 3.287-.35 5.45-.77 6.447-.545 1.297-1.658 2.433-3.327 3.403-1.097.64-2.47 1.047-4.07 1.266v2.96h35.375zM176.197 257.425c-.153 5.082-.548 8.446-1.193 9.984-.848 1.998-2.56 3.743-5.132 5.243-1.692.986-3.805 1.61-6.272 1.948v4.563h63.024v-4.558c-2.647-.356-4.937-1.043-6.79-2.125-2-1.078-3.575-2.92-4.722-5.53-.53-1.147-.886-3.48-1.085-6.936V155.24c.146-5.066.537-8.36 1.197-9.792 1.15-2.612 2.727-4.457 4.726-5.535 1.853-1.086 4.14-1.77 6.793-2.125v-4.558h-63.03v4.562c2.47.34 4.587.966 6.274 1.948 2.578 1.496 4.29 3.245 5.13 5.244.66 1.564 1.058 5.01 1.204 10.257h-.122v33.266c-6.48 10.583-18.884 8.492-18.884 8.492-39.575-6.64 1.592-63.752 1.592-63.752H114.59v4.204h5.106c4.312 0 7.73.73 10.265 2.206 2.532 1.477 4.216 3.195 5.05 5.163.22.524.41 1.29.57 2.24l-9.076 12.488c-36.92 57.37-15.144 68.528-15.144 68.528 16.502 13.942 55.38-17.063 64.838-25.02v54.37zM402.913 279.037h70.078c-1.266-31.363-25.846-45.94-35.297-50.362 18.263-6.92 25.946-18.527 25.946-18.527 15.853-27.495-18.045-25.822-18.045-25.822-4.235-.227-8.067-.11-11.523.275h-39.356v2.96c1.6.22 2.97.624 4.07 1.265 1.67.97 2.78 2.11 3.326 3.402.422.994.675 3.165.775 6.448v66.13c-.1 3.284-.353 5.45-.775 6.448-.544 1.297-1.657 2.43-3.326 3.403-1.1.64-2.47 1.047-4.07 1.262v2.96h8.197v.16zm42.682-8.083H428.13c-.318-.69-.54-2.03-.667-3.993v-32.937s20.106 5.09 18.132 36.93zm10.478-67.124c-2.362 13.556-28.642 18.934-28.642 18.934V197.99c.002-.002 31.004-7.72 28.643 5.84zM513.16 183.972c-19.338 0-35.007 21.64-35.007 48.328 0 26.683 15.67 48.32 35.006 48.32 19.332 0 35.006-21.638 35.006-48.32 0-26.69-15.674-48.328-35.007-48.328zm-.005 88.083c-7.58 0-13.012-11.423-13.012-39.678 0-28.332 5.433-39.832 13.012-39.832 7.634 0 13.016 11.5 13.016 39.832 0 28.255-5.38 39.678-13.015 39.678zM602.232 318.43c1.6.224 2.976.627 4.077 1.268 1.664.97 2.772 2.105 3.317 3.402.434 1.017.69 3.252.783 6.65h-.08v8.114h-22.752v-8.113h-.004c.093-3.283.354-5.423.78-6.355.742-1.696 1.768-2.89 3.063-3.586 1.2-.703 2.69-1.148 4.403-1.38v-2.956h-40.878v2.957c1.595.224 2.97.627 4.065 1.268 1.67.97 2.78 2.105 3.325 3.402.434 1.017.687 3.252.783 6.65h-.085v66.27c-.096 3.307-.35 5.493-.77 6.494-.554 1.292-1.662 2.428-3.327 3.398-1.097.64-2.47 1.043-4.07 1.262v2.966h40.883v-2.958c-1.722-.23-3.202-.675-4.406-1.38-1.297-.7-2.317-1.897-3.07-3.59-.336-.738-.566-2.25-.693-4.486v-51.37h22.75v49.664c-.092 3.307-.353 5.493-.774 6.494-.552 1.292-1.656 2.428-3.33 3.398-1.092.64-2.47 1.043-4.07 1.262v2.966h40.888v-2.958c-1.72-.23-3.202-.675-4.402-1.38-1.3-.7-2.32-1.897-3.07-3.59-.34-.738-.566-2.25-.696-4.486V329.75c.092-3.283.35-5.423.778-6.355.744-1.696 1.764-2.89 3.057-3.586 1.21-.703 2.693-1.148 4.412-1.38v-2.956H602.23v2.957zM603.413 187.56c1.6.22 2.974.624 4.066 1.265 1.668.97 2.78 2.106 3.325 3.398.418.982.667 3.104.77 6.307h-.072v8.116h-22.747v-7.82c.092-3.254.345-5.375.775-6.3.744-1.695 1.76-2.888 3.062-3.59 1.205-.698 2.688-1.147 4.41-1.377v-2.96h-40.886v2.96c1.597.22 2.977.624 4.07 1.265 1.668.97 2.78 2.106 3.33 3.398.41.982.666 3.104.767 6.307h-.073v66.27c-.092 3.31-.35 5.496-.774 6.493-.553 1.293-1.654 2.432-3.322 3.398-1.1.642-2.474 1.048-4.073 1.27v2.954h40.883v-2.953c-1.714-.233-3.198-.678-4.4-1.38-1.3-.698-2.32-1.892-3.067-3.583-.342-.748-.57-2.25-.698-4.492v-51.37h22.747V264.8c-.097 3.31-.35 5.496-.77 6.493-.554 1.293-1.658 2.432-3.33 3.398-1.094.642-2.47 1.048-4.07 1.27v2.954h40.883v-2.953c-1.718-.233-3.198-.678-4.404-1.38-1.3-.698-2.316-1.892-3.064-3.583-.34-.748-.57-2.25-.697-4.492v-67.68c.092-3.253.353-5.374.774-6.3.744-1.694 1.77-2.887 3.06-3.59 1.206-.697 2.693-1.146 4.413-1.376v-2.96h-40.884v2.96z"/><path d="M248.25 403.668c-20.31-14.952-31.39-26.177-34.224-36.94v-9.724c3.644-11.365 19.816-30.062 35.662-23.943 0 0 10.03 3.077.38 22.077l28.128-12.824c4.2-19.686-9.38-24.994-9.38-24.994-25.496-6.215-45.52 13.033-54.79 24.384v-3.578c.145-5.064.536-8.36 1.196-9.79 1.15-2.616 2.727-4.457 4.726-5.538 1.853-1.08 4.14-1.765 6.793-2.126v-4.557h-63.026v4.56c2.466.343 4.584.968 6.27 1.953 2.58 1.497 4.282 3.242 5.13 5.24.664 1.568 1.06 5.018 1.205 10.258h-.124V440.31c-.153 5.094-.548 8.45-1.197 9.984-.845 1.998-2.556 3.75-5.13 5.248-1.687.98-3.804 1.61-6.27 1.944v4.564h63.027v-4.557c-2.655-.36-4.94-1.043-6.793-2.13-2-1.073-3.575-2.918-4.726-5.526-.53-1.147-.882-3.476-1.082-6.92v-54.12c11.914 9.662 37.6 35.738 24.733 73.103h42.136s12.986-24.64-32.646-58.232zM693.53 318.597c1.604.214 2.976.625 4.073 1.257 1.668.98 2.773 2.11 3.326 3.406.163.392.306.963.42 1.712-12.88 6.893-28.343 21.06-37.17 33.384-12.166 17.004-19.305 37.08-11.557 48.75 7.44 11.216 31.792.755 49.008-16.878v5.948c-.103 3.315-.353 5.5-.774 6.5-.55 1.296-1.66 2.427-3.33 3.4-1.093.638-2.47 1.045-4.07 1.263v2.96h40.888v-2.96c-1.722-.23-3.207-.676-4.412-1.375-1.3-.7-2.316-1.897-3.06-3.59-.343-.743-.572-2.26-.702-4.503v-67.96h-.004c.1-3.288.355-5.42.782-6.353.748-1.692 1.768-2.89 3.064-3.588 1.204-.706 2.686-1.15 4.404-1.38v-2.958H693.53v2.963zm-12.5 66.597c-7.766-5.15-6.04-20.963 3.87-35.31 4.932-7.15 10.958-12.57 16.73-15.58v46.375c-7.62 5.83-15.52 7.89-20.6 4.514zM729.438 192.52c.75-1.69 1.772-2.883 3.068-3.585 1.205-.698 2.686-1.147 4.403-1.377V184.6h-40.883v2.958c1.6.222 2.973.625 4.07 1.262 1.672.975 2.772 2.106 3.325 3.402.13.303.24.726.338 1.24-12.862 6.907-28.282 21.04-37.086 33.345-12.164 16.992-19.306 37.073-11.56 48.746 7.447 11.216 31.798.755 49.01-16.882v5.954c-.1 3.31-.356 5.493-.775 6.498-.55 1.297-1.662 2.428-3.326 3.402-1.098.637-2.475 1.047-4.074 1.258v2.965h40.89v-2.96c-1.726-.228-3.21-.672-4.414-1.374-1.297-.702-2.313-1.898-3.062-3.595-.34-.74-.575-2.255-.702-4.507v-67.483c.097-3.256.358-5.377.776-6.306zm-45.916 61.12c-7.765-5.148-6.035-20.96 3.866-35.31 4.933-7.15 10.963-12.563 16.736-15.58v46.378c-7.622 5.835-15.516 7.887-20.602 4.51z"/></g></svg>