<?xml version="1.0" encoding="utf-8"?>
<!-- Generator: Adobe Illustrator 16.0.0, SVG Export Plug-In . SVG Version: 6.00 Build 0)  -->
<!DOCTYPE svg PUBLIC "-//W3C//DTD SVG 1.1//EN" "http://www.w3.org/Graphics/SVG/1.1/DTD/svg11.dtd">
<svg version="1.1" id="Layer_1" xmlns="http://www.w3.org/2000/svg" xmlns:xlink="http://www.w3.org/1999/xlink" x="0px" y="0px"
	 width="841.89px" height="595.28px" viewBox="0 0 841.89 595.28" enable-background="new 0 0 841.89 595.28" xml:space="preserve">
<g>
	<path fill="#58595B" d="M327.793,378.363c-0.905-0.912-5.594-5.406-6.943-6.84c-1.346-1.418-2.079-2.541-2.079-4.16
		c0,0,0-36.08,0-48.35c0-12.268-10.38-22.932-17.54-25.912c0,0,17.74-8.906,17.122-41.176
		c-0.537-28.211-12.491-42.801-36.555-42.801h-28.917c-0.929,0-1.388,0.695-1.388,1.388c0,0.696,0.505,1.002,1.619,2.085
		c1.532,1.482,5.023,4.803,6.941,6.706c1.915,1.903,2.08,3.702,2.08,6.48V365.98c0,2.77-0.393,4.299-2.08,6.477
		c-1.688,2.178-5.645,5.535-6.941,6.707c-1.043,0.945-1.619,1.387-1.619,2.084c0,0.691,0.459,1.381,1.388,1.381h36.32
		c0.929,0,1.388-0.689,1.388-1.381c0-0.697-1.006-1.502-1.618-2.084c-0.611-0.576-4.883-4.123-6.938-6.707
		c-2.056-2.598-2.082-3.707-2.082-6.477v-65.123c7.87-1.781,14.286,1.779,17.201,8.758c2.177,5.207,3.454,17.949,3.454,25.871
		c0,18.521,0,32.34,0,32.34c0,7.869,4.512,14.803,15.157,14.803c0,0,10.504,0,12.026,0c1.524,0,2.16-0.322,2.261-1.016
		C330.224,380.398,329.436,380.014,327.793,378.363z M297.499,278.425c-2.928,8.527-10.708,11.389-17.448,9.839v-67.197
		c7.064-1.503,13.469,1.284,16.716,7.865c2.56,5.186,3.839,12.594,3.839,22.994C300.605,262.912,299.619,272.243,297.499,278.425z"
		/>
	<path fill="#58595B" d="M189.316,327.781c0-18.113-7.575-30.141-17.582-34.679c0,0,18.419-8.106,17.296-41.066
		c-0.99-29.189-12.67-42.911-36.727-42.911h-28.919c-0.93,0-1.388,0.695-1.388,1.388c0,0.696,0,0.696,1.618,2.085
		c1.619,1.389,5.025,4.803,6.941,6.706s2.079,3.702,2.079,6.48V365.98c0,2.77-0.392,4.299-2.079,6.477s-5.644,5.535-6.941,6.707
		c-1.043,0.945-1.618,1.387-1.618,2.084c0,0.691,0.458,1.381,1.388,1.381h36.321C193.382,382.629,189.316,331.57,189.316,327.781z
		 M167.905,361.066c-2.928,8.527-10.711,11.398-17.455,9.84v-70.168c7.067-1.501,13.471,1.287,16.722,7.869
		c2.56,5.178,3.834,12.594,3.834,22.994C171.006,342.586,170.024,354.893,167.905,361.066z M167.905,278.425
		c-2.928,8.527-10.711,11.389-17.455,9.839v-67.197c7.067-1.503,13.471,1.284,16.722,7.865c2.56,5.186,3.834,12.594,3.834,22.994
		C171.006,262.912,170.024,272.243,167.905,278.425z"/>
	<g>
		<path fill="#58595B" d="M483.633,458.744c-2.911,0-5.093,2.615-5.093,2.615v-2.168c0-0.299-0.149-0.447-0.364-0.447h-7.187
			c-0.731,0-0.448,0.629-0.149,0.895c0.295,0.266,1.612,1.205,1.845,1.381c0.629,0.459,0.609,0.643,0.609,0.859v44.322
			c0,0.219,0,0.518-0.148,0.6l-2.306,2.619c-0.233,0.217-0.562,0.818,0.149,0.818h9.874c0.791,0,0.298-0.602,0.082-0.818
			l-2.322-2.619c-0.083-0.082-0.083-0.381-0.083-0.6v-8.682c0,0,1.951,2.842,5.014,2.842c3.299,0,6.736-1.875,6.888-22.984
			C490.441,460.688,486.853,458.744,483.633,458.744z M483.907,495.059c-0.962,4.564-5.367,0.955-5.367-4.393
			c0-2.996,0-23.094,0-23.094c0-3.668,2.252-5.609,3.302-5.609c1.865,0,2.771,1.572,2.771,15.414
			C484.613,484.527,484.625,491.637,483.907,495.059z"/>
		<path fill="#58595B" d="M233.705,449.609c0-0.904-0.023-1.475-0.673-2.102c-0.65-0.623-2.004-1.932-2.248-2.17
			c-0.24-0.225-0.522-0.449-0.522-0.666c0-0.23,0.15-0.453,0.449-0.453h11.305c6.344,0,10.099,3.975,9.903,14.871
			c-0.166,9.307-2.716,16.066-12.447,15.146v20.732c0,0.895,0.045,1.604,0.673,2.102c0.631,0.494,2.448,1.896,2.771,2.16
			c0.271,0.234,0.522,0.451,0.522,0.682c0,0.227-0.149,0.449-0.447,0.449h-12.279c-0.299,0-0.449-0.223-0.449-0.449
			c0-0.23,0.3-0.406,0.709-0.813c0.402-0.4,1.46-1.379,2.062-2.029c0.6-0.656,0.673-1.207,0.673-2.102V449.609z M239.472,470.49
			c6.084,1.189,6.26-4.17,6.287-11.746c0.026-7.684-0.378-11.746-6.287-10.789V470.49z"/>
		<path fill="#58595B" d="M282.733,495.268c0,0.977,0.3,1.854,0.972,1.875c0.931,0.029,1.768-0.664,2.173-1.279
			c0.353-0.529,0.739-0.268,0.546,0.471c-0.554,2.119-1.97,4.027-3.84,4.027c-2.32,0-3.519-1.494-4.418-2.842
			c-1.196,1.348-3.145,2.842-5.166,2.842c-2.917,0-6.511-1.922-6.511-12.131c0-8.309,1.271-10.623,9.508-17.213
			c1.495-1.199,1.495-1.869,1.495-4.939c0-3.297-0.747-4.127-3.144-4.115c-2.793,0.01-5.948,2.439-6.563,2.982
			c-0.482,0.43-0.935,0.381-0.921-0.064c0.025-0.9,3.83-6.072,8.46-6.137c2.69-0.043,7.408,1.641,7.408,9.352V495.268z
			 M277.492,473.115c-3.955,2.918-5.465,6.139-5.465,13.773c0,8.527,0.824,10.254,2.471,10.254c1.648,0,2.994-2.322,2.994-4.414
			V473.115z"/>
		<path fill="#58595B" d="M374.94,495.268c0,0.977,0.301,1.854,0.972,1.875c0.932,0.029,1.766-0.664,2.173-1.279
			c0.355-0.529,0.739-0.268,0.544,0.471c-0.551,2.119-1.97,4.027-3.837,4.027c-2.322,0-3.519-1.494-4.417-2.842
			c-1.2,1.348-3.142,2.842-5.167,2.842c-2.92,0-6.512-1.922-6.512-12.131c0-8.309,1.271-10.623,9.508-17.213
			c1.493-1.199,1.493-1.869,1.493-4.939c0-3.297-0.746-4.127-3.141-4.115c-2.796,0.01-5.951,2.439-6.563,2.982
			c-0.485,0.43-0.936,0.381-0.924-0.064c0.031-0.9,3.833-6.072,8.463-6.137c2.69-0.043,7.407,1.641,7.407,9.352V495.268z
			 M369.697,473.115c-3.955,2.918-5.461,6.139-5.461,13.773c0,8.527,0.822,10.254,2.468,10.254c1.649,0,2.993-2.322,2.993-4.414
			V473.115z"/>
		<path fill="#58595B" d="M431.153,495.268c0,0.977,0.301,1.854,0.964,1.875c0.939,0.029,1.766-0.664,2.173-1.279
			c0.364-0.529,0.739-0.268,0.552,0.471c-0.559,2.119-1.978,4.027-3.837,4.027c-2.322,0-3.519-1.494-4.429-2.842
			c-1.195,1.348-3.138,2.842-5.163,2.842c-2.912,0-6.505-1.922-6.505-12.131c0-8.309,1.27-10.623,9.51-17.213
			c1.493-1.199,1.493-1.869,1.493-4.939c0-3.297-0.748-4.127-3.151-4.115c-2.785,0.01-5.941,2.439-6.561,2.982
			c-0.478,0.43-0.936,0.381-0.916-0.064c0.024-0.9,3.83-6.072,8.455-6.137c2.688-0.043,7.415,1.641,7.415,9.352V495.268z
			 M425.911,473.115c-3.957,2.918-5.469,6.139-5.469,13.773c0,8.527,0.821,10.254,2.466,10.254c1.658,0,3.003-2.322,3.003-4.414
			V473.115z"/>
		<path fill="#58595B" d="M611.371,495.268c0,0.977,0.301,1.854,0.977,1.875c0.927,0.029,1.765-0.664,2.17-1.279
			c0.354-0.529,0.741-0.268,0.542,0.471c-0.554,2.119-1.962,4.027-3.837,4.027c-2.322,0-3.519-1.494-4.413-2.842
			c-1.199,1.348-3.149,2.842-5.169,2.842c-2.917,0-6.515-1.922-6.515-12.131c0-8.309,1.278-10.623,9.509-17.213
			c1.494-1.199,1.494-1.869,1.494-4.939c0-3.297-0.748-4.127-3.137-4.115c-2.795,0.01-5.956,2.439-6.567,2.982
			c-0.48,0.43-0.932,0.381-0.917-0.064c0.025-0.9,3.83-6.072,8.453-6.137c2.698-0.043,7.41,1.641,7.41,9.352V495.268z
			 M606.129,473.115c-3.957,2.918-5.462,6.139-5.462,13.773c0,8.527,0.825,10.254,2.474,10.254c1.644,0,2.988-2.322,2.988-4.414
			V473.115z"/>
		<path fill="#58595B" d="M314.851,473.563c0,0.92-0.725,0.695-0.898-0.072c-0.171-0.777-2.182-12.021-5.689-11.527
			c-3.82,0.533-1.401,10.389,2.697,16.242c3.084,4.408,4.867,9.803,4.867,14.672c0,4.643-3.293,7.484-6.438,7.484
			c-2.1,0-3.369-0.98-4.495-2.396l-1.943,2.02c-0.226,0.154-0.998,1.117-0.974-0.152v-14.373c-0.058-0.627,0.615-0.508,0.748,0.15
			c1.157,5.814,2.921,11.533,5.688,11.533c1.648,0,2.396-1.279,2.396-3.221c0-4.645-2.396-9.578-4.788-13.473
			c-2.696-4.496-4.271-9.133-4.271-13.695c0-4.875,2.996-8.01,5.69-8.01c1.801,0,3.145,0.895,4.417,2.389
			c0,0,1.365-1.348,2.192-2.074c0.831-0.725,0.803,0.049,0.803,0.43C314.851,459.488,314.851,472.637,314.851,473.563z"/>
		<path fill="#58595B" d="M339.386,494.447c0,3.852,3.156,2.764,4.122,1.117c0.308-0.523,0.918-0.352,0.464,1.045
			c-0.423,1.295-1.815,3.752-4.959,3.752c-3.145,0-4.864-1.428-4.864-7.568c0,0,0-28.883,0-30.313c0-1.385-1.194-1.928-2.397-3.07
			c-0.71-0.666-0.074-0.9,0.676-0.965c3.292-0.604,3.667-6.291,3.667-9.291c0-0.367,0.223-0.668,0.601-0.668h2.242
			c0.3,0,0.449,0.152,0.449,0.52v8.609c0,0.375,0.076,0.682,0.603,0.682h1.72c0.374,0,0.519,0.447,0,0.895
			c-0.701,0.604-2.322,2.121-2.322,3.289C339.386,463.646,339.386,494.447,339.386,494.447z"/>
		<path fill="#58595B" d="M508.808,462.326c0-0.297-0.083-0.447-0.231-0.598l-2.24-2.09c-0.15-0.229-0.607-0.895,0.148-0.895h7.187
			c0.225,0,0.374,0.148,0.374,0.447v37.053c0,0.299,0,0.523,0.151,0.674l2.313,2.613c0.152,0.15,0.67,0.83-0.145,0.83h-9.881
			c-0.756,0-0.299-0.68-0.148-0.83l2.322-2.613c0.149-0.15,0.149-0.375,0.149-0.674V462.326z M514.045,448.189
			c0,1.941-1.2,3.965-2.697,3.965c-1.574,0-2.771-2.023-2.771-3.965c0-2.023,1.197-3.971,2.771-3.971
			C512.845,444.219,514.045,446.166,514.045,448.189z"/>
		<path fill="#58595B" d="M532.525,459.342c0-0.301,0.297-0.598,0.664-0.598h13.773c0.573,0,0.381,0.666,0.297,0.895l-8.978,38.178
			h3.968c0.744,0,1.276-0.297,1.492-0.975c0,0,3.06-9.164,3.518-10.555c0.469-1.402,0.831-0.527,0.831,0c0,0.518,0,13.545,0,13.545
			c0,0.23-0.15,0.529-0.599,0.529c0,0-14.652-0.006-14.967,0c-0.318,0.004-0.338-0.412-0.234-0.83
			c0.109-0.406,9.659-38.248,9.659-38.248h-3.592c-0.674,0-1.122,0.299-1.421,1.043c0,0-3.047,8.879-3.449,10.258
			c-0.389,1.393-0.953,0.729-0.963,0.232V459.342z"/>
		<path fill="#58595B" d="M563.795,459.342c0-0.301,0.297-0.598,0.68-0.598h13.771c0.575,0,0.367,0.666,0.299,0.895l-8.982,38.178
			h3.971c0.746,0,1.264-0.297,1.494-0.975c0,0,3.06-9.164,3.518-10.555c0.458-1.402,0.826-0.527,0.826,0c0,0.518,0,13.545,0,13.545
			c0,0.23-0.153,0.529-0.604,0.529c0,0-14.654-0.006-14.973,0c-0.314,0.004-0.328-0.412-0.219-0.83
			c0.094-0.406,9.655-38.248,9.655-38.248h-3.599c-0.67,0-1.123,0.299-1.423,1.043c0,0-3.04,8.879-3.438,10.258
			c-0.403,1.393-0.967,0.729-0.977,0.232V459.342z"/>
	</g>
	<path fill="#58595B" d="M455.839,209.125h-31.404c-0.938,0-1.397,0.695-1.397,1.388c0,0.696,0.724,1.41,1.377,2.01
		c0.637,0.6,5.667,5.464,6.953,6.781c1.287,1.317,1.857,3.702,1.857,6.48V357.58c0,18.162-23.625,17.459-23.625,0.846V225.784
		c0-2.778,0.748-4.989,1.85-6.48c1.1-1.489,6.563-6.35,7.078-6.888c0.635-0.656,1.253-1.207,1.253-1.903
		c0-0.692-0.462-1.388-1.39-1.388h-35.394c-0.929,0-1.391,0.695-1.391,1.388c0,0.696,0.314,1.295,1.16,2.085
		c0.838,0.79,5.781,5.154,7.172,6.706c1.391,1.554,1.848,3.702,1.848,6.48v129.671c0,16.797,13.721,27.094,27.541,27.174
		c13.812,0.096,27.722-10.008,27.722-28.852V225.784c0-2.778,0.749-5.086,1.855-6.48c1.088-1.395,6.648-6.177,7.173-6.706
		c0.507-0.529,1.159-1.389,1.159-2.085C457.236,209.82,456.773,209.125,455.839,209.125z"/>
	<path fill="#58595B" d="M528.779,225.784c0-2.778-0.677-4.651-2.075-6.48c-1.136-1.483-4.05-4.814-5.782-6.706
		c-0.713-0.78-1.625-1.389-1.625-2.317c0-0.46,0.468-1.155,1.392-1.155h27.753c1.629,0,2.314,1.618,2.781,3.933l21.75,99.485
		v-86.759c0-2.778-0.613-4.666-2.082-6.246c-1.47-1.587-5.777-6.237-6.48-6.941c-0.701-0.709-1.625-1.389-1.625-2.317
		c0-0.46,0.473-1.155,1.396-1.155h30.533c0.928,0,1.393,0.695,1.393,1.155c0,0.929-0.749,1.508-1.833,2.697
		c-1.074,1.188-4.277,4.522-5.576,6.327c-1.298,1.808-2.08,3.702-2.08,6.48V380.09c0,1.621,0.006,2.539-2.313,2.539h-9.711
		c-2.085,0-3.937-2.313-4.634-5.775l-27.527-126.087V365.98c0,2.77,0.559,4.332,2.471,6.537c2.048,2.355,4.953,5.523,6.093,6.646
		c0.748,0.742,1.616,1.387,1.616,2.307c0,0.469-0.458,1.158-1.39,1.158h-30.534c-0.924,0-1.392-0.689-1.392-1.158
		c0-0.92,0.864-1.605,1.956-2.689c1.494-1.504,4.038-4.551,5.451-6.324c1.411-1.771,2.075-3.707,2.075-6.477V225.784z"/>
	<g>
		<rect x="121.996" y="412.023" fill="#58595B" width="597.637" height="2.238"/>
	</g>
	<path fill="#58595B" d="M719.894,291.253c0,43.727-2.671,91.375-31.063,91.375c-28.388,0-30.708-47.648-30.708-91.375
		c0-33.313,2.294-82.128,30.708-82.128C717.248,209.125,719.894,257.94,719.894,291.253z M677.097,291.484
		c0,60.154,4.008,79.58,11.734,79.58c7.73,0,12.097-19.426,12.097-79.58c0-51.356-4.592-70.792-12.097-70.792
		C681.331,220.692,677.097,240.128,677.097,291.484z"/>
	<g>
		<path fill="#58595B" d="M291.607,101.764l18.607-5.688l1.772,5.789l-1.299,0.646l-3.209-4.104l-4.427,1.353l5.8,18.966
			l3.161,0.207l0.189,1.433l-8.653,2.65l-0.646-1.297l2.501-1.941l-5.799-18.964l-4.424,1.356l-0.366,5.198l-1.438,0.188
			L291.607,101.764z"/>
		<path fill="#58595B" d="M342.896,100.654l-1.233-2.208c-0.496-0.068-0.888-0.09-1.687,0.079c-0.93,0.199-2.265,0.964-3.336,1.646
			l2.442,11.552l2.347,0.235l-0.013,1.256l-6.989,1.481l-0.489-1.152l2.017-1.159l-2.637-12.453l-1.665,0.354l-0.486-1.148
			l3.785-1.186l1.425,0.989c0.999-0.873,2.135-1.742,3.867-2.108c1.002-0.211,2.035-0.256,3.083-0.062l0.721,3.397L342.896,100.654z
			"/>
		<path fill="#58595B" d="M362.422,94.132c1.598-1.036,3.143-1.589,4.864-1.783c4.198-0.478,6.615,1.509,7.064,5.502l0.905,8.011
			l2.277,0.463l-0.096,1.245l-4.499,0.509l-0.71-1.153c-1.205,1.196-2.052,1.842-4.387,2.106c-2.843,0.32-5.21-0.951-5.545-3.895
			c-0.533-4.731,4.522-6.058,8.916-6.555l-0.204-1.794c-0.272-2.399-1.785-3.393-3.782-3.167c-0.879,0.1-1.922,0.286-2.828,0.731
			l-0.418,2.686l-1.242-0.1L362.422,94.132z M371.351,99.799c-4.258,0.483-5.784,2.13-5.506,4.595
			c0.273,2.436,1.815,3.051,3.17,2.897c1.351-0.154,2.359-0.92,2.933-2.217L371.351,99.799z"/>
		<path fill="#58595B" d="M398.151,90.073l4.452-0.252l-0.175,1.238l-4.209,0.235l0.605,10.905c0.089,1.598,0.995,2.469,2.006,2.41
			c1.226-0.068,1.947-0.618,2.614-1.439l0.83,0.875c-1.052,1.252-1.995,2.088-3.928,2.196c-3.128,0.175-4.592-1.651-4.732-4.133
			l-0.593-10.635l-1.971,0.108l-0.305-1.208l2.368-0.881l1.229-3.649l1.588,0.288L398.151,90.073z"/>
		<path fill="#58595B" d="M425.548,89.385l4.467,0.072l-0.263,1.224l-4.223-0.068l-0.17,10.921
			c-0.021,1.601,0.817,2.534,1.838,2.549c1.221,0.019,1.974-0.478,2.7-1.249l0.764,0.93c-1.127,1.174-2.131,1.939-4.079,1.909
			c-3.128-0.05-4.456-1.978-4.42-4.461l0.182-10.654l-1.98-0.029l-0.219-1.231l2.428-0.71l1.483-3.548l1.563,0.398L425.548,89.385z"
			/>
		<path fill="#58595B" d="M463.792,99.135c-0.391,5.225-3.198,8.116-8.595,7.714c-5.367-0.404-7.735-3.819-7.346-8.91
			c0.372-5.088,3.566-8.057,8.581-7.682C461.465,90.635,464.179,93.911,463.792,99.135z M451.142,98.084
			c-0.316,4.275,1.267,7.293,4.14,7.511c2.891,0.216,4.935-2.496,5.256-6.806c0.333-4.344-1.345-7.063-4.188-7.277
			C453.521,91.303,451.457,93.813,451.142,98.084z"/>
		<path fill="#58595B" d="M494.076,99.722l-0.369-2.501c-0.443-0.237-0.809-0.392-1.61-0.517c-0.948-0.142-2.459,0.114-3.712,0.372
			l-1.756,11.674l2.123,1.042l-0.451,1.17l-7.061-1.065l-0.063-1.248l2.299-0.377l1.894-12.58l-1.689-0.251l-0.048-1.247
			l3.957,0.217l0.993,1.418c1.235-0.463,2.607-0.879,4.354-0.612c1.007,0.15,1.995,0.467,2.905,1.021l-0.509,3.43L494.076,99.722z"
			/>
		<path fill="#58595B" d="M517.505,115.919l-0.538,1.13l-6.932-1.618l0.014-1.254l2.35-0.188l2.899-12.391l-1.688-0.394l0.049-1.247
			l3.595,0.457l1.435,0.719l-3.165,13.585L517.505,115.919z M520.225,95.341c-0.24,0.993-1.256,1.594-2.25,1.361
			c-0.953-0.223-1.594-1.211-1.365-2.206c0.236-0.995,1.248-1.598,2.204-1.375C519.811,93.359,520.448,94.346,520.225,95.341z"/>
		<path fill="#58595B" d="M537.372,107.021c1.884-0.296,3.519-0.169,5.171,0.354c4.025,1.274,5.42,4.076,4.209,7.904l-2.443,7.687
			l1.895,1.348l-0.597,1.097l-4.313-1.366l-0.187-1.346c-1.577,0.606-2.629,0.847-4.861,0.138c-2.717-0.865-4.373-2.994-3.477-5.814
			c1.438-4.541,6.592-3.693,10.813-2.354l0.551-1.721c0.73-2.302-0.254-3.828-2.169-4.435c-0.842-0.266-1.867-0.523-2.875-0.483
			l-1.477,2.28l-1.094-0.595L537.372,107.021z M543.223,115.836c-4.09-1.297-6.153-0.415-6.904,1.952
			c-0.743,2.338,0.406,3.523,1.706,3.936c1.303,0.411,2.539,0.126,3.592-0.826L543.223,115.836z"/>
	</g>
</g>
</svg>
