<svg xmlns="http://www.w3.org/2000/svg" width="841.89" height="595.28" viewBox="0 0 841.89 595.28"><g fill="#58595B"><path d="M365.91 241.095h4.34l12.934-27.234h9.05l-14.838 31.4 16.917 36.197h-9.043l-15.02-32.123h-4.34v32.123h-8.243v-56.645l3.445-2.086v-.632h-8.33v-8.233h13.127M422.025 222.094h-1.717l-4.978 33.66h11.76l-5.065-33.66zm-14.115-8.233h21.262l10.047 67.78h-8.326l-2.62-17.646h-14.12l-2.618 17.646H403.2l8.335-56.83 3.435-2.082v-.634h-7.06v-8.233zM472.447 251.142l5.612-5.974v-17.555l-5.53-5.52h-9.68v29.048h9.597zm13.935-26.973v24.26l-10.407 10.945H462.85v22.265h-8.228v-57.098l3.436-2.087v-.63h-8.32v-7.964h26.14l10.504 10.31zM497.893 221.454v-7.593h36.556v67.682h-8.24v-59.818h-15.288v59.818h-8.235v-57.47l3.345-1.986v-.632M567.86 222.094h-1.723l-4.98 33.66h11.763l-5.06-33.66zm-14.118-8.233h21.262l10.042 67.78h-8.33l-2.616-17.646h-14.117l-2.625 17.646h-8.317l8.318-56.83 3.442-2.082v-.634h-7.058v-8.233zM605.604 221.287h-7.33l-.364 7.148h-6.694V213.86h37.19v14.575h-6.783l-.277-7.148h-7.51v60.446h-8.232M663.438 227.43l-5.163-5.336h-5.886l-5.064 5.335v41.263l5.156 5.794h5.706l5.25-5.794v-7.512l8.23-.09v10.678l-9.867 10.956h-12.933l-9.78-10.956v-47.6l9.873-10.307h12.84l9.867 10.31v10.227h-8.23M691.85 244.358v29.04h9.678l5.52-5.517v-17.554l-5.61-5.97h-9.587zm13.03 37.282h-21.27v-67.78h8.24v22.265h13.114l10.413 10.942v24.25L704.88 281.64zM739.814 241.095h4.34l12.947-27.234h9.054l-14.84 31.4 16.91 36.197h-9.038l-15.03-32.123h-4.342v32.123h-8.23v-56.645l3.44-2.086v-.632H726.7v-8.233h13.114M777.205 213.86v7.51h10.044v.64l-3.436 2.074v50.138h-7.33v7.51h22.886v-7.51h-7.33v-52.85h6.34v-7.51"/><g><path d="M365.904 351.282h9.41l5.795 5.703v10.855l-5.254 5.253h-9.952v-21.81zm0-29.13h8.142l5.25 5.235v9.87l-4.804 5.707h-8.587V322.15zm-13.122-8.422v8.42h8.237v.637l-3.447 2.075v56.557h21.72l10.14-10.14v-18.09l-6.782-6.7 4.975-5.978V323.95l-10.145-10.22h-24.698zM401.297 313.55v7.507h10.042v.635l-3.438 2.083v50.128h-7.33v7.516h22.893v-7.517h-7.33v-52.846h6.342v-7.506M465.676 313.815l-12.932 27.242h-4.342v-27.242h-13.124v8.24h8.33v.634l-3.45 2.082v56.647h8.244v-32.13h4.342l15.012 32.13h9.045l-16.908-36.196 14.844-31.41M514.537 313.815v29.863h-15.293v-29.863h-13.03v8.24h8.146v.634l-3.344 1.99v56.74h8.228v-29.865h15.293v29.864h8.234v-67.605M552.525 321.875h1.726l5.07 33.663h-11.768l4.973-33.663zm-12.392-8.234v8.235h7.057v.634l-3.434 2.082-8.33 56.827h8.33l2.626-17.65h14.11l2.63 17.65h8.313l-10.037-67.78h-21.265z"/></g><g><path d="M178.98 221.95L50.416 381.056h25.716L178.988 253.77l102.86 127.286h25.72"/><path d="M178.988 272.835l-87.455 108.22h36.825l50.63-62.657 50.637 62.658h36.826"/><path d="M178.988 336.487l-36.008 44.57h72.024"/><path d="M42.52 213.86v167.196h8.226V222.088H307.24v158.968h8.224V213.86"/></g></g></svg>