<svg xmlns="http://www.w3.org/2000/svg" width="841.89" height="595.28" viewBox="0 0 841.89 595.28"><path fill="#9FA1A4" d="M302.312 217.573c23.88-38.176 66.45-61.858 111.48-61.858 45.028 0 87.598 23.684 111.478 61.858h20.136c-24.946-47.19-74.52-79.354-131.614-79.354-57.094 0-106.668 32.163-131.617 79.353h20.137zM475.93 402.735c-18.88 10.168-40.092 15.57-62.14 15.57-43.662 0-85.1-22.263-109.35-58.556h-20.466c25.485 45.38 74.065 76.05 129.816 76.05 35.424 0 67.94-12.396 93.49-33.065h-31.35z"/><g fill="#58595B"><path d="M641.936 237.412H675v99.192h-33.064zM362.598 237.412l64.417 99.194H387.59l-52.37-80.648-26.607 40.97h36.938l12.884 19.84H295.73l-12.885 19.838H255.08l64.417-99.194M195.577 237.412l-56.222 65.456-56.222-65.456h-26.44v99.192h33.065v-61.032l49.597 57.744 49.597-57.744v61.032h33.065v-99.192M771.643 237.41H741.94l-53.715 55.917v9.35l34.558 33.93h47.356l-48.315-47.12M595.645 277.098c0-21.912-17.766-39.677-39.677-39.677l-96.038-.008v99.192h33.063V257.25h49.9c10.945 0 19.848 8.903 19.848 19.848 0 10.82-8.704 19.63-19.475 19.83h-37.05v19.84h28.362-.012l16.532 19.84h42.983l-22.868-22.87c14.346-5.98 24.433-20.13 24.433-36.64z"/></g><g fill="#9FA1A4"><path d="M507.893 329.13c.068-.008.125-.033.202-.033-.155 0-.217.012-.202.034zM567.063 349.008c-.93.677-1.394 1.522-1.394 2.537.08 1.52.8 2.28 2.153 2.28.676 0 1.46-.397 2.346-1.202.887-.804 1.333-1.585 1.333-2.346 0-1.438-.763-2.157-2.285-2.157-.76 0-1.478.298-2.155.888z"/><path d="M784.818 379.445c-.257 0-.51.127-.763.376-2.707 1.67-4.354 2.672-4.944 3.005-7.357 4.175-12.6 6.26-15.725 6.26-3.3 0-5.076-1.853-5.33-5.555 2.54-1.514 5.792-4.334 9.77-8.46 4.984-5.217 7.48-9.257 7.48-12.12 0-1.176-.633-1.768-1.902-1.768-4.145 0-8.52 2.39-13.124 7.165-4.612 4.778-6.915 9.533-6.915 14.27 0 .554.03 1.074.065 1.58-.418.267-.796.52-1.07.747-5.52 3.785-10.82 5.28-13.915 5.28-4.685 0-7.15-3.978-7.402-11.938 1.517 0 6.143-3.725 13.878-11.178 9.087-8.635 16.613-17.36 22.585-26.166 7.905-11.6 11.86-21.677 11.86-30.23 0-2.707-1.018-4.063-3.046-4.063-4.736 0-11.243 4.734-19.53 14.204-7.78 8.96-14.67 19.234-20.672 30.816-5.372 10.39-8.49 19.03-9.372 25.934-2.295 1.955-6.08 5.128-9.893 7.687-3.58 2.405-8.675 5.297-12.78 7.362 4.99-9.89 9.47-17.813 12.77-22.97.588-.933.886-1.692.886-2.286 0-1.097-.552-1.647-1.65-1.647-.592 0-1.522.632-2.79 1.9-2.535 4.65-6.34 9.006-11.416 13.064-4.48 3.55-7.734 5.326-9.765 5.326-.59 0-.89-.338-.89-1.017 0-1.097 1.144-3.76 3.427-7.988 2.282-4.227 3.423-7.27 3.423-9.132 0-1.69-1.508-2.537-4.52-2.537-.067 0-.132.015-.197.017-.004-.007.007-.018-.012-.017-4.336.215-8.33 2.157-13.403 2.157 6.764-13.527 12.092-23.63 15.98-30.31.337-.592.51-1.1.51-1.523 0-.17-.216-.422-.636-.76-.417-.34-.756-.51-1.007-.51-2.86 4.82-5.3 8.923-7.32 12.303l-5.118 8.88-6.086 11.92c-1.1 0-2.306.09-4.44-.635-.04-.015-.087-.033-.127-.05-1.863-.915-5.554-2.923-7.413-4.61-4.215-3.818-9.603-2.515-11.745-.115-7.004-.948-15.83 4.922-16.673 10.828-.16 1.134-.22 3.777 1.733 4.486 1.984.723 4.332-1.118 8.04-.433.106.03.224.044.322.08 1.68.575 2.16 1.904 1.45 3.982-.485 1.406-1.355 3.79-3.964 6.298-2.368 2.185-4.674 3.617-5.823 3.377-1.35-.424-2.028-1.31-2.028-2.663 0-.675.443-1.54 1.333-2.6.886-1.056 1.33-1.88 1.33-2.472 0-.593-.378-.89-1.14-.89-1.016 0-2.18.593-3.488 1.775-.33.3-.62.616-.87.944-.912.554-1.534.927-1.846 1.104-7.357 4.172-14.198 3.825-17.723 3.32-3.263-.473-4.273-2.02-4.526-5.723 2.537-1.514 5.79-4.334 9.765-8.46 4.99-5.217 7.483-9.257 7.483-12.12 0-1.176-.633-1.768-1.902-1.768-4.143 0-8.52 2.39-13.126 7.165-4.608 4.778-6.912 9.533-6.912 14.27 0 .608.033 1.177.082 1.728-6.95 4.36-13.146 4.62-17.262 4.62-4.397 0-7.295-3.6-8.055-7.49 0-.845.338-1.478 1.015-1.902 10.906-7.356 21.603-18.177 32.086-32.468 11.75-16.063 17.628-29.632 17.628-40.708 0-2.705-1.353-4.06-4.06-4.06-4.99 0-14.54 11.71-28.66 35.13-8.348 13.815-16.624 28.817-24.835 44.946-5.957 3.862-11.37 4.77-14.122 4.77-2.27 0-3.404-1.31-3.404-3.932 0-2.283 1.46-5.836 4.378-10.653 2.916-4.82 4.375-7.272 4.375-7.356 0-.253-.34-.462-1.016-.635-1.268 0-2.2.382-2.788 1.143-1.777 1.775-3.597 4.144-5.455 7.102-2.876 4.564-4.313 8.54-4.313 11.92 0 3.216 1.903 4.82 5.707 4.82 3.484 0 9.318-.845 15.34-4.623-3.412 6.76-6.814 13.698-10.203 20.856-1.422 3.008-2.755 5.865-4.01 8.596-4.366-2.6-9.175-5.546-14.44-8.85-15.39-9.724-26.465-16.274-33.228-19.658 9.382-5.155 18.556-14.204 27.52-27.14 3.38-4.818 10.356-16.486 20.924-35.002 10.147-4.313 18.665-9.278 25.555-14.9 6.892-5.624 10.336-10.55 10.336-14.776 0-2.79-2.325-4.186-6.973-4.186-6.43 0-12.73 3.425-18.898 10.272-4.482 4.99-9.893 13.148-16.234 24.478-10.482 3.806-19.7 5.707-27.645 5.707-5.752 0-9.894-.21-12.432-.634-1.957-.326-2.947-.524-2.99-.6-.7.085-1.066.565-1.066 1.487.506 1.354 4.312 2.028 11.415 2.028 9.554 0 20.08-2.027 31.578-6.086-9.893 17.756-16.32 28.833-19.275 33.228-7.95 11.92-15.94 20.293-23.97 25.11-11.078-5.24-20.293-7.86-27.648-7.86-3.212 0-5.963.55-8.244 1.647-2.705 1.268-4.06 2.917-4.06 4.945 0 2.876 2.92 5.117 8.75 6.722 3.89 1.014 7.483 1.522 10.78 1.522 6.343 0 12.726-1.397 19.15-4.187 15.642 9.976 31.326 19.952 47.05 29.93.69.4 1.375.775 2.06 1.16-7.964 17.683-11.95 28.84-11.95 33.464 0 2.62.93 3.93 2.79 3.93 3.13 0 7.4-3.255 12.81-9.764 4.8-5.72 8.942-12.27 12.443-19.637 13.825 5.896 26.843 8.854 39.05 8.854 5.41 0 10.228-.76 14.456-2.28 6.087-2.284 9.132-5.88 9.132-10.78 0-6.767-6.09-11.754-18.264-14.965-8.032-2.2-16.443-3.3-25.237-3.3-3.845 0-7.712.236-11.604.706.953-4.648 1.456-9.2 1.456-13.64v-5.455c.92 2.792 2.973 4.12 6.154 4.188 1.614.033 6.47.49 12.267-1.693 2.626-.99 4.753-1.853 6.332-2.588.82 4.29 3.473 6.436 7.965 6.436 3.712 0 11.015.398 19.534-4.98-.04.26-.088.522-.088.795 0 3.21 2.143 5.126 5.405 5.264 2.947.107 6.156-1.693 9.1-4.386 3.328-2.783 5.92-5.89 6.78-8.4.852-2.478-.243-4.24-3.282-5.284-1.074-.366-2.392-.517-3.9-.497-.014-.008-.02-.02-.04-.026-4.518.248-6.334-.055-6.19-1.907.106-1.405.727-2.766 2.987-5.316 1.968-2.223 6.237-4.646 9.39-4.487-.06.12-.126.244-.17.37-.777 2.24-.357 3.982-.763 6.786 0 0 .003 0 .004.003-.093.17-.163.332-.188.477-.08.493.198.793.835.896.846.138 1.898-.202 3.15-1.013 1.254-.813 1.987-1.89 2.204-3.228.38-2.362-.766-4.106-2.898-4.866 2.645-2.23 7.318-1.136 9.14.43 1.11.956 2.103 1.743 2.962 2.38h-.002c.343 1.415 1.674 4.8 1.803 8.045.13 3.248-1.935 12.213-3.775 16.536-.507 1.184-.76 2.073-.76 2.664 0 1.1.462 1.648 1.394 1.648.594 0 1.27-.633 2.03-1.902 3.637-6.256 7.733-13.95 12.302-23.08 5.664 0 8.733-1.77 12.45-1.777 1.588 0 2.386.466 2.386 1.388 0 .84-1.29 3.7-3.868 8.575-2.578 4.88-3.868 7.902-3.868 9.08 0 2.018 1.015 3.026 3.045 3.026 2.11 0 7.818-3.552 17.118-10.653.255 0 .382.17.382.51l-7.862 16.486c-27.563 19.105-41.345 37.874-41.345 56.31 0 3.296 1.27 4.945 3.804 4.945 5.41 0 12.094-6.764 20.04-20.292 2.79-4.564 9.892-18.307 21.307-41.216 3.107-1.612 8.935-4.74 15.038-8.708 3.134-2.036 6.348-4.642 8.713-6.79-.024.48-.035.954-.035 1.42 0 3.296.907 6.11 2.727 8.433 1.818 2.326 4.12 3.488 6.913 3.488 3.72 0 10.123-2.223 17.225-7.466.11-.08.184-.145.282-.22.8 4.36 3.456 6.543 7.982 6.543 3.72 0 9.85-2.705 18.39-8.117 3.468-2.197 5.2-3.59 5.2-4.184-.008-.336-.133-.505-.386-.505zm-22.066-9.257c3.04-4.228 5.62-6.34 7.735-6.34.59 0 .888.506.888 1.52 0 2.2-1.903 5.413-5.707 9.64-3.467 3.89-6.005 6.088-7.61 6.596.083-3.38 1.65-7.187 4.694-11.416zm-23.59-18.405c5.408-10.76 11.327-20.19 17.754-28.292 7.357-9.114 13.19-13.67 17.504-13.67.843 0 1.27.97 1.27 2.91 0 7.427-3.64 16.54-10.91 27.343-5.498 8.27-12.387 16.54-20.673 24.81-7.27 7.256-11.54 10.886-12.81 10.886-.168 0-.254-.172-.254-.51 0-4.893 2.707-12.717 8.12-23.477zm-125.81 18.405c3.045-4.228 5.624-6.34 7.738-6.34.59 0 .886.506.886 1.52 0 2.2-1.9 5.413-5.705 9.64-3.468 3.89-6.004 6.088-7.608 6.596.083-3.38 1.648-7.187 4.69-11.416zM571.58 300.6c4.712-5.775 9.175-8.662 13.386-8.662 2.947 0 4.423.807 4.423 2.42 0 4.415-3.118 9.21-9.35 14.393-5.643 4.756-12.927 9.086-21.852 12.99 5.642-10.017 10.104-17.063 13.39-21.14zm-84.665 89.88c-3.217 0-6.258-.51-9.132-1.522-3.552-1.354-5.834-3.214-6.85-5.58.084-3.215 2.582-4.823 7.482-4.823 6.764 0 15.135 2.71 25.11 8.12-5.323 2.537-10.862 3.804-16.61 3.804zm118.628-62.104c9.36-15.245 15.263-22.87 17.71-22.87 1.265 0 1.895.85 1.895 2.54 0 8.05-3.583 18.002-10.75 29.857-5.902 9.74-12.985 19.102-21.25 28.077-7.758 8.216-12.984 12.45-15.685 12.704 10.373-19.903 19.73-36.67 28.08-50.308zm-47.988 115.242c-4.904 6.424-8.584 9.64-11.034 9.64-.59 0-.89-.51-.89-1.522 0-4.758 3.756-15.292 11.246-31.586 3.925 2.135 7.79 4.043 11.59 5.735-3.124 6.473-6.758 12.39-10.91 17.733zm28.788-37.667c10.738 0 20.334 1.565 28.79 4.693 9.554 3.636 14.33 8.242 14.33 13.823 0 3.214-2.155 5.664-6.467 7.356-3.89 1.604-8.92 2.41-15.093 2.41-8.963 0-19.614-3.003-31.96-9.005-1.193-.578-2.484-1.23-3.854-1.944.14-.326.29-.642.43-.972 2.333-5.432 4.08-10.734 5.24-15.908 2.723-.294 5.58-.45 8.583-.45zm-18.896.89c-2.03 0-3.045.465-3.045 1.395.17.508.508.76 1.016.76.59 0 1.184-.17 1.775-.505 2.58-.783 5.34-1.376 8.26-1.796-1.064 4.39-2.533 8.913-4.455 13.59-.28.664-.57 1.313-.858 1.97-3.306-1.772-7.065-3.895-11.276-6.375 4.472-9.51 10.08-20.762 16.826-33.77 1.185 1.27 1.774 4.228 1.774 8.876 0 4.594-.56 9.373-1.672 14.338-.584.083-1.167.154-1.75.248-5.243.843-7.44 1.267-6.595 1.267zm87.222-40.018c-.21.524-1.516 1.18-2.4 1.93-.262-2.5.18-4.257 1.024-5.44 2.05.926 1.914 2.146 1.375 3.51zm14.635 14.665l-1.568 3.213.75-3.565c2.826-10.995-.715-12.952-.015-13.803.697-.85 2.308 1.434 7.024 1.715l-6.19 12.44zm9.804 54.648c-6.908 12.177-12.132 18.264-15.67 18.264-1.432 0-2.148-1.102-2.148-3.3 0-17.332 12.05-34.622 36.146-51.868-7.753 16.654-13.86 28.956-18.33 36.903z"/></g></svg>