<svg xmlns="http://www.w3.org/2000/svg" width="841.89" height="595.28" viewBox="0 0 841.89 595.28"><path fill="#58595B" d="M629.376 40.066c16.688 0 29.367 2.728 37.684 8.107 7.052 4.56 10.076 10.368 12.104 15.447l.012.027.01.027 63.564 153.83 1.277 3.09h22.716v48.848H492.705v-48.847h21.676l1.28-3.082 63.893-153.83.013-.03.013-.03c2.032-5.083 5.062-10.894 12.106-15.45 8.314-5.38 20.996-8.107 37.69-8.107m-8.438 71.106L583.1 213.867l-2.48 6.73h97.51l-2.478-6.73-37.835-102.686c-.058-.178-.12-.372-.183-.577-.902-2.875-2.778-8.857-8.258-8.857-5.45 0-7.266 5.73-8.24 8.81-.07.22-.135.427-.198.616m-63.834-68.407L435.026 269.442H363.4l33.67-59.84 1.376-2.444-1.368-2.448-90.514-161.945h73.567l47.977 97.953 4.474 9.134 4.5-9.12 48.346-97.967h71.678m-267.75 0v48.828h-128.21c-18.053 0-19.548 9.082-19.548 19.2v21.896h114.206c21.355 0 32.272 10.6 35.085 13.82 11.038 12.833 12.314 36.124 12.314 52.526 0 18.975-1.442 40.236-12.143 54.065l-.026.034-.024.034c-2.853 3.818-13.772 16.274-34.52 16.274h-153.17c-8.216 0-15.258-2.72-20.367-7.87-5.008-5.046-7.765-12.246-7.765-20.273V75.626c0-13.43 4.33-22.884 12.867-28.103 6.436-3.934 13.877-4.76 18.987-4.76h182.313M159.483 220.61c.52 0 1.056-.003 1.606-.006.563-.003 1.145-.006 1.743-.006h44.965c4.808 0 14.813 0 20.972-5.724 6.002-5.53 6.002-13.77 6.002-18.196 0-5.763 0-12.292-7.03-17.507-6.435-5.08-15.217-5.08-19.944-5.08h-66.203v25.96c0 17.282 6.287 20.558 17.89 20.558m469.89-185.542c-39.902 0-49.7 14.856-54.44 26.7l-63.89 153.83h-23.34v58.846H771.74v-58.847h-24.37l-63.563-153.83c-4.73-11.842-14.545-26.7-54.43-26.7zm-41.583 180.53l37.867-102.772c.675-2.03 1.698-6.077 3.716-6.077 2.027 0 3.05 4.046 3.717 6.077l37.867 102.772h-83.168zm-22.316-177.83h-83.158l-49.72 100.753L383.25 37.764h-85.208l94.673 169.385-37.863 67.293h83.16L565.477 37.765zm-271.123 0H107.04c-8.448 0-36.855 2.026-36.855 37.86V241.3c0 19.263 13.53 33.143 33.13 33.143h153.168c23.334 0 35.49-14.218 38.527-18.28 11.5-14.862 13.19-36.85 13.19-57.126 0-15.897-1.014-41.24-13.523-55.787-7.09-8.118-20.618-15.56-38.876-15.56H146.596v-16.897c0-8.79.347-14.2 14.548-14.2h133.21V37.766zm-134.87 177.842c-8.59 0-12.888-.806-12.888-15.558v-20.96h61.203c4.387 0 11.83 0 16.904 4.05 5.07 3.725 5.07 8.116 5.07 13.536 0 4.05 0 10.474-4.39 14.52-4.736 4.4-13.197 4.4-17.584 4.4h-44.965c-1.18 0-2.296.012-3.35.012z"/><path fill="#58595B" d="M433.67 296.342v154.3h-72.933V296.677c8.58 10.81 21.83 17.688 36.337 17.688 14.653 0 28.025-7.02 36.596-18.022m5-22.28h-.703c-2.94 19.962-20.1 35.303-40.892 35.303-20.783 0-37.958-15.34-40.894-35.302h-.442v181.58h82.933v-181.58z"/><path fill="#58595B" d="M438.533 455.643h58.74v-181.58h-58.74v181.58zm-160.65-183.666c-15.604 0-37.44 1.8-46.803 30.083l-29.382 88.212c-.518 1.795-3.372 8.296-5.462 8.296-2.068 0-4.934-6.5-5.452-8.296l-29.39-88.212c-9.352-28.284-31.19-30.083-46.53-30.083-9.356 0-44.717 0-44.717 31.91v151.756h59.013l-1.822-110.52c0-1.822-.255-5.95 2.082-5.95 1.31 0 2.607 3.1 3.637 6.48l28.087 87.683c4.155 13.222 9.362 24.37 35.092 24.37 25.743 0 30.943-11.148 35.105-24.37l28.077-87.684c1.548-4.926 2.6-6.48 3.64-6.48 1.042 0 2.346 1.028 2.346 5.95l-2.082 110.52h59.286V303.887c0-11.158-3.384-31.91-44.724-31.91zm448.695 47.212h45.163V274.06h-73.496c-20.555 0-47.08 2.315-63.7 23.59-13.002 16.346-15.87 39.17-15.87 69.508 0 34.776 5.735 52.683 16.655 66.175 14.802 18.413 33.776 22.308 62.138 22.308h74.273v-45.136h-44.13c-19.495 0-36.397 0-44.205-14.28-1.56-3.102-4.392-9.845-4.392-30.094 0-8.807.767-23.613 5.963-32.68 8.072-14.51 22.344-14.264 41.602-14.264zm-167.42 43.323c0-1.562.766-5.456 7.532-13.51l63.18-74.94h-69.682L511.3 342.52c-3.88 5.466-8.31 13.52-8.31 20.24 0 7.774 6.255 16.874 10.675 22.576l55.107 70.307h70.73l-70.73-76.79c-3.89-4.164-9.615-10.382-9.615-16.34z"/><g><path fill="#58595B" d="M69.756 480.973h702.14v79.24H69.757z"/><path fill="#FFF" d="M100.323 515.968l-30.466 1.817v8.665l8.293-.492 2.032 34.215h10.3l-2.066-34.827 12.423-.735-.517-8.642zm185.32-10.99l-3.914 15.392c-1.247 5.16-2.453 11.264-3.347 16.6l-.27.015c-1.333-5.264-3.027-10.866-4.812-16.034l-5.36-14.924-13.693.83-.215 45.643 9.524-.57-.148-17.337c-.06-5.66-.226-12.692-.372-18.842l.13-.01c1.502 5.863 3.374 12.25 5.18 17.56l5.892 17.255 8.04-.466 4.484-18.076c1.443-5.442 2.945-12.035 4.077-17.906l.145-.027c.393 6.62.977 13.214 1.502 18.674l1.78 17.368 9.99-.594-5.126-45.346-13.488.797zm-73.063 4.337l-8.725 18.464c-2.41 5.017-5.09 11.207-7.207 16.682l-.196.005c-.023-6.072-.242-13.323-.678-20.618l-.803-13.493-9.452.553 2.703 45.5 11.668-.697 8.28-16.943c2.424-4.958 5.03-11.126 6.8-16.664l.2-.01c-.248 5.98-.022 12.21.4 19.203l.805 13.427 9.44-.534-2.695-45.506-10.538.628zm-58.53 6.79c-3.19-2.247-7.783-3.206-14.13-2.822-6.268.38-10.703 1.036-13.842 1.767l2.67 44.895 10.185-.612-.973-16.34c.96.15 2.182.164 3.532.073 6.065-.365 11.183-2.224 14.496-5.68 2.616-2.648 3.81-6.58 3.536-11.03-.268-4.458-2.373-8.128-5.473-10.252zm-13.098 19.07c-1.545.083-2.573.083-3.458-.067l-.785-13.446c.725-.232 2.133-.46 4.154-.57 5.193-.307 8.262 2.014 8.5 6.2.277 4.587-2.945 7.546-8.412 7.884zm501.5-13.856l-2.21-37.385-10.264.607 2.2 37.045-15.934.954-2.2-37.054-10.245.604 2.692 45.487 32.197-1.91 1.222 11.447 7.816-.47-.666-19.326h-4.61zm55.654-40.49l1.023 17.14-16.958 1.005-1.022-17.478-10.255.612 2.694 45.48 10.253-.602-1.123-19.03 16.948-.994 1.123 19.016 10.265-.607-2.64-44.542h-10.31zm-133.818 7.625L567 533.92l10.246-.598-2.685-45.506-10.272.64zm180.89-7.624c-5.68 4.517-8.83 11.862-8.317 20.464.786 13.017 9.342 22.737 22.783 21.95 4.903-.31 9.132-1.788 12.49-4.268V480.83H745.18zm14.51 34.197c-6.895.43-11.44-5.602-11.972-14.583-.52-8.84 3.132-15.7 10.154-16.12 7.067-.41 11.34 6.373 11.834 14.604.522 8.84-3.066 15.707-10.016 16.1zm-239.54-23.964l-3.9 15.4c-1.25 5.14-2.446 11.25-3.35 16.577l-.274.014c-1.333-5.25-3.014-10.853-4.813-16.02l-5.34-14.926-13.707.813-.22 45.66 9.516-.55-.147-17.332c-.055-5.69-.2-12.738-.374-18.89l.136-.008c1.507 5.87 3.37 12.268 5.178 17.573l5.908 17.268 8.035-.478 4.465-18.085c1.434-5.415 2.96-12.03 4.082-17.93h.155c.4 6.635.976 13.214 1.515 18.67l1.77 17.372 9.98-.59-5.122-45.35-13.496.813zm-102.062 43.985c-8.232.475-13.83-3.8-14.894-10.428l20.575-1.23-.473-8.034-20.668 1.228c.662-6.127 4.967-11.254 13.145-11.747 3.704-.224 7 .47 9.075 1.287l1.626-7.948c-1.936-.845-5.937-1.954-11.676-1.62-16.34.994-23.682 12.93-22.97 25.083.854 14.303 10.29 22.822 25.21 21.932 5.343-.324 9.582-1.79 11.554-2.926l-2.018-7.652c-2.236 1.072-5.713 1.885-8.484 2.054zm-77.78-33.32l-11.126 46.314 10.602-.635 2.543-11.86 13.026-.773 4.188 11.45 11.136-.643-16.856-44.65-13.512.798zm3.027 26.03l2.132-9.817c.607-2.675 1.05-6.153 1.58-8.89l.132-.013c.836 2.662 1.85 5.99 2.808 8.647l3.42 9.465-10.072.607z"/></g></svg>