<?xml version="1.0" encoding="utf-8"?>
<!-- Generator: Adobe Illustrator 18.0.0, SVG Export Plug-In . SVG Version: 6.00 Build 0)  -->
<!DOCTYPE svg PUBLIC "-//W3C//DTD SVG 1.1//EN" "http://www.w3.org/Graphics/SVG/1.1/DTD/svg11.dtd">
<svg version="1.1" id="Layer_1" xmlns="http://www.w3.org/2000/svg" xmlns:xlink="http://www.w3.org/1999/xlink" x="0px" y="0px"
	 viewBox="0 0 1027.4 275" enable-background="new 0 0 1027.4 275" xml:space="preserve">
<g>
	<g>
		<path fill="#4D6E32" d="M318.8,236.5l5.3,18c1,3.7,2,6.8,2.7,9.9h0.1c0.8-2.9,1.9-6.3,3.2-9.9l6.3-18h3l6.1,17.8
			c1.3,3.9,2.3,7.1,3.1,10.1h0.1c0.7-3,1.6-6.1,2.9-9.9l5.6-17.9h3.2L350,268.1h-2.7l-6-17.7c-1.3-3.8-2.4-7.2-3.3-10.7h-0.1
			c-0.9,3.7-2.1,7.2-3.4,10.9l-6.3,17.5h-2.8l-9.8-31.6H318.8z"/>
		<path fill="#4D6E32" d="M367,236.5l5.4,18c1,3.7,2,6.8,2.7,9.9h0.1c0.8-2.9,1.9-6.3,3.2-9.9l6.3-18h3l6.1,17.8
			c1.3,3.9,2.3,7.1,3.1,10.1h0.1c0.7-3,1.6-6.1,2.9-9.9l5.6-17.9h3.2l-10.5,31.6h-2.7l-6-17.7c-1.3-3.8-2.4-7.2-3.3-10.7H386
			c-0.9,3.7-2.1,7.2-3.4,10.9l-6.3,17.5h-2.8l-9.8-31.6H367z"/>
		<path fill="#4D6E32" d="M415.1,236.5l5.3,18c1.1,3.7,2,6.8,2.7,9.9h0.1c0.8-2.9,1.9-6.3,3.2-9.9l6.3-18h3l6.1,17.8
			c1.3,3.9,2.3,7.1,3.1,10.1h0.1c0.7-3,1.6-6.1,2.9-9.9l5.6-17.9h3.2l-10.6,31.6h-2.7l-6-17.7c-1.3-3.8-2.4-7.2-3.3-10.7h-0.1
			c-0.9,3.7-2.1,7.2-3.4,10.9l-6.3,17.5h-2.8l-9.8-31.6H415.1z"/>
		<path fill="#4D6E32" d="M461.9,268.8c-1.5,0-2.6-1.4-2.6-3c0-1.7,1.1-3,2.7-3c1.6,0,2.6,1.2,2.6,3
			C464.7,267.4,463.6,268.8,461.9,268.8L461.9,268.8z"/>
		<path fill="#4D6E32" d="M472.6,244c0-2.9-0.1-5.1-0.3-7.6h3l0.2,5.5h0.1c2-3.6,5.1-6.3,10.3-6.3c4.3,0,7.7,2.9,9.1,6.9h0.1
			c0.9-1.8,2.1-3.3,3.2-4.3c2.1-1.6,4.2-2.6,7.5-2.6c3.1,0,10.3,1.7,10.3,13.7v18.7h-3.2v-18.4c0-7.1-2.8-11.3-8.2-11.3
			c-4,0-7.1,3-8.3,6.3c-0.3,0.9-0.5,2-0.5,3.2v20.3h-3.2v-19.8c0-5.7-2.7-9.9-7.8-9.9c-4.2,0-7.6,3.4-8.8,7.1
			c-0.3,0.9-0.5,2-0.5,3.1v19.5h-3.2V244z"/>
		<path fill="#4D6E32" d="M528.1,230.1c-1.5,0-2.4-1.3-2.4-2.7c0-1.5,1.1-2.8,2.6-2.8c1.4,0,2.5,1.2,2.5,2.8
			C530.7,228.9,529.7,230.1,528.1,230.1L528.1,230.1z M526.6,268.1v-31.6h3.2v31.6H526.6z"/>
		<path fill="#4D6E32" d="M540.4,221.2h3.2v46.9h-3.2V221.2z"/>
		<path fill="#4D6E32" d="M554.4,221.2h3.2v46.9h-3.2V221.2z"/>
		<path fill="#4D6E32" d="M567.8,236.5l5.3,18c1,3.7,2,6.8,2.7,9.9h0.1c0.8-2.9,1.9-6.3,3.2-9.9l6.3-18h3l6,17.8
			c1.3,3.9,2.3,7.1,3.1,10.1h0.1c0.7-3,1.6-6.1,2.9-9.9l5.6-17.9h3.2l-10.5,31.6h-2.7l-6-17.7c-1.3-3.8-2.5-7.2-3.3-10.7h-0.1
			c-0.9,3.7-2.1,7.2-3.4,10.9l-6.2,17.5h-2.8l-9.8-31.6H567.8z"/>
		<path fill="#4D6E32" d="M627.4,268.8c-8.2,0-14.5-6.4-14.5-16.3c0-10.8,7.1-16.8,15-16.8c8.8,0,14.7,6.6,14.7,16.3
			C642.6,263.7,634.4,268.8,627.4,268.8L627.4,268.8z M627.6,266.2c6.6,0,11.8-5.9,11.8-14c0-5.8-3.2-13.8-11.6-13.8
			c-8.1,0-11.7,7.2-11.7,14C616.1,260.3,621.1,266.2,627.6,266.2L627.6,266.2z"/>
		<path fill="#4D6E32" d="M662.5,268.8c-8.2,0-14.5-6.4-14.5-16.3c0-10.8,7.1-16.8,15-16.8c8.8,0,14.7,6.6,14.7,16.3
			C677.7,263.7,669.5,268.8,662.5,268.8L662.5,268.8z M662.7,266.2c6.6,0,11.8-5.9,11.8-14c0-5.8-3.2-13.8-11.6-13.8
			c-8.1,0-11.7,7.2-11.7,14C651.1,260.3,656.2,266.2,662.7,266.2L662.7,266.2z"/>
		<path fill="#4D6E32" d="M711,221.2v39.6c0,2.3,0.1,5.1,0.3,7.3h-2.8l-0.3-6H708c-1.7,3.5-5.4,6.7-11.3,6.7
			c-7.8,0-13.6-6.5-13.6-16c-0.1-10.5,6.5-17.1,14.2-17.1c5.5,0,9,2.8,10.3,5.6h0.1v-20.1H711z M707.8,249c0-0.9-0.1-2-0.3-2.9
			c-1.1-4.2-4.8-7.7-10-7.7c-6.9,0-11.3,6-11.3,14.2c0,7.1,3.6,13.6,11.1,13.6c4.6,0,8.8-3,10.2-8.2c0.3-0.8,0.3-1.6,0.3-2.6V249z"
			/>
		<path fill="#4D6E32" d="M721.7,268.8c-1.5,0-2.6-1.4-2.6-3c0-1.7,1.1-3,2.7-3s2.6,1.2,2.6,3C724.4,267.4,723.4,268.8,721.7,268.8
			L721.7,268.8z"/>
		<path fill="#4D6E32" d="M754.2,266.7c-1.4,0.7-4.7,2-9.3,2c-9.1,0-15.2-6.7-15.2-16.1c0-10.1,6.8-16.9,16.3-16.9
			c3.9,0,7.1,1.1,8.3,2l-1.1,2.6c-1.5-0.9-4-1.8-7.4-1.8c-8.5,0-12.9,6.5-12.9,13.9c0,8.3,5.2,13.7,12.5,13.7c3.7,0,6.2-1.1,7.9-1.8
			L754.2,266.7z"/>
		<path fill="#4D6E32" d="M773.6,268.8c-8.2,0-14.5-6.4-14.5-16.3c0-10.8,7.1-16.8,15-16.8c8.8,0,14.7,6.6,14.7,16.3
			C788.8,263.7,780.7,268.8,773.6,268.8L773.6,268.8z M773.8,266.2c6.6,0,11.8-5.9,11.8-14c0-5.8-3.2-13.8-11.6-13.8
			c-8.1,0-11.7,7.2-11.7,14C762.3,260.3,767.3,266.2,773.8,266.2L773.8,266.2z"/>
		<path fill="#4D6E32" d="M796.9,244c0-2.9-0.1-5.1-0.3-7.6h3l0.2,5.5h0.1c2-3.6,5.1-6.3,10.3-6.3c4.4,0,7.7,2.9,9.1,6.9h0.1
			c0.9-1.8,2-3.3,3.2-4.3c2.1-1.6,4.2-2.6,7.5-2.6c3.1,0,10.3,1.7,10.3,13.7v18.7h-3.2v-18.4c0-7.1-2.8-11.3-8.2-11.3
			c-4,0-7,3-8.3,6.3c-0.3,0.9-0.5,2-0.5,3.2v20.3h-3.2v-19.8c0-5.7-2.7-9.9-7.9-9.9c-4.2,0-7.6,3.4-8.8,7.1c-0.3,0.9-0.5,2-0.5,3.1
			v19.5h-3.2V244z"/>
		<path fill="#4D6E32" d="M851.7,268.8c-1.5,0-2.6-1.4-2.6-3c0-1.7,1.1-3,2.7-3c1.6,0,2.6,1.2,2.6,3
			C854.4,267.4,853.4,268.8,851.7,268.8L851.7,268.8z"/>
		<path fill="#4D6E32" d="M886.7,260.4c0,2.8,0.1,5.3,0.3,7.7h-3l-0.2-5.7h-0.1c-1.6,3-5.2,6.4-10.8,6.4c-4,0-10.8-2-10.8-14v-18.4
			h3.2v17.8c0,6.9,2.1,11.8,8.3,11.8c4.6,0,8-3.2,9.4-6.4c0.3-1,0.6-2.2,0.6-3.5v-19.7h3.2V260.4z"/>
		<path fill="#4D6E32" d="M917.1,260.6c0,2.5,0.1,5.1,0.5,7.5h-2.9l-0.5-4.5H914c-1.6,2.4-5.1,5.3-10.2,5.3c-6.4,0-9.3-4.5-9.3-8.7
			c0-7.3,6.4-11.7,19.3-11.6v-0.8c0-3.1-0.6-9.4-8.1-9.3c-2.8,0-5.7,0.7-8,2.4l-1-2.3c2.9-1.9,6.5-2.7,9.3-2.7
			c9.2,0,10.9,6.9,10.9,12.5V260.6z M913.9,251.2c-6.9-0.2-16,0.9-16,8.4c0,4.6,3,6.6,6.3,6.6c5.3,0,8.3-3.2,9.4-6.3
			c0.3-0.7,0.3-1.4,0.3-1.9V251.2z"/>
	</g>
	<path fill="#4D6E32" d="M163.5,200.3l-88.6-88.6c-24.5,24.5-24.5,64.2,0,88.6C99.3,224.8,139,224.8,163.5,200.3z"/>
	<polygon fill="#4D6E32" points="208.3,171.7 205.7,69.5 103.4,66.8 	"/>
	<g>
		<path fill="#7A8079" d="M205.4,195.1L80,69.7c-3.8,3.2-7.3,6.7-10.5,10.5L195,205.6C198.7,202.4,202.2,198.9,205.4,195.1z"/>
	</g>
	<g>
		<path fill="#7A8079" d="M359.2,82l11.4,45.5L382.5,82h42.5v19.7c-1.6,1-2.6,2.2-3,3.6c-0.5,1.5-0.7,3.2-0.7,5.3v1.9v49.9
			c0,3.2,0.2,5.5,0.5,6.9c0.3,1.4,1.4,2.8,3.3,4v19.7h-40.6v-19.7c1.6-0.9,2.6-2.2,3.1-3.6c0.5-1.5,0.7-3.3,0.7-5.3v-2v-29.8
			l-15.3,60.4H362l-15.8-60.4l-0.3,29.8c0,3.2,0.1,5.5,0.5,6.9c0.3,1.4,1.4,2.8,3.3,4v19.7h-34.2v-19.7c1.6-0.9,2.6-2.2,3-3.6
			c0.5-1.5,0.7-3.3,0.7-5.3v-2v-49.9v-1.6c0-2.3-0.2-4.2-0.6-5.6c-0.4-1.4-1.5-2.7-3.1-3.7V82H359.2z"/>
		<path fill="#7A8079" d="M476.1,111.5v52.7c0,3.2,0.1,5.2,0.3,6c0.5,2.1,1.7,3.7,3.6,4.8v18.3h-38.3v-18.3c1.8-1.1,2.9-2.4,3.2-3.8
			c0.3-1.4,0.5-3.6,0.5-6.4v-24.1V139c0-2.3-0.2-4.2-0.6-5.6c-0.4-1.4-1.5-2.6-3.1-3.6v-18.3H476.1z M459.9,106.5
			c-4.6,0-8.4-1-11.4-3c-3.6-2.4-5.4-5.8-5.4-10.1c0-4.1,1.7-7.1,5.1-9.3c3.4-2.1,7.2-3.2,11.5-3.2c4.3,0,8,1,11.2,3.1
			c3.5,2.4,5.3,5.7,5.3,9.9c0,4-1.7,7.1-5.2,9.5C467.8,105.5,464.1,106.5,459.9,106.5z"/>
		<path fill="#7A8079" d="M528.8,82v82.1c0,3.2,0.2,5.6,0.5,7.1c0.3,1.5,1.4,2.7,3.3,3.7v18.3h-38.1v-18.3c1.8-1.1,2.9-2.4,3.2-3.8
			c0.3-1.4,0.5-3.6,0.5-6.4v-53.6v-1.6c0-2.3-0.2-4.2-0.6-5.6c-0.4-1.4-1.5-2.6-3.1-3.6V82H528.8z"/>
		<path fill="#7A8079" d="M581.3,82v82.1c0,3.2,0.2,5.6,0.5,7.1c0.3,1.5,1.4,2.7,3.3,3.7v18.3H547v-18.3c1.8-1.1,2.9-2.4,3.2-3.8
			c0.3-1.4,0.5-3.6,0.5-6.4v-53.6v-1.6c0-2.3-0.2-4.2-0.6-5.6c-0.5-1.4-1.5-2.6-3.1-3.6V82H581.3z"/>
	</g>
	<path fill="#4D6E32" d="M687.1,101.8V82h37.5v19.7c-1.7,1.3-2.9,3.2-3.6,5.8c-0.4,1.1-0.9,3.5-1.6,7l-14.7,78.6h-33.3l-9.7-53.1
		l-11,53.1h-32.7l-14.7-78.6c-0.7-3.5-1.2-5.8-1.7-7c-0.9-2.6-2.3-4.5-4-5.8V82h43.3v19.7c-2.4,1-3.7,3-3.7,6l4.3,35L653.5,82h21.3
		l12.2,60.6l3.8-34.9C690.7,104.8,689.5,102.8,687.1,101.8z"/>
	<path fill="#4D6E32" d="M823.1,114.3v46.8c0,13-3.8,22.1-11.4,27.5c-6.5,4.6-16.5,6.9-30,6.9c-13.4,0-23.3-2.3-29.8-6.9
		c-7.7-5.4-11.6-14.6-11.6-27.5v-46.8c0-13,3.8-22.1,11.4-27.5c6.5-4.6,16.5-6.9,29.9-6.9c13.4,0,23.4,2.3,29.8,6.9
		C819.2,92.3,823.1,101.4,823.1,114.3z M775,112.5v50.2c0,1.9,0.2,3.4,0.6,4.5c1.1,2.8,3.1,4.1,6.1,4.1c2.3,0,4.1-0.8,5.1-2.4
		c1.1-1.6,1.6-3.7,1.6-6.3v-50.2c0-1.9-0.2-3.4-0.6-4.5c-1-2.7-3.1-4-6.1-4c-2.3,0-4,0.8-5.1,2.3C775.5,107.8,775,109.9,775,112.5z"
		/>
	<path fill="#4D6E32" d="M923.8,114.3v46.8c0,13-3.8,22.1-11.4,27.5c-6.5,4.6-16.5,6.9-29.9,6.9c-13.4,0-23.4-2.3-29.8-6.9
		c-7.7-5.4-11.5-14.6-11.5-27.5v-46.8c0-13,3.8-22.1,11.4-27.5C859,82.2,869,80,882.5,80c13.4,0,23.3,2.3,29.8,6.9
		C920,92.3,923.8,101.4,923.8,114.3z M875.7,112.5v50.2c0,1.9,0.2,3.4,0.7,4.5c1,2.8,3.1,4.1,6.1,4.1c2.3,0,4-0.8,5.1-2.4
		c1.1-1.6,1.6-3.7,1.6-6.3v-50.2c0-1.9-0.2-3.4-0.6-4.5c-1-2.7-3.1-4-6.1-4c-2.3,0-4,0.8-5.1,2.3
		C876.3,107.8,875.7,109.9,875.7,112.5z"/>
	<path fill="#4D6E32" d="M941.2,82h48c6.5,0,11.4,0.3,14.6,0.8c5.5,0.9,10.1,2.7,13.6,5.4c4.2,3.3,7,7.5,8.4,12.6
		c1,3.6,1.6,8.7,1.6,15.3v41.7c0,6.5-0.4,11.4-1.3,14.7c-1.2,4.8-3.7,8.9-7.6,12.6c-2.8,2.6-6.2,4.6-10.2,6
		c-4,1.4-10.1,2.1-18.1,2.1h-49v-19.7c1.7-0.8,2.9-1.9,3.5-3.4c0.6-1.5,0.9-3.3,0.9-5.5v-54.1c0-2.3-0.3-4.2-0.8-5.6
		c-0.5-1.4-1.7-2.5-3.6-3.2V82z M980.2,106.3v63.4h2.7c3.8,0,6.4-0.8,7.8-2.3c1.4-1.6,2.1-4.4,2.1-8.4v-41.9c0-4.1-0.7-6.9-2.1-8.4
		c-1.4-1.6-4-2.3-7.8-2.3H980.2z"/>
	<g>
		<path fill="#4D6E32" d="M227.1,78l5.3-19.7l5.8-21.5l-21.5,5.8L197,47.9C208.9,55.8,219.2,66.1,227.1,78z"/>
		<path fill="#4D6E32" d="M253.5,94.9l-19.7-5.3c6.2,12.5,10.1,26.5,11,41.2l14.4-14.4l15.7-15.7L253.5,94.9z"/>
		<path fill="#4D6E32" d="M259.3,158.6l-14.4-14.4c-0.9,14.7-4.8,28.6-11,41.2l19.7-5.3l21.5-5.8L259.3,158.6z"/>
		<path fill="#4D6E32" d="M227.1,197c-7.9,11.9-18.2,22.2-30.1,30.1l19.7,5.3l21.5,5.8l-5.8-21.5L227.1,197z"/>
		<path fill="#4D6E32" d="M144.2,244.9l14.4,14.4l15.7,15.7l5.8-21.5l5.3-19.7C172.8,240.1,158.9,243.9,144.2,244.9z"/>
		<path fill="#4D6E32" d="M89.6,233.9l5.3,19.6l5.7,21.5l15.7-15.7l14.4-14.4C116.1,244,102.2,240.1,89.6,233.9z"/>
		<path fill="#4D6E32" d="M47.9,197l-5.3,19.7l-5.8,21.5l21.5-5.8l19.7-5.3C66.1,219.2,55.8,208.9,47.9,197z"/>
		<path fill="#4D6E32" d="M30.1,144.2l-14.4,14.4L0,174.4l21.5,5.7l19.7,5.3C34.9,172.8,31,158.9,30.1,144.2z"/>
		<path fill="#4D6E32" d="M41.1,89.6l-19.7,5.3L0,100.7l15.7,15.7l14.4,14.4C31,116.1,34.9,102.2,41.1,89.6z"/>
		<path fill="#4D6E32" d="M47.9,78C55.8,66.1,66.1,55.8,78,47.9l-19.7-5.3l-21.5-5.8l5.8,21.5L47.9,78z"/>
		<path fill="#4D6E32" d="M130.8,30.1l-14.4-14.4L100.6,0l-5.7,21.5l-5.3,19.7C102.1,34.9,116.1,31.1,130.8,30.1z"/>
		<path fill="#4D6E32" d="M185.3,41.1l-5.2-19.7L174.3,0l-15.7,15.7l-14.4,14.4C158.9,31,172.8,34.9,185.3,41.1z"/>
	</g>
	<g>
		<g>
			<polygon fill="#7A8079" points="150.3,11.9 137.5,28.8 124.7,11.9 			"/>
			<polygon fill="#7A8079" points="124.7,263.1 137.5,246.2 150.3,263.1 			"/>
		</g>
		<g>
			<polygon fill="#7A8079" points="85.8,22.3 83.2,43.4 63.6,35.1 			"/>
			<polygon fill="#7A8079" points="189.2,252.7 191.8,231.6 211.4,239.9 			"/>
		</g>
		<g>
			<polygon fill="#7A8079" points="35.1,63.6 43.4,83.2 22.3,85.8 			"/>
			<polygon fill="#7A8079" points="239.9,211.4 231.6,191.8 252.7,189.2 			"/>
		</g>
		<g>
			<polygon fill="#7A8079" points="11.9,124.7 28.8,137.5 11.9,150.3 			"/>
			<polygon fill="#7A8079" points="263.1,150.3 246.2,137.5 263.1,124.7 			"/>
		</g>
		<g>
			<polygon fill="#7A8079" points="22.3,189.2 43.4,191.8 35.1,211.4 			"/>
			<polygon fill="#7A8079" points="252.7,85.8 231.6,83.2 239.9,63.6 			"/>
		</g>
		<g>
			<polygon fill="#7A8079" points="63.6,239.9 83.2,231.6 85.8,252.7 			"/>
			<polygon fill="#7A8079" points="211.4,35.1 191.8,43.4 189.2,22.3 			"/>
		</g>
	</g>
</g>
</svg>
