<?xml version="1.0" encoding="utf-8"?>
<!-- Generator: Adobe Illustrator 18.0.0, SVG Export Plug-In . SVG Version: 6.00 Build 0)  -->
<!DOCTYPE svg PUBLIC "-//W3C//DTD SVG 1.1//EN" "http://www.w3.org/Graphics/SVG/1.1/DTD/svg11.dtd">
<svg version="1.1" id="svg-products" xmlns="http://www.w3.org/2000/svg" xmlns:xlink="http://www.w3.org/1999/xlink" x="0px" y="0px"
	 viewBox="0 0 826 824" enable-background="new 0 0 826 824" xml:space="preserve">
<g stroke="#4c6e32">
	<path fill="none" stroke-width="20" stroke-miterlimit="10" d="M796.6,287.9L287.9,796.6
		c-20.5,20.5-53.9,20.5-74.4,0L27.4,610.5c-20.5-20.5-20.5-53.9,0-74.4L536.1,27.4c20.5-20.5,53.9-20.5,74.4,0l186.1,186.1
		C817.1,234,817.1,267.4,796.6,287.9z"/>
	<path fill="none" stroke-width="15" stroke-miterlimit="10" d="M121.2,706.3c15.6-144,78.1-282.6,188.4-392.9
		C421.2,201.8,562.8,138.8,708.3,124"/>
	<path fill="none" stroke-width="15" stroke-miterlimit="10" d="M204.8,786.7c-2.1-148.6,53.6-297.9,166.9-411.3
		C488.2,258.9,640.9,204,793.6,209.4"/>
	<path fill="none" stroke-width="15" stroke-miterlimit="10" d="M292.6,793.2c-3.9-128.3,43.2-257.9,141.1-355.7
		c98.5-98.5,226.8-144.9,355.9-140.4"/>
	<path fill="none" stroke-width="15" stroke-miterlimit="10" d="M388.1,697.5c15-73.2,50.9-141.2,107.7-198.1
		c55.7-55.7,124.1-91.4,195.9-106.8"/>
	<path fill="none" stroke-width="15" stroke-miterlimit="10" d="M458.5,105c57.8-27.1,113.4-45.3,175.2-56.8"/>
	<path fill="none" stroke-width="15" stroke-linecap="round" stroke-miterlimit="10" d="M44,625.8
		c11-52.4,31.2-110,53.6-159.4"/>
</g>
</svg>
