<?xml version="1.0" encoding="utf-8"?>
<!-- Generator: Adobe Illustrator 18.0.0, SVG Export Plug-In . SVG Version: 6.00 Build 0)  -->
<!DOCTYPE svg PUBLIC "-//W3C//DTD SVG 1.1//EN" "http://www.w3.org/Graphics/SVG/1.1/DTD/svg11.dtd">
<svg version="1.1" id="svg-about-us" xmlns="http://www.w3.org/2000/svg" xmlns:xlink="http://www.w3.org/1999/xlink" x="0px" y="0px"
	 viewBox="0 0 768 1024" enable-background="new 0 0 768 1024" xml:space="preserve">
<g stroke="#4c6e32">
	<path fill="none" stroke-width="20" stroke-linecap="round" stroke-linejoin="round" stroke-miterlimit="10" d="M382.1,127c-3,0-6,1.7-9.3,5.2c-61,63.9-122.2,127.6-183,191.8c-2.9,3-4.5,9.4-3.3,13
		c1.1,2.8,7.2,5.5,11.3,5.7c10.1,0.3,20.3,0.4,30.4,0.4c10.2,0,20.3-0.1,30.5-0.1c12.6,0,25.4,0,39.3,0c-2.1,2.8-3.2,4.6-4.5,6.3
		c-47.4,58.5-94.7,117.1-142.1,175.6c-3.4,4.3-7.5,8.5-4.2,14.8c3.2,6,8.7,6,14.4,6c25.5,0,51.1,0,76.6,0c2.9,0,5.7,0.3,9.6,0.4
		c-2.6,3.4-4.1,5.7-5.7,7.9c-44.5,59.1-89.1,117.9-133.3,177.1c-2.7,3.7-4.5,9.7-3.6,14.1c1.2,5.9,7,6.2,12.3,6.2c0.5,0,1,0,1.5,0
		c62.7-0.1,125.6-0.1,188.4-0.1h10.4v12c0,38.7,0,77.2,0,115.9c0,12.3,3.1,15.6,15,15.6c33.3,0,66.8,0,100,0
		c12.6,0,15.6-3,15.6-15.7c0-38.7,0-77.2,0-115.9v-11.7h10.8c31.1,0,62.3,0,93.4,0s62.3,0,93.4-0.2c4.5-0.1,10.2-1.9,13-4.9
		c5-5.4,0.5-10.6-3.2-15.4c-44.4-58.6-88.8-117.4-133-176.2c-2-2.4-3.6-5.1-6.3-8.8h17.8c11.9,0,23.9,0.1,35.8,0.1
		c12,0,23.9-0.1,35.9-0.4c4.2-0.2,9.6-3.3,11.9-6.7c1.5-2.4-0.6-8.5-3-11.5c-47.9-59.5-96-118.9-144-178.3c-1.2-1.5-2.1-3.4-3.6-5.8
		h8.7c15.5,0,30.9,0.1,46.3,0.1c15.4,0,30.8-0.1,46.3-0.4c3.8-0.1,9.2-3.4,10.7-6.7c1.2-2.8-1.4-7.9-3.3-11.5c-1.8-3-5-5.2-7.5-7.8
		c-58.7-61.3-117.2-122.5-175.8-183.7C388.7,129,385.4,127,382.1,127L382.1,127z"/>
	<line stroke-width="20" stroke-linecap="round" stroke-linejoin="round" stroke-miterlimit="10" x1="266" y1="611" x2="193" y2="703"/>
	<line stroke-width="20" stroke-linecap="round" stroke-linejoin="round" stroke-miterlimit="10" x1="449" y1="406" x2="511" y2="487"/>
	<line stroke-width="20" stroke-linecap="round" stroke-linejoin="round" stroke-miterlimit="10" x1="401" y1="770" x2="401" y2="834"/>
</g>
</svg>
