<?xml version="1.0" encoding="utf-8"?>
<!-- Generator: Adobe Illustrator 18.0.0, SVG Export Plug-In . SVG Version: 6.00 Build 0)  -->
<!DOCTYPE svg PUBLIC "-//W3C//DTD SVG 1.1//EN" "http://www.w3.org/Graphics/SVG/1.1/DTD/svg11.dtd">
<svg version="1.1" id="svg-home" xmlns="http://www.w3.org/2000/svg" xmlns:xlink="http://www.w3.org/1999/xlink" x="0px" y="0px"
	 viewBox="0 1024 768 630" enable-background="new 0 1024 768 630" xml:space="preserve">
<g>
	<path fill="none" stroke="#4c6e32" stroke-width="20" stroke-linecap="round" stroke-linejoin="round" stroke-miterlimit="10" d="M725.4,1279.9c-2.4,0-5.4,0.6-8.4,1.2
		c-21,4.2-34.2,22.8-33.6,47.4c0,25.2,1.2,51,1.8,75.6l0.6,18c0.6,17.4-2.4,22.2-18.6,29.4c-27,12-54,24-81,36
		c8.4-12.6,17.4-25.8,25.8-39l1.8-3c7.2-12,15-24,21-36.6c4.8-9.6,1.8-16.2,0-19.2c-3.1-5.1-9.2-8.1-16.5-8.1
		c-1.3,0-2.5,0.1-3.9,0.3c-5.4,1.2-16.8,3.6-25.8,10.2c-53.4,40.8-94.8,72-132.6,102.6c-9,6.6-13.2,18.6-15.6,27.6s-3,18-3.6,26.4
		c-0.6,3.6-0.6,6.6-1.2,10.2c-1.8,17.4-3.6,34.8-5.4,52.8l-2.4,21.6c0,2.4,0.6,4.8,2.4,6.6c1.8,1.8,4.2,3,6.6,3h90
		c22.8,0,45.6,0,68.4,0c10.2,0,18-3.6,25.2-10.8c46.8-48,88.8-91.2,132.6-135c11.4-12,16.2-24.6,13.8-41.4
		c-4.8-38.4-9.6-78-13.8-116.4l-4.2-36C746.4,1282.9,733.2,1279.9,725.4,1279.9L725.4,1279.9z"/>
</g>
<g>
	<path fill="none" stroke="#4c6e32" stroke-width="20" stroke-linecap="round" stroke-linejoin="round" stroke-miterlimit="10" d="M48.6,1279.9c-7.8,0-21,3-23.4,23.4l-4.2,36
		c-4.2,38.4-9,78-13.8,116.4c-2.4,16.8,2.4,29.4,13.8,41.4c43.8,43.8,85.8,87,132.6,135c7.2,7.2,15,10.8,25.2,10.8
		c22.8,0,45.6,0,68.4,0h90c2.4,0,4.8-1.2,6.6-3c1.8-1.8,2.4-4.2,2.4-6.6l-2.4-21.6c-1.8-18-3.6-35.4-5.4-52.8
		c-0.6-3.6-0.6-6.6-1.2-10.2c-0.6-8.4-1.2-17.4-3.6-26.4s-6.6-21-15.6-27.6c-37.8-30.6-79.2-61.8-132.6-102.6
		c-9-6.6-20.4-9-25.8-10.2c-1.3-0.2-2.6-0.3-3.9-0.3c-7.3,0-13.5,2.9-16.5,8.1c-1.8,3-4.8,9.6,0,19.2c6,12.6,13.8,24.6,21,36.6
		l1.8,3c8.4,13.2,17.4,26.4,25.8,39c-27-12-54-24-81-36c-16.2-7.2-19.2-12-18.6-29.4l0.6-18c0.6-24.6,1.8-50.4,1.8-75.6
		c0.6-24.6-12.6-43.2-33.6-47.4C54,1280.5,51,1279.9,48.6,1279.9L48.6,1279.9z"/>
</g>
<line fill="none" stroke="#4c6e32" stroke-width="20" stroke-linecap="round" stroke-miterlimit="10" x1="386.6" y1="1054.5" x2="386.6" y2="1521.5"/>
<line fill="none" stroke="#4c6e32" stroke-width="20" stroke-linecap="round" stroke-miterlimit="10" x1="183.7" y1="1221" x2="386.1" y2="1426.7"/>
<line fill="none" stroke="#4c6e32" stroke-width="20" stroke-linecap="round" stroke-miterlimit="10" x1="589.5" y1="1256" x2="387.1" y2="1461.7"/>
<line fill="none" stroke="#4c6e32" stroke-width="20" stroke-linecap="round" stroke-miterlimit="10" x1="414" y1="1480.8" x2="387.1" y2="1513.7"/>
<line fill="none" stroke="#4c6e32" stroke-width="20" stroke-linecap="round" stroke-miterlimit="10" x1="406.4" y1="1373.3" x2="387.1" y2="1398.7"/>
<line fill="none" stroke="#4c6e32" stroke-width="20" stroke-linecap="round" stroke-miterlimit="10" x1="358.2" y1="1450.8" x2="385.1" y2="1483.7"/>
<line fill="none" stroke="#4c6e32" stroke-width="20" stroke-linecap="round" stroke-miterlimit="10" x1="324.1" y1="1293.1" x2="386.1" y2="1361.7"/>
<line fill="none" stroke="#4c6e32" stroke-width="20" stroke-linecap="round" stroke-miterlimit="10" x1="330.5" y1="1243.6" x2="386.1" y2="1305.7"/>
<line fill="none" stroke="#4c6e32" stroke-width="20" stroke-linecap="round" stroke-miterlimit="10" x1="338.9" y1="1186.2" x2="386.1" y2="1239.7"/>
<line fill="none" stroke="#4c6e32" stroke-width="20" stroke-linecap="round" stroke-miterlimit="10" x1="335" y1="1116.2" x2="386.1" y2="1173.7"/>
<line fill="none" stroke="#4c6e32" stroke-width="20" stroke-linecap="round" stroke-miterlimit="10" x1="356.8" y1="1072.3" x2="386.1" y2="1107.7"/>
<line fill="none" stroke="#4c6e32" stroke-width="20" stroke-linecap="round" stroke-miterlimit="10" x1="449.1" y1="1263.1" x2="387.1" y2="1331.7"/>
<line fill="none" stroke="#4c6e32" stroke-width="20" stroke-linecap="round" stroke-miterlimit="10" x1="497.4" y1="1411.4" x2="422.5" y2="1425.1"/>
<line fill="none" stroke="#4c6e32" stroke-width="20" stroke-linecap="round" stroke-miterlimit="10" x1="435.1" y1="1411.3" x2="432.8" y2="1335.2"/>
<line fill="none" stroke="#4c6e32" stroke-width="20" stroke-linecap="round" stroke-miterlimit="10" x1="480.1" y1="1364.3" x2="477.4" y2="1298.4"/>
<line fill="none" stroke="#4c6e32" stroke-width="20" stroke-linecap="round" stroke-miterlimit="10" x1="525.1" y1="1316.3" x2="521.9" y2="1262.4"/>
<line fill="none" stroke="#4c6e32" stroke-width="20" stroke-linecap="round" stroke-miterlimit="10" x1="569.6" y1="1275.4" x2="569.4" y2="1248.4"/>
<line fill="none" stroke="#4c6e32" stroke-width="20" stroke-linecap="round" stroke-miterlimit="10" x1="543.4" y1="1368.4" x2="468.5" y2="1382.1"/>
<line fill="none" stroke="#4c6e32" stroke-width="20" stroke-linecap="round" stroke-miterlimit="10" x1="562.3" y1="1327" x2="510.5" y2="1338.1"/>
<line fill="none" stroke="#4c6e32" stroke-width="20" stroke-linecap="round" stroke-miterlimit="10" x1="606.5" y1="1283.6" x2="551.5" y2="1295.1"/>
<line fill="none" stroke="#4c6e32" stroke-width="20" stroke-linecap="round" stroke-miterlimit="10" x1="329.4" y1="1337.3" x2="332.8" y2="1372.9"/>
<line fill="none" stroke="#4c6e32" stroke-width="20" stroke-linecap="round" stroke-miterlimit="10" x1="274.2" y1="1261.3" x2="279.8" y2="1316.9"/>
<line fill="none" stroke="#4c6e32" stroke-width="20" stroke-linecap="round" stroke-miterlimit="10" x1="230.2" y1="1217.3" x2="235.8" y2="1272.9"/>
<line fill="none" stroke="#4c6e32" stroke-width="20" stroke-linecap="round" stroke-miterlimit="10" x1="176.6" y1="1252.2" x2="216.9" y2="1254.4"/>
<line fill="none" stroke="#4c6e32" stroke-width="20" stroke-linecap="round" stroke-miterlimit="10" x1="217.3" y1="1302.4" x2="257.7" y2="1304.6"/>
<line fill="none" stroke="#4c6e32" stroke-width="20" stroke-linecap="round" stroke-miterlimit="10" x1="257" y1="1350.2" x2="304.1" y2="1350.6"/>
<line fill="none" stroke="#4c6e32" stroke-width="20" stroke-linecap="round" stroke-miterlimit="10" x1="278.4" y1="1393.8" x2="350.4" y2="1392.9"/>
<line fill="none" stroke="#4c6e32" stroke-width="20" stroke-linecap="round" stroke-miterlimit="10" x1="442.7" y1="1203.6" x2="387.1" y2="1265.7"/>
<line fill="none" stroke="#4c6e32" stroke-width="20" stroke-linecap="round" stroke-miterlimit="10" x1="434.3" y1="1146.2" x2="387.1" y2="1199.7"/>
<line fill="none" stroke="#4c6e32" stroke-width="20" stroke-linecap="round" stroke-miterlimit="10" x1="438.2" y1="1076.2" x2="387.1" y2="1133.7"/>
</svg>
