<?xml version="1.0" encoding="utf-8"?>
<!-- Generator: Adobe Illustrator 18.0.0, SVG Export Plug-In . SVG Version: 6.00 Build 0)  -->
<!DOCTYPE svg PUBLIC "-//W3C//DTD SVG 1.1//EN" "http://www.w3.org/Graphics/SVG/1.1/DTD/svg11.dtd">
<svg version="1.1" id="svg-sawmill" xmlns="http://www.w3.org/2000/svg" xmlns:xlink="http://www.w3.org/1999/xlink" x="0px" y="0px"
	 viewBox="-369 -464.9 767.5 964.4" enable-background="new -369 -464.9 767.5 964.4" xml:space="preserve">
<g fill="none" stroke="#4c6e32">
	<path stroke-width="15" stroke-linecap="round" stroke-linejoin="round" stroke-miterlimit="10" d="
		M-94.1-192.6c0,0-17.7-74.7,95-79.8C127-278.3,294.4-227,349-296c53.4-67.4,42-123.6,38.7-161.5"/>
	<path stroke-width="15" stroke-linecap="round" stroke-linejoin="round" stroke-miterlimit="10" d="
		M-139.5-213.6c0,0,0-99.3,116.9-102.5"/>
	<path stroke-width="15" stroke-linecap="round" stroke-linejoin="round" stroke-miterlimit="10" d="
		M64.8-341.4c0,0,228.7,86.7,267.4-47"/>
	
		<line stroke-width="15" stroke-linecap="round" stroke-linejoin="round" stroke-miterlimit="10" x1="-138.6" y1="-41.2" x2="-150.5" y2="139.5"/>
	
		<line stroke-width="15" stroke-linecap="round" stroke-linejoin="round" stroke-miterlimit="10" x1="-0.5" y1="262.3" x2="9.1" y2="443.3"/>
	
		<path stroke-width="20" stroke-linecap="round" stroke-linejoin="round" stroke-miterlimit="10" d="
		M-168.2,-152.2 7.7,-152.2 64.8,488.6 -222.8,488.6z 	"/>
	
		<path stroke-width="20" stroke-linecap="round" stroke-linejoin="round" stroke-miterlimit="10" d="
		M-359,322.9 -251.4,169.1 372.6,169.1 372.6,489.4 -358.1,489.4z 	"/>
	<g>
		<path stroke-width="15" stroke-linecap="round" stroke-linejoin="round" stroke-miterlimit="10" d="M124.5,221.5c-16.3,0-29.4,13.1-29.4,29.4s13.1,29.4,29.4,29.4s29.4-13.1,29.4-29.4
			C154,234.8,140.7,221.5,124.5,221.5L124.5,221.5z"/>
	</g>
	<g>
		<path stroke-width="15" stroke-linecap="round" stroke-linejoin="round" stroke-miterlimit="10" d="M215.3,221.5c-16.3,0-29.4,13.1-29.4,29.4s13.1,29.4,29.4,29.4c16.3,0,29.4-13.1,29.4-29.4
			C244.8,234.8,231.6,221.5,215.3,221.5L215.3,221.5z"/>
	</g>
	<g>
		<path stroke-width="15" stroke-linecap="round" stroke-linejoin="round" stroke-miterlimit="10" d="M306.1,221.5c-16.3,0-29.4,13.1-29.4,29.4s13.1,29.4,29.4,29.4c16.3,0,29.4-13.1,29.4-29.4
			C335.6,234.8,322.4,221.5,306.1,221.5L306.1,221.5z"/>
	</g>
</g>
</svg>
