<?xml version="1.0" encoding="utf-8"?>
<!-- Generator: Adobe Illustrator 16.0.0, SVG Export Plug-In . SVG Version: 6.00 Build 0)  -->
<!DOCTYPE svg PUBLIC "-//W3C//DTD SVG 1.1//EN" "http://www.w3.org/Graphics/SVG/1.1/DTD/svg11.dtd">
<svg version="1.1" id="Layer_1" xmlns="http://www.w3.org/2000/svg" xmlns:xlink="http://www.w3.org/1999/xlink" x="0px" y="0px"
	 width="841.89px" height="595.28px" viewBox="0 0 841.89 595.28" enable-background="new 0 0 841.89 595.28" xml:space="preserve">
<g>
	<g>
		<path fill="#58595B" d="M345.468,242.259c-5.15,0.015-17.541,6.646-19.854,12.06c2.213,2.825,6.213,8.377,6.213,11.653v15.379
			c-2.286-0.88-4.845-1.39-7.697-1.39c-11.953,0-26.495,2.203-38.621,16.107c0-20.372,0-42.643,0-60.359
			c-4.485-1.681-8.807-0.858-12.01-0.159l0.029-5.496c3.525-2.337,9.083-1.092,11.98,0.088c0-1.907,0-3.75,0-5.517
			c-4.585-1.877-8.876-0.99-12.157-0.307l0.073-5.487c3.643-2.381,9.275-1.018,12.084,0.225c0-1.985,0-3.835,0-5.509
			c-4.67-2.11-8.979-1.136-12.327-0.467l0.126-5.486c3.773-2.423,9.509-0.911,12.201,0.379c0-3.507,0-5.511,0-5.511
			c0-6.411-0.391-9.971-4.643-9.949c-5.155,0.007-17.527,6.637-19.843,12.044c2.201,2.816,6.216,8.379,6.216,11.654v121.167
			c0,0.612-2.256,8.387-2.825,15.129c6.889,0,11.271,0,21.095,0c0-2.187,0-11.168,0-23.713c1.515-8.024,3.958-16.599,7.394-21.226
			c11.109-15.007,23.713-15.313,29.874-15.313c6.215,0,8.369,3.312,9.051,7.861v37.262c0,0.612-2.228,8.387-2.823,15.129
			c6.916,0,11.269,0,21.094,0c0-9.565,0-100.282,0-100.282C350.098,245.819,349.704,242.252,345.468,242.259z"/>
		<path fill="#58595B" d="M128.646,270.835c-2.938-1.145-7.003-3.648-8.05-7.374l3.553-4.192c1.907,2.549,4.279,5.809,8.53,7.49
			c1.309-1.369,2.648-2.891,4.033-4.521c-3.06-0.669-7.951-2.665-9.505-6.434l2.995-4.548c2.285,2.38,5.286,5.45,10.046,6.5
			c1.294-1.777,2.533-3.654,3.667-5.591c-3.144-0.248-8.645-1.644-10.712-5.319l2.445-4.906c2.53,2.073,6.011,4.751,10.801,5.269
			c1.716-3.938,2.794-8.057,2.794-12.215c0-5.248-2.81-13.545-27.513-13.545c-2.94,0-28.209,0-31.485,0
			c-13.449,0-22.563,6.217-22.563,13.954c0,10.8,11.269,18.886,15.285,21.653c4.659-2.408,9.143-6.238,11.398-9.592
			c-4.643-2.702-7.673-4.972-9.287-7.285c-1.849-2.715-0.99-4.564,2.62-4.564c3.115,0,30.308,0,32.26,0
			c10.684-0.03,10.769,0.537,10.769,3.741c0,7.627-18.514,28.269-37.496,42.002c-0.219,5.046,7.42,10.193,21.165,2.229
			c15.212,13.487,21.979,37.781,21.979,47.055c0,4.79-3.378,7.759-15.211,7.759c-11.193,0-23.93-0.045-34.369,0
			c-8.85-0.22-11.236-4.807-11.236-7.773c0-10.774,5.823-14.848,14.963-20.817c-2.576-6.462-8.763-10.933-15.283-10.801
			c-13.64,10.193-18.545,27.878-18.545,33.889c0,15.021,14.876,20.173,32.197,20.173c10.614,0.352,24.443-0.156,36.014,0.148
			c14.18,0.347,32.202-0.755,32.49-19.826c0.266-17.746-9.489-38.226-31.094-60.302
			C126.943,272.479,127.728,271.714,128.646,270.835z"/>
		<path fill="#58595B" d="M432.606,270.979c-2.958-1.083-7.325-3.633-8.432-7.519l3.539-4.192c1.979,2.62,4.438,5.99,8.936,7.626
			c1.311-1.381,2.68-2.912,4.078-4.563c-3.015-0.573-8.285-2.575-9.942-6.528l2.997-4.548c2.373,2.445,5.474,5.67,10.481,6.593
			c1.324-1.796,2.577-3.688,3.726-5.655c-3.012-0.129-9.01-1.47-11.207-5.348l2.445-4.906c2.635,2.138,6.246,4.941,11.279,5.319
			c1.745-3.944,2.825-8.092,2.825-12.265c0-5.248-2.795-13.545-27.512-13.545c-2.926,0-28.196,0-31.485,0
			c-13.438,0-22.549,6.217-22.549,13.954c0,10.8,11.266,18.886,15.283,21.653c4.66-2.408,9.144-6.238,11.412-9.592
			c-4.657-2.702-7.699-4.972-9.299-7.285c-1.85-2.715-0.991-4.564,2.618-4.564c3.116,0,30.31,0,32.261,0
			c10.668-0.03,10.754,0.537,10.754,3.741c0,7.627-18.514,28.269-37.496,42.002c-0.207,5.046,7.42,10.193,21.178,2.229
			c15.212,13.487,21.967,37.781,21.967,47.055c0,4.79-3.361,7.759-15.196,7.759c-11.194,0-23.919-0.045-34.37,0
			c-8.862-0.22-11.253-4.807-11.253-7.773c0-10.774,5.826-14.848,14.981-20.817c-2.576-6.462-8.761-10.933-15.298-10.801
			c-13.644,10.193-18.546,27.878-18.546,33.889c0,15.021,14.86,20.173,32.198,20.173c10.628,0.352,24.454-0.156,36.027,0.148
			c14.164,0.347,32.188-0.755,32.475-19.826c0.277-17.746-9.488-38.226-31.093-60.302
			C431.002,272.509,431.761,271.788,432.606,270.979z"/>
		<path fill="#58595B" d="M193.353,291.402c-18.779,11.915-25.594,27.333-25.594,39.719c0,15.184,14.863,21.792,30.774,21.792
			c8.368,0,11.556,0,20.351,0c8.736,0,22.489-0.977,31.296-2.056c0-14.848,0-69.317,0-69.317
			C231.229,278.615,211.952,279.619,193.353,291.402z M206.771,338.34c-9.286,0-20.132,0.234-20.132-8.457
			c0-5.692,1.836-17.366,16.783-27.673c8.313-5.729,20.702-8.998,28.284-8.998l0.045,44.62
			C224.707,338.34,213.889,338.34,206.771,338.34z"/>
		<path fill="#58595B" d="M626.499,291.402c-18.82,11.915-25.621,27.333-25.621,39.719c0,15.184,14.865,21.792,30.771,21.792
			c8.358,0,11.573,0,20.352,0c8.748,0,22.506-0.977,31.299-2.056c0-14.848,0-69.317,0-69.317
			C664.348,278.615,645.073,279.619,626.499,291.402z M639.877,338.34c-9.299,0-20.104,0.234-20.104-8.457
			c0-5.692,1.833-17.366,16.77-27.673c8.298-5.729,20.698-8.998,28.3-8.998l0.014,44.62
			C657.808,338.34,646.993,338.34,639.877,338.34z"/>
		<path fill="#58595B" d="M759.604,291.402c-16.711-10.596-32.535-13.108-49.289-11.018c-8.529,1.069-11.004,2.881-12.548,5.17
			c2.198,2.811,5.197,8.373,5.197,11.649v90.425c0,0.614-2.243,8.398-2.825,15.14c6.887,0,15.081,0,21.093-2.446
			c0-1.369,0-4.633,0-9.195l-0.176,0.258c-2.616,1.308-8.485,2.884-12.328,0.438l-0.158-5.501c3.449,0.681,7.83,1.701,12.634-0.555
			l0.028,0.038c0-1.758,0-3.629,0-5.6c-2.661,1.282-8.602,2.853-12.387,0.38l-0.072-5.505c3.333,0.717,7.772,1.634,12.459-0.407
			c0-1.804,0-3.65,0-5.544c-2.792,1.221-8.616,2.647-12.271,0.217l-0.045-5.487c3.291,0.71,7.718,1.559,12.315-0.277
			c0-3.697,0-7.48,0-11.341c4.541,0.393,8.997,0.673,12.869,0.673c8.776,0,11.966,0,20.349,0c15.915,0,30.746-6.608,30.746-21.792
			C785.196,318.734,778.413,303.316,759.604,291.402z M746.2,338.34c-7.121,0-17.937,0-24.968-0.508l0.028-44.62
			c7.6,0,19.974,3.268,28.301,8.998c14.935,10.307,16.768,21.98,16.768,27.673C766.329,338.574,755.501,338.34,746.2,338.34z"/>
		<path fill="#58595B" d="M566.849,291.402c-13.134-8.317-25.639-11.246-38.52-11.238c0-7.773,0-15.583,0-23.101
			c12.75-0.007,28.982-0.24,28.982-0.24c6.418,0,9.972-0.402,9.957-4.645c0-5.153-6.975-13.661-12.387-15.968
			c-2.824,2.191-8.388,6.201-11.648,6.201l-14.904,0.299c0-2.446,0-4.826,0-7.125c-4.395-1.529-8.561-0.728-11.705-0.036
			l0.045-5.496c3.395-2.249,8.676-1.179,11.66-0.037c0-1.915,0-3.763,0-5.518c-4.484-1.709-8.645-0.857-11.851-0.182l0.073-5.487
			c3.512-2.292,8.868-1.105,11.777,0.087c0-1.995,0-3.835,0-5.502c-4.559-1.914-8.732-0.998-12.023-0.336l0.131-5.486
			c3.654-2.33,9.067-1.026,11.893,0.226c0-3.421,0-5.358,0-5.358c0-6.411-0.409-9.971-4.659-9.949
			c-5.153,0.007-17.528,6.637-19.839,12.044c2.182,2.816,6.215,8.379,6.215,11.654v121.167c0,0.612-2.241,8.387-2.854,15.129
			c6.913,0,11.294,0,21.137,0c0-0.029,0-0.071,0-0.103c4.569,0.303,9.096,0.51,12.998,0.51c8.778,0,11.98,0,20.335,0
			c15.927,0,30.792-6.608,30.792-21.792C592.454,318.734,585.64,303.316,566.849,291.402z M553.454,338.34
			c-7.148,0-17.949,0-24.98-0.508l0.016-44.62c7.613,0,20.001,3.268,28.284,8.998c14.962,10.307,16.796,21.98,16.796,27.673
			C573.569,338.574,562.738,338.34,553.454,338.34z"/>
		<path fill="#58595B" d="M484.133,241.051c-6.228,0-11.28,5.06-11.28,11.296c0,6.223,5.053,11.275,11.28,11.275
			c6.26,0,11.3-5.052,11.3-11.275C495.433,246.111,490.393,241.051,484.133,241.051z"/>
		<path fill="#58595B" d="M488.749,280.156c-5.166,0-17.543,6.648-19.842,12.053c2.185,2.825,6.201,8.373,6.201,11.647v33.521
			c0,0.612-2.241,8.387-2.825,15.129c6.918,0,11.282,0,21.108,0c0-9.565,0-62.398,0-62.398
			C493.392,283.692,492.986,280.136,488.749,280.156z"/>
	</g>
</g>
</svg>
