<svg xmlns="http://www.w3.org/2000/svg" width="841.89" height="595.28" viewBox="0 0 841.89 595.28"><g fill="#58595B"><path d="M217.435 410.527v26.752c0 7.154 6.268 8.585 8.12 8.585h25.563v-35.338h28.07v89.824h-28.07v-35.083h-39.71s-22.044-13.25-22.044-20.644v-34.097h28.07zM298.837 410.527h64.008c13.024 0 21.743 11.1 21.743 22.663 0 19.51-19.016 22.055-19.016 22.055 6.15 0 23.092 4.792 23.092 22.623 0 9.793-7.432 22.483-21.978 22.483h-67.85v-19.645h53.82c3.304 0 8.03-2.413 8.03-7.804 0-5.384-4.773-7.633-8.03-7.633H326.91v-19.65h21.007c3.752 0 8.664-2.22 8.664-7.45 0-7.67-7.52-7.99-9.012-7.99h-48.732v-19.65zM513.99 426.573L483.52 500.35h-17.048l-31.086-73.777v73.778h-28.065v-89.823h39.295l28.198 67.784 28.473-67.783h38.768v89.824H513.99v-73.777zM590.77 410.527v35.09l36.177-35.09h23.42l-41.52 40.395 43.68 49.43h-27.14l-31.48-35.074-3.137 2.732v32.342h-28.068v-89.824h28.068z"/><g><path d="M652.526 223.907V94.5H539.442M302.445 94.5H189.363v129.407M437.726 94.5h-.188v216.175l26.08 29.883h188.908v-.254M404.35 310.675V94.5h-.193L189.363 340.304v.254H378.41"/></g></g></svg>