<svg xmlns="http://www.w3.org/2000/svg" width="841.89" height="595.28" viewBox="0 0 841.89 595.28"><g fill="#58595B"><path d="M533.316 139.683l-110.22-63.988c-.676-.388-1.418-.575-2.152-.575-.73 0-1.49.188-2.15.575l-110.227 63.987c-1.32.77-2.137 2.195-2.137 3.735V271.38c0 1.543.816 2.98 2.137 3.753l110.226 63.987c.662.363 1.42.57 2.15.57.735 0 1.477-.207 2.153-.57l110.22-63.987c1.31-.772 2.147-2.21 2.147-3.752V143.42c0-1.54-.837-2.966-2.147-3.735zm-.277 132.803l-112.096 65.09-112.12-65.09V142.32l112.12-65.08 112.095 65.08v130.166z"/><path d="M521.53 176.214V150.67c0-1.023-.524-1.977-1.437-2.49l-97.715-56.746c-.448-.254-.943-.385-1.435-.385-.5 0-.986.13-1.417.384l-97.744 56.747c-.887.514-1.43 1.467-1.43 2.49v113.475c0 1.03.543 1.98 1.43 2.48l97.744 56.755c.43.252.915.373 1.417.373.492 0 .986-.12 1.435-.373l97.715-56.756c.912-.498 1.436-1.447 1.436-2.48v-25.553c0-.692-.23-1.357-.683-1.878l-25.253-29.304 25.253-29.31c.453-.52.682-1.196.682-1.884zm-75.853 33.068l24.56 28.56-49.293 28.615-50.876-29.528v-59.054l50.876-29.525 49.292 28.615-24.56 28.55c-.95 1.078-.95 2.684 0 3.767z"/><g><path d="M593.806 384.305c-22.346 0-40.522 18.17-40.522 40.463 0 22.357 18.177 40.537 40.522 40.537 22.312 0 40.477-18.18 40.477-40.537 0-22.293-18.166-40.463-40.477-40.463zm0 66.695c-14.448 0-26.217-11.78-26.217-26.232 0-14.432 11.768-26.16 26.216-26.16 14.445 0 26.172 11.73 26.172 26.16 0 14.45-11.727 26.232-26.172 26.232zM246.663 420.002c2.144-2.666 4.74-7.43 4.74-13.14 0-11.608-8.76-20.683-19.95-20.683H211.16c-2.308 0-3.553 2.036-3.553 3.985v69.95c0 1.696 1.474 3.567 3.603 3.567h21.053c15.426 0 24.647-12.178 24.647-24.008 0-8.076-3.712-15.16-10.247-19.672zm-17.146-4.46h-7.838v-15.546h7.837c4.295 0 7.778 3.482 7.778 7.77 0 4.29-3.483 7.777-7.778 7.777zm2.747 34.122h-10.586v-19.94h10.586c5.495 0 9.974 4.48 9.974 9.972 0 5.515-4.48 9.968-9.974 9.968zM307.734 388.268c-.586-1.273-1.876-2.088-3.266-2.088h-1.713c-1.384 0-2.67.803-3.263 2.066l-33.222 70.326c-.532 1.09-.452 2.406.22 3.443.66 1.027 1.792 1.668 3.036 1.668h7.84c1.382 0 2.657-.797 3.257-2.03l9.978-21.083h25.742l10.077 21.086c.59 1.23 1.867 2.027 3.25 2.027H337.28c1.988 0 3.6-1.594 3.6-3.574 0-.665-.184-1.31-.522-1.853l-32.624-69.99zm2.17 38.316h-12.688l6.355-13.44 6.334 13.44zM391.933 388.348c-.582-1.303-1.876-2.168-3.305-2.168h-1.538c-1.443 0-2.735.855-3.305 2.152l-30.59 70.33c-.485 1.127-.386 2.38.293 3.412.658 1.002 1.78 1.61 3.01 1.61h7.64c1.425 0 2.735-.827 3.295-2.18l20.36-46.67 20.037 46.67c.554 1.343 1.857 2.18 3.305 2.18h7.665c1.98 0 3.604-1.595 3.604-3.575 0-.618-.157-1.222-.466-1.776l-30.005-69.986zM515.403 421.514l31.096-29.096c1.09-1.012 1.454-2.553.89-3.94-.53-1.382-1.856-2.298-3.346-2.298h-9.42c-.922 0-1.81.34-2.46.975l-22.052 20.703v-18.076c0-1.982-1.608-3.602-3.613-3.602h-7.166c-1.98 0-3.598 1.62-3.598 3.602v70.328c0 1.98 1.617 3.574 3.598 3.574h7.165c2.004 0 3.612-1.594 3.612-3.574v-23.672l24.6 26.14c.677.708 1.618 1.106 2.622 1.106h9.346c1.448 0 2.723-.83 3.317-2.178.566-1.297.308-2.824-.688-3.857l-33.907-36.136zM459.068 415.697h-10.58v-25.53c0-2.45-1.348-3.987-3.476-3.987h-7.056c-2.312 0-3.55 2.037-3.55 3.986v69.95c0 1.696 1.497 3.567 3.61 3.567h21.05c14.28 0 24.68-10.48 24.68-24.89 0-8.953-6.726-23.096-24.678-23.096zm0 33.967h-10.58v-19.94h10.58c5.492 0 9.972 4.48 9.972 9.972 0 5.515-4.48 9.968-9.972 9.968z"/><g><path d="M273.643 497.047h2.984l6.9 16.37 7.18-16.37h.533l7.227 16.37 7.04-16.37h3.02l-9.792 22.543h-.536l-7.194-16.1-7.21 16.1h-.54l-9.613-22.543zM310.99 497.047h2.985l6.898 16.37 7.186-16.37h.533l7.228 16.37 7.033-16.37h3.017l-9.79 22.543h-.536l-7.19-16.1-7.21 16.1h-.537l-9.616-22.543zM348.346 497.047h2.975l6.9 16.37 7.19-16.37h.527l7.24 16.37 7.02-16.37h3.02l-9.792 22.543h-.535l-7.193-16.1-7.203 16.1h-.534l-9.614-22.543zM389.79 515.027c.706 0 1.302.258 1.81.762.49.468.738 1.058.738 1.82 0 .683-.25 1.28-.738 1.796-.508.516-1.104.754-1.81.754-.7 0-1.305-.238-1.78-.754-.517-.516-.766-1.113-.766-1.795 0-.763.25-1.353.766-1.82.475-.505 1.08-.763 1.78-.763zM396.218 497.047h3.09l7.54 16.443 7.47-16.443h3.117l-10.31 22.543h-.54l-10.367-22.543zM444.263 497.047v22.543h-2.838v-3.877c-1.21 1.44-2.56 2.58-4.1 3.318-1.518.755-3.158 1.13-4.918 1.13-3.227 0-5.948-1.16-8.188-3.45-2.268-2.298-3.383-5.134-3.383-8.446 0-3.236 1.13-6.004 3.42-8.328 2.27-2.287 5-3.455 8.193-3.455 1.85 0 3.516.384 5.032 1.17 1.502.786 2.796 1.98 3.942 3.517v-4.12h2.84zm-11.544 2.236c-1.643 0-3.115.377-4.462 1.178-1.38.8-2.462 1.92-3.277 3.337-.816 1.436-1.182 2.945-1.182 4.56 0 1.57.37 3.106 1.197 4.532.8 1.464 1.882 2.59 3.263 3.382 1.386.818 2.848 1.19 4.428 1.19 1.57 0 3.104-.37 4.488-1.177 1.42-.805 2.516-1.873 3.28-3.252.763-1.357 1.177-2.898 1.177-4.61 0-2.603-.894-4.796-2.61-6.51-1.694-1.772-3.83-2.63-6.3-2.63zM450.395 488.38h2.87v31.21h-2.87v-31.21zM459.27 488.38h2.89v17.763l10.44-9.096h4.238l-12.354 10.727 13.12 11.816h-4.112l-11.33-10.135v10.135h-2.89v-31.21zM491.225 496.48c3.448 0 6.356 1.266 8.63 3.764 2.05 2.324 3.114 5.008 3.114 8.145 0 3.132-1.095 5.88-3.3 8.243-2.2 2.367-5.002 3.527-8.445 3.527-3.48 0-6.274-1.16-8.475-3.527-2.205-2.363-3.303-5.11-3.303-8.244 0-3.118 1.077-5.82 3.12-8.146 2.272-2.49 5.176-3.764 8.658-3.764zm-.014 2.842c-2.384 0-4.487.895-6.234 2.652-1.684 1.822-2.587 3.977-2.587 6.46 0 1.673.434 3.167 1.21 4.565.762 1.41 1.844 2.48 3.196 3.23 1.332.788 2.792 1.18 4.415 1.18 1.612 0 3.084-.392 4.415-1.18 1.342-.75 2.425-1.82 3.187-3.23.798-1.4 1.23-2.894 1.23-4.565 0-2.484-.91-4.64-2.607-6.46-1.76-1.758-3.85-2.653-6.224-2.653zM511.506 515.027c.686 0 1.3.258 1.79.762.504.468.74 1.058.74 1.82 0 .683-.236 1.28-.74 1.796-.49.516-1.105.754-1.79.754-.702 0-1.318-.238-1.772-.754-.523-.516-.775-1.113-.775-1.795 0-.763.25-1.353.774-1.82.454-.505 1.07-.763 1.772-.763zM519.69 497.047h2.89v10.533c0 2.553.134 4.348.4 5.295.418 1.355 1.19 2.46 2.396 3.264 1.146.808 2.543 1.192 4.172 1.192 1.606 0 2.974-.37 4.116-1.154 1.108-.78 1.882-1.766 2.338-3.07.288-.848.43-2.69.43-5.527V497.05h2.952v11.033c0 3.132-.358 5.48-1.07 7.065-.754 1.566-1.846 2.797-3.283 3.697-1.476.88-3.297 1.318-5.48 1.318-2.182 0-4.005-.44-5.506-1.318-1.448-.9-2.553-2.13-3.264-3.738-.75-1.61-1.09-3.988-1.09-7.184v-10.873zM568.27 497.047v22.543h-2.882v-3.877c-1.21 1.44-2.568 2.58-4.07 3.318-1.503.755-3.18 1.13-4.97 1.13-3.174 0-5.895-1.16-8.17-3.45-2.24-2.298-3.386-5.134-3.386-8.446 0-3.236 1.158-6.004 3.427-8.328 2.266-2.287 5.013-3.455 8.233-3.455 1.845 0 3.522.384 5.005 1.17 1.487.786 2.83 1.98 3.93 3.517v-4.12h2.88zm-11.597 2.236c-1.608 0-3.11.377-4.468 1.178-1.358.8-2.445 1.92-3.264 3.337-.79 1.436-1.203 2.945-1.203 4.56 0 1.57.414 3.106 1.216 4.532.83 1.464 1.925 2.59 3.294 3.382 1.367.818 2.83 1.19 4.4 1.19 1.598 0 3.092-.37 4.52-1.177 1.436-.805 2.506-1.873 3.28-3.252.764-1.357 1.134-2.898 1.134-4.61 0-2.603-.84-4.796-2.56-6.51-1.724-1.772-3.825-2.63-6.347-2.63z"/></g></g></g></svg>