<svg xmlns="http://www.w3.org/2000/svg" width="841.89" height="595.28" viewBox="0 0 841.89 595.28"><path fill="#58595B" d="M187.94 174.984c-46.86 0-82.905 0-111.74 46.86-14.28 25.98-12.822 63.083 5.117 84.408-4.527-25.383 8.097-62.78 56.153-62.78h57.676c21.628 0 61.28 0 93.725-68.488H187.94z"/><path fill="#58595B" d="M161.873 287.165c11.122 0 31.52 0 48.21-35.224H155.49c-5.125 0-20.063 0-27.187 10.086-6.84 9.682-5.127 25.23 2.048 33.76-.956-7.64 5.995-8.474 12.408-8.62h19.115z"/><path fill="#58595B" d="M102.393 332.818c15.94-8.982 22.487-17.082 23.693-27.47-1.23-2.4-2.576-4.575-3.995-6.426-12.956-16.92-12.535-34.383-.082-46.96-30.917 8.176-40.106 36.308-37.446 57.655 6.716 6.678 15.37 14.268 17.83 23.2z"/><path fill="#58595B" d="M81.676 349.098c-14.244 6.604-38.87 18.15-39.157 71.2 0 0 21.85-10.208 33.28-15.544 29.717-13.883 52.586-24.557 56.998-62.82.712-10.846-.782-22.645-4.892-32.615-.813 11.192-7.402 19.663-24.565 29.188.002 0-12.006 6.117-21.664 10.59zM305.333 301.42c0 .033.007.068.007.105v-.225c0 .044-.007.077-.007.12zM314.824 273.934h.008-.008"/><g fill="#58595B"><path d="M273.186 290.374c4.036 0 11.434 0 17.487-12.78h-28.946c-1.864 0-7.283 0-9.863 3.66-2.486 3.512-1.864 9.154.737 12.25-.34-2.772 2.177-3.078 4.506-3.13h16.08z"/><path d="M281.516 317.904c-7.812-16.484-17.352-16.484-22.556-16.484h-15.606c-3.032 0-4.593-2.452-3.504-5.473l8.688-23.867c.74-2.013 2.972-3.647 4.99-3.647h29.254c5.2 0 0 0 0 0 5.2 0 14.747-.01 22.552-16.493h-54.967c-9.108 0-19.173 7.384-22.49 16.49v.002l-11.34 31.15v.004c-3.682 10.115 1.533 18.316 11.65 18.316h53.33z"/></g><g fill="#58595B"><path d="M669.06 290.374c4.03 0 11.437 0 17.488-12.78h-28.95c-1.85 0-7.278 0-9.86 3.66-2.483 3.512-1.86 9.154.744 12.25-.345-2.772 2.175-3.078 4.494-3.13h16.083z"/><path d="M677.385 317.904c-7.804-16.484-17.354-16.484-22.553-16.484h-15.605c-3.028 0-4.585-2.452-3.506-5.473l8.687-23.867c.743-2.013 2.97-3.647 4.992-3.647h29.258c5.197 0 0 0 0 0 5.197 0 14.74-.01 22.552-16.493H646.24c-9.11 0-19.182 7.384-22.49 16.49v.002l-11.337 31.15v.004c-3.686 10.115 1.532 18.316 11.648 18.316h53.325z"/></g><path fill="#58595B" d="M347.563 312.836c1.825 4.203 6.004 6.904 11.8 6.904 9.667 0 20.674-4.934 24.985-18.32l19.148-52.72c-16.534 1.55-20.724 9.123-22.677 14.157l-12.176 33.476-16.852-37.662c-2.15-4.525-6.678-6.723-11.737-6.723-10.197 0-20.584 5.208-24.99 18.318l-17.003 46.72c-.188.51.08.92.584.92h16.49c.507 0 1.066-.41 1.247-.915l14.82-40.713 16.36 36.56zM743.433 312.836c1.828 4.203 6.003 6.904 11.803 6.904 9.668 0 20.675-4.934 24.986-18.32l19.148-52.72c-16.53 1.55-20.72 9.123-22.685 14.157l-12.168 33.476-16.852-37.662c-2.158-4.525-6.68-6.723-11.732-6.723-10.2 0-20.58 5.208-24.993 18.318h.003l-17.01 46.72c-.182.51.083.92.588.92h16.49c.504 0 1.067-.41 1.247-.915l14.824-40.713 16.353 36.56z"/><path fill="#58595B" d="M714.636 301.42c0 .033.008.068.008.105v-.225c0 .044-.008.077-.008.12zM716.37 273.934h.01-.017M466.77 317.904c9.11 0 19.18-7.375 22.49-16.484l11.346-31.158c3.677-10.117-1.537-18.32-11.657-18.32h-53.773c-9.11 0-19.176 7.383-22.49 16.488l-11.344 31.158c-3.68 10.115 1.538 18.316 11.657 18.316h53.77zm-35.73-16.484c-2.173.09-4.33.527-4.01 3.104-2.075-2.47-2.87-6.706-1.77-10.18l8.088-22.263c.74-2.012 2.97-3.646 4.985-3.646h35.446c3.028 0 4.59 2.447 3.512 5.472L468.6 297.77c-.743 2.016-2.97 3.65-4.992 3.65h-32.57z"/><g fill="#58595B"><path d="M206.505 327.348h15.517l-1.778 4.81h-10.398l-2.53 6.81h9.566l-1.738 4.803h-9.57l-4.12 11.155h-5.115l10.165-27.577zM303.41 327.348h5.118l-10.168 27.576h-5.115l10.166-27.576zM402.316 332.156h-7.64l-8.426 22.768h-5.125l8.393-22.768h-7.638l1.773-4.81h20.404l-1.74 4.81zM481.19 340.502l-.607-4.408h-.194l-1.044 4.408-5.31 14.422h-4.884l10.277-27.768h3.548l4.453 14.73.548 4.29h.24l.948-4.29 5.403-14.538h4.883l-10.287 27.77h-3.54l-4.435-14.616zM573.34 327.348H588.852l-1.78 4.81h-10.4l-2.39 6.42h9.492l-1.818 4.804h-9.407l-2.525 6.734h10.594l-1.743 4.81h-15.71l10.172-27.578zM677.62 332.902c-.45-.318-1.14-.65-2.064-.986-.925-.338-1.984-.508-3.174-.508-.61 0-1.213.055-1.808.18-.595.12-1.144.307-1.642.574-.486.262-.9.605-1.22 1.027-.338.423-.546.923-.637 1.507-.12.766.015 1.404.404 1.936.388.53.923 1.023 1.577 1.484.653.467 1.352.932 2.114 1.404.765.476 1.46 1.022 2.085 1.657.634.633 1.113 1.383 1.454 2.266.334.877.402 1.96.2 3.248-.25 1.548-.72 2.878-1.438 3.99-.713 1.12-1.617 2.032-2.708 2.74-1.104.71-2.364 1.23-3.793 1.558-1.43.328-2.99.494-4.664.494-.925 0-1.79-.053-2.603-.16-.798-.104-1.55-.236-2.238-.39-.68-.167-1.275-.34-1.783-.534-.508-.195-.9-.39-1.186-.57l3.368-4.568c.24.156.55.334.943.52.392.19.855.37 1.37.526.515.162 1.077.3 1.696.406.615.104 1.237.16 1.866.16.747 0 1.455-.057 2.138-.182.67-.115 1.272-.313 1.805-.59.543-.28.974-.627 1.324-1.05.333-.425.563-.95.663-1.587.115-.707-.027-1.32-.438-1.82-.394-.498-.918-.975-1.57-1.428-.664-.447-1.36-.916-2.122-1.396-.765-.487-1.448-1.058-2.07-1.718-.63-.65-1.11-1.447-1.435-2.38-.332-.937-.39-2.067-.176-3.405.234-1.53.704-2.824 1.41-3.9.713-1.078 1.586-1.957 2.607-2.64 1.016-.68 2.176-1.18 3.462-1.497 1.282-.313 2.635-.473 4.053-.473.758 0 1.517.04 2.264.117.755.08 1.45.188 2.12.334.65.146 1.252.316 1.8.512.554.2 1 .42 1.36.652l-3.316 4.49zM769.325 332.902c-.447-.318-1.137-.65-2.054-.986-.935-.338-1.98-.508-3.17-.508-.61 0-1.217.055-1.814.18-.6.12-1.14.307-1.638.574-.486.262-.9.605-1.234 1.027-.327.423-.535.923-.63 1.507-.12.766.02 1.404.407 1.936.387.53.926 1.023 1.576 1.484.653.467 1.362.932 2.12 1.404.762.476 1.457 1.022 2.08 1.657.64.633 1.116 1.383 1.452 2.266.338.877.41 1.96.197 3.248-.24 1.548-.712 2.878-1.43 3.99-.714 1.12-1.622 2.032-2.713 2.74-1.095.71-2.357 1.23-3.793 1.558-1.427.328-2.987.494-4.667.494-.918 0-1.786-.053-2.59-.16-.813-.104-1.56-.236-2.246-.39-.682-.167-1.28-.34-1.78-.534-.51-.195-.91-.39-1.198-.57l3.378-4.568c.236.156.55.334.94.52.395.19.85.37 1.364.526.515.162 1.085.3 1.7.406.622.104 1.245.16 1.877.16.736 0 1.453-.057 2.123-.182.676-.115 1.283-.313 1.82-.59.53-.28.964-.627 1.315-1.05.338-.425.567-.95.66-1.587.112-.707-.033-1.32-.43-1.82-.397-.498-.925-.975-1.572-1.428-.667-.447-1.372-.916-2.124-1.396-.765-.487-1.45-1.058-2.075-1.718-.63-.65-1.108-1.447-1.44-2.38-.322-.937-.38-2.067-.166-3.405.242-1.53.71-2.824 1.416-3.9.706-1.078 1.572-1.957 2.6-2.64 1.03-.68 2.178-1.18 3.468-1.497 1.286-.313 2.642-.473 4.05-.473.768 0 1.515.04 2.27.117.752.08 1.454.188 2.114.334.657.146 1.25.316 1.808.512.542.2.995.42 1.352.652l-3.323 4.49z"/></g><path fill="#58595B" d="M607.592 267.704c3.073-8.435-1.278-15.273-9.712-15.273-6.582 0-13.698 4.17-17.965 10.003l-15.21 20.818-11.003-24.585c-1.874-4.1-6.01-6.717-11.736-6.717-10.117 0-20.543 5.18-24.986 18.314l-17.007 46.724c-.18.508.08.918.584.918h16.493c.5 0 1.063-.41 1.244-.918l14.865-40.738 7.814 16.764c.035.063.065.126.09.188l.12.254.02-.004c1.956 3.866 5.997 6.32 11.524 6.32 8.368 0 17.467-5.62 22.448-13.293l10.728-14.713c.495-.806 1.892-.357 1.662.612l-16.222 44.61c-.188.508.08.918.58.918h16.5c.505 0 1.058-.41 1.242-.918l17.926-49.282c3.073-8.435 0 0 0 0z"/></svg>