<?xml version="1.0" encoding="utf-8"?>
<!-- Generator: Adobe Illustrator 16.0.0, SVG Export Plug-In . SVG Version: 6.00 Build 0)  -->
<!DOCTYPE svg PUBLIC "-//W3C//DTD SVG 1.1//EN" "http://www.w3.org/Graphics/SVG/1.1/DTD/svg11.dtd">
<svg version="1.1" id="Layer_1" xmlns="http://www.w3.org/2000/svg" xmlns:xlink="http://www.w3.org/1999/xlink" x="0px" y="0px"
	 width="841.89px" height="595.28px" viewBox="0 0 841.89 595.28" enable-background="new 0 0 841.89 595.28" xml:space="preserve">
<g>
	<g>
		<g>
			<path fill="#58595B" d="M629.376,40.066c16.688,0,29.367,2.728,37.684,8.107c7.052,4.561,10.076,10.368,12.104,15.447
				l0.012,0.027l0.011,0.027l63.563,153.83l1.277,3.091h3.344h19.371v48.847H492.705v-48.847h18.339h3.337l1.28-3.082l63.892-153.83
				l0.013-0.03l0.013-0.03c2.033-5.083,5.063-10.894,12.107-15.451C600,42.794,612.682,40.066,629.376,40.066 M620.938,111.172
				l-37.838,102.695l-2.479,6.729h7.171h83.168h7.171l-2.479-6.729l-37.835-102.686c-0.058-0.179-0.119-0.373-0.183-0.578
				c-0.902-2.875-2.778-8.857-8.258-8.857c-5.451,0-7.266,5.731-8.24,8.811C621.066,110.776,621.001,110.983,620.938,111.172
				 M557.104,42.765L435.026,269.442h-71.625l33.67-59.841l1.375-2.443l-1.368-2.448L306.564,42.765h73.567l47.976,97.953
				l4.474,9.134l4.5-9.12l48.345-97.967H557.104 M289.353,42.765v48.828H161.144c-18.053,0-19.548,9.082-19.548,19.199v16.897v5h5
				h109.206c21.355,0,32.272,10.6,35.085,13.82c11.038,12.834,12.314,36.125,12.314,52.527c0,18.975-1.443,40.236-12.144,54.065
				l-0.026,0.033l-0.025,0.034c-2.853,3.818-13.772,16.274-34.521,16.274H103.315c-8.215,0-15.257-2.721-20.366-7.87
				c-5.007-5.046-7.764-12.246-7.764-20.273V75.627c0-13.429,4.329-22.884,12.867-28.103c6.436-3.934,13.877-4.759,18.987-4.759
				H289.353 M159.484,220.608c0.52,0,1.055-0.003,1.605-0.006c0.564-0.003,1.146-0.006,1.744-0.006h44.965
				c4.808,0,14.813,0,20.972-5.724c6.002-5.53,6.002-13.77,6.002-18.196c0-5.763,0-12.292-7.029-17.507
				c-6.436-5.08-15.218-5.08-19.945-5.08h-61.203h-5v5v20.961C141.595,217.332,147.882,220.608,159.484,220.608 M629.376,35.066
				c-39.903,0-49.701,14.856-54.44,26.699l-63.892,153.83h-23.339v58.847h284.036v-58.847H747.37l-63.563-153.83
				C679.077,49.923,669.262,35.066,629.376,35.066L629.376,35.066z M587.792,215.596l37.867-102.772
				c0.676-2.031,1.699-6.077,3.717-6.077c2.027,0,3.05,4.046,3.717,6.077l37.867,102.772H587.792L587.792,215.596z M565.476,37.765
				h-83.158l-49.72,100.754L383.25,37.765h-85.208l94.673,169.385l-37.863,67.293h83.161L565.476,37.765L565.476,37.765z
				 M294.353,37.765H107.039c-8.447,0-36.854,2.027-36.854,37.862V241.3c0,19.263,13.53,33.143,33.13,33.143h153.168
				c23.334,0,35.491-14.218,38.527-18.281c11.5-14.861,13.19-36.85,13.19-57.125c0-15.897-1.014-41.241-13.523-55.787
				c-7.09-8.118-20.618-15.56-38.876-15.56H146.595v-16.897c0-8.789,0.347-14.199,14.548-14.199h133.209V37.765L294.353,37.765z
				 M159.484,215.608c-8.59,0-12.889-0.806-12.889-15.558v-20.961h61.203c4.387,0,11.829,0,16.904,4.05
				c5.07,3.726,5.07,8.117,5.07,13.537c0,4.05,0,10.474-4.39,14.519c-4.736,4.401-13.197,4.401-17.584,4.401h-44.965
				C161.652,215.596,160.537,215.608,159.484,215.608L159.484,215.608z"/>
		</g>
		<g>
			<path fill="#58595B" d="M433.67,296.342v154.301h-72.933V296.676c8.58,10.81,21.83,17.688,36.337,17.688
				C411.727,314.364,425.099,307.344,433.67,296.342 M438.67,274.063h-0.703c-2.94,19.961-20.1,35.302-40.892,35.302
				c-20.783,0-37.958-15.341-40.894-35.302h-0.443v181.58h82.933V274.063L438.67,274.063z"/>
		</g>
		<path fill="#58595B" d="M438.533,455.643h58.741v-181.58h-58.741V455.643z M277.882,271.977c-15.603,0-37.44,1.799-46.802,30.083
			l-29.382,88.212c-0.518,1.795-3.372,8.296-5.462,8.296c-2.068,0-4.934-6.501-5.452-8.296l-29.389-88.212
			c-9.353-28.284-31.192-30.083-46.53-30.083c-9.357,0-44.718,0-44.718,31.909v151.757h59.013l-1.822-110.521
			c0-1.821-0.255-5.949,2.082-5.949c1.311,0,2.607,3.101,3.637,6.479l28.087,87.684c4.155,13.222,9.362,24.371,35.092,24.371
			c25.743,0,30.943-11.149,35.105-24.371l28.076-87.684c1.548-4.926,2.6-6.479,3.639-6.479c1.043,0,2.347,1.027,2.347,5.949
			l-2.082,110.521h59.285V303.886C322.605,292.728,319.222,271.977,277.882,271.977z M726.578,319.189h45.163v-45.127h-73.497
			c-20.555,0-47.081,2.315-63.7,23.591c-13.002,16.345-15.869,39.169-15.869,69.507c0,34.776,5.734,52.683,16.654,66.175
			c14.803,18.413,33.777,22.308,62.139,22.308h74.273v-45.136H727.61c-19.495,0-36.397,0-44.205-14.281
			c-1.561-3.101-4.392-9.844-4.392-30.093c0-8.807,0.767-23.613,5.963-32.681C693.048,318.942,707.32,319.189,726.578,319.189z
			 M559.157,362.513c0-1.562,0.767-5.456,7.533-13.51l63.179-74.94h-69.681L511.3,342.52c-3.881,5.466-8.31,13.519-8.31,20.239
			c0,7.775,6.255,16.875,10.675,22.577l55.107,70.307h70.73l-70.73-76.79C564.882,374.689,559.157,368.471,559.157,362.513z"/>
	</g>
	<g>
		<rect x="69.756" y="480.973" fill="#58595B" width="702.141" height="79.241"/>
		<path fill="#FFFFFF" d="M100.323,515.968l-30.466,1.817v8.665l8.293-0.492l2.032,34.215h10.3l-2.066-34.827l12.423-0.735
			L100.323,515.968z M285.642,504.979l-3.913,15.391c-1.246,5.159-2.452,11.264-3.346,16.601l-0.27,0.014
			c-1.333-5.264-3.027-10.866-4.812-16.034l-5.36-14.925l-13.694,0.83l-0.215,45.643l9.524-0.57l-0.148-17.336
			c-0.059-5.661-0.226-12.692-0.372-18.842l0.13-0.01c1.502,5.862,3.374,12.25,5.18,17.56l5.892,17.254l8.04-0.466l4.484-18.075
			c1.443-5.442,2.945-12.035,4.077-17.906l0.146-0.027c0.393,6.62,0.977,13.213,1.502,18.673l1.781,17.368l9.99-0.594l-5.127-45.346
			L285.642,504.979z M212.58,509.315l-8.725,18.464c-2.411,5.018-5.09,11.208-7.207,16.683l-0.196,0.005
			c-0.023-6.072-0.242-13.323-0.678-20.618l-0.803-13.492l-9.453,0.553l2.703,45.501l11.667-0.698l8.28-16.943
			c2.424-4.958,5.029-11.126,6.8-16.664l0.199-0.01c-0.247,5.981-0.021,12.209,0.402,19.203l0.804,13.428l9.441-0.534l-2.696-45.506
			L212.58,509.315z M154.051,516.104c-3.191-2.246-7.784-3.205-14.13-2.821c-6.269,0.379-10.704,1.036-13.843,1.767l2.669,44.895
			l10.186-0.612l-0.973-16.34c0.961,0.15,2.182,0.164,3.532,0.073c6.065-0.365,11.183-2.224,14.496-5.68
			c2.616-2.648,3.81-6.579,3.536-11.031C159.256,521.898,157.151,518.228,154.051,516.104z M140.952,535.176
			c-1.545,0.082-2.573,0.082-3.458-0.068l-0.785-13.446c0.726-0.232,2.134-0.461,4.155-0.57c5.193-0.307,8.262,2.014,8.499,6.2
			C149.641,531.879,146.419,534.838,140.952,535.176z M642.452,521.319l-2.21-37.384l-10.264,0.607l2.201,37.045l-15.935,0.954
			l-2.2-37.055l-10.245,0.604l2.693,45.487l32.197-1.909l1.223,11.446l7.816-0.47l-0.666-19.326H642.452z M698.106,480.831
			l1.023,17.139l-16.957,1.005l-1.022-17.478l-10.255,0.612l2.694,45.482l10.254-0.603l-1.123-19.029l16.948-0.995l1.123,19.016
			l10.264-0.607l-2.64-44.542H698.106z M564.288,488.455l2.713,45.465l10.245-0.598l-2.685-45.506L564.288,488.455z
			 M745.179,480.831c-5.68,4.516-8.83,11.861-8.318,20.463c0.785,13.017,9.341,22.737,22.782,21.951
			c4.903-0.311,9.132-1.789,12.491-4.269v-38.146H745.179z M759.688,515.027c-6.895,0.429-11.441-5.602-11.972-14.583
			c-0.521-8.839,3.132-15.701,10.154-16.121c7.067-0.41,11.341,6.374,11.834,14.605
			C770.226,507.769,766.638,514.635,759.688,515.027z M520.147,491.063l-3.898,15.399c-1.251,5.142-2.447,11.25-3.352,16.578
			l-0.273,0.014c-1.333-5.25-3.014-10.853-4.813-16.021l-5.342-14.925l-13.706,0.813l-0.219,45.66l9.515-0.552l-0.146-17.331
			c-0.055-5.689-0.2-12.738-0.374-18.889l0.137-0.009c1.507,5.871,3.37,12.268,5.178,17.573l5.908,17.268l8.035-0.479l4.465-18.085
			c1.434-5.415,2.959-12.03,4.082-17.929h0.155c0.401,6.634,0.977,13.213,1.516,18.669l1.771,17.372l9.98-0.589l-5.123-45.351
			L520.147,491.063z M418.086,535.048c-8.232,0.475-13.83-3.799-14.894-10.428l20.575-1.229l-0.473-8.035l-20.668,1.228
			c0.662-6.127,4.967-11.254,13.145-11.747c3.703-0.224,7,0.471,9.074,1.287l1.626-7.948c-1.937-0.845-5.938-1.954-11.677-1.621
			c-16.34,0.995-23.682,12.93-22.97,25.084c0.854,14.304,10.291,22.823,25.211,21.933c5.342-0.324,9.581-1.789,11.553-2.926
			l-2.018-7.652C424.334,534.066,420.857,534.879,418.086,535.048z M340.306,501.728l-11.126,46.314l10.602-0.635l2.543-11.861
			l13.026-0.772l4.187,11.451l11.136-0.644l-16.856-44.652L340.306,501.728z M343.333,527.757l2.132-9.816
			c0.607-2.676,1.05-6.154,1.58-8.89l0.132-0.014c0.836,2.662,1.85,5.99,2.808,8.647l3.419,9.465L343.333,527.757z"/>
	</g>
</g>
</svg>
