<svg xmlns="http://www.w3.org/2000/svg" width="841.89" height="595.28" viewBox="0 0 841.89 595.28"><path fill="#58595B" d="M420.99 171.43c-.053-.083-.106-.168-.152-.26-.054.092-.1.176-.146.26-29.63-47.038-84.005-24.124-81.958 17.633.33 6.738 2.545 24.953 27.054 40.914 48.028 31.285 54.904 49.147 54.904 49.147s.07-.03.146-.06c.07.03.153.06.153.06s6.862-17.862 54.897-49.147c24.502-15.96 26.717-34.175 27.047-40.914 2.046-41.757-52.336-64.67-81.943-17.632z"/><path fill="#808285" d="M455.027 475.55h-210.64c-.543 0-.98-.405-.98-.92 0-.505.437-.92.98-.92h210.64c.53 0 .975.415.975.92 0 .515-.445.92-.975.92zM597.57 475.55h-109.6c-.507 0-.93-.405-.93-.92 0-.505.423-.92.93-.92h109.6c.506 0 .912.415.912.92 0 .515-.406.92-.912.92z"/><g fill="#58595B"><path d="M399.656 438.08c-.238 0-1.932 1.9-5.098 5.672-3.166 3.787-5.604 5.68-7.32 5.68-2.416 0-3.627-2.805-3.627-8.432 0-6.08.944-10.648 2.814-13.684.23-.392.62-.667 1.173-.82.544-.153.82-.276.82-.353 0-.153-.115-.43-.353-.82-1.25-1.955-3.28-2.92-6.087-2.92-1.25 0-2.537.268-3.863.812-3.665 1.257-7.45 4.745-11.354 10.48-3.91 5.733-5.85 10.632-5.85 14.687 0 2.66 1.205 3.98 3.627 3.98 4.055 0 8.7-4.64 13.93-13.93-.162 1.24-.238 2.422-.238 3.51 0 6.708 2.383 10.066 7.144 10.066 1.403 0 2.798-.353 4.216-1.05 3.036-1.557 6.27-5.114 9.713-10.656.467-.698.698-1.25.698-1.633 0-.392-.114-.59-.344-.59zm-26.455 5.38c-2.728 3.597-4.96 5.39-6.676 5.39-1.088 0-1.64-.82-1.64-2.46 0-3.665 2.384-8.38 7.152-14.16 3.35-3.985 6.593-5.972 9.705-5.972.392 0 .745.04 1.05.115-2.567 6.555-5.764 12.25-9.59 17.088zM546.6 427.562c0-.805-.307-1.518-.912-2.13-.613-.6-1.28-.906-2.002-.906-.574 0-1.18.33-1.824.966-.73 1.94-1.44 3.45-2.13 4.493-.69 1.065-1.435 2.307-2.247 3.77-5.59 9.483-9.56 14.214-11.906 14.214-1.55 0-2.308-1.29-2.308-3.88 0-2.024 2.92-10.52 4.943-14l3.168-5.587c0-.65-.613-.974-1.834-.974-2.26 0-4.286 2.107-6.08 6.315-.98 2.108-2.308 5.95-3.265 9.322-7.82 9.422-14.95 14.213-21.412 14.358 3.81-2.415 7.344-6.67 10.588-12.75 3.235-6.086 4.86-11.437 4.86-16.036 0-3.673-1.25-5.505-3.748-5.505-2.73 0-6.125 2.49-10.182 7.49-2.66 3.357-5.074 7.02-7.26 11 0-.705.055-1.81.178-3.335.115-1.518.176-2.667.176-3.45 0-5.304-1.326-7.964-3.986-7.964-2.414 0-3.627.16-3.627.475 0 .308.224.714.646 1.22.43.522.645 1.158.645 1.933 0 3.672-1.595 7.82-4.76 12.434-.253.2-.49.453-.735.798-2.102 2.5-4.646 4.722-7.613 6.677-3.426 2.262-6.516 3.39-9.246 3.39-2.88 0-4.33-1.604-4.33-4.8 0-1.326.275-2.967.82-4.922 2.736-1.004 5.734-3.035 9.008-6.08 3.672-3.434 5.512-6.354 5.512-8.776 0-.782-.29-1.525-.883-2.224-.59-.697-1.27-1.05-2.047-1.05-3.98 0-7.85 2.568-11.59 7.72-3.174 4.377-4.906 8.433-5.205 12.174-4.876 5.29-9.575 7.957-14.104 7.957-4.21 0-6.324-2.414-6.324-7.25 0-2.976 1.064-6.134 3.158-9.492 2.268-3.664 4.807-5.496 7.61-5.496 2.032 0 3.044.82 3.044 2.46 0 .392-.13.93-.406 1.642-.268.697-.414 1.21-.414 1.518 0 .39.154.59.47.59.704 0 1.616-.958 2.76-2.866 1.126-1.917 1.685-3.26 1.685-4.04 0-1.955-1.25-2.93-3.74-2.93-3.74 0-7.743 2.31-12 6.908-4.253 4.607-6.376 8.815-6.376 12.642 0 6.163 2.883 9.245 8.662 9.245 3.113 0 6.08-.904 8.9-2.69 2.7-1.832 5.037-3.787 7.076-5.834.314 5.352 2.736 8.058 7.313 8.058 3.436 0 7.223-1.364 11.354-4.102 3.25-2.14 5.772-4.462 7.673-6.923.813-.115 2.652-2.515 5.55-7.237.077 2.108.124 4.57.124 7.367v.705c-5.084 6.945-10.105 13.853-15.104 20.73-7.02 10.37-10.533 17.47-10.533 21.295 0 2.883.975 4.33 2.922 4.33 3.672 0 8.432-4.752 14.28-14.28 4.134-6.86 7.415-13.416 9.83-19.664 2.03.553 3.212.82 3.52.82h3.042c1.402.077 2.453.115 3.158.115 3.434 0 7.643-1.87 12.64-5.618 3.022-2.162 5.49-4.34 7.415-6.51-.115.63-.178 1.15-.178 1.55 0 4.53 1.333 6.8 4.01 6.8 2.1 0 4.49-1.58 7.167-4.745.406-.476 1.035-1.326 1.88-2.538.85-1.22 1.962-2.8 3.35-4.746-.575.974-1.02 2.154-1.343 3.526s-.49 2.63-.49 3.757c0 2.354.88 3.817 2.314 4.868 2.96 2.17 7.912-2.208 8.203-2.492.14-.13.3-.3.44-.437-.124 1.894-.562 3.664-1.304 5.32-1.166 2.683-2.83 4.086-4.96 4.193-.782.106-1.65-.2-2.606-.92-.998-.676-1.504-.96-1.504-.845-.566 0-.988.307-1.256.928-.4.73.3 1.564 2.092 2.515 1.564.675 2.828 1.012 3.78 1.012 2.513-.275 4.34-1.74 5.458-4.362.39-.904.73-1.9 1.012-2.99.283-1.08.475-2.3.582-3.648.14-1.165.162-2.093.092-2.813.453-.674.652-1.227.545-1.655-.167-.652-.444-.73-.85-.253-1.542 1.7-2.792 2.98-3.765 3.832-.98.85-1.748 1.34-2.314 1.464-.567.115-.966-.038-1.204-.49-.252-.445-.375-1.112-.375-2 0-2.838 1.42-7.008 4.255-12.52l4.375-8.144zm-80.932 3.142c2.254-3.587 3.98-5.38 5.145-5.38.936 0 1.41.46 1.41 1.4 0 1.872-1.295 4.064-3.863 6.556-2.193 2.192-4.3 3.71-6.324 4.57.466-1.718 1.67-4.102 3.632-7.146zm20.715 21.542c-1.803 7.252-3.48 12.365-5.037 15.332-6.002 11.238-10.732 16.85-14.16 16.85-.475 0-.705-.345-.705-1.05 0-1.64 1.442-5.23 4.333-10.763 2.492-4.77 4.56-8.31 6.2-10.656 3.75-5.467 6.564-9.6 8.435-12.412.543-.774.973-1.165 1.28-1.165.083 0 .16.038.237.114-.467.782-.705 1.64-.705 2.576 0 .4.037.782.123 1.173zm9.36-.138c-1.84.697-5.636 0-4.325-3.726 1.627-4.623 3.273-9.253 5.613-13.692 3.12-6.018 6.095-9.644 8.894-10.893.39-.153.78-.23 1.172-.23 1.326 0 1.994 1.21 1.994 3.626 0 4.063-1.357 8.893-4.102 14.512-2.89 5.934-5.758 9.062-9.246 10.403zM595.424 437.604c-.238 0-1.172 1.142-2.813 3.396-1.946 2.737-3.786 4.845-5.505 6.332-2.49 2.254-4.828 3.39-7.014 3.39-2.812 0-4.216-1.48-4.216-4.447 0-1.48.37-2.89 1.11-4.21.737-1.333 1.542-2.89 2.4-4.683.315-.782.468-1.25.468-1.41 0-1.64-.857-2.53-2.574-2.69-.078 0-.354.137-.82.413-.47.27-1.25 1.388-2.346 3.327-.393.16-.775.237-1.166.237h-1.166c.86-.936 1.52-2.086 1.986-3.45.475-1.365.744-2.79.82-4.278.076-1.48-.06-2.866-.414-4.146-.346-1.288-.975-2.308-1.863-3.052-.905-.735-2.093-1.08-3.58-1.058-1.48.046-3.274.66-5.374 1.824-2.967 1.718-4.89 3.488-5.734 5.328-.867 1.824-.982 3.55-.36 5.144.628 1.603 1.854 2.913 3.687 3.926 1.83 1.012 3.925 1.556 6.263 1.633-.943 1.41-1.64 2.423-2.107 3.044-2.338 3.28-4.447 5.565-6.318 6.854-1.877 1.28-3.334 1.732-4.393 1.342-1.05-.384-1.602-1.557-1.64-3.51-.038-1.948.567-4.524 1.817-7.73-.162-.536-.506-1.034-1.05-1.464-.546-.43-1.18-.644-1.872-.644-.705 0-1.37.276-1.992.828-.62.536-1.05 1.556-1.29 3.035-.542 3.044-.45 5.466.294 7.268.742 1.786 1.893 2.96 3.457 3.504 1.554.552 3.394.452 5.503-.292 2.1-.735 4.238-2.16 6.432-4.27.39-.398 1.25-1.388 2.568-2.982 1.326-1.61 2.66-3.296 3.986-5.098.39 0 .82-.038 1.286-.123.47-.068.936-.184 1.404-.345-.545 1.25-.975 2.423-1.297 3.52-.076.46-.107.942-.107 1.456v1.58c0 5.618 2.217 8.424 6.67 8.424 5.695 0 11.2-4.408 16.506-13.224.475-.782.697-1.44.697-1.993 0-.46-.116-.706-.346-.706zm-26.694-.69c-2.107-.552-3.756-1.625-4.975-3.22-1.21-1.603-1.77-3.12-1.688-4.57.07-1.44.836-2.536 2.277-3.272 1.45-.743 3.803-.56 7.084.52.537.162.836.606.88 1.35.032.744-.083 1.603-.358 2.57-.27.98-.697 2.046-1.28 3.226-.59 1.172-1.227 2.3-1.94 3.396zM357.984 419.236c-2.89 0-6.202 2.146-9.958 6.44-2.806 3.195-5.182 6.554-7.13 10.064.775-2.73 1.85-5.597 3.213-8.61 1.364-2.996 2.713-5.557 4.04-7.657 8.432-5.23 15.8-11.04 22.123-17.44 9.836-10.073 14.75-17.915 14.75-23.534 0-3.198-1.764-4.793-5.274-4.793-6.004 0-13.77 7.598-23.29 22.822-6.165 9.827-10.496 17.21-12.987 22.123-2.967 6.087-5.174 11.49-6.616 16.206-1.45 4.722-2.17 8.562-2.17 11.53 0 4.215 1.45 6.323 4.333 6.323.39 0 .59-.16.59-.468 0-.322-.3-.705-.89-1.173-.574-.468-.873-1.135-.873-1.993 0-3.274 2.03-8.227 6.086-14.857 4.293-7.106 7.728-10.656 10.303-10.656 1.165 0 1.756 1.288 1.756 3.856 0 4.216-.744 8.08-2.224 11.59-1.64 4.057-3.74 7.613-6.324 10.656-3.32 3.855-6.133 5.55-10.457 5.84-14.405.47-20.706-7.098-21.633-8.34 5.833-3.887 10.586-8.4 14.243-13.546 4.293-5.994 6.44-12.09 6.44-18.253 0-10.218-5.705-17.945-17.096-23.173-8.738-4.056-18.88-6.087-30.433-6.087-5.152 0-10.732.468-16.735 1.402-7.175 1.173-12.526 2.69-16.045 4.562-2.415 1.334-3.618 2.852-3.618 4.57 0 1.172.505 1.754 1.517 1.754.39 0 .897-.146 1.525-.46 10.22-5.78 21.925-8.67 35.118-8.67 9.905 0 18.683 1.756 26.325 5.267 9.913 4.677 14.865 11.438 14.865 20.246 0 5.467-1.9 10.933-5.734 16.39-3.273 4.686-7.49 8.825-12.634 12.413-7.65-10.066-21.97-15.34-42.96-15.8 6.24-12.572 13.03-23.804 20.368-33.716.153-.23.237-.468.237-.697 0-.63-.552-.936-1.64-.936-2.66 0-4.647.85-5.98 2.576-2.415 3.74-4.247 6.822-5.496 9.237-4.13 7.497-7.957 15.34-11.468 23.535-5.55.307-10.464 1.87-14.75 4.676-4.913 3.357-7.374 7.65-7.374 12.88 0 4.37 3.043 7.834 9.138 10.41 4.516 1.954 9.437 3.05 14.742 3.28 1.48.085 3.043.123 4.684.123 15.103 0 28.464-3.472 40.11-10.395 1.624 2.8 10.54 9.322 25.052 8.518.26-.03.46-.062.644-.07.13-.02.26-.037.39-.06.315-.03.515-.07.76-.123.353-.07.706-.16 1.066-.246.115-.03.214-.053.36-.084.07-.016.1-.038.13-.062 2.652-.82 5.274-2.422 7.865-4.853 3.272-3.128 5.933-6.8 7.964-11 3.036-6.164 4.562-11.676 4.562-16.514 0-3.353-1.174-5.024-3.512-5.024zm-6.202-8.432c5.458-12.404 11.975-21.61 19.54-27.62 4.294-3.436 7.452-5.152 9.476-5.152 1.333.084 1.993.942 1.993 2.575-.152 4.37-4.637 10.81-13.46 19.32-7.337 7.25-13.807 12.518-19.426 15.79.39-1.165 1.012-2.798 1.878-4.913zm-80.83 45.65h-2.93c-4.207-.152-8.11-1.01-11.705-2.567-4.753-2.03-7.137-4.807-7.137-8.317 0-7.88 5.19-12.68 15.57-14.397-3.98 9.683-5.972 16.268-5.972 19.786 0 2.107.62 3.157 1.87 3.157.86 0 1.29-.513 1.29-1.518 0-.238-.04-.553-.116-.943-.077-.384-.115-.698-.115-.936 0-3.35 2.338-10.026 7.022-20.016 1.01-.076 2.03-.114 3.042-.114 6.555 0 13.53 1.288 20.95 3.855 8.273 2.813 14.2 6.44 17.794 10.894-11.546 7.404-24.74 11.115-39.565 11.115z"/></g><g fill="#808285"><path d="M254.017 501.163c0 .392-.138.713-.406.98-.275.262-.605.392-.996.392-.368 0-.69-.13-.974-.39-.284-.27-.422-.59-.422-.982 0-.39.138-.73.422-1.012.284-.275.605-.42.974-.42.39 0 .72.145.997.42.268.285.407.622.407 1.013zm-.4 18.33c0 .153-.02.253-.075.29-.054.047-.16.07-.314.07h-1.25c-.13 0-.23-.023-.3-.07-.068-.037-.1-.137-.1-.29v-13.945c0-.146.032-.245.1-.29.07-.047.17-.07.3-.07h1.25c.153 0 .26.023.314.07s.076.145.076.29v13.945zM279.138 511.973c.498.153.92.353 1.257.605.33.245.605.544.805.866.207.322.353.675.437 1.043.084.375.13.735.13 1.096 0 .63-.123 1.21-.368 1.725-.247.53-.576.98-1.005 1.357-.43.383-.943.675-1.526.882-.59.207-1.235.307-1.948.307h-6.194c-.75 0-1.127-.346-1.127-1.027v-12.604c0-.697.376-1.035 1.128-1.035h5.972c1.288 0 2.346.292 3.174.882.828.583 1.24 1.503 1.24 2.745 0 .62-.152 1.21-.49 1.778-.32.567-.812.98-1.463 1.25l-.022.13zm-7.497-.813h4.922c.23 0 .483-.03.767-.093.29-.06.56-.176.812-.353.253-.16.46-.383.628-.66.177-.274.253-.627.253-1.05 0-.582-.2-1.064-.598-1.464-.398-.398-.958-.59-1.664-.59h-5.12v4.21zm8.027 4.285c0-.782-.27-1.418-.798-1.886-.53-.477-1.327-.722-2.385-.722h-4.845v5.396h4.845c.667 0 1.21-.092 1.633-.275.414-.193.736-.423.958-.7.23-.282.376-.58.46-.91.093-.323.13-.63.13-.905zM302.38 504.88c1.074 0 1.98.147 2.738.46.774.308 1.395.737 1.894 1.305.498.552.858 1.22 1.104 1.985.246.76.36 1.595.36 2.515 0 .782-.176 1.288-.544 1.55-.368.244-.805.374-1.326.374h-8.548c0 .958.115 1.777.36 2.46.245.675.575 1.22.99 1.64.42.415.92.714 1.494.905.567.177 1.18.276 1.833.276.62 0 1.22-.076 1.81-.23.59-.145 1.088-.328 1.502-.55.222-.116.383-.077.475.106l.506.98c.115.23.06.392-.146.484-.644.398-1.35.666-2.093.813-.744.146-1.473.207-2.178.207-2.047 0-3.657-.6-4.837-1.794-1.173-1.204-1.755-3.128-1.755-5.772 0-1.25.153-2.354.475-3.313.314-.965.76-1.77 1.32-2.42.574-.646 1.24-1.144 2.015-1.473.765-.345 1.624-.506 2.55-.506zm4.14 6.51c0-.63-.068-1.234-.19-1.816-.13-.575-.36-1.08-.668-1.525-.307-.44-.728-.783-1.272-1.044-.537-.27-1.22-.39-2.016-.39-.652 0-1.242.12-1.755.374s-.944.59-1.297 1.02c-.36.43-.636.928-.828 1.51-.207.575-.322 1.196-.353 1.87h8.38zM325.22 519.77c-.078.06-.186.084-.33.084h-1.136c-.146 0-.268-.023-.337-.085-.084-.055-.13-.162-.13-.33v-13.838c0-.168.046-.275.13-.33.07-.06.19-.084.337-.084h1.135c.145 0 .252.023.33.085.067.054.106.16.106.33v5.512h7.796v-5.513c0-.168.038-.275.115-.33.07-.06.184-.084.337-.084h1.165c.168 0 .283.023.337.085.06.054.084.16.084.33v13.837c0 .168-.022.275-.083.33-.054.06-.17.084-.338.084h-1.166c-.153 0-.268-.023-.337-.085-.077-.055-.115-.162-.115-.33v-6.57h-7.796v6.57c0 .167-.038.275-.107.33zM355.937 519.77c-.07.06-.177.084-.322.084h-1.157c-.177 0-.3-.023-.36-.085-.062-.055-.1-.17-.1-.36V506.95h-4.47c-.19 0-.307-.038-.36-.1-.062-.07-.084-.17-.084-.29v-.93c0-.152.022-.252.084-.337.054-.068.17-.107.36-.107h11.23c.193 0 .308.04.346.107.053.085.076.185.076.338v.928c0 .123-.023.223-.076.292-.04.062-.153.1-.345.1h-4.723v12.457c0 .19-.032.305-.1.36zM396.022 519.784c-.054.046-.16.07-.3.07h-1.233c-.154 0-.26-.024-.315-.07-.07-.038-.1-.138-.1-.29v-13.946c0-.146.03-.245.1-.29.054-.047.16-.07.314-.07h1.233c.138 0 .245.023.3.07.06.045.09.145.09.29v5.612h2.906c.29 0 .574-.016.85-.077.27-.054.514-.16.75-.307.23-.146.446-.36.63-.636.19-.276.344-.637.475-1.06l1.12-3.594c.03-.14.083-.23.152-.26.07-.032.146-.04.238-.04h1.257c.146 0 .237.04.268.123s.03.168.015.26l-1.065 3.688c-.168.598-.39 1.127-.66 1.602-.268.476-.658.82-1.156 1.05l-.023.047c.706.207 1.212.544 1.52 1.012s.56 1.01.735 1.624l1.434 4.838c.015.1.015.19 0 .283-.024.092-.116.14-.285.14h-1.365c-.076 0-.153-.017-.23-.04-.076-.03-.122-.1-.16-.237l-1.372-4.67c-.246-.78-.62-1.325-1.15-1.616-.52-.3-1.08-.452-1.67-.452h-3.213v6.654c0 .152-.032.252-.093.29zM432.107 512.447c0 2.5-.568 4.416-1.68 5.734s-2.715 1.98-4.79 1.98c-2.064 0-3.65-.645-4.73-1.94-1.09-1.295-1.634-3.188-1.634-5.688 0-1.227.16-2.323.475-3.28.314-.96.76-1.765 1.34-2.4.568-.645 1.258-1.135 2.032-1.464.783-.346 1.648-.507 2.592-.507 2.086 0 3.664.66 4.762 1.994 1.08 1.334 1.633 3.19 1.633 5.573zm-2.046.1c0-.76-.062-1.502-.198-2.223-.123-.72-.346-1.35-.66-1.91-.322-.543-.768-.987-1.334-1.317-.574-.322-1.28-.482-2.14-.482-.78 0-1.448.153-2.007.467-.56.33-1.013.752-1.364 1.28-.36.53-.62 1.158-.79 1.863-.17.705-.253 1.456-.253 2.238 0 .882.076 1.68.23 2.407.145.736.39 1.364.728 1.91.33.535.774.957 1.335 1.264.56.29 1.248.444 2.063.444.842 0 1.547-.168 2.115-.514.566-.345 1.027-.805 1.357-1.364.328-.56.574-1.196.713-1.9.137-.714.208-1.435.208-2.163zM448.926 508.508v10.985c0 .153-.03.253-.1.29-.06.047-.176.07-.314.07h-1.18c-.146 0-.254-.023-.307-.07-.063-.037-.086-.137-.086-.29v-13.386c0-.222.07-.43.206-.628.146-.193.4-.293.775-.293h.75c.278 0 .5.047.66.14.155.1.315.298.454.612.152.313.375.78.682 1.4.29.606.605 1.26.928 1.926.33.667.645 1.31.936 1.924.3.62.53 1.09.674 1.403l1.648 3.54h.084c.115-.214.27-.535.46-.973.2-.43.407-.874.636-1.34.215-.47.43-.914.62-1.343.2-.43.355-.744.462-.943.14-.253.322-.628.574-1.157.254-.514.514-1.065.797-1.648.277-.576.545-1.128.8-1.65.25-.513.442-.895.565-1.14.154-.315.3-.515.438-.614.137-.092.367-.14.69-.14h.72c.375 0 .63.1.768.293.145.198.207.405.207.627v13.386c0 .153-.023.253-.078.29-.053.047-.16.07-.314.07h-1.194c-.146 0-.252-.023-.307-.07-.062-.037-.085-.137-.085-.29V508.34h-.115l-1.25 2.69c-.06.13-.184.39-.375.78-.176.392-.414.867-.69 1.435-.284.575-.59 1.21-.942 1.932-.346.72-.705 1.472-1.096 2.276-.14.26-.262.445-.393.56-.137.107-.344.17-.643.17h-.56c-.3 0-.52-.055-.65-.154-.146-.1-.285-.3-.406-.576l-3.02-6.18c-.062-.09-.153-.267-.27-.527-.122-.26-.253-.545-.39-.852-.14-.313-.277-.59-.4-.85-.137-.27-.22-.438-.26-.537h-.108zM479.805 519.784c-.06.046-.16.07-.307.07h-1.258c-.137 0-.236-.024-.3-.07-.06-.038-.09-.138-.09-.29v-13.24c0-.215.075-.438.214-.69.154-.253.438-.376.867-.376h10.013c.428 0 .713.123.857.376.154.253.23.476.23.69v13.24c0 .152-.03.252-.084.29-.055.046-.154.07-.3.07h-1.272c-.145 0-.244-.024-.3-.07-.06-.038-.083-.138-.083-.29v-12.49h-8.103v12.49c.002.152-.03.252-.082.29zM516.602 518.573c0 .33-.13.56-.39.674-.837.354-1.733.59-2.685.72-.943.132-1.863.193-2.736.193-1.194 0-2.177-.123-2.935-.392-.768-.26-1.365-.598-1.81-1.02-.452-.422-.76-.904-.942-1.456-.178-.553-.262-1.127-.262-1.726 0-.697.116-1.34.362-1.954.236-.6.605-1.127 1.104-1.58.498-.452 1.11-.797 1.863-1.05.74-.253 1.624-.376 2.65-.376h3.718v-.743c0-.46-.053-.882-.145-1.28-.084-.39-.27-.73-.53-1.012-.26-.268-.628-.49-1.09-.644-.466-.16-1.07-.237-1.815-.237-.613 0-1.287.06-2.023.183-.744.123-1.365.27-1.893.438-.123.04-.23.055-.307.04-.07-.01-.13-.077-.17-.208l-.275-1.012c-.055-.215.016-.353.23-.43.328-.13.697-.253 1.088-.353.39-.107.797-.2 1.21-.275.423-.07.845-.123 1.274-.153.43-.024.828-.04 1.203-.04 1.8 0 3.143.4 4.01 1.196.865.805 1.295 1.978 1.295 3.52v8.977zm-2.092-6.156h-3.604c-.338 0-.736.03-1.203.092-.47.053-.906.19-1.326.405-.422.215-.775.537-1.06.96-.298.42-.437.987-.437 1.724 0 .56.1 1.026.322 1.394.207.376.506.683.867.905.358.22.772.374 1.24.467.468.084.942.122 1.448.122.176 0 .398-.01.684-.023.3-.023.613-.054.965-.093.354-.038.713-.1 1.082-.184.366-.084.704-.176 1.02-.29v-5.483zM533.988 519.77c-.068.06-.184.084-.33.084h-1.135c-.145 0-.26-.023-.336-.085-.086-.055-.13-.162-.13-.33v-13.838c0-.168.044-.275.13-.33.076-.06.19-.084.336-.084h1.135c.146 0 .262.023.33.085.068.054.107.16.107.33v5.512h7.797v-5.513c0-.168.037-.275.115-.33.076-.06.184-.084.336-.084h1.166c.167 0 .274.023.337.085.053.054.084.16.084.33v13.837c0 .168-.03.275-.083.33-.063.06-.17.084-.338.084h-1.167c-.152 0-.26-.023-.336-.085-.078-.055-.115-.162-.115-.33v-6.57h-7.797v6.57c0 .167-.038.275-.107.33zM562.406 501.163c0 .392-.14.713-.406.98-.275.262-.605.392-.996.392-.37 0-.697-.13-.975-.39-.284-.27-.415-.59-.415-.982 0-.39.13-.73.414-1.012.276-.275.604-.42.974-.42.39 0 .72.145.996.42.268.285.406.622.406 1.013zm-.39 18.33c0 .153-.03.253-.084.29-.063.047-.162.07-.307.07h-1.258c-.13 0-.23-.023-.29-.07-.07-.037-.1-.137-.1-.29v-13.945c0-.146.03-.245.1-.29.06-.047.16-.07.29-.07h1.258c.145 0 .244.023.307.07.053.045.084.145.084.29v13.945zM588.28 505.188c.337 0 .604.085.804.26.19.186.29.446.29.807v13.293c0 .153-.036.237-.1.268-.067.023-.175.04-.32.04h-1.235c-.153 0-.253-.017-.3-.055-.06-.038-.092-.13-.092-.275v-5.872h-3.94c-.374 0-.72.022-1.042.07-.33.045-.62.145-.896.274-.27.146-.514.353-.713.62-.207.27-.383.638-.537 1.105-.2.637-.398 1.266-.582 1.9-.184.63-.37 1.28-.56 1.926-.038.138-.1.214-.192.253-.092.04-.176.055-.252.055h-1.365c-.216 0-.315-.085-.315-.246 0-.04.008-.062.016-.07.01-.015.017-.038.017-.076l1.28-4.108c.153-.53.368-.98.644-1.388.284-.398.753-.69 1.403-.852-.023 0-.03-.022-.03-.06-.913-.247-1.564-.7-1.954-1.397-.394-.684-.593-1.435-.593-2.255 0-.583.107-1.127.314-1.633.2-.514.5-.966.905-1.342.4-.383.89-.683 1.465-.912.574-.223 1.242-.33 1.986-.33h5.893zm-5.735 1.763c-.482 0-.904.07-1.25.2-.36.146-.65.322-.865.56-.23.23-.39.498-.506.79-.115.3-.17.605-.17.92 0 .76.23 1.372.69 1.848.452.475 1.212.705 2.263.705h4.62v-5.02h-4.782z"/></g><g><path fill="#BCBEC0" d="M565.19 98.734c-23.062-24.263-59.696-31.33-89.778-14.12-38.086 21.778-50.94 58.606-54.575 77.932-3.634-19.326-16.49-56.154-54.574-77.933-30.09-17.21-66.726-10.142-89.77 14.12-17.548 18.422-33.4 45.83-31.914 72.292 2.345 42.102 22.46 66.625 59.848 90.973 74.384 48.45 102.495 81.705 112.285 96.186 1.042 1.848 1.778 2.982 1.894 3.15l2.238 3.374 2.247-3.374c.115-.176.904-1.372 2-3.35 9.912-14.58 38.107-47.76 112.154-95.987 37.387-24.347 57.504-48.87 59.85-90.973 1.478-26.462-14.375-53.87-31.907-72.29zm-43.237 85.614c2.322.79 4.438 2.545 5.643 4.684 4.285 7.137-2.24 14.128-9.107 9.943-1.343-.828-2.5-1.855-3.452-3.082 0 0-.068.092-.137.307-1.11 4.324 1.503 8.67 5.888 10.234 3.12.997 6.01.706 8.71-.835 2.774-1.526 5.09-4.455 5.833-8.242.16-.935.23-1.886.2-3.043.03-.276-.03-.46-.03-.644 4.4 7.89 2.16 17.088-6.25 19.71.3.29.66.52.99.79-1.9-.184-3.817-.215-5.696-.07-12.54.484-25.496 6.01-35.877 12.934-1.563 1.004-2.95 2.2-4.445 3.312-2.346 1.633-4.34 3.703-6.363 5.734-.845-.62-1.642-1.288-2.446-1.97.674-.437 1.334-.874 2.03-1.334 17.364-11.33 27.108-25.92 28.274-42.255 3.425-4.838 8.86-8.25 16.235-6.172zm17.893 50.32c.375 7.804-9.645 10.257-9.645 10.257-14.442 3.672-29.153 1.143-43.075-3.534-1.012-.398-2.023-.85-3.043-1.31.307-.368.62-.73.988-1.065 14.12-16.283 53.785-24.34 54.776-4.347zm-155.47 33.7c4.686-3.917 9.56-4.055 14.636-.437 6.578 4.915 5.382 16.276 1.932 22.5-.03.047-3.71 10.113-23.427 11.324 1.02-5.765 1.587-11.583 1.717-17.433.062.047.077.124.146.177 2.66 2.124 5.742 2.515 7.935 2.13 2.284-.398 4.01-1.47 5.213-3.21.146-.246.207-.37.207-.37-9.124 1.642-14.52-7.856-8.358-14.68zm6.395-10.717c-6.707.177-11.2 2.784-13.468 7.813-2.315-8.732-5.673-16.973-11.254-23.987 1.748-1.31 3.488-2.645 5.213-3.986 12.62 8.586 21.91 16.015 28.703 22.155-2.668-1.396-5.765-2.155-9.192-1.994zm-33.323-27.305c-1.495-1.112-2.882-2.308-4.446-3.312-10.37-6.922-23.334-12.45-35.868-12.933-1.87-.146-3.795-.115-5.696.07.322-.27.69-.5.99-.79-8.41-2.623-10.65-11.822-6.25-19.71 0 .184-.053.368-.03.644-.022 1.157.04 2.108.192 3.043.75 3.787 3.066 6.716 5.834 8.24 2.706 1.542 5.596 1.833 8.716.836 4.378-1.563 7-5.91 5.88-10.234-.06-.216-.122-.308-.122-.308-.966 1.227-2.116 2.254-3.465 3.082-6.868 4.186-13.384-2.806-9.09-9.943 1.195-2.138 3.304-3.893 5.634-4.683 8.134-2.292 12.917 1.44 16.306 7.09 1.434 16.008 11.162 30.305 28.28 41.428.65.422 1.28.835 1.924 1.265-.79.674-1.58 1.333-2.415 1.947-2.027-2.03-4.012-4.1-6.373-5.732zm.138 9.736c-1.004.46-2.024.913-3.036 1.312-13.923 4.676-28.634 7.206-43.077 3.534 0 0-10.027-2.453-9.636-10.257.974-19.994 40.646-11.937 54.767 4.346.368.336.682.696.98 1.065zm71.433 67.148c.514 2.775.844 5.673.85 8.662.008 13.033-5.748 24.48-9.014 29.898-3.266-5.413-9.038-16.813-9.046-29.883 0-1.563.092-3.104.245-4.615.023-.16.03-.33.054-.475.092-.905.253-1.778.398-2.66.215-1.272.476-2.515.75-3.733.162-.69.308-1.396.5-2.07.022-.092.038-.19.068-.283 1.98-6.962 4.96-12.658 6.984-16.04 2.392 3.98 6.11 11.178 7.95 19.848.09.445.177.897.26 1.35zm-8.31-130.967c.03-.007.092-.007.146-.007 1.135.04 2.215-.514 2.82-1.472 9.66-15.354 22.923-23.802 37.358-23.802 9.727 0 19.22 4.086 25.994 11.2 6.977 7.33 10.54 17.195 10.012 27.797-.697 14.167-9.244 26.977-24.715 37.05-33.162 21.61-46.44 36.866-51.47 44.18-5.02-7.314-18.33-22.57-51.507-44.18-15.462-10.073-24.018-22.883-24.7-37.05-.513-10.602 3.036-20.468 10.004-27.797 6.792-7.114 16.26-11.2 26.01-11.2 14.437 0 27.698 8.448 37.357 23.803.582.913 1.594 1.48 2.69 1.48zm21.962 91.67c5.068-3.617 9.943-3.48 14.62.438 6.18 6.823.774 16.32-8.35 14.68 0 0 .054.124.208.37 1.195 1.74 2.928 2.812 5.205 3.21 2.2.384 5.273-.007 7.94-2.13.07-.054.093-.13.14-.176.13 5.85.713 11.668 1.717 17.433-19.71-1.21-23.39-11.277-23.412-11.323-3.457-6.225-4.644-17.587 1.932-22.5zm8.234-10.28c-3.344-.152-6.37.553-8.984 1.88 6.752-6.126 15.982-13.524 28.486-22.056 1.725 1.35 3.465 2.683 5.213 4-5.567 7.016-8.94 15.256-11.247 23.988-2.277-5.028-6.77-7.634-13.47-7.81zm-189.888-73.056c-.49.268-1.004.644-1.502 1.042-.59.452-1.11.935-1.58 1.45-.252.268-.49.513-.674.735-.046.07-.115.124-.16.192-.27.337-.415.567-.33.575-.73 1.142-1.28 2.37-1.587 3.672-2.146-6.97-3.542-14.122-3.91-21.46-.958-19.463 5.23-36.497 15.86-51.23-2.16 7.213-2.76 14.626-1.785 22.246 1.64 20.13 20.775 39.78 41.98 37.303 1.4-.14 2.82-.093 4.192-.4 5.573-.804 10.77-3.104 15.424-6.124 10.45-6.63 15.662-16.13 15.63-28.518-.16-4.875-2-11.63-6.937-16.367-4.646-4.453-12.036-5.832-18.023-3.663-3.036 1.096-5.803 3.863-7.582 6.86-2.622 4.578-3.258 10.366.06 14.935.906 1.295 2.584 2.783 4.348 3.458 1.365.575 8.15 2.016 6.485.958-16.712-10.518 8.893-27.398 13.615-8.647.56 8.564-2.806 18.24-10.993 23.39-24.14 13.57-47.16-8.486-49.576-26.9-5.258-40.047 41.39-62.187 74.982-52.152 18.077 5.734 32.297 16.582 42.67 32.527-1.794 10.732-12.228 21.48-24.187 15.516-2.415-1.35-4.263-3.648-5.014-6.117-2.744-8.325 6.61-14.006 13.125-8.126 1.027.858 1.756 1.863 2.254 2.652.45.82.735 1.325.735 1.325s.176-.06.245-.3c2.775-9.252-6.593-14.97-13.715-13.047-3.564.943-7 3.42-8.908 7.145-.49.912-.82 1.87-1.135 3.066-.092.29-.115.497-.153.666-2.684-9.115 2.514-18.046 12.725-18.797-4.516-6.486-15.41-10.665-19.687-1.726-1.097-12.174-18.966-15.63-17.67-2.193-12.16-20.39-45.053 8.035-28.81 21.59-6.34-9.96 8.296-14.942 15.785-14.16 10.35 1.096 16.566 7.436 23.39 14.006 7.497 7.252 9.275 15.056 20.17 19.602 14.994 5.926 27.106 1.472 36.344-13.37 4.5 6.67 11.108 17.548 14.366 29.43-9.36-8.525-20.346-13.07-32.044-13.063-11.814.007-23.29 4.952-31.485 13.57-7.106 7.48-11.223 17.102-11.975 27.56-1.68-1.887-3.664-3.474-6.01-4.563-1.687-.782-5.965-3.028-14.52-1.21-10.227 2.13-13.57 8.96-21.58 14.228-7.245 4.753-13.976 9.398-22.944 8.448-6.468-.697-17.592-8.042-9.91-16.014zm39.304 32.757c-.997.454-1.533 1.013-2.323 1.51-7.33 6.28-10.548 15.693-6.08 24.333.684 1.188 1.52 2.254 2.424 3.243-12.97-10.418-23.05-21.902-30.25-34.183 4.823 3.12 10.78 3.427 16.04-2.338-4.264 12.12 11.56 12.32 15.353 1.326.6 3.558 2.545 5.39 4.983 6.057l-.146.054zm.29 33.885c9.79 5.02 25.575 4.668 39.267 1.84-.207.353-.46.697-.65 1.058-1.144 2.093-1.926 4.3-2.347 6.54-1.502 7.818.805 15.6 5.673 20.728-11.07-8.38-39.543-28.433-41.942-30.165zm46.097.19c4.822-1.37 16.045-6.79 16.045-6.79l3.342 4.553c3.596 4.944 5.78 10.786 7.06 16.735-.397-.813-.873-1.587-1.425-2.277-2.225-2.844-5.674-4.73-9.208-5.052-3.404-.322-6.4.53-8.885 2.583-1.947 1.702-3.113 4.2-3.136 6.7-.015 2.162.69 3.925 2.117 5.313l2.146 1.45.467-1.872c1.012-2.783 2.407-5.81 6.478-5.497 5.703.47 4.914 8.196 1.67 10.864-3.073 2.86-9.367 1.74-12.495.176-12.156-5.956-9.826-19.7-4.176-26.884zm26.156 49.907c-4.117-.59-13.6-7.352-25.09-15.99 3.088 1.647 6.477 2.598 9.857 2.69 3.756.138 8.08-.92 11.047-3.358 3.082-2.37 5.144-5.91 5.78-9.744 1.127 14.022-1.594 26.402-1.594 26.402zm3.64 5.236s23.398 2.66 32.43-18.537c1.73-4.04 1.984-8.7 1.287-13.215-.406-2.836-1.365-5.558-2.79-7.958 5.787 6.04 8.516 10.135 9.627 12.06-3.365 5.87-11.1 21.372-11.1 39.924 0 7.536 1.287 14.56 3.02 20.653-14.043-14.817-32.933-33.316-32.473-32.925zm56.218 32.903c1.74-6.094 3.02-13.107 3.02-20.628 0-18.43-7.634-33.846-11.038-39.81 1.05-1.863 3.695-5.903 9.39-11.898-1.333 2.33-2.253 4.953-2.644 7.682-.682 4.515-.438 9.176 1.287 13.216 9.047 21.197 32.436 18.537 32.436 18.537.46-.393-18.4 18.082-32.45 32.9zm36.098-38.138s-2.73-12.38-1.594-26.402c.62 3.833 2.684 7.375 5.773 9.744 2.96 2.438 7.29 3.496 11.047 3.358 3.373-.092 6.768-1.042 9.85-2.69-11.476 8.638-20.966 15.4-25.076 15.99zm21.965-23.02c-3.12 1.563-9.414 2.682-12.488-.177-3.244-2.668-4.033-10.395 1.67-10.863 4.072-.314 5.46 2.714 6.48 5.497l.466 1.87 2.147-1.45c1.428-1.387 2.133-3.15 2.117-5.312-.03-2.5-1.197-4.998-3.137-6.7-2.475-2.055-5.48-2.906-8.885-2.583-3.533.322-6.975 2.208-9.215 5.052-.55.69-1.02 1.464-1.41 2.277 1.273-5.95 3.457-11.79 7.045-16.735l3.352-4.555s11.23 5.42 16.053 6.792c5.632 7.182 7.964 20.927-4.194 26.884zm8.348 3.088c4.86-5.128 7.16-12.91 5.667-20.73-.414-2.237-1.205-4.445-2.348-6.538-.192-.36-.437-.705-.66-1.058 13.708 2.83 29.485 3.18 39.274-1.84-2.392 1.733-30.87 21.787-41.933 30.166zm48.204-34.964c.898-.99 1.74-2.054 2.424-3.243 4.47-8.64 1.256-18.054-6.08-24.332-.78-.497-1.326-1.057-2.322-1.51l-.146-.053c2.445-.667 4.387-2.5 4.977-6.056 3.803 10.994 19.617 10.795 15.36-1.325 5.26 5.765 11.21 5.458 16.04 2.338-7.208 12.28-17.28 23.765-30.253 34.183zm43.06-75.634c-.358 7.336-1.747 14.49-3.9 21.458-.308-1.303-.85-2.53-1.58-3.672.085-.008-.067-.238-.337-.575-.045-.07-.107-.123-.16-.19-.19-.224-.414-.47-.676-.737-.466-.514-.995-.997-1.585-1.45-.49-.397-1.004-.773-1.494-1.04 7.68 7.972-3.442 15.316-9.92 16.013-8.97.95-15.692-3.696-22.937-8.45-8.02-5.266-11.36-12.096-21.58-14.228-8.563-1.816-12.826.43-14.512 1.21-2.353 1.09-4.34 2.676-6.01 4.555-.75-10.495-4.884-20.17-12.042-27.66-8.195-8.6-19.68-13.537-31.486-13.522-11.682.008-22.637 4.554-31.95 13.04 3.257-11.852 9.843-22.69 14.327-29.346 9.243 14.84 21.356 19.294 36.343 13.37 10.91-4.547 12.68-12.35 20.186-19.603 6.806-6.57 13.03-12.91 23.388-14.006 7.475-.78 22.125 4.202 15.77 14.16 16.252-13.554-16.643-41.98-28.81-21.588 1.296-13.438-16.573-9.98-17.655 2.193-4.293-8.94-15.17-4.76-19.693 1.725 10.21.75 15.4 9.682 12.727 18.797-.04-.17-.055-.375-.154-.667-.314-1.196-.645-2.154-1.127-3.066-1.916-3.726-5.36-6.202-8.916-7.145-7.13-1.925-16.496 3.794-13.723 13.047.078.238.262.3.262.3s.274-.507.735-1.327c.49-.79 1.22-1.794 2.238-2.652 6.516-5.88 15.877-.2 13.123 8.126-.742 2.468-2.59 4.768-5.006 6.118-11.95 5.964-22.393-4.784-24.178-15.516 10.365-15.945 24.584-26.793 42.654-32.527 33.592-10.036 75.44 10.586 75.44 50.978 0 20.353-22.515 41.642-46.647 28.073-6.808-5.273-12.136-13.89-11.585-22.445 4.73-18.767 27.545-2.813 10.832 7.704-1.67 1.057 5.113-.384 6.486-.96 1.756-.674 3.426-2.16 4.34-3.457 3.31-4.57 2.682-10.357.053-14.934-1.78-3-4.545-5.766-7.574-6.862-5.994-2.17-13.377-.79-18.016 3.664-4.943 4.738-6.79 11.492-6.938 16.367-.037 12.387 5.168 21.886 15.615 28.517 4.662 3.02 9.86 5.32 15.434 6.125 1.363.307 2.79.26 4.186.398 21.22 2.476 40.346-17.172 41.986-37.303.972-7.62.374-15.033-1.796-22.247 10.632 14.734 16.827 31.768 15.86 51.232z"/></g></svg>