<?xml version="1.0" encoding="utf-8"?>
<!-- Generator: Adobe Illustrator 16.0.0, SVG Export Plug-In . SVG Version: 6.00 Build 0)  -->
<!DOCTYPE svg PUBLIC "-//W3C//DTD SVG 1.1//EN" "http://www.w3.org/Graphics/SVG/1.1/DTD/svg11.dtd">
<svg version="1.1" id="Layer_1" xmlns="http://www.w3.org/2000/svg" xmlns:xlink="http://www.w3.org/1999/xlink" x="0px" y="0px"
	 width="841.89px" height="595.28px" viewBox="0 0 841.89 595.28" enable-background="new 0 0 841.89 595.28" xml:space="preserve">
<g>
	<g>
		<g>
			<path fill="#58595B" d="M424.084,358.952c-7.836,0-13.097,7.709-13.097,14.901c0,4.023,2.14,8.329,8.144,8.329
				c3.37,0,5.709-1.033,6.561-1.479l0.187-0.097l-0.751-2.202l-0.255,0.138c-1.161,0.631-3.03,1.381-5.377,1.381
				c-3.798,0-5.883-2.269-5.883-6.384c0-5.887,4.08-12.191,10.149-12.191c1.488,0,2.82,0.314,4.064,0.969l0.235,0.12l0.893-2.127
				l-0.124-0.114C428.345,359.754,426.29,358.952,424.084,358.952z"/>
			<path fill="#58595B" d="M457.598,358.948l-0.105,0.004c-3.358,0.038-6.093,1.65-8.122,4.791
				c-0.378-3.062-2.248-4.791-5.221-4.791c-2.884,0-5.548,1.542-7.583,4.372l0.605-3.877h-2.411l-0.025,0.216
				c-0.238,1.765-0.505,3.696-0.909,5.841l-3.095,16.23h2.54l2.217-11.87c0.905-4.849,4.933-8.614,7.796-8.614
				c3.404,0,3.8,2.379,3.8,4.168c0,0.836-0.08,1.627-0.27,2.716l-2.648,13.601h2.545l2.264-12.19
				c0.943-5.125,4.735-8.294,7.704-8.294c2.594,0,3.748,1.33,3.748,4.305c0,0.899-0.166,2.023-0.313,2.899l-2.504,13.28h2.541
				l2.485-13.194c0.237-1.369,0.37-2.688,0.37-3.714C463.007,360.179,459.47,358.948,457.598,358.948z"/>
			<path fill="#58595B" d="M477.116,373.304c-0.646,1.403-1.181,2.544-1.656,3.531c-0.27,0.567-0.516,1.095-0.745,1.581
				c-0.22-1.33-0.517-2.658-0.908-4.419l-2.988-14.55h-2.594l4.514,21.256c0.046,0.281,0.068,0.453-0.068,0.757
				c-1.731,3.123-3.807,5.055-4.614,5.737c-1.173,0.945-2.517,1.69-4.107,2.281l-0.226,0.073l0.738,2.213l0.216-0.052
				c1.395-0.338,3.813-1.536,6.067-3.834c3.103-3.151,5.304-7.13,7.221-10.964c2.188-4.38,5.703-11.928,8.039-17.126l0.154-0.342
				h-2.714L477.116,373.304z"/>
			<path fill="#58595B" d="M495.294,348.96c-0.824-0.077-2.078-0.208-3.482-0.45l-0.303-0.055l0.167,2.454l0.194,0.037
				c1.078,0.181,2.045,0.283,2.819,0.354l0.514,0.055c3.097,0.268,4.72,0.953,6.192,2.604c1.899,2.028,2.574,5.795,2.574,8.41
				c0,0.463,0,0.898-0.007,1.294c-1.066-2.693-3.338-4.216-6.379-4.216c-7.322,0-10.73,8.44-10.73,14.144
				c0,5.41,2.804,8.637,7.507,8.637c8.744,0,12.004-12.259,12.004-19.991c0-2.95-0.799-7.283-3.057-9.785
				C501.252,350.05,498.81,349.35,495.294,348.96z M497.537,361.709c3.641,0,5.297,3.422,5.297,6.614
				c0,4.012-3.158,11.692-8.153,11.692c-4.791,0-5.16-5.028-5.16-6.568C489.521,368.581,492.007,361.709,497.537,361.709z"/>
			<path fill="#58595B" d="M515.875,350.909c-1.046,0-1.913,0.921-1.965,2.101c-0.025,0.607,0.179,1.188,0.557,1.585
				c0.323,0.345,0.761,0.533,1.231,0.533h0.051c1.07,0,1.898-0.86,2.007-2.11C517.756,351.82,516.953,350.909,515.875,350.909z"/>
			<polygon fill="#58595B" points="509.14,381.734 511.678,381.734 515.944,359.447 513.408,359.447 			"/>
			<path fill="#58595B" d="M531.182,359.221c-6.098,0-9.734,2.471-9.734,6.604c0,2.338,1.481,4.121,4.095,4.98
				c-2.172,0.642-3.881,2.206-5.205,4.764c-0.381,0.762-0.704,1.483-1.022,2.184c-0.556,1.239-1.08,2.406-1.825,3.605l-0.235,0.377
				h2.674l0.069-0.12c0.668-1.135,1.223-2.321,1.807-3.565c0.213-0.458,0.431-0.904,0.654-1.363c1.382-2.89,3.118-4.809,7.085-4.809
				h2.476l-1.856,9.857h2.448l4.217-22.02l-0.252-0.035C535.728,359.54,533.492,359.221,531.182,359.221z M530.913,361.394
				c1.341,0,2.258,0.114,3.114,0.229l-1.553,8.087h-2.476c-2.444,0-5.884-1.182-5.884-3.8
				C524.115,362.912,526.402,361.394,530.913,361.394z"/>
			<path fill="#58595B" d="M557.719,348.96c-0.825-0.077-2.083-0.208-3.479-0.45l-0.307-0.055l0.169,2.454l0.192,0.037
				c1.081,0.181,2.045,0.283,2.822,0.354l0.511,0.055c3.101,0.268,4.718,0.953,6.195,2.604c1.897,2.028,2.571,5.795,2.571,8.41
				c0,0.463,0,0.898-0.002,1.294c-1.072-2.693-3.343-4.216-6.384-4.216c-7.321,0-10.729,8.44-10.729,14.144
				c0,5.41,2.807,8.637,7.506,8.637c8.747,0,12.005-12.259,12.005-19.991c0-2.95-0.799-7.283-3.055-9.785
				C563.673,350.05,561.234,349.35,557.719,348.96z M559.965,361.709c3.634,0,5.297,3.422,5.297,6.614
				c0,4.012-3.164,11.692-8.159,11.692c-4.788,0-5.155-5.028-5.155-6.568C551.947,368.581,554.435,361.709,559.965,361.709z"/>
			<path fill="#58595B" d="M587.053,371.498c-0.907,4.798-4.981,8.386-8.021,8.386c-2.709,0-4.024-1.427-4.024-4.351
				c0-0.958,0.117-1.897,0.407-3.354l2.416-12.732h-2.542l-2.399,12.596c-0.286,1.473-0.415,2.556-0.415,3.49
				c0,5.83,3.825,6.694,6.106,6.694c2.703,0,5.577-1.685,7.52-4.368l-0.587,3.875h2.407l0.025-0.225
				c0.201-1.896,0.494-3.855,0.86-5.833l3.098-16.229h-2.543L587.053,371.498z"/>
			<path fill="#58595B" d="M622.307,358.948l-0.103,0.004c-3.359,0.038-6.087,1.65-8.121,4.791
				c-0.379-3.062-2.248-4.791-5.223-4.791c-2.877,0-5.548,1.542-7.577,4.372l0.598-3.877h-2.405l-0.031,0.216
				c-0.23,1.765-0.499,3.696-0.902,5.841l-3.1,16.23h2.543l2.218-11.87c0.903-4.849,4.931-8.614,7.793-8.614
				c3.403,0,3.793,2.379,3.793,4.168c0,0.836-0.073,1.627-0.264,2.716l-2.643,13.601h2.545l2.257-12.19
				c0.947-5.125,4.736-8.294,7.705-8.294c2.596,0,3.749,1.33,3.749,4.305c0,0.899-0.166,2.023-0.311,2.899l-2.505,13.28h2.54
				l2.486-13.194c0.242-1.369,0.371-2.688,0.371-3.714C627.721,360.179,624.181,358.948,622.307,358.948z"/>
			<path fill="#58595B" d="M644.184,359.221c-6.097,0-9.734,2.471-9.734,6.604c0,2.338,1.48,4.121,4.096,4.98
				c-2.174,0.642-3.886,2.206-5.204,4.764c-0.382,0.762-0.706,1.483-1.023,2.184c-0.557,1.239-1.08,2.406-1.826,3.605l-0.232,0.377
				h2.666l0.073-0.12c0.666-1.135,1.221-2.321,1.812-3.565c0.212-0.458,0.428-0.904,0.645-1.363c1.388-2.89,3.119-4.809,7.096-4.809
				h2.477l-1.863,9.857h2.443l4.22-22.02l-0.251-0.035C648.724,359.54,646.493,359.221,644.184,359.221z M643.909,361.394
				c1.353,0,2.263,0.114,3.118,0.229l-1.548,8.087H643c-2.44,0-5.884-1.182-5.884-3.8
				C637.116,362.912,639.403,361.394,643.909,361.394z"/>
			<path fill="#58595B" d="M667.835,369.562c-1.476,1.34-4.402,2.511-6.314,2.511c-3.624,0-4.107-1.783-4.107-3.526
				c0-1.256,0.323-2.819,0.583-4.086l0.963-5.013h-2.538l-0.995,5.145c-0.289,1.341-0.593,2.918-0.593,4.361
				c0,2.43,1.078,5.33,6.195,5.33c2.05,0,4.293-0.71,6.236-1.972l-1.811,9.509h2.493l4.275-22.373h-2.505L667.835,369.562z"/>
			<path fill="#58595B" d="M687.491,358.952c-7.039,0-11.772,7.308-11.772,14.134c0,4.401,2.607,9.142,8.328,9.142h0.039
				c7.559,0,11.733-8.225,11.733-13.904C695.819,363.995,693.642,358.952,687.491,358.952z M687.31,361.21
				c4.652,0,5.891,4.441,5.891,7.062c0,6.012-4.317,11.697-8.931,11.697c-3.487,0-5.93-2.905-5.93-7.065
				C678.34,367.256,681.948,361.21,687.31,361.21z"/>
			<path fill="#58595B" d="M701.567,355.394h0.046c1.278,0,1.969-1.057,1.969-2.054c0-1.127-0.806-1.973-1.879-1.973
				c-1.063,0-1.972,0.943-1.972,2.061C699.731,354.408,700.363,355.394,701.567,355.394z"/>
			<path fill="#58595B" d="M709.423,351.367c-1.086,0-1.972,0.926-1.972,2.061c0,1.121,0.771,1.966,1.789,1.966h0.048
				c1.289,0,1.972-1.034,1.972-2.054C711.26,352.357,710.629,351.367,709.423,351.367z"/>
			<polygon fill="#58595B" points="699.24,381.442 699.184,381.734 701.722,381.734 705.941,359.738 705.999,359.447 
				703.453,359.447 			"/>
			<path fill="#58595B" d="M731.399,356.122c3.033,0,5.314-2.006,6.09-5.361l0.072-0.299h-2.488l-0.057,0.169
				c-0.68,2.235-1.863,3.374-3.527,3.374c-0.714,0-1.322-0.265-1.764-0.754c-0.555-0.607-0.816-1.528-0.722-2.524l0.029-0.265
				h-2.394l-0.026,0.206c-0.125,0.93-0.166,2.688,0.987,4.007C728.442,355.635,729.715,356.122,731.399,356.122z"/>
			<path fill="#58595B" d="M734.017,371.498c-0.908,4.798-4.983,8.386-8.021,8.386c-2.712,0-4.029-1.427-4.029-4.351
				c0-0.963,0.12-1.903,0.406-3.354l2.413-12.732h-2.536l-2.4,12.596c-0.285,1.473-0.41,2.556-0.41,3.49
				c0,5.83,3.822,6.694,6.104,6.694c2.706,0,5.576-1.685,7.52-4.368l-0.589,3.875h2.411l0.023-0.225
				c0.2-1.891,0.485-3.855,0.856-5.833l3.104-16.229h-2.545L734.017,371.498z"/>
			<path fill="#58595B" d="M754.234,358.952c-7.049,0-11.778,7.308-11.778,14.134c0,4.401,2.602,9.142,8.327,9.142h0.041
				c7.554,0,11.737-8.225,11.737-13.904C762.562,363.995,760.379,358.952,754.234,358.952z M754.052,361.21
				c4.641,0,5.883,4.441,5.883,7.062c0,6.012-4.316,11.697-8.928,11.697c-3.49,0-5.932-2.905-5.932-7.065
				C745.075,367.256,748.687,361.21,754.052,361.21z"/>
			<path fill="#58595B" d="M774.211,358.997l-0.18-0.007c-2.161,0-3.888,0.816-4.949,1.492l-0.175,0.114l0.824,1.943l0.242-0.138
				c1.377-0.774,2.607-1.152,3.754-1.152h0.154c1.96,0.041,3.123,1.119,3.123,2.889c0,2.379-2.562,3.646-4.826,4.757
				c-0.254,0.133-0.516,0.259-0.763,0.39c-3.323,1.686-6.307,3.514-6.307,7.297c0,3.41,2.108,5.508,5.645,5.601l0.182,0.005
				c2.265,0,4.551-0.818,5.81-1.633l0.168-0.109l-0.761-1.943l-0.247,0.137c-0.556,0.3-2.511,1.284-4.46,1.284h-0.138
				c-2.264-0.034-3.622-1.272-3.622-3.296c0-2.618,2.448-4,5.405-5.409c3.021-1.515,6.441-3.221,6.441-7.125
				C779.532,361.038,777.495,359.082,774.211,358.997z"/>
			<path fill="#58595B" d="M799.84,359.447l-2.31,12.051c-0.906,4.798-4.985,8.386-8.023,8.386c-2.705,0-4.023-1.427-4.023-4.351
				c0-0.963,0.113-1.903,0.403-3.354l2.418-12.732h-2.538l-2.398,12.596c-0.29,1.473-0.417,2.556-0.417,3.49
				c0,5.83,3.826,6.694,6.104,6.694c2.702,0,5.579-1.685,7.519-4.368l-0.586,3.875h2.413l0.023-0.225
				c0.199-1.891,0.486-3.855,0.855-5.833l3.099-16.229H799.84z"/>
		</g>
		<g>
			<path fill="#58595B" d="M504.025,298.638l-31.391-30.296v-0.003c-0.103-0.083-0.172-0.209-0.172-0.353
				c0-0.151,0.077-0.289,0.2-0.367l28.601-25.763c1.175-1.054,2.071-2.066,2.071-4.596c0-2.697-1.882-4.585-4.585-4.585
				c-2.123,0-3.694,1.476-5.356,3.03l-28.915,26.45l0,0c-0.083,0.086-0.194,0.135-0.315,0.135c-0.24,0-0.436-0.189-0.446-0.427l0,0
				l0,0c0-0.005,0-0.011,0-0.014c0-0.006,0-0.009,0-0.015V238.17c0-3.341-2.035-5.496-5.187-5.496c-3.155,0-5.193,2.155-5.193,5.496
				v23.649c0,0.008,0.007,0.014,0.007,0.022c0,0.25-0.202,0.447-0.442,0.447c-0.114,0-0.215-0.041-0.292-0.112h-0.004
				l-28.936-26.468c-1.667-1.559-3.237-3.035-5.363-3.035c-2.7,0-4.58,1.889-4.58,4.585c0,2.53,0.894,3.542,2.063,4.596
				l28.618,25.777c0.12,0.072,0.192,0.209,0.192,0.358c0,0.169-0.093,0.313-0.221,0.384l-31.334,30.249
				c-1.473,1.375-2.058,2.544-2.058,4.184c0,2.585,2.286,4.687,5.089,4.687c1.324,0,2.901-0.167,4.866-2.136l31.621-31.037
				c0.076-0.103,0.198-0.163,0.338-0.163c0.24,0,0.442,0.198,0.442,0.445c0,0.008-0.007,0.022-0.007,0.031v27.362
				c0,3.344,2.038,5.497,5.193,5.497c3.151,0,5.187-2.153,5.187-5.497v-27.333c0-0.023-0.007-0.038-0.007-0.063
				c0-0.243,0.202-0.447,0.448-0.447c0.132,0,0.251,0.066,0.335,0.16l31.623,31.054c1.881,1.768,3.257,2.127,4.867,2.127
				c2.802,0,5.086-2.102,5.086-4.687C506.069,301.172,505.493,299.999,504.025,298.638z"/>
			<path fill="#58595B" d="M593.559,251.284c-5.809,0-10.203,1.668-13.108,4.961c-0.087,0.105-0.207,0.168-0.344,0.168
				c-0.235,0-0.431-0.181-0.444-0.41c-0.289-2.891-2.249-4.72-5.149-4.72c-3.156,0-5.194,2.159-5.194,5.491v66.872
				c0,3.339,2.038,5.497,5.194,5.497c3.151,0,5.188-2.158,5.188-5.497v-20.837l0.004-0.003l-0.004-0.009
				c0-0.246,0.198-0.443,0.439-0.443c0.132,0,0.249,0.054,0.326,0.146c2.897,2.874,7.405,5.368,13.092,5.368
				c15.583,0,23.729-14.24,23.729-28.294C617.287,265.51,609.142,251.284,593.559,251.284z M592.853,298.695
				c-10.38,0-13.151-10.669-13.151-19.49c0-8.826,2.771-18.756,13.151-18.756c10.373,0,14.054,10.297,14.054,19.126
				C606.906,288.396,603.226,298.695,592.853,298.695z"/>
			<path fill="#58595B" d="M647.64,250.912c-7.611,0-18.665,3.992-18.665,10.26c0,2.178,1.476,4.375,4.78,4.375
				c1.792,0,3.14-1.017,4.563-2.092c2.098-1.585,4.477-3.381,9.322-3.381c3.284,0,8.786,0.788,8.786,6.058v5.451
				c0.006,0.021,0.009,0.04,0.009,0.063c0,0.247-0.195,0.444-0.444,0.444c-0.017,0-0.028,0-0.043-0.002l-0.002,0.002
				c-9.979,0-33.358,0-33.358,18.869c0,12.202,10.438,16.536,19.379,16.536c5.284,0,10.024-1.863,13.606-5.306
				c0.078-0.092,0.199-0.155,0.33-0.155c0.224,0,0.414,0.179,0.438,0.396c0,0.006,0,0.006,0,0.006
				c0.003,0.008,0.003,0.011,0.003,0.014c0,0.012,0,0.021,0,0.029c0,0.006,0,0.006,0,0.006c0.192,3.061,2.181,5.01,5.175,5.01
				c3.152,0,5.188-2.153,5.188-5.497v-35.154C666.706,256.568,659.934,250.912,647.64,250.912z M656.426,284.776
				c0,8.359-4.917,13.552-12.844,13.552c-2.483,0-10.612-0.536-10.612-7.371c0-10.518,10.818-10.518,22.27-10.518h0.751l0,0
				c0.249,0.003,0.444,0.203,0.444,0.444c0,0.017-0.003,0.034-0.009,0.049V284.776z"/>
			<path fill="#58595B" d="M784.551,250.912c-7.611,0-18.665,3.992-18.665,10.26c0,2.178,1.479,4.375,4.786,4.375
				c1.795,0,3.139-1.017,4.563-2.092c2.092-1.585,4.476-3.381,9.315-3.381c3.281,0,8.791,0.788,8.791,6.058v5.445
				c0.004,0.02,0.009,0.045,0.009,0.068c0,0.247-0.199,0.444-0.444,0.444c-0.012,0-0.026,0-0.046-0.002v0.002
				c-9.981,0-33.355,0-33.355,18.869c0,12.202,10.438,16.536,19.375,16.536c5.289,0,10.025-1.863,13.606-5.306
				c0.079-0.092,0.201-0.155,0.333-0.155c0.246,0,0.441,0.201,0.441,0.445v0.006c0.188,3.061,2.171,5.01,5.176,5.01
				c3.15,0,5.186-2.153,5.186-5.497v-35.154C803.622,256.568,796.849,250.912,784.551,250.912z M793.342,284.776
				c0,8.359-4.919,13.552-12.841,13.552c-2.49,0-10.613-0.536-10.613-7.371c0-10.518,10.814-10.518,22.263-10.518h0.756h0.002
				c0.243,0.003,0.442,0.203,0.442,0.444c0,0.017-0.005,0.034-0.009,0.052V284.776z"/>
			<path fill="#58595B" d="M732.979,250.912c-5.063,0-9.007,1.444-11.774,4.301c-0.079,0.097-0.195,0.155-0.33,0.155
				c-0.226,0-0.41-0.172-0.438-0.393v-0.003v-0.014c0-0.015-0.006-0.023-0.006-0.032c0-0.015,0.006-0.023,0.006-0.029V238.17
				c0-3.341-2.034-5.496-5.187-5.496c-3.158,0-5.193,2.155-5.193,5.496v16.73c0,0.009,0.006,0.017,0.006,0.026
				c0,0.244-0.203,0.441-0.443,0.441c-0.145,0-0.265-0.063-0.348-0.163c-2.763-2.854-6.7-4.293-11.756-4.293
				c-14.644,0-22.317,14.231-22.317,28.287c0,14.063,7.674,28.295,22.317,28.295c5.538,0,9.454-2.606,11.773-4.805
				c0.08-0.088,0.194-0.146,0.33-0.146c0.24,0,0.443,0.195,0.443,0.444c0,0.006-0.006,0.014-0.006,0.021v20.266
				c0,3.339,2.035,5.491,5.193,5.491c3.152,0,5.187-2.152,5.187-5.491v-20.257c0-0.009-0.006-0.021-0.006-0.029
				c0-0.249,0.2-0.444,0.444-0.444c0.111,0,0.225,0.043,0.306,0.114c0,0.006,0,0.006,0,0.006v0.003c0.007,0,0.007,0,0.007,0
				c2.322,2.207,6.244,4.827,11.792,4.827c14.647,0,22.311-14.232,22.311-28.295C755.289,265.143,747.626,250.912,732.979,250.912z
				 M710.062,289.814c0,0.068-0.022,0.141-0.052,0.201c-1.599,3.851-4.825,8.313-11.182,8.313c-9.775,0-13.245-10.302-13.245-19.129
				c0-8.82,3.47-19.125,13.245-19.125c6.398,0,9.61,4.427,11.188,8.239c0,0,0,0.003,0.005,0.009c0.021,0.048,0.04,0.112,0.04,0.175
				c0,0.008-0.006,0.017-0.006,0.028v21.261C710.056,289.794,710.062,289.806,710.062,289.814z M731.658,298.329
				c-6.352,0-9.572-4.454-11.177-8.305c-0.028-0.063-0.052-0.135-0.052-0.209c0-0.021,0.006-0.031,0.006-0.042
				c0-0.003,0-0.012,0-0.012v-21.229c0-0.011-0.006-0.026-0.006-0.034c0-0.069,0.021-0.136,0.046-0.189
				c0.003-0.008,0.003-0.018,0.006-0.018c1.582-3.806,4.791-8.216,11.177-8.216c9.778,0,13.252,10.306,13.252,19.125
				C744.91,288.026,741.437,298.329,731.658,298.329z"/>
			<path fill="#58595B" d="M552.469,250.912c-2.886,0-3.806,1.378-4.78,2.834l-23.052,33.083c-0.075,0.125-0.216,0.214-0.381,0.214
				c-0.244,0-0.444-0.197-0.444-0.447c0,0,0.006-0.011,0.006-0.014v-30.177c0-3.338-2.041-5.493-5.193-5.493
				s-5.192,2.155-5.192,5.493v45.592c0,3.344,2.04,5.497,5.192,5.497c2.791,0,3.648-1.279,4.648-2.755l23.189-33.271h0.005
				c0.079-0.121,0.213-0.2,0.368-0.2c0.243,0,0.44,0.2,0.44,0.444v0.006v30.28c0,3.344,2.035,5.497,5.193,5.497
				c3.151,0,5.187-2.153,5.187-5.497v-45.592C557.655,253.067,555.62,250.912,552.469,250.912z"/>
		</g>
	</g>
	<g>
		<path fill="#58595B" d="M149.739,346.79c0,1.841-1.245,3.335-2.788,3.335c-1.534,0-2.781-1.494-2.781-3.335
			c0-1.84,1.247-3.335,2.781-3.335C148.494,343.455,149.739,344.95,149.739,346.79z"/>
		<ellipse fill="#58595B" cx="169.912" cy="346.79" rx="2.787" ry="3.335"/>
		<path fill="#58595B" d="M207.052,310.827l-0.057-0.127c-0.076-0.147-0.166-0.28-0.298-0.429c-0.183-0.187-0.428-0.355-0.675-0.466
			c-0.079-0.028-0.16-0.058-0.26-0.079c-0.703-0.143-2.04-0.292-3.697-0.292c-3.32,0-9.46,0.596-13.304,4.604
			c-0.191,0.203-0.755,1.059-2.093,3.107c-1.129,1.729-2.407,3.691-3.226,4.824c-0.208,0.221-0.435,0.325-0.839,0.15
			c-1.894-0.65-4.538-1.178-7.891-1.577c-0.3-0.081-0.508-0.353-0.508-0.661l0.023-0.184c0.49-1.367,2.106-5.923,3.034-9.237
			c2.076,0.124,3.986-1.12,4.689-3.042c0.888-2.418-0.356-5.111-2.77-6c-0.519-0.191-1.059-0.288-1.609-0.288
			c-1.949,0-3.715,1.233-4.387,3.064c-0.517,1.397-0.328,2.937,0.494,4.184c-1.977,3.104-4.611,8.274-5.965,11.131
			c-0.097,0.272-0.345,0.452-0.676,0.452c-0.002,0-0.007,0-0.007,0c-1.628-0.068-3.354-0.102-5.275-0.102
			c-1.054,0-2.11,0.01-3.15,0.026c-1.055-0.017-2.111-0.026-3.163-0.026c-1.925,0-3.651,0.033-5.317,0.105
			c-0.284,0-0.544-0.184-0.664-0.506c-1.339-2.818-3.979-7.99-5.942-11.081c0.822-1.247,1.01-2.786,0.493-4.181
			c-0.672-1.834-2.437-3.067-4.388-3.067c-0.55,0-1.091,0.097-1.609,0.288c-2.41,0.887-3.656,3.578-2.77,6.002
			c0.707,1.92,2.617,3.169,4.69,3.04c0.751,2.688,2.042,6.483,3.042,9.272c0.012,0.061,0.02,0.105,0.02,0.148
			c0,0.303-0.204,0.569-0.548,0.673c-3.32,0.391-5.965,0.918-7.913,1.589c-0.25,0.115-0.574,0.047-0.776-0.16l-0.063-0.133
			l-0.053-0.034c-0.742-1.032-1.982-2.933-3.077-4.615c-1.358-2.087-1.934-2.96-2.134-3.168c-3.842-4.004-9.981-4.6-13.302-4.6
			c-1.654,0-2.996,0.149-3.728,0.297c-0.067,0.017-0.146,0.043-0.228,0.074c-0.268,0.108-0.506,0.276-0.66,0.451
			c-0.09,0.083-0.158,0.163-0.23,0.275c-0.036,0.064-0.068,0.139-0.117,0.245c-1.856,3.91,2.781,13.984,5.847,17.172
			c1.549,1.616,5.667,5.917,11.268,5.917c1.241,0,2.486-0.214,3.691-0.628c0.376-0.083,0.775,0.178,0.843,0.654
			c1.118,4.309,3.759,10.577,6.31,16.64c2.67,6.342,5.431,12.903,5.126,14.435c-1.578,7.867,2.059,16.676,6.188,18.969
			c1.469,1.022,3.357,1.658,5.573,1.889c0.74,0.135,1.7,0.202,2.854,0.202c0.248,0,0.499-0.005,0.714-0.011
			c0.245,0.006,0.494,0.011,0.745,0.011c1.154,0,2.115-0.067,2.809-0.196c2.258-0.236,4.149-0.872,5.574-1.866
			c4.175-2.321,7.809-11.127,6.234-18.997c-0.306-1.531,2.456-8.094,5.124-14.439c2.555-6.06,5.192-12.326,6.325-16.706
			c0.04-0.347,0.329-0.601,0.674-0.601c0.05,0,0.104,0.008,0.142,0.008c1.22,0.424,2.466,0.638,3.704,0.638
			c5.602,0,9.721-4.298,11.353-6.004C204.249,324.765,208.89,314.691,207.052,310.827z M186.887,330.357
			c-0.029,0-0.056-0.008-0.087-0.008c-0.004,0-0.013,0-0.018,0s-0.011-0.002-0.016-0.002c-0.626-0.064-1.12-0.588-1.12-1.233
			c0-0.029,0.005-0.058,0.005-0.087c0-0.011-0.005-0.018-0.005-0.027c0.056-0.73,0.092-1.632,0.071-2.223
			c-0.001-0.028-0.009-0.055-0.009-0.089c0-0.652,0.499-1.179,1.139-1.233c0.01,0,0.015-0.002,0.021-0.004
			c4.822-0.227,10.212-5.111,13.549-8.706c0.228-0.294,0.58-0.484,0.975-0.484c0.688,0,1.25,0.558,1.25,1.245
			c0,0.198-0.059,0.387-0.145,0.555c-1.684,5.051-5.765,12.162-15.473,12.287C186.979,330.35,186.932,330.357,186.887,330.357z
			 M175.355,345.915c-0.012,0.008-0.024,0.014-0.033,0.021c-3.152,1.632-12.609,6.228-12.545,2.733
			c0.086-4.821,2.687-9.972,5.402-10.768c3.671-1.072,6.565,4.054,7.666,6.391c0.006,0.005,0.006,0.011,0.006,0.011
			c0.075,0.166,0.124,0.347,0.124,0.538C175.976,345.303,175.727,345.702,175.355,345.915z M160.17,370.122
			c0-0.021,0.001-0.037,0.001-0.054c0.008-0.022,0.008-0.045,0.008-0.068c0.011-0.129,0.038-0.253,0.09-0.364
			c0.276-0.914,0.756-1.782,1.54-2.098c1.576-0.631,3.219,1.553,0.321,3.599c-0.007,0.007-0.016,0.007-0.02,0.012
			c-0.203,0.138-0.44,0.212-0.699,0.212C160.724,371.36,160.17,370.811,160.17,370.122z M155.792,371.36
			c-0.258,0-0.498-0.074-0.694-0.212c-0.009-0.005-0.02-0.005-0.028-0.012c-2.896-2.046-1.253-4.229,0.33-3.599
			c0.778,0.315,1.257,1.184,1.536,2.098c0.05,0.111,0.073,0.235,0.089,0.364c0.001,0.023,0.005,0.046,0.007,0.068
			c0,0.017,0.008,0.033,0.008,0.054C157.039,370.811,156.477,371.36,155.792,371.36z M141.881,345.937
			c-0.013-0.008-0.023-0.014-0.032-0.021c-0.372-0.213-0.627-0.612-0.627-1.073c0-0.191,0.052-0.372,0.127-0.538
			c0,0,0.004-0.006,0.004-0.011c1.107-2.337,3.994-7.463,7.669-6.391c2.717,0.796,5.318,5.946,5.404,10.768
			C154.485,352.164,145.036,347.568,141.881,345.937z M131.558,329.114c0,0.646-0.492,1.169-1.122,1.233
			c-0.004,0-0.013,0.002-0.019,0.002c-0.002,0-0.011,0-0.011,0c-0.036,0-0.061,0.008-0.092,0.008c-0.047,0-0.092-0.008-0.136-0.01
			c-9.709-0.125-13.792-7.236-15.475-12.287c-0.084-0.168-0.136-0.356-0.136-0.555c0-0.688,0.553-1.245,1.242-1.245
			c0.396,0,0.747,0.19,0.977,0.484c3.335,3.595,8.725,8.479,13.546,8.706c0.008,0.002,0.018,0.004,0.021,0.004
			c0.639,0.055,1.138,0.581,1.138,1.233c0,0.034-0.007,0.061-0.007,0.089c-0.018,0.591,0.009,1.492,0.072,2.223
			c-0.001,0.01-0.004,0.017-0.008,0.027C131.554,329.057,131.558,329.085,131.558,329.114z"/>
		<path fill="#58595B" d="M268.202,408.171c-3.401-4.044-4.663-6.955-5.521-9.497c-0.705-2.083-0.956-4.275-1.199-6.396
			c-0.257-2.28-0.504-4.436-1.299-6.233c-1.425-3.235-16.118-33.585-21.497-42.858c-0.194-0.334-0.477-0.84-0.85-1.503
			c-13.17-23.517-26.786-42.241-40.443-55.629c-0.347-0.376-0.813-0.586-1.312-0.586c-0.983,0-1.782,0.799-1.782,1.779
			c0,0.308,0.082,0.611,0.234,0.874l-0.023,0.046l0.257,0.282c0.513,0.564,1.021,1.145,1.53,1.739
			c6.414,7.423,11.262,15.889,15.544,23.355l1.202,2.1c2.668,4.623,5.165,9.431,7.646,14.71c5.29,10.428,8.855,19.288,10.915,24.881
			c1.12,3.033,2.92,8.184,4.301,12.7c2.06,6.763,2.817,10.029,2.829,10.029c0.028,1.453,0.016,3.325,0.005,5.245
			c-0.025,4.022-0.05,8.179,0.293,9.524c0.516,2.004,1.108,3.554,1.87,4.885c0.511,0.887,1.085,1.733,1.639,2.553
			c0.872,1.29,1.695,2.511,2.162,3.715c0.452,1.151,0.539,2.051,0.576,4.344c0.031,1.711-0.072,3.838-0.321,6.692
			c-0.13,1.505-0.277,2.981-0.422,4.295c-0.381,3.376,0.009,5.657,1.182,6.971c0.755,0.844,1.795,1.257,3.18,1.257l0.632-0.017
			c4.867-0.192,19.7-0.838,22.744-0.975l0.94-0.041l0.137-0.329c0.104-0.261,0.202-0.524,0.348-0.91
			c0.139-0.403,0.262-0.817,0.367-1.236C275.03,420.333,275.537,413.483,268.202,408.171z"/>
		<path fill="#58595B" d="M104.941,328.275l-0.003-0.008c0.028-0.125,0.042-0.247,0.042-0.365c0-0.996-0.808-1.802-1.8-1.802
			c-0.64,0-1.236,0.351-1.5,0.834l-0.108,0.153c-2.68,5.351-6.323,12.88-8.474,18.384c-6.521,16.685-9.318,28.237-9.846,30.491
			c-0.017,0.046-0.036,0.092-0.089,0.195c-2.276,3.665-3.636,8.528-3.636,13.005c0,2.483,0.161,3.839,0.305,4.585
			c0.025,0.098,0.062,0.188,0.08,0.209c0.264,0.685,0.931,1.149,1.652,1.154c4.512,0.158,15.43,0.537,19.461,0.548h0.067
			c0.622,0,1.196-0.331,1.522-0.85l0.228-0.561c0.529-1.879,1.106-5.669-0.959-9.878c-0.027-0.071-0.112-0.344-0.119-0.367
			c-0.768-4.797-1.447-10.598-1.265-11.99c0.002-0.025,0.019-0.098,0.093-0.25c1.249-2.546,2.361-7.467,2.578-9.73
			c0.465-4.83-0.121-7.586-0.596-9.802c-0.146-0.691-0.286-1.343-0.384-2.027c-0.011-0.057-0.013-0.172,0-0.352
			c0.3-2.888,1.072-10.131,1.735-15.003c0.204-1.518,0.435-2.928,0.643-4.235c0.126-0.756,0.24-1.478,0.345-2.167l0.027-0.017
			l-0.004-0.145C104.941,328.281,104.941,328.276,104.941,328.275z"/>
		<g>
			<path fill="#58595B" d="M239.038,411.529c-0.115-0.808-0.451-3.155-0.774-5.434l-0.553-3.839l-0.007-0.213l-0.027-0.041
				c-0.169-0.827-0.896-1.431-1.756-1.431l-0.152,0.005c-7.361,0.708-16.609,1.433-26.739,2.109c-1.301,0.083-2.54,0.181-3.75,0.271
				c-4.775,0.355-9.206,0.69-15.459,0.539c-7.758-0.181-11.201-0.421-16.308-1.494c-4.25-0.891-5.36-2.363-5.05-11.132
				c0-0.992-0.807-1.797-1.798-1.797c-0.147,0-0.303,0.02-0.559,0.083c-2.143,0.756-5.017,1.187-7.896,1.187
				c-2.757,0-5.412-0.396-7.623-1.115c-0.229-0.103-0.474-0.154-0.726-0.154c-0.992,0-1.801,0.805-1.798,1.83
				c-0.538,13.51,1.67,21.814,7.378,27.764c1.687,1.76,3.687,3.611,6.88,5.262c5.45,2.812,12.68,3.135,13.002,3.146l0.188,0.006
				c4.358,0.112,8.139,0.166,10.999,0.127c4.729,0.057,9.522,0.125,14.31,0.194c11.474,0.164,23.333,0.329,33.894,0.329
				c1.238,0,2.465-0.003,3.572-0.015c0.079,0.012,0.168,0.023,0.25,0.023h0.032h0.007c0.874-0.018,1.586-0.656,1.727-1.496
				l0.026-0.238c0-0.012,0-0.022,0-0.036v-0.086C240.149,422.981,239.668,415.769,239.038,411.529z"/>
			<path fill="#58595B" d="M209.817,330.475c0.219,1.347,0.455,2.805,0.666,4.375c0.698,5.143,1.508,12.783,1.74,15.081
				c0.005,0.109,0,0.232-0.006,0.293c-0.098,0.661-0.236,1.313-0.382,2c-0.473,2.216-1.063,4.973-0.598,9.81
				c0.227,2.326,1.315,7.155,2.584,9.737c0.034,0.072,0.079,0.184,0.088,0.243c0.184,1.393-0.495,7.188-1.254,11.943
				c-0.018,0.07-0.103,0.343-0.115,0.381c-2.086,4.249-1.506,8.034-0.973,9.92c0.01,0.034,0.019,0.068,0.019,0.068h0.001
				l0.048,0.149c0.228,0.619,0.752,1.049,1.462,1.149l0.269,0.034c4.019-0.011,14.959-0.39,19.468-0.548
				c0.73-0.005,1.401-0.464,1.645-1.105c0.045-0.086,0.075-0.164,0.108-0.298c0.192-0.976,0.293-2.545,0.293-4.545
				c0-4.477-1.359-9.34-3.64-13.022l-0.118-0.286c-0.492-2.146-3.288-13.698-9.812-30.383c-2.146-5.502-5.795-13.031-8.431-18.257
				l-0.068-0.203l-0.065-0.064c-0.327-0.525-0.898-0.847-1.518-0.847c-0.991,0-1.795,0.806-1.795,1.802
				c0,0.118,0.013,0.238,0.032,0.373C209.571,328.976,209.691,329.709,209.817,330.475z"/>
		</g>
		<path fill="#58595B" d="M272.478,308.574c-22.279-51.909-59.333-101.771-79.961-115.767c-7.859-5.328-17.105-6.445-23.479-6.445
			c-0.358,0-0.714,0.004-1.069,0.013c-18.549,0.356-32.542,10.715-51.62,38.213c-15.066,21.72-27.788,49.317-36.794,79.807
			c-7.351,24.898-15.108,52.606-19.284,68.903c-1.266,3.541-3.247,6.43-4.835,8.75c-1.021,1.492-1.905,2.78-2.425,3.959
			c-0.796,1.803-1.043,3.96-1.301,6.244c-0.242,2.115-0.491,4.308-1.197,6.383c-0.775,2.295-2.01,5.178-5.348,9.318l-0.008-0.012
			l-0.205,0.206c-8.201,6.019-6.524,13.937-5.395,17.144l0.132,0.401h0.097c0.274,0.369,0.679,0.619,1.139,0.696l0.319,0.037
			c3.794,0.166,18.385,0.807,22.759,0.978l0.28,0.003c1.391,0,2.438-0.407,3.192-1.259c1.179-1.315,1.566-3.593,1.186-6.966
			c-0.544-4.841-0.79-8.434-0.747-10.984c0.04-2.289,0.125-3.188,0.576-4.356c0.464-1.201,1.291-2.421,2.162-3.708
			c0.555-0.822,1.129-1.671,1.642-2.563c0.979-1.698,1.534-3.596,1.866-4.873c0.346-1.34,0.322-5.285,0.3-9.47
			c-0.014-1.814-0.025-3.585,0.002-5.075c0.002-0.081,0.015-0.194,0.033-0.315c0.204-0.836,0.997-4.035,2.797-9.938
			c1.348-4.431,3.156-9.614,4.296-12.705c4.332-11.761,27.918-71.214,67.43-87.415l0.123-0.047c0.647-0.287,1.065-0.925,1.065-1.626
			c0-0.838-0.573-1.548-1.383-1.73l-0.149-0.032c-5.462-0.728-11.112-1.171-14.924-1.427c-0.319-0.037-0.564-0.302-0.564-0.619
			c0-0.219,0.112-0.417,0.393-0.579l-0.104-0.548l0.259,0.507c4.843-0.702,9.78-1.055,14.673-1.055
			c9.98,0,19.434,1.473,28.088,4.384c1.518,0.506,3.119,1.123,4.875,1.861l0.594,0.302c39.773,18.931,84.089,114.679,84.501,118.227
			c-0.018,0.234-0.396,5.803,1.153,12.293c0.915,3.825,4.241,7.522,6.663,9.967c8.082,8.162,5.42,17.272,5.301,17.659l-0.024,0.674
			l0.502,0.046c0.63,0.063,1.27,0.091,1.911,0.091c6.866,0,13.894-3.292,16.349-7.656
			C303.917,408.526,293.849,358.353,272.478,308.574z M178.999,241.342c-2.195,0.587-15.462-7.704-14.037-13.071
			c1.461-5.454,17.067-6.205,18.67-4.608C185.246,225.275,181.195,240.749,178.999,241.342z M123.89,253.384
			c-3.921-1.551-3.145-13.198-1.812-14.257c1.33-1.055,12.471,3.289,12.718,4.967C135.043,245.775,127.748,254.905,123.89,253.384z
			 M119.171,260.352c-1.039,1.346-12.661,2.475-14.252-1.354c-1.626-3.89,7.275-11.449,8.953-11.227
			C115.559,247.995,120.208,259.002,119.171,260.352z M95.58,283.534c-0.965-2.309,4.315-6.787,5.313-6.66
			c1.004,0.134,3.751,6.664,3.143,7.462C103.424,285.138,96.525,285.804,95.58,283.534z M96.004,294.037
			c-0.404,0.926-7.437,1.75-8.035,0.938c-0.599-0.815,0.683-7.62,3.125-7.896C93.578,286.795,96.412,293.114,96.004,294.037z
			 M87.935,302.583c2.017-0.228,4.333,4.919,3.998,5.663c-0.331,0.758-6.066,1.428-6.547,0.771
			C84.903,308.352,85.945,302.81,87.935,302.583z M159.498,206.245c-1.533,1.078-14.137-1.644-14.532-6.197
			c-0.398-4.635,11.488-9.59,13.187-8.795C159.854,192.048,161.04,205.175,159.498,206.245z M144.03,211.138
			c1.779-2.222,21.537,0.732,22.562,3.375c1.037,2.646-7.477,20.231-14.331,19.184C145.292,232.634,142.253,213.356,144.03,211.138z
			 M190.947,200.136c2.452,1.15,4.15,20.038,1.937,21.579c-2.214,1.544-20.331-2.361-20.904-8.922
			C171.405,206.123,188.503,198.987,190.947,200.136z M200.451,241.306c-2.063-0.954-6.951-15.817-2.428-19.023
			c4.615-3.264,17.089,6.141,17.305,8.406C215.528,232.959,202.518,242.253,200.451,241.306z M218.473,235.592
			c1.806-0.523,11.403,8.534,10.965,10.359c-0.446,1.824-11.692,8.151-15.017,4.991
			C211.045,247.731,216.673,236.122,218.473,235.592z M233.185,269.551c1.237-0.668,10.411,2.42,10.324,5.853
			c-0.096,3.496-9.386,6.193-10.589,5.455C231.718,280.122,231.934,270.217,233.185,269.551z M262.811,308.3
			c-0.737,0.505-6.459-2.173-6.528-3.058c-0.07-0.896,4.088-5.449,6.072-4.518C264.36,301.684,263.549,307.784,262.811,308.3z
			 M262.872,317.148c-0.191,0.52-4.047,1.15-4.395,0.713c-0.346-0.427,0.183-4.204,1.524-4.419
			C261.356,313.219,263.071,316.631,262.872,317.148z M250.116,301.997c-1.202-0.183-4.394-8.102-3.644-9.056
			c0.757-0.951,9.077-1.623,10.177,1.125C257.766,296.867,251.331,302.166,250.116,301.997z"/>
		<path fill="#58595B" d="M98.126,242.19c0-1.134-0.92-2.056-2.055-2.056c-0.167,0-0.331,0.021-0.598,0.086
			c-9.035,2.771-16.688,4.405-23.396,4.988c-1.478,0.132-2.948,0.198-4.367,0.198c-4.332,0-8.199-0.609-12.537-1.967
			c-4.769-1.495-7.493-3.296-8.844-5.838c-3.033-5.69-0.946-14.661,2.463-21.03c5.041-9.373,12.065-18.893,19.275-26.123
			c4.117-4.122,7.394-7.068,10.006-8.983c1.292,1.402,2.737,2.112,4.298,2.112c4.685,0,9.168-6.563,12.144-10.919
			c0.437-0.646,0.851-1.247,1.202-1.748c0.121-0.158,0.519-0.724,0.47-1.387c-0.096-1.132-0.98-1.986-2.054-1.986l-0.25,0.016
			c-4.599,0.529-14.074,2.607-17.03,6.662c-0.704,0.967-1.019,1.997-0.941,3.063c-6.933,4.839-18.186,15.708-26.871,28.459
			c-4.54,6.657-7.692,12.835-9.376,18.357c-1.978,6.47-1.855,11.867,0.361,16.04c2.109,3.945,6.391,7.151,12.374,9.267
			c5.438,1.915,12.157,2.926,19.43,2.926c7.918,0,18.817-1.878,20.926-2.25l0.162-0.035l0.144-0.032
			c0.517-0.154,0.941-0.485,1.183-0.908c1.146-1.766,2.023-3.16,2.614-4.156c0.348-0.592,0.696-1.202,1.027-1.792l0.236-0.506
			l-0.042-0.042C98.111,242.468,98.126,242.329,98.126,242.19z M79.214,174.768c2.223-3.049,9.481-4.626,13.006-5.035
			c0.027-0.001,0.124-0.006,0.146-0.006c0.621,0,1.116,0.488,1.172,1.156c0.025,0.327-0.181,0.652-0.278,0.777
			c-0.289,0.409-0.612,0.882-0.956,1.39c-2.266,3.318-5.692,8.342-9.129,8.342c-1.192,0-2.942-0.783-3.835-2.05
			c-0.517-0.732-0.756-2.232-0.756-2.232C78.459,176.294,78.675,175.51,79.214,174.768z"/>
	</g>
</g>
</svg>
