<svg xmlns="http://www.w3.org/2000/svg" width="841.89" height="595.28" viewBox="0 0 841.89 595.28"><g fill="#58595B"><path d="M421.504 28.35L304.31 219.593H538.7L421.503 28.35zm36.906 173.223l-.01.016h-52.156l-21.09-.017s-1.722-.072-1.722-1.723c0-.28.234-.842.234-.842l22-35.8 12.136 19.785-5.676 9.172h-.028c-.164.266-.25.56-.25.87 0 .96.764 1.71 1.722 1.71h16.47c.958 0 1.708-.765 1.708-1.71 0-.31-.07-.604-.244-.87v-.014l-29.345-47.965-.297-.34c-.294-.31-.737-.517-1.194-.517-1.063 0-1.475.84-1.475.84l-35.184 57.42-24.163-.017 59.2-96.39c.28-.527.854-.883 1.503-.883 1.03 0 1.52.884 1.52.884l57.86 93.826v.027c.132.24.202.533.202.814 0 .96-.75 1.726-1.722 1.726zm-14.26-57.195c-.313-.503-.855-.842-1.488-.842-1.012 0-1.475.87-1.475.87l-3.404 5.604-12.045-19.596 15.45-25.215s.425-.9 1.52-.9c.65 0 1.198.355 1.487.884l58.95 96.405h-23.823l-35.172-57.212zM135.405 258.12c5.84-1.18 17.5-2.197 28.722-2.197 13.567 0 21.868 1.298 29.005 5.547 6.857 3.64 11.678 10.338 11.678 19.388 0 8.586-5.102 16.618-16.027 20.854v.274c11.207 2.923 19.537 11.536 19.537 24.217 0 9.04-4.1 16.023-10.22 20.844-7.15 5.68-19.094 8.893-38.63 8.893-10.93 0-19.097-.737-24.064-1.46v-96.36zm22.027 37.455h7.286c11.81 0 17.93-4.808 17.93-12.094 0-7.444-5.693-11.364-15.735-11.364-4.968 0-7.726.28-9.48.722v22.737zm0 43.588c2.184.438 4.807.438 8.598.438 10.04 0 18.933-3.934 18.933-14.288 0-9.904-8.892-13.84-19.95-13.84h-7.58v27.69zM237.912 326.202c.724 9.33 9.763 13.713 20.127 13.713 7.564 0 13.684-1.035 19.668-3.07l2.92 15.01c-7.297 3.07-16.176 4.534-25.804 4.534-24.197 0-38.058-14-38.058-36.455 0-18.09 11.37-38.074 36.01-38.074 23.03 0 31.79 17.95 31.79 35.6 0 3.785-.444 7.132-.738 8.893l-45.916-.15zm26.084-15.16c0-5.263-2.33-14.435-12.387-14.435-9.48 0-13.27 8.613-13.86 14.435h26.246zM294.902 306.367c0-8.892-.28-16.337-.577-22.75h19.243l1.035 9.924h.424c2.937-4.657 10.06-11.516 22.018-11.516 14.582 0 25.523 9.762 25.523 30.76v42.142h-22.16v-39.518c0-9.19-3.217-15.46-11.238-15.46-6.12 0-9.762 4.234-11.37 8.307-.575 1.474-.722 3.51-.722 5.545v41.126H294.9v-48.56zM359.942 368.78c5.68-.45 10.34-1.75 13.11-4.687 3.212-3.33 4.38-9.022 4.38-23.18v-57.297h22.162v62.706c0 15.443-3.348 24.924-10.058 31.047-6.575 5.98-16.912 8.753-27.41 8.753l-2.184-17.344zm28.28-94.5c-7.43 0-12.252-5.23-12.252-11.795 0-6.707 4.958-11.81 12.55-11.81 7.578 0 12.223 5.103 12.385 11.81 0 6.563-4.807 11.795-12.532 11.795h-.15zM473.36 337.715c0 6.71.28 13.254 1.183 17.21h-19.996l-1.31-7.153h-.43c-4.67 5.695-11.962 8.743-20.403 8.743-14.438 0-23.05-10.496-23.05-21.87 0-18.5 16.628-27.254 41.847-27.254v-.874c0-3.792-2.05-9.186-12.974-9.186-7.3 0-15.014 2.48-19.688 5.252l-4.083-14.145c4.953-2.786 14.74-6.413 27.704-6.413 23.77 0 31.2 13.99 31.2 30.76v24.93zm-21.438-16.47c-11.648 0-20.705 2.757-20.705 11.226 0 5.688 3.797 8.445 8.766 8.445 5.396 0 10.053-3.64 11.516-8.154.29-1.176.423-2.49.423-3.8v-7.716zM485.188 306.367c0-8.892-.324-16.337-.604-22.75h18.81l.874 9.774h.44c3.07-4.672 9.487-11.366 21.59-11.366 9.32 0 16.456 4.807 19.522 12.253h.297c2.773-3.804 5.836-6.726 9.318-8.76 3.947-2.18 8.332-3.493 13.566-3.493 13.712 0 24.05 9.612 24.05 30.9v42h-21.563v-38.652c0-10.33-3.346-16.323-10.508-16.323-5.24 0-8.745 3.51-10.34 7.73-.44 1.608-.724 3.793-.724 5.543v41.702h-21.6v-39.95c0-8.906-3.2-15.026-10.336-15.026-5.695 0-9.055 4.38-10.365 7.88-.727 1.734-.875 3.785-.875 5.69v41.405h-21.555v-48.558zM615.652 274.28c-7.43 0-12.236-5.23-12.236-11.795 0-6.707 4.94-11.81 12.53-11.81 7.585 0 12.24 5.103 12.388 11.81 0 6.563-4.803 11.795-12.535 11.795h-.148zm-10.925 9.337h22.15v71.31h-22.15v-71.31zM638.832 306.367c0-8.892-.29-16.337-.578-22.75h19.248l1.016 9.924h.443c2.92-4.657 10.058-11.516 22.013-11.516 14.568 0 25.512 9.762 25.512 30.76v42.142h-22.16v-39.518c0-9.19-3.203-15.46-11.238-15.46-6.104 0-9.744 4.234-11.37 8.307-.575 1.474-.72 3.51-.72 5.545v41.126h-22.164v-48.56zM308.615 436.98c-.44-11.812-.884-25.937-.884-40.375h-.28c-3.214 12.536-7.285 26.528-11.074 38.046l-11.957 38.336H267.06l-10.498-37.89c-3.2-11.68-6.415-25.53-8.89-38.49h-.283c-.44 13.258-1.03 28.43-1.62 40.668l-1.89 37.34h-20.568l6.282-98.268h29.58l9.642 32.944c3.2 11.218 6.12 23.472 8.3 34.987h.59c2.626-11.382 5.975-24.193 9.334-35.3l10.35-32.632h29.154l5.248 98.268h-21.558l-1.62-37.634zM375.825 476.2c-20.852 0-36.894-13.694-36.894-36.73 0-23.045 15.157-37.76 38.207-37.76 21.705 0 36.314 15.014 36.314 36.582 0 25.95-18.532 37.907-37.48 37.907h-.145zm.44-15.89c8.76 0 14.143-8.6 14.143-21.428 0-10.493-4.07-21.29-14.144-21.29-10.5 0-14.597 10.797-14.597 21.438 0 12.09 5.103 21.28 14.45 21.28h.147zM460.092 476.2c-20.832 0-36.88-13.694-36.88-36.73 0-23.045 15.163-37.76 38.19-37.76 21.72 0 36.307 15.014 36.307 36.582 0 25.95-18.522 37.907-37.468 37.907h-.15zm.426-15.89c8.764 0 14.162-8.6 14.162-21.428 0-10.493-4.072-21.29-14.162-21.29-10.482 0-14.564 10.797-14.564 21.438 0 12.09 5.1 21.28 14.438 21.28h.126zM505.73 426.777c0-10.5-.15-17.358-.59-23.476h18.977l.87 13.284h.573c3.645-10.512 12.254-14.873 19.23-14.873 2.063 0 3.065.136 4.673.44v20.838c-1.887-.295-3.643-.578-6.117-.578-8.168 0-13.713 4.23-15.16 11.223-.28 1.462-.46 3.066-.46 4.972v36.01H505.58l.15-47.838zM574.246 445.887c.727 9.316 9.78 13.7 20.117 13.7 7.592 0 13.713-1.023 19.7-3.07l2.905 15.026c-7.273 3.07-16.195 4.53-25.807 4.53-24.196 0-38.046-14-38.046-36.47 0-18.074 11.375-38.04 36.01-38.04 23.035 0 31.78 17.92 31.78 35.564 0 3.79-.433 7.15-.726 8.893l-45.932-.133zm26.102-15.176c0-5.23-2.332-14.433-12.387-14.433-9.478 0-13.282 8.613-13.86 14.434h26.248zM307.42 496.995c4.35-.826 10.042-1.446 17.28-1.446 8.894 0 15.41 2.066 19.554 5.796 3.835 3.316 6.206 8.386 6.206 14.58 0 6.312-1.858 11.267-5.484 14.895-4.76 5.056-12.52 7.652-21.306 7.652-2.7 0-5.176-.09-7.256-.62v27.942h-8.994v-68.8zm8.995 33.528c1.977.502 4.557.707 7.448.707 10.984 0 17.486-5.378 17.486-14.788 0-9.306-6.503-13.757-16.455-13.757-3.923 0-6.917.41-8.48.736v27.103zM392.662 553.79c0 4.352.192 8.572.724 12.005h-8.168l-.84-6.33h-.313c-2.683 3.94-8.17 7.467-15.288 7.467-10.148 0-15.322-7.138-15.322-14.378 0-12.107 10.748-18.725 30.095-18.636v-1.02c0-4.142-1.133-11.69-11.37-11.59-4.762 0-9.625 1.343-13.135 3.728l-2.083-6.12c4.145-2.573 10.236-4.335 16.562-4.335 15.422 0 19.137 10.456 19.137 20.485v18.725zm-8.876-13.55c-9.955-.203-21.23 1.564-21.23 11.282 0 5.986 3.92 8.685 8.475 8.685 6.62 0 10.882-4.144 12.328-8.375.294-.945.428-1.98.428-2.905v-8.686zM407.453 506.51c-3.42 0-5.68-2.69-5.68-5.89 0-3.214 2.362-5.792 5.872-5.792 3.525 0 5.806 2.578 5.806 5.79 0 3.202-2.28 5.89-5.908 5.89h-.09zm-4.35 9.21h9.113v50.075h-9.112V515.72zM423.17 529.27c0-5.278-.107-9.403-.424-13.55h8.076l.518 8.17h.205c2.475-4.646 8.29-9.31 16.555-9.31 6.94 0 17.69 4.147 17.69 21.296v29.92h-9.114v-28.857c0-8.084-2.98-14.908-11.58-14.908-5.89 0-10.545 4.245-12.197 9.318-.425 1.14-.618 2.772-.618 4.246v30.2h-9.11V529.27zM487.004 503.72v12h13.016v6.932h-13.016v26.996c0 6.21 1.734 9.733 6.81 9.733 2.49 0 3.94-.22 5.28-.62l.395 6.932c-1.735.62-4.538 1.24-8.034 1.24-4.262 0-7.678-1.462-9.848-3.834-2.477-2.805-3.51-7.24-3.51-13.123v-27.323h-7.758v-6.93h7.758v-9.213l8.906-2.79zM506.953 556.577c2.79 1.668 7.545 3.525 12.105 3.525 6.518 0 9.617-3.2 9.617-7.444 0-4.35-2.582-6.726-9.205-9.216-9.096-3.305-13.344-8.17-13.344-14.172 0-8.063 6.623-14.69 17.264-14.69 5.074 0 9.53 1.345 12.227 3.103l-2.184 6.527c-1.975-1.146-5.576-2.902-10.248-2.902-5.367 0-8.27 3.11-8.27 6.826 0 4.246 2.903 6.104 9.42 8.598 8.585 3.2 13.126 7.55 13.126 15.1 0 8.893-6.91 15.1-18.606 15.1-5.486 0-10.56-1.46-14.055-3.525l2.153-6.83zM631.826 405.114c4.25 0 7.627 3.455 7.627 7.77 0 4.397-3.377 7.804-7.654 7.804-4.26 0-7.696-3.406-7.696-7.803 0-4.316 3.436-7.77 7.695-7.77h.026zm-.027 1.214c-3.435 0-6.237 2.937-6.237 6.558 0 3.7 2.803 6.597 6.264 6.597 3.436.025 6.21-2.897 6.21-6.566 0-3.65-2.774-6.588-6.21-6.588h-.028zm-1.474 11.085h-1.373v-8.67c.723-.103 1.402-.204 2.445-.204 1.316 0 2.2.263 2.7.658.517.367.794.944.794 1.8 0 1.122-.762 1.832-1.693 2.093v.08c.767.126 1.284.808 1.446 2.092.236 1.354.412 1.87.56 2.15h-1.458c-.18-.28-.416-1.07-.574-2.226-.21-1.087-.752-1.507-1.873-1.507h-.974v3.733zm0-4.802h1.016c1.12 0 2.094-.4 2.094-1.478 0-.765-.564-1.535-2.094-1.535-.457 0-.766.047-1.016.09v2.924z"/></g></svg>