<?xml version="1.0" encoding="utf-8"?>
<!-- Generator: Adobe Illustrator 16.0.0, SVG Export Plug-In . SVG Version: 6.00 Build 0)  -->
<!DOCTYPE svg PUBLIC "-//W3C//DTD SVG 1.1//EN" "http://www.w3.org/Graphics/SVG/1.1/DTD/svg11.dtd">
<svg version="1.1" id="Layer_1" xmlns="http://www.w3.org/2000/svg" xmlns:xlink="http://www.w3.org/1999/xlink" x="0px" y="0px"
	 width="841.89px" height="595.28px" viewBox="0 0 841.89 595.28" enable-background="new 0 0 841.89 595.28" xml:space="preserve">
<g>
	<g>
		<path fill="#58595B" d="M533.316,139.683L423.096,75.695c-0.676-0.388-1.418-0.575-2.152-0.575c-0.731,0-1.489,0.188-2.151,0.575
			l-110.226,63.987c-1.321,0.77-2.137,2.195-2.137,3.735v127.964c0,1.542,0.816,2.979,2.137,3.752l110.226,63.987
			c0.662,0.363,1.42,0.57,2.151,0.57c0.734,0,1.476-0.207,2.152-0.57l110.221-63.987c1.31-0.772,2.146-2.21,2.146-3.752V143.418
			C535.462,141.878,534.626,140.452,533.316,139.683z M533.039,272.486l-112.095,65.09l-112.119-65.09V142.319l112.119-65.08
			l112.095,65.08V272.486z"/>
		<path fill="#58595B" d="M521.529,176.214V150.67c0-1.023-0.523-1.977-1.436-2.489l-97.715-56.747
			c-0.448-0.254-0.943-0.385-1.435-0.385c-0.501,0-0.986,0.131-1.417,0.385l-97.744,56.747c-0.887,0.513-1.429,1.466-1.429,2.489
			v113.475c0,1.031,0.542,1.98,1.429,2.479l97.744,56.756c0.431,0.252,0.915,0.373,1.417,0.373c0.492,0,0.986-0.121,1.435-0.373
			l97.715-56.756c0.912-0.498,1.436-1.447,1.436-2.479v-25.554c0-0.693-0.229-1.358-0.682-1.879l-25.253-29.304l25.253-29.31
			C521.3,177.577,521.529,176.902,521.529,176.214z M445.677,209.282l24.559,28.559l-49.292,28.616l-50.876-29.528v-59.053
			l50.876-29.525l49.292,28.614l-24.559,28.549C444.725,206.593,444.725,208.199,445.677,209.282z"/>
	</g>
	<g>
		<g>
			<path fill="#58595B" d="M593.806,384.305c-22.346,0-40.522,18.17-40.522,40.463c0,22.357,18.177,40.537,40.522,40.537
				c22.312,0,40.477-18.18,40.477-40.537C634.282,402.475,616.117,384.305,593.806,384.305z M593.806,451
				c-14.448,0-26.217-11.781-26.217-26.232c0-14.432,11.769-26.16,26.217-26.16c14.445,0,26.172,11.729,26.172,26.16
				C619.978,439.219,608.251,451,593.806,451z"/>
			<g>
				<path fill="#58595B" d="M246.663,420.002c2.144-2.666,4.741-7.43,4.741-13.139c0-11.609-8.76-20.684-19.952-20.684H211.16
					c-2.308,0-3.553,2.037-3.553,3.986v69.949c0,1.697,1.474,3.568,3.603,3.568h21.053c15.426,0,24.647-12.178,24.647-24.008
					C256.91,431.598,253.198,424.514,246.663,420.002z M229.517,415.543h-7.838v-15.547h7.838c4.295,0,7.778,3.482,7.778,7.77
					C237.295,412.055,233.812,415.543,229.517,415.543z M232.264,449.664h-10.586v-19.939h10.586c5.495,0,9.974,4.48,9.974,9.971
					C242.238,445.211,237.759,449.664,232.264,449.664z"/>
				<g>
					<path fill="#58595B" d="M307.734,388.268c-0.586-1.273-1.876-2.088-3.266-2.088h-1.713c-1.384,0-2.67,0.803-3.263,2.066
						l-33.222,70.326c-0.532,1.09-0.452,2.406,0.22,3.443c0.659,1.027,1.792,1.668,3.036,1.668h7.84
						c1.382,0,2.657-0.797,3.257-2.031l9.978-21.082h25.741l10.077,21.086c0.59,1.23,1.868,2.027,3.252,2.027h7.567
						c0.017,0,0.032,0,0.042,0c1.988,0,3.6-1.594,3.6-3.574c0-0.664-0.184-1.309-0.522-1.852L307.734,388.268z M309.904,426.584
						h-12.688l6.355-13.439L309.904,426.584z"/>
					<path fill="#58595B" d="M391.933,388.348c-0.582-1.303-1.876-2.168-3.305-2.168h-1.538c-1.443,0-2.735,0.855-3.305,2.152
						l-30.591,70.33c-0.484,1.127-0.385,2.379,0.294,3.412c0.658,1.002,1.78,1.609,3.011,1.609h7.638
						c1.426,0,2.736-0.826,3.296-2.178l20.359-46.67l20.038,46.67c0.554,1.342,1.857,2.178,3.305,2.178h7.665
						c1.98,0,3.604-1.594,3.604-3.574c0-0.617-0.157-1.221-0.466-1.775L391.933,388.348z"/>
					<path fill="#58595B" d="M515.403,421.514l31.096-29.096c1.091-1.012,1.455-2.553,0.892-3.939
						c-0.532-1.383-1.857-2.299-3.347-2.299h-9.42c-0.922,0-1.81,0.34-2.459,0.975l-22.053,20.703v-18.076
						c0-1.982-1.608-3.602-3.613-3.602h-7.165c-1.98,0-3.598,1.619-3.598,3.602v70.328c0,1.98,1.617,3.574,3.598,3.574h7.165
						c2.005,0,3.613-1.594,3.613-3.574v-23.672l24.599,26.141c0.678,0.707,1.619,1.105,2.623,1.105h9.346
						c1.448,0,2.723-0.83,3.317-2.178c0.566-1.297,0.308-2.824-0.688-3.857L515.403,421.514z"/>
					<path fill="#58595B" d="M459.068,415.697h-10.581v-25.531c0-2.449-1.347-3.986-3.475-3.986h-7.056
						c-2.312,0-3.55,2.037-3.55,3.986v69.949c0,1.697,1.497,3.568,3.61,3.568h21.051c14.28,0,24.678-10.48,24.678-24.891
						C483.746,429.84,477.02,415.697,459.068,415.697z M459.068,449.664h-10.581v-19.939h10.581c5.492,0,9.972,4.48,9.972,9.971
						C469.04,445.211,464.561,449.664,459.068,449.664z"/>
				</g>
			</g>
		</g>
		<g>
			<path fill="#58595B" d="M273.643,497.047h2.984l6.901,16.371l7.179-16.371h0.533l7.227,16.371l7.04-16.371h3.02l-9.792,22.543
				h-0.536l-7.193-16.1l-7.211,16.1h-0.539L273.643,497.047z"/>
			<path fill="#58595B" d="M310.991,497.047h2.984l6.898,16.371l7.186-16.371h0.534l7.228,16.371l7.032-16.371h3.017l-9.791,22.543
				h-0.535l-7.19-16.1l-7.211,16.1h-0.536L310.991,497.047z"/>
			<path fill="#58595B" d="M348.346,497.047h2.975l6.899,16.371l7.191-16.371h0.526l7.24,16.371l7.021-16.371h3.018l-9.791,22.543
				h-0.535l-7.193-16.1l-7.203,16.1h-0.534L348.346,497.047z"/>
			<path fill="#58595B" d="M389.789,515.027c0.707,0,1.303,0.258,1.811,0.762c0.489,0.469,0.738,1.059,0.738,1.822
				c0,0.682-0.25,1.279-0.738,1.795c-0.508,0.516-1.104,0.754-1.811,0.754c-0.7,0-1.304-0.238-1.779-0.754
				c-0.517-0.516-0.766-1.113-0.766-1.795c0-0.764,0.249-1.354,0.766-1.822C388.485,515.285,389.089,515.027,389.789,515.027z"/>
			<path fill="#58595B" d="M396.218,497.047h3.09l7.541,16.443l7.47-16.443h3.116l-10.311,22.543h-0.539L396.218,497.047z"/>
			<path fill="#58595B" d="M444.263,497.047v22.543h-2.838v-3.877c-1.209,1.441-2.561,2.58-4.099,3.318
				c-1.519,0.754-3.159,1.129-4.919,1.129c-3.227,0-5.948-1.16-8.188-3.449c-2.267-2.299-3.382-5.135-3.382-8.447
				c0-3.236,1.129-6.004,3.421-8.328c2.269-2.287,5-3.455,8.192-3.455c1.851,0,3.516,0.383,5.032,1.168
				c1.502,0.787,2.796,1.98,3.942,3.518v-4.119H444.263z M432.719,499.283c-1.642,0-3.114,0.377-4.461,1.178
				c-1.381,0.799-2.462,1.92-3.277,3.336c-0.817,1.436-1.183,2.945-1.183,4.561c0,1.568,0.37,3.105,1.197,4.531
				c0.801,1.465,1.882,2.592,3.263,3.383c1.386,0.818,2.848,1.191,4.428,1.191c1.57,0,3.104-0.371,4.488-1.178
				c1.419-0.805,2.516-1.873,3.279-3.252c0.764-1.357,1.178-2.898,1.178-4.611c0-2.602-0.895-4.795-2.611-6.51
				C437.326,500.141,435.189,499.283,432.719,499.283z"/>
			<path fill="#58595B" d="M450.395,488.379h2.871v31.211h-2.871V488.379z"/>
			<path fill="#58595B" d="M459.271,488.379h2.89v17.764l10.438-9.096h4.239l-12.354,10.727l13.119,11.816h-4.111l-11.331-10.135
				v10.135h-2.89V488.379z"/>
			<path fill="#58595B" d="M491.225,496.48c3.448,0,6.356,1.266,8.63,3.764c2.05,2.324,3.114,5.008,3.114,8.145
				c0,3.133-1.094,5.881-3.298,8.244c-2.202,2.367-5.003,3.527-8.446,3.527c-3.481,0-6.274-1.16-8.475-3.527
				c-2.205-2.363-3.303-5.111-3.303-8.244c0-3.117,1.077-5.82,3.119-8.145C484.839,497.754,487.743,496.48,491.225,496.48z
				 M491.211,499.322c-2.385,0-4.488,0.895-6.235,2.652c-1.684,1.822-2.587,3.977-2.587,6.461c0,1.672,0.435,3.166,1.21,4.564
				c0.763,1.412,1.845,2.48,3.197,3.232c1.332,0.787,2.792,1.178,4.415,1.178c1.611,0,3.083-0.391,4.414-1.178
				c1.342-0.752,2.425-1.82,3.187-3.232c0.798-1.398,1.229-2.893,1.229-4.564c0-2.484-0.91-4.639-2.606-6.461
				C495.676,500.217,493.585,499.322,491.211,499.322z"/>
			<path fill="#58595B" d="M511.506,515.027c0.686,0,1.3,0.258,1.789,0.762c0.505,0.469,0.74,1.059,0.74,1.822
				c0,0.682-0.235,1.279-0.74,1.795c-0.489,0.516-1.104,0.754-1.789,0.754c-0.702,0-1.318-0.238-1.772-0.754
				c-0.523-0.516-0.775-1.113-0.775-1.795c0-0.764,0.252-1.354,0.775-1.822C510.188,515.285,510.804,515.027,511.506,515.027z"/>
			<path fill="#58595B" d="M519.69,497.047h2.89v10.533c0,2.553,0.134,4.348,0.401,5.295c0.417,1.355,1.19,2.459,2.395,3.264
				c1.146,0.809,2.543,1.193,4.172,1.193c1.606,0,2.974-0.371,4.116-1.154c1.108-0.779,1.882-1.766,2.338-3.07
				c0.288-0.848,0.43-2.691,0.43-5.527v-10.533h2.952v11.033c0,3.131-0.358,5.479-1.07,7.064c-0.754,1.566-1.846,2.797-3.283,3.697
				c-1.477,0.879-3.298,1.318-5.482,1.318c-2.181,0-4.004-0.439-5.505-1.318c-1.448-0.9-2.553-2.131-3.264-3.738
				c-0.751-1.611-1.089-3.988-1.089-7.184V497.047z"/>
			<path fill="#58595B" d="M568.269,497.047v22.543h-2.881v-3.877c-1.21,1.441-2.568,2.58-4.071,3.318
				c-1.502,0.754-3.178,1.129-4.968,1.129c-3.175,0-5.896-1.16-8.172-3.449c-2.239-2.299-3.385-5.135-3.385-8.447
				c0-3.236,1.158-6.004,3.427-8.328c2.267-2.287,5.014-3.455,8.234-3.455c1.845,0,3.522,0.383,5.005,1.168
				c1.487,0.787,2.83,1.98,3.93,3.518v-4.119H568.269z M556.673,499.283c-1.608,0-3.11,0.377-4.468,1.178
				c-1.358,0.799-2.445,1.92-3.264,3.336c-0.79,1.436-1.204,2.945-1.204,4.561c0,1.568,0.414,3.105,1.216,4.531
				c0.829,1.465,1.925,2.592,3.294,3.383c1.367,0.818,2.829,1.191,4.399,1.191c1.599,0,3.093-0.371,4.52-1.178
				c1.437-0.805,2.507-1.873,3.281-3.252c0.764-1.357,1.134-2.898,1.134-4.611c0-2.602-0.84-4.795-2.562-6.51
				C561.296,500.141,559.195,499.283,556.673,499.283z"/>
		</g>
	</g>
</g>
</svg>
