<?xml version="1.0" encoding="utf-8"?>
<!-- Generator: Adobe Illustrator 18.0.0, SVG Export Plug-In . SVG Version: 6.00 Build 0)  -->
<!DOCTYPE svg PUBLIC "-//W3C//DTD SVG 1.1 Tiny//EN" "http://www.w3.org/Graphics/SVG/1.1/DTD/svg11-tiny.dtd">
<svg version="1.1" baseProfile="tiny" id="Layer_1" xmlns="http://www.w3.org/2000/svg" xmlns:xlink="http://www.w3.org/1999/xlink"
	 x="0px" y="0px" viewBox="0 0 300 300" xml:space="preserve">
<g>
	<g>
		<path fill="#00B550" d="M150,1.8c-51.3,0-92.9,41.6-92.9,92.9c0,65,92.9,204.3,92.9,204.3s92.9-139.3,92.9-204.3
			C242.9,43.4,201.3,1.8,150,1.8z M158.6,168.4c-2.8,0.2-5.6,0.5-8.6,0.5s-5.8-0.3-8.6-0.5c-37-4.3-65.6-35.6-65.6-73.7
			c0-41,33.3-74.3,74.3-74.3c41,0,74.3,33.3,74.3,74.3C224.3,132.8,195.6,164.1,158.6,168.4z"/>
		<circle fill="#333E48" cx="150" cy="94.7" r="37.1"/>
	</g>
</g>
</svg>
