<!-- Generator: Adobe Illustrator 18.0.0, SVG Export Plug-In  -->
<svg version="1.1"
	 xmlns="http://www.w3.org/2000/svg" xmlns:xlink="http://www.w3.org/1999/xlink" xmlns:a="http://ns.adobe.com/AdobeSVGViewerExtensions/3.0/"
	 x="0px" y="0px" width="57.7px" height="60px" viewBox="0 0 57.7 60" enable-background="new 0 0 57.7 60" xml:space="preserve"
	>
<defs>
</defs>
<g>
	<g id="svg-logo-symbol">
		<path fill="#862A8F" d="M36,36.9c-0.1,0-0.1,0.1-0.2,0.1c3.5,1.7,9.1,3.5,14.5,3.6c1.5-2.6,2.8-5.4,3.8-8.3
			c-5,2.2-10.4,3.1-16.1,3.3C37.4,36.1,36.7,36.5,36,36.9z"/>
		<path fill="#00ADEE" d="M41.2,33.4c5.1-0.8,10.8-2.9,14-4.9c0.8-3.4,1.2-7,1.2-10.7c0-1.5-0.1-3.1-0.2-4.6
			C53.1,21.2,47.9,28.2,41.2,33.4z"/>
		<path fill="#EC0874" d="M49.4,42c-6,0-11.7-1.1-17-3.2c-3.2-1.2-6.2-2.8-8.9-4.7c0,0,0,0-0.1,0C12.2,26.5,4.4,14.2,3.1,0
			C1.1,5.2,0,10.8,0,16.6c0,0.8,0,1.6,0.1,2.4c0,0.6,0.1,1.1,0.1,1.7c0.2,1.8,0.4,3.7,0.8,5.5c0.1,0.5,0.1,0.3,0.1,0.5
			c3.3,3.4,10,7.7,11.7,8.9c-1.7-0.3-8.1-3.4-10.7-5.1c1.5,4.7,3.6,9.3,6.6,13.2c2.1,0.9,6.2,2.9,7.7,3.4c-1.9-0.2-4.5-0.9-6.2-1.4
			c4.9,6.1,11.2,10.9,18.5,13.9c0.3,0.1,0.6,0.2,0.8,0.3c1.4-0.6,2.7-1.3,4-2.1C40.1,54,45.7,48.5,49.6,42C49.6,42,49.5,42,49.4,42z
			"/>
	</g>


</g>
</svg>
