<!-- Generator: Adobe Illustrator 18.0.0, SVG Export Plug-In  -->
<svg version="1.1"
	 xmlns="http://www.w3.org/2000/svg" xmlns:xlink="http://www.w3.org/1999/xlink" xmlns:a="http://ns.adobe.com/AdobeSVGViewerExtensions/3.0/"
	 x="0px" y="0px" width="40px" height="42.5px" viewBox="0 0 40 42.5" enable-background="new 0 0 40 42.5" xml:space="preserve">
<defs>
</defs>
<g>
	<g>
		<path fill="#212121" d="M25.6,26.1c-0.1,0-0.1,0.1-0.1,0.1c2.5,1.2,6.5,2.5,10.3,2.6c1.1-1.9,2-3.8,2.7-5.9
			c-3.6,1.5-7.4,2.2-11.4,2.4C26.5,25.6,26,25.9,25.6,26.1z"/>
		<path fill="#212121" d="M29.2,23.7c3.6-0.6,7.7-2,9.9-3.5c0.6-2.4,0.9-5,0.9-7.6c0-1.1-0.1-2.2-0.2-3.2
			C37.7,15.1,33.9,20,29.2,23.7z"/>
		<g>
			<path fill="#212121" d="M35,29.8c-4.3,0-8.3-0.8-12.1-2.3c-2.2-0.9-4.4-2-6.3-3.3c0,0,0,0-0.1,0C8.6,18.8,3.1,10.1,2.2,0
				C0.8,3.7,0,7.6,0,11.8c0,0.6,0,1.2,0,1.7c0,0.4,0.1,0.8,0.1,1.2c0.1,1.3,0.3,2.6,0.6,3.9c0.1,0.4,0,0.2,0.1,0.4
				c2.3,2.4,7.1,5.4,8.3,6.3c-1.2-0.2-5.8-2.4-7.6-3.6c1,3.3,2.6,6.6,4.7,9.3c1.5,0.6,4.4,2.1,5.4,2.4c-1.3-0.1-3.2-0.7-4.4-1
				c3.5,4.3,8,7.7,13.1,9.9c0.2,0.1,0.4,0.2,0.6,0.2c1-0.5,1.9-1,2.8-1.5c4.7-2.8,8.6-6.6,11.4-11.3C35.1,29.8,35.1,29.8,35,29.8z"
				/>
		</g>
	</g>
</g>
</svg>