<!-- Generator: Adobe Illustrator 18.0.0, SVG Export Plug-In  -->
<svg class="logo-svg" version="1.1"
	 xmlns="http://www.w3.org/2000/svg" xmlns:xlink="http://www.w3.org/1999/xlink" xmlns:a="http://ns.adobe.com/AdobeSVGViewerExtensions/3.0/"
	 x="0px" y="0px" width="179.7px" height="60px" viewBox="0 0 179.7 60" enable-background="new 0 0 179.7 60" xml:space="preserve"
	>
<defs>
</defs>
<g>
	<g id="svg-logo-symbol">
		<path fill="#862A8F" d="M36,36.9c-0.1,0-0.1,0.1-0.2,0.1c3.5,1.7,9.1,3.5,14.5,3.6c1.5-2.6,2.8-5.4,3.8-8.3
			c-5,2.2-10.4,3.1-16.1,3.3C37.4,36.1,36.7,36.5,36,36.9z"/>
		<path fill="#00ADEE" d="M41.2,33.4c5.1-0.8,10.8-2.9,14-4.9c0.8-3.4,1.2-7,1.2-10.7c0-1.5-0.1-3.1-0.2-4.6
			C53.1,21.2,47.9,28.2,41.2,33.4z"/>
		<path fill="#EC0874" d="M49.4,42c-6,0-11.7-1.1-17-3.2c-3.2-1.2-6.2-2.8-8.9-4.7c0,0,0,0-0.1,0C12.2,26.5,4.4,14.2,3.1,0
			C1.1,5.2,0,10.8,0,16.6c0,0.8,0,1.6,0.1,2.4c0,0.6,0.1,1.1,0.1,1.7c0.2,1.8,0.4,3.7,0.8,5.5c0.1,0.5,0.1,0.3,0.1,0.5
			c3.3,3.4,10,7.7,11.7,8.9c-1.7-0.3-8.1-3.4-10.7-5.1c1.5,4.7,3.6,9.3,6.6,13.2c2.1,0.9,6.2,2.9,7.7,3.4c-1.9-0.2-4.5-0.9-6.2-1.4
			c4.9,6.1,11.2,10.9,18.5,13.9c0.3,0.1,0.6,0.2,0.8,0.3c1.4-0.6,2.7-1.3,4-2.1C40.1,54,45.7,48.5,49.6,42C49.6,42,49.5,42,49.4,42z
			"/>
	</g>
	<g id="svg-logo-word-voronin">
		<path fill="#FFFFFF" d="M71.2,41.9c-2.6-6.2-4.7-12.5-6.5-18.9h4.2c1.1,4.7,2.6,9.5,4.3,14.2c1.7-4.7,3.1-9.4,4.3-14.2h4.1
			c-1.8,6.4-4,12.7-6.5,18.9H71.2z"/>
		<path fill="#FFFFFF" d="M92.2,42.2c-3.6,0-7.1-1.4-7.1-7.3c0-5,2.5-7.3,7.1-7.3s7.1,2.3,7.1,7.3C99.4,40,96.7,42.2,92.2,42.2z
			 M92.2,30.6c-2.5,0-3.3,1.1-3.3,4.3c0,3.2,0.9,4.3,3.4,4.3c2.4,0,3.3-1.1,3.3-4.3C95.6,31.8,94.7,30.6,92.2,30.6z"/>
		<path fill="#FFFFFF" d="M105.4,41.9V28h3.5v1.7c0.8-1.5,1.8-2,3.6-2c0.7,0,0.9,0.1,0.9,0.1v3.5c0,0-0.4-0.1-1.2-0.1
			c-2.9,0-3.2,2.4-3.2,5.5v5.1H105.4z"/>
		<path fill="#FFFFFF" d="M125.5,42.2c-3.6,0-7.1-1.4-7.1-7.3c0-5,2.5-7.3,7.1-7.3c4.6,0,7.1,2.3,7.1,7.3
			C132.7,40,130,42.2,125.5,42.2z M125.5,30.6c-2.5,0-3.3,1.1-3.3,4.3c0,3.2,0.9,4.3,3.4,4.3c2.4,0,3.3-1.1,3.3-4.3
			C128.9,31.8,128.1,30.6,125.5,30.6z"/>
		<path fill="#FFFFFF" d="M146.2,33.9c0-2.1,0-3.2-2.4-3.2c-2.6,0-2.9,1.4-2.9,4.6v6.6h-3.7V28h3.5v1.8c1-1.3,2.1-2.1,4.6-2.1
			c3.6,0,4.5,1.5,4.5,5.7v8.5h-3.7V33.9z"/>
		<path fill="#FFFFFF" d="M176,33.9c0-2.1,0-3.2-2.4-3.2c-2.6,0-2.9,1.4-2.9,4.6v6.6h-3.7V28h3.5v1.8c1-1.3,2.1-2.1,4.6-2.1
			c3.6,0,4.5,1.5,4.5,5.7v8.5H176V33.9z"/>
		<path fill="#FFFFFF" d="M156.5,29.2v12.6h3.7V27.7C159,28.2,157.8,28.8,156.5,29.2z"/>
		<path fill="#00ADEE" d="M156.5,23c0,1.2,0,2.9,0,3.2c1.2-0.5,2.5-1,3.7-1.6c0-0.5,0-3,0-4.3C159,21.3,157.8,22.2,156.5,23z"/>
	</g>
	<g id="svg-logo-word-studio">
		<path fill="#FFFFFF" d="M70.1,56.1l1.5-0.8c0.1,0.4,0.3,0.7,0.6,0.9c0.3,0.2,0.7,0.3,1.1,0.3c0.4,0,0.7-0.1,0.9-0.3
			c0.2-0.2,0.3-0.4,0.3-0.7c0-0.4-0.4-0.8-1.2-1.1c-0.3-0.1-0.5-0.2-0.6-0.2c-0.8-0.3-1.4-0.7-1.7-1c-0.3-0.4-0.5-0.8-0.5-1.3
			c0-0.7,0.3-1.3,0.8-1.7c0.5-0.4,1.3-0.6,2.2-0.6c0.6,0,1.1,0.1,1.5,0.3c0.4,0.2,0.7,0.5,0.9,0.9l-1.3,0.9
			c-0.1-0.2-0.3-0.4-0.5-0.6c-0.2-0.1-0.5-0.2-0.8-0.2c-0.3,0-0.6,0.1-0.8,0.2c-0.2,0.2-0.3,0.4-0.3,0.6c0,0.4,0.5,0.8,1.4,1.1
			c0.3,0.1,0.5,0.2,0.7,0.3c0.7,0.3,1.2,0.6,1.5,1c0.3,0.4,0.5,0.8,0.5,1.3c0,0.8-0.3,1.4-0.8,1.8c-0.6,0.4-1.3,0.7-2.3,0.7
			c-0.8,0-1.4-0.1-1.9-0.4C70.8,57.1,70.4,56.7,70.1,56.1z"/>
		<path fill="#FFFFFF" d="M81.9,57.5v-6.2h-1.4v-1.6h1.4v-2.9h1.8v2.9h1.4v1.6h-1.4v6.2H81.9z"/>
		<path fill="#FFFFFF" d="M91.7,49.8v4.4c0,0.8,0.2,1.3,0.5,1.6c0.3,0.3,0.8,0.5,1.5,0.5c0.7,0,1.2-0.2,1.5-0.5
			c0.3-0.3,0.5-0.9,0.5-1.6v-4.4h1.8v3.8c0,1.5-0.3,2.6-0.9,3.2c-0.6,0.7-1.5,1-2.8,1c-1.3,0-2.3-0.3-2.9-1
			c-0.6-0.7-0.9-1.7-0.9-3.2v-3.8H91.7z"/>
		<path fill="#FFFFFF" d="M108.7,44.8h1.8v12.7h-1.8v-1c-0.3,0.4-0.7,0.8-1.1,1c-0.4,0.2-0.9,0.3-1.5,0.3c-1.1,0-2-0.4-2.6-1.1
			c-0.6-0.8-0.9-1.8-0.9-3.1c0-1.2,0.3-2.2,1-3c0.6-0.8,1.5-1.1,2.5-1.1c0.6,0,1.2,0.1,1.6,0.4c0.5,0.3,0.8,0.6,1,1.1V44.8z
			 M108.7,53.6c0-0.8-0.2-1.4-0.6-1.9c-0.4-0.4-0.9-0.7-1.6-0.7c-0.7,0-1.2,0.2-1.6,0.7c-0.4,0.5-0.6,1.1-0.6,1.9
			c0,0.8,0.2,1.5,0.6,1.9c0.4,0.4,0.9,0.7,1.6,0.7c0.6,0,1.2-0.2,1.6-0.7C108.5,55,108.7,54.4,108.7,53.6z"/>
		<path fill="#FFFFFF" d="M116.1,46.4c0-0.3,0.1-0.6,0.3-0.8c0.2-0.2,0.5-0.3,0.8-0.3c0.3,0,0.6,0.1,0.8,0.3
			c0.2,0.2,0.3,0.5,0.3,0.8c0,0.3-0.1,0.6-0.3,0.8c-0.2,0.2-0.5,0.3-0.8,0.3c-0.3,0-0.6-0.1-0.8-0.3C116.2,47,116.1,46.7,116.1,46.4
			z M116.4,57.5v-7.8h1.8v7.8H116.4z"/>
		<path fill="#FFFFFF" d="M123.4,53.6c0-0.6,0.1-1.1,0.3-1.6c0.2-0.5,0.5-1,0.9-1.3c0.4-0.4,0.9-0.7,1.4-0.9
			c0.5-0.2,1.1-0.3,1.6-0.3c0.6,0,1.1,0.1,1.6,0.3c0.5,0.2,1,0.5,1.4,0.9c0.4,0.4,0.7,0.8,0.9,1.4c0.2,0.5,0.3,1,0.3,1.6
			c0,0.6-0.1,1.1-0.3,1.6c-0.2,0.5-0.5,0.9-0.9,1.3c-0.4,0.4-0.9,0.7-1.4,0.9c-0.5,0.2-1.1,0.3-1.6,0.3c-0.6,0-1.1-0.1-1.6-0.3
			c-0.5-0.2-1-0.5-1.4-0.9c-0.4-0.4-0.7-0.9-0.9-1.4C123.6,54.7,123.4,54.2,123.4,53.6z M130.1,53.7c0-0.7-0.2-1.3-0.7-1.8
			c-0.5-0.5-1-0.7-1.7-0.7c-0.7,0-1.2,0.2-1.7,0.7c-0.5,0.5-0.7,1.1-0.7,1.8s0.2,1.3,0.7,1.8c0.5,0.5,1,0.7,1.7,0.7
			c0.7,0,1.2-0.3,1.7-0.7C129.9,55,130.1,54.4,130.1,53.7z"/>
	</g>
</g>
</svg>
