<!-- Generator: Adobe Illustrator 18.0.0, SVG Export Plug-In  -->
<svg version="1.1"
	 xmlns="http://www.w3.org/2000/svg" xmlns:xlink="http://www.w3.org/1999/xlink" xmlns:a="http://ns.adobe.com/AdobeSVGViewerExtensions/3.0/"
	 x="0px" y="0px" width="18px" height="18px" viewBox="0 0 18 18" enable-background="new 0 0 18 18" xml:space="preserve">
<defs>
</defs>
<g>
	<g>
		<path fill="#EC0874" d="M6,2v4H2V2H6 M8,0H0v8h8V0L8,0z"/>
	</g>
	<g>
		<path fill="#EC0874" d="M16,2v4h-4V2H16 M18,0h-8v8h8V0L18,0z"/>
	</g>
	<g>
		<path fill="#EC0874" d="M6,12v4H2v-4H6 M8,10H0v8h8V10L8,10z"/>
	</g>
	<g>
		<path fill="#EC0874" d="M16,12v4h-4v-4H16 M18,10h-8v8h8V10L18,10z"/>
	</g>
</g>
</svg>