<!-- Generator: Adobe Illustrator 18.1.1, SVG Export Plug-In  -->
<svg version="1.1"
   xmlns="http://www.w3.org/2000/svg" xmlns:xlink="http://www.w3.org/1999/xlink" xmlns:a="http://ns.adobe.com/AdobeSVGViewerExtensions/3.0/"
   x="0px" y="0px" width="40px" height="26.7px" viewBox="0 0 40 26.7" enable-background="new 0 0 40 26.7" xml:space="preserve">
<defs>
</defs>
<path fill="#90A4AE" d="M40,13.3L26.7,0L20,6.7L13.3,0L0,13.3l13.3,13.3L20,20l6.7,6.7L40,13.3z M13.3,24.8L1.9,13.3L13.3,1.9
  l5.7,5.7l-5.7,5.7l5.7,5.7L13.3,24.8z M20,8.6l4.8,4.8L20,18.1l-4.8-4.8L20,8.6z M26.7,13.3l-5.7-5.7l5.7-5.7l11.4,11.4L26.7,24.8
  l-5.7-5.7L26.7,13.3z"/>
</svg>
