<?xml version="1.0" encoding="utf-8"?>
<!-- Generator: Adobe Illustrator 18.0.0, SVG Export Plug-In . SVG Version: 6.00 Build 0)  -->
<!DOCTYPE svg PUBLIC "-//W3C//DTD SVG 1.1//EN" "http://www.w3.org/Graphics/SVG/1.1/DTD/svg11.dtd">
<svg version="1.1" id="Layer_1" xmlns="http://www.w3.org/2000/svg" xmlns:xlink="http://www.w3.org/1999/xlink" x="0px" y="0px"
	 viewBox="0 0 30 30" enable-background="new 0 0 30 30" xml:space="preserve">
<g>
	<g>
		<path fill="#212121" d="M12.7,2c5.9,0,10.7,4.8,10.7,10.7c0,5.9-4.8,10.7-10.7,10.7C6.8,23.3,2,18.6,2,12.7C2,6.8,6.8,2,12.7,2
			 M12.7,0C5.7,0,0,5.7,0,12.7c0,7,5.7,12.7,12.7,12.7c7,0,12.7-5.7,12.7-12.7C25.3,5.7,19.7,0,12.7,0L12.7,0z"/>
	</g>
	<line fill="none" stroke="#212121" stroke-width="2" stroke-miterlimit="10" x1="22.7" y1="22.7" x2="30" y2="30"/>
</g>
</svg>
