<?xml version="1.0" encoding="utf-8"?>
<!-- Generator: Adobe Illustrator 18.0.0, SVG Export Plug-In . SVG Version: 6.00 Build 0)  -->
<!DOCTYPE svg PUBLIC "-//W3C//DTD SVG 1.1//EN" "http://www.w3.org/Graphics/SVG/1.1/DTD/svg11.dtd">
<svg version="1.1" id="Layer_1" xmlns="http://www.w3.org/2000/svg" xmlns:xlink="http://www.w3.org/1999/xlink" x="0px" y="0px"
	 viewBox="0 0 350 350" enable-background="new 0 0 350 350" xml:space="preserve">
<g>
	<g opacity="0.2">
		<path fill="#ECEFF1" d="M175,1c46.5,0,90.2,18.1,123,51s51,76.6,51,123c0,46.5-18.1,90.2-51,123c-32.9,32.9-76.6,51-123,51
			s-90.2-18.1-123-51C19.1,265.2,1,221.5,1,175c0-46.5,18.1-90.2,51-123C84.8,19.1,128.5,1,175,1 M175,0C78.4,0,0,78.4,0,175
			c0,96.7,78.4,175,175,175c96.6,0,175-78.3,175-175C350,78.4,271.6,0,175,0L175,0z"/>
	</g>
	<polygon opacity="0.2" fill="#ECEFF1" points="0,348.4 348.3,0 350,1.7 1.7,350 	"/>
</g>
<g>
	<g>
		<path fill="#EC0874" d="M248.5,41.1l60.3,60.3L173.6,236.7l-60.3-60.3L248.5,41.1 M248.5,27L99.2,176.4l74.5,74.5L323,101.5
			L248.5,27L248.5,27z"/>
	</g>
	<g>
		<path fill="#EC0874" d="M78,222.1l50.5,50.6l-66.9,15.6L78,222.1 M72.5,202.4L48,301.8l100.3-23.4L72.5,202.4L72.5,202.4z"/>
	</g>
	<line fill="none" stroke="#EC0874" stroke-width="10" stroke-miterlimit="10" x1="295.3" y1="79.1" x2="148.9" y2="225.7"/>
</g>
</svg>
