<?xml version="1.0" encoding="utf-8"?>
<!-- Generator: Adobe Illustrator 18.0.0, SVG Export Plug-In . SVG Version: 6.00 Build 0)  -->
<!DOCTYPE svg PUBLIC "-//W3C//DTD SVG 1.1//EN" "http://www.w3.org/Graphics/SVG/1.1/DTD/svg11.dtd">
<svg version="1.1" id="Layer_1" xmlns="http://www.w3.org/2000/svg" xmlns:xlink="http://www.w3.org/1999/xlink" x="0px" y="0px"
	 viewBox="0 0 350 350" enable-background="new 0 0 350 350" xml:space="preserve">
<g>
	<g opacity="0.2">
		<path fill="#ECEFF1" d="M175,1c46.5,0,90.2,18.1,123,51s51,76.6,51,123c0,46.5-18.1,90.2-51,123c-32.9,32.9-76.6,51-123,51
			s-90.2-18.1-123-51C19.1,265.2,1,221.5,1,175c0-46.5,18.1-90.2,51-123C84.8,19.1,128.5,1,175,1 M175,0C78.4,0,0,78.4,0,175
			c0,96.7,78.4,175,175,175c96.6,0,175-78.3,175-175C350,78.4,271.6,0,175,0L175,0z"/>
	</g>
	<polygon opacity="0.2" fill="#ECEFF1" points="0,348.4 348.3,0 350,1.7 1.7,350 	"/>
</g>
<g>
	<g>
		<path fill="#EC0874" d="M175,35c37.4,0,72.6,14.6,99,41s41,61.6,41,99s-14.6,72.6-41,99s-61.6,41-99,41s-72.6-14.6-99-41
			s-41-61.6-41-99s14.6-72.6,41-99S137.6,35,175,35 M175,25C92.2,25,25,92.2,25,175s67.2,150,150,150s150-67.2,150-150
			S257.8,25,175,25L175,25z"/>
	</g>
	<g>
		<path fill="#EC0874" d="M175,109c36.4,0,66,29.6,66,66s-29.6,66-66,66s-66-29.6-66-66S138.6,109,175,109 M175,99
			c-42,0-76,34-76,76c0,42,34,76,76,76s76-34,76-76C251,133,217,99,175,99L175,99z"/>
	</g>
	<g>
		<path fill="#EC0874" d="M175,165c-5.5,0-10,4.5-10,10c0,5.5,4.5,10,10,10s10-4.5,10-10C185,169.5,180.5,165,175,165L175,165z"/>
	</g>
</g>
</svg>
