<?xml version="1.0" encoding="utf-8"?>
<!-- Generator: Adobe Illustrator 18.0.0, SVG Export Plug-In . SVG Version: 6.00 Build 0)  -->
<!DOCTYPE svg PUBLIC "-//W3C//DTD SVG 1.1//EN" "http://www.w3.org/Graphics/SVG/1.1/DTD/svg11.dtd">
<svg class="wing" version="1.1" id="Layer_1" xmlns="http://www.w3.org/2000/svg" xmlns:xlink="http://www.w3.org/1999/xlink" x="0px" y="0px"
	 viewBox="0 0 2000 2417.2" enable-background="new 0 0 2000 2417.2" xml:space="preserve">
<path d="M1990.9,1692c-242.1,0-473.3-45.8-685.7-129.3c-127.3-49.9-247.8-113.5-359.8-188.7c-1-0.7-2-1.3-2.9-2
	C490.7,1067.3,179,571.2,123.1,0C43.7,208.1,0,433.7,0,669.7c0,32.9,0.9,65.6,2.6,98c1.2,23.1,3,45.9,4.9,68.6
	c6.5,74,16.5,148.8,32.2,221.9c4.7,21.6,2.4,13.3,4.7,21.6c131.9,138.7,403,309.2,471.3,357.9c-69.6-13.9-327.5-138.5-429.8-206.1
	c58.8,187.7,146.9,373.5,265.4,531.1c85,36,249.9,117.2,308.4,137c-75.1-7.3-180-37.3-248-57.3c196.1,244.5,452,439,745.6,561
	c11.2,4.7,22.5,9.3,33.9,13.8c55-25.8,108.5-54.2,160.4-85c265.1-157,488.2-377.3,648.5-640.2C1997,1692,1993.9,1692,1990.9,1692z"
	/>
</svg>
