<?xml version="1.0" encoding="utf-8"?>
<!-- Generator: Adobe Illustrator 18.0.0, SVG Export Plug-In . SVG Version: 6.00 Build 0)  -->
<!DOCTYPE svg PUBLIC "-//W3C//DTD SVG 1.1//EN" "http://www.w3.org/Graphics/SVG/1.1/DTD/svg11.dtd">
<svg version="1.1" id="Layer_1" xmlns="http://www.w3.org/2000/svg" xmlns:xlink="http://www.w3.org/1999/xlink" x="0px" y="0px"
	 viewBox="0 0 40 40" enable-background="new 0 0 40 40" xml:space="preserve">
<g>
	<circle fill="#212121" cx="20" cy="20" r="20"/>
	<g>
		<g>
			<path fill="#ECEFF1" d="M17,12.8v4h-4v-4H17 M19,10.8h-8v8h8V10.8L19,10.8z"/>
		</g>
		<g>
			<path fill="#ECEFF1" d="M27,12.8v4h-4v-4H27 M29,10.8h-8v8h8V10.8L29,10.8z"/>
		</g>
		<g>
			<path fill="#ECEFF1" d="M17,22.8v4h-4v-4H17 M19,20.8h-8v8h8V20.8L19,20.8z"/>
		</g>
		<g>
			<path fill="#ECEFF1" d="M27,22.8v4h-4v-4H27 M29,20.8h-8v8h8V20.8L29,20.8z"/>
		</g>
	</g>
</g>
</svg>
