<?xml version="1.0" encoding="utf-8"?>
<!-- Generator: Adobe Illustrator 18.0.0, SVG Export Plug-In . SVG Version: 6.00 Build 0)  -->
<!DOCTYPE svg PUBLIC "-//W3C//DTD SVG 1.1//EN" "http://www.w3.org/Graphics/SVG/1.1/DTD/svg11.dtd">
<svg version="1.1" id="Layer_1" xmlns="http://www.w3.org/2000/svg" xmlns:xlink="http://www.w3.org/1999/xlink" x="0px" y="0px"
	 viewBox="0 0 23.1 20" enable-background="new 0 0 23.1 20" xml:space="preserve">
<g>
	<g>
		<path id="LinkedIn_2_" fill="#90A4AE" d="M21.1,11.5v6.6h-3.8V12c0-1.5-0.6-2.6-1.9-2.6c-1.1,0-1.7,0.7-2,1.4
			c-0.1,0.2-0.1,0.6-0.1,0.9v6.4H9.5c0,0,0.1-10.4,0-11.5h3.8v1.6l0,0l0,0l0,0c0.5-0.8,1.4-1.9,3.4-1.9C19.2,6.4,21.1,8,21.1,11.5z
			 M5.5,1.1c-1.3,0-2.2,0.9-2.2,2s0.8,2,2.1,2l0,0c1.3,0,2.2-0.9,2.2-2C7.6,2,6.8,1.1,5.5,1.1z M3.5,18.1h3.8V6.6H3.5V18.1z"/>
	</g>
</g>
</svg>
