<?xml version="1.0" encoding="utf-8"?>
<!-- Generator: Adobe Illustrator 18.0.0, SVG Export Plug-In . SVG Version: 6.00 Build 0)  -->
<!DOCTYPE svg PUBLIC "-//W3C//DTD SVG 1.1//EN" "http://www.w3.org/Graphics/SVG/1.1/DTD/svg11.dtd">
<svg version="1.1" id="Layer_1" xmlns="http://www.w3.org/2000/svg" xmlns:xlink="http://www.w3.org/1999/xlink" x="0px" y="0px"
	 viewBox="0 0 20 20" enable-background="new 0 0 20 20" xml:space="preserve">
<g id="Lozenge_4_">
	<g>
		<path fill="#90A4AE" d="M17,7.1c0,0-0.1-1-0.6-1.5C15.8,5,15.1,5,14.9,5c-2.1-0.2-5.2-0.2-5.2-0.2h0c0,0-3.1,0-5.2,0.2
			C4.1,5,3.4,5,2.8,5.6C2.4,6.1,2.3,7.1,2.3,7.1S2.1,8.3,2.1,9.6v1.1c0,1.2,0.2,2.4,0.2,2.4s0.1,1,0.6,1.5c0.6,0.6,1.3,0.6,1.7,0.6
			c1.2,0.1,5.1,0.2,5.1,0.2s3.2,0,5.3-0.2c0.3,0,0.9,0,1.5-0.6c0.4-0.5,0.6-1.5,0.6-1.5s0.1-1.2,0.1-2.4V9.6C17.1,8.3,17,7.1,17,7.1
			z M7.1,13.1l0-6.2l6,3.1L7.1,13.1z"/>
	</g>
</g>
</svg>
