<?xml version="1.0" encoding="utf-8"?>
<!-- Generator: Adobe Illustrator 18.0.0, SVG Export Plug-In . SVG Version: 6.00 Build 0)  -->
<!DOCTYPE svg PUBLIC "-//W3C//DTD SVG 1.1//EN" "http://www.w3.org/Graphics/SVG/1.1/DTD/svg11.dtd">
<svg version="1.1" id="Layer_1" xmlns="http://www.w3.org/2000/svg" xmlns:xlink="http://www.w3.org/1999/xlink" x="0px" y="0px"
	 viewBox="0 0 23.1 20" enable-background="new 0 0 23.1 20" xml:space="preserve">
<g>
	<g>
		<path id="Behance_2_" fill="#90A4AE" d="M20.4,5h-5.6V3.6h5.6V5L20.4,5z M11,10.7c0.4,0.6,0.5,1.2,0.5,2.1c0,0.8-0.2,1.6-0.6,2.2
			c-0.3,0.4-0.6,0.8-1,1.1s-1,0.6-1.6,0.7S7,17,6.3,17H0V3h6.8c1.7,0,2.9,0.5,3.6,1.5C10.8,5.1,11,5.8,11,6.6c0,0.9-0.2,1.5-0.6,2.1
			C10.2,9,9.8,9.3,9.3,9.5C10.1,9.7,10.6,10.2,11,10.7z M3.3,8.5h3c0.6,0,1.1-0.1,1.5-0.3S8.4,7.6,8.4,7c0-0.7-0.3-1.1-0.8-1.3
			c-0.4-0.1-1-0.2-1.7-0.2H3.3V8.5z M8.6,12.6c0-0.7-0.3-1.2-0.9-1.5c-0.3-0.2-0.8-0.2-1.4-0.2h-3v3.7h3c0.6,0,1.1-0.1,1.4-0.2
			C8.3,14,8.6,13.4,8.6,12.6z M22.5,10.3c0.1,0.5,0.1,1.1,0.1,2h-7.3c0,1,0.4,1.7,1,2.1c0.4,0.3,0.9,0.4,1.4,0.4
			c0.6,0,1.1-0.2,1.5-0.5c0.2-0.2,0.4-0.4,0.5-0.7h2.7c-0.1,0.6-0.4,1.2-1,1.8c-0.9,1-2.2,1.5-3.8,1.5c-1.3,0-2.5-0.4-3.5-1.2
			s-1.5-2.2-1.5-4c0-1.7,0.5-3.1,1.4-4s2.1-1.4,3.6-1.4c0.9,0,1.7,0.2,2.4,0.5c0.7,0.3,1.3,0.8,1.7,1.5C22.1,8.8,22.3,9.5,22.5,10.3
			z M19.8,10.6c0-0.7-0.3-1.2-0.7-1.6c-0.4-0.4-0.9-0.5-1.6-0.5s-1.2,0.2-1.6,0.6c-0.4,0.4-0.6,0.9-0.7,1.6L19.8,10.6L19.8,10.6z"/>
	</g>
</g>
</svg>
