<?xml version="1.0" encoding="utf-8"?>
<!-- Generator: Adobe Illustrator 18.0.0, SVG Export Plug-In . SVG Version: 6.00 Build 0)  -->
<!DOCTYPE svg PUBLIC "-//W3C//DTD SVG 1.1//EN" "http://www.w3.org/Graphics/SVG/1.1/DTD/svg11.dtd">
<svg version="1.1" id="Layer_1" xmlns="http://www.w3.org/2000/svg" xmlns:xlink="http://www.w3.org/1999/xlink" x="0px" y="0px"
	 viewBox="0 0 23.1 20" enable-background="new 0 0 23.1 20" xml:space="preserve">
<g>
	<g>
		<path fill="#90A4AE" d="M5.5,2.1h11.9c1.1,0,2.1,0.8,2.1,2.1v11.9c0,1.2-0.9,2.1-2.1,2.1H5.5c-1.1,0-2.1-0.8-2.1-2.1V4.2
			C3.4,2.9,4.3,2.1,5.5,2.1L5.5,2.1z M15.1,3.9c-0.4,0-0.7,0.3-0.7,0.7v1.7c0,0.4,0.3,0.7,0.7,0.7h1.8c0.4,0,0.7-0.3,0.7-0.7V4.6
			c0-0.4-0.3-0.7-0.7-0.7H15.1L15.1,3.9z M16.2,8.9c0.1,0.4,0.2,0.9,0.2,1.4c0,2.7-2.2,4.8-5,4.8c-2.7,0-5-2.2-5-4.8
			c0-0.5,0.1-0.9,0.2-1.4H5.1v6.8c0,0.3,0.3,0.6,0.6,0.6H17c0.3,0,0.6-0.2,0.6-0.5V8.9H16.2z M11.4,7c-1.8,0-3.2,1.4-3.2,3.1
			s1.4,3.1,3.2,3.1c1.8,0,3.2-1.4,3.2-3.1S13.2,7,11.4,7z"/>
	</g>
</g>
</svg>
