<?xml version="1.0" encoding="utf-8"?>
<!-- Generator: Adobe Illustrator 16.0.0, SVG Export Plug-In . SVG Version: 6.00 Build 0)  -->
<!DOCTYPE svg PUBLIC "-//W3C//DTD SVG 1.1//EN" "http://www.w3.org/Graphics/SVG/1.1/DTD/svg11.dtd">
<svg version="1.1" id="Layer_1" xmlns="http://www.w3.org/2000/svg" xmlns:xlink="http://www.w3.org/1999/xlink" x="0px" y="0px"
	 width="841.89px" height="595.28px" viewBox="0 0 841.89 595.28" enable-background="new 0 0 841.89 595.28" xml:space="preserve">
<g>
	<path fill-rule="evenodd" clip-rule="evenodd" fill="#58595B" d="M306.278,383.492l10.36-23.074h66.521l9.654,23.074h47.8
		l-63.341-128.095h-47.683l-66.284,128.095H306.278L306.278,383.492z M371.621,332.396h-42.149l21.663-46.623L371.621,332.396z"/>
	<polygon fill-rule="evenodd" clip-rule="evenodd" fill="#58595B" points="563.293,283.301 496.419,283.301 496.419,383.492 
		452.622,383.492 452.622,255.397 563.293,255.397 	"/>
	<rect x="574.831" y="255.397" fill-rule="evenodd" clip-rule="evenodd" fill="#58595B" width="43.797" height="128.095"/>
	<polygon fill-rule="evenodd" clip-rule="evenodd" fill="#58595B" points="630.637,383.492 673.729,383.492 673.729,318.386 
		725.295,383.492 779.571,383.492 720.351,310.379 771.329,255.397 718.703,255.397 673.729,303.433 673.729,255.397 
		630.637,255.397 	"/>
	<rect x="56.917" y="390.557" fill-rule="evenodd" clip-rule="evenodd" fill="#58595B" width="197.558" height="6.946"/>
	<rect x="261.421" y="390.557" fill-rule="evenodd" clip-rule="evenodd" fill="#58595B" width="518.621" height="6.946"/>
	<path fill-rule="evenodd" clip-rule="evenodd" fill="#58595B" d="M777.57,248.688H227.632l-33.673,83.474l-34.614-83.474H84.231
		v134.805H57.858v-141.87h726.187L777.57,248.688L777.57,248.688z M254.004,383.492V274.941l-45.21,108.551H254.004L254.004,383.492
		z M174.298,383.492l-46.623-108.551v108.551H174.298z"/>
	<path fill="#58595B" d="M65.377,205.12h14.238c1.938,0,2.906,1.138,2.906,2.906c0,1.939-0.968,3.413-2.865,3.413h-14.28V205.12
		L65.377,205.12z M58.384,228.836h22.495c6.614,0,9.773-2.317,9.773-8.594c0-4.591-1.854-5.855-4.76-6.824
		c2.359-0.758,3.623-1.769,3.623-6.487c0-5.392-3.58-7.33-10.067-7.33H58.384V228.836L58.384,228.836z M65.377,216.62h14.28
		c3.624,0,4.002,1.053,4.002,3.285c0,2.571-0.506,3.413-4.255,3.413H65.377V216.62L65.377,216.62z M163.632,199.602h-6.993v29.235
		h12.005l17.566-23.421h0.968v23.421h6.993v-29.235H182.42l-17.82,23.421h-0.968V199.602L163.632,199.602z M266.899,220.201h13.016
		c7.204,0,10.194-2.949,10.194-10.363c0-7.372-2.906-10.236-10.278-10.236h-19.925v29.235h6.993V220.201L266.899,220.201z
		 M266.899,205.415h11.668c3.665,0,4.549,1.559,4.549,4.423c0,3.159-1.011,4.549-4.549,4.549h-11.668V205.415L266.899,205.415z
		 M361.32,218.137v-7.793c0-4.17,1.222-5.265,5.603-5.265h9.015c4.17,0,5.603,0.969,5.603,5.224v7.792
		c0,3.96-1.011,4.928-5.476,4.928h-9.268C362.542,223.022,361.32,221.97,361.32,218.137L361.32,218.137z M388.533,218.852v-9.183
		c0-8.214-3.329-10.404-10.573-10.404h-12.848c-7.962,0-10.785,2.401-10.785,10.404v9.183c0,7.077,2.949,9.984,10.785,9.984h12.848
		C386.132,228.836,388.533,226.141,388.533,218.852L388.533,218.852z M454.014,199.602v29.235h19.927
		c6.949,0,10.405-1.769,10.405-9.141c0-7.457-3.667-9.184-10.575-9.184h-12.764v-5.392h20.431v-5.518H454.014L454.014,199.602z
		 M461.007,216.325h12.343c3.623,0,4.003,1.053,4.003,3.285c0,2.57-0.506,3.412-4.256,3.412h-12.09V216.325L461.007,216.325z
		 M556.776,199.602h-6.993v29.235h6.993V216.62h18.072v12.216h6.992v-29.235h-6.992v11.205h-18.072V199.602L556.776,199.602z
		 M654.441,199.602h-6.993v29.235h12.006l17.565-23.421h0.97v23.421h6.992v-29.235h-11.753l-17.818,23.421h-0.969V199.602
		L654.441,199.602z M757.962,199.602h-6.992v29.235h6.992v-12.511h4.254l13.522,12.511h10.279l-17.904-15.545l17.23-13.69h-10.49
		l-12.764,10.91h-4.128V199.602z"/>
</g>
</svg>
