<?xml version="1.0" encoding="utf-8"?>
<!-- Generator: Adobe Illustrator 16.0.0, SVG Export Plug-In . SVG Version: 6.00 Build 0)  -->
<!DOCTYPE svg PUBLIC "-//W3C//DTD SVG 1.1//EN" "http://www.w3.org/Graphics/SVG/1.1/DTD/svg11.dtd">
<svg version="1.1" id="Layer_1" xmlns="http://www.w3.org/2000/svg" xmlns:xlink="http://www.w3.org/1999/xlink" x="0px" y="0px"
	 width="841.89px" height="595.28px" viewBox="0 0 841.89 595.28" enable-background="new 0 0 841.89 595.28" xml:space="preserve">
<g>
	<path fill="#58595B" d="M358.355,275.918c-1.718-0.227-3.21-0.676-4.408-1.373c-1.296-0.699-2.316-1.896-3.065-3.591
		c-0.341-0.74-0.571-2.248-0.702-4.487v-9.943v-11.691v-2.067c25.589-12.451,36.211-32.617,36.211-32.617
		c15.85-27.495-18.048-25.822-18.048-25.822c-4.238-0.227-8.07-0.111-11.522,0.275h-39.352v2.958
		c1.603,0.222,2.972,0.625,4.069,1.266c1.669,0.971,2.781,2.109,3.326,3.402c0.422,0.994,0.679,3.165,0.779,6.448v17.469v2.513
		v1.795v10.115v2.412v11.854v11.691v8.281c-0.1,3.284-0.356,5.451-0.779,6.448c-0.544,1.297-1.657,2.429-3.326,3.403
		c-1.097,0.641-2.466,1.047-4.069,1.262v2.961h40.886V275.918z M350.181,197.988c0,0,31.002-7.718,28.643,5.842
		c-2.363,13.556-28.643,27.745-28.643,27.745v-12.919V197.988z"/>
	<path fill="#58595B" d="M318.339,318.597c1.604,0.214,2.98,0.625,4.078,1.257c1.665,0.979,2.777,2.11,3.326,3.406
		c0.165,0.392,0.303,0.963,0.418,1.712c-12.881,6.893-28.343,21.059-37.169,33.384c-12.171,17.004-19.306,37.081-11.558,48.75
		c7.445,11.216,31.796,0.755,49.007-16.878v5.948c-0.096,3.315-0.353,5.501-0.779,6.499c-0.544,1.297-1.657,2.428-3.326,3.402
		c-1.093,0.637-2.466,1.044-4.066,1.262v2.961h40.883v-2.961c-1.718-0.229-3.207-0.675-4.408-1.374
		c-1.296-0.701-2.317-1.897-3.064-3.59c-0.342-0.743-0.572-2.26-0.702-4.503v-67.96l0,0c0.092-3.288,0.349-5.421,0.779-6.353
		c0.744-1.691,1.768-2.889,3.065-3.587c1.204-0.706,2.685-1.15,4.4-1.38v-2.958h-40.883V318.597z M305.842,385.194
		c-7.768-5.151-6.042-20.963,3.863-35.31c4.937-7.149,10.963-12.57,16.736-15.581v46.376
		C318.819,386.51,310.924,388.569,305.842,385.194z"/>
	<path fill="#58595B" d="M504.494,318.431c1.596,0.223,2.978,0.626,4.07,1.267c1.673,0.97,2.777,2.105,3.329,3.402
		c0.43,1.017,0.687,3.252,0.779,6.651h-0.081v3.313l-22.755,26.76v-30.073l0,0c0.097-3.284,0.354-5.424,0.775-6.356
		c0.748-1.696,1.772-2.889,3.069-3.586c1.2-0.702,2.685-1.147,4.402-1.378v-2.957h-40.878v2.957
		c1.595,0.223,2.969,0.626,4.069,1.267c1.669,0.97,2.773,2.105,3.321,3.402c0.434,1.017,0.687,3.252,0.783,6.651h-0.081v66.269
		c-0.095,3.307-0.356,5.493-0.771,6.494c-0.553,1.292-1.665,2.428-3.333,3.398c-1.094,0.64-2.471,1.043-4.074,1.262v2.966h40.894
		v-2.958c-1.726-0.23-3.21-0.675-4.41-1.381c-1.297-0.698-2.317-1.896-3.065-3.59c-0.337-0.737-0.575-2.248-0.702-4.485v-24.795
		l22.755-26.762v49.851c-0.1,3.307-0.353,5.493-0.775,6.494c-0.548,1.292-1.66,2.428-3.325,3.398
		c-1.097,0.64-2.467,1.043-4.07,1.262v2.966h40.887v-2.958c-1.726-0.23-3.211-0.675-4.411-1.381
		c-1.296-0.698-2.316-1.896-3.065-3.59c-0.34-0.737-0.571-2.248-0.697-4.485v-67.975h-0.004c0.092-3.284,0.35-5.424,0.778-6.356
		c0.745-1.696,1.769-2.889,3.065-3.586c1.204-0.702,2.685-1.147,4.403-1.378v-2.957h-40.883V318.431z"/>
	<path fill="#58595B" d="M406.626,318.597c1.595,0.214,2.969,0.625,4.07,1.257c1.665,0.979,2.773,2.11,3.329,3.406
		c0.134,0.338,0.261,0.826,0.369,1.436c-15.244,11.922-51.19,44.653-47.454,85.65h30.146c-8.278-48.957,11.047-67.749,17.633-76
		v61.83c-0.096,3.315-0.353,5.501-0.775,6.499c-0.548,1.297-1.657,2.428-3.326,3.402c-1.097,0.637-2.47,1.044-4.07,1.262v2.961
		h8.492v0.046h4.231V410.3h28.16v-2.961c-1.724-0.229-3.204-0.675-4.408-1.374c-1.297-0.701-2.313-1.897-3.062-3.59
		c-0.345-0.743-0.575-2.26-0.698-4.503v-67.96h-0.004c0.093-3.288,0.35-5.421,0.775-6.353c0.744-1.691,1.769-2.889,3.065-3.587
		c1.2-0.706,2.685-1.15,4.406-1.38v-2.958h-40.882V318.597z"/>
	<path fill="#58595B" d="M271.691,278.879h37.48v-2.941c0,0-13.107-4.956-11.723-33.726h-3.088c0,0-6.736,30.99-24.277,29.429
		c-0.119-0.227-0.246-0.44-0.353-0.687c-0.345-0.744-0.575-2.252-0.702-4.487V233.39c4.714,0.046,11.772,0.104,11.976,0.188
		c0.356,0.146,0.663,0.453,0.936,0.913c0.176,0.307,0.288,11.719,0.353,12.164h3.966v-30.22h-3.966
		c-0.069,0.476-0.188,7.196-0.379,7.53c-0.196,0.353-0.526,0.637-0.994,0.844c-0.18,0.084-7.196,0.142-11.891,0.18v-26.16
		c0.095-3.257,0.349-5.378,0.774-6.303c0.111-0.249,0.238-0.464,0.36-0.697c17.484-1.458,24.197,29.444,24.197,29.444h3.092
		c-1.389-28.773,11.719-33.618,11.719-33.618v-3.054h-31.899h-5.578H236.39v2.958c1.603,0.222,2.977,0.625,4.073,1.266
		c1.665,0.971,2.777,2.106,3.326,3.398c0.418,0.979,0.667,3.092,0.767,6.268h-0.073v66.312c-0.096,3.287-0.35,5.45-0.771,6.447
		c-0.544,1.297-1.657,2.433-3.326,3.403c-1.097,0.641-2.47,1.047-4.07,1.266v2.961H271.691L271.691,278.879z"/>
	<path fill="#58595B" d="M176.197,257.425c-0.153,5.082-0.548,8.446-1.193,9.984c-0.848,1.999-2.559,3.744-5.132,5.244
		c-1.692,0.986-3.805,1.611-6.272,1.948v4.562h63.024v-4.558c-2.647-0.356-4.937-1.043-6.79-2.125
		c-1.999-1.078-3.575-2.919-4.722-5.531c-0.529-1.146-0.886-3.479-1.085-6.935V155.241l0,0c0.146-5.067,0.537-8.362,1.197-9.793
		c1.151-2.612,2.727-4.457,4.726-5.535c1.853-1.086,4.139-1.769,6.793-2.125v-4.558h-63.031v4.562
		c2.47,0.341,4.588,0.966,6.275,1.948c2.578,1.496,4.289,3.245,5.129,5.244c0.66,1.564,1.059,5.01,1.205,10.257h-0.123v33.265
		c-6.479,10.583-18.884,8.492-18.884,8.492c-39.575-6.64,1.592-63.752,1.592-63.752h-12.286h-0.994h-31.036v4.204h5.106
		c4.312,0,7.729,0.729,10.265,2.206c2.531,1.477,4.215,3.195,5.048,5.163c0.222,0.525,0.41,1.292,0.571,2.24l-9.076,12.489
		c-36.92,57.369-15.144,68.528-15.144,68.528c16.502,13.942,55.379-17.063,64.838-25.021V257.425z"/>
	<path fill="#58595B" d="M402.913,279.037h20.415h4.136h45.527c-1.267-31.363-25.847-45.939-35.298-50.362
		c18.263-6.92,25.946-18.527,25.946-18.527c15.854-27.495-18.044-25.822-18.044-25.822c-4.235-0.227-8.067-0.111-11.523,0.275
		h-39.356v2.958c1.6,0.222,2.969,0.625,4.07,1.266c1.669,0.971,2.781,2.109,3.326,3.402c0.422,0.994,0.675,3.165,0.775,6.448v19.981
		v26.176v19.973c-0.1,3.284-0.353,5.451-0.775,6.448c-0.544,1.297-1.657,2.429-3.326,3.403c-1.101,0.641-2.47,1.047-4.07,1.262
		v2.961h8.197V279.037z M445.595,270.954H428.13c-0.318-0.69-0.541-2.029-0.667-3.993v-32.938
		C427.463,234.022,447.569,239.112,445.595,270.954z M456.073,203.83c-2.362,13.556-28.642,18.934-28.642,18.934v-24.775
		C427.432,197.988,458.434,190.271,456.073,203.83z"/>
	<path fill="#58595B" d="M513.159,183.972c-19.337,0-35.006,21.639-35.006,48.328c0,26.683,15.669,48.32,35.006,48.32
		c19.333,0,35.007-21.638,35.007-48.32C548.166,205.61,532.492,183.972,513.159,183.972z M513.155,272.055
		c-7.579,0-13.012-11.423-13.012-39.678c0-28.332,5.433-39.832,13.012-39.832c7.634,0,13.016,11.5,13.016,39.832
		C526.171,260.632,520.789,272.055,513.155,272.055z"/>
	<path fill="#58595B" d="M602.232,318.431c1.6,0.223,2.976,0.626,4.077,1.267c1.665,0.97,2.773,2.105,3.318,3.402
		c0.434,1.017,0.69,3.252,0.783,6.651h-0.081v8.113h-22.751v-8.113h-0.004c0.093-3.284,0.354-5.424,0.779-6.356
		c0.743-1.696,1.769-2.889,3.064-3.586c1.201-0.702,2.689-1.147,4.403-1.378v-2.957h-40.878v2.957
		c1.595,0.223,2.969,0.626,4.065,1.267c1.669,0.97,2.78,2.105,3.325,3.402c0.434,1.017,0.687,3.252,0.783,6.651h-0.085v66.269
		c-0.096,3.307-0.35,5.493-0.771,6.494c-0.553,1.292-1.661,2.428-3.326,3.398c-1.097,0.64-2.47,1.043-4.069,1.262v2.966h40.882
		v-2.958c-1.722-0.23-3.202-0.675-4.406-1.381c-1.297-0.698-2.317-1.896-3.069-3.59c-0.337-0.737-0.567-2.248-0.694-4.485v-51.369
		h22.751v49.663c-0.093,3.307-0.354,5.493-0.775,6.494c-0.552,1.292-1.656,2.428-3.329,3.398c-1.093,0.64-2.471,1.043-4.07,1.262
		v2.966h40.887v-2.958c-1.722-0.23-3.203-0.675-4.403-1.381c-1.3-0.698-2.32-1.896-3.069-3.59c-0.342-0.737-0.567-2.248-0.697-4.485
		v-67.975l0,0c0.092-3.284,0.35-5.424,0.778-6.356c0.744-1.696,1.764-2.889,3.057-3.586c1.209-0.702,2.693-1.147,4.412-1.378v-2.957
		h-40.887V318.431z"/>
	<path fill="#58595B" d="M603.413,187.559c1.601,0.222,2.974,0.625,4.066,1.266c1.669,0.971,2.781,2.106,3.326,3.398
		c0.418,0.982,0.667,3.104,0.771,6.307h-0.073v8.116h-22.747v-7.821c0.092-3.253,0.345-5.374,0.775-6.299
		c0.743-1.695,1.76-2.888,3.061-3.59c1.205-0.698,2.688-1.147,4.411-1.377v-2.958h-40.887v2.958
		c1.597,0.222,2.977,0.625,4.069,1.266c1.669,0.971,2.781,2.106,3.331,3.398c0.409,0.982,0.666,3.104,0.767,6.307h-0.073v66.269
		c-0.092,3.311-0.35,5.497-0.774,6.494c-0.553,1.293-1.654,2.432-3.322,3.398c-1.101,0.641-2.474,1.047-4.073,1.27v2.953h40.882
		v-2.953c-1.714-0.234-3.198-0.679-4.399-1.381c-1.3-0.698-2.321-1.892-3.068-3.583c-0.342-0.748-0.571-2.251-0.698-4.492v-51.369
		h22.747v49.663c-0.097,3.311-0.35,5.497-0.771,6.494c-0.553,1.293-1.657,2.432-3.33,3.398c-1.093,0.641-2.47,1.047-4.068,1.27
		v2.953h40.882v-2.953c-1.718-0.234-3.198-0.679-4.404-1.381c-1.299-0.698-2.316-1.892-3.064-3.583
		c-0.341-0.748-0.571-2.251-0.697-4.492v-67.68c0.092-3.253,0.353-5.374,0.774-6.299c0.744-1.695,1.769-2.888,3.061-3.59
		c1.205-0.698,2.692-1.147,4.412-1.377v-2.958h-40.884V187.559z"/>
	<path fill="#58595B" d="M248.25,403.668c-20.311-14.952-31.389-26.177-34.224-36.939v-9.725
		c3.644-11.365,19.816-30.062,35.662-23.943c0,0,10.031,3.076,0.38,22.076l28.128-12.824c4.2-19.686-9.379-24.994-9.379-24.994
		c-25.497-6.214-45.521,13.034-54.792,24.385v-3.578l0,0c0.146-5.064,0.537-8.359,1.197-9.789c1.151-2.617,2.727-4.458,4.726-5.539
		c1.853-1.079,4.139-1.765,6.793-2.126v-4.557h-63.027v4.561c2.466,0.342,4.584,0.967,6.271,1.952
		c2.578,1.497,4.281,3.242,5.129,5.24c0.664,1.568,1.059,5.018,1.205,10.258h-0.123v102.184c-0.153,5.094-0.548,8.45-1.197,9.984
		c-0.844,1.998-2.555,3.751-5.128,5.248c-1.688,0.981-3.805,1.61-6.272,1.944v4.564h63.028v-4.557
		c-2.655-0.361-4.941-1.043-6.793-2.129c-1.999-1.074-3.575-2.919-4.726-5.527c-0.529-1.147-0.882-3.476-1.082-6.92v-54.121
		c11.914,9.663,37.599,35.739,24.733,73.104h42.137C280.897,461.9,293.882,437.259,248.25,403.668z"/>
	<path fill="#58595B" d="M693.53,318.597c1.604,0.214,2.976,0.625,4.073,1.257c1.668,0.979,2.773,2.11,3.326,3.406
		c0.164,0.392,0.307,0.963,0.422,1.712c-12.881,6.893-28.344,21.059-37.17,33.384c-12.167,17.004-19.306,37.081-11.558,48.75
		c7.441,11.216,31.792,0.755,49.008-16.878v5.948c-0.104,3.315-0.354,5.501-0.775,6.499c-0.549,1.297-1.66,2.428-3.329,3.402
		c-1.094,0.637-2.471,1.044-4.07,1.262v2.961h40.887v-2.961c-1.722-0.229-3.207-0.675-4.412-1.374
		c-1.299-0.701-2.316-1.897-3.061-3.59c-0.342-0.743-0.571-2.26-0.701-4.503v-67.96h-0.004c0.099-3.288,0.355-5.421,0.782-6.353
		c0.748-1.691,1.768-2.889,3.064-3.587c1.204-0.706,2.686-1.15,4.404-1.38v-2.958H693.53V318.597z M681.029,385.194
		c-7.765-5.151-6.038-20.963,3.87-35.31c4.933-7.149,10.959-12.57,16.732-15.581v46.376
		C694.01,386.51,686.111,388.569,681.029,385.194z"/>
	<path fill="#58595B" d="M729.438,192.521c0.751-1.691,1.772-2.884,3.068-3.586c1.205-0.698,2.686-1.147,4.403-1.377v-2.958h-40.882
		v2.958c1.6,0.222,2.973,0.625,4.07,1.262c1.672,0.975,2.772,2.106,3.325,3.402c0.13,0.303,0.241,0.726,0.338,1.239
		c-12.862,6.908-28.282,21.04-37.086,33.346c-12.164,16.992-19.306,37.073-11.561,48.746c7.448,11.216,31.799,0.755,49.011-16.882
		v5.953c-0.1,3.311-0.356,5.493-0.775,6.498c-0.548,1.297-1.661,2.428-3.325,3.402c-1.098,0.637-2.475,1.047-4.074,1.258v2.965
		h40.891v-2.961c-1.727-0.227-3.211-0.671-4.415-1.373c-1.297-0.702-2.313-1.898-3.062-3.595c-0.341-0.739-0.575-2.255-0.702-4.507
		v-67.484C728.759,195.571,729.02,193.45,729.438,192.521z M683.522,253.639c-7.765-5.147-6.035-20.959,3.866-35.309
		c4.933-7.15,10.963-12.563,16.736-15.581v46.379C696.502,254.963,688.608,257.015,683.522,253.639z"/>
</g>
</svg>
