<?xml version="1.0" encoding="utf-8"?>
<!-- Generator: Adobe Illustrator 16.0.0, SVG Export Plug-In . SVG Version: 6.00 Build 0)  -->
<!DOCTYPE svg PUBLIC "-//W3C//DTD SVG 1.1//EN" "http://www.w3.org/Graphics/SVG/1.1/DTD/svg11.dtd">
<svg version="1.1" id="Layer_1" xmlns="http://www.w3.org/2000/svg" xmlns:xlink="http://www.w3.org/1999/xlink" x="0px" y="0px"
	 width="841.89px" height="595.28px" viewBox="0 0 841.89 595.28" enable-background="new 0 0 841.89 595.28" xml:space="preserve">
<rect x="228.121" y="42.522" fill="#464547" width="385.649" height="385.649"/>
<path fill="#FFFFFF" d="M557.684,151.609c1.641-1.738,4.484-3.144,8.67-4.268v-5.281h-91.066v5.281
	c5.436,1.29,8.168,4.323,8.168,9.048c0,2.192-0.834,4.716-2.428,7.581l-60.083,108.345l-60.086-108.345
	c-1.596-2.865-2.414-5.389-2.414-7.581c0-4.725,2.718-7.758,8.153-9.048v-5.281H275.52v5.281c4.192,1.124,7.028,2.529,8.679,4.268
	c1.6,1.744,2.423,4.271,2.423,7.592v190.268c0,3.414-0.823,6.006-2.423,7.752c-1.651,1.744-4.487,3.151-8.679,4.263v5.28h69.464
	v-5.28c-4.135-1.111-7.029-2.519-8.687-4.263c-1.594-1.746-2.431-4.338-2.431-7.752V211.513l87.067,155.251l0.012-0.019l0.007,0.019
	l87.052-155.251v137.956c0,3.414-0.807,6.006-2.402,7.752c-1.67,1.744-4.549,3.151-8.699,4.263v5.28h69.451v-5.28
	c-4.186-1.111-7.029-2.519-8.67-4.263c-1.59-1.746-2.426-4.338-2.426-7.752V159.201
	C555.258,155.881,556.094,153.354,557.684,151.609z"/>
<g>
	<path fill-rule="evenodd" clip-rule="evenodd" fill="#FFFFFF" d="M590.485,211.406l-0.569-1.949
		c-0.597-2.041-1.114-2.744-1.277-2.927c-0.167-0.086-0.906-0.388-3.049-0.388H485.328c-2.563,0-3.234,0.445-3.241,0.45
		c-0.003,0.003-0.511,0.436-1.037,2.716l-0.485,2.099h-8.029v-6.576c0-13.303,3.111-24.837,9.248-34.282
		c6.045-9.367,15.569-17.247,28.302-23.412c4.812-2.262,10.692-5.008,18.045-8.324c24.576-10.88,29.731-19.255,29.731-24.367
		c0-4.703-1.604-8.207-4.902-10.714c-3.479-2.653-8.612-3.997-15.262-3.997c-8.503,0-16.438,2.03-23.584,6.034
		c-6.632,3.69-9.99,7.428-9.99,11.112c0.005,0.027,0.096,0.789,1.209,3.581l0.052,0.14l0.796,2.368l-5.643,5.071l-28.876-30.625
		l5.787-5.574l1.798,1.14c0.876,0.556,1.759,1.034,2.699,1.461c0.53,0.229,0.881,0.314,1.093,0.343
		c0.367-0.156,1.533-0.784,4.541-3.274c3.34-2.777,6.141-4.858,8.557-6.358c6.712-4.24,13.99-7.422,21.615-9.445
		c7.513-1.992,15.914-3.002,24.972-3.002c14.626,0,26.455,3.73,35.16,11.087c8.844,7.476,13.328,17.628,13.328,30.176
		c0,10.893-3.16,20.037-9.393,27.177c-6.144,6.982-17.935,14.274-35.054,21.68c-3.393,1.493-7.816,3.353-13.133,5.519
		c-10.245,4.105-16.121,7.278-19.481,9.613h71.439c2.481,0,3.106-0.452,3.169-0.503c0,0,0,0,0,0c-0.002,0,0.574-0.537,1.105-3.077
		l0.45-2.155h8.074v39.183H590.485z"/>
	<path fill="#464547" d="M542.723,75.416c14.016,0,25.158,3.472,33.412,10.447c8.254,6.978,12.367,16.347,12.367,28.107
		c0,10.287-2.912,18.736-8.725,25.396c-5.859,6.66-17.223,13.679-34.088,20.975c-3.164,1.393-7.502,3.224-13.08,5.497
		c-14.531,5.822-22.873,10.768-25,14.83h77.98c2.357,0,3.955-0.356,4.883-1.114c0.887-0.753,1.553-2.273,2.043-4.621h3.164v33.765
		h-3.164c-0.641-2.192-1.373-3.59-2.154-4.268c-0.846-0.671-2.414-0.997-4.771-0.997H485.328c-2.447,0-4.08,0.357-4.93,1.041
		c-0.879,0.713-1.5,2.111-1.988,4.224h-3.166v-3.867c0-12.837,2.932-23.758,8.811-32.806c5.842-9.052,14.943-16.51,27.211-22.45
		c4.406-2.071,10.377-4.864,17.979-8.293c20.887-9.247,31.326-18.22,31.326-26.836c0-5.541-1.99-9.845-5.973-12.871
		c-3.98-3.036-9.637-4.549-16.9-4.549c-9.006,0-17.293,2.113-24.908,6.38c-7.592,4.225-11.375,8.73-11.375,13.476
		c0,0.716,0.465,2.233,1.402,4.584l0.229,0.68l-2.352,2.113l-25.223-26.75l2.324-2.238c1.135,0.72,2.146,1.238,3.029,1.64
		c0.912,0.395,1.695,0.599,2.383,0.599c0.979,0,2.969-1.317,6.1-3.909c3.166-2.633,5.875-4.664,8.258-6.143
		c6.559-4.144,13.506-7.172,20.881-9.129C525.813,76.374,533.902,75.416,542.723,75.416 M542.723,69.999
		c-9.291,0-17.927,1.04-25.666,3.092c-7.892,2.094-15.423,5.386-22.386,9.786c-2.487,1.543-5.387,3.695-8.828,6.557
		c-1.539,1.274-2.512,1.992-3.104,2.392c-0.704-0.336-1.376-0.708-2.043-1.131l-3.594-2.279l-3.065,2.952l-2.324,2.238l-3.861,3.719
		l3.678,3.9l25.223,26.75l3.629,3.848l3.934-3.535l2.352-2.113l2.649-2.38l-1.136-3.376l-0.229-0.68l-0.047-0.142l-0.056-0.139
		c-0.678-1.699-0.922-2.512-1.006-2.836c0.204-2.475,3.306-5.547,8.581-8.483c6.846-3.835,14.127-5.696,22.273-5.696
		c6.043,0,10.623,1.157,13.615,3.439c2.622,1.993,3.84,4.712,3.84,8.563c0,2.838-2.738,10.653-28.102,21.882
		c-7.402,3.339-13.296,6.091-18.09,8.344l-0.028,0.013l-0.028,0.014c-13.187,6.385-23.078,14.591-29.401,24.388
		c-6.418,9.877-9.677,21.908-9.677,35.744v3.867v5.417h5.418h3.166h4.309l0.97-4.197c0.1-0.43,0.191-0.759,0.271-1.007
		c0.323-0.033,0.77-0.061,1.369-0.061H585.59c0.556,0,0.973,0.023,1.275,0.052c0.126,0.305,0.28,0.733,0.45,1.314l1.139,3.898h4.062
		h3.164h5.418v-5.417v-33.765v-5.417h-5.418h-3.164h-4.403l-0.9,4.31c-0.128,0.617-0.251,1.059-0.353,1.367
		c-0.295,0.032-0.708,0.059-1.27,0.059h-61.059c2.717-1.298,6.036-2.758,10.093-4.384c5.37-2.188,9.817-4.057,13.248-5.567
		c17.703-7.658,29.48-14.975,35.973-22.354c6.69-7.664,10.075-17.407,10.075-28.974c0-13.382-4.808-24.23-14.287-32.245
		C570.424,73.944,558.006,69.999,542.723,69.999L542.723,69.999z"/>
</g>
<g>
	<rect x="230.83" y="425.881" fill="#FFFFFF" width="380.231" height="124.168"/>
	<path fill="#464547" d="M608.352,428.59v118.75H233.538V428.59H608.352 M613.77,423.172H228.121v129.586H613.77V423.172
		L613.77,423.172z"/>
</g>
<g>
	<path fill-rule="evenodd" clip-rule="evenodd" fill="#464547" d="M299.322,444.805c-0.276-0.376-5.091-3.633-5.712-3.885
		c-0.624-0.232-1.514-0.739-3.555,1.12c-7.108,6.08-27.641,38.327-34.284,57.751c-3.675-0.156-5.345,1.186-7.902,2.635
		c-2.138,1.219-0.663,4.406,0.979,8.113c1.937,4.384,15.524,1.668,16.975,0.486c1.891-0.112,15.227-0.031,18.93-0.031
		c-0.463,1.952,4.485,2.634,6.742,1.972c2.259-0.666,6.605-2.477,7.095-8.112c0.479-5.637-0.666-5.73-1.32-5.73
		c0.909-30.195,2.978-43.467,3.289-49.049C300.788,446.135,299.604,445.182,299.322,444.805z M284.182,496.104
		c-0.152,2.252-1.932,3.185-2.532,3.131c-0.598-0.065-11.253,0.7-12.047,0.505c-0.794-0.207-0.452-1.452,0.042-3.629
		c1.924-8.431,15.855-30.036,16.652-30.92c1.19-1.31,2.59-0.329,2.724,1.062C289.151,467.649,284.579,489.756,284.182,496.104z"/>
	<path fill-rule="evenodd" clip-rule="evenodd" fill="#464547" d="M374.334,468.834c-1.733-5.131-10.596-7.932-16.067-6.586
		c-12.55,3.102-27.374,21.662-19.85,42.377c3.12,8.582,13.083,7.675,15.409,7.675c2.342,0,10.634-1.251,13.254-7.241
		c2.622-5.989-2.853-7.541-6.324-5.268c-1.207,0.797-2.207,1.938-8.809,2.248c-6.603,0.296-3.963-10.717-3.963-11.846
		c0-1.13,1.745-1.209,1.971,0.379c0.239,1.592,2.674,4.454,9.886,2.635c7.211-1.827,11.736-8.131,13.177-9.895
		C375.084,480.771,376.127,474.177,374.334,468.834z M365.029,475.723c-2.471,6.662-7.164,8.589-8.698,9.3
		c-1.547,0.715-8.268,2.808-5.083-2.806c3.186-5.613,5.557-8.412,6.774-9.847C360.153,469.85,367.502,469.063,365.029,475.723z"/>
	<path fill-rule="evenodd" clip-rule="evenodd" fill="#464547" d="M432.943,484.851c6.072-2.653,14.201-10.716,16.525-15.064
		c0.592-1.055,0.813-4.093,0.613-4.789c-0.283-0.917-1.203-1.74-1.809-2.797c-1-1.788-2.377-1.267-3.457-0.22
		c-3.182,3.053-14.541,17.583-20.939,18.497c1.602-5.076,2.926-9.179,3.525-10.763c1.498-4.115,0.607-4.83-0.117-5.48
		c-0.387-0.355-0.916-0.715-2.549-2.138c-4.259-3.664-6.233,1.856-6.233,1.856c-0.65,1.932-12.851,36.122-13.519,39.14
		c-0.65,3.009,0.305,5.046,0.305,5.046s1.671,1.876,4.958,3.862c3.305,1.979,4.794-2.237,4.917-2.724
		c1.152-4.31,3.956-13.591,6.631-22.166c2.167,8.5,7.397,21.204,10.175,25.313c1.303,2.633,5.311,1.761,6.24,1.761
		c0.965,0,3.51-1.487,4.705-1.973c1.285-0.539,3.006-2.78,1.008-4.452c-2.031-1.655-9.682-15.857-11.436-21.55
		C432.268,485.556,432.023,485.253,432.943,484.851z"/>
	<path fill-rule="evenodd" clip-rule="evenodd" fill="#464547" d="M520.564,474.108c-1.502-5.073-6.586-4.606-7.266-4.606
		c-0.656,0-2.074-2.145-3.273-6.027c-1.205-3.892-5.789-3.018-8.441-1.227c-10.441,6.985-17.906,20.173-17.906,29.382
		c0,13.858,4.031,16.614,6.568,18.702c2.361,1.912,8.773,2.466,12.533,1.319c4.104-1.271,12.217-7.435,16.451-19.099
		C520.846,488.084,522.404,480.438,520.564,474.108z M501.146,501c-3.076,3.105-5.896,2.727-6.309,0.598
		c-0.453-2.559-2.82-14.666,10.504-28.539c0.447-0.46,3.676-2.493,4.289,1.231C510.221,477.887,510.205,491.907,501.146,501z"/>
	<path fill-rule="evenodd" clip-rule="evenodd" fill="#464547" d="M582.455,463.671c-1.273-0.044-3.143,0.206-5.254,0.587
		c0-0.01,0.002-0.019,0.002-0.023c0.113-2.1,0.496-4.88-0.818-5.326c-1.285-0.452-4.453-1.277-5.771-1.928
		c-1.316-0.651-3.93,0.65-3.951,2.396c-0.035,2.487-0.229,5.059-0.547,7.643c-2.23,0.686-4.035,1.333-4.943,1.815
		c-1.406,0.73-2.418,4.325-1.098,6.659c0,0,1.004,1.848,1.67,3.217c0.51,1.047,0.918,1.832,1.781,1.731
		c-4.711,18.505-13.381,36.282-16.617,43.729c-1.348,3.065-1.805,5.134,0,6.574c0.727,0.597,4.193,2.382,5.512,4.357
		c1.313,1.97,3.146,0.301,4.922-2.906c1.717-3.07,4.9-12.557,8.23-23.525c1.318,1.704,2.916,3.585,4.16,4.506
		c2.629,1.988,4.219,0.581,7.838-1.839c4.826-3.239,17.213-12.687,18.076-29.444C596.369,467.857,587.143,463.789,582.455,463.671z
		 M579.693,495.217c-2.648,2.955-7.951,5.835-10.49,6.09c-0.631,0.062-1.074-0.083-1.35-0.3c2.451-8.412,4.801-17.02,6.543-23.856
		c0.725-0.355,1.416-0.74,2.035-1.183c4.068-2.974,8.363-1.141,9.801,1.429C587.695,479.954,584.754,489.6,579.693,495.217z"/>
</g>
</svg>
