<?xml version="1.0" encoding="utf-8"?>
<!-- Generator: Adobe Illustrator 16.0.0, SVG Export Plug-In . SVG Version: 6.00 Build 0)  -->
<!DOCTYPE svg PUBLIC "-//W3C//DTD SVG 1.1//EN" "http://www.w3.org/Graphics/SVG/1.1/DTD/svg11.dtd">
<svg version="1.1" id="Layer_1" xmlns="http://www.w3.org/2000/svg" xmlns:xlink="http://www.w3.org/1999/xlink" x="0px" y="0px"
	 width="841.89px" height="595.28px" viewBox="0 0 841.89 595.28" enable-background="new 0 0 841.89 595.28" xml:space="preserve">
<g>
	<g>
		<path fill="#58595B" d="M161.872,334.904h-14.123l-18.354-21.063h-11.429v21.063h-11.885v-63.094
			c9.98,0,19.985,0.096,29.958,0.096c14.854,0.087,22.688,9.99,22.688,20.872c0,8.642-3.959,17.374-15.932,19.806l19.076,21.504
			V334.904z M117.966,282.978v20.159h18.073c7.573,0,10.808-5.043,10.808-10.086c0-5.044-3.331-10.072-10.808-10.072H117.966z"/>
		<path fill="#58595B" d="M225.694,334.904h-47.146c0-20.973,0-42.028,0-62.998h47.146v11.518h-35.359v14.492h34.104v11.068h-34.104
			v14.213h35.359V334.904z"/>
		<path fill="#58595B" d="M281.652,287.112c-2.17-3.601-8.119-7.018-14.941-7.018c-8.827,0-13.062,3.688-13.062,8.37
			c0,5.492,6.492,7.021,14.045,7.924c13.14,1.609,25.374,5.032,25.374,20.061c0,14.043-12.418,20.064-26.454,20.064
			c-12.868,0-22.766-3.953-27.447-15.467l9.896-5.135c2.805,6.928,10.076,9.986,17.726,9.986c7.477,0,14.482-2.609,14.482-9.449
			c0-5.938-6.207-8.373-14.56-9.277c-12.877-1.531-24.752-4.943-24.752-19.078c0-12.944,12.771-18.26,24.383-18.356
			c9.812,0,19.981,2.807,24.759,12.507L281.652,287.112z"/>
		<path fill="#58595B" d="M354.173,334.982v-25.453h-30.96v25.453h-11.875v-62.988h11.875v26.556h30.96v-26.556h11.788v62.988
			H354.173z"/>
		<path fill="#58595B" d="M424.508,271.811h11.889v63.094h-7.382v0.078l-33.127-42.556v42.478h-11.872v-62.998h9.625l30.867,39.052
			V271.811z"/>
		<path fill="#58595B" d="M501.008,323.021h-32.943l-5.395,11.883h-12.884l28.275-62.998h12.946l28.264,62.998h-12.965
			L501.008,323.021z M484.536,285.135l-11.717,26.816h23.405L484.536,285.135z"/>
		<path fill="#58595B" d="M568.563,287.112c-2.165-3.601-8.101-7.018-14.954-7.018c-8.815,0-13.03,3.688-13.03,8.37
			c0,5.492,6.476,7.021,14.036,7.924c13.138,1.609,25.374,5.032,25.374,20.061c0,14.043-12.412,20.064-26.474,20.064
			c-12.855,0-22.753-3.953-27.428-15.467l9.892-5.135c2.791,6.928,10.088,9.986,17.729,9.986c7.455,0,14.489-2.609,14.489-9.449
			c0-5.938-6.208-8.373-14.589-9.277c-12.858-1.531-24.741-4.943-24.741-19.078c0-12.944,12.788-18.26,24.391-18.356
			c9.802,0,19.964,2.807,24.752,12.507L568.563,287.112z"/>
		<path fill="#58595B" d="M611.444,282.702h-19.976v-10.795c18.188,0,33.577,0,51.83,0v10.795h-19.979v52.203h-11.875V282.702z"/>
		<path fill="#58595B" d="M659.584,334.904v-62.998h11.791v62.998H659.584z"/>
		<path fill="#58595B" d="M703.416,271.907v52.003h32.393v10.994h-44.28v-62.998H703.416z"/>
	</g>
	<g>
		<g>
			<polygon fill="#9FA1A4" points="314.444,375.293 330.479,359.26 298.409,359.26 			"/>
			<polygon fill="#9FA1A4" points="513.73,359.26 481.913,359.26 481.902,359.26 497.814,375.176 			"/>
			<polygon fill="#9FA1A4" points="516.894,394.25 533.353,410.711 533.353,377.252 516.894,360.795 			"/>
			<polygon fill="#9FA1A4" points="440.763,359.26 408.703,359.26 408.694,359.26 424.731,375.293 			"/>
			<polygon fill="#9FA1A4" points="461.217,411.777 477.947,395.047 460.187,377.289 460.181,377.285 443.538,360.645 
				443.538,394.105 			"/>
			<polygon fill="#9FA1A4" points="367.56,359.26 335.505,359.26 335.494,359.26 351.527,375.287 			"/>
			<polygon fill="#9FA1A4" points="370.188,393.953 388.125,411.891 404.854,395.162 370.188,360.492 			"/>
			<polygon fill="#9FA1A4" points="406.866,397.178 406.866,430.635 424.617,448.377 441.343,431.648 412.711,403.016 			"/>
			<polygon fill="#9FA1A4" points="443.538,467.305 460,483.768 460,450.305 455.845,446.148 443.538,433.84 			"/>
			<polygon fill="#9FA1A4" points="296.403,359.908 295.427,359.26 262.293,359.26 423.192,520.16 423.192,486.695 416.131,479.639 
				404.743,468.252 			"/>
			<polygon fill="#9FA1A4" points="549.85,359.26 518.011,359.26 521.024,362.271 533.933,375.178 			"/>
			<polygon fill="#9FA1A4" points="476.879,359.26 444.81,359.26 460.842,375.291 			"/>
			<polygon fill="#9FA1A4" points="497.808,377.836 480.601,395.047 480.601,395.047 480.601,395.047 497.33,411.779 
				515.013,394.098 515.013,360.635 497.812,377.838 			"/>
			<polygon fill="#9FA1A4" points="403.679,359.26 371.607,359.26 387.645,375.293 			"/>
			<polygon fill="#9FA1A4" points="409.194,396.852 424.246,411.893 441.66,394.477 441.66,361.076 441.66,361.018 424.731,377.951 
				424.731,377.951 407.512,395.166 			"/>
			<polygon fill="#9FA1A4" points="496.679,447.244 496.669,413.773 487.836,404.941 480.218,397.32 480.218,430.775 			"/>
			<polygon fill="#9FA1A4" points="450.124,437.773 460.729,448.379 478.335,430.771 478.335,397.314 444,431.648 			"/>
			<polygon fill="#9FA1A4" points="351.041,411.891 368.308,394.625 368.308,361.162 351.53,377.949 351.527,377.947 
				334.312,395.162 			"/>
			<polygon fill="#9FA1A4" points="370.912,431.764 386.647,447.498 387.645,448.492 404.988,431.15 404.988,397.688 
				388.129,414.547 			"/>
			<polygon fill="#9FA1A4" points="424.611,451.039 407.4,468.25 424.133,484.982 441.66,467.449 441.66,433.988 424.611,451.041 
							"/>
		</g>
		<g>
			<polygon fill="#9FA1A4" points="460.755,155.585 471.144,145.188 471.144,111.738 444.018,138.857 449.086,143.921 			"/>
			<polygon fill="#9FA1A4" points="507.933,181.794 507.933,148.343 480.719,175.551 497.448,192.283 			"/>
			<polygon fill="#9FA1A4" points="534.051,228.88 544.536,218.391 544.536,184.939 517.321,212.149 			"/>
			<polygon fill="#9FA1A4" points="581.173,247.817 581.173,221.547 554.896,247.817 			"/>
			<polygon fill="#9FA1A4" points="404.988,138.334 404.988,104.877 370.912,138.951 387.645,155.681 			"/>
			<polygon fill="#9FA1A4" points="424.244,192.279 441.66,174.862 441.66,141.404 424.731,158.334 424.731,158.333 
				407.512,175.551 			"/>
			<polygon fill="#9FA1A4" points="461.336,194.934 444.118,212.155 460.849,228.882 478.335,211.395 478.335,177.938 			"/>
			<polygon fill="#9FA1A4" points="497.938,231.539 497.936,231.537 481.656,247.817 515.013,247.817 515.013,246.04 
				515.013,214.46 			"/>
			<polygon fill="#9FA1A4" points="368.308,175.01 368.308,141.553 334.312,175.551 334.87,176.11 351.038,192.281 			"/>
			<polygon fill="#9FA1A4" points="397.223,185.842 370.912,212.154 387.669,228.852 404.988,211.535 404.988,178.079 			"/>
			<polygon fill="#9FA1A4" points="424.731,231.541 424.731,231.541 408.449,247.817 441.66,247.817 441.66,245.829 441.66,214.614 
							"/>
			<polygon fill="#9FA1A4" points="297.707,212.155 314.438,228.883 332.024,211.295 332.024,177.835 			"/>
			<polygon fill="#9FA1A4" points="351.523,231.537 335.243,247.817 368.308,247.817 368.308,245.68 368.308,214.753 			"/>
			<polygon fill="#9FA1A4" points="262.044,247.817 295.417,247.817 295.417,245.908 295.417,214.446 			"/>
			<polygon fill="#9FA1A4" points="424.244,119.062 434.732,108.574 434.732,75.121 407.512,102.331 			"/>
			<polygon fill="#9FA1A4" points="424.731,155.675 441.366,139.041 441.366,139.041 441.372,139.036 441.369,139.034 
				441.446,138.936 406.866,104.361 406.866,137.816 			"/>
			<polygon fill="#9FA1A4" points="443.538,174.489 461.332,192.284 478.062,175.555 460.751,158.241 459.997,157.669 
				443.538,141.215 			"/>
			<polygon fill="#9FA1A4" points="497.933,228.882 514.065,212.75 514.658,212.155 480.218,177.708 480.218,211.164 			"/>
			<polygon fill="#9FA1A4" points="550.324,247.817 516.894,214.382 516.894,247.817 			"/>
			<polygon fill="#9FA1A4" points="404.854,175.552 404.854,175.551 404.854,175.549 370.188,140.881 370.188,174.339 
				388.125,192.281 			"/>
			<polygon fill="#9FA1A4" points="406.866,211.02 424.731,228.883 441.462,212.157 412.651,183.346 406.866,177.563 			"/>
			<polygon fill="#9FA1A4" points="443.665,247.817 477.118,247.817 443.538,214.232 443.538,247.69 			"/>
			<polygon fill="#9FA1A4" points="368.252,212.152 351.038,194.936 351.038,194.938 333.904,177.8 333.904,211.257 351.523,228.88 
							"/>
			<polygon fill="#9FA1A4" points="297.296,247.817 330.711,247.817 305.231,222.334 297.296,214.399 			"/>
			<polygon fill="#9FA1A4" points="370.188,214.084 370.247,247.598 370.464,247.817 403.917,247.817 			"/>
		</g>
	</g>
</g>
</svg>
