<?xml version="1.0" encoding="utf-8"?>
<!-- Generator: Adobe Illustrator 16.0.0, SVG Export Plug-In . SVG Version: 6.00 Build 0)  -->
<!DOCTYPE svg PUBLIC "-//W3C//DTD SVG 1.1//EN" "http://www.w3.org/Graphics/SVG/1.1/DTD/svg11.dtd">
<svg version="1.1" id="Layer_1" xmlns="http://www.w3.org/2000/svg" xmlns:xlink="http://www.w3.org/1999/xlink" x="0px" y="0px"
	 width="841.89px" height="595.28px" viewBox="0 0 841.89 595.28" enable-background="new 0 0 841.89 595.28" xml:space="preserve">
<g>
	<path fill="#58595B" d="M512.443,133.111c1.949,91.737-69.894,134.573-69.898,134.523c0,0-36.189-28.369-34.78-82.215
		c0,0,15.217-0.453,29.494,6.692c0,0,13.784-13.414,16.701-35.472c-49.056-15.637-92.898,0.847-92.898,0.847
		c3.068,77.335,46.679,127.518,80.394,152.572c30.472-24.732,81.461-80.866,84.354-170.419
		C525.809,139.639,519.924,136.34,512.443,133.111z"/>
	<g>
		<path fill="#58595B" d="M503.38,129.391c0,0-35.271-15.414-82.305-15.414c-61.344,0-104.731,25.662-104.731,25.662
			c4.153,128.259,104.731,185,104.731,185l12.524-8.625c-87.171-66.654-82.195-163.632-82.195-163.632
			c58.765-23.209,111.947-1.376,113.145-0.878c0.049-0.003,0.104-0.006,0.166-0.01c-0.083,0.013-0.138,0.022-0.138,0.022
			c-4.033,49.263-44.443,65.245-44.443,65.245c5.883,22.373,22.411,38.946,22.411,38.946
			C480.25,227.169,506.14,183.844,503.38,129.391z"/>
		<path fill="#58595B" d="M464.306,151.514c0.048,0,0.127-0.001,0.271,0c0,0-0.015-0.006-0.028-0.012
			C464.439,151.509,464.353,151.513,464.306,151.514z"/>
		<path fill="#58595B" d="M464.306,151.514C464.246,151.515,464.237,151.516,464.306,151.514L464.306,151.514z"/>
	</g>
	<g>
		<rect x="697.305" y="423.644" fill="#58595B" width="7.744" height="56.122"/>
		<path fill="#58595B" d="M701.178,401.963c-3.308,0-5.989,2.683-5.989,5.99c0,3.306,2.682,5.987,5.989,5.987
			c3.305,0,5.987-2.682,5.987-5.987C707.165,404.646,704.482,401.963,701.178,401.963z"/>
		<path fill="#58595B" d="M659.174,422.172c-6.719,0-12.801,2.708-17.224,7.092v-5.62h-7.18v56.122h7.18v-34.316
			c0.612-8.989,8.079-16.096,17.224-16.096c9.541,0,17.28,7.734,17.28,17.278v33.134h7.18v-33.533h-0.01
			C683.624,432.289,672.549,422.172,659.174,422.172z"/>
		<path fill="#58595B" d="M354.679,432.455c-5.418-6.275-13.427-10.253-22.369-10.253c-16.321,0-29.551,13.23-29.551,29.55
			c0,16.322,13.229,29.552,29.551,29.552c8.942,0,16.951-3.978,22.369-10.254v8.716h7.182v-77.803h-7.182V432.455z M332.31,474.176
			c-12.384,0-22.423-10.038-22.423-22.424c0-12.382,10.039-22.423,22.423-22.423c12.025,0,21.812,9.475,22.369,21.362v2.124
			C354.121,464.701,344.335,474.176,332.31,474.176z"/>
		<polygon fill="#58595B" points="130.376,462.274 116.973,427.498 126.843,401.963 119.971,401.963 113.552,418.621 
			107.134,401.963 100.262,401.963 110.131,427.498 96.729,462.274 73.486,401.963 66.614,401.963 96.729,479.868 113.552,436.346 
			130.376,479.868 160.49,401.963 153.619,401.963 		"/>
		<path fill="#58595B" d="M192.859,422.202c-16.32,0-29.552,13.23-29.552,29.55c0,16.322,13.231,29.552,29.552,29.552
			s29.551-13.229,29.551-29.552C222.41,435.433,209.18,422.202,192.859,422.202z M192.859,474.176
			c-12.384,0-22.423-10.038-22.423-22.424c0-12.382,10.039-22.423,22.423-22.423s22.423,10.041,22.423,22.423
			C215.282,464.138,205.243,474.176,192.859,474.176z"/>
		<path fill="#58595B" d="M262.584,422.202c-16.32,0-29.551,13.23-29.551,29.55c0,16.322,13.23,29.552,29.551,29.552
			s29.552-13.229,29.552-29.552C292.136,435.433,278.904,422.202,262.584,422.202z M262.584,474.176
			c-12.384,0-22.423-10.038-22.423-22.424c0-12.382,10.039-22.423,22.423-22.423s22.423,10.041,22.423,22.423
			C285.007,464.138,274.968,474.176,262.584,474.176z"/>
		<path fill="#58595B" d="M467.121,422.199c-16.322,0-29.552,13.229-29.552,29.55c0,16.322,13.229,29.552,29.552,29.552
			c11.842,0,22.039-6.969,26.756-17.022l-6.326-3.371c-3.499,7.813-11.313,13.266-20.43,13.266c-12.199,0-22.397-9.577-22.397-23.3
			h51.95C495.996,433.982,482.45,422.199,467.121,422.199z M467.121,429.327c10.073,0,18.595,6.645,21.426,15.786h-42.85
			C448.526,435.972,457.048,429.327,467.121,429.327z"/>
		<polygon fill="#58595B" points="398.443,401.963 372.483,401.963 372.483,409.146 398.443,409.146 398.443,479.766 
			405.625,479.766 405.625,409.146 431.586,409.146 431.586,401.963 405.625,401.963 		"/>
		<path fill="#58595B" d="M536.85,474.173c-12.199,0-22.396-9.82-22.396-22.421c0-14.627,12.325-22.425,22.396-22.425
			c8.266,0,15.476,4.474,19.366,11.127l6.042-3.807c-5.174-8.734-14.658-14.448-25.408-14.448c-16.32,0-29.552,13.229-29.552,29.55
			c0,16.322,13.231,29.552,29.552,29.552c11.841,0,22.04-6.969,26.756-17.022l-6.325-3.371
			C553.781,468.721,545.967,474.173,536.85,474.173z"/>
		<path fill="#58595B" d="M768.951,460.907c-3.5,7.813-11.314,13.266-20.432,13.266c-12.199,0-22.395-9.82-22.395-22.421
			c0-14.627,12.324-22.425,22.395-22.425c8.265,0,15.477,4.474,19.366,11.127l6.042-3.807c-5.173-8.734-14.658-14.448-25.408-14.448
			c-16.32,0-29.551,13.229-29.551,29.55c0,16.322,13.23,29.552,29.551,29.552c11.842,0,22.04-6.969,26.756-17.022L768.951,460.907z"
			/>
		<path fill="#58595B" d="M598.631,422.172c-6.718,0-12.8,2.708-17.223,7.092v-27.301h-7.181v77.803h7.181v-34.316
			c0.613-8.989,8.078-16.096,17.223-16.096c9.542,0,17.28,7.734,17.28,17.278v33.134h7.181v-33.533h-0.01
			C623.082,432.289,612.006,422.172,598.631,422.172z"/>
	</g>
</g>
</svg>
