<?xml version="1.0" encoding="utf-8"?>
<!-- Generator: Adobe Illustrator 16.0.0, SVG Export Plug-In . SVG Version: 6.00 Build 0)  -->
<!DOCTYPE svg PUBLIC "-//W3C//DTD SVG 1.1//EN" "http://www.w3.org/Graphics/SVG/1.1/DTD/svg11.dtd">
<svg version="1.1" id="Layer_1" xmlns="http://www.w3.org/2000/svg" xmlns:xlink="http://www.w3.org/1999/xlink" x="0px" y="0px"
	 width="841.89px" height="595.28px" viewBox="0 0 841.89 595.28" enable-background="new 0 0 841.89 595.28" xml:space="preserve">
<g>
	<g>
		<path fill="#58595B" d="M250.468,258.771l0.313-0.226h-30.954l0.326,0.226c2.112,1.506,2.112,3.151,2.112,4.604v23.537
			c0,1.449,0,3.096-2.112,4.601l-0.326,0.23h9.921l-0.318-0.23c-2.112-1.504-2.112-3.151-2.112-4.601v-24.351h15.984v24.351
			c0,1.449,0,3.096-2.112,4.601l-0.318,0.23h9.908l-0.313-0.23c-2.118-1.504-2.118-3.151-2.118-4.601v-23.537
			C248.35,261.922,248.35,260.277,250.468,258.771z"/>
		<path fill="#58595B" d="M284.19,286.723l-11.343-28.101l-0.026-0.076h-8.374l0.518,0.239c1.541,0.716,1.408,2.027,1.016,2.997
			l-9.41,23.813c-0.917,2.323-1.873,4.37-4.237,5.917l-0.358,0.232h9.722l-0.326-0.232c-2.111-1.482-1.773-3.269-1.082-4.98
			l2.935-7.31h12.485l3.54,8.769c0.452,1.154,0.71,2.595-1.341,3.513l-0.538,0.241h11.217l-0.452-0.236
			C285.804,290.266,284.908,288.461,284.19,286.723z M274.389,275.818h-9.842l4.894-12.52L274.389,275.818z"/>
		<path fill="#58595B" d="M307.719,272.45c1.673-0.724,4.616-2.568,4.616-6.626c0-4.494-3.746-7.516-9.317-7.516
			c-0.093,0-0.18,0-0.266,0.001l-12.664,0.236l-0.385,0.006l0.319,0.224c2.111,1.466,2.111,3.281,2.111,4.599v23.537
			c0,1.318,0,3.133-2.111,4.599l-0.332,0.232h11.84c12.558,0,13.906-7.267,13.906-10.388
			C315.436,276.691,312.361,273.164,307.719,272.45z M305.076,270.125c-1.215,1.047-3.002,1.6-5.173,1.6c-0.093,0-0.172,0-0.252,0
			l-2.47-0.046v-9.369c1.049-0.131,2.61-0.266,3.599-0.266c3.712,0,5.937,1.697,5.937,4.533
			C306.716,267.952,306.139,269.212,305.076,270.125z M301.955,288.008c-1.328,0-2.889-0.133-4.775-0.409v-12.433
			c2.503-0.181,3.427-0.181,3.785-0.181c8.182,0,8.813,5.13,8.813,6.697C309.778,284.046,308.755,288.008,301.955,288.008z"/>
		<path fill="#58595B" d="M346.303,258.771l0.313-0.226h-25.076l0.697,0.247c3.114,1.101,3.347,4.412,3.347,9.337
			c0,5.892-0.518,19.592-5.333,19.592c-0.996,0-1.952-0.445-2.829-1.323l-0.259-0.257l0.658,5.77v0.081l0.08,0.023
			c0.823,0.297,1.574,0.43,2.351,0.43c8.487,0,9.629-12.551,9.629-24.835v-5.049h9.211v24.351c0,1.318,0,3.133-2.112,4.599
			l-0.332,0.232h9.935l-0.332-0.232c-2.112-1.466-2.112-3.281-2.112-4.599v-23.537C344.138,261.944,344.138,260.323,346.303,258.771
			z"/>
		<path fill="#58595B" d="M365.701,287.722c-0.645,0-2.949-0.021-5.99-0.315v-11.572h4.768c1.654,0,2.63,0.332,3.487,1.187
			l0.212,0.214v-5.585l-0.146,0.028c-0.512,0.091-1.076,0.141-1.674,0.141h-6.647v-9.169l6.229-0.136c0.086,0,0.166,0,0.252,0
			c2.789,0,3.885,0.833,4.589,1.652l0.226,0.255v-5.877h-18.794l0.332,0.23c2.112,1.466,2.112,3.355,2.112,4.599v23.537
			c0,1.245,0,3.133-2.112,4.599l-0.332,0.232h21.012l2.431-6.721l0.166-0.465l-0.365,0.329
			C373.179,286.898,370.356,287.722,365.701,287.722z"/>
		<path fill="#58595B" d="M411.324,258.771l0.325-0.226h-9.928l0.325,0.226c2.112,1.506,2.112,3.151,2.112,4.604v8.163h-17.871
			v-8.163c0-1.453,0-3.098,2.118-4.604l0.319-0.226h-9.921l0.325,0.226c2.112,1.506,2.112,3.151,2.112,4.604v23.537
			c0,1.449,0,3.096-2.112,4.601l-0.325,0.23h9.921l-0.319-0.23c-2.118-1.504-2.118-3.151-2.118-4.601v-11.358h17.871v11.358
			c0,1.449,0,3.096-2.112,4.601l-0.325,0.23h9.928l-0.325-0.23c-2.119-1.504-2.119-3.151-2.119-4.601v-23.537
			C409.206,261.922,409.206,260.277,411.324,258.771z"/>
		<path fill="#58595B" d="M424.732,286.912v-23.537c0-1.318,0-3.133,2.111-4.599l0.325-0.23h-9.935l0.332,0.23
			c2.112,1.466,2.112,3.281,2.112,4.599v23.537c0,1.318,0,3.133-2.112,4.599l-0.332,0.232h9.935l-0.325-0.232
			C424.732,290.045,424.732,288.23,424.732,286.912z"/>
		<path fill="#58595B" d="M436.234,280.577l-5.353-7.078l11.376-14.751l0.152-0.203h-9.855l0.512,0.239
			c0.783,0.371,1.627,1.138,1.627,2.192c0,0.895-0.645,1.914-1.906,3.599l-7.352,9.883l-0.053,0.073l8.44,11.462l0.325,0.465
			c2.146,2.965,3.998,5.528,7.392,5.528c0.113,0,0.226-0.003,0.346-0.008l5.459-0.257l-0.372-0.214
			C442.961,289.203,440.617,286.4,436.234,280.577z"/>
		<path fill="#58595B" d="M465.262,257.838c-12.512,0-18.203,8.97-18.203,17.307c0,8.331,5.691,17.301,18.203,17.301
			c12.505,0,18.189-8.97,18.189-17.301C483.451,266.808,477.767,257.838,465.262,257.838z M477.786,275.896
			c0,8.547-6.541,12.441-12.624,12.441c-7.325,0-12.438-5.737-12.438-13.947c0-8.547,6.548-12.437,12.624-12.437
			C472.673,261.954,477.786,267.687,477.786,275.896z"/>
		<path fill="#58595B" d="M511.9,258.776l0.332-0.23h-9.928l0.325,0.23c2.112,1.466,2.112,3.281,2.112,4.599v23.537
			c0,1.318,0,3.133-2.112,4.599l-0.325,0.232h9.928l-0.332-0.232c-2.111-1.466-2.111-3.281-2.111-4.599v-23.537
			C509.789,262.057,509.789,260.242,511.9,258.776z"/>
		<path fill="#58595B" d="M561.78,258.771l0.326-0.226h-30.96l0.318,0.226c2.111,1.506,2.111,3.151,2.111,4.604v23.537
			c0,1.449,0,3.096-2.111,4.601l-0.318,0.23h9.921l-0.318-0.23c-2.118-1.504-2.118-3.151-2.118-4.601v-24.351h15.984v24.351
			c0,1.449,0,3.096-2.112,4.601l-0.318,0.23h9.922l-0.326-0.23c-2.111-1.504-2.111-3.151-2.111-4.601v-23.537
			C559.669,261.922,559.669,260.277,561.78,258.771z"/>
		<path fill="#58595B" d="M595.51,286.723l-11.343-28.101l-0.033-0.076h-8.367l0.511,0.239c1.548,0.716,1.408,2.027,1.017,2.997
			l-9.41,23.813c-0.956,2.404-1.873,4.37-4.23,5.917l-0.358,0.232h9.716l-0.325-0.232c-2.112-1.482-1.773-3.269-1.083-4.98
			l2.936-7.31h12.484l3.54,8.769c0.458,1.154,0.711,2.595-1.342,3.513l-0.538,0.241h11.217l-0.444-0.236
			C597.117,290.266,596.221,288.461,595.51,286.723z M585.701,275.818h-9.849l4.901-12.52L585.701,275.818z"/>
		<path fill="#58595B" d="M613.075,258.545h-12.073l0.332,0.23c2.111,1.466,2.111,3.281,2.111,4.599v23.537
			c0,1.449,0,3.096-2.111,4.601l-0.325,0.23h10.845l-0.505-0.241c-1.919-0.908-2.855-2.658-2.855-5.348v-23.431
			c1.361-0.294,2.643-0.44,3.831-0.44c4.337,0,6.927,2.254,6.927,6.037c0,7.036-7.577,7.673-9.098,7.733l-0.804,0.03l0.771,0.217
			c1.009,0.281,2.53,0.616,4.044,0.616c5.34,0,10.759-3.277,10.759-9.538C624.923,261.516,620.938,258.545,613.075,258.545z"/>
		<path fill="#58595B" d="M649.772,258.545h-18.209c-1.209,0-1.873,0-2.988-0.188l-0.106-0.017l-2.078,6.496l0.371-0.383
			c1.249-1.287,2.869-1.939,4.802-1.939l5.472,0.047v24.351c0,1.318,0,3.133-2.104,4.599l-0.326,0.232h9.929l-0.332-0.232
			c-2.112-1.466-2.112-3.281-2.112-4.599v-24.351l5.147-0.047c1.182,0,2.795,0,3.658,1.536l0.14,0.262l1.787-5.977l-0.187,0.022
			C651.911,258.439,650.828,258.545,649.772,258.545z"/>
		<path fill="#58595B" d="M687.726,258.771l0.325-0.226h-9.928l0.325,0.226c2.118,1.506,2.118,3.151,2.118,4.604v8.163h-17.87
			v-8.163c0-1.453,0-3.098,2.111-4.604l0.319-0.226h-9.915l0.325,0.226c2.105,1.506,2.105,3.151,2.105,4.604v23.537
			c0,1.449,0,3.096-2.105,4.601l-0.325,0.23h9.915l-0.319-0.23c-2.111-1.504-2.111-3.151-2.111-4.601v-11.358h17.87v11.358
			c0,1.449,0,3.096-2.118,4.601l-0.325,0.23h9.928l-0.325-0.23c-2.105-1.504-2.105-3.151-2.105-4.601v-23.537
			C685.62,261.922,685.62,260.277,687.726,258.771z"/>
		<path fill="#58595B" d="M707.124,287.722c-0.638,0-2.949-0.021-5.99-0.315v-11.572h4.774c1.654,0,2.63,0.332,3.486,1.187
			l0.206,0.214v-5.585l-0.146,0.028c-0.505,0.091-1.069,0.141-1.674,0.141h-6.647v-9.169l6.229-0.136c0.087,0,0.173,0,0.26,0
			c2.782,0,3.878,0.833,4.582,1.652l0.226,0.255v-5.877h-18.787l0.332,0.23c2.111,1.466,2.111,3.355,2.111,4.599v23.537
			c0,1.245,0,3.133-2.111,4.599l-0.332,0.232h21.012l2.424-6.721l0.173-0.466l-0.378,0.331
			C714.607,286.898,711.779,287.722,707.124,287.722z"/>
		<path fill="#58595B" d="M732.299,258.545H720.22l0.339,0.23c2.104,1.466,2.104,3.281,2.104,4.599v23.537
			c0,1.449,0,3.096-2.111,4.601l-0.319,0.23h10.838l-0.504-0.241c-1.913-0.908-2.85-2.658-2.85-5.348v-23.431
			c1.355-0.294,2.644-0.44,3.832-0.44c4.344,0,6.934,2.254,6.934,6.037c0,7.036-7.591,7.673-9.111,7.733l-0.804,0.03l0.783,0.217
			c1.003,0.281,2.511,0.616,4.031,0.616c5.346,0,10.759-3.277,10.759-9.538C744.141,261.516,740.155,258.545,732.299,258.545z"/>
		<path fill="#58595B" d="M779.337,286.912v-23.537c0-1.453,0-3.098,2.105-4.604l0.325-0.226h-7.119l-0.033,0.025
			c-0.717,0.531-1.103,1.003-1.674,1.868l-16.522,24.6v-21.663c0-1.453,0-3.104,2.105-4.604l0.325-0.226h-9.922l0.319,0.226
			c2.118,1.506,2.118,3.151,2.118,4.604v23.537c0,1.449,0,3.096-2.118,4.601l-0.319,0.23h7.119l0.033-0.026
			c0.725-0.525,1.103-1.001,1.681-1.866l16.522-24.6v21.661c0,1.449,0,3.101-2.111,4.601l-0.326,0.23h9.922l-0.325-0.23
			C779.337,290.008,779.337,288.361,779.337,286.912z"/>
	</g>
	<g>
		<g>
			<path fill="#58595B" d="M224.336,332.464l-1.647,7.551h-2.809l5.758-25.206h3.181l5.612,25.206h-2.842l-1.647-7.551H224.336z
				 M229.536,330.14l-1.315-6.398c-0.372-1.794-0.71-3.886-1.009-5.758h-0.113c-0.299,1.905-0.671,4.077-1.043,5.758l-1.314,6.398
				H229.536z"/>
		</g>
		<g>
			<path fill="#58595B" d="M250.508,314.809v22.742l1.68,0.026l-0.153,7.637h-2.278l-0.146-5.199h-11.15l-0.152,5.199h-2.278
				l-0.153-7.637l1.687-0.026c0.937-2.291,1.614-4.529,2.059-6.813c0.598-3.251,0.751-6.578,0.751-10.244v-5.685H250.508z
				 M243.023,321.084c0,3.521-0.186,6.924-0.71,10.064c-0.372,2.212-1.009,4.337-1.793,6.362h7.146v-20.198h-4.642V321.084z"/>
		</g>
		<g>
			<path fill="#58595B" d="M255.396,315.174c1.195-0.299,2.583-0.478,4.19-0.478c2.284,0,4.23,0.478,5.572,1.753
				c1.089,1.016,1.647,2.504,1.647,4.303c0,2.577-1.421,4.603-3.892,5.572v0.106c2.922,0.797,4.682,3.151,4.682,6.438
				c0,2.098-0.677,3.778-1.8,5.014c-1.414,1.607-3.778,2.284-6.654,2.284c-1.833,0-2.956-0.119-3.746-0.266V315.174z
				 M258.238,325.501h1.308c2.364,0,4.376-1.793,4.376-4.45c0-2.317-1.083-4.117-4.144-4.117c-0.677,0-1.202,0.087-1.541,0.187
				V325.501z M258.238,337.736c0.339,0.073,0.824,0.146,1.461,0.146c2.956,0,4.901-1.754,4.901-5.014
				c0-3.474-2.397-5.127-5.093-5.16h-1.269V337.736z"/>
		</g>
		<g>
			<path fill="#58595B" d="M284.15,327.228c0,9.453-3.214,13.086-7.292,13.086c-4.19,0-6.993-4.45-6.993-12.94
				c0-8.334,3.028-12.87,7.404-12.87C281.574,314.503,284.15,319.186,284.15,327.228z M272.854,327.413
				c0,5.196,1.016,10.356,4.224,10.356c3.221,0,4.084-5.498,4.084-10.442c0-4.709-0.863-10.28-4.117-10.28
				C273.871,317.047,272.854,322.286,272.854,327.413z"/>
		</g>
		<g>
			<path fill="#58595B" d="M290.426,314.809v11.442h0.525l5.353-11.442h3.141l-6.169,11.781c3.101,0.671,4.11,3.324,4.741,6.392
				c0.532,2.397,0.897,4.868,1.687,7.033h-2.916c-0.598-1.641-1.009-4.151-1.461-6.282c-0.637-3.068-1.454-5.347-4.449-5.347h-0.452
				v11.629h-2.802v-25.206H290.426z"/>
		</g>
		<g>
			<path fill="#58595B" d="M305.461,332.464l-1.654,7.551h-2.802l5.757-25.206h3.188l5.611,25.206h-2.849l-1.647-7.551H305.461z
				 M310.661,330.14l-1.315-6.398c-0.372-1.794-0.71-3.886-1.009-5.758h-0.106c-0.299,1.905-0.677,4.077-1.049,5.758l-1.315,6.398
				H310.661z"/>
		</g>
		<g>
			<path fill="#58595B" d="M319.553,317.393h-4.602v-2.584h12.08v2.584h-4.596v22.622h-2.882V317.393z"/>
		</g>
		<g>
			<path fill="#58595B" d="M339.556,339.569c-0.783,0.412-2.059,0.671-3.626,0.671c-4.901,0-8.454-3.965-8.454-12.531
				c0-9.951,4.941-13.133,8.938-13.133c1.494,0,2.617,0.299,3.108,0.638l-0.638,2.438c-0.598-0.259-1.202-0.531-2.503-0.531
				c-2.703,0-5.877,2.623-5.877,10.326c0,7.714,2.849,10.25,5.943,10.25c1.089,0,2.025-0.259,2.624-0.518L339.556,339.569z"/>
		</g>
		<g>
			<path fill="#58595B" d="M345.347,314.809v10.021c0.524-0.08,1.155-0.113,1.906-0.113c4.563,0,7.518,2.883,7.518,7.481
				c0,2.284-0.631,4.037-1.793,5.353c-1.461,1.674-3.739,2.616-6.774,2.616c-1.833,0-2.915-0.119-3.699-0.266v-25.093H345.347z
				 M345.347,337.736c0.485,0.073,0.896,0.113,1.381,0.113c3.221,0,5.054-2.364,5.054-5.506c0-3.062-1.906-5.236-5.014-5.236
				c-0.524,0-1.009,0.04-1.421,0.12V337.736z"/>
		</g>
		<g>
			<path fill="#58595B" d="M360.899,314.809v11.442h0.519l5.353-11.442h3.141l-6.169,11.781c3.101,0.671,4.11,3.324,4.748,6.392
				c0.524,2.397,0.896,4.868,1.687,7.033h-2.922c-0.598-1.641-1.009-4.151-1.461-6.282c-0.631-3.068-1.454-5.347-4.449-5.347h-0.445
				v11.629h-2.809v-25.206H360.899z"/>
		</g>
		<g>
			<path fill="#58595B" d="M381.872,328.048h-6.322v9.463h7.185v2.504h-10.061v-25.206h9.609v2.504h-6.733v8.301h6.322V328.048z"/>
		</g>
		<g>
			<path fill="#58595B" d="M405.009,327.228c0,9.453-3.208,13.086-7.285,13.086c-4.19,0-6.993-4.45-6.993-12.94
				c0-8.334,3.028-12.87,7.405-12.87C402.432,314.503,405.009,319.186,405.009,327.228z M393.719,327.413
				c0,5.196,1.009,10.356,4.23,10.356c3.214,0,4.078-5.498,4.078-10.442c0-4.709-0.863-10.28-4.117-10.28
				C394.729,317.047,393.719,322.286,393.719,327.413z"/>
		</g>
		<g>
			<path fill="#58595B" d="M419.107,314.809v2.504h-7.776v7.551c0.677-0.113,1.275-0.146,1.912-0.146
				c2.198,0,4.071,0.711,5.379,1.979c1.348,1.278,2.132,3.145,2.132,5.502c0,2.284-0.638,4.11-1.833,5.459
				c-1.421,1.646-3.699,2.51-6.694,2.51c-1.84,0-2.956-0.119-3.739-0.266v-25.093H419.107z M411.331,337.696
				c0.484,0.113,0.936,0.153,1.454,0.153c1.727,0,2.995-0.671,3.858-1.767c0.71-0.923,1.116-2.238,1.116-3.692
				c0-1.541-0.485-2.809-1.302-3.752c-0.903-0.97-2.138-1.531-3.706-1.531c-0.445,0-0.896,0.04-1.421,0.12V337.696z"/>
		</g>
		<g>
			<path fill="#58595B" d="M427.668,314.431c-0.824,3.034-2.398,6.919-3.367,8.6l-1.721,0.266c0.784-2.172,1.793-5.903,2.172-8.487
				L427.668,314.431z"/>
		</g>
		<g>
			<path fill="#58595B" d="M441.089,317.725c-0.558-0.332-1.534-0.604-2.357-0.604c-4.669,0-6.097,5.392-6.17,8.792h7.631v2.507
				h-7.591c0.106,3.626,1.421,9.277,6.057,9.277c1.162,0,2.284-0.299,2.995-0.598l0.484,2.358c-0.75,0.371-2.059,0.823-3.665,0.823
				c-6.17,0-8.826-5.917-8.826-12.907c0-5.725,2.165-12.83,8.972-12.83c1.534,0,2.357,0.372,3.108,0.711L441.089,317.725z"/>
		</g>
		<g>
			<path fill="#58595B" d="M458.508,314.809v22.742l1.687,0.026l-0.152,7.637h-2.278l-0.152-5.199h-11.144l-0.146,5.199h-2.285
				l-0.152-7.637l1.687-0.026c0.937-2.291,1.607-4.529,2.059-6.813c0.598-3.251,0.744-6.578,0.744-10.244v-5.685H458.508z
				 M451.03,321.084c0,3.521-0.192,6.924-0.711,10.064c-0.378,2.212-1.009,4.337-1.793,6.362h7.14v-20.198h-4.636V321.084z"/>
		</g>
		<g>
			<path fill="#58595B" d="M466.244,314.809v10.805h7.073v-10.805h2.875v25.206h-2.875v-11.781h-7.073v11.781h-2.875v-25.206
				H466.244z"/>
		</g>
		<g>
			<path fill="#58595B" d="M483.703,332.464l-1.646,7.551h-2.803l5.765-25.206h3.174l5.612,25.206h-2.843l-1.646-7.551H483.703z
				 M488.91,330.14l-1.315-6.398c-0.378-1.794-0.704-3.886-1.009-5.758h-0.113c-0.299,1.905-0.678,4.077-1.049,5.758l-1.302,6.398
				H488.91z"/>
		</g>
		<g>
			<path fill="#58595B" d="M499.821,314.809v10.805h7.065v-10.805h2.883v25.206h-2.883v-11.781h-7.065v11.781h-2.883v-25.206
				H499.821z"/>
		</g>
		<g>
			<path fill="#58595B" d="M517.127,314.809v10.805h7.066v-10.805h2.882v25.206h-2.882v-11.781h-7.066v11.781h-2.882v-25.206
				H517.127z"/>
		</g>
		<g>
			<path fill="#58595B" d="M529.725,340.015c0.372-0.79,0.631-1.688,0.857-2.577c0.637-2.656,0.75-6.209,2.43-8.194
				c0.485-0.631,1.195-1.083,1.913-1.235v-0.073c-2.431-0.747-4.264-2.726-4.264-6.173c0-2.504,0.97-4.416,2.464-5.571
				c1.269-0.977,2.995-1.494,5.014-1.494c1.382,0,2.883,0.112,4.078,0.444v24.874h-2.843v-10.958h-1.049
				c-1.162,0-2.132,0.259-2.876,1.123c-1.314,1.606-1.534,5.346-2.059,7.63c-0.152,0.751-0.339,1.494-0.678,2.205H529.725z
				 M539.374,317.16c-0.378-0.073-0.823-0.14-1.494-0.14c-2.955,0-4.304,2.092-4.304,4.814c0,3.102,2.02,4.974,4.749,4.974
				c0.411,0,0.671,0,1.049-0.033V317.16z"/>
		</g>
	</g>
	<path fill="#58595B" d="M172.092,297.272c0-27.168-21.198-50.275-48.259-52.598c-1.468-0.121-7.06-0.234-7.584-0.234
		c-0.525,0-6.063,0.108-7.524,0.231c-27.095,2.294-48.326,25.398-48.326,52.601c0,27.212,21.231,50.313,48.326,52.604
		c1.461,0.126,6.999,0.232,7.524,0.232c0.524,0,6.116-0.106,7.584-0.232C150.894,347.552,172.092,324.444,172.092,297.272z
		 M116.249,341.748c-13.82,0-26.351-5.725-33.517-15.317c-5.592-7.472-8.541-17.552-8.541-29.159
		c0-11.605,2.949-21.686,8.541-29.152c7.166-9.589,19.697-15.314,33.517-15.314c14.032,0,26.716,5.893,33.922,15.757
		c5.412,7.405,8.268,17.334,8.268,28.709c0,11.38-2.856,21.309-8.268,28.713C142.965,335.857,130.281,341.748,116.249,341.748z"/>
	<path fill="#58595B" d="M140.8,312.61c2.862-4.921,4.297-9.833,4.297-14.751c0-4.857-1.408-9.506-4.217-13.933
		c-3.991-6.212-11.429-13.242-22.287-21.066c-5.725-4.167-9.802-8.134-12.232-11.916c-1.455-2.271-2.185-5.138-2.185-8.588
		c0-3.953,1.361-7.298,4.091-10.056c2.729-2.749,6.063-4.13,10.001-4.13c2.762,0,4.921,0.733,6.481,2.191
		c1.574,1.458,2.357,3.292,2.357,5.51c0,1.084-0.14,2.241-0.405,3.481c-0.438,2.049-0.657,3.486-0.657,4.29
		c0,1.68,0.598,3.138,1.786,4.381c1.195,1.245,2.703,1.866,4.542,1.866c1.833,0,3.267-0.566,4.297-1.705
		c1.401-1.617,2.105-3.479,2.105-5.585c0-4.649-1.933-8.783-5.797-12.402c-3.858-3.618-8.759-5.433-14.709-5.433
		c-6.475,0-11.934,2.228-16.363,6.686c-4.43,4.458-6.647,9.849-6.647,16.169c0,3.402,0.77,6.752,2.311,10.053
		c1.541,3.289,4.118,6.938,7.737,10.933c-6.103,3.679-10.612,7.933-13.527,12.767c-2.916,4.838-4.376,9.735-4.376,14.703
		c0,4.918,1.381,9.562,4.131,13.944c3.672,5.777,10.585,12.445,20.746,20.006c6.807,5.134,11.509,9.729,14.099,13.786
		c1.673,2.637,2.51,5.639,2.51,8.999c0,3.287-1.474,6.335-4.417,9.145c-2.942,2.815-6.229,4.217-9.842,4.217
		c-3.028,0-5.592-0.804-7.703-2.431c-1.348-1.022-2.019-2.324-2.019-3.892c0-0.916,0.212-2.251,0.644-4.018
		c0.432-1.747,0.651-3.354,0.651-4.814c0-2.165-0.598-3.879-1.78-5.146c-1.195-1.275-2.63-1.899-4.296-1.899
		c-1.68,0-3.155,0.684-4.423,2.065c-1.262,1.374-1.906,3.067-1.906,5.066c0,4.748,1.939,8.979,5.797,12.685
		c3.865,3.692,8.713,5.552,14.544,5.552c6.481,0,11.94-2.218,16.37-6.647c4.43-4.43,6.648-9.948,6.648-16.536
		c0-3.507-0.717-6.773-2.146-9.802c-1.434-3.021-4.044-6.621-7.823-10.781C133.396,321.848,137.931,317.531,140.8,312.61z
		 M123.474,320.799c-1.016-0.571-2.025-1.148-3.021-1.76c-0.266-0.166-0.518-0.332-0.784-0.498
		c-1.673-1.049-6.754-4.821-7.564-5.466c-1.195-0.956-2.397-1.905-3.54-2.915c-4.576-3.932-7.896-7.473-9.902-10.598
		c-1.999-3.188-3.001-6.674-3.001-10.451c0-1.616,0.239-3.165,0.671-4.667c0,0,0.006,0,0.006,0.005
		c1.641-5.743,6.462-10.134,12.472-11.08c0.983,0.548,1.959,1.104,2.922,1.692c1.156,0.697,2.285,1.431,3.394,2.191
		c1.123,0.896,2.298,1.816,3.546,2.782c7.405,5.781,12.292,10.571,14.67,14.376c2.377,3.817,3.566,7.476,3.566,10.98
		c0,3.175-0.923,6.137-2.683,8.912C131.762,317.791,127.93,320.254,123.474,320.799z"/>
</g>
</svg>
