<?xml version="1.0" encoding="utf-8"?>
<!-- Generator: Adobe Illustrator 18.0.0, SVG Export Plug-In . SVG Version: 6.00 Build 0)  -->
<!DOCTYPE svg PUBLIC "-//W3C//DTD SVG 1.1//EN" "http://www.w3.org/Graphics/SVG/1.1/DTD/svg11.dtd">
<svg version="1.1" id="Layer_1" xmlns="http://www.w3.org/2000/svg" xmlns:xlink="http://www.w3.org/1999/xlink" x="0px" y="0px"
	 viewBox="0 0 750 366" enable-background="new 0 0 750 366" xml:space="preserve">
<g>
	<path fill="#BD9459" d="M376,190c0.1,2.4,1.6,3.6,3.5,4.1c-0.1-0.3-0.1-0.6-0.1-0.9c-0.5-7.9,12.1-8.8,20.1-2.9
		C392.4,181.1,375.5,180.9,376,190"/>
	<path fill="#BD9459" d="M371.2,198.9c4.4,6.6,15.4,7.6,20-1.5c0,0-3.2,0.8-6.2,0.5C381,201.5,375.3,201.5,371.2,198.9"/>
	<path fill="#BD9459" d="M418.4,162.4c0.1,16.9-20.2,17-20.2,17s4.1,0.5,8.9,2.6c6-1.3,14.8-5.2,14.7-16.3c0-4.9-2.5-8.6-6.2-11.3
		C417.3,156.6,418.4,159.2,418.4,162.4"/>
	<path fill="#BD9459" d="M363.1,157.3h26.5c4.1,0,7.6,0.5,10.2,2c-2.2-3.9-7.2-5.2-13.5-5.2h-26.5v61.5h3.4V157.3z"/>
	<path fill="#BD9459" d="M417.6,189.4c2.6,3.2,4.4,7.3,4.4,12.6c0,18.2-19.3,23.4-29.1,23.4h-53.9l-2.6,3.3h59.9
		c9.8,0,29.1-5.2,29.1-23.4C425.4,197.8,421.9,192.7,417.6,189.4"/>
	<path fill="#BD9459" d="M400.4,197.5c0-17.9-27.3-21.3-26.7-9.8c0.4,6.8,11.8,4.1,11.8,4.1c-5.8,11.3-21.5,7-21.9-4.3
		c-0.7-19,35-12,35-25.5c0-7.9-6.1-10.3-14.7-10.3h-26.5v61.5h29.2C394.9,212.5,400.4,206.9,400.4,197.5 M419.7,199.7
		c0,18.2-19.3,23.4-29.1,23.4h-59.9l7.9-9.9v-61.5l-7.5-9.2h56.3c11.9,0,28.5,4.9,28.6,17.6c0.1,16.9-20.2,17-20.2,17
		S419.7,180.2,419.7,199.7"/>
	<path fill="#BD9459" d="M375,114.4c-37.9,0-68.6,30.7-68.6,68.6c0,37.9,30.7,68.6,68.6,68.6c37.9,0,68.6-30.7,68.6-68.6
		C443.6,145.1,412.9,114.4,375,114.4 M375,118c35.8,0,65,29.1,65,65c0,35.8-29.1,65-65,65c-35.8,0-65-29.1-65-65
		C310,147.2,339.2,118,375,118"/>
	<path fill="#BD9459" d="M272.2,198c10.3-6.7,17.4-15,17.4-15s-7-8.2-17.4-15c-2.2,4.6-5.7,8.6-10.3,11.4c-2.8,1.7-5.9,2.9-9,3.6
		c3.1,0.6,6.2,1.8,9,3.6C266.5,189.4,270,193.4,272.2,198"/>
	<path fill="#BD9459" d="M233.2,185.9c2.7-1.4,5.5-2.3,8.3-2.9c-2.8-0.6-5.6-1.5-8.3-2.9c-5.2-2.6-9.4-6.1-12.6-10.4
		C212.3,176.1,207,183,207,183s5.3,6.9,13.7,13.3C223.8,192,228.1,188.5,233.2,185.9"/>
	<path fill="#BD9459" d="M477.8,168c-10.3,6.7-17.4,15-17.4,15s7,8.2,17.4,15c2.2-4.6,5.7-8.6,10.3-11.4c2.8-1.7,5.9-2.9,9-3.6
		c-3.1-0.7-6.2-1.8-9-3.6C483.5,176.6,480,172.6,477.8,168"/>
	<path fill="#BD9459" d="M529.3,169.7c-3.2,4.3-7.4,7.8-12.6,10.4c-2.7,1.4-5.5,2.3-8.3,2.9c2.8,0.6,5.6,1.5,8.3,2.9
		c5.2,2.6,9.4,6.1,12.6,10.4c8.4-6.4,13.7-13.3,13.7-13.3S537.7,176.1,529.3,169.7"/>
	<path fill="#BD9459" d="M378.6,296.1c2.8-4.6,6.8-8.1,11.4-10.3c-6.7-10.3-15-17.4-15-17.4s-8.2,7-15,17.4
		c4.6,2.2,8.6,5.7,11.4,10.3c1.7,2.8,2.9,5.9,3.6,9C375.6,302,376.8,298.9,378.6,296.1"/>
	<path fill="#BD9459" d="M377.9,324.8c-1.4-2.7-2.3-5.5-2.9-8.3c-0.6,2.8-1.5,5.6-2.9,8.3c-2.6,5.2-6.1,9.4-10.4,12.6
		c6.4,8.4,13.3,13.7,13.3,13.7s6.9-5.3,13.3-13.7C384,334.2,380.5,329.9,377.9,324.8"/>
	<path fill="#BD9459" d="M371.4,69.9c-2.8,4.6-6.8,8.1-11.4,10.3c6.7,10.3,15,17.4,15,17.4s8.2-7,15-17.4
		c-4.6-2.2-8.6-5.7-11.4-10.3c-1.7-2.8-2.9-5.9-3.6-9C374.3,64,373.2,67.1,371.4,69.9"/>
	<path fill="#BD9459" d="M372.1,41.2c1.4,2.7,2.3,5.5,2.9,8.3c0.6-2.8,1.5-5.6,2.9-8.3c2.6-5.2,6.1-9.4,10.4-12.6
		C381.9,20.3,375,15,375,15s-6.9,5.3-13.3,13.7C366,31.8,369.5,36.1,372.1,41.2"/>
	<path fill="#BD9459" d="M375,254.9c-39.7,0-71.9-32.2-71.9-71.9c0-39.7,32.2-71.9,71.9-71.9c39.7,0,71.9,32.2,71.9,71.9
		C446.9,222.7,414.7,254.9,375,254.9 M513.3,192.8c-17.6-8.9-33.6,6.6-29.5,20c3.4,11.1,10.8,12.9,3.9,20.2c0,0,3.1,5.6,9.1,3.5
		c7.6-2.6,3.7-14.9,3.7-14.9s6.7-0.3,9.7-5.8c3.1-5.5-0.1-11.8-2.5-13.2c-6.6-3.7-9.8,0.7-9.8,0.7s3,2.5,1.6,5.5
		c-0.8,1.8-6.7,3.2-7.4-4.4c-0.8-8.2,14.3-12.9,23.8-2.5c9.5,10.4,7.8,24.3-1,33.3c-6,6.1-16.7,13.2-38.9,3.8
		c-1.2-11.5-0.9-22.5,1-33.1l-3-2c-0.7-0.4-1.4-0.9-2-1.4c-2.5,6.6-5.9,18.3-8,30.3c-1.6-0.9-3.3-2-5-3c3-9.4,7.1-19.9,11.7-28.1
		c-1.5-1.1-3-2.2-4.4-3.3c-4.2,5-10.7,14.9-16.8,24.9c-0.8-0.6-1.7-1.2-2.5-1.9c-0.6-0.4-1.1-0.9-1.7-1.3c5.2-7.5,12.1-16,20.1-22.5
		c-1.4-1.1-2.6-2.2-3.8-3.3c-3.4,1.8-7.9,5-12.9,8.7c0.5-1.8,0.9-3.5,1.3-5.4c3.2-1.8,6.5-3.5,9.9-5c-2-1.9-3.4-3.4-4.2-4.3
		c-1.4,0.4-2.9,0.8-4.5,1.3c0.1-1.1,0.2-2.1,0.2-3.2c0.8-0.2,1.6-0.4,2.2-0.5c0,0-1.5-1.3-1.5-3.1c0-1.8,1.5-3,1.5-3
		c-0.6-0.1-1.4-0.3-2.2-0.5c0-1.1-0.1-2.1-0.2-3.2c1.6,0.5,3.1,0.9,4.5,1.3c0.8-0.9,2.2-2.4,4.2-4.3c-3.4-1.4-6.7-3.2-9.9-5
		c-0.4-1.8-0.8-3.6-1.3-5.4c5,3.8,9.5,6.9,12.9,8.7c1.1-1,2.4-2.1,3.8-3.3c-8-6.5-14.9-15-20.1-22.5c0.6-0.4,1.1-0.9,1.7-1.3
		c0.9-0.6,1.7-1.3,2.5-1.9c6.1,10,12.6,19.9,16.8,24.9c1.4-1.1,2.8-2.2,4.4-3.3c-4.6-8.2-8.7-18.7-11.7-28.1c1.7-1.1,3.3-2.1,5-3
		c2.1,12,5.4,23.7,8,30.3c0.7-0.5,1.3-0.9,2-1.4l3-2c-1.9-10.6-2.2-21.6-1-33.1c22.2-9.4,32.9-2.3,38.9,3.8c8.9,9,10.6,22.9,1,33.3
		c-9.5,10.4-24.6,5.6-23.8-2.5c0.7-7.6,6.6-6.2,7.4-4.4c1.4,3-1.6,5.5-1.6,5.5s3.2,4.4,9.8,0.7c2.4-1.3,5.6-7.7,2.5-13.2
		c-3.1-5.5-9.7-5.8-9.7-5.8s3.9-12.4-3.7-14.9c-6-2-9.1,3.5-9.1,3.5c6.9,7.3-0.5,9.1-3.9,20.2c-4.1,13.4,11.9,28.9,29.5,20
		c17.9-9,16.9-28.5,12.3-38.9c-6-13.4-24.8-18.4-24.8-18.4s5.3-5.8,7.6-8.7c4.6-5.8,6.4-26.8-7.5-31.6
		c-16.7-5.8-23.9,10.2-18.2,18.5c5.2,7.7,12.5,5,14.3,1.9c1.8-3.2,0.2-7,0.2-7s-3.1,2.6-4.5,0.2c-1.4-2.5-0.1-6.7,5.5-6.3
		c4.4,0.3,10.6,9.3,5.7,19.1c-4.5,9-16.6,13.9-27,18.1c0.8-5.4,1.9-10.9,3.3-16.5c-3.4,0.6-9.3,2.1-18.2,10c0,4.1,0.3,8.5,0.9,13
		c-1.9,1.2-3.8,2.3-5.7,3.5c-1.2-4.2-2-8-2.5-11c-4.5,3.5-8.8,7-12.9,10.4c1.4,2.5,3,5.2,4.6,7.9c-1.4,1-2.9,2.2-4.4,3.4
		c-1.9-2.9-3.4-5.5-4.6-7.5c-0.8,0.7-1.7,1.4-2.5,2.2c-0.9-1.1-1.8-2.2-2.7-3.3c18.8-16.9,36.9-31.6,44.3-32.8
		c-4.6-8.6-0.7-16.9-0.7-16.9s-8.5,3.7-17.1-0.9c-1.2,7.4-15.9,25.5-32.8,44.3c-1.1-0.9-2.2-1.9-3.3-2.7c0.7-0.8,1.4-1.6,2.1-2.5
		c-2.1-1.2-4.6-2.7-7.5-4.6c1.3-1.6,2.4-3.1,3.4-4.4c2.7,1.6,5.4,3.2,7.9,4.6c3.5-4.1,6.9-8.4,10.4-12.9c-3-0.5-6.8-1.4-11-2.5
		c1.2-2,2.3-3.8,3.5-5.7c4.5,0.6,8.9,0.9,13,0.9c7.9-8.8,9.4-14.8,10-18.2c-5.6,1.4-11.1,2.5-16.5,3.3c4.2-10.4,9.1-22.5,18.1-27
		c9.7-4.9,18.8,1.3,19.1,5.7c0.4,5.6-3.8,6.9-6.3,5.5c-2.4-1.4,0.2-4.5,0.2-4.5s-3.9-1.6-7,0.2c-3.1,1.8-5.7,9.1,1.9,14.3
		c8.3,5.6,24.3-1.5,18.5-18.2c-4.8-13.9-25.7-12.1-31.6-7.5c-2.9,2.3-8.7,7.6-8.7,7.6s-5-18.8-18.4-24.8
		c-10.4-4.6-29.9-5.6-38.9,12.3c-8.9,17.6,6.6,33.6,20,29.5c11.1-3.4,12.9-10.8,20.2-3.9c0,0,5.6-3.1,3.5-9.1
		c-2.6-7.6-14.9-3.7-14.9-3.7s-0.3-6.7-5.8-9.7c-5.5-3.1-11.8,0.1-13.2,2.5c-3.7,6.6,0.7,9.8,0.7,9.8s2.5-3,5.5-1.6
		c1.8,0.8,3.2,6.7-4.4,7.4c-8.2,0.8-12.9-14.3-2.5-23.8c10.4-9.5,24.3-7.8,33.3,1c6.1,6,13.2,16.7,3.8,38.9
		c-11.5,1.2-22.5,0.9-33.1-1l-2,3c-0.4,0.7-0.9,1.4-1.4,2c6.6,2.5,18.3,5.9,30.3,8c-0.9,1.6-2,3.3-3,5c-9.4-3-19.9-7.1-28.1-11.7
		c-1.1,1.6-2.2,3-3.3,4.4c5,4.2,14.9,10.7,24.9,16.8c-0.6,0.8-1.2,1.7-1.9,2.5c-0.4,0.6-0.9,1.1-1.3,1.7c-7.5-5.2-16-12.1-22.5-20.1
		c-1.1,1.4-2.2,2.6-3.3,3.8c1.8,3.4,5,7.9,8.7,12.9c-1.8-0.5-3.5-0.9-5.4-1.3c-1.8-3.2-3.5-6.5-5-9.9c-1.9,2-3.4,3.4-4.3,4.2
		c0.4,1.4,0.8,2.9,1.3,4.5c-1-0.1-2.1-0.2-3.2-0.2c-0.2-0.8-0.4-1.6-0.5-2.2c0,0-1.3,1.5-3.1,1.5s-3-1.5-3-1.5
		c-0.1,0.6-0.3,1.4-0.5,2.2c-1.1,0-2.1,0.1-3.2,0.2c0.5-1.6,0.9-3.1,1.3-4.5c-0.9-0.8-2.4-2.2-4.3-4.2c-1.4,3.4-3.2,6.7-5,9.9
		c-1.8,0.4-3.6,0.8-5.4,1.3c3.8-5,6.9-9.5,8.7-12.9c-1-1.1-2.1-2.4-3.3-3.8c-6.5,8-15,14.9-22.5,20.1c-0.4-0.6-0.9-1.1-1.3-1.7
		c-0.6-0.9-1.2-1.7-1.9-2.5c10-6.1,19.9-12.6,24.9-16.8c-1.1-1.4-2.2-2.8-3.3-4.4c-8.2,4.6-18.7,8.7-28.1,11.7c-1.1-1.7-2.1-3.3-3-5
		c12-2.1,23.7-5.4,30.3-8c-0.5-0.7-0.9-1.3-1.4-2l-2-3c-10.6,1.9-21.6,2.2-33.1,1c-9.4-22.2-2.3-32.9,3.8-38.9
		c9-8.9,22.9-10.6,33.3-1c10.4,9.5,5.6,24.6-2.5,23.8c-7.6-0.7-6.2-6.6-4.4-7.4c3-1.4,5.5,1.6,5.5,1.6s4.4-3.2,0.7-9.8
		c-1.3-2.4-7.7-5.6-13.2-2.5s-5.8,9.7-5.8,9.7s-12.4-3.9-14.9,3.7c-2,6,3.5,9.1,3.5,9.1c7.3-6.9,9.1,0.5,20.2,3.9
		c13.4,4.1,28.9-11.9,20-29.5c-9-17.9-28.5-16.9-38.9-12.3c-13.4,6-18.4,24.8-18.4,24.8s-5.8-5.3-8.7-7.6
		c-5.8-4.6-26.8-6.4-31.6,7.5c-5.8,16.7,10.2,23.9,18.5,18.2c7.7-5.2,5-12.5,1.9-14.3c-3.2-1.8-7-0.2-7-0.2s2.6,3.1,0.2,4.5
		c-2.5,1.4-6.7,0.1-6.3-5.5c0.3-4.4,9.3-10.6,19.1-5.7c9,4.5,13.9,16.6,18.1,27c-5.4-0.8-10.9-1.9-16.5-3.3c0.6,3.4,2.1,9.3,10,18.2
		c4.1,0,8.5-0.3,13-0.9c1.2,1.9,2.3,3.8,3.5,5.7c-4.2,1.2-8,2-11,2.5c3.5,4.5,7,8.8,10.4,12.9c2.5-1.4,5.2-3,7.9-4.6
		c1,1.4,2.2,2.9,3.4,4.4c-2.9,1.9-5.5,3.4-7.5,4.6c0.7,0.8,1.4,1.7,2.2,2.5c-1.1,0.9-2.2,1.8-3.3,2.7
		c-16.9-18.8-31.6-36.9-32.8-44.3c-8.6,4.6-16.9,0.7-16.9,0.7s3.7,8.5-0.9,17.1c7.4,1.2,25.5,15.9,44.3,32.8
		c-0.9,1.1-1.9,2.2-2.7,3.3c-0.8-0.7-1.6-1.4-2.5-2.2c-1.2,2.1-2.7,4.6-4.6,7.5c-1.6-1.3-3.1-2.4-4.4-3.4c1.6-2.7,3.2-5.4,4.6-7.9
		c-4.1-3.5-8.4-6.9-12.9-10.4c-0.5,3-1.4,6.8-2.5,11c-2-1.2-3.8-2.3-5.7-3.5c0.6-4.5,0.9-8.9,0.9-13c-8.8-7.9-14.8-9.4-18.2-10
		c1.4,5.6,2.5,11.1,3.3,16.5c-10.4-4.2-22.5-9.1-27-18.1c-4.9-9.7,1.3-18.8,5.7-19.1c5.6-0.4,6.9,3.8,5.5,6.3
		c-1.4,2.4-4.5-0.2-4.5-0.2s-1.6,3.9,0.2,7c1.8,3.1,9.1,5.7,14.3-1.9c5.6-8.3-1.5-24.3-18.2-18.5c-13.9,4.8-12.1,25.7-7.5,31.6
		c2.3,2.9,7.6,8.7,7.6,8.7s-18.8,5-24.8,18.4c-4.6,10.4-5.6,29.9,12.3,38.9c17.6,8.9,33.6-6.6,29.5-20c-3.4-11.1-10.8-12.9-3.9-20.2
		c0,0-3.1-5.6-9.1-3.5c-7.6,2.6-3.7,14.9-3.7,14.9s-6.7,0.3-9.7,5.8c-3.1,5.5,0.1,11.8,2.5,13.2c6.6,3.7,9.8-0.7,9.8-0.7
		s-3-2.5-1.6-5.5c0.8-1.8,6.7-3.2,7.4,4.4c0.8,8.2-14.3,12.9-23.8,2.5c-9.5-10.4-7.8-24.3,1-33.3c6-6.1,16.7-13.2,38.9-3.8
		c1.2,11.5,0.9,22.5-1,33.1l3,2c0.7,0.4,1.4,0.9,2,1.4c2.5-6.6,5.9-18.3,8-30.3c1.6,0.9,3.3,2,5,3c-3,9.4-7.1,19.9-11.7,28.1
		c1.6,1.1,3,2.2,4.4,3.3c4.2-5,10.7-14.9,16.8-24.9c0.8,0.6,1.7,1.2,2.5,1.9c0.6,0.4,1.1,0.9,1.7,1.3c-5.2,7.5-12.1,16-20.1,22.5
		c1.4,1.1,2.6,2.2,3.8,3.3c3.4-1.8,7.9-4.9,12.9-8.7c-0.5,1.8-0.9,3.5-1.3,5.4c-3.2,1.8-6.5,3.5-9.9,5c2,1.9,3.4,3.4,4.2,4.3
		c1.4-0.4,2.9-0.8,4.5-1.3c-0.1,1.1-0.2,2.1-0.2,3.2c-0.8,0.2-1.6,0.3-2.2,0.5c0,0,1.5,1.3,1.5,3c0,1.8-1.5,3.1-1.5,3.1
		c0.6,0.1,1.4,0.3,2.2,0.5c0,1.1,0.1,2.1,0.2,3.2c-1.6-0.5-3.1-0.9-4.5-1.3c-0.8,0.9-2.2,2.4-4.2,4.3c3.4,1.5,6.7,3.2,9.9,5
		c0.4,1.8,0.8,3.6,1.3,5.4c-5-3.8-9.5-6.9-12.9-8.7c-1.1,1-2.4,2.1-3.8,3.3c8,6.5,14.9,15,20.1,22.5c-0.6,0.4-1.1,0.9-1.7,1.3
		c-0.9,0.6-1.7,1.3-2.5,1.9c-6.1-10-12.6-19.9-16.8-24.9c-1.4,1.1-2.8,2.2-4.4,3.3c4.6,8.2,8.7,18.7,11.7,28.1c-1.7,1.1-3.3,2.1-5,3
		c-2.1-12-5.4-23.7-8-30.3c-0.7,0.5-1.3,0.9-2,1.4l-3,2c1.9,10.6,2.2,21.6,1,33.1c-22.2,9.4-32.9,2.3-38.9-3.8
		c-8.9-9-10.6-22.9-1-33.3c9.5-10.4,24.6-5.6,23.8,2.5c-0.7,7.6-6.6,6.2-7.4,4.4c-1.4-3,1.6-5.5,1.6-5.5s-3.2-4.4-9.8-0.7
		c-2.4,1.3-5.6,7.7-2.5,13.2c3.1,5.5,9.7,5.8,9.7,5.8s-3.9,12.4,3.7,14.9c6,2,9.1-3.5,9.1-3.5c-6.9-7.3,0.5-9.1,3.9-20.2
		c4.1-13.4-11.9-28.9-29.5-20c-17.9,9-16.9,28.5-12.3,38.9c6,13.4,24.8,18.4,24.8,18.4s-5.3,5.8-7.6,8.7c-4.6,5.8-6.4,26.8,7.5,31.6
		c16.7,5.8,23.9-10.2,18.2-18.5c-5.2-7.7-12.5-5-14.3-1.9c-1.8,3.2-0.2,7-0.2,7s3.1-2.6,4.5-0.2c1.4,2.5,0.1,6.7-5.5,6.3
		c-4.4-0.3-10.6-9.3-5.7-19.1c4.5-9,16.6-13.9,27-18.1c-0.8,5.4-1.9,10.9-3.3,16.5c3.4-0.6,9.3-2.1,18.2-10c0-4.1-0.3-8.5-0.9-13
		c1.9-1.2,3.8-2.3,5.7-3.5c1.2,4.2,2,8,2.5,11c4.5-3.5,8.8-7,12.9-10.4c-1.4-2.5-3-5.2-4.6-7.9c1.4-1,2.9-2.2,4.4-3.4
		c1.9,2.9,3.4,5.5,4.6,7.5c0.8-0.7,1.7-1.4,2.5-2.2c0.9,1.1,1.8,2.2,2.7,3.3c-18.8,16.9-36.9,31.6-44.3,32.8
		c4.6,8.6,0.7,16.9,0.7,16.9s8.5-3.7,17.1,0.9c1.2-7.4,15.9-25.5,32.8-44.3c1.1,0.9,2.1,1.9,3.3,2.7c-0.7,0.8-1.4,1.6-2.2,2.5
		c2.1,1.2,4.6,2.7,7.5,4.6c-1.3,1.6-2.4,3.1-3.4,4.4c-2.7-1.6-5.4-3.2-7.9-4.6c-3.5,4.1-6.9,8.4-10.4,12.9c3,0.5,6.8,1.4,11,2.5
		c-1.2,2-2.3,3.8-3.5,5.7c-4.5-0.6-8.9-0.9-13-0.9c-7.9,8.8-9.4,14.8-10,18.1c5.6-1.4,11.1-2.5,16.5-3.3c-4.2,10.4-9.1,22.5-18.1,27
		c-9.7,4.9-18.8-1.3-19.1-5.7c-0.4-5.6,3.8-6.9,6.3-5.5c2.4,1.4-0.2,4.5-0.2,4.5s3.9,1.6,7-0.2c3.1-1.8,5.7-9.1-1.9-14.3
		c-8.3-5.6-24.3,1.5-18.5,18.2c4.8,13.9,25.7,12.1,31.6,7.5c2.9-2.3,8.7-7.6,8.7-7.6s5,18.8,18.4,24.8c10.4,4.6,29.9,5.6,38.9-12.3
		c8.9-17.6-6.6-33.6-20-29.5c-11.1,3.4-12.9,10.8-20.2,3.9c0,0-5.6,3.1-3.5,9.1c2.6,7.6,14.9,3.7,14.9,3.7s0.3,6.7,5.8,9.7
		c5.5,3.1,11.8-0.1,13.2-2.5c3.7-6.6-0.7-9.8-0.7-9.8s-2.5,3-5.5,1.6c-1.8-0.8-3.2-6.7,4.4-7.4c8.2-0.8,12.9,14.3,2.5,23.8
		c-10.4,9.5-24.3,7.8-33.3-1c-6.1-6-13.2-16.7-3.8-38.9c11.5-1.2,22.5-0.9,33.1,1l2-3c0.4-0.7,0.9-1.4,1.4-2
		c-6.6-2.5-18.3-5.9-30.3-8c0.9-1.6,2-3.3,3-5c9.4,3,19.9,7.1,28.1,11.7c1.1-1.5,2.2-3,3.3-4.4c-5-4.2-14.9-10.7-24.9-16.8
		c0.6-0.8,1.2-1.7,1.9-2.5c0.4-0.6,0.9-1.1,1.3-1.7c7.5,5.2,16,12.1,22.5,20.1c1.1-1.4,2.2-2.6,3.3-3.8c-1.8-3.4-5-7.9-8.7-12.9
		c1.8,0.5,3.5,0.9,5.4,1.3c1.8,3.2,3.5,6.5,5,9.9c1.9-2,3.4-3.4,4.3-4.2c-0.4-1.4-0.8-2.9-1.3-4.5c1.1,0.1,2.1,0.2,3.2,0.2
		c0.2,0.8,0.3,1.6,0.5,2.2c0,0,1.3-1.5,3-1.5s3.1,1.5,3.1,1.5c0.1-0.6,0.3-1.4,0.5-2.2c1.1,0,2.1-0.1,3.2-0.2
		c-0.5,1.6-0.9,3.1-1.3,4.5c0.9,0.8,2.4,2.2,4.3,4.2c1.4-3.4,3.2-6.7,5-9.9c1.8-0.4,3.6-0.8,5.4-1.3c-3.8,5-6.9,9.5-8.7,12.9
		c1,1.1,2.1,2.4,3.3,3.8c6.5-8,15-14.9,22.5-20.1c0.4,0.6,0.9,1.1,1.3,1.7c0.6,0.9,1.3,1.7,1.9,2.5c-10,6.1-19.9,12.6-24.9,16.8
		c1.1,1.4,2.2,2.8,3.3,4.4c8.2-4.6,18.7-8.7,28.1-11.7c1.1,1.7,2.1,3.3,3,5c-12,2.1-23.7,5.4-30.3,8c0.5,0.7,0.9,1.3,1.4,2l2,3
		c10.6-1.9,21.6-2.2,33.1-1c9.4,22.2,2.3,32.9-3.8,38.9c-9,8.9-22.9,10.6-33.3,1c-10.4-9.5-5.6-24.6,2.5-23.8
		c7.6,0.7,6.2,6.6,4.4,7.4c-3,1.4-5.5-1.6-5.5-1.6s-4.4,3.2-0.7,9.8c1.3,2.4,7.7,5.6,13.2,2.5c5.5-3.1,5.8-9.7,5.8-9.7
		s12.4,3.9,14.9-3.7c2-6-3.5-9.1-3.5-9.1c-7.3,6.9-9.1-0.5-20.2-3.9c-13.4-4.1-28.9,11.9-20,29.5c9,17.9,28.5,17,38.9,12.3
		c13.4-6,18.4-24.8,18.4-24.8s5.8,5.3,8.7,7.6c5.8,4.6,26.8,6.4,31.6-7.5c5.8-16.7-10.2-23.9-18.5-18.2c-7.7,5.2-5,12.5-1.9,14.3
		c3.2,1.8,7,0.2,7,0.2s-2.6-3.1-0.2-4.5c2.5-1.4,6.7-0.1,6.3,5.5c-0.3,4.4-9.3,10.6-19.1,5.7c-9-4.5-13.9-16.6-18.1-27
		c5.4,0.8,10.9,1.9,16.5,3.3c-0.6-3.4-2.1-9.3-10-18.1c-4.1,0-8.5,0.3-13,0.9c-1.2-1.9-2.3-3.8-3.5-5.7c4.2-1.2,8-2,11-2.5
		c-3.5-4.5-7-8.8-10.4-12.9c-2.5,1.4-5.2,3-7.9,4.6c-1-1.4-2.2-2.9-3.4-4.4c2.9-1.9,5.5-3.4,7.5-4.6c-0.7-0.8-1.4-1.7-2.2-2.5
		c1.1-0.9,2.2-1.8,3.3-2.7c16.9,18.8,31.6,36.9,32.8,44.3c8.6-4.6,16.9-0.7,16.9-0.7s-3.7-8.5,0.9-17.1
		c-7.4-1.2-25.5-15.9-44.3-32.8c0.9-1.1,1.9-2.2,2.7-3.3c0.8,0.7,1.6,1.4,2.5,2.2c1.2-2.1,2.7-4.6,4.6-7.5c1.6,1.3,3.1,2.4,4.4,3.4
		c-1.6,2.7-3.2,5.4-4.6,7.9c4.1,3.5,8.4,6.9,12.9,10.4c0.5-3,1.4-6.8,2.5-11c2,1.2,3.8,2.3,5.7,3.5c-0.6,4.5-0.9,8.9-0.9,13
		c8.8,7.9,14.8,9.4,18.2,10c-1.4-5.6-2.5-11.1-3.3-16.5c10.4,4.2,22.5,9.1,27,18.1c4.9,9.7-1.3,18.8-5.7,19.1
		c-5.6,0.4-6.9-3.8-5.5-6.3c1.4-2.4,4.5,0.2,4.5,0.2s1.6-3.9-0.2-7c-1.8-3.1-9.1-5.7-14.3,1.9c-5.7,8.3,1.5,24.3,18.2,18.5
		c13.9-4.8,12.1-25.7,7.5-31.6c-2.3-2.9-7.6-8.7-7.6-8.7s18.8-5,24.8-18.4C530.2,221.3,531.1,201.8,513.3,192.8"/>
</g>
</svg>
