<?xml version="1.0" encoding="utf-8"?>
<!-- Generator: Adobe Illustrator 18.0.0, SVG Export Plug-In . SVG Version: 6.00 Build 0)  -->
<!DOCTYPE svg PUBLIC "-//W3C//DTD SVG 1.1//EN" "http://www.w3.org/Graphics/SVG/1.1/DTD/svg11.dtd">
<svg version="1.1" id="Layer_1" xmlns="http://www.w3.org/2000/svg" xmlns:xlink="http://www.w3.org/1999/xlink" x="0px" y="0px"
	 viewBox="0 0 550 250" enable-background="new 0 0 550 250" xml:space="preserve">
<g>
	<line fill="none" stroke="#BD9459" x1="324.5" y1="212" x2="324.5" y2="52"/>
	<g>
		<g>
			<path fill="#BD9459" d="M362.1,53.3c1.2,0.9,1.8,2.3,1.8,4.1c0,1.9-0.6,3.3-1.8,4.2c-1.2,1-2.8,1.4-4.8,1.4h-1.8v5.5h-3.9V51.9
				h5.4C359.2,51.9,360.9,52.4,362.1,53.3z M359.2,59.5c0.5-0.4,0.7-1.2,0.7-2.2c0-1.7-1-2.6-2.9-2.6h-1.4v5.4h1.5
				C358,60.2,358.7,60,359.2,59.5z"/>
			<path fill="#BD9459" d="M369.8,65l-0.8,3.6h-4.1l5-16.6h4.8l5,16.6h-4.2l-0.8-3.6H369.8z M372.3,54.8l-1.8,7.3h3.5L372.3,54.8z"
				/>
			<path fill="#BD9459" d="M391.1,68.6l-4.8-12.9c0.2,1.3,0.3,2.4,0.4,3.3c0.1,1,0.1,2.1,0.1,3.4v6.1h-3.5V51.9h4.9l4.9,12.9
				c-0.4-2.2-0.5-4.3-0.5-6.2v-6.7h3.5v16.6H391.1z"/>
			<path fill="#BD9459" d="M408.5,55v13.6h-3.9V55h-4.3v-3H413l-0.4,3H408.5z"/>
			<path fill="#BD9459" d="M428.4,53.8c1.3,1.5,2,3.7,2,6.4c0,1.8-0.3,3.4-0.9,4.7s-1.5,2.3-2.6,3c-1.1,0.7-2.5,1-4,1s-2.9-0.3-4-1
				c-1.1-0.7-2-1.7-2.6-3s-0.9-2.9-0.9-4.7c0-1.8,0.3-3.3,0.9-4.7s1.5-2.3,2.6-3c1.1-0.7,2.5-1,4-1
				C425.2,51.5,427.1,52.3,428.4,53.8z M420.3,55.8c-0.6,0.9-0.8,2.4-0.8,4.5c0,2,0.3,3.5,0.8,4.5c0.6,0.9,1.4,1.4,2.5,1.4
				c1.2,0,2-0.5,2.6-1.4c0.6-0.9,0.8-2.4,0.8-4.5s-0.3-3.6-0.8-4.5c-0.6-0.9-1.4-1.4-2.5-1.4S420.9,54.9,420.3,55.8z"/>
			<path fill="#BD9459" d="M442.9,68.6l-4.8-12.9c0.2,1.3,0.3,2.4,0.4,3.3c0.1,1,0.1,2.1,0.1,3.4v6.1h-3.5V51.9h4.9l4.9,12.9
				c-0.4-2.2-0.5-4.3-0.5-6.2v-6.7h3.5v16.6H442.9z"/>
			<path fill="#BD9459" d="M457.4,54.7v4h5.1v2.8h-5.1v4.2h6.3v2.8h-10.2V51.9h10.2l-0.4,2.8H457.4z"/>
			<path fill="#BD9459" d="M486.2,65.1v3.5h-3.7l0-3.5h-6.8v-2.5l4.6-10.6l3.2,1.2l-3.9,9.1h3l0.4-3.8h3.3v3.8h1.8v2.8H486.2z"/>
			<path fill="#BD9459" d="M501.6,58.3c0.7,0.4,1.3,1,1.7,1.8c0.4,0.8,0.6,1.8,0.6,2.9c0,1.1-0.2,2.1-0.7,3
				c-0.5,0.9-1.2,1.6-2.1,2.1c-0.9,0.5-1.9,0.8-3.1,0.8c-2.1,0-3.6-0.7-4.6-2.1c-1-1.4-1.5-3.3-1.5-5.7c0-1.8,0.3-3.4,0.9-4.8
				c0.6-1.4,1.4-2.4,2.4-3.2c1.1-0.8,2.3-1.1,3.8-1.1c1.4,0,2.6,0.4,3.7,1.1l-1.4,2.3c-0.7-0.4-1.5-0.6-2.2-0.6
				c-0.9,0-1.6,0.4-2.2,1.2c-0.6,0.8-0.9,1.9-1,3.3c1-1,2.1-1.5,3.4-1.5C500.1,57.7,500.9,57.9,501.6,58.3z M499.6,65.4
				c0.3-0.6,0.5-1.3,0.5-2.3c0-1-0.2-1.7-0.5-2.2c-0.3-0.4-0.8-0.6-1.4-0.6c-0.9,0-1.7,0.4-2.4,1.3c0,1.7,0.2,2.9,0.6,3.6
				c0.3,0.7,0.9,1.1,1.7,1.1C498.7,66.3,499.2,66,499.6,65.4z"/>
			<path fill="#BD9459" d="M511.9,55.1v3.4c0.8-0.4,1.6-0.5,2.4-0.5c0.9,0,1.7,0.2,2.4,0.6s1.3,1,1.7,1.8c0.4,0.8,0.6,1.7,0.6,2.8
				c0,1.1-0.3,2.1-0.8,3c-0.5,0.9-1.3,1.5-2.2,2c-1,0.5-2.1,0.7-3.3,0.7c-2.2,0-4-0.8-5.4-2.4l2.1-2c0.9,1,1.9,1.6,3.1,1.6
				c0.8,0,1.5-0.2,1.9-0.7s0.7-1.2,0.7-2.1c0-1.8-0.8-2.7-2.3-2.7c-0.3,0-0.6,0-0.9,0.1c-0.3,0.1-0.6,0.2-1,0.4h-2.6v-8.8h9.9
				l-0.4,2.7H511.9z"/>
			<path fill="#BD9459" d="M541.4,52c0.8,0.3,1.6,0.8,2.3,1.4l-1.9,2.3c-0.9-0.8-1.9-1.2-3-1.2c-1.1,0-2,0.5-2.6,1.4
				c-0.6,1-1,2.4-1,4.4c0,1.9,0.3,3.4,1,4.3s1.5,1.4,2.7,1.4c0.6,0,1.1-0.1,1.6-0.4c0.5-0.2,1-0.6,1.6-1l1.8,2.3
				c-0.6,0.6-1.4,1.1-2.3,1.5c-0.9,0.4-1.9,0.6-3,0.6c-1.5,0-2.9-0.3-4-1c-1.1-0.7-2-1.7-2.7-3c-0.6-1.3-0.9-2.9-0.9-4.8
				c0-1.8,0.3-3.4,1-4.7c0.6-1.3,1.5-2.3,2.7-3c1.1-0.7,2.4-1,3.9-1C539.6,51.5,540.6,51.7,541.4,52z"/>
		</g>
	</g>
	<g>
		<path fill="#BD9459" d="M359.7,89.3c-0.9,0-1.7,0.2-2.4,0.5s-1.4,0.9-2,1.5s-1,1.5-1.3,2.4s-0.5,2-0.5,3.2c0,0.8,0.1,1.5,0.2,2.1
			s0.4,1.3,0.7,1.9s0.6,1.1,1,1.5s0.8,0.8,1.3,1.1s1,0.6,1.5,0.7s1.1,0.3,1.7,0.3c0.5,0,1-0.1,1.6-0.2s1-0.3,1.5-0.5
			s0.9-0.5,1.4-0.9s0.8-0.7,1.1-1.2l0.6,0.5c-0.5,0.7-1.1,1.3-1.7,1.7s-1.2,0.8-1.8,1.1s-1.2,0.4-1.8,0.5s-1.1,0.1-1.6,0.1
			c-1.2,0-2.3-0.2-3.3-0.7s-1.9-1-2.6-1.8s-1.3-1.7-1.7-2.7s-0.6-2.2-0.6-3.3c0-0.8,0.1-1.5,0.2-2.2s0.4-1.4,0.7-2.1
			s0.7-1.3,1.2-1.9s1-1.1,1.6-1.5s1.3-0.8,2.1-1s1.6-0.4,2.6-0.4c0.9,0,1.8,0.1,2.5,0.4s1.6,0.6,2.3,1.1l-0.1-1.3h1.3v5.6h-0.9
			c-0.1-0.8-0.3-1.4-0.5-2s-0.6-1.1-1-1.5s-0.9-0.7-1.5-0.9S360.4,89.3,359.7,89.3z"/>
		<path fill="#BD9459" d="M383.6,94.7c0,0.2,0,0.4-0.1,0.6s-0.2,0.4-0.3,0.5s-0.3,0.3-0.4,0.3s-0.3,0.1-0.5,0.1s-0.4,0-0.5-0.1
			s-0.3-0.2-0.4-0.3s-0.2-0.3-0.3-0.5s-0.1-0.4-0.1-0.6c0-0.2,0-0.4,0.1-0.6s0.2-0.4,0.3-0.5s0.3-0.3,0.5-0.3s0.4-0.1,0.5-0.1
			c0.2,0,0.4,0,0.5,0.1s0.3,0.2,0.4,0.3s0.2,0.3,0.3,0.5S383.6,94.5,383.6,94.7z M383.6,104.4c0,0.2,0,0.4-0.1,0.6s-0.2,0.4-0.3,0.5
			s-0.3,0.3-0.4,0.3s-0.3,0.1-0.5,0.1s-0.4,0-0.5-0.1s-0.3-0.2-0.4-0.3s-0.2-0.3-0.3-0.5s-0.1-0.4-0.1-0.6c0-0.2,0-0.4,0.1-0.6
			s0.2-0.4,0.3-0.5s0.3-0.3,0.5-0.3s0.4-0.1,0.5-0.1c0.2,0,0.4,0,0.5,0.1s0.3,0.2,0.4,0.3s0.2,0.3,0.3,0.5S383.6,104.2,383.6,104.4z
			"/>
		<path fill="#BD9459" d="M394.5,91c0.2,0.2,0.3,0.3,0.3,0.5c0.1,0.2,0.1,0.4,0.1,0.5c0,0.1,0,0.2-0.1,0.4s-0.1,0.3-0.2,0.4
			c-0.1,0.1-0.2,0.2-0.4,0.3c-0.1,0.1-0.3,0.1-0.6,0.1c-0.4,0-0.6-0.2-0.8-0.4s-0.3-0.6-0.3-0.9c0-0.3,0.1-0.7,0.3-1.1
			s0.5-0.8,0.9-1.1s0.9-0.6,1.6-0.9s1.4-0.4,2.2-0.4c0.6,0,1.3,0.1,1.9,0.2s1.1,0.4,1.6,0.7s0.9,0.8,1.1,1.3s0.4,1.2,0.4,2.1
			c0,0.4-0.1,0.8-0.3,1.3s-0.4,1-0.8,1.5s-0.9,1.1-1.5,1.7s-1.3,1.3-2.2,2c-0.5,0.4-1,0.9-1.5,1.3s-0.8,0.8-1.2,1.2
			s-0.6,0.8-0.8,1.1s-0.3,0.7-0.4,0.9l4.3,0.1c0.6,0,1.1,0,1.6,0s0.9,0,1.3-0.1s0.6-0.3,0.8-0.5s0.3-0.6,0.3-1.1h0.7l-0.2,3.4h-10.4
			c0-0.8,0.1-1.6,0.4-2.3s0.6-1.3,1.1-1.8s0.9-1.1,1.5-1.6s1.2-1.1,1.8-1.6c1-1,1.8-1.9,2.3-2.8c0.5-0.9,0.7-1.7,0.7-2.5
			c0-0.4,0-0.9-0.1-1.3s-0.2-0.8-0.5-1.2s-0.5-0.6-0.9-0.9c-0.4-0.2-0.9-0.3-1.4-0.3c-0.3,0-0.6,0-0.9,0.1c-0.3,0.1-0.6,0.2-0.8,0.4
			s-0.5,0.3-0.6,0.5S394.6,90.7,394.5,91z"/>
		<path fill="#BD9459" d="M407.9,103.3c0,0.3,0.2,0.6,0.4,0.8s0.5,0.4,0.8,0.5s0.6,0.2,0.9,0.3c0.3,0.1,0.6,0.1,0.9,0.1
			c0.6,0,1.1-0.2,1.5-0.4s0.8-0.5,1-0.9s0.5-0.8,0.6-1.3s0.2-1,0.2-1.5c0-0.3,0-0.6,0-1s-0.1-0.7-0.2-1.1c-0.1-0.4-0.2-0.7-0.4-1
			c-0.2-0.3-0.4-0.6-0.7-0.9s-0.6-0.5-1-0.6c-0.4-0.1-0.9-0.2-1.4-0.2c-0.2,0-0.4,0-0.7,0.1s-0.6,0.1-0.9,0.2s-0.6,0.2-0.9,0.3
			s-0.5,0.2-0.7,0.4l-0.7-0.6l-0.1-7.7h6.2c0.5,0,0.8,0,1.1-0.1s0.5-0.2,0.7-0.3s0.3-0.3,0.4-0.5s0.1-0.4,0.1-0.7h0.7l-0.1,3.2
			l-8,0.2l0,5.3c0.4-0.2,0.9-0.3,1.5-0.5s1.3-0.2,2-0.2c1,0,1.8,0.2,2.5,0.5s1.3,0.7,1.7,1.2s0.8,1.1,1,1.7s0.3,1.3,0.3,1.9
			c0,0.9-0.2,1.7-0.5,2.3s-0.8,1.2-1.3,1.7s-1.2,0.8-1.9,1s-1.5,0.3-2.2,0.3c-0.8,0-1.4-0.1-2.1-0.3s-1.1-0.5-1.5-0.8
			s-0.7-0.7-0.9-1.1s-0.3-0.8-0.3-1.1c0-0.4,0.1-0.7,0.3-0.9s0.5-0.4,0.8-0.4c0.2,0,0.4,0,0.5,0.1c0.1,0.1,0.3,0.2,0.3,0.3
			s0.1,0.2,0.2,0.4c0,0.1,0.1,0.3,0.1,0.4c0,0.2,0,0.3-0.1,0.5S407.9,103.2,407.9,103.3z"/>
	</g>
	<g>
		<path fill="#BD9459" d="M351.6,123.2h3.7c0.6,1.3,1.1,2.5,1.6,3.6s1,2.3,1.5,3.4s1,2.3,1.4,3.4s1,2.3,1.5,3.4h0
			c0.1-0.2,0.2-0.5,0.3-0.7s0.2-0.5,0.3-0.8s0.2-0.6,0.3-0.8s0.2-0.5,0.3-0.7c0.7-1.8,1.4-3.5,2.2-5.3s1.5-3.6,2.3-5.5h3.6v0.8
			c-0.3,0-0.6,0-0.8,0.1s-0.4,0.2-0.5,0.4s-0.2,0.5-0.3,0.8c-0.1,0.3-0.1,0.8,0,1.2l0.6,10.9c0,0.3,0,0.5,0,0.8c0,0.3,0,0.5,0,0.7
			l1.7-0.1v1h-5.4v-0.8c0.4,0,0.7-0.1,0.9-0.2s0.4-0.3,0.5-0.6c0.1-0.2,0.2-0.5,0.2-0.9s0-0.7,0-1.2l-0.6-10.2
			c0,0.1-0.1,0.2-0.2,0.4s-0.1,0.3-0.2,0.4l-5.4,13.3h-0.7c-0.5-1.2-1.1-2.3-1.6-3.5s-1.1-2.4-1.6-3.5s-1-2.4-1.5-3.6
			s-1-2.4-1.5-3.7l0,1.1c0,0.4,0,0.8,0,1.3c0,0.5,0,1,0,1.6s0,1.1-0.1,1.8c0,0.6,0,1.2,0,1.8s0,1.2,0,1.8s0,1.2,0,1.7
			c0,0.4,0,0.7,0,1.1c0,0.4,0,0.7-0.1,1l1.8-0.1v1h-4.6v-0.8c0.4,0,0.7-0.1,0.9-0.2c0.2-0.1,0.4-0.3,0.5-0.5s0.2-0.4,0.2-0.7
			s0.1-0.5,0.1-0.8l0.5-12.8l-1.7,0.1V123.2z"/>
		<path fill="#BD9459" d="M382.9,129.2c0,0.2,0,0.4-0.1,0.6s-0.2,0.4-0.3,0.5s-0.3,0.3-0.4,0.3s-0.3,0.1-0.5,0.1s-0.4,0-0.5-0.1
			s-0.3-0.2-0.4-0.3s-0.2-0.3-0.3-0.5s-0.1-0.4-0.1-0.6c0-0.2,0-0.4,0.1-0.6s0.2-0.4,0.3-0.5s0.3-0.3,0.5-0.3s0.4-0.1,0.5-0.1
			c0.2,0,0.4,0,0.5,0.1s0.3,0.2,0.4,0.3s0.2,0.3,0.3,0.5S382.9,128.9,382.9,129.2z M382.9,138.8c0,0.2,0,0.4-0.1,0.6
			s-0.2,0.4-0.3,0.5s-0.3,0.3-0.4,0.3s-0.3,0.1-0.5,0.1s-0.4,0-0.5-0.1s-0.3-0.2-0.4-0.3s-0.2-0.3-0.3-0.5s-0.1-0.4-0.1-0.6
			c0-0.2,0-0.4,0.1-0.6s0.2-0.4,0.3-0.5s0.3-0.3,0.5-0.3s0.4-0.1,0.5-0.1c0.2,0,0.4,0,0.5,0.1s0.3,0.2,0.4,0.3s0.2,0.3,0.3,0.5
			S382.9,138.6,382.9,138.8z"/>
		<path fill="#BD9459" d="M400.5,137.4c0,0.3,0,0.6,0,0.9s0,0.5-0.1,0.8l1.9-0.1v1h-6v-0.8h0.2c0.4,0,0.7-0.1,1-0.3s0.4-0.4,0.6-0.6
			s0.2-0.6,0.3-0.9s0.1-0.8,0.1-1.2v-0.8h-7.3v-1.2l8.7-11.4h0.8v11.1l2.4,0v1.4h-2.4V137.4z M392.6,133.8l5.7,0.1v-7.7h0
			L392.6,133.8z"/>
		<path fill="#BD9459" d="M405.1,131.6c0-0.7,0.1-1.4,0.2-2.1s0.3-1.4,0.5-2s0.5-1.3,0.8-1.9s0.7-1.1,1.2-1.5s1-0.8,1.6-1
			s1.3-0.4,2-0.4c0.8,0,1.5,0.1,2.1,0.4s1.1,0.6,1.6,1s0.8,0.9,1.1,1.5s0.6,1.2,0.7,1.8s0.3,1.3,0.4,2s0.1,1.4,0.1,2s0,1.3-0.1,2
			s-0.2,1.4-0.5,2s-0.5,1.3-0.8,1.9s-0.7,1.1-1.2,1.5s-1,0.8-1.6,1s-1.3,0.4-2,0.4c-0.8,0-1.5-0.1-2.2-0.4s-1.2-0.6-1.6-1
			s-0.8-0.9-1.1-1.5s-0.5-1.2-0.7-1.8s-0.3-1.3-0.4-2S405.1,132.3,405.1,131.6z M407.5,131.1c0,0.6,0,1.1,0.1,1.8s0.1,1.2,0.2,1.9
			s0.3,1.2,0.4,1.8c0.2,0.6,0.4,1.1,0.7,1.5c0.3,0.4,0.6,0.8,1,1c0.4,0.3,0.8,0.4,1.4,0.4c0.5,0,0.9-0.1,1.2-0.3
			c0.4-0.2,0.7-0.5,0.9-0.8c0.3-0.3,0.5-0.8,0.7-1.2s0.3-1,0.4-1.5s0.2-1.1,0.2-1.7s0.1-1.2,0.1-1.8c0-0.6,0-1.3-0.1-2
			s-0.1-1.3-0.2-1.9s-0.3-1.2-0.4-1.7s-0.4-1-0.7-1.4c-0.3-0.4-0.6-0.7-0.9-0.9c-0.4-0.2-0.8-0.3-1.2-0.3c-0.5,0-0.9,0.1-1.2,0.3
			s-0.7,0.5-1,0.8c-0.3,0.4-0.5,0.8-0.7,1.2c-0.2,0.5-0.3,1-0.5,1.5s-0.2,1.1-0.3,1.7C407.6,130,407.5,130.6,407.5,131.1z"/>
	</g>
	<g>
		<path fill="#BD9459" d="M356.9,168.1l-4.2-6.6c-0.4-0.6-0.7-1.2-0.9-1.6s-0.3-0.8-0.4-1.1l-1.5,0.1v-1.1h6.2v0.8
			c-0.6,0-1,0.1-1.3,0.2s-0.5,0.3-0.6,0.5s-0.1,0.5,0,0.8s0.3,0.7,0.5,1.1c0.3,0.5,0.6,0.9,0.8,1.4s0.5,0.8,0.8,1.3s0.5,0.8,0.8,1.3
			s0.6,0.9,0.9,1.4h0c1.8-3.4,2.9-5.4,3.2-6s0.6-1,0.7-1.2s0.2-0.3,0.3-0.4l-1.9,0.1v-1.1h4.9v0.8c-0.4,0-0.8,0.1-1.1,0.2
			c-0.3,0.1-0.6,0.3-0.9,0.6c-0.3,0.3-0.5,0.6-0.8,0.9s-1.5,2.7-3.8,7.1c0,0.8,0,1.7,0,2.8c0,1.1,0,1.6,0,1.6c0,0.9,0,1.5-0.1,1.9
			l2-0.1v1h-5.6v-0.8c0.4,0,0.8-0.1,1-0.3c0.2-0.2,0.4-0.4,0.5-0.6s0.1-0.6,0.1-0.9c0-0.4,0-0.7,0-1.1L356.9,168.1z"/>
		<path fill="#BD9459" d="M382,163.7c0,0.2,0,0.4-0.1,0.6s-0.2,0.4-0.3,0.5s-0.3,0.3-0.4,0.3s-0.3,0.1-0.5,0.1s-0.4,0-0.5-0.1
			s-0.3-0.2-0.4-0.3s-0.2-0.3-0.3-0.5s-0.1-0.4-0.1-0.6c0-0.2,0-0.4,0.1-0.6s0.2-0.4,0.3-0.5s0.3-0.3,0.5-0.3s0.4-0.1,0.5-0.1
			c0.2,0,0.4,0,0.5,0.1s0.3,0.2,0.4,0.3s0.2,0.3,0.3,0.5S382,163.5,382,163.7z M382,173.4c0,0.2,0,0.4-0.1,0.6s-0.2,0.4-0.3,0.5
			s-0.3,0.3-0.4,0.3s-0.3,0.1-0.5,0.1s-0.4,0-0.5-0.1s-0.3-0.2-0.4-0.3s-0.2-0.3-0.3-0.5s-0.1-0.4-0.1-0.6c0-0.2,0-0.4,0.1-0.6
			s0.2-0.4,0.3-0.5s0.3-0.3,0.5-0.3s0.4-0.1,0.5-0.1c0.2,0,0.4,0,0.5,0.1s0.3,0.2,0.4,0.3s0.2,0.3,0.3,0.5S382,173.2,382,173.4z"/>
		<path fill="#BD9459" d="M394.6,174.9c-0.3,0-0.5-0.1-0.7-0.3s-0.2-0.4-0.2-0.7c0-0.3,0.1-0.6,0.2-1s0.3-0.8,0.4-1.3
			s0.3-0.9,0.5-1.4s0.4-0.9,0.5-1.3c0.2-0.6,0.5-1.2,0.8-2s0.6-1.6,1-2.4s0.7-1.7,1.1-2.6s0.8-1.8,1.2-2.6l-6.3,0
			c-0.6,0-1.2,0.2-1.5,0.5s-0.5,0.8-0.5,1.4h-0.6v-3.6h10.1v1.6c-0.4,0.8-0.7,1.6-1,2.3s-0.6,1.5-0.9,2.2s-0.5,1.5-0.7,2.2
			s-0.4,1.5-0.7,2.3s-0.4,1.6-0.6,2.4s-0.4,1.7-0.7,2.7c0,0.2-0.1,0.4-0.2,0.6s-0.2,0.3-0.3,0.5s-0.2,0.2-0.4,0.3
			S394.8,174.9,394.6,174.9z"/>
		<path fill="#BD9459" d="M410.5,171.9c0,0.3,0,0.6,0,0.9s0,0.5-0.1,0.8l1.9-0.1v1h-6v-0.8h0.2c0.4,0,0.7-0.1,1-0.3s0.4-0.4,0.6-0.6
			s0.2-0.6,0.3-0.9s0.1-0.8,0.1-1.2v-0.8H401v-1.2l8.7-11.4h0.8v11.1l2.4,0v1.4h-2.4V171.9z M402.6,168.3l5.7,0.1v-7.7h0
			L402.6,168.3z"/>
	</g>
	<g>
		<path fill="#BD9459" d="M353.1,195.4c0-0.3,0-0.6,0-0.9s0-0.6,0.1-0.8l-1.7,0.1v-1.1h5.4v0.8c-0.5,0-0.8,0.1-1,0.3
			s-0.4,0.4-0.5,0.6s-0.1,0.6-0.1,0.9c0,0.4,0,0.7,0,1.2v3.9h1.8l3-4.7c0.1-0.2,0.2-0.3,0.3-0.5c0.1-0.2,0.3-0.4,0.4-0.5
			c0.1-0.2,0.3-0.4,0.5-0.5c0.2-0.2,0.3-0.3,0.5-0.5l-1.5,0v-1h5.2v0.8c-0.5,0-1,0.1-1.4,0.2c-0.4,0.1-0.8,0.3-1.2,0.5
			c-0.4,0.2-0.7,0.5-1.1,1c-0.4,0.4-0.8,0.9-1.2,1.6l-2.3,3.8c0.2,0.1,0.4,0.3,0.6,0.5c0.2,0.2,0.3,0.3,0.5,0.5
			c0.2,0.2,0.3,0.4,0.4,0.5c0.1,0.2,0.3,0.4,0.4,0.6l2.7,3.6c0.5,0.6,0.8,1.1,1.2,1.4c0.3,0.3,0.6,0.6,0.9,0.8s0.5,0.3,0.7,0.3
			s0.5,0.1,0.7,0.1v0.8h-2.9c-0.1,0-0.3-0.1-0.4-0.2c-0.2-0.1-0.4-0.3-0.6-0.5c-0.2-0.2-0.4-0.5-0.7-0.8s-0.5-0.6-0.7-0.9l-2.9-3.9
			c-0.3-0.4-0.6-0.8-0.9-1.1c-0.3-0.4-0.6-0.6-0.9-0.8l-1.2,0v5.3c0,0.4,0,0.8,0,1.1s0,0.6-0.1,0.8l1.7-0.1v1h-5.4v-0.8
			c0.5,0,0.8-0.1,1-0.2c0.2-0.1,0.4-0.4,0.5-0.6c0.1-0.3,0.1-0.6,0.1-0.9s0-0.7,0-1.2V195.4z"/>
		<path fill="#BD9459" d="M381.4,198.7c0,0.2,0,0.4-0.1,0.6s-0.2,0.4-0.3,0.5s-0.3,0.3-0.4,0.3s-0.3,0.1-0.5,0.1s-0.4,0-0.5-0.1
			s-0.3-0.2-0.4-0.3s-0.2-0.3-0.3-0.5s-0.1-0.4-0.1-0.6c0-0.2,0-0.4,0.1-0.6s0.2-0.4,0.3-0.5s0.3-0.3,0.5-0.3s0.4-0.1,0.5-0.1
			c0.2,0,0.4,0,0.5,0.1s0.3,0.2,0.4,0.3s0.2,0.3,0.3,0.5S381.4,198.5,381.4,198.7z M381.4,208.4c0,0.2,0,0.4-0.1,0.6
			s-0.2,0.4-0.3,0.5s-0.3,0.3-0.4,0.3s-0.3,0.1-0.5,0.1s-0.4,0-0.5-0.1s-0.3-0.2-0.4-0.3s-0.2-0.3-0.3-0.5s-0.1-0.4-0.1-0.6
			c0-0.2,0-0.4,0.1-0.6s0.2-0.4,0.3-0.5s0.3-0.3,0.5-0.3s0.4-0.1,0.5-0.1c0.2,0,0.4,0,0.5,0.1s0.3,0.2,0.4,0.3s0.2,0.3,0.3,0.5
			S381.4,208.2,381.4,208.4z"/>
		<path fill="#BD9459" d="M390.6,201.2c0-0.7,0.1-1.4,0.2-2.1s0.3-1.4,0.5-2s0.5-1.3,0.8-1.9s0.7-1.1,1.2-1.5s1-0.8,1.6-1
			s1.3-0.4,2-0.4c0.8,0,1.5,0.1,2.1,0.4s1.1,0.6,1.6,1s0.8,0.9,1.1,1.5s0.6,1.2,0.7,1.8s0.3,1.3,0.4,2s0.1,1.4,0.1,2s0,1.3-0.1,2
			s-0.2,1.4-0.5,2s-0.5,1.3-0.8,1.9s-0.7,1.1-1.2,1.5s-1,0.8-1.6,1s-1.3,0.4-2,0.4c-0.8,0-1.5-0.1-2.2-0.4s-1.2-0.6-1.6-1
			s-0.8-0.9-1.1-1.5s-0.5-1.2-0.7-1.8s-0.3-1.3-0.4-2S390.6,201.9,390.6,201.2z M393.1,200.7c0,0.6,0,1.1,0.1,1.8s0.1,1.2,0.2,1.9
			s0.3,1.2,0.4,1.8c0.2,0.6,0.4,1.1,0.7,1.5c0.3,0.4,0.6,0.8,1,1c0.4,0.3,0.8,0.4,1.4,0.4c0.5,0,0.9-0.1,1.2-0.3
			c0.4-0.2,0.7-0.5,0.9-0.8c0.3-0.3,0.5-0.8,0.7-1.2s0.3-1,0.4-1.5s0.2-1.1,0.2-1.7s0.1-1.2,0.1-1.8c0-0.6,0-1.3-0.1-2
			s-0.1-1.3-0.2-1.9s-0.3-1.2-0.4-1.7s-0.4-1-0.7-1.4c-0.3-0.4-0.6-0.7-0.9-0.9c-0.4-0.2-0.8-0.3-1.2-0.3c-0.5,0-0.9,0.1-1.2,0.3
			s-0.7,0.5-1,0.8c-0.3,0.4-0.5,0.8-0.7,1.2c-0.2,0.5-0.3,1-0.5,1.5s-0.2,1.1-0.3,1.7C393.1,199.5,393.1,200.1,393.1,200.7z"/>
		<path fill="#BD9459" d="M407.4,195c0.1,0.2,0.2,0.3,0.3,0.5s0.1,0.3,0.1,0.5c0,0.1,0,0.2-0.1,0.3c0,0.1-0.1,0.2-0.2,0.3
			c-0.1,0.1-0.2,0.2-0.3,0.3c-0.1,0.1-0.3,0.1-0.5,0.1c-0.3,0-0.6-0.1-0.8-0.4s-0.3-0.5-0.3-0.9c0-0.3,0.1-0.7,0.3-1.1
			s0.5-0.8,0.9-1.1s0.9-0.6,1.5-0.9s1.3-0.4,2.2-0.4c0.6,0,1.3,0.1,1.8,0.2s1.1,0.4,1.5,0.7s0.8,0.8,1.1,1.3s0.4,1.2,0.4,1.9
			c0,0.4-0.1,0.8-0.2,1.1s-0.4,0.7-0.7,1.1s-0.7,0.7-1.2,1s-1.1,0.6-1.9,0.8v0c0.8,0.1,1.4,0.2,2,0.5s1.1,0.6,1.5,1s0.7,0.9,1,1.4
			s0.3,1.1,0.3,1.7c0,0.8-0.2,1.5-0.5,2.1s-0.8,1.1-1.3,1.5s-1.2,0.7-1.9,0.9s-1.5,0.3-2.3,0.3c-0.9,0-1.6-0.1-2.3-0.3
			s-1.2-0.5-1.6-0.8s-0.7-0.7-0.9-1.1s-0.3-0.8-0.3-1.1c0-0.4,0.1-0.7,0.3-0.9s0.5-0.4,0.8-0.4c0.2,0,0.4,0,0.5,0.1s0.3,0.2,0.3,0.3
			s0.1,0.2,0.2,0.4s0.1,0.3,0.1,0.4c0,0.2,0,0.3-0.1,0.5s-0.1,0.3-0.2,0.5c0.1,0.3,0.2,0.5,0.4,0.7s0.4,0.3,0.7,0.5s0.6,0.2,0.9,0.3
			s0.6,0.1,1,0.1c0.6,0,1.1-0.1,1.6-0.2s0.9-0.4,1.2-0.7s0.6-0.7,0.8-1.1s0.3-1,0.3-1.6c0-0.5-0.1-1-0.2-1.5s-0.3-0.9-0.6-1.3
			s-0.8-0.7-1.3-0.9s-1.3-0.3-2.1-0.3c-0.3,0-0.6,0-0.9,0v-1.1h1c0.6,0,1.2-0.1,1.6-0.3s0.8-0.5,1-0.9s0.4-0.7,0.6-1.1
			c0.1-0.4,0.2-0.8,0.2-1.1c0-0.5,0-0.9-0.1-1.4c-0.1-0.4-0.2-0.8-0.5-1.1s-0.5-0.5-0.9-0.7s-0.8-0.3-1.4-0.3c-0.4,0-0.7,0.1-1,0.2
			s-0.6,0.2-0.8,0.4c-0.2,0.2-0.5,0.4-0.6,0.6S407.5,194.8,407.4,195z"/>
	</g>
</g>
<g>
	<defs>
		<rect id="SVGID_1_" x="6" y="5" width="239.5" height="239.5"/>
	</defs>
	<clipPath id="SVGID_2_">
		<use xlink:href="#SVGID_1_"  overflow="visible"/>
	</clipPath>
	<g opacity="0.25" clip-path="url(#SVGID_2_)">
		<g>
			<defs>
				<rect id="SVGID_3_" x="-3" y="-2" width="257.5" height="247.5"/>
			</defs>
			<clipPath id="SVGID_4_">
				<use xlink:href="#SVGID_3_"  overflow="visible"/>
			</clipPath>
			<path clip-path="url(#SVGID_4_)" fill="#BD9459" d="M245.5,124.8c0,66.1-53.6,119.8-119.8,119.8C59.6,244.5,6,190.9,6,124.8
				C6,58.6,59.6,5,125.8,5C191.9,5,245.5,58.6,245.5,124.8"/>
		</g>
	</g>
	<g opacity="0.35" clip-path="url(#SVGID_2_)">
		<g>
			<defs>
				<rect id="SVGID_5_" x="7.4" y="8.4" width="236.7" height="226.7"/>
			</defs>
			<clipPath id="SVGID_6_">
				<use xlink:href="#SVGID_5_"  overflow="visible"/>
			</clipPath>
			<path clip-path="url(#SVGID_6_)" fill="#BD9459" d="M235.1,124.8c0,60.4-49,109.3-109.3,109.3c-60.4,0-109.4-49-109.4-109.3
				c0-60.4,49-109.3,109.4-109.3C186.2,15.4,235.1,64.4,235.1,124.8"/>
		</g>
	</g>
	<g opacity="0.45" clip-path="url(#SVGID_2_)">
		<g>
			<defs>
				<rect id="SVGID_7_" x="17.8" y="18.8" width="215.9" height="205.9"/>
			</defs>
			<clipPath id="SVGID_8_">
				<use xlink:href="#SVGID_7_"  overflow="visible"/>
			</clipPath>
			<path clip-path="url(#SVGID_8_)" fill="#BD9459" d="M224.7,124.8c0,54.6-44.3,98.9-98.9,98.9c-54.6,0-98.9-44.3-98.9-98.9
				c0-54.6,44.3-98.9,98.9-98.9C180.4,25.8,224.7,70.1,224.7,124.8"/>
		</g>
	</g>
	<g opacity="0.55" clip-path="url(#SVGID_2_)">
		<g>
			<defs>
				<rect id="SVGID_9_" x="28.2" y="29.2" width="195" height="185"/>
			</defs>
			<clipPath id="SVGID_10_">
				<use xlink:href="#SVGID_9_"  overflow="visible"/>
			</clipPath>
			<path clip-path="url(#SVGID_10_)" fill="#BD9459" d="M214.3,124.8c0,48.9-39.6,88.5-88.5,88.5s-88.5-39.6-88.5-88.5
				c0-48.9,39.6-88.5,88.5-88.5S214.3,75.9,214.3,124.8"/>
		</g>
	</g>
	<path clip-path="url(#SVGID_2_)" fill="#BD9459" d="M203.9,124.8c0,43.1-35,78.1-78.1,78.1c-43.1,0-78.1-35-78.1-78.1
		c0-43.1,35-78.1,78.1-78.1C168.9,46.7,203.9,81.6,203.9,124.8"/>
</g>
</svg>
